<?xml version="1.0" standalone="no"?>
<!DOCTYPE svg PUBLIC "-//W3C//DTD SVG 1.1//EN" "http://www.w3.org/Graphics/SVG/1.1/DTD/svg11.dtd" >
<svg xmlns="http://www.w3.org/2000/svg" xmlns:xlink="http://www.w3.org/1999/xlink" version="1.1">
<metadata>
Created by FontForge 20170731 at Tue Apr 19 08:13:17 2022
 By Aleksey,,,
</metadata>
<defs>
<font id="Ray-Bold" horiz-adv-x="0" >
  <font-face 
    font-family="Ray"
    font-weight="700"
    font-stretch="normal"
    units-per-em="1000"
    panose-1="2 0 8 4 0 0 0 2 0 4"
    ascent="800"
    descent="-200"
    x-height="440"
    cap-height="610"
    bbox="-161 -531 1242 1000"
    underline-thickness="50"
    underline-position="-150"
    unicode-range="U+0020-FFFC"
  />
<missing-glyph horiz-adv-x="605" 
d="M173 103h259v509h-259v-509zM80 715h445v-715h-445v715z" />
    <glyph glyph-name="u0671" unicode="&#x627;&#x64b;" horiz-adv-x="203" 
d="M64 302q-1 34 -2.5 61t-5.5 49.5t-10 41.5t-16 39l69 67q15 -25 23 -50t12.5 -52t5.5 -58t1 -68v-310l-53 -22l-14 7zM185 700l7 -48l-231 -92l-7 48zM185 812l7 -48l-231 -92l-7 48z" />
    <glyph glyph-name="uFB51" unicode="&#xfe8e;&#x64b;" horiz-adv-x="237" arabic-form="final" 
d="M222 0q-44 0 -73.5 9.5t-47.5 30t-26 52.5t-8 78v132q0 34 -2 61t-6.5 49.5t-11.5 41.5t-17 39l69 67q15 -25 23 -50t12.5 -52t5.5 -58t1 -68v-195q11 -17 34.5 -24t46.5 -7h15v-106h-15zM185 700l7 -48l-231 -92l-7 48zM185 812l7 -48l-231 -92l-7 48z" />
    <glyph glyph-name="uFDF2" unicode="&#x627;&#xfedf;&#xfee0;&#xfeea;" horiz-adv-x="1091" arabic-form="isolated" 
d="M174 36q-36 0 -59.5 7.5t-37.5 23.5t-19.5 40t-5.5 56q0 28 4 53t11 44q8 10 25.5 24t41 30t50.5 33l54 34l-12 73l59 30l16 -8l51 -342q11 -15 35 -21.5t44 -6.5q28 0 54 4t40 12l-9 337l77 23v-290q0 -26 6 -43t18 -26.5t30 -13t42 -3.5q27 0 55 3t42 11l-7 152
q-1 33 -2.5 58.5t-5 47.5t-10.5 42.5t-19 44.5l70 64q16 -30 25 -58t13 -55t4.5 -55t0.5 -59v-142q0 -26 -7 -49.5t-16.5 -41.5t-19.5 -29.5t-15 -14.5q-17 -14 -44.5 -19.5t-65.5 -5.5q-54 0 -84.5 17t-43.5 43q-17 -32 -51.5 -46t-76.5 -14q-22 0 -43.5 3t-40 13t-33.5 27
t-24 46q-5 -13 -8 -20.5t-4 -8.5q-3 -6 -13.5 -10.5t-25 -7.5t-32 -4.5t-33.5 -1.5zM962 7l-9 409q-1 35 -3 61t-5.5 47.5t-9.5 42.5t-15 45l70 62q13 -30 21 -57t12 -54t5 -55.5t1 -61.5v-424l-52 -22zM648 559q-44 0 -65.5 9.5t-32.5 32.5q-14 -26 -32.5 -34t-47.5 -8
q-33 0 -48.5 17t-15.5 41q0 20 3.5 49.5t8.5 67.5l40 -4l-9 -106q3 -3 7 -5q8 -5 24 -5q26 0 37.5 10t13.5 36l5 42h39v-43q0 -25 17 -34.5t61 -10.5q3 23 0.5 50t-13.5 63l38 26l11 -4q8 -32 10 -51t2 -36q0 -24 -6.5 -49t-24.5 -54h-22zM175 135q21 0 48 1.5t55 7.5
l-27 162q-22 -12 -45 -26.5t-43 -28t-35 -25t-20 -18.5q-1 -20 0.5 -34t8.5 -22.5t20.5 -12.5t37.5 -4zM533 1000q15 -18 23.5 -33t13 -32.5t6 -38.5t1.5 -49v-72l-44 -19v75q0 20 -1.5 35t-6 28t-12 26t-19.5 28z" />
    <glyph glyph-name="uFEF5" unicode="&#xfedf;&#xfe82;" horiz-adv-x="476" arabic-form="isolated" 
d="M100 607q39 -86 62.5 -152.5t37 -119.5t18 -95t4.5 -78v-16t-1 -16q45 25 78.5 49.5t44.5 44.5l-6 192q-1 35 -2.5 61t-5 47.5t-9.5 42.5t-15 45l69 62q14 -30 22 -57t11.5 -54t4.5 -55.5t1 -61.5v-181q0 -54 -14.5 -85t-27.5 -47q-14 -18 -39.5 -38.5t-59 -42t-74 -42
t-85.5 -37.5l-53 64l3 16q25 11 50.5 22.5t51.5 24.5q-3 42 -10 86t-22 97t-39.5 117t-61.5 147zM-37 640l-40 33q15 31 24 50.5t15.5 30.5t12 15t14.5 4q6 0 15 -2.5t22.5 -5t31.5 -5t43 -2.5q28 0 61.5 4t67.5 15l5 -7l-17 -68q-34 -11 -68.5 -15.5t-62.5 -4.5
q-26 0 -49 4t-40 9l-25 -55h-10z" />
    <glyph glyph-name="uFEF6" unicode="&#xfee0;&#xfe82;" horiz-adv-x="495" arabic-form="final" 
d="M100 607q39 -86 62.5 -152.5t37 -119.5t18 -95t4.5 -78v-16t-1 -16q42 23 74 46t45 42v198q0 32 -1.5 57.5t-5.5 48t-10.5 44.5t-16.5 46l69 62q14 -30 22 -57t11.5 -54t4.5 -55.5t1 -61.5v-309q11 -17 34.5 -24t46.5 -7v-106q-74 0 -109 27.5t-43 91.5
q-36 -43 -96.5 -80.5t-132.5 -65.5l-53 64l3 16q25 11 50.5 22.5t51.5 24.5q-3 42 -10 86t-22 97t-39.5 117t-61.5 147zM-37 640l-40 33q15 31 24 50.5t15.5 30.5t12 15t14.5 4q6 0 15 -2.5t22.5 -5t31.5 -5t43 -2.5q28 0 61.5 4t67.5 15l5 -7l-17 -68q-34 -11 -68.5 -15.5
t-62.5 -4.5q-26 0 -49 4t-40 9l-25 -55h-10z" />
    <glyph glyph-name="uFEF7" unicode="&#xfedf;&#xfe84;" horiz-adv-x="476" arabic-form="isolated" 
d="M123 555q30 -71 49.5 -128.5t30.5 -105.5t15 -87.5t4 -75.5v-14.5t-1 -13.5q45 25 78.5 49.5t44.5 44.5l-6 192q-1 35 -2.5 61t-5 47.5t-9.5 42.5t-15 45l69 62q14 -30 22 -57t11.5 -54t4.5 -55.5t1 -61.5v-181q0 -54 -14.5 -85t-27.5 -47q-14 -18 -39.5 -38.5t-59 -42
t-74 -42t-85.5 -37.5l-53 64l3 16q25 11 50.5 22.5t51.5 24.5q-3 42 -9.5 84t-19.5 89t-33 101.5t-49 120.5zM155 806l-15 -48h-91q-2 -5 -3 -10.5t-1 -10.5q0 -25 16.5 -44t45.5 -19q14 0 37 5.5t55 16.5l5 -57l-215 -79l-7 48l63 30q-24 15 -36.5 39.5t-12.5 49.5
q0 20 6.5 41.5t23.5 49.5h121z" />
    <glyph glyph-name="uFEF8" unicode="&#xfee0;&#xfe84;" horiz-adv-x="495" arabic-form="final" 
d="M123 555q30 -71 49.5 -128.5t30.5 -105.5t15 -87.5t4 -75.5v-14.5t-1 -13.5q42 23 74 46t45 42v198q0 32 -1.5 57.5t-5.5 48t-10.5 44.5t-16.5 46l69 62q14 -30 22 -57t11.5 -54t4.5 -55.5t1 -61.5v-309q11 -17 34.5 -24t46.5 -7v-106q-74 0 -109 27.5t-43 91.5
q-36 -43 -96.5 -80.5t-132.5 -65.5l-53 64l3 16q25 11 50.5 22.5t51.5 24.5q-3 42 -9.5 84t-19.5 89t-33 101.5t-49 120.5zM155 806l-15 -48h-91q-2 -5 -3 -10.5t-1 -10.5q0 -25 16.5 -44t45.5 -19q14 0 37 5.5t55 16.5l5 -57l-215 -79l-7 48l63 30q-24 15 -36.5 39.5
t-12.5 49.5q0 20 6.5 41.5t23.5 49.5h121z" />
    <glyph glyph-name="uFEF9" unicode="&#xfedf;&#xfe88;" horiz-adv-x="476" arabic-form="isolated" 
d="M100 607q39 -86 62.5 -152.5t37 -119.5t18 -95t4.5 -78v-16t-1 -16q45 25 78.5 49.5t44.5 44.5l-6 192q-1 35 -2.5 61t-5 47.5t-9.5 42.5t-15 45l69 62q14 -30 22 -57t11.5 -54t4.5 -55.5t1 -61.5v-181q0 -54 -14.5 -85t-27.5 -47q-14 -18 -39.5 -38.5t-59 -42t-74 -42
t-85.5 -37.5l-53 64l3 16q25 11 50.5 22.5t51.5 24.5q-3 42 -10 86t-22 97t-39.5 117t-61.5 147zM202 -138l-15 -48h-91q-5 -15 -3 -30t10 -27t21 -19.5t30 -7.5q14 0 37 5.5t55 16.5l5 -57l-215 -79l-7 48l63 31q-24 15 -36.5 39t-12.5 49q0 20 6.5 41.5t23.5 49.5h121z
" />
    <glyph glyph-name="uFEFA" unicode="&#xfee0;&#xfe88;" horiz-adv-x="495" arabic-form="final" 
d="M100 607q39 -86 62.5 -152.5t37 -119.5t18 -95t4.5 -78v-16t-1 -16q42 23 74 46t45 42v198q0 32 -1.5 57.5t-5.5 48t-10.5 44.5t-16.5 46l69 62q14 -30 22 -57t11.5 -54t4.5 -55.5t1 -61.5v-309q11 -17 34.5 -24t46.5 -7v-106q-74 0 -109 27.5t-43 91.5
q-36 -43 -96.5 -80.5t-132.5 -65.5l-53 64l3 16q25 11 50.5 22.5t51.5 24.5q-3 42 -10 86t-22 97t-39.5 117t-61.5 147zM202 -138l-15 -48h-91q-5 -15 -3 -30t10 -27t21 -19.5t30 -7.5q14 0 37 5.5t55 16.5l5 -57l-215 -79l-7 48l63 31q-24 15 -36.5 39t-12.5 49
q0 20 6.5 41.5t23.5 49.5h121z" />
    <glyph glyph-name="uFEFB" unicode="&#xfedf;&#xfe8e;" horiz-adv-x="476" arabic-form="isolated" 
d="M100 607q39 -86 62.5 -152.5t37 -119.5t18 -95t4.5 -78v-16t-1 -16q45 25 78.5 49.5t44.5 44.5l-6 192q-1 35 -2.5 61t-5 47.5t-9.5 42.5t-15 45l69 62q14 -30 22 -57t11.5 -54t4.5 -55.5t1 -61.5v-181q0 -54 -14.5 -85t-27.5 -47q-14 -18 -39.5 -38.5t-59 -42t-74 -42
t-85.5 -37.5l-53 64l3 16q25 11 50.5 22.5t51.5 24.5q-3 42 -10 86t-22 97t-39.5 117t-61.5 147z" />
    <glyph glyph-name="uFEFC" unicode="&#xfee0;&#xfe8e;" horiz-adv-x="495" arabic-form="final" 
d="M100 607q39 -86 62.5 -152.5t37 -119.5t18 -95t4.5 -78v-16t-1 -16q42 23 74 46t45 42v198q0 32 -1.5 57.5t-5.5 48t-10.5 44.5t-16.5 46l69 62q14 -30 22 -57t11.5 -54t4.5 -55.5t1 -61.5v-309q11 -17 34.5 -24t46.5 -7v-106q-74 0 -109 27.5t-43 91.5
q-36 -43 -96.5 -80.5t-132.5 -65.5l-53 64l3 16q25 11 50.5 22.5t51.5 24.5q-3 42 -10 86t-22 97t-39.5 117t-61.5 147z" />
    <glyph glyph-name="uni06440671.isol" unicode="&#xfedf;&#xfb51;" horiz-adv-x="476" 
d="M123 555q33 -78 53 -140t30.5 -112.5t13 -92.5t1.5 -80q45 25 78.5 49.5t44.5 44.5l-6 192q-1 35 -2.5 61t-5 47.5t-9.5 42.5t-15 45l69 62q14 -30 22 -57t11.5 -54t4.5 -55.5t1 -61.5v-181q0 -54 -14.5 -85t-27.5 -47q-14 -18 -39.5 -38.5t-59 -42t-74 -42t-85.5 -37.5
l-53 64l3 16q25 11 50.5 22.5t51.5 24.5q-3 42 -9.5 84t-19.5 89t-33 101.5t-49 120.5zM203 812l7 -48l-231 -92l-7 48zM203 700l7 -48l-231 -92l-7 48z" />
    <glyph glyph-name="uni06440671.fina" unicode="&#xfee0;&#xfb51;" horiz-adv-x="495" 
d="M123 555q33 -78 53 -140t30.5 -112.5t13 -92.5t1.5 -80q42 23 74 46t45 42v198q0 32 -1.5 57.5t-5.5 48t-10.5 44.5t-16.5 46l69 62q14 -30 22 -57t11.5 -54t4.5 -55.5t1 -61.5v-309q11 -17 34.5 -24t46.5 -7v-106q-74 0 -109 27.5t-43 91.5q-36 -43 -96.5 -80.5
t-132.5 -65.5l-53 64l3 16q25 11 50.5 22.5t51.5 24.5q-3 42 -9.5 84t-19.5 89t-33 101.5t-49 120.5zM203 812l7 -48l-231 -92l-7 48zM203 700l7 -48l-231 -92l-7 48z" />
    <glyph glyph-name="uni06440644064F0647.isol" unicode="&#xfedf;&#x650;&#xfee0;&#x654;&#xfeea;" horiz-adv-x="907" 
d="M174 36q-36 0 -59.5 7.5t-37.5 23.5t-19.5 40t-5.5 56q0 28 4 53t11 44q8 10 25.5 24t41 30t50.5 33l54 34l-12 73l59 30l16 -8l51 -342q11 -15 35 -21.5t44 -6.5q28 0 54 4t40 12l-9 337l77 23v-290q0 -26 6 -43t18 -26.5t30 -13t42 -3.5q27 0 55 3t42 11l-7 152
q-1 33 -2.5 58.5t-5 47.5t-10.5 42.5t-19 44.5l70 64q16 -30 25 -58t13 -55t4.5 -55t0.5 -59v-142q0 -26 -7 -49.5t-16.5 -41.5t-19.5 -29.5t-15 -14.5q-17 -14 -44.5 -19.5t-65.5 -5.5q-54 0 -84.5 17t-43.5 43q-17 -32 -51.5 -46t-76.5 -14q-22 0 -43.5 3t-40 13t-33.5 27
t-24 46q-5 -13 -8 -20.5t-4 -8.5q-3 -6 -13.5 -10.5t-25 -7.5t-32 -4.5t-33.5 -1.5zM648 559q-44 0 -65.5 9.5t-32.5 32.5q-14 -26 -32.5 -34t-47.5 -8q-33 0 -48.5 17t-15.5 41q0 20 3.5 49.5t8.5 67.5l40 -4l-9 -106q3 -3 7 -5q8 -5 24 -5q26 0 37.5 10t13.5 36l5 42h39
v-43q0 -25 17 -34.5t61 -10.5q3 23 0.5 50t-13.5 63l38 26l11 -4q8 -32 10 -51t2 -36q0 -24 -6.5 -49t-24.5 -54h-22zM175 135q21 0 48 1.5t55 7.5l-27 162q-22 -12 -45 -26.5t-43 -28t-35 -25t-20 -18.5q-1 -20 0.5 -34t8.5 -22.5t20.5 -12.5t37.5 -4zM533 1000
q15 -18 23.5 -33t13 -32.5t6 -38.5t1.5 -49v-72l-44 -19v75q0 20 -1.5 35t-6 28t-12 26t-19.5 28z" />
    <glyph glyph-name="u0621" unicode="&#x621;" horiz-adv-x="430" arabic-form="isolated" 
d="M374 138q-81 -35 -156 -70.5t-154 -77.5l-9 7l-3 62l87 45q-41 20 -59 53t-18 63q0 37 17 70.5t42 58.5t52 39.5t48 14.5q17 0 39 -14.5t53 -38.5l-38 -60q-47 27 -59 27q-9 0 -23.5 -6t-29.5 -17.5t-28.5 -27t-20.5 -33.5q4 -16 14.5 -29t25 -22t32 -14t34.5 -5
q20 0 53.5 11t95.5 41l9 -6z" />
    <glyph glyph-name="u0622" unicode="&#x622;" horiz-adv-x="203" arabic-form="isolated" 
d="M74 7l-10 336q-1 34 -2.5 60.5t-5.5 49t-10 42t-16 39.5l69 66q15 -25 23 -49.5t12.5 -52t5.5 -58t1 -67.5v-351l-53 -22zM87 682q-26 0 -49 4t-40 9l-25 -55h-10l-40 33q15 31 24 50.5t15.5 30.5t12 15t14.5 4q6 0 15 -2.5t22.5 -5t31.5 -5t43 -2.5q28 0 61.5 4t67.5 15
l5 -7l-17 -68q-34 -11 -68.5 -15.5t-62.5 -4.5z" />
    <glyph glyph-name="u0623" unicode="&#x623;" horiz-adv-x="203" arabic-form="isolated" 
d="M74 7l-10 278q-1 34 -2.5 61t-5.5 49.5t-10 41.5t-16 39l69 67q15 -25 23 -49.5t12.5 -52t5.5 -58.5t1 -68v-293l-53 -22zM147 806l-15 -48h-91q-2 -5 -3 -10.5t-1 -10.5q0 -25 16.5 -44t45.5 -19q14 0 37 5.5t55 16.5l5 -57l-215 -79l-7 48l63 30q-24 15 -36.5 39.5
t-12.5 49.5q0 20 6.5 41.5t23.5 49.5h121z" />
    <glyph glyph-name="u0624" unicode="&#x624;" horiz-adv-x="410" arabic-form="isolated" 
d="M42 -170q42 8 82 23.5t74 38t60.5 50.5t42.5 60q0 4 -0.5 8t-0.5 9q-29 -11 -61 -18t-72 -7q-53 0 -85.5 21.5t-32.5 67.5q0 18 6.5 49.5t16.5 66.5t20.5 68.5t19.5 56.5l21 15q68 -3 112.5 -30t71 -68t37 -93t10.5 -106q0 -64 -22.5 -114.5t-54 -85.5t-65 -53.5
t-55.5 -18.5q-8 0 -36 4t-89 17v39zM247 639l-15 -48h-91q-5 -15 -3 -30t10 -27t21 -19.5t30 -7.5q14 0 37 5.5t55 16.5l5 -57l-215 -79l-7 48l63 30q-24 15 -36.5 39.5t-12.5 49.5q0 20 6.5 41.5t23.5 49.5h121zM188 94q27 0 53.5 3.5t46.5 8.5q-14 58 -46.5 96.5
t-96.5 44.5q-3 -9 -9 -27.5t-11.5 -39t-10.5 -39.5t-6 -29q10 -11 30.5 -14.5t49.5 -3.5z" />
    <glyph glyph-name="u0625" unicode="&#x625;" horiz-adv-x="203" arabic-form="isolated" 
d="M74 7l-9 409q-1 35 -3 61t-5.5 47.5t-9.5 42.5t-15 45l70 62q13 -30 21 -57t12 -54t5 -55.5t1 -61.5v-424l-52 -22zM169 -132l-15 -48h-91q-5 -15 -3 -30t10 -27t21 -19.5t30 -7.5q14 0 37 5.5t55 16.5l5 -57l-215 -79l-7 48l63 31q-24 15 -36.5 39t-12.5 49
q0 20 6.5 41.5t23.5 49.5h121z" />
    <glyph glyph-name="u0626" unicode="&#x626;" horiz-adv-x="636" arabic-form="isolated" 
d="M533 300q-23 14 -41 24.5t-26 10.5q-17 0 -39.5 -13.5t-44 -36.5t-39 -53.5t-24.5 -63.5q11 -10 52 -14.5t105 -8.5q34 -2 54.5 -8.5t31.5 -17.5t14 -27.5t3 -38.5q0 -21 -2.5 -42.5t-6 -40t-8 -33t-7.5 -20.5q-5 -9 -25.5 -26t-56.5 -34t-87.5 -29.5t-116.5 -12.5
t-107 13.5t-66.5 36.5t-34 52.5t-9.5 62.5q0 23 2.5 61t6.5 75q4 43 10 91l65 -3q-3 -48 -6 -92q-2 -38 -5 -77t-4 -62q19 -23 54.5 -37.5t93.5 -14.5q72 0 134 16.5t104 41.5q2 16 1.5 32.5t-1.5 30.5q-14 3 -50 5.5t-76 4.5q-68 5 -96 25t-28 66q0 54 22 105.5t55 92
t70.5 65t68.5 24.5q19 0 47 -20t58 -46zM248 570l-15 -48h-91q-5 -15 -3 -30t10 -27t21 -19.5t30 -7.5q14 0 37 5.5t55 16.5l5 -57l-215 -79l-7 48l63 30q-24 15 -36.5 39.5t-12.5 49.5q0 20 6.5 41.5t23.5 49.5h121z" />
    <glyph glyph-name="u0627" unicode="&#x627;" horiz-adv-x="203" arabic-form="isolated" 
d="M74 7l-9 409q-1 35 -3 61t-5.5 47.5t-9.5 42.5t-15 45l70 62q13 -30 21 -57t12 -54t5 -55.5t1 -61.5v-424l-52 -22z" />
    <glyph glyph-name="u0628" unicode="&#x628;" horiz-adv-x="709" arabic-form="isolated" 
d="M318 101q40 0 80 1.5t75.5 5.5t65.5 10t51 15q-5 37 -19.5 86t-31.5 90l67 48l17 -6q14 -41 24 -85.5t10 -87.5q0 -27 -6.5 -51.5t-17 -44t-23.5 -33t-25 -20.5q-26 -14 -93 -24t-174 -10q-55 0 -103.5 4t-84.5 18t-57 42t-21 75q0 23 2 52t4 54l6 58l65 -4
q-4 -54 -6.5 -90.5t-3.5 -66.5q24 -19 77 -27.5t122 -8.5zM408 -146l-48 -73l-85 53l45 75z" />
    <glyph glyph-name="u0629" unicode="&#x629;" horiz-adv-x="418" arabic-form="isolated" 
d="M185 0q-63 0 -98 23t-35 73q0 21 5.5 51t15.5 67t23 79.5t28 88.5l17 12q67 -21 110.5 -46t69 -55t35.5 -64t10 -73q0 -32 -9 -61.5t-21 -47.5q-9 -13 -25 -22t-36 -14.5t-43 -8t-47 -2.5zM153 290q-5 -12 -11 -32.5t-12 -43t-11 -45.5t-7 -40q8 -11 34 -17t51 -6
q24 0 50.5 3t51.5 12q-1 29 -7.5 53.5t-23 45t-44.5 38t-71 32.5zM194 510l48 73l85 -53l-45 -75zM108 583l88 -55l-48 -73l-86 53z" />
    <glyph glyph-name="u062A" unicode="&#x62a;" horiz-adv-x="709" arabic-form="isolated" 
d="M318 101q40 0 80 1.5t75.5 5.5t65.5 10t51 15q-5 37 -19.5 86t-31.5 90l67 48l17 -6q14 -41 24 -85.5t10 -87.5q0 -27 -6.5 -51.5t-17 -44t-23.5 -33t-25 -20.5q-26 -14 -93 -24t-174 -10q-55 0 -103.5 4t-84.5 18t-57 42t-21 75q0 23 2 52t4 54l6 58l65 -4
q-4 -54 -6.5 -90.5t-3.5 -66.5q24 -19 77 -27.5t122 -8.5zM251 472l88 -55l-48 -73l-86 53zM337 399l48 73l85 -53l-45 -75z" />
    <glyph glyph-name="u062B" unicode="&#x62b;" horiz-adv-x="709" arabic-form="isolated" 
d="M318 101q40 0 80 1.5t75.5 5.5t65.5 10t51 15q-5 37 -19.5 86t-31.5 90l67 48l17 -6q14 -41 24 -85.5t10 -87.5q0 -27 -6.5 -51.5t-17 -44t-23.5 -33t-25 -20.5q-26 -14 -93 -24t-174 -10q-55 0 -103.5 4t-84.5 18t-57 42t-21 75q0 23 2 52t4 54l6 58l65 -4
q-4 -54 -6.5 -90.5t-3.5 -66.5q24 -19 77 -27.5t122 -8.5zM298 605l86 -53l-46 -76l-88 56zM251 472l88 -55l-48 -73l-86 53zM337 399l48 73l85 -53l-45 -75z" />
    <glyph glyph-name="u062C" unicode="&#x62c;" horiz-adv-x="579" arabic-form="isolated" 
d="M512 -197l-23 -78q-60 -8 -112 -9t-81 -1q-55 0 -100 11t-76.5 36.5t-48.5 67.5t-17 104v21q0 34 16 74t52.5 82.5t96 85t147.5 80.5q-73 26 -125 40.5t-71 14.5q-14 0 -29 -5t-24 -13v-53t1 -51l-12 -11l-47 24q-2 18 -2 33.5v32.5q0 45 3 63t8 23q2 2 12 9.5t24.5 15.5
t33.5 14.5t39 6.5t55 -8.5t80 -23t98.5 -33.5t111.5 -40l5 -17l-31 -67q-36 0 -69 -10t-70 -27q-91 -43 -155.5 -99.5t-85.5 -122.5v-12q0 -39 10 -67.5t32.5 -47t59.5 -28t90 -9.5q37 0 81.5 1t112.5 7zM407 -5l-48 -73l-85 53l45 75z" />
    <glyph glyph-name="u062D" unicode="&#x62d;" horiz-adv-x="579" arabic-form="isolated" 
d="M512 -197l-23 -78q-60 -8 -112 -9t-81 -1q-55 0 -100 11t-76.5 36.5t-48.5 67.5t-17 104v21q0 34 16 74t52.5 82.5t96 85t147.5 80.5q-73 26 -125 40.5t-71 14.5q-14 0 -29 -5t-24 -13v-53t1 -51l-12 -11l-47 24q-2 18 -2 33.5v32.5q0 45 3 63t8 23q2 2 12 9.5t24.5 15.5
t33.5 14.5t39 6.5t55 -8.5t80 -23t98.5 -33.5t111.5 -40l5 -17l-31 -67q-36 0 -69 -10t-70 -27q-91 -43 -155.5 -99.5t-85.5 -122.5v-12q0 -39 10 -67.5t32.5 -47t59.5 -28t90 -9.5q37 0 81.5 1t112.5 7z" />
    <glyph glyph-name="u062E" unicode="&#x62e;" horiz-adv-x="579" arabic-form="isolated" 
d="M512 -197l-23 -78q-60 -8 -112 -9t-81 -1q-55 0 -100 11t-76.5 36.5t-48.5 67.5t-17 104v21q0 34 16 74t52.5 82.5t96 85t147.5 80.5q-73 26 -125 40.5t-71 14.5q-14 0 -29 -5t-24 -13v-53t1 -51l-12 -11l-47 24q-2 18 -2 33.5v32.5q0 45 3 63t8 23q2 2 12 9.5t24.5 15.5
t33.5 14.5t39 6.5t55 -8.5t80 -23t98.5 -33.5t111.5 -40l5 -17l-31 -67q-36 0 -69 -10t-70 -27q-91 -43 -155.5 -99.5t-85.5 -122.5v-12q0 -39 10 -67.5t32.5 -47t59.5 -28t90 -9.5q37 0 81.5 1t112.5 7zM137 562l45 75l88 -55l-48 -73z" />
    <glyph glyph-name="u062F" unicode="&#x62f;" horiz-adv-x="455" arabic-form="isolated" 
d="M184 0q-79 0 -109.5 24t-30.5 78q0 16 1 35t3 36q2 19 5 40l60 -4q-1 -18 -2 -35q-1 -14 -2 -29.5t-1 -25.5q12 -8 40 -10.5t55 -2.5q24 0 60.5 2.5t74.5 12.5q-2 39 -10 73t-28 63t-53.5 53.5t-85.5 46.5l22 75l17 13q55 -17 94 -47t63 -69t35 -84t11 -91
q0 -42 -11 -71.5t-36.5 -48t-67.5 -26.5t-104 -8z" />
    <glyph glyph-name="u0630" unicode="&#x630;" horiz-adv-x="455" arabic-form="isolated" 
d="M184 0q-79 0 -109.5 24t-30.5 78q0 16 1 35t3 36q2 19 5 40l60 -4q-1 -18 -2 -35q-1 -14 -2 -29.5t-1 -25.5q12 -8 40 -10.5t55 -2.5q24 0 60.5 2.5t74.5 12.5q-2 39 -10 73t-28 63t-53.5 53.5t-85.5 46.5l22 75l17 13q55 -17 94 -47t63 -69t35 -84t11 -91
q0 -42 -11 -71.5t-36.5 -48t-67.5 -26.5t-104 -8zM154 573l45 75l88 -55l-48 -73z" />
    <glyph glyph-name="u0631" unicode="&#x631;" horiz-adv-x="257" arabic-form="isolated" 
d="M-78 -170q41 10 77 30t64.5 45t48.5 54.5t29 59.5q-3 19 -10 44t-16.5 52t-20 55t-21.5 53l69 46l17 -6q22 -54 35.5 -115t13.5 -106q0 -65 -19.5 -116t-46.5 -85.5t-55.5 -52.5t-46.5 -18q-8 0 -32.5 4t-85.5 17v39z" />
    <glyph glyph-name="u0632" unicode="&#x632;" horiz-adv-x="257" arabic-form="isolated" 
d="M-78 -170q41 10 77 30t64.5 45t48.5 54.5t29 59.5q-3 19 -10 44t-16.5 52t-20 55t-21.5 53l69 46l17 -6q22 -54 35.5 -115t13.5 -106q0 -65 -19.5 -116t-46.5 -85.5t-55.5 -52.5t-46.5 -18q-8 0 -32.5 4t-85.5 17v39zM43 389l45 75l88 -55l-48 -73z" />
    <glyph glyph-name="u0633" unicode="&#x633;" horiz-adv-x="1065" arabic-form="isolated" 
d="M847 0q-32 0 -59.5 13t-45.5 56q-11 -22 -19 -32.5t-19 -16.5q-14 -9 -36 -14.5t-49 -5.5q-17 0 -31.5 2t-28.5 10q1 -6 1 -13v-15q0 -42 -7 -72.5t-15 -44.5q-5 -9 -25.5 -26t-55.5 -34t-83.5 -29.5t-108.5 -12.5q-63 0 -104 13.5t-65.5 36.5t-34 52.5t-9.5 62.5
q0 19 2 50.5t5 65t6.5 64t5.5 47.5l65 -3q-3 -33 -5.5 -68.5t-4.5 -67.5t-3.5 -57.5t-1.5 -37.5q19 -23 54.5 -37.5t89.5 -14.5q31 0 63.5 4.5t63 13t56.5 19.5t44 24q-5 77 -21 155.5t-33 138.5l68 43l16 -4q12 -49 20 -86.5t16 -54.5q10 -10 27 -14t36 -4q22 0 41.5 2.5
t36.5 10.5l28 146h62q-1 -26 -1.5 -42t-1 -25.5t-0.5 -15v-8.5q0 -35 19.5 -51.5t47.5 -16.5q22 0 47.5 5.5t45.5 13.5q-2 19 -6.5 42t-11.5 47t-15 48t-16 44l65 51l17 -6q17 -46 25.5 -91t8.5 -90q0 -26 -6.5 -49.5t-16.5 -43t-20.5 -32.5t-17.5 -18q-20 -15 -47 -21
t-58 -6z" />
    <glyph glyph-name="u0634" unicode="&#x634;" horiz-adv-x="1065" arabic-form="isolated" 
d="M847 0q-32 0 -59.5 13t-45.5 56q-11 -22 -19 -32.5t-19 -16.5q-14 -9 -36 -14.5t-49 -5.5q-17 0 -31.5 2t-28.5 10q1 -6 1 -13v-15q0 -42 -7 -72.5t-15 -44.5q-5 -9 -25.5 -26t-55.5 -34t-83.5 -29.5t-108.5 -12.5q-63 0 -104 13.5t-65.5 36.5t-34 52.5t-9.5 62.5
q0 19 2 50.5t5 65t6.5 64t5.5 47.5l65 -3q-3 -33 -5.5 -68.5t-4.5 -67.5t-3.5 -57.5t-1.5 -37.5q19 -23 54.5 -37.5t89.5 -14.5q31 0 63.5 4.5t63 13t56.5 19.5t44 24q-5 77 -21 155.5t-33 138.5l68 43l16 -4q12 -49 20 -86.5t16 -54.5q10 -10 27 -14t36 -4q22 0 41.5 2.5
t36.5 10.5l28 146h62q-1 -26 -1.5 -42t-1 -25.5t-0.5 -15v-8.5q0 -35 19.5 -51.5t47.5 -16.5q22 0 47.5 5.5t45.5 13.5q-2 19 -6.5 42t-11.5 47t-15 48t-16 44l65 51l17 -6q17 -46 25.5 -91t8.5 -90q0 -26 -6.5 -49.5t-16.5 -43t-20.5 -32.5t-17.5 -18q-20 -15 -47 -21
t-58 -6zM698 603l86 -53l-46 -76l-88 56zM651 470l88 -55l-48 -73l-86 53zM737 397l48 73l85 -53l-45 -75z" />
    <glyph glyph-name="u0635" unicode="&#x635;" horiz-adv-x="1068" arabic-form="isolated" 
d="M681 0q-44 0 -73 4.5t-49 17.5q1 -8 1 -17.5v-20.5q0 -42 -7 -72.5t-15 -44.5q-5 -9 -25.5 -26t-55.5 -34t-83.5 -29.5t-108.5 -12.5q-63 0 -104 13.5t-65.5 36.5t-34 52.5t-9.5 62.5q0 23 2.5 61t6.5 75q4 43 10 91l65 -3q-3 -48 -6 -92q-2 -38 -5 -77t-4 -62
q19 -23 54.5 -37.5t89.5 -14.5q31 0 63.5 4.5t63 13t56.5 19.5t44 24q-5 77 -21 155.5t-33 138.5l68 43l16 -4l15 -67q4 -18 8.5 -32t11.5 -24q95 81 151.5 128t87.5 70.5t44.5 29.5t23.5 6q25 0 52 -15t49.5 -42.5t36.5 -65t14 -82.5q0 -17 -4.5 -38.5t-13.5 -42.5t-22 -38
t-29 -24q-60 -28 -199 -28h-67zM839 278q-9 0 -24 -8t-41 -27.5t-66.5 -52t-98.5 -81.5q18 -3 45 -3h132q63 0 100.5 5t60.5 16q0 30 -12 57t-28.5 48t-35 33.5t-32.5 12.5z" />
    <glyph glyph-name="u0636" unicode="&#x636;" horiz-adv-x="1068" arabic-form="isolated" 
d="M681 0q-44 0 -73 4.5t-49 17.5q1 -8 1 -17.5v-20.5q0 -42 -7 -72.5t-15 -44.5q-5 -9 -25.5 -26t-55.5 -34t-83.5 -29.5t-108.5 -12.5q-63 0 -104 13.5t-65.5 36.5t-34 52.5t-9.5 62.5q0 23 2.5 61t6.5 75q4 43 10 91l65 -3q-3 -48 -6 -92q-2 -38 -5 -77t-4 -62
q19 -23 54.5 -37.5t89.5 -14.5q31 0 63.5 4.5t63 13t56.5 19.5t44 24q-5 77 -21 155.5t-33 138.5l68 43l16 -4l15 -67q4 -18 8.5 -32t11.5 -24q95 81 151.5 128t87.5 70.5t44.5 29.5t23.5 6q25 0 52 -15t49.5 -42.5t36.5 -65t14 -82.5q0 -17 -4.5 -38.5t-13.5 -42.5t-22 -38
t-29 -24q-60 -28 -199 -28h-67zM839 278q-9 0 -24 -8t-41 -27.5t-66.5 -52t-98.5 -81.5q18 -3 45 -3h132q63 0 100.5 5t60.5 16q0 30 -12 57t-28.5 48t-35 33.5t-32.5 12.5zM784 505l45 75l88 -55l-48 -73z" />
    <glyph glyph-name="u0637" unicode="&#x637;" horiz-adv-x="659" arabic-form="isolated" 
d="M338 0q-58 0 -122.5 2t-133.5 11l-42 89l7 17q19 -2 35.5 -3.5t32.5 -3.5l72 64q9 8 15 15.5t10 18t6 25.5t2 36v25.5t-0.5 38.5t-1 42.5t-1.5 38.5q-1 35 -2.5 61t-5 47.5t-9.5 42.5t-15 45l70 62q13 -30 21 -57t12 -54t5 -55.5t1 -61.5q0 -41 -0.5 -70.5t-1 -51t-2 -37
t-4.5 -27.5q45 37 74 60t47 35.5t28.5 16.5t18.5 4q25 0 52.5 -15t49.5 -42.5t36.5 -65t14.5 -82.5q0 -17 -5 -38.5t-14 -42.5t-22 -38t-29 -24q-31 -14 -79 -21t-120 -7zM429 278q-8 0 -23 -8t-42 -28t-67.5 -53t-100.5 -82q35 -1 77 -1h104q63 0 100 5t61 16
q-1 30 -12.5 57t-28 48t-35 33.5t-33.5 12.5z" />
    <glyph glyph-name="u0638" unicode="&#x638;" horiz-adv-x="659" arabic-form="isolated" 
d="M338 0q-58 0 -122.5 2t-133.5 11l-42 89l7 17q19 -2 35.5 -3.5t32.5 -3.5l72 64q9 8 15 15.5t10 18t6 25.5t2 36v25.5t-0.5 38.5t-1 42.5t-1.5 38.5q-1 35 -2.5 61t-5 47.5t-9.5 42.5t-15 45l70 62q13 -30 21 -57t12 -54t5 -55.5t1 -61.5q0 -41 -0.5 -70.5t-1 -51t-2 -37
t-4.5 -27.5q45 37 74 60t47 35.5t28.5 16.5t18.5 4q25 0 52.5 -15t49.5 -42.5t36.5 -65t14.5 -82.5q0 -17 -5 -38.5t-14 -42.5t-22 -38t-29 -24q-31 -14 -79 -21t-120 -7zM429 278q-8 0 -23 -8t-42 -28t-67.5 -53t-100.5 -82q35 -1 77 -1h104q63 0 100 5t61 16
q-1 30 -12.5 57t-28 48t-35 33.5t-33.5 12.5zM390 498l45 75l88 -55l-48 -73z" />
    <glyph glyph-name="u0639" unicode="&#x639;" horiz-adv-x="485" arabic-form="isolated" 
d="M50 -45q0 18 5 39.5t17.5 45.5t35 50t58.5 54q-29 12 -49.5 29.5t-34 37.5t-19.5 42t-6 43q0 43 21 80.5t51.5 65t63.5 43t57 15.5q21 0 49 -20t60 -48l-43 -67q-58 38 -75 38q-14 0 -31.5 -7.5t-34.5 -21t-32 -31t-24 -37.5q4 -18 15 -35t28 -29.5t38.5 -20t45.5 -7.5
q26 0 66 15t106 44l12 -12l-5 -81q-73 -28 -126.5 -53t-90.5 -50t-60 -51t-36 -57v-11q0 -75 43 -112t144 -37h36.5t39.5 1t46.5 2.5t58.5 4.5l10 -14l-23 -78q-58 -8 -104 -9t-75 -1q-52 0 -95.5 10.5t-75 35.5t-49.5 66.5t-18 103.5v24v0z" />
    <glyph glyph-name="u063A" unicode="&#x63a;" horiz-adv-x="485" arabic-form="isolated" 
d="M50 -45q0 18 5 39.5t17.5 45.5t35 50t58.5 54q-29 12 -49.5 29.5t-34 37.5t-19.5 42t-6 43q0 43 21 80.5t51.5 65t63.5 43t57 15.5q21 0 49 -20t60 -48l-43 -67q-58 38 -75 38q-14 0 -31.5 -7.5t-34.5 -21t-32 -31t-24 -37.5q4 -18 15 -35t28 -29.5t38.5 -20t45.5 -7.5
q26 0 66 15t106 44l12 -12l-5 -81q-73 -28 -126.5 -53t-90.5 -50t-60 -51t-36 -57v-11q0 -75 43 -112t144 -37h36.5t39.5 1t46.5 2.5t58.5 4.5l10 -14l-23 -78q-58 -8 -104 -9t-75 -1q-52 0 -95.5 10.5t-75 35.5t-49.5 66.5t-18 103.5v24zM171 621l45 75l88 -55l-48 -73z
" />
    <glyph glyph-name="u0641" unicode="&#x641;" horiz-adv-x="730" arabic-form="isolated" 
d="M318 -5q-55 0 -103.5 4t-84.5 18t-57 42t-21 75q0 23 2 52t4 54l6 58l65 -4q-4 -54 -6.5 -90.5t-3.5 -66.5q24 -19 77 -27.5t122 -8.5q104 0 181 7t117 22q0 39 -3 77q-30 -9 -61.5 -13.5t-77.5 -4.5q-55 0 -82 22t-27 60q0 18 6 47t15 60.5t19 63t18 54.5q6 3 10 7
q4 3 7 5.5t4 3.5q73 -1 118.5 -29.5t71 -74t35 -102.5t9.5 -114q0 -33 -6.5 -59.5t-17 -47t-23.5 -34.5t-26 -21q-28 -15 -100.5 -25t-186.5 -10zM499 277q29 0 55.5 3.5t46.5 8.5q-7 28 -18.5 52t-29 41t-42 27.5t-57.5 11.5q-4 -9 -9 -26t-10.5 -36t-9.5 -37l-6 -27
q12 -11 31.5 -14.5t48.5 -3.5zM429 636l45 75l88 -55l-48 -73z" />
    <glyph glyph-name="u0642" unicode="&#x642;" horiz-adv-x="621" arabic-form="isolated" 
d="M336 387q73 -2 118.5 -30t71 -73.5t34.5 -105t9 -124.5q0 -54 -7 -88.5t-15 -48.5q-5 -9 -25.5 -26t-56 -34t-85 -29.5t-111.5 -12.5q-65 0 -107 13.5t-66.5 36.5t-34 52.5t-9.5 62.5q0 23 2.5 61t6.5 75q4 43 10 91l65 -3q-3 -48 -6 -92q-2 -38 -5 -77t-4 -62
q19 -23 54.5 -37.5t93.5 -14.5q66 0 130 17.5t106 45.5q0 22 -0.5 43.5t-1.5 41.5q-29 -11 -61 -18t-72 -7q-53 0 -85.5 21.5t-32.5 67.5q0 18 6.5 49t16.5 65.5t20.5 67.5t19.5 56zM391 144q28 0 54 3.5t46 8.5q-14 61 -46.5 98t-97.5 40q-3 -9 -8.5 -27t-11 -38
t-10.5 -38.5t-6 -28.5q10 -11 30.5 -14.5t49.5 -3.5zM306 583l88 -55l-48 -73l-86 53zM392 510l48 73l85 -53l-45 -75z" />
    <glyph glyph-name="u0643" unicode="&#x643;" horiz-adv-x="715" arabic-form="isolated" 
d="M614 674q13 -30 21 -57t12 -54t5 -55.5t1 -61.5v-282q0 -24 -6 -46.5t-16 -41t-21.5 -32t-23.5 -19.5q-23 -12 -89.5 -21t-170.5 -9q-58 0 -108 4t-87 18t-58 42t-21 75q0 23 2 52t4 54l6 58l65 -4q-4 -54 -6.5 -90.5t-3.5 -66.5q24 -19 78 -27.5t129 -8.5q88 0 154 5
t104 19l-7 291q-1 35 -3 61t-5.5 47.5t-9.5 42.5t-15 45zM446 448l-117 -33q30 -13 49.5 -25.5t30 -24t14.5 -22.5t4 -21q0 -17 -7 -31.5t-24.5 -27t-46.5 -23.5t-73 -20l-36 45l7 11q37 5 74 15t58 23q-9 11 -32 26.5t-66 33.5l-6 10q3 22 6.5 37t9 25t13.5 15.5t20 9.5
l130 42z" />
    <glyph glyph-name="u0644" unicode="&#x644;" horiz-adv-x="578" arabic-form="isolated" 
d="M136 204q-3 -49 -6 -93q-2 -38 -5 -77t-4 -62q14 -20 48 -35.5t83 -15.5q51 0 102 12.5t96 40.5l-10 442q-1 35 -2.5 61t-5 47.5t-9.5 42.5t-15 45l69 62q14 -30 22 -57t11.5 -54t4.5 -55.5t1 -61.5v-424q0 -36 -5 -68t-14 -46q-6 -10 -25 -25.5t-50 -30.5t-73.5 -26
t-96.5 -11q-58 0 -96.5 13.5t-61.5 36.5t-32.5 52.5t-9.5 62.5q0 23 2.5 61t6.5 75q4 43 10 91l65 -3v0z" />
    <glyph glyph-name="u0645" unicode="&#x645;" horiz-adv-x="502" arabic-form="isolated" 
d="M370 0q-27 0 -60.5 9t-65.5 22t-59.5 27.5t-42.5 24.5q-5 -5 -8 -11t-4.5 -15.5t-1.5 -24.5v-37v-39t1 -50t1.5 -56.5t2.5 -56.5l-64 -29l-13 7q-2 46 -2.5 90t-1 81.5t-0.5 68v49.5q0 41 20.5 74t70.5 41l49 77q17 27 35 46t41 32t53 19.5t71 9.5l21 -14q19 -74 28 -132
t9 -90q0 -24 -7.5 -46.5t-19.5 -39.5t-26 -27t-27 -10zM354 262q-28 -3 -47 -6.5t-34.5 -14t-32 -31t-40.5 -57.5q44 -26 93 -39.5t88 -16.5q-1 30 -8.5 76.5t-18.5 88.5z" />
    <glyph glyph-name="u0646" unicode="&#x646;" horiz-adv-x="612" arabic-form="isolated" 
d="M560 39q0 -43 -7 -75.5t-15 -46.5q-5 -9 -25.5 -26t-55.5 -34t-83.5 -29.5t-108.5 -12.5q-63 0 -104 13.5t-65.5 36.5t-34 52.5t-9.5 62.5q0 23 2.5 61t6.5 75q4 43 10 91l65 -3q-3 -48 -6 -92q-2 -38 -5 -77t-4 -62q19 -23 54.5 -37.5t89.5 -14.5q31 0 63.5 4.5t63 13
t56.5 19.5t44 24q-5 77 -21 155.5t-33 138.5l68 43l16 -4q20 -75 29 -145t9 -131zM208 333l45 75l88 -55l-48 -73z" />
    <glyph glyph-name="u0647" unicode="&#x647;" horiz-adv-x="418" arabic-form="isolated" 
d="M185 0q-63 0 -98 23t-35 73q0 21 5.5 51t15.5 67t23 79.5t28 88.5l17 12q67 -21 110.5 -46t69 -55t35.5 -64t10 -73q0 -32 -9 -61.5t-21 -47.5q-9 -13 -25 -22t-36 -14.5t-43 -8t-47 -2.5zM153 290q-5 -12 -11 -32.5t-12 -43t-11 -45.5t-7 -40q8 -11 34 -17t51 -6
q24 0 50.5 3t51.5 12q-1 29 -7.5 53.5t-23 45t-44.5 38t-71 32.5z" />
    <glyph glyph-name="u0648" unicode="&#x648;" horiz-adv-x="410" arabic-form="isolated" 
d="M42 -170q42 8 82 23.5t74 38t60.5 50.5t42.5 60q0 4 -0.5 8t-0.5 9q-29 -11 -61 -18t-72 -7q-53 0 -85.5 21.5t-32.5 67.5q0 18 6.5 49.5t16.5 66.5t20.5 68.5t19.5 56.5l21 15q68 -3 112.5 -30t71 -68t37 -93t10.5 -106q0 -64 -22.5 -114.5t-54 -85.5t-65 -53.5
t-55.5 -18.5q-8 0 -36 4t-89 17v39zM188 94q27 0 53.5 3.5t46.5 8.5q-14 58 -46.5 96.5t-96.5 44.5q-3 -9 -9 -27.5t-11.5 -39t-10.5 -39.5t-6 -29q10 -11 30.5 -14.5t49.5 -3.5z" />
    <glyph glyph-name="u0649" unicode="&#x649;" horiz-adv-x="636" arabic-form="isolated" 
d="M533 300q-23 14 -41 24.5t-26 10.5q-17 0 -39.5 -13.5t-44 -36.5t-39 -53.5t-24.5 -63.5q11 -10 52 -14.5t105 -8.5q34 -2 54.5 -8.5t31.5 -17.5t14 -27.5t3 -38.5q0 -21 -2.5 -42.5t-6 -40t-8 -33t-7.5 -20.5q-5 -9 -25.5 -26t-56.5 -34t-87.5 -29.5t-116.5 -12.5
t-107 13.5t-66.5 36.5t-34 52.5t-9.5 62.5q0 23 2.5 61t6.5 75q4 43 10 91l65 -3q-3 -48 -6 -92q-2 -38 -5 -77t-4 -62q19 -23 54.5 -37.5t93.5 -14.5q72 0 134 16.5t104 41.5q2 16 1.5 32.5t-1.5 30.5q-14 3 -50 5.5t-76 4.5q-68 5 -96 25t-28 66q0 54 22 105.5t55 92
t70.5 65t68.5 24.5q19 0 47 -20t58 -46z" />
    <glyph glyph-name="u064A" unicode="&#x64a;" horiz-adv-x="636" arabic-form="isolated" 
d="M533 300q-23 14 -41 24.5t-26 10.5q-17 0 -39.5 -13.5t-44 -36.5t-39 -53.5t-24.5 -63.5q11 -10 52 -14.5t105 -8.5q34 -2 54.5 -8.5t31.5 -17.5t14 -27.5t3 -38.5q0 -21 -2.5 -42.5t-6 -40t-8 -33t-7.5 -20.5q-5 -9 -25.5 -26t-56.5 -34t-87.5 -29.5t-116.5 -12.5
t-107 13.5t-66.5 36.5t-34 52.5t-9.5 62.5q0 23 2.5 61t6.5 75q4 43 10 91l65 -3q-3 -48 -6 -92q-2 -38 -5 -77t-4 -62q19 -23 54.5 -37.5t93.5 -14.5q72 0 134 16.5t104 41.5q2 16 1.5 32.5t-1.5 30.5q-14 3 -50 5.5t-76 4.5q-68 5 -96 25t-28 66q0 54 22 105.5t55 92
t70.5 65t68.5 24.5q19 0 47 -20t58 -46zM213 -250l88 -55l-48 -73l-86 53zM432 -303l-45 -75l-88 55l48 73z" />
    <glyph glyph-name="u067E" unicode="&#x67e;" horiz-adv-x="709" arabic-form="isolated" 
d="M318 101q40 0 80 1.5t75.5 5.5t65.5 10t51 15q-5 37 -19.5 86t-31.5 90l67 48l17 -6q14 -41 24 -85.5t10 -87.5q0 -27 -6.5 -51.5t-17 -44t-23.5 -33t-25 -20.5q-26 -14 -93 -24t-174 -10q-55 0 -103.5 4t-84.5 18t-57 42t-21 75q0 23 2 52t4 54l6 58l65 -4
q-4 -54 -6.5 -90.5t-3.5 -66.5q24 -19 77 -27.5t122 -8.5zM256 -91l88 -55l-48 -73l-86 53zM475 -144l-45 -75l-88 55l48 73zM382 -352l-85 53l46 75l87 -55z" />
    <glyph glyph-name="u0686" unicode="&#x686;" horiz-adv-x="579" arabic-form="isolated" 
d="M512 -197l-23 -78q-60 -8 -112 -9t-81 -1q-55 0 -100 11t-76.5 36.5t-48.5 67.5t-17 104v21q0 34 16 74t52.5 82.5t96 85t147.5 80.5q-73 26 -125 40.5t-71 14.5q-14 0 -29 -5t-24 -13v-53t1 -51l-12 -11l-47 24q-2 18 -2 33.5v32.5q0 45 3 63t8 23q2 2 12 9.5t24.5 15.5
t33.5 14.5t39 6.5t55 -8.5t80 -23t98.5 -33.5t111.5 -40l5 -17l-31 -67q-36 0 -69 -10t-70 -27q-91 -43 -155.5 -99.5t-85.5 -122.5v-12q0 -39 10 -67.5t32.5 -47t59.5 -28t90 -9.5q37 0 81.5 1t112.5 7zM277 76l74 -46l-41 -62l-72 45zM423 -32l-74 46l41 62l71 -45z
M383 -144l-72 45l39 63l73 -46z" />
    <glyph glyph-name="u0698" unicode="&#x698;" horiz-adv-x="257" arabic-form="isolated" 
d="M-78 -170q41 10 77 30t64.5 45t48.5 54.5t29 59.5q-3 19 -10 44t-16.5 52t-20 55t-21.5 53l69 46l17 -6q22 -54 35.5 -115t13.5 -106q0 -65 -19.5 -116t-46.5 -85.5t-55.5 -52.5t-46.5 -18q-8 0 -32.5 4t-85.5 17v39zM110 391l48 73l85 -53l-45 -75zM71 597l86 -53
l-46 -76l-88 56zM24 464l88 -55l-48 -73l-86 53z" />
    <glyph glyph-name="u06A9" unicode="&#x6a9;" horiz-adv-x="690" arabic-form="isolated" 
d="M318 101q81 0 146.5 6t104.5 20q-4 29 -19 61t-44 68.5t-72.5 77.5t-104.5 89l11 56q3 16 7 26.5t10.5 17.5t17.5 11t29 8l278 70l10 -12l-11 -77l-260 -65q68 -54 109 -99t62.5 -82.5t28.5 -67.5t7 -52t-5.5 -43t-14.5 -38.5t-20.5 -30t-22.5 -18.5q-28 -14 -94.5 -23
t-152.5 -9q-55 0 -103.5 4t-84.5 18t-57 42t-21 75q0 23 2 52t4 54l6 58l65 -4q-4 -54 -6.5 -90.5t-3.5 -66.5q24 -19 77 -27.5t122 -8.5z" />
    <glyph glyph-name="u06AF" unicode="&#x6af;" horiz-adv-x="695" arabic-form="isolated" 
d="M318 101q81 0 146.5 6t104.5 20q-7 57 -58.5 122t-159.5 151l11 56q4 16 7.5 27t10.5 17.5t17.5 11t28.5 8.5l261 65l11 -13l-12 -77l-243 -59q60 -49 96.5 -90t56 -75.5t26 -63t6.5 -50.5t-5.5 -43t-14.5 -38.5t-20.5 -30t-22.5 -18.5q-28 -14 -94.5 -23t-152.5 -9
q-55 0 -103.5 4t-84.5 18t-57 42t-21 75q0 23 2 52t4 54l6 58l65 -4q-4 -54 -6.5 -90.5t-3.5 -66.5q24 -19 77 -27.5t122 -8.5zM410 626l228 57l-10 -61l-225 -56z" />
    <glyph glyph-name="u06C0" unicode="&#x6c0;" horiz-adv-x="418" arabic-form="isolated" 
d="M185 0q-63 0 -98 23t-35 73q0 21 5.5 51t15.5 67t23 79.5t28 88.5l17 12q67 -21 110.5 -46t69 -55t35.5 -64t10 -73q0 -32 -9 -61.5t-21 -47.5q-9 -13 -25 -22t-36 -14.5t-43 -8t-47 -2.5zM153 290q-5 -12 -11 -32.5t-12 -43t-11 -45.5t-7 -40q8 -11 34 -17t51 -6
q24 0 50.5 3t51.5 12q-1 29 -7.5 53.5t-23 45t-44.5 38t-71 32.5zM199 455q-57 0 -86.5 18t-29.5 56q0 26 11.5 51t28.5 44.5t36.5 31.5t36.5 12q8 0 23.5 -9.5t36.5 -26.5l-20 -34l-45 22q-8 0 -19.5 -7t-23.5 -19t-22 -27.5t-14 -32.5q8 -17 28.5 -24.5t63.5 -7.5h138
l-14 -47h-129z" />
    <glyph glyph-name="u06CC" unicode="&#x6cc;" horiz-adv-x="636" arabic-form="isolated" 
d="M533 300q-23 14 -41 24.5t-26 10.5q-17 0 -39.5 -13.5t-44 -36.5t-39 -53.5t-24.5 -63.5q11 -10 52 -14.5t105 -8.5q34 -2 54.5 -8.5t31.5 -17.5t14 -27.5t3 -38.5q0 -21 -2.5 -42.5t-6 -40t-8 -33t-7.5 -20.5q-5 -9 -25.5 -26t-56.5 -34t-87.5 -29.5t-116.5 -12.5
t-107 13.5t-66.5 36.5t-34 52.5t-9.5 62.5q0 23 2.5 61t6.5 75q4 43 10 91l65 -3q-3 -48 -6 -92q-2 -38 -5 -77t-4 -62q19 -23 54.5 -37.5t93.5 -14.5q72 0 134 16.5t104 41.5q2 16 1.5 32.5t-1.5 30.5q-14 3 -50 5.5t-76 4.5q-68 5 -96 25t-28 66q0 54 22 105.5t55 92
t70.5 65t68.5 24.5q19 0 47 -20t58 -46z" />
    <glyph glyph-name="uFB57" unicode="&#x67e;" horiz-adv-x="733" arabic-form="final" 
d="M733 0q-17 0 -34.5 1.5t-34 9t-31.5 22.5t-25 41q-17 -33 -36 -44q-25 -13 -88.5 -24t-165.5 -11q-55 0 -103.5 4t-84.5 18t-57 42t-21 75q0 23 2 52t4 54l6 58l65 -4q-4 -54 -6.5 -90.5t-3.5 -66.5q24 -19 77 -27.5t122 -8.5q74 0 139 6t103 19l28 143h70
q-1 -27 -1.5 -43.5t-1 -27t-0.5 -15.5v-9q0 -37 23.5 -52.5t54.5 -15.5v-106zM256 -91l88 -55l-48 -73l-86 53zM475 -144l-45 -75l-88 55l48 73zM382 -352l-85 53l46 75l87 -55z" />
    <glyph glyph-name="uFB58" unicode="&#x67e;" horiz-adv-x="296" arabic-form="initial" 
d="M0 0q-13 0 -19 15t-6 38t6 38t19 15q59 0 104 3.5t71 15.5q-2 16 -7 39.5t-12 49t-15.5 50.5t-17.5 45l67 48l16 -6q7 -18 14 -41t12.5 -47.5t8.5 -49.5t3 -46q0 -26 -6 -49t-15.5 -42.5t-21.5 -33.5t-24 -20q-20 -11 -66 -16.5t-111 -5.5zM199 -138l-45 -75l-88 55
l48 73zM106 -346l-85 53l46 75l87 -55zM-20 -85l88 -55l-48 -73l-86 53z" />
    <glyph glyph-name="uFB59" unicode="&#x67e;" horiz-adv-x="318" arabic-form="medial" 
d="M318 0q-18 0 -36 2t-35.5 10t-32 23t-24.5 42q-12 -26 -21 -37.5t-20 -17.5q-40 -22 -149 -22q-13 0 -19 15t-6 38t6 38t19 15q51 0 87 3.5t57 11.5l28 148h69q-1 -27 -1.5 -43.5t-0.5 -27v-15.5v-9q0 -37 23.5 -52.5t55.5 -15.5v-106zM268 -138l-45 -75l-88 55l48 73z
M175 -346l-85 53l46 75l87 -55zM49 -85l88 -55l-48 -73l-86 53z" />
    <glyph glyph-name="uFB7B" unicode="&#x686;" horiz-adv-x="581" arabic-form="final" 
d="M512 -197l-23 -78q-60 -8 -112 -9t-81 -1q-55 0 -100 11t-76.5 36.5t-48.5 67.5t-17 104v21q0 34 16 74t52.5 82.5t96 85t147.5 80.5q-73 26 -125 40.5t-71 14.5q-14 0 -29 -5t-24 -13v-53t1 -51l-12 -11l-47 24q-2 18 -2 33.5v32.5q0 45 3 63t8 23q2 2 12 9.5t24.5 15.5
t33.5 14.5t39 6.5t55 -8.5t80 -23t98.5 -33.5t111.5 -40l5 -17l-31 -67q-23 0 -44 -4t-43 -12q3 -32 10.5 -53t21.5 -33.5t35.5 -18t52.5 -5.5h52v-106h-55q-26 0 -54 6t-52 26t-41 59t-20 105q-1 -1 -2 -1q-91 -43 -155.5 -99.5t-85.5 -122.5v-12q0 -39 10 -67.5t32.5 -47
t59.5 -28t90 -9.5q37 0 81.5 1t112.5 7zM212 45l72 -45l-40 -60l-70 43zM354 -60l-72 45l40 60l69 -43zM315 -169l-70 43l38 62l71 -45z" />
    <glyph glyph-name="uFB7C" unicode="&#x686;" horiz-adv-x="584" arabic-form="initial" 
d="M0 0q-13 0 -19 15t-6 38t6 38t19 15h70q40 0 68.5 1.5t48.5 4.5t33.5 8t23.5 11q22 14 40 27t35.5 26t36.5 26.5t42 28.5q-77 27 -134.5 44t-77.5 17q-14 0 -29.5 -5t-25.5 -13v-45t1 -38l-46 -27l-12 10q-2 26 -2.5 40t-0.5 31q0 50 3.5 68t8.5 23q2 2 11.5 9.5t24 15.5
t33 14.5t39.5 6.5q19 0 53 -8t78.5 -22t98.5 -33t115 -40l4 -18l-35 -66q-19 -1 -32.5 -2.5t-29.5 -10t-37.5 -26t-55.5 -50.5q-42 -38 -72.5 -60.5t-59.5 -34.5t-63 -15.5t-83 -3.5h-72zM163 -85l88 -55l-48 -73l-86 53zM382 -138l-45 -75l-88 55l48 73zM289 -346l-85 53
l46 75l87 -55z" />
    <glyph glyph-name="uFB7D" unicode="&#x686;" horiz-adv-x="590" arabic-form="medial" 
d="M0 0q-13 0 -19 15t-6 38t6 38t19 15h70q40 0 68.5 1.5t48.5 4.5t33.5 8t23.5 11q22 14 40 27t35.5 26t36.5 26.5t42 28.5q-77 27 -134.5 44t-77.5 17q-14 0 -29.5 -5t-25.5 -13v-45t1 -38l-46 -27l-12 10q-2 26 -2.5 40t-0.5 31q0 50 3.5 68t8.5 23q2 2 11.5 9.5t24 15.5
t33 14.5t39.5 6.5q19 0 53 -8t78.5 -22t98.5 -33t115 -40l4 -18l-35 -66q-14 -1 -25 -2t-22 -4.5t-23 -10.5t-28 -20q10 -31 34.5 -45.5t76.5 -14.5h72v-106h-75q-21 0 -44 4t-44 17t-38.5 37.5t-26.5 66.5q-4 -3 -12 -11q-42 -38 -72.5 -60.5t-59.5 -34.5t-63 -15.5
t-83 -3.5h-72zM163 -85l88 -55l-48 -73l-86 53zM382 -138l-45 -75l-88 55l48 73zM289 -346l-85 53l46 75l87 -55z" />
    <glyph glyph-name="uFB8B" unicode="&#x698;" horiz-adv-x="276" arabic-form="final" 
d="M276 0q-47 0 -70 13q-5 -59 -25 -104t-46 -76t-52.5 -47t-42.5 -16q-8 0 -32.5 4t-85.5 17v39q41 10 77 30t64.5 45t48.5 54.5t29 59.5q-3 19 -10 44t-16.5 52t-20 55t-21.5 53l69 46l17 -6q7 -23 14 -45t13 -41.5t11 -34t9 -21.5q9 -8 25 -11.5t45 -3.5v-106zM71 597
l86 -53l-46 -76l-88 56zM24 464l88 -55l-48 -73l-86 53zM110 391l48 73l85 -53l-45 -75z" />
    <glyph glyph-name="uFB8F" unicode="&#x6a9;" horiz-adv-x="763" arabic-form="final" 
d="M749 0q-44 0 -75.5 13.5t-58.5 57.5q-16 -30 -36 -41q-32 -17 -100.5 -26t-160.5 -9q-55 0 -103.5 4t-84.5 18t-57 42t-21 75q0 23 2 52t4 54l6 58l65 -4q-4 -54 -6.5 -90.5t-3.5 -66.5q24 -19 77 -27.5t122 -8.5q94 0 160 7t108 24q-18 39 -40 73t-52 68.5t-70.5 71
t-94.5 78.5l11 56q3 16 7 26.5t10.5 17.5t17.5 11t29 8l278 70l10 -12l-11 -77l-260 -65q53 -42 90 -79t65.5 -75t52.5 -81.5t51 -98.5q18 -18 83 -18v-106h-14z" />
    <glyph glyph-name="uFB90" unicode="&#x6a9;" horiz-adv-x="395" arabic-form="initial" 
d="M0 0q-13 0 -19 15t-6 38t6 38t19 15h60q66 0 122.5 4.5t91.5 16.5q-4 29 -19 61t-44 68.5t-72.5 77.5t-104.5 89l11 56q3 16 7 26.5t10.5 17.5t17.5 11t29 8l278 70l10 -12l-11 -77l-260 -65q68 -54 109 -99t62.5 -82.5t28.5 -67.5t7 -52t-5.5 -43t-14.5 -38.5t-20.5 -30
t-22.5 -18.5q-26 -13 -83.5 -20t-138.5 -7h-48z" />
    <glyph glyph-name="uFB91" unicode="&#x6a9;" horiz-adv-x="468" arabic-form="medial" 
d="M454 0q-44 0 -75.5 13.5t-58.5 57.5q-16 -30 -36 -41q-60 -30 -236 -30h-48q-13 0 -19 15t-6 38t6 38t19 15h60q78 0 135.5 6t95.5 20q-18 39 -40 73t-52 68.5t-70.5 71t-94.5 78.5l11 56q3 16 7 26.5t10.5 17.5t17.5 11t29 8l278 70l10 -12l-11 -77l-260 -65
q53 -42 90 -79t65.5 -75t52.5 -81.5t51 -98.5q18 -18 83 -18v-106h-14z" />
    <glyph glyph-name="uFB93" unicode="&#x6af;" horiz-adv-x="766" arabic-form="final" 
d="M751 0q-44 0 -76 14t-59 59q-8 -15 -17.5 -26.5t-19.5 -16.5q-32 -17 -100.5 -26t-160.5 -9q-55 0 -103.5 4t-84.5 18t-57 42t-21 75q0 23 2 52t4 54l6 58l65 -4q-4 -54 -6.5 -90.5t-3.5 -66.5q24 -19 77 -27.5t122 -8.5q97 0 163 8t106 25q-18 38 -40 70.5t-50.5 64
t-64 63.5t-81.5 68l11 56q4 16 7.5 27t10.5 17.5t17.5 11t28.5 8.5l261 65l11 -13l-12 -77l-243 -59q46 -38 79.5 -71t60 -68t49.5 -76.5t50 -96.5q10 -10 29.5 -14t54.5 -4v-106h-15zM410 626l228 57l-10 -61l-225 -56z" />
    <glyph glyph-name="uFB94" unicode="&#x6af;" horiz-adv-x="395" arabic-form="initial" 
d="M0 0q-13 0 -19 15t-6 38t6 38t19 15h54q67 0 123 4.5t91 16.5q-4 29 -18 59t-40.5 63.5t-66 70.5t-93.5 80l12 56q3 16 7 27t10.5 17.5t17.5 11t29 8.5l261 65l10 -13l-11 -77l-243 -59q60 -49 96.5 -90t56 -75.5t26 -63t6.5 -50.5t-6 -43t-15 -38.5t-20.5 -30
t-22.5 -18.5q-26 -13 -83 -20t-138 -7h-43zM109 626l228 57l-9 -61l-226 -56z" />
    <glyph glyph-name="uFB95" unicode="&#x6af;" horiz-adv-x="465" arabic-form="medial" 
d="M450 0q-44 0 -75.5 14t-58.5 59q-18 -32 -38 -43q-29 -15 -88.5 -22.5t-146.5 -7.5h-43q-13 0 -19 15t-6 38t6 38t19 15h54q81 0 138.5 6t93.5 21q-18 38 -39.5 71t-50 64.5t-64.5 63.5t-82 68l12 56q3 16 7 27t10.5 17.5t17.5 11t29 8.5l261 65l10 -13l-11 -77l-243 -59
q46 -38 79 -71t60 -68t50 -76.5t50 -96.5q18 -18 83 -18v-106h-15zM109 626l228 57l-9 -61l-226 -56z" />
    <glyph glyph-name="uFBA5" unicode="&#x6c0;" horiz-adv-x="445" arabic-form="final" 
d="M174 25q-36 0 -59.5 7.5t-37.5 23.5t-19.5 40t-5.5 56q0 28 4 53t11 44q8 10 26 24t41.5 30.5t51 33.5t54.5 34l-12 72l60 30l15 -8l49 -331q9 -13 33 -20.5t60 -7.5v-106q-27 0 -51 3t-43.5 12t-34.5 25.5t-24 43.5q-13 -34 -14 -35q-3 -6 -13.5 -10.5t-25 -7.5
t-32 -4.5t-33.5 -1.5zM254 524q-57 0 -86.5 18t-29.5 56q0 26 11.5 51t28.5 44.5t36.5 31.5t36.5 12q8 0 23.5 -9.5t36.5 -26.5l-20 -34l-45 22q-8 0 -19.5 -7t-23.5 -19t-22 -27.5t-14 -32.5q8 -17 28.5 -24.5t63.5 -7.5h138l-14 -47h-129zM175 124q21 0 48.5 1.5t56.5 7.5
l-27 163q-22 -12 -45.5 -26.5t-44 -28t-35.5 -25.5t-20 -19q-1 -20 0.5 -34t8.5 -22.5t20.5 -12.5t37.5 -4z" />
    <glyph glyph-name="uFBAF" unicode="&#x6d2;" horiz-adv-x="360" arabic-form="final" 
d="M258 0q-18 0 -39 -4.5t-42 -15.5t-39 -29.5t-29 -45.5q6 -11 16 -20.5t28 -16.5t45.5 -11t66.5 -4q27 0 65 0.5t80.5 1t85.5 2t79 4.5l8 -16l-30 -81q-32 -2 -75 -3.5t-86 -2.5t-80 -1.5t-57 -0.5q-106 0 -154.5 30.5t-48.5 101.5q0 46 19 86t49.5 69.5t68 46t74.5 16.5
h97v-106h-102z" />
    <glyph glyph-name="uFBE8" unicode="&#x649;" horiz-adv-x="296" arabic-form="initial" 
d="M0 0q-13 0 -19 15t-6 38t6 38t19 15q59 0 104 3.5t71 15.5q-2 16 -7 39.5t-12 49t-15.5 50.5t-17.5 45l67 48l16 -6q7 -18 14 -41t12.5 -47.5t8.5 -49.5t3 -46q0 -26 -6 -49t-15.5 -42.5t-21.5 -33.5t-24 -20q-20 -11 -66 -16.5t-111 -5.5z" />
    <glyph glyph-name="uFBE9" unicode="&#x649;" horiz-adv-x="318" arabic-form="medial" 
d="M318 0q-18 0 -36 2t-35.5 10t-32 23t-24.5 42q-12 -26 -21 -37.5t-20 -17.5q-40 -22 -149 -22q-13 0 -19 15t-6 38t6 38t19 15q51 0 87 3.5t57 11.5l28 148h69q-1 -27 -1.5 -43.5t-0.5 -27v-15.5v-9q0 -37 23.5 -52.5t55.5 -15.5v-106v0z" />
    <glyph glyph-name="uFBFD" unicode="&#x6cc;" horiz-adv-x="594" arabic-form="final" 
d="M556 0q2 -5 2 -11v-14q0 -16 -2 -32.5t-5 -31.5t-6.5 -26.5t-6.5 -16.5q-6 -9 -27.5 -26t-56.5 -34.5t-83 -30t-107 -12.5q-63 0 -104 13.5t-65 36.5t-33.5 52.5t-9.5 62.5q0 23 2.5 61t6.5 75q4 43 10 91l65 -3q-3 -48 -6 -92q-2 -38 -5 -77t-4 -62q19 -23 52 -37.5
t91 -14.5q30 0 61.5 4t61 11.5t55.5 18t45 22.5q2 15 3 33.5t0 31.5q-11 4 -28 7t-43 4.5t-62 2.5t-85 3l-5 11q5 19 11 36.5t10 25.5q4 7 8.5 11.5t12.5 7.5t21.5 4t35.5 1h228v-106h-38z" />
    <glyph glyph-name="uFBFE" unicode="&#x6cc;" horiz-adv-x="296" arabic-form="initial" 
d="M0 0q-13 0 -19 15t-6 38t6 38t19 15q59 0 104 3.5t71 15.5q-2 16 -7 39.5t-12 49t-15.5 50.5t-17.5 45l67 48l16 -6q7 -18 14 -41t12.5 -47.5t8.5 -49.5t3 -46q0 -26 -6 -49t-15.5 -42.5t-21.5 -33.5t-24 -20q-20 -11 -66 -16.5t-111 -5.5zM199 -138l-45 -75l-88 55
l48 73zM-20 -85l88 -55l-48 -73l-86 53z" />
    <glyph glyph-name="uFBFF" unicode="&#x6cc;" horiz-adv-x="318" arabic-form="medial" 
d="M318 0q-18 0 -36 2t-35.5 10t-32 23t-24.5 42q-12 -26 -21 -37.5t-20 -17.5q-40 -22 -149 -22q-13 0 -19 15t-6 38t6 38t19 15q51 0 87 3.5t57 11.5l28 148h69q-1 -27 -1.5 -43.5t-0.5 -27v-15.5v-9q0 -37 23.5 -52.5t55.5 -15.5v-106zM268 -138l-45 -75l-88 55l48 73z
M49 -85l88 -55l-48 -73l-86 53z" />
    <glyph glyph-name="uFC5E" unicode="&#xfc5e;" arabic-form="isolated" 
d="M93 0q-44 0 -65.5 9.5t-32.5 32.5q-14 -26 -32.5 -34t-47.5 -8q-33 0 -48.5 17t-15.5 41q0 20 3.5 49.5t8.5 67.5l40 -4l-9 -106q3 -3 7 -5q8 -5 24 -5q26 0 37.5 10t13.5 36l5 42h39v-43q0 -25 17 -34.5t61 -10.5q3 23 0.5 50t-13.5 63l38 26l11 -4q8 -32 10 -51t2 -36
q0 -24 -6.5 -49t-24.5 -54h-22zM-67 345q0 -25 -15 -74l110 54q-25 14 -45.5 37t-20.5 47q0 9 2.5 17.5t14 22t34 35t63.5 55.5q38 -25 57.5 -56t19.5 -63q0 -16 -4.5 -34t-17 -36t-34 -35.5t-54.5 -33.5l-137 -67l-32 25q4 13 8 27t7 27t5 23t2 15q0 10 -12.5 27t-44.5 44
l24 48q45 -34 57.5 -59.5t12.5 -45.5zM2 425q5 -17 24.5 -36.5t48.5 -36.5q33 27 33 58q0 40 -43 71z" />
    <glyph glyph-name="uFC5F" unicode="&#xfc5f;" arabic-form="isolated" 
d="M112 130l7 -48l-231 -92l-7 48zM112 242l7 -48l-231 -92l-7 48zM93 290q-44 0 -65.5 9.5t-32.5 32.5q-14 -26 -32.5 -34t-47.5 -8q-33 0 -48.5 17t-15.5 41q0 20 3.5 49.5t8.5 67.5l40 -4l-9 -106q3 -3 7 -5q8 -5 24 -5q26 0 37.5 10t13.5 36l5 42h39v-43q0 -25 17 -34.5
t61 -10.5q3 23 0.5 50t-13.5 63l38 26l11 -4q8 -32 10 -51t2 -36q0 -24 -6.5 -49t-24.5 -54h-22z" />
    <glyph glyph-name="uFC60" unicode="&#xfc60;" arabic-form="isolated" 
d="M93 0q-44 0 -65.5 9.5t-32.5 32.5q-14 -26 -32.5 -34t-47.5 -8q-33 0 -48.5 17t-15.5 41q0 20 3.5 49.5t8.5 67.5l40 -4l-9 -106q3 -3 7 -5q8 -5 24 -5q26 0 37.5 10t13.5 36l5 42h39v-43q0 -25 17 -34.5t61 -10.5q3 23 0.5 50t-13.5 63l38 26l11 -4q8 -32 10 -51t2 -36
q0 -24 -6.5 -49t-24.5 -54h-22zM112 360l7 -48l-231 -92l-7 48z" />
    <glyph glyph-name="uFC61" unicode="&#xfc61;" arabic-form="isolated" 
d="M93 0q-44 0 -65.5 9.5t-32.5 32.5q-14 -26 -32.5 -34t-47.5 -8q-33 0 -48.5 17t-15.5 41q0 20 3.5 49.5t8.5 67.5l40 -4l-9 -106q3 -3 7 -5q8 -5 24 -5q26 0 37.5 10t13.5 36l5 42h39v-43q0 -25 17 -34.5t61 -10.5q3 23 0.5 50t-13.5 63l38 26l11 -4q8 -32 10 -51t2 -36
q0 -24 -6.5 -49t-24.5 -54h-22zM-124 278l120 57q-26 14 -46 37t-20 47q0 9 2.5 18t14 22.5t34 34.5t63.5 55q38 -24 57.5 -55.5t19.5 -63.5q0 -16 -4.5 -33.5t-17 -36t-34 -36t-54.5 -33.5l-127 -61zM75 421q0 39 -42 70l-64 -55q5 -17 24.5 -37t48.5 -36q33 25 33 58z" />
    <glyph glyph-name="uFC62" unicode="&#xfc62;" arabic-form="isolated" 
d="M112 130l7 -48l-231 -92l-7 48zM93 170q-44 0 -65.5 9.5t-32.5 32.5q-14 -26 -32.5 -34t-47.5 -8q-33 0 -48.5 17t-15.5 41q0 20 3.5 49.5t8.5 67.5l40 -4l-9 -106q3 -3 7 -5q8 -5 24 -5q26 0 37.5 10t13.5 36l5 42h39v-43q0 -25 17 -34.5t61 -10.5q3 23 0.5 50t-13.5 63
l38 26l11 -4q8 -32 10 -51t2 -36q0 -24 -6.5 -49t-24.5 -54h-22z" />
    <glyph glyph-name="uFC63" unicode="&#xfc63;" arabic-form="isolated" 
d="M93 0q-44 0 -65.5 9.5t-32.5 32.5q-14 -26 -32.5 -34t-47.5 -8q-33 0 -48.5 17t-15.5 41q0 20 3.5 49.5t8.5 67.5l40 -4l-9 -106q3 -3 7 -5q8 -5 24 -5q26 0 37.5 10t13.5 36l5 42h39v-43q0 -25 17 -34.5t61 -10.5q3 23 0.5 50t-13.5 63l38 26l11 -4q8 -32 10 -51t2 -36
q0 -24 -6.5 -49t-24.5 -54h-22zM-13 456q15 -18 23.5 -33.5t13 -33t6 -38t1.5 -48.5v-73l-43 -19v76q0 20 -2 35t-6.5 27.5t-12 25.5t-18.5 28z" />
    <glyph glyph-name="uFC64" unicode="&#xfc64;" horiz-adv-x="499" arabic-form="final" 
d="M499 0q-38 0 -63.5 8t-42.5 25.5t-27 45t-16 66.5l-8 45q-35 -11 -73.5 -19.5t-76.5 -13.5q7 -29 11.5 -59t4.5 -56q0 -65 -19.5 -116t-46.5 -85.5t-55.5 -52.5t-46.5 -18q-8 0 -32.5 4t-85.5 17v39q41 10 77 30t64.5 45t48.5 54.5t29 59.5q-3 19 -9 41.5t-13 44.5
t-14.5 41.5t-13.5 32.5l33 62q62 6 130 21t122 33l20 -12l16 -98q8 -45 28.5 -62t58.5 -17v-106zM373 617l-15 -48h-91q-5 -15 -3 -30t10 -27t21 -19.5t30 -7.5q14 0 37 5.5t55 16.5l5 -57l-215 -79l-7 48l63 30q-24 15 -36.5 39.5t-12.5 49.5q0 20 6.5 41.5t23.5 49.5h121z
" />
    <glyph glyph-name="uFC65" unicode="&#xfc65;" horiz-adv-x="499" arabic-form="final" 
d="M499 0q-38 0 -63.5 8t-42.5 25.5t-27 45t-16 66.5l-8 45q-35 -11 -73.5 -19.5t-76.5 -13.5q7 -29 11.5 -59t4.5 -56q0 -65 -19.5 -116t-46.5 -85.5t-55.5 -52.5t-46.5 -18q-8 0 -32.5 4t-85.5 17v39q41 10 77 30t64.5 45t48.5 54.5t29 59.5q-3 19 -9 41.5t-13 44.5
t-14.5 41.5t-13.5 32.5l33 62q62 6 130 21t122 33l20 -12l16 -98q8 -45 28.5 -62t58.5 -17v-106zM416 617l-15 -48h-91q-5 -15 -3 -30t10 -27t21 -19.5t30 -7.5q14 0 37 5.5t55 16.5l5 -57l-215 -79l-7 48l63 30q-24 15 -36.5 39.5t-12.5 49.5q0 20 6.5 41.5t23.5 49.5h121z
M128 337l-85 53l45 75l88 -55z" />
    <glyph glyph-name="uFC67" unicode="&#xfc67;" horiz-adv-x="855" arabic-form="final" 
d="M855 0q-38 0 -63.5 8t-43 25.5t-27.5 45t-16 66.5l-8 45q-37 -11 -78 -20t-80 -14q15 -89 15 -167q0 -43 -7.5 -75.5t-15.5 -46.5q-5 -9 -25.5 -26t-55.5 -34t-83.5 -29.5t-108.5 -12.5q-63 0 -104 13.5t-65.5 36.5t-34 52.5t-9.5 62.5q0 23 2.5 61t6.5 75q4 43 10 91
l65 -3q-3 -48 -6 -92q-2 -38 -5 -77t-4 -62q19 -23 54.5 -37.5t89.5 -14.5q31 0 64 4.5t63 13t56 19.5t44 24q-2 34 -6.5 69.5t-10 68.5t-12 61.5t-11.5 49.5l35 60q30 3 63 8.5t66 12.5t64 15.5t58 17.5l20 -12l16 -98q8 -45 28.5 -62t59.5 -17v-106zM732 617l-15 -48h-91
q-5 -15 -3 -30t10 -27t21 -19.5t30 -7.5q14 0 37 5.5t55 16.5l5 -57l-215 -79l-7 48l63 30q-24 15 -36.5 39.5t-12.5 49.5q0 20 6.5 41.5t23.5 49.5h121zM293 230l-85 53l45 75l88 -55z" />
    <glyph glyph-name="uFC68" unicode="&#xfc68;" horiz-adv-x="820" arabic-form="final" 
d="M795 0q-64 0 -107.5 29.5t-76 70t-57.5 82t-53 65.5q-27 0 -56.5 -12.5t-55 -33.5t-45 -48t-26.5 -55q5 -4 15 -7.5t28.5 -7t47 -7.5t70.5 -9q32 -5 52 -11.5t30.5 -17t14 -24.5t3.5 -32q0 -19 -2.5 -38.5t-6 -36.5t-8 -30t-7.5 -19q-5 -9 -25.5 -26t-56.5 -34
t-87.5 -29.5t-116.5 -12.5t-107 13.5t-66.5 36.5t-34 52.5t-9.5 62.5q0 23 2.5 61t6.5 75q4 43 10 91l65 -3q-3 -48 -6 -92q-2 -38 -5 -77t-4 -62q19 -23 54.5 -37.5t93.5 -14.5q69 0 132 16t106 39q2 12 2.5 22.5t-0.5 23.5q-19 7 -55.5 9.5t-74.5 7.5q-35 5 -58.5 12
t-38 18t-20.5 27t-6 39q0 45 22 92.5t58 86t83 63t98 24.5q17 0 33 -17.5t33.5 -43.5t38 -57t46.5 -57t59.5 -43.5t77.5 -17.5h15v-106h-25zM554 657l-15 -48h-91q-5 -15 -3 -30t10 -27t21 -19.5t30 -7.5q14 0 37 5.5t55 16.5l5 -57l-215 -79l-7 48l63 30q-24 15 -36.5 39.5
t-12.5 49.5q0 20 6.5 41.5t23.5 49.5h121z" />
    <glyph glyph-name="uFC6A" unicode="&#xfc6a;" horiz-adv-x="499" arabic-form="final" 
d="M499 0q-38 0 -63.5 8t-42.5 25.5t-27 45t-16 66.5l-8 45q-35 -11 -73.5 -19.5t-76.5 -13.5q7 -29 11.5 -59t4.5 -56q0 -65 -19.5 -116t-46.5 -85.5t-55.5 -52.5t-46.5 -18q-8 0 -32.5 4t-85.5 17v39q41 10 77 30t64.5 45t48.5 54.5t29 59.5q-3 19 -9 41.5t-13 44.5
t-14.5 41.5t-13.5 32.5l33 62q62 6 130 21t122 33l20 -12l16 -98q8 -45 28.5 -62t58.5 -17v-106zM428 -140l-48 -73l-85 53l45 75z" />
    <glyph glyph-name="uFC6B" unicode="&#xfc6b;" horiz-adv-x="499" arabic-form="final" 
d="M499 0q-38 0 -63.5 8t-42.5 25.5t-27 45t-16 66.5l-8 45q-35 -11 -73.5 -19.5t-76.5 -13.5q7 -29 11.5 -59t4.5 -56q0 -65 -19.5 -116t-46.5 -85.5t-55.5 -52.5t-46.5 -18q-8 0 -32.5 4t-85.5 17v39q41 10 77 30t64.5 45t48.5 54.5t29 59.5q-3 19 -9 41.5t-13 44.5
t-14.5 41.5t-13.5 32.5l33 62q62 6 130 21t122 33l20 -12l16 -98q8 -45 28.5 -62t58.5 -17v-106zM428 -140l-48 -73l-85 53l45 75zM128 337l-85 53l45 75l88 -55z" />
    <glyph glyph-name="uFC6D" unicode="&#xfc6d;" horiz-adv-x="855" arabic-form="final" 
d="M855 0q-38 0 -63.5 8t-43 25.5t-27.5 45t-16 66.5l-8 45q-37 -11 -78 -20t-80 -14q15 -89 15 -167q0 -43 -7.5 -75.5t-15.5 -46.5q-5 -9 -25.5 -26t-55.5 -34t-83.5 -29.5t-108.5 -12.5q-63 0 -104 13.5t-65.5 36.5t-34 52.5t-9.5 62.5q0 23 2.5 61t6.5 75q4 43 10 91
l65 -3q-3 -48 -6 -92q-2 -38 -5 -77t-4 -62q19 -23 54.5 -37.5t89.5 -14.5q31 0 64 4.5t63 13t56 19.5t44 24q-2 34 -6.5 69.5t-10 68.5t-12 61.5t-11.5 49.5l35 60q30 3 63 8.5t66 12.5t64 15.5t58 17.5l20 -12l16 -98q8 -45 28.5 -62t59.5 -17v-106zM822 -140l-48 -73
l-85 53l45 75zM293 230l-85 53l45 75l88 -55z" />
    <glyph glyph-name="uFC70" unicode="&#xfc70;" horiz-adv-x="499" arabic-form="final" 
d="M499 0q-38 0 -63.5 8t-42.5 25.5t-27 45t-16 66.5l-8 45q-35 -11 -73.5 -19.5t-76.5 -13.5q7 -29 11.5 -59t4.5 -56q0 -65 -19.5 -116t-46.5 -85.5t-55.5 -52.5t-46.5 -18q-8 0 -32.5 4t-85.5 17v39q41 10 77 30t64.5 45t48.5 54.5t29 59.5q-3 19 -9 41.5t-13 44.5
t-14.5 41.5t-13.5 32.5l33 62q62 6 130 21t122 33l20 -12l16 -98q8 -45 28.5 -62t58.5 -17v-106zM224 509l88 -55l-48 -73l-86 53zM310 436l48 73l85 -53l-45 -75z" />
    <glyph glyph-name="uFC71" unicode="&#xfc71;" horiz-adv-x="499" arabic-form="final" 
d="M499 0q-38 0 -63.5 8t-42.5 25.5t-27 45t-16 66.5l-8 45q-35 -11 -73.5 -19.5t-76.5 -13.5q7 -29 11.5 -59t4.5 -56q0 -65 -19.5 -116t-46.5 -85.5t-55.5 -52.5t-46.5 -18q-8 0 -32.5 4t-85.5 17v39q41 10 77 30t64.5 45t48.5 54.5t29 59.5q-3 19 -9 41.5t-13 44.5
t-14.5 41.5t-13.5 32.5l33 62q62 6 130 21t122 33l20 -12l16 -98q8 -45 28.5 -62t58.5 -17v-106zM267 509l88 -55l-48 -73l-86 53zM353 436l48 73l85 -53l-45 -75zM128 337l-85 53l45 75l88 -55z" />
    <glyph glyph-name="uFC73" unicode="&#xfc73;" horiz-adv-x="855" arabic-form="final" 
d="M855 0q-38 0 -63.5 8t-43 25.5t-27.5 45t-16 66.5l-8 45q-37 -11 -78 -20t-80 -14q15 -89 15 -167q0 -43 -7.5 -75.5t-15.5 -46.5q-5 -9 -25.5 -26t-55.5 -34t-83.5 -29.5t-108.5 -12.5q-63 0 -104 13.5t-65.5 36.5t-34 52.5t-9.5 62.5q0 23 2.5 61t6.5 75q4 43 10 91
l65 -3q-3 -48 -6 -92q-2 -38 -5 -77t-4 -62q19 -23 54.5 -37.5t89.5 -14.5q31 0 64 4.5t63 13t56 19.5t44 24q-2 34 -6.5 69.5t-10 68.5t-12 61.5t-11.5 49.5l35 60q30 3 63 8.5t66 12.5t64 15.5t58 17.5l20 -12l16 -98q8 -45 28.5 -62t59.5 -17v-106zM583 509l88 -55
l-48 -73l-86 53zM669 436l48 73l85 -53l-45 -75zM293 230l-85 53l45 75l88 -55z" />
    <glyph glyph-name="uFC74" unicode="&#xfc74;" horiz-adv-x="820" arabic-form="final" 
d="M795 0q-64 0 -107.5 29.5t-76 70t-57.5 82t-53 65.5q-27 0 -56.5 -12.5t-55 -33.5t-45 -48t-26.5 -55q5 -4 15 -7.5t28.5 -7t47 -7.5t70.5 -9q32 -5 52 -11.5t30.5 -17t14 -24.5t3.5 -32q0 -19 -2.5 -38.5t-6 -36.5t-8 -30t-7.5 -19q-5 -9 -25.5 -26t-56.5 -34
t-87.5 -29.5t-116.5 -12.5t-107 13.5t-66.5 36.5t-34 52.5t-9.5 62.5q0 23 2.5 61t6.5 75q4 43 10 91l65 -3q-3 -48 -6 -92q-2 -38 -5 -77t-4 -62q19 -23 54.5 -37.5t93.5 -14.5q69 0 132 16t106 39q2 12 2.5 22.5t-0.5 23.5q-19 7 -55.5 9.5t-74.5 7.5q-35 5 -58.5 12
t-38 18t-20.5 27t-6 39q0 45 22 92.5t58 86t83 63t98 24.5q17 0 33 -17.5t33.5 -43.5t38 -57t46.5 -57t59.5 -43.5t77.5 -17.5h15v-106h-25zM405 549l88 -55l-48 -73l-86 53zM491 476l48 73l85 -53l-45 -75z" />
    <glyph glyph-name="uFC76" unicode="&#xfc76;" horiz-adv-x="499" arabic-form="final" 
d="M499 0q-38 0 -63.5 8t-42.5 25.5t-27 45t-16 66.5l-8 45q-35 -11 -73.5 -19.5t-76.5 -13.5q7 -29 11.5 -59t4.5 -56q0 -65 -19.5 -116t-46.5 -85.5t-55.5 -52.5t-46.5 -18q-8 0 -32.5 4t-85.5 17v39q41 10 77 30t64.5 45t48.5 54.5t29 59.5q-3 19 -9 41.5t-13 44.5
t-14.5 41.5t-13.5 32.5l33 62q62 6 130 21t122 33l20 -12l16 -98q8 -45 28.5 -62t58.5 -17v-106zM271 642l86 -53l-46 -76l-88 56zM224 509l88 -55l-48 -73l-86 53zM310 436l48 73l85 -53l-45 -75z" />
    <glyph glyph-name="uFC77" unicode="&#xfc77;" horiz-adv-x="855" arabic-form="final" 
d="M855 0q-38 0 -63.5 8t-43 25.5t-27.5 45t-16 66.5l-8 45q-37 -11 -78 -20t-80 -14q15 -89 15 -167q0 -43 -7.5 -75.5t-15.5 -46.5q-5 -9 -25.5 -26t-55.5 -34t-83.5 -29.5t-108.5 -12.5q-63 0 -104 13.5t-65.5 36.5t-34 52.5t-9.5 62.5q0 23 2.5 61t6.5 75q4 43 10 91
l65 -3q-3 -48 -6 -92q-2 -38 -5 -77t-4 -62q19 -23 54.5 -37.5t89.5 -14.5q31 0 64 4.5t63 13t56 19.5t44 24q-2 34 -6.5 69.5t-10 68.5t-12 61.5t-11.5 49.5l35 60q30 3 63 8.5t66 12.5t64 15.5t58 17.5l20 -12l16 -98q8 -45 28.5 -62t59.5 -17v-106zM630 642l86 -53
l-46 -76l-88 56zM583 509l88 -55l-48 -73l-86 53zM669 436l48 73l85 -53l-45 -75zM293 230l-85 53l45 75l88 -55z" />
    <glyph glyph-name="uFC7A" unicode="&#xfc7a;" horiz-adv-x="820" arabic-form="final" 
d="M795 0q-64 0 -107.5 29.5t-76 70t-57.5 82t-53 65.5q-27 0 -56.5 -12.5t-55 -33.5t-45 -48t-26.5 -55q5 -4 15 -7.5t28.5 -7t47 -7.5t70.5 -9q32 -5 52 -11.5t30.5 -17t14 -24.5t3.5 -32q0 -19 -2.5 -38.5t-6 -36.5t-8 -30t-7.5 -19q-5 -9 -25.5 -26t-56.5 -34
t-87.5 -29.5t-116.5 -12.5t-107 13.5t-66.5 36.5t-34 52.5t-9.5 62.5q0 23 2.5 61t6.5 75q4 43 10 91l65 -3q-3 -48 -6 -92q-2 -38 -5 -77t-4 -62q19 -23 54.5 -37.5t93.5 -14.5q69 0 132 16t106 39q2 12 2.5 22.5t-0.5 23.5q-19 7 -55.5 9.5t-74.5 7.5q-35 5 -58.5 12
t-38 18t-20.5 27t-6 39q0 45 22 92.5t58 86t83 63t98 24.5q17 0 33 -17.5t33.5 -43.5t38 -57t46.5 -57t59.5 -43.5t77.5 -17.5h15v-106h-25zM452 682l86 -53l-46 -76l-88 56zM405 549l88 -55l-48 -73l-86 53zM491 476l48 73l85 -53l-45 -75z" />
    <glyph glyph-name="uFC8A" unicode="&#xfc8a;" horiz-adv-x="499" arabic-form="final" 
d="M499 0q-38 0 -63.5 8t-42.5 25.5t-27 45t-16 66.5l-8 45q-35 -11 -73.5 -19.5t-76.5 -13.5q7 -29 11.5 -59t4.5 -56q0 -65 -19.5 -116t-46.5 -85.5t-55.5 -52.5t-46.5 -18q-8 0 -32.5 4t-85.5 17v39q41 10 77 30t64.5 45t48.5 54.5t29 59.5q-3 19 -9 41.5t-13 44.5
t-14.5 41.5t-13.5 32.5l33 62q62 6 130 21t122 33l20 -12l16 -98q8 -45 28.5 -62t58.5 -17v-106zM243 434l45 75l88 -55l-48 -73z" />
    <glyph glyph-name="uFC8B" unicode="&#xfc8b;" horiz-adv-x="499" arabic-form="final" 
d="M499 0q-38 0 -63.5 8t-42.5 25.5t-27 45t-16 66.5l-8 45q-35 -11 -73.5 -19.5t-76.5 -13.5q7 -29 11.5 -59t4.5 -56q0 -65 -19.5 -116t-46.5 -85.5t-55.5 -52.5t-46.5 -18q-8 0 -32.5 4t-85.5 17v39q41 10 77 30t64.5 45t48.5 54.5t29 59.5q-3 19 -9 41.5t-13 44.5
t-14.5 41.5t-13.5 32.5l33 62q62 6 130 21t122 33l20 -12l16 -98q8 -45 28.5 -62t58.5 -17v-106zM286 434l45 75l88 -55l-48 -73zM128 337l-85 53l45 75l88 -55z" />
    <glyph glyph-name="uFC8D" unicode="&#xfc8d;" horiz-adv-x="855" arabic-form="final" 
d="M855 0q-38 0 -63.5 8t-43 25.5t-27.5 45t-16 66.5l-8 45q-37 -11 -78 -20t-80 -14q15 -89 15 -167q0 -43 -7.5 -75.5t-15.5 -46.5q-5 -9 -25.5 -26t-55.5 -34t-83.5 -29.5t-108.5 -12.5q-63 0 -104 13.5t-65.5 36.5t-34 52.5t-9.5 62.5q0 23 2.5 61t6.5 75q4 43 10 91
l65 -3q-3 -48 -6 -92q-2 -38 -5 -77t-4 -62q19 -23 54.5 -37.5t89.5 -14.5q31 0 64 4.5t63 13t56 19.5t44 24q-2 34 -6.5 69.5t-10 68.5t-12 61.5t-11.5 49.5l35 60q30 3 63 8.5t66 12.5t64 15.5t58 17.5l20 -12l16 -98q8 -45 28.5 -62t59.5 -17v-106zM602 434l45 75l88 -55
l-48 -73zM293 230l-85 53l45 75l88 -55z" />
    <glyph glyph-name="uFC8E" unicode="&#xfc8e;" horiz-adv-x="820" arabic-form="final" 
d="M795 0q-64 0 -107.5 29.5t-76 70t-57.5 82t-53 65.5q-27 0 -56.5 -12.5t-55 -33.5t-45 -48t-26.5 -55q5 -4 15 -7.5t28.5 -7t47 -7.5t70.5 -9q32 -5 52 -11.5t30.5 -17t14 -24.5t3.5 -32q0 -19 -2.5 -38.5t-6 -36.5t-8 -30t-7.5 -19q-5 -9 -25.5 -26t-56.5 -34
t-87.5 -29.5t-116.5 -12.5t-107 13.5t-66.5 36.5t-34 52.5t-9.5 62.5q0 23 2.5 61t6.5 75q4 43 10 91l65 -3q-3 -48 -6 -92q-2 -38 -5 -77t-4 -62q19 -23 54.5 -37.5t93.5 -14.5q69 0 132 16t106 39q2 12 2.5 22.5t-0.5 23.5q-19 7 -55.5 9.5t-74.5 7.5q-35 5 -58.5 12
t-38 18t-20.5 27t-6 39q0 45 22 92.5t58 86t83 63t98 24.5q17 0 33 -17.5t33.5 -43.5t38 -57t46.5 -57t59.5 -43.5t77.5 -17.5h15v-106h-25zM424 474l45 75l88 -55l-48 -73z" />
    <glyph glyph-name="uFC91" unicode="&#xfc91;" horiz-adv-x="499" arabic-form="final" 
d="M499 0q-38 0 -63.5 8t-42.5 25.5t-27 45t-16 66.5l-8 45q-35 -11 -73.5 -19.5t-76.5 -13.5q7 -29 11.5 -59t4.5 -56q0 -65 -19.5 -116t-46.5 -85.5t-55.5 -52.5t-46.5 -18q-8 0 -32.5 4t-85.5 17v39q41 10 77 30t64.5 45t48.5 54.5t29 59.5q-3 19 -9 41.5t-13 44.5
t-14.5 41.5t-13.5 32.5l33 62q62 6 130 21t122 33l20 -12l16 -98q8 -45 28.5 -62t58.5 -17v-106zM276 -85l88 -55l-48 -73l-86 53zM495 -138l-45 -75l-88 55l48 73z" />
    <glyph glyph-name="uFC92" unicode="&#xfc92;" horiz-adv-x="499" arabic-form="final" 
d="M499 0q-38 0 -63.5 8t-42.5 25.5t-27 45t-16 66.5l-8 45q-35 -11 -73.5 -19.5t-76.5 -13.5q7 -29 11.5 -59t4.5 -56q0 -65 -19.5 -116t-46.5 -85.5t-55.5 -52.5t-46.5 -18q-8 0 -32.5 4t-85.5 17v39q41 10 77 30t64.5 45t48.5 54.5t29 59.5q-3 19 -9 41.5t-13 44.5
t-14.5 41.5t-13.5 32.5l33 62q62 6 130 21t122 33l20 -12l16 -98q8 -45 28.5 -62t58.5 -17v-106zM276 -85l88 -55l-48 -73l-86 53zM495 -138l-45 -75l-88 55l48 73zM128 337l-85 53l45 75l88 -55z" />
    <glyph glyph-name="uFC94" unicode="&#xfc94;" horiz-adv-x="855" arabic-form="final" 
d="M855 0q-38 0 -63.5 8t-43 25.5t-27.5 45t-16 66.5l-8 45q-37 -11 -78 -20t-80 -14q15 -89 15 -167q0 -43 -7.5 -75.5t-15.5 -46.5q-5 -9 -25.5 -26t-55.5 -34t-83.5 -29.5t-108.5 -12.5q-63 0 -104 13.5t-65.5 36.5t-34 52.5t-9.5 62.5q0 23 2.5 61t6.5 75q4 43 10 91
l65 -3q-3 -48 -6 -92q-2 -38 -5 -77t-4 -62q19 -23 54.5 -37.5t89.5 -14.5q31 0 64 4.5t63 13t56 19.5t44 24q-2 34 -6.5 69.5t-10 68.5t-12 61.5t-11.5 49.5l35 60q30 3 63 8.5t66 12.5t64 15.5t58 17.5l20 -12l16 -98q8 -45 28.5 -62t59.5 -17v-106zM670 -85l88 -55
l-48 -73l-86 53zM889 -138l-45 -75l-88 55l48 73zM293 230l-85 53l45 75l88 -55z" />
    <glyph glyph-name="uFCFB" unicode="&#xfcfb;" horiz-adv-x="1217" arabic-form="isolated" 
d="M999 0q-32 0 -60 13t-46 55q-11 -21 -18.5 -31.5t-18.5 -16.5q-14 -9 -36.5 -14.5t-49.5 -5.5q-53 0 -91.5 29.5t-68.5 70t-55.5 82t-53.5 65.5q-27 0 -56.5 -12.5t-55 -33.5t-45 -48t-26.5 -55q5 -4 15 -7.5t28.5 -7t47 -7.5t70.5 -9q32 -5 52 -11.5t30.5 -17t14 -24.5
t3.5 -32q0 -19 -2.5 -38.5t-6 -36.5t-8 -30t-7.5 -19q-5 -9 -25.5 -26t-56.5 -34t-87.5 -29.5t-116.5 -12.5t-107 13.5t-66.5 36.5t-34 52.5t-9.5 62.5q0 23 2.5 61t6.5 75q4 43 10 91l65 -3q-3 -48 -6 -92q-2 -38 -5 -77t-4 -62q19 -23 54.5 -37.5t93.5 -14.5q69 0 132 16
t106 39q2 12 2.5 22.5t-0.5 23.5q-19 7 -55.5 9.5t-74.5 7.5q-35 5 -58.5 12t-38 18t-20.5 27t-6 39q0 45 22 92.5t58 86t83 63t98 24.5q17 0 33 -17.5t33.5 -43.5t36.5 -57t42 -57t51 -43.5t62 -17.5q44 0 76 13l27 146h62q-1 -26 -1.5 -42t-0.5 -25.5v-15v-8.5
q0 -35 19.5 -51.5t46.5 -16.5q23 0 49 5.5t45 13.5q-2 19 -6.5 42.5t-11.5 47.5t-15 47.5t-16 43.5l65 51l17 -6q17 -46 25.5 -91t8.5 -90q0 -26 -6.5 -49.5t-16.5 -43t-20.5 -32.5t-18.5 -18q-20 -15 -46.5 -21t-57.5 -6z" />
    <glyph glyph-name="uFCFD" unicode="&#xfcfd;" horiz-adv-x="1217" arabic-form="isolated" 
d="M999 0q-32 0 -60 13t-46 55q-11 -21 -18.5 -31.5t-18.5 -16.5q-14 -9 -36.5 -14.5t-49.5 -5.5q-53 0 -91.5 29.5t-68.5 70t-55.5 82t-53.5 65.5q-27 0 -56.5 -12.5t-55 -33.5t-45 -48t-26.5 -55q5 -4 15 -7.5t28.5 -7t47 -7.5t70.5 -9q32 -5 52 -11.5t30.5 -17t14 -24.5
t3.5 -32q0 -19 -2.5 -38.5t-6 -36.5t-8 -30t-7.5 -19q-5 -9 -25.5 -26t-56.5 -34t-87.5 -29.5t-116.5 -12.5t-107 13.5t-66.5 36.5t-34 52.5t-9.5 62.5q0 23 2.5 61t6.5 75q4 43 10 91l65 -3q-3 -48 -6 -92q-2 -38 -5 -77t-4 -62q19 -23 54.5 -37.5t93.5 -14.5q69 0 132 16
t106 39q2 12 2.5 22.5t-0.5 23.5q-19 7 -55.5 9.5t-74.5 7.5q-35 5 -58.5 12t-38 18t-20.5 27t-6 39q0 45 22 92.5t58 86t83 63t98 24.5q17 0 33 -17.5t33.5 -43.5t36.5 -57t42 -57t51 -43.5t62 -17.5q44 0 76 13l27 146h62q-1 -26 -1.5 -42t-0.5 -25.5v-15v-8.5
q0 -35 19.5 -51.5t46.5 -16.5q23 0 49 5.5t45 13.5q-2 19 -6.5 42.5t-11.5 47.5t-15 47.5t-16 43.5l65 51l17 -6q17 -46 25.5 -91t8.5 -90q0 -26 -6.5 -49.5t-16.5 -43t-20.5 -32.5t-18.5 -18q-20 -15 -46.5 -21t-57.5 -6zM850 603l86 -53l-46 -76l-88 56zM803 470l88 -55
l-48 -73l-86 53zM889 397l48 73l85 -53l-45 -75z" />
    <glyph glyph-name="uFD05" unicode="&#xfd05;" horiz-adv-x="1162" arabic-form="isolated" 
d="M798 0q-44 0 -78 14t-61 36t-48 49.5t-39.5 55t-35.5 52t-35 40.5q-27 0 -56.5 -12.5t-55 -33.5t-45 -48t-26.5 -55q5 -4 15 -7.5t28.5 -7t47 -7.5t70.5 -9q32 -5 52 -11.5t30.5 -17t14 -24.5t3.5 -32q0 -19 -2.5 -38.5t-6 -36.5t-8 -30t-7.5 -19q-5 -9 -25.5 -26
t-56.5 -34t-87.5 -29.5t-116.5 -12.5t-107 13.5t-66.5 36.5t-34 52.5t-9.5 62.5q0 23 2.5 61t6.5 75q4 43 10 91l65 -3q-3 -48 -6 -92q-2 -38 -5 -77t-4 -62q19 -23 54.5 -37.5t93.5 -14.5q69 0 132 16t106 39q2 12 2.5 22.5t-0.5 23.5q-19 7 -55.5 9.5t-74.5 7.5
q-35 5 -58.5 12t-38 18t-20.5 27t-6 39q0 45 22 92.5t58 86t83 63t98 24.5q17 0 33 -18.5t34 -46t39.5 -59t49.5 -57.5q88 75 139.5 117.5t80.5 64.5t42 27.5t22 5.5q25 0 52.5 -15t49.5 -42.5t36.5 -65t14.5 -82.5q0 -17 -5 -38.5t-14 -42.5t-22 -38t-29 -24
q-60 -28 -199 -28h-43zM932 278q-8 0 -22 -7.5t-38 -25t-60.5 -46.5t-89.5 -73q19 -9 40 -14.5t46 -5.5h71q63 0 100.5 5t61.5 16q-1 30 -12.5 57t-28 48t-35 33.5t-33.5 12.5z" />
    <glyph glyph-name="uFD07" unicode="&#xfd07;" horiz-adv-x="1162" arabic-form="isolated" 
d="M798 0q-44 0 -78 14t-61 36t-48 49.5t-39.5 55t-35.5 52t-35 40.5q-27 0 -56.5 -12.5t-55 -33.5t-45 -48t-26.5 -55q5 -4 15 -7.5t28.5 -7t47 -7.5t70.5 -9q32 -5 52 -11.5t30.5 -17t14 -24.5t3.5 -32q0 -19 -2.5 -38.5t-6 -36.5t-8 -30t-7.5 -19q-5 -9 -25.5 -26
t-56.5 -34t-87.5 -29.5t-116.5 -12.5t-107 13.5t-66.5 36.5t-34 52.5t-9.5 62.5q0 23 2.5 61t6.5 75q4 43 10 91l65 -3q-3 -48 -6 -92q-2 -38 -5 -77t-4 -62q19 -23 54.5 -37.5t93.5 -14.5q69 0 132 16t106 39q2 12 2.5 22.5t-0.5 23.5q-19 7 -55.5 9.5t-74.5 7.5
q-35 5 -58.5 12t-38 18t-20.5 27t-6 39q0 45 22 92.5t58 86t83 63t98 24.5q17 0 33 -18.5t34 -46t39.5 -59t49.5 -57.5q88 75 139.5 117.5t80.5 64.5t42 27.5t22 5.5q25 0 52.5 -15t49.5 -42.5t36.5 -65t14.5 -82.5q0 -17 -5 -38.5t-14 -42.5t-22 -38t-29 -24
q-60 -28 -199 -28h-43zM932 278q-8 0 -22 -7.5t-38 -25t-60.5 -46.5t-89.5 -73q19 -9 40 -14.5t46 -5.5h71q63 0 100.5 5t61.5 16q-1 30 -12.5 57t-28 48t-35 33.5t-33.5 12.5zM878 505l45 75l88 -55l-48 -73z" />
    <glyph glyph-name="uFD0D" unicode="&#xfd0d;" horiz-adv-x="940" arabic-form="isolated" 
d="M722 0q-31 0 -59 13t-47 56q-12 -24 -24 -37.5t-26 -20.5t-31.5 -9t-40.5 -2q-36 0 -60.5 8t-41 25.5t-26.5 45t-16 66.5l-9 54q-38 -5 -77 -13.5t-74 -19.5q8 -31 13 -64t5 -60q0 -65 -19.5 -116t-46.5 -85.5t-55.5 -52.5t-46.5 -18q-8 0 -32.5 4t-85.5 17v39
q41 10 77 30t64.5 45t48.5 54.5t29 59.5q-3 19 -9 41.5t-13 44.5t-14.5 41.5t-13.5 32.5l33 62q27 9 58.5 18t64.5 16t66 12t63 8l20 -12l16 -98q8 -45 28.5 -62t58.5 -17q44 0 76 13l27 146h62q-1 -26 -1.5 -42t-1 -25.5t-0.5 -15v-8.5q0 -35 20 -51.5t47 -16.5
q23 0 48 5.5t45 13.5q-2 19 -6.5 42t-11.5 47t-15 48t-16 44l65 51l17 -6q17 -46 25.5 -91t8.5 -90q0 -26 -6.5 -50t-16.5 -42.5t-20.5 -32t-17.5 -18.5q-21 -15 -47 -21t-58 -6zM573 603l86 -53l-46 -76l-88 56zM526 470l88 -55l-48 -73l-86 53zM612 397l48 73l85 -53
l-45 -75zM128 337l-85 53l45 75l88 -55z" />
    <glyph glyph-name="uFD0E" unicode="&#xfd0e;" horiz-adv-x="940" arabic-form="isolated" 
d="M722 0q-31 0 -59 13t-47 56q-12 -24 -24 -37.5t-26 -20.5t-31.5 -9t-40.5 -2q-36 0 -60.5 8t-41 25.5t-26.5 45t-16 66.5l-9 54q-38 -5 -77 -13.5t-74 -19.5q8 -31 13 -64t5 -60q0 -65 -19.5 -116t-46.5 -85.5t-55.5 -52.5t-46.5 -18q-8 0 -32.5 4t-85.5 17v39
q41 10 77 30t64.5 45t48.5 54.5t29 59.5q-3 19 -9 41.5t-13 44.5t-14.5 41.5t-13.5 32.5l33 62q27 9 58.5 18t64.5 16t66 12t63 8l20 -12l16 -98q8 -45 28.5 -62t58.5 -17q44 0 76 13l27 146h62q-1 -26 -1.5 -42t-1 -25.5t-0.5 -15v-8.5q0 -35 20 -51.5t47 -16.5
q23 0 48 5.5t45 13.5q-2 19 -6.5 42t-11.5 47t-15 48t-16 44l65 51l17 -6q17 -46 25.5 -91t8.5 -90q0 -26 -6.5 -50t-16.5 -42.5t-20.5 -32t-17.5 -18.5q-21 -15 -47 -21t-58 -6zM128 337l-85 53l45 75l88 -55z" />
    <glyph glyph-name="uFD0F" unicode="&#xfd0f;" horiz-adv-x="927" arabic-form="isolated" 
d="M494 0q-36 0 -60.5 8t-41 25.5t-26.5 45t-16 66.5l-9 54q-38 -5 -77 -13.5t-74 -19.5q8 -31 13 -64t5 -60q0 -65 -19.5 -116t-46.5 -85.5t-55.5 -52.5t-46.5 -18q-8 0 -32.5 4t-85.5 17v39q41 10 77 30t64.5 45t48.5 54.5t29 59.5q-3 19 -9 41.5t-13 44.5t-14.5 41.5
t-13.5 32.5l33 62q27 9 58.5 18t64.5 16t66 12t63 8l20 -12l16 -98q2 -11 4.5 -20t5.5 -17q93 79 148 124.5t85.5 68.5t43.5 29t23 6q25 0 52.5 -15t49.5 -42.5t36.5 -65t14.5 -82.5q0 -17 -5 -38.5t-14 -42.5t-22 -38t-29 -24q-60 -28 -199 -28h-112zM697 278q-9 0 -24 -8
t-41 -27.5t-66.5 -52t-98.5 -81.5q13 -3 30 -3h147q63 0 100 5t61 16q0 30 -12 57t-28.5 48t-35 33.5t-32.5 12.5zM128 337l-85 53l45 75l88 -55z" />
    <glyph glyph-name="uFD10" unicode="&#xfd10;" horiz-adv-x="927" arabic-form="isolated" 
d="M494 0q-36 0 -60.5 8t-41 25.5t-26.5 45t-16 66.5l-9 54q-38 -5 -77 -13.5t-74 -19.5q8 -31 13 -64t5 -60q0 -65 -19.5 -116t-46.5 -85.5t-55.5 -52.5t-46.5 -18q-8 0 -32.5 4t-85.5 17v39q41 10 77 30t64.5 45t48.5 54.5t29 59.5q-3 19 -9 41.5t-13 44.5t-14.5 41.5
t-13.5 32.5l33 62q27 9 58.5 18t64.5 16t66 12t63 8l20 -12l16 -98q2 -11 4.5 -20t5.5 -17q93 79 148 124.5t85.5 68.5t43.5 29t23 6q25 0 52.5 -15t49.5 -42.5t36.5 -65t14.5 -82.5q0 -17 -5 -38.5t-14 -42.5t-22 -38t-29 -24q-60 -28 -199 -28h-112zM697 278q-9 0 -24 -8
t-41 -27.5t-66.5 -52t-98.5 -81.5q13 -3 30 -3h147q63 0 100 5t61 16q0 30 -12 57t-28.5 48t-35 33.5t-32.5 12.5zM128 337l-85 53l45 75l88 -55zM642 505l45 75l88 -55l-48 -73z" />
    <glyph glyph-name="uFD17" unicode="&#xfd17;" horiz-adv-x="1231" arabic-form="final" 
d="M1231 0q-38 0 -68 13.5t-48 57.5q-11 -23 -20.5 -34t-18.5 -17q-14 -9 -34 -14.5t-43 -5.5q-32 0 -60 13t-46 55q-11 -21 -18.5 -31.5t-18.5 -16.5q-14 -9 -36.5 -14.5t-49.5 -5.5q-53 0 -91.5 29.5t-68.5 70t-55.5 82t-53.5 65.5q-27 0 -56.5 -12.5t-55 -33.5t-45 -48
t-26.5 -55q5 -4 15 -7.5t28.5 -7t47 -7.5t70.5 -9q32 -5 52 -11.5t30.5 -17t14 -24.5t3.5 -32q0 -19 -2.5 -38.5t-6 -36.5t-8 -30t-7.5 -19q-5 -9 -25.5 -26t-56.5 -34t-87.5 -29.5t-116.5 -12.5t-107 13.5t-66.5 36.5t-34 52.5t-9.5 62.5q0 23 2.5 61t6.5 75q4 43 10 91
l65 -3q-3 -48 -6 -92q-2 -38 -5 -77t-4 -62q19 -23 54.5 -37.5t93.5 -14.5q69 0 132 16t106 39q2 12 2.5 22.5t-0.5 23.5q-19 7 -55.5 9.5t-74.5 7.5q-35 5 -58.5 12t-38 18t-20.5 27t-6 39q0 45 22 92.5t58 86t83 63t98 24.5q17 0 33 -17.5t33.5 -43.5t36.5 -57t42 -57
t51 -43.5t62 -17.5q44 0 76 13l27 146h62q-1 -26 -1.5 -42t-0.5 -25.5v-15v-8.5q0 -35 19.5 -51.5t46.5 -16.5q18 0 34.5 3.5t28.5 8.5q5 22 9.5 51.5t9.5 56.5l10 64h64q-1 -32 -1.5 -52.5t-1 -33.5t-0.5 -20v-10q0 -33 19.5 -50.5t54.5 -17.5v-106v0z" />
    <glyph glyph-name="uFD21" unicode="&#xfd21;" horiz-adv-x="1192" arabic-form="final" 
d="M1182 0q-28 0 -59.5 8.5t-54.5 42.5q-12 -15 -28 -23q-60 -28 -199 -28h-43q-44 0 -78 14t-61 36t-48 49.5t-39.5 55t-35.5 52t-35 40.5q-27 0 -56.5 -12.5t-55 -33.5t-45 -48t-26.5 -55q5 -4 15 -7.5t28.5 -7t47 -7.5t70.5 -9q32 -5 52 -11.5t30.5 -17t14 -24.5t3.5 -32
q0 -19 -2.5 -38.5t-6 -36.5t-8 -30t-7.5 -19q-5 -9 -25.5 -26t-56.5 -34t-87.5 -29.5t-116.5 -12.5t-107 13.5t-66.5 36.5t-34 52.5t-9.5 62.5q0 23 2.5 61t6.5 75q4 43 10 91l65 -3q-3 -48 -6 -92q-2 -38 -5 -77t-4 -62q19 -23 54.5 -37.5t93.5 -14.5q69 0 132 16t106 39
q2 12 2.5 22.5t-0.5 23.5q-19 7 -55.5 9.5t-74.5 7.5q-35 5 -58.5 12t-38 18t-20.5 27t-6 39q0 45 22 92.5t58 86t83 63t98 24.5q17 0 33 -18.5t34 -46t39.5 -59t49.5 -57.5q88 75 139.5 117.5t80.5 64.5t42 27.5t22 5.5q25 0 52.5 -15t49.5 -42.5t36.5 -65t14.5 -82.5
q0 -23 -8 -53q14 -8 33 -10t47 -2h10v-106h-10zM932 278q-8 0 -22 -7.5t-38 -25t-60.5 -46.5t-89.5 -73q19 -9 40 -14.5t46 -5.5h71q63 0 100.5 5t61.5 16q-1 30 -12.5 57t-28 48t-35 33.5t-33.5 12.5z" />
    <glyph glyph-name="uFD23" unicode="&#xfd23;" horiz-adv-x="1192" arabic-form="final" 
d="M1182 0q-28 0 -59.5 8.5t-54.5 42.5q-12 -15 -28 -23q-60 -28 -199 -28h-43q-44 0 -78 14t-61 36t-48 49.5t-39.5 55t-35.5 52t-35 40.5q-27 0 -56.5 -12.5t-55 -33.5t-45 -48t-26.5 -55q5 -4 15 -7.5t28.5 -7t47 -7.5t70.5 -9q32 -5 52 -11.5t30.5 -17t14 -24.5t3.5 -32
q0 -19 -2.5 -38.5t-6 -36.5t-8 -30t-7.5 -19q-5 -9 -25.5 -26t-56.5 -34t-87.5 -29.5t-116.5 -12.5t-107 13.5t-66.5 36.5t-34 52.5t-9.5 62.5q0 23 2.5 61t6.5 75q4 43 10 91l65 -3q-3 -48 -6 -92q-2 -38 -5 -77t-4 -62q19 -23 54.5 -37.5t93.5 -14.5q69 0 132 16t106 39
q2 12 2.5 22.5t-0.5 23.5q-19 7 -55.5 9.5t-74.5 7.5q-35 5 -58.5 12t-38 18t-20.5 27t-6 39q0 45 22 92.5t58 86t83 63t98 24.5q17 0 33 -18.5t34 -46t39.5 -59t49.5 -57.5q88 75 139.5 117.5t80.5 64.5t42 27.5t22 5.5q25 0 52.5 -15t49.5 -42.5t36.5 -65t14.5 -82.5
q0 -23 -8 -53q14 -8 33 -10t47 -2h10v-106h-10zM932 278q-8 0 -22 -7.5t-38 -25t-60.5 -46.5t-89.5 -73q19 -9 40 -14.5t46 -5.5h71q63 0 100.5 5t61.5 16q-1 30 -12.5 57t-28 48t-35 33.5t-33.5 12.5zM878 505l45 75l88 -55l-48 -73z" />
    <glyph glyph-name="uFD29" unicode="&#xfd29;" horiz-adv-x="954" arabic-form="final" 
d="M954 0q-38 0 -68 13.5t-48 57.5q-12 -24 -24 -38t-25.5 -21.5t-29.5 -9.5t-37 -2q-31 0 -59 13t-47 56q-12 -24 -24 -37.5t-26 -20.5t-31.5 -9t-40.5 -2q-36 0 -60.5 8t-41 25.5t-26.5 45t-16 66.5l-9 54q-38 -5 -77 -13.5t-74 -19.5q8 -31 13 -64t5 -60
q0 -65 -19.5 -116t-46.5 -85.5t-55.5 -52.5t-46.5 -18q-8 0 -32.5 4t-85.5 17v39q41 10 77 30t64.5 45t48.5 54.5t29 59.5q-3 19 -9 41.5t-13 44.5t-14.5 41.5t-13.5 32.5l33 62q27 9 58.5 18t64.5 16t66 12t63 8l20 -12l16 -98q8 -45 28.5 -62t58.5 -17q44 0 76 13l27 146
h62q-1 -26 -1.5 -42t-1 -25.5t-0.5 -15v-8.5q0 -35 20 -51.5t47 -16.5q18 0 34 3.5t29 8.5q5 23 9 52t9 56q4 31 10 64h65q-1 -32 -1.5 -52.5t-1 -33.5t-0.5 -20v-10q0 -33 19.5 -50.5t53.5 -17.5v-106zM583 603l86 -53l-46 -76l-88 56zM536 470l88 -55l-48 -73l-86 53z
M622 397l48 73l85 -53l-45 -75zM128 337l-85 53l45 75l88 -55z" />
    <glyph glyph-name="uFD2A" unicode="&#xfd2a;" horiz-adv-x="954" arabic-form="final" 
d="M954 0q-38 0 -68 13.5t-48 57.5q-12 -24 -24 -38t-25.5 -21.5t-29.5 -9.5t-37 -2q-31 0 -59 13t-47 56q-12 -24 -24 -37.5t-26 -20.5t-31.5 -9t-40.5 -2q-36 0 -60.5 8t-41 25.5t-26.5 45t-16 66.5l-9 54q-38 -5 -77 -13.5t-74 -19.5q8 -31 13 -64t5 -60
q0 -65 -19.5 -116t-46.5 -85.5t-55.5 -52.5t-46.5 -18q-8 0 -32.5 4t-85.5 17v39q41 10 77 30t64.5 45t48.5 54.5t29 59.5q-3 19 -9 41.5t-13 44.5t-14.5 41.5t-13.5 32.5l33 62q27 9 58.5 18t64.5 16t66 12t63 8l20 -12l16 -98q8 -45 28.5 -62t58.5 -17q44 0 76 13l27 146
h62q-1 -26 -1.5 -42t-1 -25.5t-0.5 -15v-8.5q0 -35 20 -51.5t47 -16.5q18 0 34 3.5t29 8.5q5 23 9 52t9 56q4 31 10 64h65q-1 -32 -1.5 -52.5t-1 -33.5t-0.5 -20v-10q0 -33 19.5 -50.5t53.5 -17.5v-106zM128 337l-85 53l45 75l88 -55z" />
    <glyph glyph-name="uFD2B" unicode="&#xfd2b;" horiz-adv-x="957" arabic-form="final" 
d="M946 0q-27 0 -58.5 8.5t-54.5 42.5q-12 -15 -28 -23q-60 -28 -199 -28h-112q-36 0 -60.5 8t-41 25.5t-26.5 45t-16 66.5l-9 54q-38 -5 -77 -13.5t-74 -19.5q8 -31 13 -64t5 -60q0 -65 -19.5 -116t-46.5 -85.5t-55.5 -52.5t-46.5 -18q-8 0 -32.5 4t-85.5 17v39
q41 10 77 30t64.5 45t48.5 54.5t29 59.5q-3 19 -9 41.5t-13 44.5t-14.5 41.5t-13.5 32.5l33 62q27 9 58.5 18t64.5 16t66 12t63 8l20 -12l16 -98q2 -11 4.5 -20t5.5 -17q93 79 148 124.5t85.5 68.5t43.5 29t23 6q25 0 52.5 -15t49.5 -42.5t36.5 -65t14.5 -82.5q0 -23 -8 -53
q14 -8 33 -10t46 -2h11v-106h-11zM697 278q-9 0 -24 -8t-41 -27.5t-66.5 -52t-98.5 -81.5q13 -3 30 -3h147q63 0 100 5t61 16q0 30 -12 57t-28.5 48t-35 33.5t-32.5 12.5zM128 337l-85 53l45 75l88 -55z" />
    <glyph glyph-name="uFD2C" unicode="&#xfd2c;" horiz-adv-x="957" arabic-form="final" 
d="M946 0q-27 0 -58.5 8.5t-54.5 42.5q-12 -15 -28 -23q-60 -28 -199 -28h-112q-36 0 -60.5 8t-41 25.5t-26.5 45t-16 66.5l-9 54q-38 -5 -77 -13.5t-74 -19.5q8 -31 13 -64t5 -60q0 -65 -19.5 -116t-46.5 -85.5t-55.5 -52.5t-46.5 -18q-8 0 -32.5 4t-85.5 17v39
q41 10 77 30t64.5 45t48.5 54.5t29 59.5q-3 19 -9 41.5t-13 44.5t-14.5 41.5t-13.5 32.5l33 62q27 9 58.5 18t64.5 16t66 12t63 8l20 -12l16 -98q2 -11 4.5 -20t5.5 -17q93 79 148 124.5t85.5 68.5t43.5 29t23 6q25 0 52.5 -15t49.5 -42.5t36.5 -65t14.5 -82.5q0 -23 -8 -53
q14 -8 33 -10t46 -2h11v-106h-11zM697 278q-9 0 -24 -8t-41 -27.5t-66.5 -52t-98.5 -81.5q13 -3 30 -3h147q63 0 100 5t61 16q0 30 -12 57t-28.5 48t-35 33.5t-32.5 12.5zM642 505l45 75l88 -55l-48 -73zM128 337l-85 53l45 75l88 -55z" />
    <glyph glyph-name="uFDFC" unicode="&#xfdfc;" horiz-adv-x="1294" arabic-form="isolated" 
d="M136 264q-3 -49 -6 -93q-2 -38 -5 -77t-4 -62q14 -20 48 -35.5t83 -15.5q51 0 102 12.5t96 40.5l-10 442q-1 35 -2.5 61t-5 47.5t-9.5 42.5t-15 45l69 62q14 -30 22 -57t11.5 -54t4.5 -55.5t1 -61.5v-424q0 -36 -5 -68t-14 -46q-6 -10 -25 -25.5t-50 -30.5t-73.5 -26
t-96.5 -11q-58 0 -96.5 13.5t-61.5 36.5t-32.5 52.5t-9.5 62.5q0 23 2.5 61t6.5 75q4 43 10 91zM632 416q0 32 -1.5 57.5t-5.5 48t-11 44.5t-17 46l70 62q13 -30 21 -57t12 -54t5 -55.5t1 -61.5v-309q11 -17 34.5 -24t46.5 -7v-2q4 2 7 2q59 0 104 3.5t71 15.5
q-2 16 -7 39.5t-12 49t-15.5 50.5t-17.5 45l67 48l16 -6q7 -18 14 -41t12.5 -47.5t8.5 -49.5t3 -46q0 -26 -6 -49t-15.5 -42.5t-21.5 -33.5t-24 -20q-20 -11 -66 -16.5t-111 -5.5q-5 0 -7 1v-1q-44 0 -73.5 9.5t-47.5 30t-26 52.5t-8 78v246zM956 -120q41 10 77 30t64.5 45
t48.5 54.5t29 59.5q-3 19 -10 44t-16.5 52t-20 55t-21.5 53l69 46l17 -6q22 -54 35.5 -115t13.5 -106q0 -65 -19.5 -116t-46.5 -85.5t-55.5 -52.5t-46.5 -18q-8 0 -32.5 4t-85.5 17v39zM667 -83l88 -55l-48 -73l-86 53zM841 -211l-88 55l48 73l85 -53z" />
    <glyph glyph-name="uFE82" unicode="&#x622;" horiz-adv-x="237" arabic-form="final" 
d="M222 0q-44 0 -73.5 9.5t-47.5 30t-26 52.5t-8 78v173q0 34 -2 60.5t-6.5 49t-11.5 42t-17 39.5l69 66q15 -25 23 -49.5t12.5 -52t5.5 -58t1 -67.5v-236q11 -17 34.5 -24t46.5 -7h15v-106h-15zM87 682q-26 0 -49 4t-40 9l-25 -55h-10l-40 33q15 31 24 50.5t15.5 30.5
t12 15t14.5 4q6 0 15 -2.5t22.5 -5t31.5 -5t43 -2.5q28 0 61.5 4t67.5 15l5 -7l-17 -68q-34 -11 -68.5 -15.5t-62.5 -4.5z" />
    <glyph glyph-name="uFE84" unicode="&#x623;" horiz-adv-x="237" arabic-form="final" 
d="M222 0q-44 0 -73.5 9.5t-47.5 30t-26 52.5t-8 78v115q0 34 -2 61t-6.5 49.5t-11.5 41.5t-17 39l69 67q15 -25 23 -49.5t12.5 -52t5.5 -58.5t1 -68v-178q11 -17 34.5 -24t46.5 -7h15v-106h-15zM147 806l-15 -48h-91q-2 -5 -3 -10.5t-1 -10.5q0 -25 16.5 -44t45.5 -19
q14 0 37 5.5t55 16.5l5 -57l-215 -79l-7 48l63 30q-24 15 -36.5 39.5t-12.5 49.5q0 20 6.5 41.5t23.5 49.5h121z" />
    <glyph glyph-name="uFE86" unicode="&#x624;" horiz-adv-x="435" arabic-form="final" 
d="M175 -6q-53 0 -85.5 21.5t-32.5 67.5q0 18 6.5 49.5t16.5 66.5t20.5 68.5t19.5 56.5l21 15q58 -3 98.5 -23t67.5 -51.5t41.5 -72.5t19.5 -86h67v-106h-66q-8 -54 -31.5 -97t-53 -72.5t-59.5 -45t-50 -15.5q-8 0 -36 4t-89 17v39q42 8 82 23.5t74 38t60.5 50.5t42.5 60
q0 2 -0.5 3.5t-0.5 3.5q-31 -7 -64.5 -11t-68.5 -4zM258 639l-15 -48h-91q-5 -15 -3 -30t10 -27t21 -19.5t30 -7.5q14 0 37 5.5t55 16.5l5 -57l-215 -79l-7 48l63 30q-24 15 -36.5 39.5t-12.5 49.5q0 20 6.5 41.5t23.5 49.5h121zM196 94q26 0 53 2t49 5q-7 30 -18 55.5
t-28.5 44.5t-41.5 31t-57 15q-3 -9 -9 -27.5t-11.5 -39t-10.5 -39.5t-6 -29q10 -11 30.5 -14.5t49.5 -3.5z" />
    <glyph glyph-name="uFE88" unicode="&#x625;" horiz-adv-x="222" arabic-form="final" 
d="M222 0q-44 0 -73.5 9.5t-47.5 30t-26 52.5t-8 78v246q0 32 -1.5 57.5t-5.5 48t-11 44.5t-17 46l70 62q13 -30 21 -57t12 -54t5 -55.5t1 -61.5v-309q11 -17 34.5 -24t46.5 -7v-106zM200 -132l-15 -48h-91q-5 -15 -3 -30t10 -27t21 -19.5t30 -7.5q14 0 37 5.5t55 16.5
l5 -57l-215 -79l-7 48l63 31q-24 15 -36.5 39t-12.5 49q0 20 6.5 41.5t23.5 49.5h121z" />
    <glyph glyph-name="uFE8A" unicode="&#x626;" horiz-adv-x="594" arabic-form="final" 
d="M556 0q2 -5 2 -11v-14q0 -16 -2 -32.5t-5 -31.5t-6.5 -26.5t-6.5 -16.5q-6 -9 -27.5 -26t-56.5 -34.5t-83 -30t-107 -12.5q-63 0 -104 13.5t-65 36.5t-33.5 52.5t-9.5 62.5q0 23 2.5 61t6.5 75q4 43 10 91l65 -3q-3 -48 -6 -92q-2 -38 -5 -77t-4 -62q19 -23 52 -37.5
t91 -14.5q30 0 61.5 4t61 11.5t55.5 18t45 22.5q2 15 3 33.5t0 31.5q-11 4 -28 7t-43 4.5t-62 2.5t-85 3l-5 11q5 19 11 36.5t10 25.5q4 7 8.5 11.5t12.5 7.5t21.5 4t35.5 1h228v-106h-38zM403 423l-15 -48h-91q-5 -15 -3 -30t10 -27t21 -19.5t30 -7.5q14 0 37 5.5t55 16.5
l5 -57l-215 -79l-7 48l63 30q-24 15 -36.5 39.5t-12.5 49.5q0 20 6.5 41.5t23.5 49.5h121z" />
    <glyph glyph-name="uFE8B" unicode="&#x626;" horiz-adv-x="296" arabic-form="initial" 
d="M0 0q-13 0 -19 15t-6 38t6 38t19 15q59 0 104 3.5t71 15.5q-2 16 -7 39.5t-12 49t-15.5 50.5t-17.5 45l67 48l16 -6q7 -18 14 -41t12.5 -47.5t8.5 -49.5t3 -46q0 -26 -6 -49t-15.5 -42.5t-21.5 -33.5t-24 -20q-20 -11 -66 -16.5t-111 -5.5zM200 664l-15 -48h-91
q-5 -15 -3 -30t10 -27t21 -19.5t30 -7.5q14 0 37 5.5t55 16.5l5 -57l-215 -79l-7 48l63 30q-24 15 -36.5 39.5t-12.5 49.5q0 20 6.5 41.5t23.5 49.5h121z" />
    <glyph glyph-name="uFE8C" unicode="&#x626;" horiz-adv-x="318" arabic-form="medial" 
d="M318 0q-18 0 -36 2t-35.5 10t-32 23t-24.5 42q-12 -26 -21 -37.5t-20 -17.5q-40 -22 -149 -22q-13 0 -19 15t-6 38t6 38t19 15q51 0 87 3.5t57 11.5l28 148h69q-1 -27 -1.5 -43.5t-0.5 -27v-15.5v-9q0 -37 23.5 -52.5t55.5 -15.5v-106zM228 582l-15 -48h-91
q-5 -15 -3 -30t10 -27t21 -19.5t30 -7.5q14 0 37 5.5t55 16.5l5 -57l-215 -79l-7 48l63 30q-24 15 -36.5 39.5t-12.5 49.5q0 20 6.5 41.5t23.5 49.5h121z" />
    <glyph glyph-name="uFE8E" unicode="&#x627;" horiz-adv-x="222" arabic-form="final" 
d="M222 0q-44 0 -73.5 9.5t-47.5 30t-26 52.5t-8 78v246q0 32 -1.5 57.5t-5.5 48t-11 44.5t-17 46l70 62q13 -30 21 -57t12 -54t5 -55.5t1 -61.5v-309q11 -17 34.5 -24t46.5 -7v-106v0z" />
    <glyph glyph-name="uFE90" unicode="&#x628;" horiz-adv-x="733" arabic-form="final" 
d="M733 0q-17 0 -34.5 1.5t-34 9t-31.5 22.5t-25 41q-17 -33 -36 -44q-25 -13 -88.5 -24t-165.5 -11q-55 0 -103.5 4t-84.5 18t-57 42t-21 75q0 23 2 52t4 54l6 58l65 -4q-4 -54 -6.5 -90.5t-3.5 -66.5q24 -19 77 -27.5t122 -8.5q74 0 139 6t103 19l28 143h70
q-1 -27 -1.5 -43.5t-1 -27t-0.5 -15.5v-9q0 -37 23.5 -52.5t54.5 -15.5v-106zM408 -146l-48 -73l-85 53l45 75z" />
    <glyph glyph-name="uFE91" unicode="&#x628;" horiz-adv-x="296" arabic-form="initial" 
d="M0 0q-13 0 -19 15t-6 38t6 38t19 15q59 0 104 3.5t71 15.5q-2 16 -7 39.5t-12 49t-15.5 50.5t-17.5 45l67 48l16 -6q7 -18 14 -41t12.5 -47.5t8.5 -49.5t3 -46q0 -26 -6 -49t-15.5 -42.5t-21.5 -33.5t-24 -20q-20 -11 -66 -16.5t-111 -5.5zM132 -140l-48 -73l-85 53
l45 75z" />
    <glyph glyph-name="uFE92" unicode="&#x628;" horiz-adv-x="318" arabic-form="medial" 
d="M318 0q-18 0 -36 2t-35.5 10t-32 23t-24.5 42q-12 -26 -21 -37.5t-20 -17.5q-40 -22 -149 -22q-13 0 -19 15t-6 38t6 38t19 15q51 0 87 3.5t57 11.5l28 148h69q-1 -27 -1.5 -43.5t-0.5 -27v-15.5v-9q0 -37 23.5 -52.5t55.5 -15.5v-106zM201 -140l-48 -73l-85 53l45 75z
" />
    <glyph glyph-name="uFE94" unicode="&#x629;" horiz-adv-x="445" arabic-form="final" 
d="M174 25q-36 0 -59.5 7.5t-37.5 23.5t-19.5 40t-5.5 56q0 28 4 53t11 44q8 10 26 24t41.5 30.5t51 33.5t54.5 34l-12 72l60 30l15 -8l49 -331q9 -13 33 -20.5t60 -7.5v-106q-27 0 -51 3t-43.5 12t-34.5 25.5t-24 43.5q-13 -34 -14 -35q-3 -6 -13.5 -10.5t-25 -7.5
t-32 -4.5t-33.5 -1.5zM175 124q21 0 48.5 1.5t56.5 7.5l-27 163q-22 -12 -45.5 -26.5t-44 -28t-35.5 -25.5t-20 -19q-1 -20 0.5 -34t8.5 -22.5t20.5 -12.5t37.5 -4zM163 652l88 -55l-48 -73l-86 53zM249 579l48 73l85 -53l-45 -75z" />
    <glyph glyph-name="uFE96" unicode="&#x62a;" horiz-adv-x="733" arabic-form="final" 
d="M733 0q-17 0 -34.5 1.5t-34 9t-31.5 22.5t-25 41q-17 -33 -36 -44q-25 -13 -88.5 -24t-165.5 -11q-55 0 -103.5 4t-84.5 18t-57 42t-21 75q0 23 2 52t4 54l6 58l65 -4q-4 -54 -6.5 -90.5t-3.5 -66.5q24 -19 77 -27.5t122 -8.5q74 0 139 6t103 19l28 143h70
q-1 -27 -1.5 -43.5t-1 -27t-0.5 -15.5v-9q0 -37 23.5 -52.5t54.5 -15.5v-106zM263 472l88 -55l-48 -73l-86 53zM349 399l48 73l85 -53l-45 -75z" />
    <glyph glyph-name="uFE97" unicode="&#x62a;" horiz-adv-x="296" arabic-form="initial" 
d="M0 0q-13 0 -19 15t-6 38t6 38t19 15q59 0 104 3.5t71 15.5q-2 16 -7 39.5t-12 49t-15.5 50.5t-17.5 45l67 48l16 -6q7 -18 14 -41t12.5 -47.5t8.5 -49.5t3 -46q0 -26 -6 -49t-15.5 -42.5t-21.5 -33.5t-24 -20q-20 -11 -66 -16.5t-111 -5.5zM137 483l48 73l85 -53l-45 -75
zM51 556l88 -55l-48 -73l-86 53z" />
    <glyph glyph-name="uFE98" unicode="&#x62a;" horiz-adv-x="318" arabic-form="medial" 
d="M318 0q-18 0 -36 2t-35.5 10t-32 23t-24.5 42q-12 -26 -21 -37.5t-20 -17.5q-40 -22 -149 -22q-13 0 -19 15t-6 38t6 38t19 15q51 0 87 3.5t57 11.5l28 148h69q-1 -27 -1.5 -43.5t-0.5 -27v-15.5v-9q0 -37 23.5 -52.5t55.5 -15.5v-106zM165 401l48 73l85 -53l-45 -75z
M79 474l88 -55l-48 -73l-86 53z" />
    <glyph glyph-name="uFE9A" unicode="&#x62b;" horiz-adv-x="733" arabic-form="final" 
d="M733 0q-17 0 -34.5 1.5t-34 9t-31.5 22.5t-25 41q-17 -33 -36 -44q-25 -13 -88.5 -24t-165.5 -11q-55 0 -103.5 4t-84.5 18t-57 42t-21 75q0 23 2 52t4 54l6 58l65 -4q-4 -54 -6.5 -90.5t-3.5 -66.5q24 -19 77 -27.5t122 -8.5q74 0 139 6t103 19l28 143h70
q-1 -27 -1.5 -43.5t-1 -27t-0.5 -15.5v-9q0 -37 23.5 -52.5t54.5 -15.5v-106zM310 605l86 -53l-46 -76l-88 56zM263 472l88 -55l-48 -73l-86 53zM349 399l48 73l85 -53l-45 -75z" />
    <glyph glyph-name="uFE9B" unicode="&#x62b;" horiz-adv-x="296" arabic-form="initial" 
d="M0 0q-13 0 -19 15t-6 38t6 38t19 15q59 0 104 3.5t71 15.5q-2 16 -7 39.5t-12 49t-15.5 50.5t-17.5 45l67 48l16 -6q7 -18 14 -41t12.5 -47.5t8.5 -49.5t3 -46q0 -26 -6 -49t-15.5 -42.5t-21.5 -33.5t-24 -20q-20 -11 -66 -16.5t-111 -5.5zM137 483l48 73l85 -53l-45 -75
zM98 689l86 -53l-46 -76l-88 56zM51 556l88 -55l-48 -73l-86 53z" />
    <glyph glyph-name="uFE9C" unicode="&#x62b;" horiz-adv-x="318" arabic-form="medial" 
d="M318 0q-18 0 -36 2t-35.5 10t-32 23t-24.5 42q-12 -26 -21 -37.5t-20 -17.5q-40 -22 -149 -22q-13 0 -19 15t-6 38t6 38t19 15q51 0 87 3.5t57 11.5l28 148h69q-1 -27 -1.5 -43.5t-0.5 -27v-15.5v-9q0 -37 23.5 -52.5t55.5 -15.5v-106zM165 401l48 73l85 -53l-45 -75z
M126 607l86 -53l-46 -76l-88 56zM79 474l88 -55l-48 -73l-86 53z" />
    <glyph glyph-name="uFE9E" unicode="&#x62c;" horiz-adv-x="581" arabic-form="final" 
d="M512 -197l-23 -78q-60 -8 -112 -9t-81 -1q-55 0 -100 11t-76.5 36.5t-48.5 67.5t-17 104v21q0 34 16 74t52.5 82.5t96 85t147.5 80.5q-73 26 -125 40.5t-71 14.5q-14 0 -29 -5t-24 -13v-53t1 -51l-12 -11l-47 24q-2 18 -2 33.5v32.5q0 45 3 63t8 23q2 2 12 9.5t24.5 15.5
t33.5 14.5t39 6.5t55 -8.5t80 -23t98.5 -33.5t111.5 -40l5 -17l-31 -67q-23 0 -44 -4t-43 -12q3 -32 10.5 -53t21.5 -33.5t35.5 -18t52.5 -5.5h52v-106h-55q-26 0 -54 6t-52 26t-41 59t-20 105q-1 -1 -2 -1q-91 -43 -155.5 -99.5t-85.5 -122.5v-12q0 -39 10 -67.5t32.5 -47
t59.5 -28t90 -9.5q37 0 81.5 1t112.5 7zM353 -27l-48 -73l-85 53l45 75z" />
    <glyph glyph-name="uFE9F" unicode="&#x62c;" horiz-adv-x="584" arabic-form="initial" 
d="M0 0q-13 0 -19 15t-6 38t6 38t19 15h70q40 0 68.5 1.5t48.5 4.5t33.5 8t23.5 11q22 14 40 27t35.5 26t36.5 26.5t42 28.5q-77 27 -134.5 44t-77.5 17q-14 0 -29.5 -5t-25.5 -13v-45t1 -38l-46 -27l-12 10q-2 26 -2.5 40t-0.5 31q0 50 3.5 68t8.5 23q2 2 11.5 9.5t24 15.5
t33 14.5t39.5 6.5q19 0 53 -8t78.5 -22t98.5 -33t115 -40l4 -18l-35 -66q-19 -1 -32.5 -2.5t-29.5 -10t-37.5 -26t-55.5 -50.5q-42 -38 -72.5 -60.5t-59.5 -34.5t-63 -15.5t-83 -3.5h-72zM315 -140l-48 -73l-85 53l45 75z" />
    <glyph glyph-name="uFEA0" unicode="&#x62c;" horiz-adv-x="590" arabic-form="medial" 
d="M0 0q-13 0 -19 15t-6 38t6 38t19 15h70q40 0 68.5 1.5t48.5 4.5t33.5 8t23.5 11q22 14 40 27t35.5 26t36.5 26.5t42 28.5q-77 27 -134.5 44t-77.5 17q-14 0 -29.5 -5t-25.5 -13v-45t1 -38l-46 -27l-12 10q-2 26 -2.5 40t-0.5 31q0 50 3.5 68t8.5 23q2 2 11.5 9.5t24 15.5
t33 14.5t39.5 6.5q19 0 53 -8t78.5 -22t98.5 -33t115 -40l4 -18l-35 -66q-14 -1 -25 -2t-22 -4.5t-23 -10.5t-28 -20q10 -31 34.5 -45.5t76.5 -14.5h72v-106h-75q-21 0 -44 4t-44 17t-38.5 37.5t-26.5 66.5q-4 -3 -12 -11q-42 -38 -72.5 -60.5t-59.5 -34.5t-63 -15.5
t-83 -3.5h-72zM315 -140l-48 -73l-85 53l45 75z" />
    <glyph glyph-name="uFEA2" unicode="&#x62d;" horiz-adv-x="581" arabic-form="final" 
d="M512 -197l-23 -78q-60 -8 -112 -9t-81 -1q-55 0 -100 11t-76.5 36.5t-48.5 67.5t-17 104v21q0 34 16 74t52.5 82.5t96 85t147.5 80.5q-73 26 -125 40.5t-71 14.5q-14 0 -29 -5t-24 -13v-53t1 -51l-12 -11l-47 24q-2 18 -2 33.5v32.5q0 45 3 63t8 23q2 2 12 9.5t24.5 15.5
t33.5 14.5t39 6.5t55 -8.5t80 -23t98.5 -33.5t111.5 -40l5 -17l-31 -67q-23 0 -44 -4t-43 -12q3 -32 10.5 -53t21.5 -33.5t35.5 -18t52.5 -5.5h52v-106h-55q-26 0 -54 6t-52 26t-41 59t-20 105q-1 -1 -2 -1q-91 -43 -155.5 -99.5t-85.5 -122.5v-12q0 -39 10 -67.5t32.5 -47
t59.5 -28t90 -9.5q37 0 81.5 1t112.5 7z" />
    <glyph glyph-name="uFEA3" unicode="&#x62d;" horiz-adv-x="584" arabic-form="initial" 
d="M0 0q-13 0 -19 15t-6 38t6 38t19 15h70q40 0 68.5 1.5t48.5 4.5t33.5 8t23.5 11q22 14 40 27t35.5 26t36.5 26.5t42 28.5q-77 27 -134.5 44t-77.5 17q-14 0 -29.5 -5t-25.5 -13v-45t1 -38l-46 -27l-12 10q-2 26 -2.5 40t-0.5 31q0 50 3.5 68t8.5 23q2 2 11.5 9.5t24 15.5
t33 14.5t39.5 6.5q19 0 53 -8t78.5 -22t98.5 -33t115 -40l4 -18l-35 -66q-19 -1 -32.5 -2.5t-29.5 -10t-37.5 -26t-55.5 -50.5q-42 -38 -72.5 -60.5t-59.5 -34.5t-63 -15.5t-83 -3.5h-72z" />
    <glyph glyph-name="uFEA4" unicode="&#x62d;" horiz-adv-x="590" arabic-form="medial" 
d="M0 0q-13 0 -19 15t-6 38t6 38t19 15h70q40 0 68.5 1.5t48.5 4.5t33.5 8t23.5 11q22 14 40 27t35.5 26t36.5 26.5t42 28.5q-77 27 -134.5 44t-77.5 17q-14 0 -29.5 -5t-25.5 -13v-45t1 -38l-46 -27l-12 10q-2 26 -2.5 40t-0.5 31q0 50 3.5 68t8.5 23q2 2 11.5 9.5t24 15.5
t33 14.5t39.5 6.5q19 0 53 -8t78.5 -22t98.5 -33t115 -40l4 -18l-35 -66q-14 -1 -25 -2t-22 -4.5t-23 -10.5t-28 -20q10 -31 34.5 -45.5t76.5 -14.5h72v-106h-75q-21 0 -44 4t-44 17t-38.5 37.5t-26.5 66.5q-4 -3 -12 -11q-42 -38 -72.5 -60.5t-59.5 -34.5t-63 -15.5
t-83 -3.5h-72v0z" />
    <glyph glyph-name="uFEA6" unicode="&#x62e;" horiz-adv-x="581" arabic-form="final" 
d="M512 -197l-23 -78q-60 -8 -112 -9t-81 -1q-55 0 -100 11t-76.5 36.5t-48.5 67.5t-17 104v21q0 34 16 74t52.5 82.5t96 85t147.5 80.5q-73 26 -125 40.5t-71 14.5q-14 0 -29 -5t-24 -13v-53t1 -51l-12 -11l-47 24q-2 18 -2 33.5v32.5q0 45 3 63t8 23q2 2 12 9.5t24.5 15.5
t33.5 14.5t39 6.5t55 -8.5t80 -23t98.5 -33.5t111.5 -40l5 -17l-31 -67q-23 0 -44 -4t-43 -12q3 -32 10.5 -53t21.5 -33.5t35.5 -18t52.5 -5.5h52v-106h-55q-26 0 -54 6t-52 26t-41 59t-20 105q-1 -1 -2 -1q-91 -43 -155.5 -99.5t-85.5 -122.5v-12q0 -39 10 -67.5t32.5 -47
t59.5 -28t90 -9.5q37 0 81.5 1t112.5 7zM137 562l45 75l88 -55l-48 -73z" />
    <glyph glyph-name="uFEA7" unicode="&#x62e;" horiz-adv-x="584" arabic-form="initial" 
d="M0 0q-13 0 -19 15t-6 38t6 38t19 15h70q40 0 68.5 1.5t48.5 4.5t33.5 8t23.5 11q22 14 40 27t35.5 26t36.5 26.5t42 28.5q-77 27 -134.5 44t-77.5 17q-14 0 -29.5 -5t-25.5 -13v-45t1 -38l-46 -27l-12 10q-2 26 -2.5 40t-0.5 31q0 50 3.5 68t8.5 23q2 2 11.5 9.5t24 15.5
t33 14.5t39.5 6.5q19 0 53 -8t78.5 -22t98.5 -33t115 -40l4 -18l-35 -66q-19 -1 -32.5 -2.5t-29.5 -10t-37.5 -26t-55.5 -50.5q-42 -38 -72.5 -60.5t-59.5 -34.5t-63 -15.5t-83 -3.5h-72zM145 535l45 75l88 -55l-48 -73z" />
    <glyph glyph-name="uFEA8" unicode="&#x62e;" horiz-adv-x="590" arabic-form="medial" 
d="M0 0q-13 0 -19 15t-6 38t6 38t19 15h70q40 0 68.5 1.5t48.5 4.5t33.5 8t23.5 11q22 14 40 27t35.5 26t36.5 26.5t42 28.5q-77 27 -134.5 44t-77.5 17q-14 0 -29.5 -5t-25.5 -13v-45t1 -38l-46 -27l-12 10q-2 26 -2.5 40t-0.5 31q0 50 3.5 68t8.5 23q2 2 11.5 9.5t24 15.5
t33 14.5t39.5 6.5q19 0 53 -8t78.5 -22t98.5 -33t115 -40l4 -18l-35 -66q-14 -1 -25 -2t-22 -4.5t-23 -10.5t-28 -20q10 -31 34.5 -45.5t76.5 -14.5h72v-106h-75q-21 0 -44 4t-44 17t-38.5 37.5t-26.5 66.5q-4 -3 -12 -11q-42 -38 -72.5 -60.5t-59.5 -34.5t-63 -15.5
t-83 -3.5h-72zM145 535l45 75l88 -55l-48 -73z" />
    <glyph glyph-name="uFEAA" unicode="&#x62f;" horiz-adv-x="491" arabic-form="final" 
d="M491 0q-56 0 -91 13t-56 53q-7 -17 -15.5 -25.5t-16.5 -13.5q-24 -13 -59 -20t-72 -7q-77 0 -107 24t-30 78q0 13 1 30.5t2.5 34t3 29.5t2.5 17l60 -4q-1 -13 -2 -28t-1.5 -28t-1 -22.5t-0.5 -11.5q12 -8 39.5 -10.5t52.5 -2.5q27 0 59.5 3t64.5 14q-2 8 -3 13l-59 270
l64 33l16 -7l55 -298q9 -13 33.5 -20.5t60.5 -7.5v-106v0z" />
    <glyph glyph-name="uFEAC" unicode="&#x630;" horiz-adv-x="491" arabic-form="final" 
d="M491 0q-56 0 -91 13t-56 53q-7 -17 -15.5 -25.5t-16.5 -13.5q-24 -13 -59 -20t-72 -7q-77 0 -107 24t-30 78q0 13 1 30.5t2.5 34t3 29.5t2.5 17l60 -4q-1 -13 -2 -28t-1.5 -28t-1 -22.5t-0.5 -11.5q12 -8 39.5 -10.5t52.5 -2.5q27 0 59.5 3t64.5 14q-2 8 -3 13l-59 270
l64 33l16 -7l55 -298q9 -13 33.5 -20.5t60.5 -7.5v-106zM234 551l45 75l88 -55l-48 -73z" />
    <glyph glyph-name="uFEAE" unicode="&#x631;" horiz-adv-x="276" arabic-form="final" 
d="M276 0q-47 0 -70 13q-5 -59 -25 -104t-46 -76t-52.5 -47t-42.5 -16q-8 0 -32.5 4t-85.5 17v39q41 10 77 30t64.5 45t48.5 54.5t29 59.5q-3 19 -10 44t-16.5 52t-20 55t-21.5 53l69 46l17 -6q7 -23 14 -45t13 -41.5t11 -34t9 -21.5q9 -8 25 -11.5t45 -3.5v-106v0z" />
    <glyph glyph-name="uFEB0" unicode="&#x632;" horiz-adv-x="276" arabic-form="final" 
d="M276 0q-47 0 -70 13q-5 -59 -25 -104t-46 -76t-52.5 -47t-42.5 -16q-8 0 -32.5 4t-85.5 17v39q41 10 77 30t64.5 45t48.5 54.5t29 59.5q-3 19 -10 44t-16.5 52t-20 55t-21.5 53l69 46l17 -6q7 -23 14 -45t13 -41.5t11 -34t9 -21.5q9 -8 25 -11.5t45 -3.5v-106zM43 389
l45 75l88 -55l-48 -73z" />
    <glyph glyph-name="uFEB2" unicode="&#x633;" horiz-adv-x="1079" arabic-form="final" 
d="M1079 0q-38 0 -68 13.5t-48 57.5q-11 -23 -20 -34t-19 -17q-13 -9 -33 -14.5t-44 -5.5q-32 0 -59.5 13t-45.5 56q-11 -22 -19 -32.5t-19 -16.5q-14 -9 -36 -14.5t-49 -5.5q-17 0 -31.5 2t-28.5 10q1 -6 1 -13v-15q0 -38 -6.5 -69.5t-15.5 -47.5q-5 -9 -25.5 -26
t-55.5 -34t-83.5 -29.5t-108.5 -12.5q-63 0 -104 13.5t-65.5 36.5t-34 52.5t-9.5 62.5q0 19 2 50.5t5 65t6.5 64t5.5 47.5l65 -3q-3 -33 -5.5 -68.5t-4.5 -67.5t-3.5 -57.5t-1.5 -37.5q19 -23 54.5 -37.5t89.5 -14.5q31 0 63.5 4.5t63 13t56.5 19.5t44 24q-5 77 -21 155.5
t-33 138.5l68 43l16 -4q12 -49 20 -86.5t16 -54.5q10 -10 27 -14t36 -4q22 0 41.5 2.5t36.5 10.5l28 146h62q-1 -26 -1.5 -42t-1 -25.5t-0.5 -15v-8.5q0 -35 19.5 -51.5t47.5 -16.5q18 0 34 3.5t29 8.5q5 22 9 51.5t9 56.5q4 32 10 64h64q-1 -32 -1.5 -52.5t-0.5 -33.5v-20
v-10q0 -33 19.5 -50.5t53.5 -17.5v-106v0z" />
    <glyph glyph-name="uFEB3" unicode="&#x633;" horiz-adv-x="730" arabic-form="initial" 
d="M512 0q-32 0 -60 13t-46 55q-11 -21 -18.5 -31.5t-18.5 -16.5q-14 -9 -36.5 -14.5t-51.5 -5.5q-34 0 -62.5 13t-47.5 56q-11 -21 -19.5 -31.5t-20.5 -17.5q-18 -11 -55 -15.5t-76 -4.5q-13 0 -19 15t-6 38t6 38t19 15q38 0 75 3t59 10l28 150h61q-1 -27 -1.5 -43.5
t-0.5 -27v-15.5v-9q0 -37 19.5 -52.5t47.5 -15.5q44 0 76 13l27 146h62q-1 -26 -1.5 -42t-0.5 -25.5v-15v-8.5q0 -35 19.5 -51.5t46.5 -16.5q23 0 49 5.5t45 13.5q-2 19 -6.5 42.5t-11.5 47.5t-15 47.5t-16 43.5l65 51l17 -6q17 -46 25.5 -91t8.5 -90q0 -26 -6.5 -49.5
t-16.5 -43t-20.5 -32.5t-18.5 -18q-20 -15 -46.5 -21t-57.5 -6z" />
    <glyph glyph-name="uFEB4" unicode="&#x633;" horiz-adv-x="744" arabic-form="medial" 
d="M744 0q-38 0 -68 13.5t-48 57.5q-11 -23 -20.5 -34t-18.5 -17q-14 -9 -34 -14.5t-43 -5.5q-32 0 -60 13t-46 55q-11 -21 -18.5 -31.5t-18.5 -16.5q-14 -9 -36.5 -14.5t-51.5 -5.5q-34 0 -62.5 13t-47.5 56q-11 -21 -19.5 -31.5t-20.5 -17.5q-18 -11 -55 -15.5t-76 -4.5
q-13 0 -19 15t-6 38t6 38t19 15q38 0 75 3t59 10l28 150h61q-1 -27 -1.5 -43.5t-0.5 -27v-15.5v-9q0 -37 19.5 -52.5t47.5 -15.5q44 0 76 13l27 146h62q-1 -26 -1.5 -42t-0.5 -25.5v-15v-8.5q0 -35 19.5 -51.5t46.5 -16.5q18 0 34.5 3.5t28.5 8.5q5 22 9.5 51.5t9.5 56.5
l10 64h64q-1 -32 -1.5 -52.5t-1 -33.5t-0.5 -20v-10q0 -33 19.5 -50.5t54.5 -17.5v-106v0z" />
    <glyph glyph-name="uFEB6" unicode="&#x634;" horiz-adv-x="1079" arabic-form="final" 
d="M1079 0q-38 0 -68 13.5t-48 57.5q-11 -23 -20 -34t-19 -17q-13 -9 -33 -14.5t-44 -5.5q-32 0 -59.5 13t-45.5 56q-11 -22 -19 -32.5t-19 -16.5q-14 -9 -36 -14.5t-49 -5.5q-17 0 -31.5 2t-28.5 10q1 -6 1 -13v-15q0 -38 -6.5 -69.5t-15.5 -47.5q-5 -9 -25.5 -26
t-55.5 -34t-83.5 -29.5t-108.5 -12.5q-63 0 -104 13.5t-65.5 36.5t-34 52.5t-9.5 62.5q0 19 2 50.5t5 65t6.5 64t5.5 47.5l65 -3q-3 -33 -5.5 -68.5t-4.5 -67.5t-3.5 -57.5t-1.5 -37.5q19 -23 54.5 -37.5t89.5 -14.5q31 0 63.5 4.5t63 13t56.5 19.5t44 24q-5 77 -21 155.5
t-33 138.5l68 43l16 -4q12 -49 20 -86.5t16 -54.5q10 -10 27 -14t36 -4q22 0 41.5 2.5t36.5 10.5l28 146h62q-1 -26 -1.5 -42t-1 -25.5t-0.5 -15v-8.5q0 -35 19.5 -51.5t47.5 -16.5q18 0 34 3.5t29 8.5q5 22 9 51.5t9 56.5q4 32 10 64h64q-1 -32 -1.5 -52.5t-0.5 -33.5v-20
v-10q0 -33 19.5 -50.5t53.5 -17.5v-106zM708 603l86 -53l-46 -76l-88 56zM661 470l88 -55l-48 -73l-86 53zM747 397l48 73l85 -53l-45 -75z" />
    <glyph glyph-name="uFEB7" unicode="&#x634;" horiz-adv-x="730" arabic-form="initial" 
d="M512 0q-32 0 -60 13t-46 55q-11 -21 -18.5 -31.5t-18.5 -16.5q-14 -9 -36.5 -14.5t-51.5 -5.5q-34 0 -62.5 13t-47.5 56q-11 -21 -19.5 -31.5t-20.5 -17.5q-18 -11 -55 -15.5t-76 -4.5q-13 0 -19 15t-6 38t6 38t19 15q38 0 75 3t59 10l28 150h61q-1 -27 -1.5 -43.5
t-0.5 -27v-15.5v-9q0 -37 19.5 -52.5t47.5 -15.5q44 0 76 13l27 146h62q-1 -26 -1.5 -42t-0.5 -25.5v-15v-8.5q0 -35 19.5 -51.5t46.5 -16.5q23 0 49 5.5t45 13.5q-2 19 -6.5 42.5t-11.5 47.5t-15 47.5t-16 43.5l65 51l17 -6q17 -46 25.5 -91t8.5 -90q0 -26 -6.5 -49.5
t-16.5 -43t-20.5 -32.5t-18.5 -18q-20 -15 -46.5 -21t-57.5 -6zM357 603l86 -53l-46 -76l-88 56zM310 470l88 -55l-48 -73l-86 53zM396 397l48 73l85 -53l-45 -75z" />
    <glyph glyph-name="uFEB8" unicode="&#x634;" horiz-adv-x="744" arabic-form="medial" 
d="M744 0q-38 0 -68 13.5t-48 57.5q-11 -23 -20.5 -34t-18.5 -17q-14 -9 -34 -14.5t-43 -5.5q-32 0 -60 13t-46 55q-11 -21 -18.5 -31.5t-18.5 -16.5q-14 -9 -36.5 -14.5t-51.5 -5.5q-34 0 -62.5 13t-47.5 56q-11 -21 -19.5 -31.5t-20.5 -17.5q-18 -11 -55 -15.5t-76 -4.5
q-13 0 -19 15t-6 38t6 38t19 15q38 0 75 3t59 10l28 150h61q-1 -27 -1.5 -43.5t-0.5 -27v-15.5v-9q0 -37 19.5 -52.5t47.5 -15.5q44 0 76 13l27 146h62q-1 -26 -1.5 -42t-0.5 -25.5v-15v-8.5q0 -35 19.5 -51.5t46.5 -16.5q18 0 34.5 3.5t28.5 8.5q5 22 9.5 51.5t9.5 56.5
l10 64h64q-1 -32 -1.5 -52.5t-1 -33.5t-0.5 -20v-10q0 -33 19.5 -50.5t54.5 -17.5v-106zM367 603l86 -53l-46 -76l-88 56zM320 470l88 -55l-48 -73l-86 53zM406 397l48 73l85 -53l-45 -75z" />
    <glyph glyph-name="uFEBA" unicode="&#x635;" horiz-adv-x="1098" arabic-form="final" 
d="M864 376q25 0 52 -15t49.5 -42.5t36.5 -65t14 -82.5q0 -23 -8 -53q14 -8 33 -10t47 -2h10v-106h-10q-14 0 -29.5 1.5t-30.5 7t-28.5 15.5t-24.5 27q-12 -15 -28 -23q-60 -28 -199 -28h-67q-44 0 -73 4.5t-49 17.5q1 -8 1 -17.5v-20.5q0 -42 -7 -72.5t-15 -44.5
q-5 -9 -25.5 -26t-55.5 -34t-83.5 -29.5t-108.5 -12.5q-63 0 -104 13.5t-65.5 36.5t-34 52.5t-9.5 62.5q0 23 2.5 61t6.5 75q4 43 10 91l65 -3q-3 -48 -6 -92q-2 -38 -5 -77t-4 -62q19 -23 54.5 -37.5t89.5 -14.5q31 0 63.5 4.5t63 13t56.5 19.5t44 24q-5 77 -21 155.5
t-33 138.5l68 43l16 -4l15 -67q4 -18 8.5 -32t11.5 -24q95 81 151.5 128t87.5 70.5t44.5 29.5t23.5 6zM839 278q-9 0 -24 -8t-41 -27.5t-66.5 -52t-98.5 -81.5q18 -3 45 -3h132q63 0 100.5 5t60.5 16q0 30 -12 57t-28.5 48t-35 33.5t-32.5 12.5z" />
    <glyph glyph-name="uFEBB" unicode="&#x635;" horiz-adv-x="727" arabic-form="initial" 
d="M308 0q-60 0 -97 13t-56 56q-11 -21 -20 -31.5t-21 -17.5q-17 -11 -50 -15.5t-64 -4.5q-13 0 -19 15t-6 38t6 38t19 15q28 0 60.5 2.5t57.5 10.5l28 150h61q-1 -27 -1.5 -43.5t-1 -27t-0.5 -15.5v-9q0 -23 8 -35q65 55 111 94t78.5 65.5t52.5 41.5t33 23t20.5 10.5
t14.5 2.5q25 0 52.5 -15t49.5 -42.5t36.5 -65t14.5 -82.5q0 -17 -5 -38.5t-14 -42.5t-22 -38t-29 -24q-60 -28 -199 -28h-98zM497 278q-9 0 -24 -8t-41.5 -27.5t-67 -52.5t-99.5 -83q5 -1 10.5 -1h11.5h157q63 0 100 5t61 16q0 30 -12 57t-28.5 48t-35 33.5t-32.5 12.5z" />
    <glyph glyph-name="uFEBC" unicode="&#x635;" horiz-adv-x="757" arabic-form="medial" 
d="M0 0q-13 0 -19 15t-6 38t6 38t19 15q28 0 60.5 2.5t57.5 10.5l28 150h61q-1 -27 -1.5 -43.5t-1 -27t-0.5 -15.5v-9q0 -23 8 -35q65 55 111 94t78.5 65.5t52.5 41.5t33 23t20.5 10.5t14.5 2.5q25 0 52.5 -15t49.5 -42.5t36.5 -65t14.5 -82.5q0 -23 -8 -53q14 -8 33 -10
t46 -2h11v-106h-11q-27 0 -58.5 8.5t-54.5 42.5q-12 -15 -28 -23q-60 -28 -199 -28h-98q-60 0 -97 13t-56 56q-11 -21 -20 -31.5t-21 -17.5q-17 -11 -50 -15.5t-64 -4.5zM497 278q-9 0 -24 -8t-41.5 -27.5t-67 -52.5t-99.5 -83q5 -1 10.5 -1h11.5h157q63 0 100 5t61 16
q0 30 -12 57t-28.5 48t-35 33.5t-32.5 12.5z" />
    <glyph glyph-name="uFEBE" unicode="&#x636;" horiz-adv-x="1098" arabic-form="final" 
d="M864 376q25 0 52 -15t49.5 -42.5t36.5 -65t14 -82.5q0 -23 -8 -53q14 -8 33 -10t47 -2h10v-106h-10q-14 0 -29.5 1.5t-30.5 7t-28.5 15.5t-24.5 27q-12 -15 -28 -23q-60 -28 -199 -28h-67q-44 0 -73 4.5t-49 17.5q1 -8 1 -17.5v-20.5q0 -42 -7 -72.5t-15 -44.5
q-5 -9 -25.5 -26t-55.5 -34t-83.5 -29.5t-108.5 -12.5q-63 0 -104 13.5t-65.5 36.5t-34 52.5t-9.5 62.5q0 23 2.5 61t6.5 75q4 43 10 91l65 -3q-3 -48 -6 -92q-2 -38 -5 -77t-4 -62q19 -23 54.5 -37.5t89.5 -14.5q31 0 63.5 4.5t63 13t56.5 19.5t44 24q-5 77 -21 155.5
t-33 138.5l68 43l16 -4l15 -67q4 -18 8.5 -32t11.5 -24q95 81 151.5 128t87.5 70.5t44.5 29.5t23.5 6zM839 278q-9 0 -24 -8t-41 -27.5t-66.5 -52t-98.5 -81.5q18 -3 45 -3h132q63 0 100.5 5t60.5 16q0 30 -12 57t-28.5 48t-35 33.5t-32.5 12.5zM784 505l45 75l88 -55
l-48 -73z" />
    <glyph glyph-name="uFEBF" unicode="&#x636;" horiz-adv-x="727" arabic-form="initial" 
d="M308 0q-60 0 -97 13t-56 56q-11 -21 -20 -31.5t-21 -17.5q-17 -11 -50 -15.5t-64 -4.5q-13 0 -19 15t-6 38t6 38t19 15q28 0 60.5 2.5t57.5 10.5l28 150h61q-1 -27 -1.5 -43.5t-1 -27t-0.5 -15.5v-9q0 -23 8 -35q65 55 111 94t78.5 65.5t52.5 41.5t33 23t20.5 10.5
t14.5 2.5q25 0 52.5 -15t49.5 -42.5t36.5 -65t14.5 -82.5q0 -17 -5 -38.5t-14 -42.5t-22 -38t-29 -24q-60 -28 -199 -28h-98zM497 278q-9 0 -24 -8t-41.5 -27.5t-67 -52.5t-99.5 -83q5 -1 10.5 -1h11.5h157q63 0 100 5t61 16q0 30 -12 57t-28.5 48t-35 33.5t-32.5 12.5z
M442 505l45 75l88 -55l-48 -73z" />
    <glyph glyph-name="uFEC0" unicode="&#x636;" horiz-adv-x="757" arabic-form="medial" 
d="M0 0q-13 0 -19 15t-6 38t6 38t19 15q28 0 60.5 2.5t57.5 10.5l28 150h61q-1 -27 -1.5 -43.5t-1 -27t-0.5 -15.5v-9q0 -23 8 -35q65 55 111 94t78.5 65.5t52.5 41.5t33 23t20.5 10.5t14.5 2.5q25 0 52.5 -15t49.5 -42.5t36.5 -65t14.5 -82.5q0 -23 -8 -53q14 -8 33 -10
t46 -2h11v-106h-11q-27 0 -58.5 8.5t-54.5 42.5q-12 -15 -28 -23q-60 -28 -199 -28h-98q-60 0 -97 13t-56 56q-11 -21 -20 -31.5t-21 -17.5q-17 -11 -50 -15.5t-64 -4.5zM497 278q-9 0 -24 -8t-41.5 -27.5t-67 -52.5t-99.5 -83q5 -1 10.5 -1h11.5h157q63 0 100 5t61 16
q0 30 -12 57t-28.5 48t-35 33.5t-32.5 12.5zM442 505l45 75l88 -55l-48 -73z" />
    <glyph glyph-name="uFEC2" unicode="&#x637;" horiz-adv-x="690" arabic-form="final" 
d="M338 0q-58 0 -122.5 2t-133.5 11l-42 89l7 17q19 -2 35.5 -3.5t32.5 -3.5l72 64q9 8 15 15.5t10 18t6 25.5t2 36v25.5t-0.5 38.5t-1 42.5t-1.5 38.5q-1 35 -2.5 61t-5 47.5t-9.5 42.5t-15 45l70 62q13 -30 21 -57t12 -54t5 -55.5t1 -61.5q0 -41 -0.5 -70.5t-1 -51t-2 -37
t-4.5 -27.5q45 37 74 60t47 35.5t28.5 16.5t18.5 4q25 0 52.5 -15t49.5 -42.5t36.5 -65t14.5 -82.5q0 -23 -8 -53q14 -8 33 -10t47 -2h11v-106h-11q-28 0 -59.5 9t-53.5 43q-14 -17 -29 -24q-31 -14 -79 -21t-120 -7zM429 278q-8 0 -23 -8t-42 -28t-67.5 -53t-100.5 -82
q35 -1 77 -1h104q63 0 100 5t61 16q-1 30 -12.5 57t-28 48t-35 33.5t-33.5 12.5z" />
    <glyph glyph-name="uFEC3" unicode="&#x637;" horiz-adv-x="591" arabic-form="initial" 
d="M0 0q-13 0 -19 15t-6 38t6 38t19 15h39l79 70q9 8 15 15.5t10.5 18t6.5 25.5t2 36q0 8 -0.5 25.5t-1 38.5t-1 42.5t-0.5 38.5q-1 35 -2.5 61t-5 47.5t-9.5 42.5t-15 45l69 62q14 -30 22 -57t11.5 -54t4.5 -55.5t1 -61.5q0 -41 -0.5 -71t-1 -51.5t-2 -37t-4.5 -27.5
q45 38 74.5 61t47.5 35.5t28.5 16.5t18.5 4q25 0 52.5 -15t49.5 -42.5t36.5 -65t14.5 -82.5q0 -17 -5 -38.5t-14 -42.5t-22 -38t-29 -24q-60 -28 -200 -28h-269zM361 278q-9 0 -24 -8t-42 -28t-68 -53t-101 -83h182q63 0 100 5t61 16q0 30 -12 57t-28.5 48t-35 33.5
t-32.5 12.5z" />
    <glyph glyph-name="uFEC4" unicode="&#x637;" horiz-adv-x="621" arabic-form="medial" 
d="M0 0q-13 0 -19 15t-6 38t6 38t19 15h39l79 70q9 8 15 15.5t10.5 18t6.5 25.5t2 36q0 8 -0.5 25.5t-1 38.5t-1 42.5t-0.5 38.5q-1 35 -2.5 61t-5 47.5t-9.5 42.5t-15 45l69 62q14 -30 22 -57t11.5 -54t4.5 -55.5t1 -61.5q0 -41 -0.5 -71t-1 -51.5t-2 -37t-4.5 -27.5
q45 38 74.5 61t47.5 35.5t28.5 16.5t18.5 4q25 0 52.5 -15t49.5 -42.5t36.5 -65t14.5 -82.5q0 -23 -8 -53q14 -8 33 -10t46 -2h11v-106h-11q-27 0 -58.5 8.5t-54.5 42.5q-12 -15 -28 -23q-60 -28 -200 -28h-269zM361 278q-9 0 -24 -8t-42 -28t-68 -53t-101 -83h182
q63 0 100 5t61 16q0 30 -12 57t-28.5 48t-35 33.5t-32.5 12.5z" />
    <glyph glyph-name="uFEC6" unicode="&#x638;" horiz-adv-x="690" arabic-form="final" 
d="M338 0q-58 0 -122.5 2t-133.5 11l-42 89l7 17q19 -2 35.5 -3.5t32.5 -3.5l72 64q9 8 15 15.5t10 18t6 25.5t2 36v25.5t-0.5 38.5t-1 42.5t-1.5 38.5q-1 35 -2.5 61t-5 47.5t-9.5 42.5t-15 45l70 62q13 -30 21 -57t12 -54t5 -55.5t1 -61.5q0 -41 -0.5 -70.5t-1 -51t-2 -37
t-4.5 -27.5q45 37 74 60t47 35.5t28.5 16.5t18.5 4q25 0 52.5 -15t49.5 -42.5t36.5 -65t14.5 -82.5q0 -23 -8 -53q14 -8 33 -10t47 -2h11v-106h-11q-28 0 -59.5 9t-53.5 43q-14 -17 -29 -24q-31 -14 -79 -21t-120 -7zM429 278q-8 0 -23 -8t-42 -28t-67.5 -53t-100.5 -82
q35 -1 77 -1h104q63 0 100 5t61 16q-1 30 -12.5 57t-28 48t-35 33.5t-33.5 12.5zM390 498l45 75l88 -55l-48 -73z" />
    <glyph glyph-name="uFEC7" unicode="&#x638;" horiz-adv-x="591" arabic-form="initial" 
d="M0 0q-13 0 -19 15t-6 38t6 38t19 15h39l79 70q9 8 15 15.5t10.5 18t6.5 25.5t2 36q0 8 -0.5 25.5t-1 38.5t-1 42.5t-0.5 38.5q-1 35 -2.5 61t-5 47.5t-9.5 42.5t-15 45l69 62q14 -30 22 -57t11.5 -54t4.5 -55.5t1 -61.5q0 -41 -0.5 -71t-1 -51.5t-2 -37t-4.5 -27.5
q45 38 74.5 61t47.5 35.5t28.5 16.5t18.5 4q25 0 52.5 -15t49.5 -42.5t36.5 -65t14.5 -82.5q0 -17 -5 -38.5t-14 -42.5t-22 -38t-29 -24q-60 -28 -200 -28h-269zM361 278q-9 0 -24 -8t-42 -28t-68 -53t-101 -83h182q63 0 100 5t61 16q0 30 -12 57t-28.5 48t-35 33.5
t-32.5 12.5zM322 498l45 75l88 -55l-48 -73z" />
    <glyph glyph-name="uFEC8" unicode="&#x638;" horiz-adv-x="621" arabic-form="medial" 
d="M0 0q-13 0 -19 15t-6 38t6 38t19 15h39l79 70q9 8 15 15.5t10.5 18t6.5 25.5t2 36q0 8 -0.5 25.5t-1 38.5t-1 42.5t-0.5 38.5q-1 35 -2.5 61t-5 47.5t-9.5 42.5t-15 45l69 62q14 -30 22 -57t11.5 -54t4.5 -55.5t1 -61.5q0 -41 -0.5 -71t-1 -51.5t-2 -37t-4.5 -27.5
q45 38 74.5 61t47.5 35.5t28.5 16.5t18.5 4q25 0 52.5 -15t49.5 -42.5t36.5 -65t14.5 -82.5q0 -23 -8 -53q14 -8 33 -10t46 -2h11v-106h-11q-27 0 -58.5 8.5t-54.5 42.5q-12 -15 -28 -23q-60 -28 -200 -28h-269zM361 278q-9 0 -24 -8t-42 -28t-68 -53t-101 -83h182
q63 0 100 5t61 16q0 30 -12 57t-28.5 48t-35 33.5t-32.5 12.5zM322 498l45 75l88 -55l-48 -73z" />
    <glyph glyph-name="uFECA" unicode="&#x639;" horiz-adv-x="527" arabic-form="final" 
d="M139 -47q0 -76 43.5 -110t144.5 -34h36.5t39.5 1t46.5 2.5t58.5 4.5l10 -14l-23 -78q-59 -8 -104.5 -9t-74.5 -1q-53 0 -96.5 10t-75.5 34t-49.5 64.5t-17.5 101.5v20q0 17 3 37t15 45t36 54.5t67 65.5q-26 42 -51 79.5t-48 64.5l-38 -3l-9 15l23 69q51 7 90 11.5t69 7
t53 3.5t43 1q75 0 108 -27.5t33 -74.5q0 -38 -27 -84t-90 -95q15 -5 34.5 -6.5t52.5 -1.5h86v-106h-116q-30 0 -53 2.5t-43 11t-38 25t-38 44.5q-38 -29 -64 -58t-36 -58v-14zM287 140q58 39 84 71.5t26 50.5q0 22 -18.5 33t-53.5 11q-20 0 -59 -2.5t-84 -9.5q9 -13 22 -32
t27 -40t28.5 -42.5t27.5 -39.5z" />
    <glyph glyph-name="uFECB" unicode="&#x639;" horiz-adv-x="483" arabic-form="initial" 
d="M0 0q-13 0 -19 15t-6 38t6 38t19 15q28 0 55 0.5t53 1.5q-29 26 -40.5 57.5t-11.5 63.5q0 43 21.5 80t52 64t63.5 42.5t56 15.5q20 0 48 -20.5t60 -48.5l-42 -66q-31 19 -48.5 28t-27.5 9q-12 0 -29.5 -7t-35 -20t-33 -30t-23.5 -37q8 -39 42 -68t84 -29q26 0 67 14
t107 38l13 -12l-5 -83q-49 -20 -97.5 -38t-100 -31.5t-108 -21.5t-120.5 -8z" />
    <glyph glyph-name="uFECC" unicode="&#x639;" horiz-adv-x="516" arabic-form="medial" 
d="M0 0q-13 0 -19 15t-6 38t6 38t19 15h51q39 0 77 2t73 7q-30 48 -58.5 91.5t-54.5 73.5l-38 -3l-9 15l23 69q51 7 90 11.5t69 7t53 3.5t43 1q75 0 108 -27.5t33 -74.5q0 -38 -25.5 -81.5t-83.5 -91.5q13 -2 31 -2.5t45 -0.5h89v-106h-119q-49 0 -82.5 8.5t-65.5 40.5
q-20 -16 -41 -25.5t-43.5 -15t-47.5 -7t-55 -1.5h-62zM276 129q58 39 84 71.5t26 50.5q0 22 -18.5 33t-53.5 11q-20 0 -58.5 -2.5t-83.5 -9.5q9 -13 22 -32t27 -40t28 -42.5t27 -39.5z" />
    <glyph glyph-name="uFECE" unicode="&#x63a;" horiz-adv-x="527" arabic-form="final" 
d="M139 -47q0 -76 43.5 -110t144.5 -34h36.5t39.5 1t46.5 2.5t58.5 4.5l10 -14l-23 -78q-59 -8 -104.5 -9t-74.5 -1q-53 0 -96.5 10t-75.5 34t-49.5 64.5t-17.5 101.5v20q0 17 3 37t15 45t36 54.5t67 65.5q-26 42 -51 79.5t-48 64.5l-38 -3l-9 15l23 69q51 7 90 11.5t69 7
t53 3.5t43 1q75 0 108 -27.5t33 -74.5q0 -38 -27 -84t-90 -95q15 -5 34.5 -6.5t52.5 -1.5h86v-106h-116q-30 0 -53 2.5t-43 11t-38 25t-38 44.5q-38 -29 -64 -58t-36 -58v-14zM287 140q58 39 84 71.5t26 50.5q0 22 -18.5 33t-53.5 11q-20 0 -59 -2.5t-84 -9.5q9 -13 22 -32
t27 -40t28.5 -42.5t27.5 -39.5zM195 514l45 75l88 -55l-48 -73z" />
    <glyph glyph-name="uFECF" unicode="&#x63a;" horiz-adv-x="483" arabic-form="initial" 
d="M0 0q-13 0 -19 15t-6 38t6 38t19 15q28 0 55 0.5t53 1.5q-29 26 -40.5 57.5t-11.5 63.5q0 43 21.5 80t52 64t63.5 42.5t56 15.5q20 0 48 -20.5t60 -48.5l-42 -66q-31 19 -48.5 28t-27.5 9q-12 0 -29.5 -7t-35 -20t-33 -30t-23.5 -37q8 -39 42 -68t84 -29q26 0 67 14
t107 38l13 -12l-5 -83q-49 -20 -97.5 -38t-100 -31.5t-108 -21.5t-120.5 -8zM154 553l45 75l88 -55l-48 -73z" />
    <glyph glyph-name="uFED0" unicode="&#x63a;" horiz-adv-x="516" arabic-form="medial" 
d="M0 0q-13 0 -19 15t-6 38t6 38t19 15h51q39 0 77 2t73 7q-30 48 -58.5 91.5t-54.5 73.5l-38 -3l-9 15l23 69q51 7 90 11.5t69 7t53 3.5t43 1q75 0 108 -27.5t33 -74.5q0 -38 -25.5 -81.5t-83.5 -91.5q13 -2 31 -2.5t45 -0.5h89v-106h-119q-49 0 -82.5 8.5t-65.5 40.5
q-20 -16 -41 -25.5t-43.5 -15t-47.5 -7t-55 -1.5h-62zM276 129q58 39 84 71.5t26 50.5q0 22 -18.5 33t-53.5 11q-20 0 -58.5 -2.5t-83.5 -9.5q9 -13 22 -32t27 -40t28 -42.5t27 -39.5zM183 506l45 75l88 -55l-48 -73z" />
    <glyph glyph-name="uFED2" unicode="&#x641;" horiz-adv-x="780" arabic-form="final" 
d="M681 0q-87 0 -132 36q-4 -5 -10 -9q-11 -8 -32.5 -14t-50.5 -10t-64.5 -6t-73.5 -2q-55 0 -103.5 4t-84.5 18t-57 42t-21 75q0 23 2 52t4 54l6 58l65 -4q-4 -54 -6.5 -90.5t-3.5 -66.5q24 -19 77 -27.5t122 -8.5h35.5t39 1t37.5 2.5t32 3.5q-19 19 -29.5 38.5t-10.5 42.5
q0 18 5 38t18.5 45.5t38 58.5t62.5 78l19 5q50 -27 80 -49t46.5 -42.5t21.5 -40.5t5 -41q0 -28 -14 -63t-46 -69q11 -2 24 -2.5t24 -0.5h74v-106h-99zM486 206q2 -24 26 -51t68 -42q35 26 49.5 52t14.5 44q0 10 -3 21t-12.5 23.5t-27.5 26.5t-49 30q-32 -31 -48 -58t-18 -46
zM494 529l45 75l88 -55l-48 -73z" />
    <glyph glyph-name="uFED3" unicode="&#x641;" horiz-adv-x="416" arabic-form="initial" 
d="M0 0q-13 0 -19 15t-6 38t6 38t19 15h76q85 0 140 7t86 20q0 38 -3 74q-30 -9 -61.5 -13.5t-77.5 -4.5q-55 0 -82 22t-27 60q0 18 6 47t15 60.5t19 63t18 54.5q6 3 10 7q4 3 7 5.5t4 3.5q73 -1 118.5 -29.5t71 -74t35 -102.5t9.5 -114q0 -33 -6.5 -59.5t-17 -47
t-23.5 -34.5t-26 -21q-24 -13 -79 -21.5t-145 -8.5h-67zM185 277q29 0 55.5 3.5t46.5 8.5q-7 28 -18.5 52t-29 41t-42 27.5t-57.5 11.5q-4 -9 -9 -26t-10.5 -36t-9.5 -37l-6 -27q12 -11 31.5 -14.5t48.5 -3.5zM107 636l45 75l88 -55l-48 -73z" />
    <glyph glyph-name="uFED4" unicode="&#x641;" horiz-adv-x="421" arabic-form="medial" 
d="M321 0q-86 0 -132 36q-5 -6 -9 -9q-23 -17 -63.5 -22t-85.5 -5h-31q-13 0 -19 15t-6 38t6 38t19 15q25 0 51.5 0.5t49.5 2.5q-18 18 -28.5 37.5t-10.5 42.5q0 18 5 38t19 45.5t38 58.5t63 78l19 5q50 -27 80 -49t46.5 -42.5t21.5 -40.5t5 -41q0 -28 -14.5 -63t-46.5 -69
q12 -2 25 -2.5t24 -0.5h74v-106h-100zM126 206q2 -24 26.5 -51t68.5 -42q34 26 49 52t15 44q0 10 -3 21t-12.5 23.5t-28 26.5t-49.5 30q-32 -31 -48 -58t-18 -46zM135 529l45 75l88 -55l-48 -73z" />
    <glyph glyph-name="uFED6" unicode="&#x642;" horiz-adv-x="625" arabic-form="final" 
d="M336 337q58 -2 98.5 -20t67 -49t41 -72.5t20.5 -89.5h62v-106h-56q-1 -51 -7.5 -85t-14.5 -48q-5 -9 -25.5 -26t-56 -34t-85 -29.5t-111.5 -12.5q-65 0 -107 13.5t-66.5 36.5t-34 52.5t-9.5 62.5q0 23 2.5 61t6.5 75q4 43 10 91l65 -3q-3 -48 -6 -92q-2 -38 -5 -77
t-4 -62q19 -23 54.5 -37.5t93.5 -14.5q66 0 130 17.5t106 45.5v40t-2 38q-31 -8 -64.5 -13t-68.5 -5q-53 0 -85.5 21.5t-32.5 67.5q0 18 6.5 49t16.5 65.5t20.5 67.5t19.5 56zM391 94q27 0 53.5 2t47.5 5q-13 63 -46 101.5t-99 41.5q-3 -9 -8.5 -27t-11 -38t-10.5 -38.5
t-6 -28.5q10 -11 30.5 -14.5t49.5 -3.5zM306 532l88 -55l-48 -73l-86 53zM392 459l48 73l85 -53l-45 -75z" />
    <glyph glyph-name="uFED7" unicode="&#x642;" horiz-adv-x="416" arabic-form="initial" 
d="M0 0q-13 0 -19 15t-6 38t6 38t19 15h76q85 0 140 7t86 20q0 38 -3 74q-30 -9 -61.5 -13.5t-77.5 -4.5q-55 0 -82 22t-27 60q0 18 6 47t15 60.5t19 63t18 54.5q6 3 10 7q4 3 7 5.5t4 3.5q73 -1 118.5 -29.5t71 -74t35 -102.5t9.5 -114q0 -33 -6.5 -59.5t-17 -47
t-23.5 -34.5t-26 -21q-24 -13 -79 -21.5t-145 -8.5h-67zM185 277q29 0 55.5 3.5t46.5 8.5q-7 28 -18.5 52t-29 41t-42 27.5t-57.5 11.5q-4 -9 -9 -26t-10.5 -36t-9.5 -37l-6 -27q12 -11 31.5 -14.5t48.5 -3.5zM88 711l88 -55l-48 -73l-86 53zM174 638l48 73l85 -53l-45 -75z
" />
    <glyph glyph-name="uFED8" unicode="&#x642;" horiz-adv-x="421" arabic-form="medial" 
d="M321 0q-86 0 -132 36q-5 -6 -9 -9q-23 -17 -63.5 -22t-85.5 -5h-31q-13 0 -19 15t-6 38t6 38t19 15q25 0 51.5 0.5t49.5 2.5q-18 18 -28.5 37.5t-10.5 42.5q0 18 5 38t19 45.5t38 58.5t63 78l19 5q50 -27 80 -49t46.5 -42.5t21.5 -40.5t5 -41q0 -28 -14.5 -63t-46.5 -69
q12 -2 25 -2.5t24 -0.5h74v-106h-100zM126 206q2 -24 26.5 -51t68.5 -42q34 26 49 52t15 44q0 10 -3 21t-12.5 23.5t-28 26.5t-49.5 30q-32 -31 -48 -58t-18 -46zM116 604l88 -55l-48 -73l-86 53zM202 531l48 73l85 -53l-45 -75z" />
    <glyph glyph-name="uFEDA" unicode="&#x643;" horiz-adv-x="734" arabic-form="final" 
d="M734 0q-51 0 -77.5 15t-40.5 41q-6 -10 -13.5 -18t-16.5 -13q-23 -12 -89.5 -21t-170.5 -9q-58 0 -108 4t-87 18t-58 42t-21 75q0 23 2 52t4 54l6 58l65 -4q-4 -54 -6.5 -90.5t-3.5 -66.5q24 -19 78 -27.5t129 -8.5q88 0 154 5t104 19l-7 291q-1 35 -3 61t-5.5 47.5
t-9.5 42.5t-15 45l70 62q13 -30 21 -57t12 -54t5 -55.5t1 -61.5v-307q9 -17 32 -25t49 -8v-106zM446 448l-117 -33q30 -13 49.5 -25.5t30 -24t14.5 -22.5t4 -21q0 -17 -7 -31.5t-24.5 -27t-46.5 -23.5t-73 -20l-36 45l7 11q37 5 74 15t58 23q-9 11 -32 26.5t-66 33.5l-6 10
q3 22 6.5 37t9 25t13.5 15.5t20 9.5l130 42z" />
    <glyph glyph-name="uFEDE" unicode="&#x644;" horiz-adv-x="598" arabic-form="final" 
d="M598 0q-29 0 -49 7t-33 20q-1 -49 -6 -77.5t-13 -41.5q-6 -10 -25 -25.5t-50 -30.5t-73.5 -26t-96.5 -11q-58 0 -96.5 13.5t-61.5 36.5t-32.5 52.5t-9.5 62.5q0 23 2.5 61t6.5 75q4 43 10 91l65 -3q-3 -49 -6 -93q-2 -38 -5 -77t-4 -62q14 -20 48 -35.5t83 -15.5
q51 0 102 12.5t96 40.5l-10 442q-1 35 -2.5 61t-5 47.5t-9.5 42.5t-15 45l69 62q14 -30 22 -57t11.5 -54t4.5 -55.5t1 -61.5v-307q10 -17 33 -25t49 -8v-106v0z" />
    <glyph glyph-name="uFEDF" unicode="&#x644;" horiz-adv-x="235" arabic-form="initial" 
d="M0 0q-13 0 -19 15t-6 38t6 38t19 15q28 0 57 3t48 13l-8 294q-1 35 -2.5 61t-5 47.5t-9.5 42.5t-15 45l69 62q14 -30 22 -57t11.5 -54t4.5 -55.5t1 -61.5v-291q0 -20 -5.5 -41.5t-15 -41t-23 -35t-28.5 -22.5q-23 -9 -48 -12t-53 -3z" />
    <glyph glyph-name="uFEE0" unicode="&#x644;" horiz-adv-x="255" arabic-form="medial" 
d="M255 0q-49 0 -75.5 14.5t-40.5 38.5q-17 -28 -38 -38q-23 -9 -48 -12t-53 -3q-13 0 -19 15t-6 38t6 38t19 15q28 0 57 3t48 13l-8 294q-1 35 -2.5 61t-5 47.5t-9.5 42.5t-15 45l69 62q14 -30 22 -57t11.5 -54t4.5 -55.5t1 -61.5v-307q10 -17 33 -25t49 -8v-106v0z" />
    <glyph glyph-name="uFEE2" unicode="&#x645;" horiz-adv-x="551" arabic-form="final" 
d="M551 0q-38 0 -70.5 10t-52.5 41q-10 -23 -27 -37t-31 -14q-27 0 -60.5 9t-65.5 22t-59.5 27.5t-42.5 24.5q-5 -5 -8 -11t-4.5 -15.5t-1.5 -24.5v-37v-39t1 -50t1.5 -56.5t2.5 -56.5l-64 -29l-13 7q-2 46 -2.5 90t-1 81.5t-0.5 68v49.5q0 41 20.5 74t70.5 41l49 77
q17 27 35 46t41 32t53 19.5t71 9.5l21 -14q7 -27 13 -58t11 -60t9.5 -53.5t8.5 -39.5q14 -16 37.5 -22t58.5 -6v-106zM354 262q-28 -3 -47 -6.5t-34.5 -14t-32 -31t-40.5 -57.5q44 -26 93 -39.5t88 -16.5q-1 30 -8.5 76.5t-18.5 88.5z" />
    <glyph glyph-name="uFEE3" unicode="&#x645;" horiz-adv-x="488" arabic-form="initial" 
d="M355 0q-23 0 -53.5 7.5t-61.5 19t-58.5 25.5t-45.5 26q-35 -45 -65.5 -61.5t-70.5 -16.5q-13 0 -19 15t-6 38t6 38t19 15q32 0 53.5 6t39.5 22t37 44.5t47 73.5q17 27 35 46t41 32t53 19.5t71 9.5l21 -14q19 -74 28.5 -132t9.5 -90q0 -24 -7.5 -46.5t-19.5 -39.5
t-26.5 -27t-27.5 -10zM340 262q-30 -3 -49 -7t-35 -14.5t-31.5 -31t-37.5 -56.5q18 -11 40.5 -21t46.5 -17.5t48 -12t44 -5.5q-1 30 -8 76.5t-18 88.5z" />
    <glyph glyph-name="uFEE4" unicode="&#x645;" horiz-adv-x="536" arabic-form="medial" 
d="M536 0q-37 0 -70 10t-53 41q-10 -23 -26.5 -37t-31.5 -14q-23 0 -53.5 7.5t-61.5 19t-58.5 25.5t-45.5 26q-35 -45 -65.5 -61.5t-70.5 -16.5q-13 0 -19 15t-6 38t6 38t19 15q32 0 53.5 6t39.5 22t37 44.5t47 73.5q17 27 35 46t41 32t53 19.5t71 9.5l21 -14q7 -27 13 -58
t11.5 -60t10 -53.5t8.5 -39.5q13 -16 36.5 -22t58.5 -6v-106zM340 262q-30 -3 -49 -7t-35 -14.5t-31.5 -31t-37.5 -56.5q18 -11 40.5 -21t46.5 -17.5t48 -12t44 -5.5q-1 30 -8 76.5t-18 88.5z" />
    <glyph glyph-name="uFEE6" unicode="&#x646;" horiz-adv-x="635" arabic-form="final" 
d="M635 0q-24 0 -43 2.5t-33 10.5q1 -7 1 -14v-15q0 -42 -7 -72.5t-15 -44.5q-5 -9 -25.5 -26t-55.5 -34t-83.5 -29.5t-108.5 -12.5q-63 0 -104 13.5t-65.5 36.5t-34 52.5t-9.5 62.5q0 23 2.5 61t6.5 75q4 43 10 91l65 -3q-3 -48 -6 -92q-2 -38 -5 -77t-4 -62
q19 -23 54.5 -37.5t89.5 -14.5q31 0 63.5 4.5t63 13t56.5 19.5t44 24q-5 77 -21 155.5t-33 138.5l68 43l16 -4q12 -49 20 -86.5t16 -54.5q11 -11 30 -14.5t47 -3.5v-106zM208 283l45 75l88 -55l-48 -73z" />
    <glyph glyph-name="uFEE7" unicode="&#x646;" horiz-adv-x="296" arabic-form="initial" 
d="M0 0q-13 0 -19 15t-6 38t6 38t19 15q59 0 104 3.5t71 15.5q-2 16 -7 39.5t-12 49t-15.5 50.5t-17.5 45l67 48l16 -6q7 -18 14 -41t12.5 -47.5t8.5 -49.5t3 -46q0 -26 -6 -49t-15.5 -42.5t-21.5 -33.5t-24 -20q-20 -11 -66 -16.5t-111 -5.5zM70 481l45 75l88 -55l-48 -73z
" />
    <glyph glyph-name="uFEE8" unicode="&#x646;" horiz-adv-x="318" arabic-form="medial" 
d="M318 0q-18 0 -36 2t-35.5 10t-32 23t-24.5 42q-12 -26 -21 -37.5t-20 -17.5q-40 -22 -149 -22q-13 0 -19 15t-6 38t6 38t19 15q51 0 87 3.5t57 11.5l28 148h69q-1 -27 -1.5 -43.5t-0.5 -27v-15.5v-9q0 -37 23.5 -52.5t55.5 -15.5v-106zM98 399l45 75l88 -55l-48 -73z" />
    <glyph glyph-name="uFEEA" unicode="&#x647;" horiz-adv-x="445" arabic-form="final" 
d="M174 25q-36 0 -59.5 7.5t-37.5 23.5t-19.5 40t-5.5 56q0 28 4 53t11 44q8 10 26 24t41.5 30.5t51 33.5t54.5 34l-12 72l60 30l15 -8l49 -331q9 -13 33 -20.5t60 -7.5v-106q-27 0 -51 3t-43.5 12t-34.5 25.5t-24 43.5q-13 -34 -14 -35q-3 -6 -13.5 -10.5t-25 -7.5
t-32 -4.5t-33.5 -1.5zM175 124q21 0 48.5 1.5t56.5 7.5l-27 163q-22 -12 -45.5 -26.5t-44 -28t-35.5 -25.5t-20 -19q-1 -20 0.5 -34t8.5 -22.5t20.5 -12.5t37.5 -4z" />
    <glyph glyph-name="uFEEB" unicode="&#x647;" horiz-adv-x="549" arabic-form="initial" 
d="M0 0q-13 0 -19 15t-6 38t6 38t19 15h32q24 0 42 1.5t32 3.5q-21 14 -30.5 35.5t-9.5 44.5q0 44 23.5 80t56.5 57l-47 19l-7 16l24 72l188 -76q102 -40 148.5 -86.5t46.5 -111.5q0 -41 -15 -82t-41 -85l-244 47q-31 -19 -73 -30t-87 -11h-39zM212 298q-18 -3 -33.5 -13.5
t-27.5 -24t-19.5 -28.5t-8.5 -27q2 -26 20 -49t55 -34q33 12 53 33.5t25 41.5q0 9 -2.5 23.5t-10 29.5t-20 28t-31.5 20zM435 136q0 42 -29 70.5t-84 52.5q8 -26 8 -52q0 -23 -11.5 -49t-36.5 -49l142 -26q5 14 8 28t3 25z" />
    <glyph glyph-name="uFEEC" unicode="&#x647;" horiz-adv-x="405" arabic-form="medial" 
d="M332 0q10 -12 12.5 -28t2.5 -33q0 -18 -4.5 -36.5t-10 -34t-11 -25.5t-8.5 -12q-26 -21 -60.5 -28.5t-63.5 -7.5q-77 0 -106 49t-27 156h-56q-13 0 -19 15t-6 38t6 38t19 15h67l52 278l13 10q70 -21 108.5 -45.5t57 -54.5t22 -66.5t3.5 -81.5q0 -24 -6 -40h88v-106h-73z
M126 101q40 0 77 2t62 13q0 37 -1.5 63.5t-11.5 45.5t-32 33t-61 26zM201 -112q18 0 40.5 3t46.5 13q1 24 -0.5 44t-9.5 34t-23.5 21.5t-41.5 7.5h-97q-3 -39 1.5 -63.5t15.5 -37.5t28 -17.5t40 -4.5z" />
    <glyph glyph-name="uFEEE" unicode="&#x648;" horiz-adv-x="435" arabic-form="final" 
d="M175 -6q-53 0 -85.5 21.5t-32.5 67.5q0 18 6.5 49.5t16.5 66.5t20.5 68.5t19.5 56.5l21 15q58 -3 98.5 -23t67.5 -51.5t41.5 -72.5t19.5 -86h67v-106h-66q-8 -54 -31.5 -97t-53 -72.5t-59.5 -45t-50 -15.5q-8 0 -36 4t-89 17v39q42 8 82 23.5t74 38t60.5 50.5t42.5 60
q0 2 -0.5 3.5t-0.5 3.5q-31 -7 -64.5 -11t-68.5 -4zM196 94q26 0 53 2t49 5q-7 30 -18 55.5t-28.5 44.5t-41.5 31t-57 15q-3 -9 -9 -27.5t-11.5 -39t-10.5 -39.5t-6 -29q10 -11 30.5 -14.5t49.5 -3.5z" />
    <glyph glyph-name="uFEF0" unicode="&#x649;" horiz-adv-x="594" arabic-form="final" 
d="M556 0q2 -5 2 -11v-14q0 -16 -2 -32.5t-5 -31.5t-6.5 -26.5t-6.5 -16.5q-6 -9 -27.5 -26t-56.5 -34.5t-83 -30t-107 -12.5q-63 0 -104 13.5t-65 36.5t-33.5 52.5t-9.5 62.5q0 23 2.5 61t6.5 75q4 43 10 91l65 -3q-3 -48 -6 -92q-2 -38 -5 -77t-4 -62q19 -23 52 -37.5
t91 -14.5q30 0 61.5 4t61 11.5t55.5 18t45 22.5q2 15 3 33.5t0 31.5q-11 4 -28 7t-43 4.5t-62 2.5t-85 3l-5 11q5 19 11 36.5t10 25.5q4 7 8.5 11.5t12.5 7.5t21.5 4t35.5 1h228v-106h-38z" />
    <glyph glyph-name="uFEF2" unicode="&#x64a;" horiz-adv-x="594" arabic-form="final" 
d="M556 0q2 -5 2 -11v-14q0 -16 -2 -32.5t-5 -31.5t-6.5 -26.5t-6.5 -16.5q-6 -9 -27.5 -26t-56.5 -34.5t-83 -30t-107 -12.5q-63 0 -104 13.5t-65 36.5t-33.5 52.5t-9.5 62.5q0 23 2.5 61t6.5 75q4 43 10 91l65 -3q-3 -48 -6 -92q-2 -38 -5 -77t-4 -62q19 -23 52 -37.5
t91 -14.5q30 0 61.5 4t61 11.5t55.5 18t45 22.5q2 15 3 33.5t0 31.5q-11 4 -28 7t-43 4.5t-62 2.5t-85 3l-5 11q5 19 11 36.5t10 25.5q4 7 8.5 11.5t12.5 7.5t21.5 4t35.5 1h228v-106h-38zM214 -300l88 -55l-48 -73l-86 53zM433 -353l-45 -75l-88 55l48 73z" />
    <glyph glyph-name=".notdef" horiz-adv-x="605" 
d="M173 103h259v509h-259v-509zM80 715h445v-715h-445v715z" />
    <glyph glyph-name=".null" 
 />
    <glyph glyph-name="nonmarkingreturn" horiz-adv-x="333" 
 />
    <glyph glyph-name="space" unicode=" " horiz-adv-x="147" 
 />
    <glyph glyph-name="exclam" unicode="!" horiz-adv-x="226" 
d="M116 0q-26 0 -42.5 17t-16.5 42q0 26 16.5 43.5t42.5 17.5t43 -17.5t17 -43.5q0 -25 -17 -42t-43 -17zM146 664v-459l-59 -19l-32 447l79 41z" />
    <glyph glyph-name="quotedbl" unicode="&#x22;" horiz-adv-x="298" 
d="M123 598v-266l-45 -26l-9 3l-17 265l59 32zM246 598v-266l-45 -26l-9 3l-17 265l59 32z" />
    <glyph glyph-name="numbersign" unicode="#" horiz-adv-x="701" 
d="M289 436h169l28 170l59 -10l9 -19l-28 -141h123l-8 -74h-129l-31 -157h150l-7 -74h-157l-34 -176h-14l-36 31l24 145h-178l-34 -176h-14l-36 31l24 145h-117l7 74h122l26 157h-137l7 74h143l28 170l59 -10l10 -19zM244 205h175l26 157h-170z" />
    <glyph glyph-name="dollar" unicode="$" horiz-adv-x="435" 
d="M224 -126h-54l-8 9l7 111q-62 5 -119 30l12 82l10 6q29 -26 64.5 -40t70.5 -14q14 0 28.5 4.5t26 13t18.5 20.5t7 27q0 23 -19 39t-57 33q-37 16 -64.5 30t-45.5 29.5t-27.5 36t-10.5 49.5q0 54 38 92t104 46l10 133h53l9 -9l-9 -123q23 -2 46.5 -7.5t46.5 -14.5l-14 -77
l-14 -3q-26 17 -54.5 27t-51.5 10q-31 0 -54.5 -17t-23.5 -45q0 -23 19.5 -38t59.5 -33q26 -11 52 -22.5t47 -27.5t34 -38t13 -55q0 -52 -37 -92t-104 -49z" />
    <glyph glyph-name="percent" unicode="%" horiz-adv-x="811" 
d="M635 608l-448 -695l-41 24l-5 12l449 698l39 -24zM329 450q0 -85 -38 -130t-110 -45q-66 0 -102 42.5t-36 123.5q0 84 38 128.5t110 44.5q67 0 102.5 -42t35.5 -122zM104 446q0 -111 83 -111q81 0 81 107q0 109 -83 109q-81 0 -81 -105zM767 170q0 -85 -38 -130t-110 -45
q-66 0 -102 43t-36 122q0 85 38.5 129.5t110.5 44.5q66 0 101.5 -42.5t35.5 -121.5zM542 165q0 -110 83 -110q81 0 81 106q0 110 -83 110q-81 0 -81 -106z" />
    <glyph glyph-name="ampersand" unicode="&#x26;" horiz-adv-x="682" 
d="M636 0q-11 -13 -24.5 -23.5t-27.5 -18.5h-7l-112 101q-66 -66 -185 -66q-50 0 -91 12t-70 33.5t-44.5 53t-15.5 70.5q0 103 108 159v6q-64 64 -64 138q0 70 48.5 110.5t138.5 40.5q42 0 79.5 -8t73.5 -23l-23 -71h-13q-56 34 -119 34q-102 0 -102 -89q0 -29 12.5 -51.5
t45.5 -49.5l213 -192q13 33 13 71q0 52 -22 99h-64l-4 6l6 62h274l5 -7l-6 -61h-140l-2 -8q9 -26 13 -51t4 -50q0 -59 -23 -108l125 -112v-7zM210 288q-70 -40 -70 -112q0 -54 40 -85t107 -31q83 0 126 46z" />
    <glyph glyph-name="quotesingle" unicode="'" horiz-adv-x="175" 
d="M123 598v-266l-45 -26l-9 3l-17 265l59 32z" />
    <glyph glyph-name="parenleft" unicode="(" horiz-adv-x="293" 
d="M137 228q0 -44 4.5 -81.5t16 -74.5t31.5 -77t52 -88l-41 -42h-14q-43 55 -69.5 103.5t-40.5 92.5t-19 85t-5 82t5 82t19 85.5t40.5 93t69.5 103.5h14l41 -43q-32 -48 -52 -87.5t-31.5 -76.5t-16 -74.5t-4.5 -82.5z" />
    <glyph glyph-name="parenright" unicode=")" horiz-adv-x="293" 
d="M156 228q0 45 -4.5 82.5t-16 74.5t-31.5 76.5t-52 87.5l41 43h14q43 -55 69.5 -103.5t40.5 -93t19 -85.5t5 -82t-5 -82t-19 -85t-40.5 -92.5t-69.5 -103.5h-14l-41 42q32 48 52 88t31.5 77t16 74.5t4.5 81.5z" />
    <glyph glyph-name="asterisk" unicode="*" horiz-adv-x="376" 
d="M203 577l-33 -3l-5 6l-1 107q27 11 58 11l4 -7zM145 533l-7 -3l-101 32q0 30 9 59l7 2l97 -58zM341 544l-110 -13l-15 29l4 7l99 35q18 -25 27 -53zM288 424q-6 -11 -16.5 -21.5t-24.5 -21.5l-7 2l-46 107l23 21l9 -1zM174 487l-58 -88q-9 2 -23 8t-31 17v8l83 78l28 -14
z" />
    <glyph glyph-name="plus" unicode="+" horiz-adv-x="488" 
d="M207 0v154h-155v76h155v154h74v-154h155v-76h-155v-154h-74z" />
    <glyph glyph-name="comma" unicode="," horiz-adv-x="229" 
d="M81 -120l-23 36l52 85q-23 2 -40.5 18t-17.5 42t18 44t45 18q26 0 44 -18t18 -47q0 -10 -2.5 -22.5t-10.5 -32t-25 -49.5t-45 -74h-13z" />
    <glyph glyph-name="hyphen" unicode="-" horiz-adv-x="488" 
d="M52 152v83h384v-83h-384z" />
    <glyph glyph-name="period" unicode="." horiz-adv-x="229" 
d="M114 0q-26 0 -44 18t-18 44q0 27 18 45.5t44 18.5q27 0 45 -18.5t18 -45.5q0 -26 -18 -44t-45 -18z" />
    <glyph glyph-name="slash" unicode="/" horiz-adv-x="472" 
d="M104 -45h-14l-38 38l290 613l68 -12l10 -19z" />
    <glyph glyph-name="zero" unicode="0" horiz-adv-x="517" 
d="M462 284q0 -142 -53.5 -216.5t-154.5 -74.5q-97 0 -148.5 71.5t-51.5 207.5q0 140 54 215.5t157 75.5q96 0 146.5 -72t50.5 -207zM129 278q0 -201 130 -201q129 0 129 196q0 200 -131 200q-128 0 -128 -195z" />
    <glyph glyph-name="one" unicode="1" horiz-adv-x="362" 
d="M147 0l4 186v268l-126 -31l-9 5v76l213 60l14 -10l-5 -357l5 -197h-96z" />
    <glyph glyph-name="two" unicode="2" horiz-adv-x="485" 
d="M96 0l-38 -2l-6 4v60l139 171q20 24 39 48t34 47t24.5 45t9.5 42q0 29 -20 48t-55 19q-36 0 -72 -19.5t-67 -56.5h-12l-15 74q44 40 91 61t97 21q32 0 59 -9t46.5 -25t30.5 -39.5t11 -51.5q0 -27 -9.5 -54t-25.5 -55t-38 -57.5t-46 -60.5l-98 -130l2 -4h180l89 6l6 -8
l-12 -78l-111 4h-233z" />
    <glyph glyph-name="three" unicode="3" horiz-adv-x="428" 
d="M350 440q0 -40 -23 -77t-68 -61v-4q54 -14 82.5 -47t28.5 -84q0 -39 -16.5 -70.5t-46 -54.5t-71 -35.5t-91.5 -12.5q-45 0 -97 9l-5 75l6 5q49 -16 99 -16q60 0 95.5 26.5t35.5 71.5q0 40 -28 61.5t-80 23.5h-61l-5 7l2 66l42 1q19 0 37.5 7.5t33.5 20.5t24.5 30.5
t9.5 37.5q0 31 -20 49t-56 18q-50 0 -116 -49h-9l-15 69q73 57 159 57q69 0 111 -33.5t42 -90.5z" />
    <glyph glyph-name="four" unicode="4" horiz-adv-x="489" 
d="M280 -6l-6 7l3 149h-167l-70 -2l-7 8v62l236 339h87l-2 -333h84l7 -10l-6 -66l-84 1l4 -142l-6 -7zM278 224l-1 221h-6l-155 -221h162z" />
    <glyph glyph-name="five" unicode="5" horiz-adv-x="424" 
d="M365 480l-7 -6l-73 7h-132l-4 -132l61 -13q85 -18 122.5 -55t37.5 -97q0 -43 -17 -78.5t-48 -60.5t-73.5 -38.5t-94.5 -13.5q-47 0 -94 10l-7 74l7 7q52 -18 101 -18q63 0 99 29t36 79q0 36 -26 58.5t-86 35.5l-84 15l-7 8l3 255l12 13l54 -2h135l88 4l6 -6z" />
    <glyph glyph-name="six" unicode="6" horiz-adv-x="469" 
d="M422 173q0 -39 -12.5 -72t-37 -57.5t-60 -38t-81.5 -13.5q-89 0 -136.5 55t-47.5 155q0 119 72.5 213.5t205.5 149.5h6l65 -42v-11q-105 -38 -164.5 -88t-81.5 -118l5 -6q52 36 112 36q36 0 65 -12t49 -34t30.5 -51.5t10.5 -65.5zM337 163q0 51 -25 78t-71 27
q-54 0 -107 -41q-1 -5 -1 -10.5v-13.5q0 -75 24.5 -111.5t77.5 -36.5q49 0 75.5 28t26.5 80z" />
    <glyph glyph-name="seven" unicode="7" horiz-adv-x="417" 
d="M337 557l42 1v-70l-167 -375l-48 -123l-77 21l-5 15l205 451h-176l-77 -6l-5 10l6 78l93 -2h209z" />
    <glyph glyph-name="eight" unicode="8" horiz-adv-x="474" 
d="M401 428q0 -46 -25 -77.5t-73 -54.5v-5q26 -11 47 -23.5t36 -29t23 -37t8 -48.5q0 -74 -51.5 -117t-139.5 -43q-82 0 -128.5 39t-46.5 104q0 95 117 139v6q-47 22 -72 53t-25 79q0 69 48.5 109.5t126.5 40.5q73 0 114 -36t41 -99zM150 416q0 -37 24 -57.5t69 -39.5
q39 17 60.5 41t21.5 59t-22.5 56t-62.5 21q-41 0 -65.5 -21.5t-24.5 -58.5zM131 147q0 -41 27.5 -65t75.5 -24q49 0 76.5 25t27.5 63q0 21 -9 36.5t-24 27.5t-35 21.5t-43 19.5q-46 -17 -71 -40t-25 -64z" />
    <glyph glyph-name="nine" unicode="9" horiz-adv-x="468" 
d="M425 356q0 -120 -72.5 -214t-206.5 -149h-6l-63 43v9q105 38 164 88.5t81 117.5l-5 7q-53 -36 -112 -36q-36 0 -65 12t-49 33.5t-30.5 51t-10.5 64.5q0 40 12.5 73.5t37 57.5t60 37.5t81.5 13.5q89 0 136.5 -54.5t47.5 -154.5zM338 355q0 75 -23.5 110.5t-77.5 35.5
q-50 0 -76 -27t-26 -80q0 -51 25 -77.5t71 -26.5q55 0 107 40v25z" />
    <glyph glyph-name="colon" unicode=":" horiz-adv-x="229" 
d="M114 0q-26 0 -44 18t-18 44q0 27 18 45.5t44 18.5q27 0 45 -18.5t18 -45.5q0 -26 -18 -44t-45 -18zM52 257q0 27 18 45.5t44 18.5q27 0 45 -18.5t18 -45.5q0 -26 -18 -44t-45 -18q-26 0 -44 18t-18 44z" />
    <glyph glyph-name="semicolon" unicode=";" horiz-adv-x="234" 
d="M164 303q0 -26 -14 -40.5t-40 -14.5q-51 0 -51 52q0 25 14.5 40t39.5 15q51 0 51 -52zM170 29q0 -70 -99 -142l-32 28v8q53 41 53 87q0 26 -30 50v9q34 21 68 31q40 -30 40 -71z" />
    <glyph glyph-name="less" unicode="&#x3c;" horiz-adv-x="441" 
d="M52 150v80l309 151l12 -7l16 -66l-265 -117l265 -118l-16 -66l-12 -7z" />
    <glyph glyph-name="equal" unicode="=" horiz-adv-x="488" 
d="M52 73v76h384v-76h-384zM52 234v76h384v-76h-384z" />
    <glyph glyph-name="greater" unicode="&#x3e;" horiz-adv-x="477" 
d="M98 0l-12 7l-16 66l265 118l-265 117l16 66l12 7l309 -151v-80z" />
    <glyph glyph-name="question" unicode="?" horiz-adv-x="338" 
d="M335 480q0 -80 -83 -129l-74 -48l-2 -3l5 -87l-67 -9l-8 8l-7 110l5 10l88 49q57 33 57 84q0 44 -44 68t-138 30l-6 9l18 53l10 6q119 -8 182.5 -46.5t63.5 -104.5zM202 50q0 -26 -14 -40.5t-40 -14.5q-50 0 -50 52q0 25 14.5 40t39.5 15q23 0 36.5 -14t13.5 -38z" />
    <glyph glyph-name="at" unicode="@" horiz-adv-x="807" 
d="M462 180h-10q-62 -112 -136 -186h-16q-44 20 -63 55t-19 92q0 51 14.5 99.5t42 89t69 69t95.5 38.5h4l69 -16l53 18l8 -5l-45 -329l-2 -40q88 12 135.5 69t47.5 151q0 55 -18.5 100t-53 77t-83 50t-108.5 18q-77 0 -140 -25t-108 -70.5t-69.5 -108t-24.5 -137.5
q0 -76 26 -136.5t73.5 -102.5t114.5 -64.5t150 -22.5l3 -9l-28 -46q-91 1 -165.5 26.5t-127.5 73.5t-82 116t-29 154q-1 88 29 164.5t84.5 132t130 87t166.5 30.5q73 0 133 -21.5t102.5 -61.5t65.5 -96t23 -125q0 -137 -86.5 -211t-249.5 -79zM484 356l-59 16
q-30 -1 -53.5 -16.5t-40.5 -42.5t-26 -64t-9 -79q0 -45 8.5 -67t20.5 -22q7 0 23 16.5t37.5 46.5t46.5 73.5t49 97.5z" />
    <glyph glyph-name="A" unicode="A" horiz-adv-x="574" 
d="M448 0l-15 68l-28 88l-130 1l-114 -2l-30 -82l-16 -73h-96l216 610h115l197 -610h-99zM294 515h-7l-100 -283l97 -1l99 1z" />
    <glyph glyph-name="B" unicode="B" horiz-adv-x="542" 
d="M96 183l-5 427l188 1q89 0 137.5 -38.5t48.5 -110.5q0 -53 -24 -89t-69 -56q66 -14 96.5 -49.5t30.5 -96.5q0 -175 -259 -175q-40 0 -77 1t-72 3zM187 539l-3 -194l99 -3q83 19 83 108q0 48 -27 68.5t-89 20.5h-63zM402 175q0 85 -106 100l-113 -1l-1 -83l2 -121
q43 -3 70 -3q72 0 110 27.5t38 80.5z" />
    <glyph glyph-name="C" unicode="C" horiz-adv-x="510" 
d="M465 493l-9 -3q-63 46 -139 46q-175 0 -175 -226q0 -117 44 -176.5t131 -59.5q79 0 150 48l10 -5l-7 -83q-77 -42 -160 -42q-131 0 -200 79.5t-69 228.5q0 152 72.5 234t207.5 82q91 0 162 -42z" />
    <glyph glyph-name="D" unicode="D" horiz-adv-x="634" 
d="M96 183l-5 427l230 4q133 0 202.5 -73.5t69.5 -213.5q0 -162 -76.5 -247.5t-221.5 -85.5q-78 0 -204 6zM493 306q0 118 -44 174t-135 56q-27 0 -58.5 -1.5t-67.5 -3.5l-4 -340l2 -115q37 -3 68.5 -5t57.5 -2q89 0 135 60t46 177z" />
    <glyph glyph-name="E" unicode="E" horiz-adv-x="485" 
d="M91 0l5 183l-5 427h360l6 -9l-8 -73l-144 4l-117 -1l-2 -181h110l102 1l6 -7l-7 -73l-212 2l-1 -82l2 -113l113 -1l151 4l6 -8l-7 -73h-358z" />
    <glyph glyph-name="F" unicode="F" horiz-adv-x="437" 
d="M91 0l5 183l-5 427h340l7 -9l-9 -73l-141 4l-100 -1l-2 -196h96l101 2l6 -9l-7 -72l-197 2l-1 -67l3 -191h-96z" />
    <glyph glyph-name="G" unicode="G" horiz-adv-x="586" 
d="M504 488l-11 -1q-45 26 -83 38t-77 12q-97 0 -144.5 -57t-47.5 -182q0 -120 43.5 -174t137.5 -54q47 0 110 18l1 67l-2 90l90 6l-1 -81l1 -141q-112 -35 -206 -37q-137 0 -205.5 78t-68.5 224q0 157 79.5 239.5t228.5 82.5q95 0 175 -41z" />
    <glyph glyph-name="H" unicode="H" horiz-adv-x="657" 
d="M481 0l5 183l-1 84l-157 1l-143 -2l-1 -75l3 -191h-96l5 183l-5 427h98l-3 -262l148 -2l150 2l-3 262h98l-5 -419l4 -191h-97z" />
    <glyph glyph-name="I" unicode="I" horiz-adv-x="281" 
d="M91 0l5 183l-5 427h98l-5 -419l3 -191h-96z" />
    <glyph glyph-name="J" unicode="J" horiz-adv-x="316" 
d="M222 113q0 -38 -8.5 -68t-28.5 -55t-52 -46.5t-78 -42.5l-31 52v9q59 34 84 67.5t25 84.5v78l-4 345l-107 -1l-7 7l5 67h206l-5 -409z" />
    <glyph glyph-name="K" unicode="K" horiz-adv-x="550" 
d="M90 0l6 183l-6 427h98l-4 -419l3 -191h-97zM543 9q-42 -12 -93 -18l-11 6q-73 88 -133.5 166.5t-110.5 150.5v14l189 227l37 55h107l-235 -287q118 -158 252 -303z" />
    <glyph glyph-name="L" unicode="L" horiz-adv-x="418" 
d="M88 0l6 183l-6 427h98l-5 -419l2 -111h218l7 -8l-8 -72h-312z" />
    <glyph glyph-name="M" unicode="M" horiz-adv-x="769" 
d="M621 0l-12 185l-29 277h-6l-158 -394h-77l-146 394h-8l-29 -269l-16 -193h-81l63 610h111l28 -92l118 -324h7l125 328l29 88h110l57 -610h-86z" />
    <glyph glyph-name="N" unicode="N" horiz-adv-x="670" 
d="M473 0l-289 459h-7l-1 -255l4 -204h-89l5 180l-4 430h103l289 -459h7l-2 454l90 7l-6 -430l3 -182h-103z" />
    <glyph glyph-name="O" unicode="O" horiz-adv-x="623" 
d="M583 317q0 -156 -73 -240.5t-207 -84.5q-127 0 -194.5 79.5t-67.5 227.5q0 153 72.5 235.5t206.5 82.5q128 0 195.5 -77t67.5 -223zM140 311q0 -127 41.5 -185.5t128.5 -58.5q88 0 130 56.5t42 175.5q0 125 -41 182t-129 57t-130 -54.5t-42 -172.5z" />
    <glyph glyph-name="P" unicode="P" horiz-adv-x="523" 
d="M91 0l5 183l-5 427l205 1q93 0 142.5 -47t49.5 -135q0 -51 -16.5 -92.5t-47 -70t-74.5 -44t-98 -15.5h-68l3 -207h-96zM388 421q0 113 -118 117l-82 -2l-2 -253l94 -3q53 11 80.5 46.5t27.5 94.5z" />
    <glyph glyph-name="Q" unicode="Q" horiz-adv-x="627" 
d="M653 -186q-182 53 -329 179l-21 -1q-127 0 -194.5 79.5t-67.5 227.5q0 153 72.5 235.5t206.5 82.5q128 0 195.5 -77.5t67.5 -223.5q0 -120 -43.5 -197t-126.5 -106q131 -92 289 -124l3 -10q-10 -20 -21 -35.5t-23 -26.5zM311 67q87 0 129 56.5t42 177.5q0 124 -41 180.5
t-129 56.5t-130 -55t-42 -174q0 -126 41.5 -184t129.5 -58z" />
    <glyph glyph-name="R" unicode="R" horiz-adv-x="557" 
d="M91 0l5 183l-5 427l205 1q93 0 142.5 -45t49.5 -133q0 -62 -31.5 -110t-90.5 -77q74 -116 154 -224v-11q-21 -8 -43.5 -13t-48.5 -7l-12 8q-38 60 -70.5 115t-59.5 106h-102l3 -220h-96zM291 292q97 30 97 134q0 108 -118 112l-82 -2l-2 -241z" />
    <glyph glyph-name="S" unicode="S" horiz-adv-x="475" 
d="M396 503l-16 -6q-66 42 -123 42q-23 0 -42 -7.5t-32.5 -19.5t-21 -27.5t-7.5 -31.5q2 -36 30 -57.5t84 -46.5q26 -13 46.5 -24t36.5 -21q32 -20 54.5 -52t22.5 -79q0 -37 -15.5 -70t-44 -57.5t-67.5 -38.5t-87 -14q-92 0 -170 41l13 89l11 6q35 -30 77.5 -46t77.5 -16
q26 0 46.5 7.5t34.5 20.5t21.5 29t7.5 34q0 19 -9 34t-25 28t-37 24t-45 22q-50 24 -82 44t-53.5 51.5t-21.5 77.5q0 37 15 69.5t42.5 56.5t66 37.5t84.5 13.5q35 0 71 -8t73 -22z" />
    <glyph glyph-name="T" unicode="T" horiz-adv-x="487" 
d="M196 0l5 183l-4 351h-53l-111 -5l-7 9l8 72h421l6 -9l-6 -72l-110 5h-52l-4 -343l3 -191h-96z" />
    <glyph glyph-name="U" unicode="U" horiz-adv-x="615" 
d="M540 219q2 -109 -60 -167.5t-177 -58.5q-112 0 -171 57.5t-57 165.5l-1 394h96l-4 -382q-2 -155 141 -155q144 0 142 151l-3 386h97l-2 -311z" />
    <glyph glyph-name="V" unicode="V" horiz-adv-x="561" 
d="M217 0l-197 610h98l16 -69l140 -447h6l156 442l16 74h96l-217 -610h-114z" />
    <glyph glyph-name="W" unicode="W" horiz-adv-x="869" 
d="M541 0l-107 329h-8l-113 -329h-100l-186 610h95l12 -66l132 -440h7l121 354l-47 152h98l13 -75l134 -431h8l148 436l15 70h91l-212 -610h-101z" />
    <glyph glyph-name="X" unicode="X" horiz-adv-x="583" 
d="M438 0l-28 53l-125 189l-132 -193l-25 -49h-101l202 306l-197 304h117l26 -53l118 -177l118 179l26 51h103l-190 -292l204 -318h-116z" />
    <glyph glyph-name="Y" unicode="Y" horiz-adv-x="529" 
d="M208 0l6 174l-1 39l-195 397h103l13 -37l122 -259h7l135 256l15 40h101l-212 -396l-2 -40l5 -174h-97z" />
    <glyph glyph-name="Z" unicode="Z" horiz-adv-x="525" 
d="M99 0l-62 -3v70l328 467h-225l-90 -6l-4 6l7 77l106 -1h268l52 1v-71l-327 -465h237l93 6l4 -6l-8 -77l-118 2h-261z" />
    <glyph glyph-name="bracketleft" unicode="[" horiz-adv-x="297" 
d="M245 -65l-13 -60h-168l-12 17v696q0 15 5 31.5t19 54.5h161l8 -11l-13 -61h-109v-656h114z" />
    <glyph glyph-name="backslash" unicode="\" horiz-adv-x="472" 
d="M52 575l10 19l68 12l290 -613l-38 -38h-14z" />
    <glyph glyph-name="bracketright" unicode="]" horiz-adv-x="297" 
d="M52 614l13 60h168l12 -17v-696q0 -15 -5 -31.5t-19 -54.5h-161l-8 11l13 61h109v656h-114z" />
    <glyph glyph-name="underscore" unicode="_" horiz-adv-x="488" 
d="M52 0v60h384v-60h-384z" />
    <glyph glyph-name="a" unicode="a" horiz-adv-x="463" 
d="M232 446q68 0 105 -31.5t37 -88.5q0 -2 -1 -30.5t-3 -84.5q-6 -90 -6 -109q0 -36 26 -36q14 0 29 7l9 -6l-10 -53q-24 -17 -61 -20q-58 3 -67 70h-6q-51 -57 -105 -72q-63 1 -99 34t-36 91q0 86 92 104l150 32l1 54q0 71 -70 71q-59 0 -135 -57l-7 5l-12 63q82 57 169 57
zM128 127q0 -30 16.5 -47t45.5 -17q44 0 93 57l3 82l-118 -27q-40 -7 -40 -48z" />
    <glyph glyph-name="b" unicode="b" horiz-adv-x="507" 
d="M463 231q0 -115 -56.5 -177t-156.5 -62q-52 0 -105 19l-52 -19l-13 9l6 181l-5 477l94 8l-2 -292h5q51 53 116 68q81 0 125 -56t44 -156zM374 215q0 74 -26 112.5t-75 38.5q-53 0 -101 -52l-1 -121l2 -117q40 -21 77 -21q60 0 92 41t32 119z" />
    <glyph glyph-name="c" unicode="c" horiz-adv-x="383" 
d="M344 341l-9 -2q-50 29 -94 29q-51 0 -79 -38.5t-28 -107.5q0 -74 29.5 -114.5t83.5 -40.5q49 0 102 29l9 -6l-9 -73q-57 -25 -120 -25q-87 0 -136 58.5t-49 163.5q0 108 52 170t146 62q65 0 119 -28z" />
    <glyph glyph-name="d" unicode="d" horiz-adv-x="510" 
d="M421 102q0 -20 5.5 -28t18.5 -8t30 7l7 -6l-9 -53q-24 -17 -61 -20q-58 3 -70 67h-5q-49 -49 -107 -67q-89 0 -138 58t-49 163q0 111 56.5 170.5t158.5 59.5q34 0 75 -9l-2 223l94 8l-6 -475zM131 230q1 -78 29 -119.5t79 -41.5t94 52l1 62l-1 178q-44 18 -80 18
q-60 0 -91 -37t-31 -112z" />
    <glyph glyph-name="e" unicode="e" horiz-adv-x="453" 
d="M131 215q6 -151 129 -151q65 0 124 37l9 -5l-13 -72q-62 -32 -130 -32q-98 0 -152 59.5t-54 164.5q0 107 55 168t151 61q78 0 120 -44.5t42 -122.5q-1 -14 -1 -25.5t-2 -19.5l-15 -15zM246 381q-45 0 -74 -29t-38 -83l193 6l2 13q0 45 -21.5 69t-61.5 24z" />
    <glyph glyph-name="f" unicode="f" horiz-adv-x="314" 
d="M105 0l5 182l-2 194h-65l-4 6l5 53h64l-1 68q0 81 44.5 123.5t126.5 42.5q36 0 77 -9l-6 -72l-7 -5q-42 17 -73 17q-70 0 -70 -83l-1 -82h111l3 -6l-5 -53h-110l-2 -185l5 -191h-95z" />
    <glyph glyph-name="g" unicode="g" horiz-adv-x="484" 
d="M392 373q21 -32 21 -76q0 -71 -47.5 -112.5t-131.5 -41.5q-32 0 -61 8q-14 -11 -19.5 -18.5t-5.5 -15.5q0 -19 24.5 -26t78.5 -14q29 -5 52 -9t42 -9q37 -9 63.5 -31.5t26.5 -64.5q0 -31 -16 -58t-44 -46.5t-66.5 -31t-82.5 -11.5q-81 0 -126 33.5t-45 88.5q25 48 85 82
v5q-73 22 -73 80q22 32 62 57v5q-66 36 -66 123q0 72 47.5 113t131.5 41q26 0 49 -5t44 -14q38 7 71 15.5t63 19.5l7 -7v-61q-35 -10 -82 -16zM330 295q0 88 -90 88q-46 0 -70.5 -22.5t-24.5 -66.5t23.5 -67.5t67.5 -23.5q46 0 70 23.5t24 68.5zM229 9q-7 1 -14.5 1.5
t-16.5 2.5q-64 -40 -64 -76q0 -29 26 -46.5t75 -17.5q54 0 86.5 21.5t32.5 53.5q-2 31 -32.5 42t-92.5 19z" />
    <glyph glyph-name="h" unicode="h" horiz-adv-x="513" 
d="M349 0l6 284q0 82 -74 82q-50 0 -108 -56l-2 -118l4 -192h-94l5 184l-4 475l94 8l-3 -295h6q61 59 124 71q69 0 105 -33t35 -94l-2 -125l2 -191h-94z" />
    <glyph glyph-name="i" unicode="i" horiz-adv-x="249" 
d="M77 0l4 183l-4 248l94 9l-5 -248l5 -192h-94zM178 590q0 -26 -14 -40.5t-40 -14.5q-51 0 -51 51q0 26 14.5 41t39.5 15q24 0 37.5 -13.5t13.5 -38.5z" />
    <glyph glyph-name="j" unicode="j" horiz-adv-x="270" 
d="M184 590q0 -26 -14.5 -40.5t-40.5 -14.5q-50 0 -50 51q0 26 14.5 41t39.5 15q24 0 37.5 -13.5t13.5 -38.5zM186 192l4 -171q0 -74 -31 -121t-104 -84l-34 41v11q45 26 62.5 60t17.5 89v166l-3 193h-77l-7 7l6 52h80l88 5l3 -2z" />
    <glyph glyph-name="k" unicode="k" horiz-adv-x="464" 
d="M81 0l5 184l-4 475l94 8l-5 -475l4 -192h-94zM450 6q-14 -4 -35.5 -7t-51.5 -8l-11 4q-50 63 -91 121t-76 113v8l126 159l25 42h102l-161 -200q35 -49 78 -104t95 -118v-10z" />
    <glyph glyph-name="l" unicode="l" horiz-adv-x="257" 
d="M81 0l5 184l-4 475l94 8l-5 -475l4 -192h-94z" />
    <glyph glyph-name="m" unicode="m" horiz-adv-x="776" 
d="M611 0l6 284q0 40 -19 61.5t-54 21.5q-53 0 -107 -54l-2 -122l3 -191h-94l5 284q0 40 -18.5 61.5t-53.5 21.5q-53 0 -110 -57v-118l4 -192h-94l4 183l-4 248l90 9v-68h6q61 58 125 71q103 0 130 -74h5q60 59 132 74q69 0 104.5 -33t34.5 -94l-2 -125l3 -191h-94z" />
    <glyph glyph-name="n" unicode="n" horiz-adv-x="510" 
d="M344 0l5 284q1 40 -18 61t-54 21q-54 0 -110 -56v-118l4 -192h-94l4 183l-4 248l91 9v-68h5q61 58 125 71q69 0 105.5 -33t34.5 -94l-2 -125l4 -191h-96z" />
    <glyph glyph-name="o" unicode="o" horiz-adv-x="484" 
d="M439 225q0 -112 -53 -172.5t-150 -60.5q-93 0 -142.5 57t-49.5 162q0 113 52.5 174t150.5 61q93 0 142.5 -57.5t49.5 -163.5zM132 229q0 -90 27 -131t82 -41q109 0 109 150q0 89 -27.5 130.5t-81.5 41.5q-109 0 -109 -150z" />
    <glyph glyph-name="p" unicode="p" horiz-adv-x="501" 
d="M458 231q0 -115 -56 -177t-159 -62q-20 0 -38.5 1.5t-35.5 5.5l1 -175h-94l5 359l-4 248l90 9v-65h6q53 53 116 68q82 0 125.5 -55.5t43.5 -156.5zM369 215q0 75 -26 113t-76 38q-52 0 -100 -52l-1 -122l2 -120q38 -17 76 -17q60 0 92.5 41t32.5 119z" />
    <glyph glyph-name="q" unicode="q" horiz-adv-x="501" 
d="M425 439l-6 -251l5 -364h-94l4 205v24h-6q-43 -43 -101 -59q-87 0 -135.5 58t-48.5 161q0 112 56.5 172t154.5 60q25 0 52 -5t59 -14l51 19zM131 226q1 -76 28.5 -116.5t77.5 -40.5q53 0 96 52l1 56l-1 183q-44 18 -82 18q-58 0 -89 -37.5t-31 -114.5z" />
    <glyph glyph-name="r" unicode="r" horiz-adv-x="332" 
d="M77 0l4 183l-4 248l91 9v-92h6q48 91 119 91q5 0 10.5 -0.5t13.5 -1.5v-88l-10 -3q-13 4 -32 4q-59 0 -108 -88v-70l4 -192h-94z" />
    <glyph glyph-name="s" unicode="s" horiz-adv-x="374" 
d="M307 352l-13 -4q-54 33 -97 33q-30 0 -48 -16t-18 -39q0 -25 20 -39.5t61 -31.5q20 -9 35.5 -16.5t26.5 -14.5q23 -14 40 -37.5t17 -58.5q0 -27 -10.5 -52t-31.5 -43.5t-51.5 -29.5t-70.5 -11q-34 0 -66.5 7.5t-66.5 21.5l12 75l10 7q27 -23 59.5 -35.5t61.5 -12.5
q33 0 52.5 17t19.5 42q0 23 -19.5 37.5t-61.5 33.5q-27 12 -48.5 23t-37 25t-24.5 33.5t-10 47.5q0 57 43 93.5t117 36.5q56 0 112 -21z" />
    <glyph glyph-name="t" unicode="t" horiz-adv-x="327" 
d="M306 81l-9 -57q-24 -14 -47 -21t-45 -9q-116 11 -116 122l2 86l-1 174h-59l-4 6l5 53h58v83l85 27l8 -7l-2 -103h122l5 -6l-6 -53h-122l-5 -239q0 -67 56 -67q33 0 67 19z" />
    <glyph glyph-name="u" unicode="u" horiz-adv-x="508" 
d="M443 66q14 0 29 7l8 -6l-9 -53q-25 -17 -61 -20q-57 3 -69 73h-8q-59 -62 -123 -72q-68 0 -103 33.5t-34 94.5l2 105l-3 203l91 9l-2 -287q0 -39 17 -60t51 -21q53 0 104 52v307l90 9l-5 -337q0 -37 25 -37z" />
    <glyph glyph-name="v" unicode="v" horiz-adv-x="427" 
d="M156 0l-130 435l88 5l13 -63l82 -284h7l98 279l15 66h85l-155 -438h-103z" />
    <glyph glyph-name="w" unicode="w" horiz-adv-x="667" 
d="M422 0l-81 317h-9l-94 -317h-93l-119 435l85 5l12 -61l70 -280h6l82 275l15 64h93l9 -59l71 -280h7l81 275l15 64h81l-141 -438h-90z" />
    <glyph glyph-name="x" unicode="x" horiz-adv-x="440" 
d="M26 0l136 221l-134 213l102 6l19 -46l77 -118l75 120l23 41h86l-133 -215l139 -218l-101 -9l-22 49l-79 124l-83 -129l-20 -39h-85z" />
    <glyph glyph-name="y" unicode="y" horiz-adv-x="429" 
d="M13 435l92 5l14 -61l94 -278h7l95 269l15 68h84l-150 -416q-16 -46 -36 -79t-46 -57t-61 -40t-81 -28l-8 1q-27 25 -43 58l4 9q60 12 105 38t75 76z" />
    <glyph glyph-name="z" unicode="z" horiz-adv-x="413" 
d="M88 0l-51 -2v57l234 320h-153l-70 -6l-6 8l8 63l81 -2h197l42 1l1 -58l-233 -318h161l73 5l4 -7l-6 -63l-95 2h-187z" />
    <glyph glyph-name="braceleft" unicode="{" horiz-adv-x="379" 
d="M134 139q0 21 -2.5 36t-8.5 25.5t-16.5 18t-26.5 13.5l-28 11l9 64l23 10q34 15 41.5 35t8.5 49v162q0 28 4 46.5t9 29.5q5 13 13 21q5 3 17 7q11 2 31 4.5t53 2.5h58l8 -11l-13 -61q-34 0 -55 -1t-33 -2l-21 -3v-205q0 -23 -3.5 -39t-12.5 -28.5t-24 -23.5t-37 -24
q23 -11 38 -21t23.5 -22.5t12 -30t3.5 -41.5v-208q7 -2 22 -4q13 -2 35 -2.5t57 -0.5l8 -11l-13 -60h-50q-32 0 -52 1.5t-32 3.5q-14 2 -21 5q-8 6 -13 20q-5 12 -8.5 32.5t-3.5 55.5v146z" />
    <glyph glyph-name="bar" unicode="|" horiz-adv-x="182" 
d="M66 -118l-14 7v772l69 13l-6 -11v-758z" />
    <glyph glyph-name="braceright" unicode="}" horiz-adv-x="415" 
d="M263 410q0 -21 2 -36t8 -25.5t16.5 -18t27.5 -13.5l28 -11l-9 -64l-23 -10q-17 -8 -27 -16.5t-15 -18.5t-6.5 -22t-1.5 -27v-162q0 -28 -4 -46.5t-9 -29.5q-6 -13 -13 -21q-6 -4 -18 -7q-11 -3 -30.5 -5t-52.5 -2h-58l-8 11l13 61q64 0 88 3q14 1 21 3v205q0 22 3.5 38
t12.5 29t24 24t37 24q-23 10 -38 20.5t-23.5 23t-12 30t-3.5 41.5v208q-7 1 -22 3q-13 2 -35 3t-57 1l-8 11l13 60h50q32 0 52 -1.5t32 -3.5q14 -3 21 -5q7 -6 12 -20q5 -12 9 -33t4 -55v-146z" />
    <glyph glyph-name="u00A0" unicode="&#xa0;" horiz-adv-x="150" 
 />
    <glyph glyph-name="brokenbar" unicode="&#xa6;" horiz-adv-x="182" 
d="M52 331v330l69 13v-333zM115 248v-343l-49 -23l-14 7v350z" />
    <glyph glyph-name="guillemotleft" unicode="&#xab;" horiz-adv-x="445" 
d="M128 245q0 -39 4.5 -71.5t15 -63.5t29 -64t45.5 -73l-36 -38h-14q-37 48 -60 89t-36.5 78t-18.5 72t-5 71t5 70.5t18.5 71.5t36.5 78.5t60 89.5h14l36 -38q-27 -40 -45.5 -73t-29 -64t-15 -63.5t-4.5 -71.5zM299 245q0 -39 4.5 -71.5t15 -63.5t29 -64t45.5 -73l-36 -38
h-14q-37 48 -60 89t-36.5 78t-18.5 72t-5 71t5 70.5t18.5 71.5t36.5 78.5t60 89.5h14l36 -38q-27 -40 -45.5 -73t-29 -64t-15 -63.5t-4.5 -71.5z" />
    <glyph glyph-name="logicalnot" unicode="&#xac;" horiz-adv-x="488" 
d="M363 231h-311v76h384v-232h-73v156z" />
    <glyph glyph-name="u00AD" unicode="&#xad;" horiz-adv-x="488" 
d="M52 152v83h384v-83h-384z" />
    <glyph glyph-name="degree" unicode="&#xb0;" horiz-adv-x="364" 
d="M52 474q0 28 10 52t27.5 42t41.5 28t51 10t51 -10t41.5 -28t27.5 -42t10 -52q0 -27 -10 -51t-27.5 -42t-41.5 -28.5t-51 -10.5t-51 10.5t-41.5 28.5t-27.5 42t-10 51zM107 474q0 -32 21.5 -53.5t53.5 -21.5t53.5 21.5t21.5 53.5t-21.5 53.5t-53.5 21.5t-53.5 -21.5
t-21.5 -53.5z" />
    <glyph glyph-name="plusminus" unicode="&#xb1;" horiz-adv-x="488" 
d="M207 267h-155v76h155v154h74v-154h155v-76h-155v-154h-74v154zM52 -10v76h384v-76h-384z" />
    <glyph glyph-name="paragraph" unicode="&#xb6;" horiz-adv-x="430" 
d="M325 0v570h-85v-570h-55v320q-39 0 -65 9t-41.5 27t-22 45t-6.5 64q0 39 8.5 71t31.5 55t65 36t110 13q40 0 68 -2.5t47 -7.5v-630h-55z" />
    <glyph glyph-name="periodcentered" unicode="&#xb7;" horiz-adv-x="208" 
d="M104 301q23 0 38.5 -16t15.5 -38q0 -23 -16 -39t-38 -16t-38 16t-16 39q0 22 16 38t38 16z" />
    <glyph glyph-name="guillemotright" unicode="&#xbb;" horiz-adv-x="445" 
d="M146 245q0 39 -4.5 71.5t-15 63.5t-29 64t-45.5 73l36 38h14q37 -48 60 -89.5t36.5 -78.5t18.5 -71.5t5 -70.5t-5 -71t-18.5 -72t-36.5 -78t-60 -89h-14l-36 38q27 40 45.5 73t29 64t15 63.5t4.5 71.5zM317 245q0 39 -4.5 71.5t-15 63.5t-29 64t-45.5 73l36 38h14
q37 -48 60 -89.5t36.5 -78.5t18.5 -71.5t5 -70.5t-5 -71t-18.5 -72t-36.5 -78t-60 -89h-14l-36 38q27 40 45.5 73t29 64t15 63.5t4.5 71.5z" />
    <glyph glyph-name="multiply" unicode="&#xd7;" horiz-adv-x="443" 
d="M169 192l-117 118l52 52l117 -118l118 118l52 -52l-118 -118l118 -117l-52 -52l-118 117l-117 -117l-52 52z" />
    <glyph glyph-name="divide" unicode="&#xf7;" horiz-adv-x="488" 
d="M192 354q0 25 16.5 42t40.5 17q25 0 41 -17t16 -42q0 -23 -16 -39.5t-41 -16.5q-24 0 -40.5 16.5t-16.5 39.5zM192 38q0 25 16.5 42t40.5 17q25 0 41 -17t16 -42q0 -23 -16 -39.5t-41 -16.5q-24 0 -40.5 16.5t-16.5 39.5zM52 141v78h384v-78h-384z" />
    <glyph glyph-name="u0609" unicode="&#x609;" horiz-adv-x="645" 
d="M530 0q-26 0 -44 18t-18 44q0 27 18 45.5t44 18.5q27 0 45 -18.5t18 -45.5q0 -26 -18 -44t-45 -18zM109 -45h-14l-38 38l290 613l68 -12l10 -19zM57 512q0 27 18 45.5t44 18.5q27 0 45 -18.5t18 -45.5q0 -26 -18 -44t-45 -18q-26 0 -44 18t-18 44zM289 62q0 27 18 45.5
t44 18.5q27 0 45 -18.5t18 -45.5q0 -26 -18 -44t-45 -18q-26 0 -44 18t-18 44z" />
    <glyph glyph-name="u060A" unicode="&#x60a;" horiz-adv-x="824" 
d="M709 0q-26 0 -44 18t-18 44q0 27 18 45.5t44 18.5q27 0 45 -18.5t18 -45.5q0 -26 -18 -44t-45 -18zM109 -45h-14l-38 38l290 613l68 -12l10 -19zM57 512q0 27 18 45.5t44 18.5q27 0 45 -18.5t18 -45.5q0 -26 -18 -44t-45 -18q-26 0 -44 18t-18 44zM289 62q0 27 18 45.5
t44 18.5q27 0 45 -18.5t18 -45.5q0 -26 -18 -44t-45 -18q-26 0 -44 18t-18 44zM468 62q0 27 18 45.5t44 18.5q27 0 45 -18.5t18 -45.5q0 -26 -18 -44t-45 -18q-26 0 -44 18t-18 44z" />
    <glyph glyph-name="u060C" unicode="&#x60c;" horiz-adv-x="229" 
d="M114 0q-26 0 -44 18t-18 47q0 10 2.5 22.5t10.5 32t24.5 49.5t45.5 74h13l23 -36l-52 -85q23 -2 40.5 -18t17.5 -42t-18 -44t-45 -18z" />
    <glyph glyph-name="u060D" unicode="&#x60d;" horiz-adv-x="348" 
d="M285 245l11 -20l-194 -359h-14l-36 40l169 349z" />
    <glyph glyph-name="u061B" unicode="&#x61b;" horiz-adv-x="229" 
d="M114 0q-26 0 -44 18t-18 44q0 27 18 45.5t44 18.5q27 0 45 -18.5t18 -45.5q0 -26 -18 -44t-45 -18zM148 438l23 -36l-52 -85q23 -2 40.5 -18t17.5 -42t-18 -44t-45 -18q-26 0 -44 18t-18 47q0 10 2.5 22.5t10.5 32t24.5 49.5t45.5 74h13z" />
    <glyph glyph-name="u061F" unicode="&#x61f;" horiz-adv-x="407" 
d="M257 0q-26 0 -42.5 17t-16.5 42q0 26 16.5 43.5t42.5 17.5t43 -17.5t17 -43.5q0 -25 -17 -42t-43 -17zM320 541q-32 19 -56.5 31.5t-32.5 12.5q-14 0 -34 -11.5t-38 -28.5t-31.5 -36.5t-15.5 -36.5q5 -20 32.5 -40t85.5 -49q22 -11 36 -20.5t21 -18.5t9.5 -18.5
t2.5 -20.5l-8 -100l-64 -19v96q-43 22 -75.5 41t-54.5 37.5t-33.5 40t-11.5 50.5q0 50 22 91t52.5 70.5t63.5 45.5t55 16q17 0 44.5 -17t61.5 -40l4 -16z" />
    <glyph glyph-name="u0640" unicode="&#x640;" horiz-adv-x="141" 
d="M0 0q-13 0 -19 15t-6 38t6 38t19 15h141v-106h-141z" />
    <glyph glyph-name="u064B" unicode="&#x64b;" 
d="M112 130l7 -48l-231 -92l-7 48zM112 242l7 -48l-231 -92l-7 48z" />
    <glyph glyph-name="u064C" unicode="&#x64c;" 
d="M-67 125q0 -25 -15 -74l110 54q-25 14 -45.5 37t-20.5 47q0 9 2.5 17.5t14 22t34 35t63.5 55.5q38 -25 57.5 -56t19.5 -63q0 -16 -4.5 -34t-17 -36t-34 -35.5t-54.5 -33.5l-137 -67l-32 25q4 13 8 27t7 27t5 23t2 15q0 10 -12.5 27t-44.5 44l24 48q45 -34 57.5 -59.5
t12.5 -45.5zM2 205q5 -17 24.5 -36.5t48.5 -36.5q33 27 33 58q0 40 -43 71z" />
    <glyph glyph-name="u064D" unicode="&#x64d;" 
d="M112 -102l7 -48l-231 -92l-7 48zM112 10l7 -48l-231 -92l-7 48z" />
    <glyph glyph-name="u064E" unicode="&#x64e;" 
d="M112 130l7 -48l-231 -92l-7 48z" />
    <glyph glyph-name="u064F" unicode="&#x64f;" 
d="M-124 38l120 57q-26 14 -46 37t-20 47q0 9 2.5 18t14 22.5t34 34.5t63.5 55q38 -24 57.5 -55.5t19.5 -63.5q0 -16 -4.5 -33.5t-17 -36t-34 -36t-54.5 -33.5l-127 -61zM75 181q0 39 -42 70l-64 -55q5 -17 24.5 -37t48.5 -36q33 25 33 58z" />
    <glyph glyph-name="u0650" unicode="&#x650;" 
d="M112 10l7 -48l-231 -92l-7 48z" />
    <glyph glyph-name="u0651" unicode="&#x651;" 
d="M93 0q-44 0 -65.5 9.5t-32.5 32.5q-14 -26 -32.5 -34t-47.5 -8q-33 0 -48.5 17t-15.5 41q0 20 3.5 49.5t8.5 67.5l40 -4l-9 -106q3 -3 7 -5q8 -5 24 -5q26 0 37.5 10t13.5 36l5 42h39v-43q0 -25 17 -34.5t61 -10.5q3 23 0.5 50t-13.5 63l38 26l11 -4q8 -32 10 -51t2 -36
q0 -24 -6.5 -49t-24.5 -54h-22z" />
    <glyph glyph-name="u0652" unicode="&#x652;" 
d="M-21 0q-42 0 -57.5 16.5t-15.5 40.5q0 13 5.5 36.5t13 48t15 46.5t10.5 31q68 -2 104.5 -36.5t36.5 -88.5q0 -16 -4 -34t-14 -35q-20 -14 -44.5 -19.5t-49.5 -5.5zM-14 55q34 0 64 12q0 43 -20 67t-62 26l-25 -91q12 -14 43 -14z" />
    <glyph glyph-name="u0653" unicode="&#x653;" 
d="M-106 0l-25 20q21 44 31 65t24 21q16 -2 42 -4.5t63 -2.5q49 0 97 6l5 -7l-15 -43q-24 -3 -49.5 -4.5t-49.5 -1.5q-21 0 -44 1.5t-44 4.5l-27 -55h-8z" />
    <glyph glyph-name="u0654" unicode="&#x654;" 
d="M62 236l-15 -48h-91q-5 -15 -3 -30t10 -27t21 -19.5t30 -7.5q14 0 37 5.5t55 16.5l5 -57l-215 -79l-7 48l63 30q-24 15 -36.5 39.5t-12.5 49.5q0 20 6.5 41.5t23.5 49.5h121z" />
    <glyph glyph-name="u0655" unicode="&#x655;" 
d="M62 -12l-15 -48h-91q-5 -15 -3 -30t10 -27t21 -19.5t30 -7.5q14 0 37 5.5t55 16.5l5 -57l-215 -79l-7 48l63 31q-24 15 -36.5 39t-12.5 49q0 20 6.5 41.5t23.5 49.5h121z" />
    <glyph glyph-name="u0656" unicode="&#x656;" 
d="M-13 22q15 -18 23.5 -33.5t13 -33t6 -38t1.5 -48.5v-73l-43 -19v76q0 20 -2 35t-6.5 27.5t-12 25.5t-18.5 28z" />
    <glyph glyph-name="u0660" unicode="&#x660;" horiz-adv-x="239" 
d="M52 272h135v-142h-135v142z" />
    <glyph glyph-name="u0661" unicode="&#x661;" horiz-adv-x="281" 
d="M189 -45h-17q-6 78 -10.5 138.5t-11 109.5t-15 90.5t-20.5 81t-29.5 80.5t-41.5 90l61 61q38 -70 61 -135.5t36.5 -137t19 -154.5t9.5 -187z" />
    <glyph glyph-name="u0662" unicode="&#x662;" horiz-adv-x="494" 
d="M199 -45h-17q-6 78 -12 138.5t-13 109.5t-17 90.5t-23 81t-31 80.5t-42 90l61 61l38 -80q17 -36 32.5 -57.5t30.5 -32.5t30 -14t33 -3q34 0 53 11t29.5 33.5t15.5 58t13 84.5l65 -7q-10 -70 -19.5 -122t-27.5 -87t-48.5 -52.5t-81.5 -17.5q-38 0 -64 13q18 -69 26 -153.5
t11 -187.5z" />
    <glyph glyph-name="u0663" unicode="&#x663;" horiz-adv-x="674" 
d="M627 599q-10 -72 -20 -125t-27.5 -87t-46 -50.5t-75.5 -16.5q-33 0 -58.5 16t-41.5 55q-20 -41 -48 -56t-56 -15q-27 0 -49 12q17 -69 25 -153.5t11 -186.5l-42 -37h-17q-6 78 -12 138.5t-13 109.5t-17 90.5t-23 81t-31 80.5t-42 90l61 61l38 -80q17 -36 31 -57.5
t26.5 -32.5t24.5 -14t25 -3q20 0 34 6.5t24.5 25t17.5 51t12 84.5h59v-86q0 -37 15.5 -59t48.5 -22q28 0 44.5 7.5t26 28t16 57t15.5 94.5l64 -7v0z" />
    <glyph glyph-name="u0664" unicode="&#x664;" horiz-adv-x="436" 
d="M294 264q-71 -32 -114.5 -76t-56.5 -92q23 -25 59.5 -31t79.5 -6h115l7 -14l-22 -80h-113q-39 0 -73.5 5t-60 18.5t-40.5 36t-15 58.5q0 47 28.5 96.5t79.5 89.5q-33 7 -55 19.5t-35 28t-18 32t-5 31.5q0 48 21 89.5t51.5 71.5t65 47.5t61.5 17.5q16 0 36 -10.5t59 -40.5
l-40 -69q-28 15 -42.5 20t-22.5 5q-16 0 -35 -7.5t-37.5 -22t-34.5 -35.5t-25 -48q18 -38 69.5 -52t122.5 -17z" />
    <glyph glyph-name="u0665" unicode="&#x665;" horiz-adv-x="502" 
d="M149 475q96 -23 155.5 -54.5t91.5 -71t43 -85t11 -94.5q0 -55 -13.5 -96.5t-23.5 -56.5t-31 -25t-47.5 -16t-57 -8.5t-60.5 -2.5q-84 0 -124.5 26t-40.5 82q0 21 4.5 53t11.5 69.5t16 77.5t17.5 76.5t16.5 66t13 47.5zM167 370q-8 -32 -15.5 -70t-15 -75.5t-14 -72
t-10.5 -60.5q23 -15 56 -19t68 -4q33 0 72.5 4t63.5 12q9 33 9 61q0 35 -8.5 67.5t-32 61.5t-65.5 53t-108 42z" />
    <glyph glyph-name="u0666" unicode="&#x666;" horiz-adv-x="488" 
d="M356 370q0 -49 1 -86.5t4 -67t8.5 -53.5t15.5 -46.5t23.5 -45.5t33.5 -50l-52 -66h-15q-30 39 -47.5 73.5t-27 73.5t-12.5 87t-3 114v55t-0.5 57t-2 48t-3.5 29q-48 -4 -79 -4.5t-51 -0.5q-22 0 -37.5 1t-27 3t-21 6t-19.5 10l9 92l15 7q16 -7 33 -10.5t52 -3.5
q42 0 66 1.5t44 1.5q51 0 72 -18t21 -70v-137z" />
    <glyph glyph-name="u0667" unicode="&#x667;" horiz-adv-x="580" 
d="M501 606l38 -61q-57 -66 -93.5 -135t-60 -140t-36.5 -143t-22 -143l-47 -29l-16 9q-14 76 -25.5 134t-24.5 104t-28 84.5t-35.5 77t-47 80.5t-62.5 96l59 66q39 -52 71 -103.5t56.5 -108.5t41 -122t25.5 -143q6 58 18.5 118.5t34.5 121t56 120.5t84 117h14z" />
    <glyph glyph-name="u0668" unicode="&#x668;" horiz-adv-x="580" 
d="M79 -45l-38 61q57 66 94 135t60.5 140t36.5 143t22 143l47 29l16 -8q14 -77 25.5 -134.5t24.5 -103.5t28 -85t35 -77.5t46.5 -80.5t62.5 -96l-59 -66q-39 52 -71 103.5t-56.5 108.5t-41 122t-25.5 143q-6 -58 -18.5 -118.5t-34.5 -121t-56.5 -120.5t-83.5 -117h-14z" />
    <glyph glyph-name="u0669" unicode="&#x669;" horiz-adv-x="508" 
d="M412 -45h-15q-30 40 -46 74t-24 68.5t-10.5 72t-4.5 84.5q-31 -9 -61.5 -14.5t-69.5 -5.5q-38 0 -63.5 6t-40.5 17t-21.5 27t-6.5 36q0 17 5 50.5t12.5 72t16 77.5t16.5 68l17 17q9 1 17.5 1h14.5q57 0 97.5 -18t67 -51t40.5 -79t19 -101q6 -76 10 -123t12 -81
t23.5 -63.5t44.5 -70.5zM196 324q34 0 60 3.5t49 10.5q-6 45 -17 77.5t-30 53.5t-47.5 30.5t-69.5 9.5q-3 -11 -7.5 -34.5t-9.5 -49.5t-9 -50.5t-6 -36.5q13 -8 35.5 -11t51.5 -3z" />
    <glyph glyph-name="u066A" unicode="&#x66a;" horiz-adv-x="478" 
d="M356 0q-26 0 -44 18t-18 44q0 27 18 45.5t44 18.5q27 0 45 -18.5t18 -45.5q0 -26 -18 -44t-45 -18zM109 -45h-14l-38 38l290 613l68 -12l10 -19zM57 512q0 27 18 45.5t44 18.5q27 0 45 -18.5t18 -45.5q0 -26 -18 -44t-45 -18q-26 0 -44 18t-18 44z" />
    <glyph glyph-name="u066B" unicode="&#x66b;" horiz-adv-x="348" 
d="M285 245l11 -20l-194 -359h-14l-36 40l169 349z" />
    <glyph glyph-name="u066C" unicode="&#x66c;" horiz-adv-x="229" 
d="M81 -120l-23 36l52 85q-23 2 -40.5 18t-17.5 42t18 44t45 18q26 0 44 -18t18 -47q0 -10 -2.5 -22.5t-10.5 -32t-25 -49.5t-45 -74h-13z" />
    <glyph glyph-name="u066D" unicode="&#x66d;" horiz-adv-x="486" 
d="M204 0l7 71q2 17 5 41t8 43l-9 4q-14 -14 -33 -29.5t-33 -24.5l-58 -40l-39 67l64 30q16 8 39 16t40 15v10q-19 5 -42 15t-37 17l-64 29l39 68l58 -41q14 -10 33 -25.5t33 -28.5l9 5q-5 19 -8 43.5t-5 40.5l-7 71h78l-6 -71q-2 -17 -5.5 -41t-8.5 -43l9 -5q14 13 33 28
t33 25l58 41l39 -67l-64 -30q-15 -8 -38 -18t-42 -13v-10q19 -5 42 -14t38 -16l64 -30l-39 -67l-58 41q-14 9 -33 23t-33 30l-8 -5q5 -19 8 -43.5t5 -40.5l6 -71h-78z" />
    <glyph glyph-name="u0670" unicode="&#x670;" 
d="M-13 226q15 -18 23.5 -33.5t13 -33t6 -38t1.5 -48.5v-73l-43 -19v76q0 20 -2 35t-6.5 27.5t-12 25.5t-18.5 28z" />
    <glyph glyph-name="u06AA" unicode="&#x6aa;" horiz-adv-x="867" 
d="M373 0q-32 0 -70.5 0.5t-78 1.5t-76.5 3t-66 5l-42 91l10 15q74 -6 157 -8t177 -2h168q78 0 125.5 3t70.5 11q-2 25 -11.5 48t-25 40t-38 27.5t-50.5 10.5h-317q-44 0 -77.5 4t-55.5 15.5t-33 31t-11 49.5q0 26 15 55.5t39 58t55 54.5t62 46t60.5 31.5t51.5 11.5
q15 0 33.5 -11.5t50.5 -34.5l-41 -67q-11 6 -21 10q-8 4 -16 7t-12 3q-21 0 -53.5 -15t-65.5 -37.5t-61 -48t-40 -47.5q15 -21 114 -21h330q47 0 81.5 -18t57.5 -45t34.5 -59.5t11.5 -62.5q0 -21 -5.5 -42.5t-14 -40t-20 -33t-23.5 -20.5q-20 -11 -69.5 -15.5t-132.5 -4.5
h-177z" />
    <glyph glyph-name="u06D2" unicode="&#x6d2;" horiz-adv-x="626" 
d="M262 0q-103 0 -156.5 32.5t-53.5 106.5q0 45 21.5 91t53.5 82.5t69 59.5t69 23q9 0 22 -6t27.5 -16t29.5 -21.5t29 -22.5l-45 -67q-25 17 -44.5 28.5t-27.5 11.5q-15 0 -36.5 -11.5t-42.5 -31.5t-39.5 -47.5t-28.5 -59.5q15 -26 51 -39.5t112 -13.5q27 0 64.5 0.5t78.5 1
t83 2.5t78 5l8 -17l-31 -82q-31 -2 -73 -4t-84 -3t-78 -1.5t-56 -0.5z" />
    <glyph glyph-name="u06F0" unicode="&#x6f0;" horiz-adv-x="406" 
d="M197 282q-23 -10 -45 -32t-32 -45q10 -23 32 -45t45 -32h13q23 10 45 32t32 45q-10 23 -32 45t-45 32h-13zM203 51q-17 0 -39 13.5t-44 34t-40.5 45.5t-27.5 49v24q9 23 27.5 48t40.5 45.5t44 34t39 13.5t39.5 -13.5t44 -34t40 -45.5t27.5 -48v-24q-9 -24 -27.5 -49
t-40 -45.5t-44 -34t-39.5 -13.5z" />
    <glyph glyph-name="u06F1" unicode="&#x6f1;" horiz-adv-x="281" 
d="M189 -45h-17q-6 78 -10.5 138.5t-11 109.5t-15 90.5t-20.5 81t-29.5 80.5t-41.5 90l61 61q38 -70 61 -135.5t36.5 -137t19 -154.5t9.5 -187z" />
    <glyph glyph-name="u06F2" unicode="&#x6f2;" horiz-adv-x="494" 
d="M199 -45h-17q-6 78 -12 138.5t-13 109.5t-17 90.5t-23 81t-31 80.5t-42 90l61 61l38 -80q17 -36 32.5 -57.5t30.5 -32.5t30 -14t33 -3q34 0 53 11t29.5 33.5t15.5 58t13 84.5l65 -7q-10 -70 -19.5 -122t-27.5 -87t-48.5 -52.5t-81.5 -17.5q-38 0 -64 13q18 -69 26 -153.5
t11 -187.5z" />
    <glyph glyph-name="u06F3" unicode="&#x6f3;" horiz-adv-x="674" 
d="M627 599q-10 -72 -20 -125t-27.5 -87t-46 -50.5t-75.5 -16.5q-33 0 -58.5 16t-41.5 55q-20 -41 -48 -56t-56 -15q-27 0 -49 12q17 -69 25 -153.5t11 -186.5l-42 -37h-17q-6 78 -12 138.5t-13 109.5t-17 90.5t-23 81t-31 80.5t-42 90l61 61l38 -80q17 -36 31 -57.5
t26.5 -32.5t24.5 -14t25 -3q20 0 34 6.5t24.5 25t17.5 51t12 84.5h59v-86q0 -37 15.5 -59t48.5 -22q28 0 44.5 7.5t26 28t16 57t15.5 94.5l64 -7v0z" />
    <glyph glyph-name="u06F4" unicode="&#x6f4;" horiz-adv-x="528" 
d="M188 -45h-17q-6 77 -11.5 137t-12 108t-14.5 88t-20 78t-28.5 77t-38.5 85l62 63q17 -35 33.5 -74.5t33.5 -81.5q11 35 32 66t46.5 54.5t51.5 37t47 13.5t49 -20t60 -46l-42 -64q-59 38 -76 38q-14 0 -32.5 -10t-36.5 -27t-34 -41.5t-25 -52.5q17 -35 48 -50t78 -15
q35 0 65 5t60 13l10 -11l-5 -70q-42 -15 -75.5 -20t-64.5 -5q-44 0 -73.5 12t-49.5 31q9 -65 14 -133t8 -148z" />
    <glyph glyph-name="u06F5" unicode="&#x6f5;" horiz-adv-x="582" 
d="M377 -35q-26 0 -43.5 8t-29 19t-18 23t-9.5 21q-8 -19 -17.5 -32.5t-23 -22t-32.5 -12.5t-47 -4q-34 0 -56.5 12t-35.5 31.5t-18.5 43.5t-5.5 48q0 31 7 67t23.5 80.5t42.5 98.5t65 122q-20 11 -41 23t-44 25l27 75l18 8q125 -69 201 -123t117 -102.5t54.5 -97.5
t13.5 -107q0 -24 -4 -48.5t-10 -46.5t-13 -40t-14 -28q-15 -23 -43.5 -32t-63.5 -9zM458 148q0 44 -11 79.5t-37 69t-71 67.5t-112 75q-40 -71 -64 -120.5t-37 -85t-17 -60t-4 -43.5q0 -36 17 -51t43 -15q18 0 36 1.5t30 6.5q6 17 13.5 45t13.5 51h61q-2 -30 -2 -37.5v-10.5
q0 -32 19.5 -44t45.5 -12q17 0 28 1t33 8q8 17 11.5 37t3.5 38z" />
    <glyph glyph-name="u06F6" unicode="&#x6f6;" horiz-adv-x="461" 
d="M228 514q-12 0 -29.5 -9t-34.5 -24t-32.5 -34t-22.5 -39q8 -41 37.5 -62.5t81.5 -21.5q33 0 75.5 10.5t99.5 39.5l12 -8l-2 -76q-40 -23 -79.5 -49.5t-79 -64.5t-80 -91.5t-82.5 -129.5h-14l-22 54q9 22 25 50.5t37 59t46.5 61t54.5 57.5q-77 2 -122 44.5t-45 111.5
q0 42 20.5 80.5t49.5 68t61 47t55 17.5q18 0 46.5 -19t56.5 -41l-42 -65q-25 15 -43 24t-28 9z" />
    <glyph glyph-name="u06F7" unicode="&#x6f7;" horiz-adv-x="580" 
d="M501 606l38 -61q-57 -66 -93.5 -135t-60 -140t-36.5 -143t-22 -143l-47 -29l-16 9q-14 76 -25.5 134t-24.5 104t-28 84.5t-35.5 77t-47 80.5t-62.5 96l59 66q39 -52 71 -103.5t56.5 -108.5t41 -122t25.5 -143q6 58 18.5 118.5t34.5 121t56 120.5t84 117h14z" />
    <glyph glyph-name="u06F8" unicode="&#x6f8;" horiz-adv-x="580" 
d="M79 -45l-38 61q57 66 94 135t60.5 140t36.5 143t22 143l47 29l16 -8q14 -77 25.5 -134.5t24.5 -103.5t28 -85t35 -77.5t46.5 -80.5t62.5 -96l-59 -66q-39 52 -71 103.5t-56.5 108.5t-41 122t-25.5 143q-6 -58 -18.5 -118.5t-34.5 -121t-56.5 -120.5t-83.5 -117h-14z" />
    <glyph glyph-name="u06F9" unicode="&#x6f9;" horiz-adv-x="508" 
d="M412 -45h-15q-30 40 -46 74t-24 68.5t-10.5 72t-4.5 84.5q-31 -9 -61.5 -14.5t-69.5 -5.5q-38 0 -63.5 6t-40.5 17t-21.5 27t-6.5 36q0 17 5 50.5t12.5 72t16 77.5t16.5 68l17 17q9 1 17.5 1h14.5q57 0 97.5 -18t67 -51t40.5 -79t19 -101q6 -76 10 -123t12 -81
t23.5 -63.5t44.5 -70.5zM196 324q34 0 60 3.5t49 10.5q-6 45 -17 77.5t-30 53.5t-47.5 30.5t-69.5 9.5q-3 -11 -7.5 -34.5t-9.5 -49.5t-9 -50.5t-6 -36.5q13 -8 35.5 -11t51.5 -3z" />
    <glyph glyph-name="u200C" unicode="&#x200c;" 
d="M-53 851l53 -54l52 53l16 -17l-52 -51l52 -53l-16 -16l-52 52l-53 -53l-16 17l52 53l-52 51z" />
    <glyph glyph-name="u200D" unicode="&#x200d;" 
d="M77 725v46h-153v-46h-23v68h199v-68h-23z" />
    <glyph glyph-name="u200E" unicode="&#x200e;" 
d="M10 833l16 18l69 -69l-69 -70l-16 17l41 42h-126v22h126z" />
    <glyph glyph-name="u200F" unicode="&#x200f;" 
d="M-10 729l-16 -16l-69 69l69 69l16 -17l-41 -41h127v-22h-126z" />
    <glyph glyph-name="u2010" unicode="&#x2010;" horiz-adv-x="644" 
d="M52 152v83h540v-83h-540z" />
    <glyph glyph-name="u2011" unicode="&#x2011;" horiz-adv-x="488" 
d="M52 152v83h384v-83h-384z" />
    <glyph glyph-name="figuredash" unicode="&#x2012;" horiz-adv-x="644" 
d="M52 152v83h540v-83h-540z" />
    <glyph glyph-name="emdash" unicode="&#x2014;" horiz-adv-x="1044" 
d="M52 152v83h940v-83h-940z" />
    <glyph glyph-name="u2015" unicode="&#x2015;" horiz-adv-x="1044" 
d="M52 152v83h940v-83h-940z" />
    <glyph glyph-name="quoteleft" unicode="&#x2018;" horiz-adv-x="229" 
d="M148 638l23 -36l-52 -85q23 -2 40.5 -18t17.5 -42t-18 -44t-45 -18q-26 0 -44 18t-18 47q0 10 2.5 22.5t10.5 32t24.5 49.5t45.5 74h13z" />
    <glyph glyph-name="quoteright" unicode="&#x2019;" horiz-adv-x="263" 
d="M97 395l-23 36l52 85q-23 2 -40.5 18t-17.5 42t18 44t45 18q26 0 44 -18t18 -47q0 -10 -2.5 -22.5t-10.5 -32t-25 -49.5t-45 -74h-13z" />
    <glyph glyph-name="quotedblleft" unicode="&#x201c;" horiz-adv-x="384" 
d="M148 638l23 -36l-52 -85q23 -2 40.5 -18t17.5 -42t-18 -44t-45 -18q-26 0 -44 18t-18 47q0 10 2.5 22.5t10.5 32t24.5 49.5t45.5 74h13zM303 638l23 -36l-52 -85q23 -2 40.5 -18t17.5 -42t-18 -44t-45 -18q-26 0 -44 18t-18 47q0 10 2.5 22.5t10.5 32t24.5 49.5t45.5 74
h13z" />
    <glyph glyph-name="quotedblright" unicode="&#x201d;" horiz-adv-x="418" 
d="M97 395l-23 36l52 85q-23 2 -40.5 18t-17.5 42t18 44t45 18q26 0 44 -18t18 -47q0 -10 -2.5 -22.5t-10.5 -32t-25 -49.5t-45 -74h-13zM252 395l-23 36l52 85q-23 2 -40.5 18t-17.5 42t18 44t45 18q26 0 44 -18t18 -47q0 -10 -2.5 -22.5t-10.5 -32t-25 -49.5t-45 -74h-13z
" />
    <glyph glyph-name="bullet" unicode="&#x2022;" horiz-adv-x="393" 
d="M341 297v-290h-289v290h289z" />
    <glyph glyph-name="ellipsis" unicode="&#x2026;" horiz-adv-x="606" 
d="M491 0q-26 0 -44 18t-18 44q0 27 18 45.5t44 18.5q27 0 45 -18.5t18 -45.5q0 -26 -18 -44t-45 -18zM52 62q0 27 18 45.5t44 18.5q27 0 45 -18.5t18 -45.5q0 -26 -18 -44t-45 -18q-26 0 -44 18t-18 44zM241 62q0 27 18 45.5t44 18.5q27 0 45 -18.5t18 -45.5q0 -26 -18 -44
t-45 -18q-26 0 -44 18t-18 44z" />
    <glyph glyph-name="u202A" unicode="&#x202a;" 
d="M-28 771h-57v22h57v-22zM1 793h50l-41 40l16 18l69 -69l-69 -70l-16 17l41 42h-50v22z" />
    <glyph glyph-name="u202B" unicode="&#x202b;" 
d="M28 793h57v-22h-57v22zM-1 771h-49l40 -42l-16 -16l-69 69l69 69l16 -17l-41 -41h50v-22z" />
    <glyph glyph-name="u202C" unicode="&#x202c;" 
d="M-52 772l-17 17l69 68l69 -68l-17 -17l-41 41v-102h-23v101z" />
    <glyph glyph-name="u202D" unicode="&#x202d;" 
d="M-37 833l16 18l69 -69l-69 -70l-16 17l41 42h-107v22h106zM28 833l16 18l69 -69l-69 -70l-16 17l53 53z" />
    <glyph glyph-name="u202E" unicode="&#x202e;" 
d="M38 754l-17 -17l-68 69l68 69l17 -17l-41 -41h107v-23h-107zM-28 754l-16 -17l-69 69l69 69l16 -17l-52 -52z" />
    <glyph glyph-name="u202F" unicode="&#x202f;" 
 />
    <glyph glyph-name="guilsinglleft" unicode="&#x2039;" horiz-adv-x="274" 
d="M128 245q0 -39 4.5 -71.5t15 -63.5t29 -64t45.5 -73l-36 -38h-14q-37 48 -60 89t-36.5 78t-18.5 72t-5 71t5 70.5t18.5 71.5t36.5 78.5t60 89.5h14l36 -38q-27 -40 -45.5 -73t-29 -64t-15 -63.5t-4.5 -71.5z" />
    <glyph glyph-name="guilsinglright" unicode="&#x203a;" horiz-adv-x="274" 
d="M146 245q0 39 -4.5 71.5t-15 63.5t-29 64t-45.5 73l36 38h14q37 -48 60 -89.5t36.5 -78.5t18.5 -71.5t5 -70.5t-5 -71t-18.5 -72t-36.5 -78t-60 -89h-14l-36 38q27 40 45.5 73t29 64t15 63.5t4.5 71.5z" />
    <glyph glyph-name="u204B" unicode="&#x204b;" horiz-adv-x="430" 
d="M190 0v570h-85v-570h-55v630q19 5 47 7.5t68 2.5q67 0 109.5 -13t65.5 -36t31.5 -55t8.5 -71q0 -37 -6.5 -64t-22 -45t-41.5 -27t-65 -9v-320h-55z" />
    <glyph glyph-name="infinity" unicode="&#x221e;" horiz-adv-x="776" 
d="M660 177q0 38 -26.5 63.5t-67.5 25.5q-29 0 -54.5 -14t-45.5 -31q-24 -19 -44 -44q20 -26 44 -45q20 -17 45.5 -30.5t54.5 -13.5q41 0 67.5 25.5t26.5 63.5zM116 177q0 -38 27 -63.5t67 -25.5q29 0 55 13.5t46 30.5q24 19 44 45q-20 25 -44 44q-20 17 -46 31t-55 14
q-40 0 -67 -25.5t-27 -63.5zM724 177q0 -35 -12 -65t-32.5 -52t-48.5 -34t-60 -12q-51 0 -96.5 29t-86.5 77q-41 -48 -86.5 -77t-96.5 -29q-32 0 -60 12t-48.5 34t-32.5 52t-12 65t12 65t32.5 51.5t48.5 34t60 12.5q51 0 96.5 -29t86.5 -77q41 48 86.5 77t96.5 29
q32 0 60 -12.5t48.5 -34t32.5 -51.5t12 -65z" />
    <glyph glyph-name="approxequal" unicode="&#x2248;" horiz-adv-x="488" 
d="M149 266q-19 0 -40.5 -6.5t-45.5 -21.5l-11 7v61q27 21 51.5 28.5t50.5 7.5q24 0 46.5 -6t45 -13.5t45.5 -13.5t48 -6q20 0 41.5 6.5t45.5 21.5l10 -7v-61q-26 -21 -51 -28.5t-51 -7.5q-25 0 -48.5 6t-46 13.5t-45 13.5t-45.5 6zM149 96q-40 0 -86 -29l-11 8v61
q27 20 51.5 28t50.5 8q25 0 48 -6.5t45.5 -14t45 -13.5t46.5 -6q41 0 87 29l10 -8v-61q-26 -20 -51 -28t-51 -8q-24 0 -47 6t-45.5 13.5t-45.5 14t-47 6.5z" />
    <glyph glyph-name="notequal" unicode="&#x2260;" horiz-adv-x="488" 
d="M228 73l-47 -114l-37 6l-15 20l34 88h-111v76h140l33 85h-173v76h202l47 121l52 -10l10 -19l-38 -92h111v-76h-142l-35 -85h177v-76h-208z" />
    <glyph glyph-name="lessequal" unicode="&#x2264;" horiz-adv-x="488" 
d="M379 500l12 -7l16 -66l-265 -117l265 -118l-16 -66l-12 -7l-309 150v80zM52 -10v76h384v-76h-384z" />
    <glyph glyph-name="greaterequal" unicode="&#x2265;" horiz-adv-x="488" 
d="M412 349v-80l-309 -150l-12 7l-16 66l265 118l-265 117l16 66l12 7zM436 -10v76h-384v-76h384z" />
    <glyph glyph-name="H22073" unicode="&#x25a1;" horiz-adv-x="403" 
d="M114 152q0 -36 25.5 -61.5t61.5 -25.5t61.5 25.5t25.5 61.5t-25.5 61.5t-61.5 25.5t-61.5 -25.5t-25.5 -61.5zM202 0q-31 0 -58.5 12t-47.5 33t-32 48.5t-12 58.5t12 59t32 49t47.5 33t58.5 12t58 -12t47 -33t32 -49t12 -59t-12 -58.5t-32 -48.5t-47 -33t-58 -12z" />
    <glyph glyph-name="H18543" unicode="&#x25aa;" horiz-adv-x="403" 
d="M202 0q-31 0 -58.5 12t-47.5 33t-32 48.5t-12 58.5t12 59t32 49t47.5 33t58.5 12t58 -12t47 -33t32 -49t12 -59t-12 -58.5t-32 -48.5t-47 -33t-58 -12z" />
    <glyph glyph-name="u25C2" unicode="&#x25c2;" horiz-adv-x="389" 
d="M52 174l266 151l19 -14v-301l-19 -14l-266 151v27z" />
    <glyph glyph-name="u25C3" unicode="&#x25c3;" horiz-adv-x="389" 
d="M137 160l145 -78v157zM52 174l266 151l19 -14v-301l-19 -14l-266 151v27z" />
    <glyph glyph-name="u25CC" unicode="&#x25cc;" horiz-adv-x="591" 
d="M279 0v52h33v-52h-33zM279 491h33v-52h-33v52zM444 370l-23 23l37 37l23 -23zM488 229v33h52v-33h-52zM480 84l-23 -24l-37 37l23 24zM147 120l24 -23l-37 -37l-24 23zM49 229v33h52v-33h-52zM110 408l23 23l37 -37l-23 -23z" />
    <glyph glyph-name="openbullet" unicode="&#x25e6;" horiz-adv-x="393" 
d="M341 297v-290h-289v290h289zM118 230v-156h156v156h-156z" />
    <glyph glyph-name="uFFFC" unicode="&#xfffc;" horiz-adv-x="1000" 
d="M266 548q36 0 58.5 -16.5t34.5 -42.5t16 -59t4 -67q0 -33 -4 -66t-16 -59.5t-34.5 -42.5t-58.5 -16q-37 0 -59.5 16t-35 42.5t-16.5 59.5t-4 66q0 34 4 67t16.5 59t35 42.5t59.5 16.5zM432 541h109q17 0 33.5 -4.5t29 -15t20.5 -28t8 -43.5q0 -25 -13.5 -46t-38.5 -29
q33 -8 48 -31.5t15 -56.5q0 -54 -29 -77.5t-86 -23.5h-96v355zM266 511q-23 0 -37 -11.5t-21.5 -31.5t-9.5 -47t-2 -58t2 -58t9.5 -47t21.5 -31.5t37 -11.5q22 0 35.5 11.5t21 31.5t9.5 47t2 58t-2 58t-9.5 47t-21 31.5t-35.5 11.5zM695 236q11 -12 21 -16t21 -4q30 0 38 18
t8 55v252h44v-254q0 -24 -3.5 -43.5t-13.5 -34t-27.5 -22.5t-44.5 -8q-25 0 -41.5 8t-26.5 21zM476 222h59q35 0 48.5 19.5t13.5 45.5q0 37 -20 52.5t-49 15.5h-52v-133zM476 388h50q7 0 17 1.5t19.5 7.5t16.5 17.5t7 32.5q0 28 -14.5 43t-46.5 15h-49v-117zM842 0v39h119
v119h39v-158h-158zM158 0h-158v158h39v-119h119v-39zM1000 562h-39v118h-119v39h158v-157zM158 680h-119v-118h-39v157h158v-39zM719 0h-157v39h157v-39zM39 281h-39v157h39v-157zM438 680h-157v39h157v-39zM719 680h-157v39h157v-39zM1000 281h-39v157h39v-157zM438 0h-157
v39h157v-39z" />
    <glyph glyph-name="kashidas.Narrow" horiz-adv-x="141" 
d="M0 0q-13 0 -19 15t-6 38t6 38t19 15h141v-106h-141z" />
    <glyph glyph-name="kashidas.Wide" horiz-adv-x="141" 
d="M0 0q-13 0 -19 15t-6 38t6 38t19 15h141v-106h-141z" />
    <glyph glyph-name="u06F0.tnum" horiz-adv-x="406" 
d="M197 282q-23 -10 -45 -32t-32 -45q10 -23 32 -45t45 -32h13q23 10 45 32t32 45q-10 23 -32 45t-45 32h-13zM203 51q-17 0 -39 13.5t-44 34t-40.5 45.5t-27.5 49v24q9 23 27.5 48t40.5 45.5t44 34t39 13.5t39.5 -13.5t44 -34t40 -45.5t27.5 -48v-24q-9 -24 -27.5 -49
t-40 -45.5t-44 -34t-39.5 -13.5z" />
    <glyph glyph-name="u06F1.tnum" horiz-adv-x="281" 
d="M189 -45h-17q-6 78 -10.5 138.5t-11 109.5t-15 90.5t-20.5 81t-29.5 80.5t-41.5 90l61 61q38 -70 61 -135.5t36.5 -137t19 -154.5t9.5 -187z" />
    <glyph glyph-name="u06F2.tnum" horiz-adv-x="494" 
d="M199 -45h-17q-6 78 -12 138.5t-13 109.5t-17 90.5t-23 81t-31 80.5t-42 90l61 61l38 -80q17 -36 32.5 -57.5t30.5 -32.5t30 -14t33 -3q34 0 53 11t29.5 33.5t15.5 58t13 84.5l65 -7q-10 -70 -19.5 -122t-27.5 -87t-48.5 -52.5t-81.5 -17.5q-38 0 -64 13q18 -69 26 -153.5
t11 -187.5z" />
    <glyph glyph-name="u06F3.tnum" horiz-adv-x="674" 
d="M627 599q-10 -72 -20 -125t-27.5 -87t-46 -50.5t-75.5 -16.5q-33 0 -58.5 16t-41.5 55q-20 -41 -48 -56t-56 -15q-27 0 -49 12q17 -69 25 -153.5t11 -186.5l-42 -37h-17q-6 78 -12 138.5t-13 109.5t-17 90.5t-23 81t-31 80.5t-42 90l61 61l38 -80q17 -36 31 -57.5
t26.5 -32.5t24.5 -14t25 -3q20 0 34 6.5t24.5 25t17.5 51t12 84.5h59v-86q0 -37 15.5 -59t48.5 -22q28 0 44.5 7.5t26 28t16 57t15.5 94.5l64 -7v0z" />
    <glyph glyph-name="u06F4.tnum" horiz-adv-x="528" 
d="M188 -45h-17q-6 77 -11.5 137t-12 108t-14.5 88t-20 78t-28.5 77t-38.5 85l62 63q17 -35 33.5 -74.5t33.5 -81.5q11 35 32 66t46.5 54.5t51.5 37t47 13.5t49 -20t60 -46l-42 -64q-59 38 -76 38q-14 0 -32.5 -10t-36.5 -27t-34 -41.5t-25 -52.5q17 -35 48 -50t78 -15
q35 0 65 5t60 13l10 -11l-5 -70q-42 -15 -75.5 -20t-64.5 -5q-44 0 -73.5 12t-49.5 31q9 -65 14 -133t8 -148z" />
    <glyph glyph-name="u06F5.tnum" horiz-adv-x="582" 
d="M377 -35q-26 0 -43.5 8t-29 19t-18 23t-9.5 21q-8 -19 -17.5 -32.5t-23 -22t-32.5 -12.5t-47 -4q-34 0 -56.5 12t-35.5 31.5t-18.5 43.5t-5.5 48q0 31 7 67t23.5 80.5t42.5 98.5t65 122q-20 11 -41 23t-44 25l27 75l18 8q125 -69 201 -123t117 -102.5t54.5 -97.5
t13.5 -107q0 -24 -4 -48.5t-10 -46.5t-13 -40t-14 -28q-15 -23 -43.5 -32t-63.5 -9zM458 148q0 44 -11 79.5t-37 69t-71 67.5t-112 75q-40 -71 -64 -120.5t-37 -85t-17 -60t-4 -43.5q0 -36 17 -51t43 -15q18 0 36 1.5t30 6.5q6 17 13.5 45t13.5 51h61q-2 -30 -2 -37.5v-10.5
q0 -32 19.5 -44t45.5 -12q17 0 28 1t33 8q8 17 11.5 37t3.5 38z" />
    <glyph glyph-name="u06F6.tnum" horiz-adv-x="461" 
d="M228 514q-12 0 -29.5 -9t-34.5 -24t-32.5 -34t-22.5 -39q8 -41 37.5 -62.5t81.5 -21.5q33 0 75.5 10.5t99.5 39.5l12 -8l-2 -76q-40 -23 -79.5 -49.5t-79 -64.5t-80 -91.5t-82.5 -129.5h-14l-22 54q9 22 25 50.5t37 59t46.5 61t54.5 57.5q-77 2 -122 44.5t-45 111.5
q0 42 20.5 80.5t49.5 68t61 47t55 17.5q18 0 46.5 -19t56.5 -41l-42 -65q-25 15 -43 24t-28 9z" />
    <glyph glyph-name="u06F7.tnum" horiz-adv-x="580" 
d="M501 606l38 -61q-57 -66 -93.5 -135t-60 -140t-36.5 -143t-22 -143l-47 -29l-16 9q-14 76 -25.5 134t-24.5 104t-28 84.5t-35.5 77t-47 80.5t-62.5 96l59 66q39 -52 71 -103.5t56.5 -108.5t41 -122t25.5 -143q6 58 18.5 118.5t34.5 121t56 120.5t84 117h14z" />
    <glyph glyph-name="u06F8.tnum" horiz-adv-x="580" 
d="M79 -45l-38 61q57 66 94 135t60.5 140t36.5 143t22 143l47 29l16 -8q14 -77 25.5 -134.5t24.5 -103.5t28 -85t35 -77.5t46.5 -80.5t62.5 -96l-59 -66q-39 52 -71 103.5t-56.5 108.5t-41 122t-25.5 143q-6 -58 -18.5 -118.5t-34.5 -121t-56.5 -120.5t-83.5 -117h-14z" />
    <glyph glyph-name="u06F9.tnum" horiz-adv-x="508" 
d="M412 -45h-15q-30 40 -46 74t-24 68.5t-10.5 72t-4.5 84.5q-31 -9 -61.5 -14.5t-69.5 -5.5q-38 0 -63.5 6t-40.5 17t-21.5 27t-6.5 36q0 17 5 50.5t12.5 72t16 77.5t16.5 68l17 17q9 1 17.5 1h14.5q57 0 97.5 -18t67 -51t40.5 -79t19 -101q6 -76 10 -123t12 -81
t23.5 -63.5t44.5 -70.5zM196 324q34 0 60 3.5t49 10.5q-6 45 -17 77.5t-30 53.5t-47.5 30.5t-69.5 9.5q-3 -11 -7.5 -34.5t-9.5 -49.5t-9 -50.5t-6 -36.5q13 -8 35.5 -11t51.5 -3z" />
    <glyph glyph-name="u0660.tnum" horiz-adv-x="239" 
d="M52 272h135v-142h-135v142z" />
    <glyph glyph-name="u0661.tnum" horiz-adv-x="281" 
d="M189 -45h-17q-6 78 -10.5 138.5t-11 109.5t-15 90.5t-20.5 81t-29.5 80.5t-41.5 90l61 61q38 -70 61 -135.5t36.5 -137t19 -154.5t9.5 -187z" />
    <glyph glyph-name="u0662.tnum" horiz-adv-x="494" 
d="M199 -45h-17q-6 78 -12 138.5t-13 109.5t-17 90.5t-23 81t-31 80.5t-42 90l61 61l38 -80q17 -36 32.5 -57.5t30.5 -32.5t30 -14t33 -3q34 0 53 11t29.5 33.5t15.5 58t13 84.5l65 -7q-10 -70 -19.5 -122t-27.5 -87t-48.5 -52.5t-81.5 -17.5q-38 0 -64 13q18 -69 26 -153.5
t11 -187.5z" />
    <glyph glyph-name="u0663.tnum" horiz-adv-x="674" 
d="M627 599q-10 -72 -20 -125t-27.5 -87t-46 -50.5t-75.5 -16.5q-33 0 -58.5 16t-41.5 55q-20 -41 -48 -56t-56 -15q-27 0 -49 12q17 -69 25 -153.5t11 -186.5l-42 -37h-17q-6 78 -12 138.5t-13 109.5t-17 90.5t-23 81t-31 80.5t-42 90l61 61l38 -80q17 -36 31 -57.5
t26.5 -32.5t24.5 -14t25 -3q20 0 34 6.5t24.5 25t17.5 51t12 84.5h59v-86q0 -37 15.5 -59t48.5 -22q28 0 44.5 7.5t26 28t16 57t15.5 94.5l64 -7v0z" />
    <glyph glyph-name="u0664.tnum" horiz-adv-x="436" 
d="M294 264q-71 -32 -114.5 -76t-56.5 -92q23 -25 59.5 -31t79.5 -6h115l7 -14l-22 -80h-113q-39 0 -73.5 5t-60 18.5t-40.5 36t-15 58.5q0 47 28.5 96.5t79.5 89.5q-33 7 -55 19.5t-35 28t-18 32t-5 31.5q0 48 21 89.5t51.5 71.5t65 47.5t61.5 17.5q16 0 36 -10.5t59 -40.5
l-40 -69q-28 15 -42.5 20t-22.5 5q-16 0 -35 -7.5t-37.5 -22t-34.5 -35.5t-25 -48q18 -38 69.5 -52t122.5 -17z" />
    <glyph glyph-name="u0665.tnum" horiz-adv-x="502" 
d="M149 475q96 -23 155.5 -54.5t91.5 -71t43 -85t11 -94.5q0 -55 -13.5 -96.5t-23.5 -56.5t-31 -25t-47.5 -16t-57 -8.5t-60.5 -2.5q-84 0 -124.5 26t-40.5 82q0 21 4.5 53t11.5 69.5t16 77.5t17.5 76.5t16.5 66t13 47.5zM167 370q-8 -32 -15.5 -70t-15 -75.5t-14 -72
t-10.5 -60.5q23 -15 56 -19t68 -4q33 0 72.5 4t63.5 12q9 33 9 61q0 35 -8.5 67.5t-32 61.5t-65.5 53t-108 42z" />
    <glyph glyph-name="u0666.tnum" horiz-adv-x="488" 
d="M356 370q0 -49 1 -86.5t4 -67t8.5 -53.5t15.5 -46.5t23.5 -45.5t33.5 -50l-52 -66h-15q-30 39 -47.5 73.5t-27 73.5t-12.5 87t-3 114v55t-0.5 57t-2 48t-3.5 29q-48 -4 -79 -4.5t-51 -0.5q-22 0 -37.5 1t-27 3t-21 6t-19.5 10l9 92l15 7q16 -7 33 -10.5t52 -3.5
q42 0 66 1.5t44 1.5q51 0 72 -18t21 -70v-137z" />
    <glyph glyph-name="u0667.tnum" horiz-adv-x="580" 
d="M501 606l38 -61q-57 -66 -93.5 -135t-60 -140t-36.5 -143t-22 -143l-47 -29l-16 9q-14 76 -25.5 134t-24.5 104t-28 84.5t-35.5 77t-47 80.5t-62.5 96l59 66q39 -52 71 -103.5t56.5 -108.5t41 -122t25.5 -143q6 58 18.5 118.5t34.5 121t56 120.5t84 117h14z" />
    <glyph glyph-name="u0668.tnum" horiz-adv-x="580" 
d="M79 -45l-38 61q57 66 94 135t60.5 140t36.5 143t22 143l47 29l16 -8q14 -77 25.5 -134.5t24.5 -103.5t28 -85t35 -77.5t46.5 -80.5t62.5 -96l-59 -66q-39 52 -71 103.5t-56.5 108.5t-41 122t-25.5 143q-6 -58 -18.5 -118.5t-34.5 -121t-56.5 -120.5t-83.5 -117h-14z" />
    <glyph glyph-name="u0669.tnum" horiz-adv-x="508" 
d="M412 -45h-15q-30 40 -46 74t-24 68.5t-10.5 72t-4.5 84.5q-31 -9 -61.5 -14.5t-69.5 -5.5q-38 0 -63.5 6t-40.5 17t-21.5 27t-6.5 36q0 17 5 50.5t12.5 72t16 77.5t16.5 68l17 17q9 1 17.5 1h14.5q57 0 97.5 -18t67 -51t40.5 -79t19 -101q6 -76 10 -123t12 -81
t23.5 -63.5t44.5 -70.5zM196 324q34 0 60 3.5t49 10.5q-6 45 -17 77.5t-30 53.5t-47.5 30.5t-69.5 9.5q-3 -11 -7.5 -34.5t-9.5 -49.5t-9 -50.5t-6 -36.5q13 -8 35.5 -11t51.5 -3z" />
    <glyph glyph-name="uni064B0651" 
d="M93 0q-44 0 -65.5 9.5t-32.5 32.5q-14 -26 -32.5 -34t-47.5 -8q-33 0 -48.5 17t-15.5 41q0 20 3.5 49.5t8.5 67.5l40 -4l-9 -106q3 -3 7 -5q8 -5 24 -5q26 0 37.5 10t13.5 36l5 42h39v-43q0 -25 17 -34.5t61 -10.5q3 23 0.5 50t-13.5 63l38 26l11 -4q8 -32 10 -51t2 -36
q0 -24 -6.5 -49t-24.5 -54h-22zM112 370l7 -48l-231 -92l-7 48zM112 482l7 -48l-231 -92l-7 48z" />
    <glyph glyph-name="u067E.medi.rlig" horiz-adv-x="370" 
d="M370 0q-21 0 -41.5 1.5t-38.5 8.5t-33.5 21.5t-27.5 41.5q-4 -9 -8 -16.5t-6 -12.5q-5 -7 -10.5 -12.5t-14.5 -9.5q-26 -13 -68.5 -17.5t-91.5 -4.5h-30q-13 0 -19 15t-6 38t6 38t19 15h23q54 0 95 2.5t70 13.5l-12 154l83 23l8 -117q3 -42 26.5 -59t76.5 -17v-106z
M69 -85l88 -55l-48 -73l-86 53zM288 -138l-45 -75l-88 55l48 73zM195 -346l-85 53l46 75l87 -55z" />
    <glyph glyph-name="u062A.medi.rlig" horiz-adv-x="370" 
d="M370 0q-21 0 -41.5 1.5t-38.5 8.5t-33.5 21.5t-27.5 41.5q-4 -9 -8 -16.5t-6 -12.5q-5 -7 -10.5 -12.5t-14.5 -9.5q-26 -13 -68.5 -17.5t-91.5 -4.5h-30q-13 0 -19 15t-6 38t6 38t19 15h23q54 0 95 2.5t70 13.5l-12 154l83 23l8 -117q3 -42 26.5 -59t76.5 -17v-106z
M97 500l88 -55l-48 -73l-86 53zM183 427l48 73l85 -53l-45 -75z" />
    <glyph glyph-name="u062B.medi.rlig" horiz-adv-x="370" 
d="M370 0q-21 0 -41.5 1.5t-38.5 8.5t-33.5 21.5t-27.5 41.5q-4 -9 -8 -16.5t-6 -12.5q-5 -7 -10.5 -12.5t-14.5 -9.5q-26 -13 -68.5 -17.5t-91.5 -4.5h-30q-13 0 -19 15t-6 38t6 38t19 15h23q54 0 95 2.5t70 13.5l-12 154l83 23l8 -117q3 -42 26.5 -59t76.5 -17v-106z
M144 633l86 -53l-46 -76l-88 56zM97 500l88 -55l-48 -73l-86 53zM183 427l48 73l85 -53l-45 -75z" />
    <glyph glyph-name="u06CC.medi.rlig" horiz-adv-x="370" 
d="M370 0q-21 0 -41.5 1.5t-38.5 8.5t-33.5 21.5t-27.5 41.5q-4 -9 -8 -16.5t-6 -12.5q-5 -7 -10.5 -12.5t-14.5 -9.5q-26 -13 -68.5 -17.5t-91.5 -4.5h-30q-13 0 -19 15t-6 38t6 38t19 15h23q54 0 95 2.5t70 13.5l-12 154l83 23l8 -117q3 -42 26.5 -59t76.5 -17v-106z
M69 -85l88 -55l-48 -73l-86 53zM288 -138l-45 -75l-88 55l48 73z" />
    <glyph glyph-name="u0626.medi.rlig" horiz-adv-x="370" 
d="M370 0q-21 0 -41.5 1.5t-38.5 8.5t-33.5 21.5t-27.5 41.5q-4 -9 -8 -16.5t-6 -12.5q-5 -7 -10.5 -12.5t-14.5 -9.5q-26 -13 -68.5 -17.5t-91.5 -4.5h-30q-13 0 -19 15t-6 38t6 38t19 15h23q54 0 95 2.5t70 13.5l-12 154l83 23l8 -117q3 -42 26.5 -59t76.5 -17v-106z
M246 608l-15 -48h-91q-5 -15 -3 -30t10 -27t21 -19.5t30 -7.5q14 0 37 5.5t55 16.5l5 -57l-215 -79l-7 48l63 30q-24 15 -36.5 39.5t-12.5 49.5q0 20 6.5 41.5t23.5 49.5h121z" />
    <glyph glyph-name="u0628.init.rlig" horiz-adv-x="409" 
d="M0 0q-13 0 -19 15t-6 38t6 38t19 15h114q59 0 104 3.5t71 15.5q-2 16 -7 39.5t-12 49t-15.5 50.5t-17.5 45l66 48l17 -6q7 -18 14 -41t12 -47.5t8 -49.5t3 -46q0 -26 -6 -49t-15.5 -42.5t-21.5 -33.5t-24 -20q-19 -11 -65.5 -16.5t-110.5 -5.5h-114zM207 -140l-48 -73
l-85 53l45 75z" />
    <glyph glyph-name="u067E.init.rlig" horiz-adv-x="409" 
d="M0 0q-13 0 -19 15t-6 38t6 38t19 15h114q59 0 104 3.5t71 15.5q-2 16 -7 39.5t-12 49t-15.5 50.5t-17.5 45l66 48l17 -6q7 -18 14 -41t12 -47.5t8 -49.5t3 -46q0 -26 -6 -49t-15.5 -42.5t-21.5 -33.5t-24 -20q-19 -11 -65.5 -16.5t-110.5 -5.5h-114zM274 -138l-45 -75
l-88 55l48 73zM181 -346l-85 53l46 75l87 -55zM55 -85l88 -55l-48 -73l-86 53z" />
    <glyph glyph-name="u062A.init.rlig" horiz-adv-x="409" 
d="M0 0q-13 0 -19 15t-6 38t6 38t19 15h114q59 0 104 3.5t71 15.5q-2 16 -7 39.5t-12 49t-15.5 50.5t-17.5 45l66 48l17 -6q7 -18 14 -41t12 -47.5t8 -49.5t3 -46q0 -26 -6 -49t-15.5 -42.5t-21.5 -33.5t-24 -20q-19 -11 -65.5 -16.5t-110.5 -5.5h-114zM194 469l48 73
l85 -53l-45 -75zM108 542l88 -55l-48 -73l-86 53z" />
    <glyph glyph-name="u062B.init.rlig" horiz-adv-x="409" 
d="M0 0q-13 0 -19 15t-6 38t6 38t19 15h114q59 0 104 3.5t71 15.5q-2 16 -7 39.5t-12 49t-15.5 50.5t-17.5 45l66 48l17 -6q7 -18 14 -41t12 -47.5t8 -49.5t3 -46q0 -26 -6 -49t-15.5 -42.5t-21.5 -33.5t-24 -20q-19 -11 -65.5 -16.5t-110.5 -5.5h-114zM194 469l48 73
l85 -53l-45 -75zM155 675l86 -53l-46 -76l-88 56zM108 542l88 -55l-48 -73l-86 53z" />
    <glyph glyph-name="u06CC.init.rlig" horiz-adv-x="409" 
d="M0 0q-13 0 -19 15t-6 38t6 38t19 15h114q59 0 104 3.5t71 15.5q-2 16 -7 39.5t-12 49t-15.5 50.5t-17.5 45l66 48l17 -6q7 -18 14 -41t12 -47.5t8 -49.5t3 -46q0 -26 -6 -49t-15.5 -42.5t-21.5 -33.5t-24 -20q-19 -11 -65.5 -16.5t-110.5 -5.5h-114zM274 -138l-45 -75
l-88 55l48 73zM55 -85l88 -55l-48 -73l-86 53z" />
    <glyph glyph-name="u06A9.fina.salt" horiz-adv-x="906" 
d="M748 120q-2 25 -11.5 48t-25 40t-38 27.5t-50.5 10.5h-317q-44 0 -77.5 4t-55.5 15.5t-33 31t-11 49.5q0 26 15 55.5t39 58t55 54.5t62 46t60.5 31.5t51.5 11.5q15 0 33.5 -11.5t50.5 -34.5l-41 -67q-11 6 -21 10q-8 4 -16 7t-12 3q-21 0 -53.5 -15t-65.5 -37.5t-61 -48
t-40 -47.5q15 -21 114 -21h330q47 0 81.5 -18t57.5 -45t34.5 -59.5t11.5 -62.5q0 -9 -1 -18.5t-3 -18.5q14 -8 33.5 -10.5t47.5 -2.5h14v-106h-14q-27 0 -57.5 8t-53.5 40q-14 -21 -29 -28q-20 -11 -69.5 -15.5t-132.5 -4.5h-177q-32 0 -70.5 0.5t-78 1.5t-76.5 3t-66 5
l-42 91l10 15q74 -6 157 -8t177 -2h168q78 0 125.5 3t70.5 11z" />
    <glyph glyph-name="u06A9.medi.salt" horiz-adv-x="839" 
d="M0 0q-13 0 -19 15t-6 38t6 38t19 15h484q78 0 125.5 3t70.5 11q-2 25 -11.5 48t-25 40t-38 27.5t-50.5 10.5h-317q-44 0 -77.5 4t-55.5 15.5t-33 31t-11 49.5q0 26 15 55.5t39.5 58t55 54.5t62 46t60.5 31.5t51 11.5q15 0 33.5 -11.5t50.5 -34.5l-41 -67q-11 6 -21 10
q-8 4 -16 7t-12 3q-21 0 -53.5 -15t-65.5 -37.5t-61 -48t-40 -47.5q15 -21 115 -21h329q47 0 82 -18t58 -45t34 -59.5t11 -62.5q0 -9 -1 -18.5t-3 -18.5q14 -8 33.5 -10.5t47.5 -2.5h15v-106h-15q-27 0 -57.5 8t-53.5 40q-15 -21 -28 -28q-21 -11 -70.5 -15.5t-132.5 -4.5
h-482z" />
    <glyph glyph-name="u06A9.init.salt" horiz-adv-x="799" 
d="M0 0q-13 0 -19 15t-6 38t6 38t19 15h484q78 0 125.5 3t70.5 11q-2 25 -11.5 48t-25 40t-38 27.5t-50.5 10.5h-317q-44 0 -77.5 4t-55.5 15.5t-33 31t-11 49.5q0 26 15 55.5t39.5 58t55 54.5t62 46t60.5 31.5t51 11.5q15 0 33.5 -11.5t50.5 -34.5l-41 -67q-11 6 -21 10
q-8 4 -16 7t-12 3q-21 0 -53.5 -15t-65.5 -37.5t-61 -48t-40 -47.5q15 -21 115 -21h329q47 0 82 -18t58 -45t34 -59.5t11 -62.5q0 -21 -5.5 -42.5t-14 -40t-19.5 -33t-23 -20.5q-21 -11 -70.5 -15.5t-132.5 -4.5h-482z" />
    <glyph glyph-name="u06AF.salt" horiz-adv-x="867" 
d="M373 0q-32 0 -70.5 0.5t-78 1.5t-76.5 3t-66 5l-42 91l10 15q74 -6 157 -8t177 -2h168q78 0 125.5 3t70.5 11q-2 25 -11.5 48t-25 40t-38 27.5t-50.5 10.5h-317q-44 0 -77.5 4t-55.5 15.5t-33 31t-11 49.5q0 26 15 55.5t39 58t55 54.5t62 46t60.5 31.5t51.5 11.5
q15 0 33.5 -11.5t50.5 -34.5l-41 -67q-11 6 -21 10q-8 4 -16 7t-12 3q-21 0 -53.5 -15t-65.5 -37.5t-61 -48t-40 -47.5q15 -21 114 -21h330q47 0 81.5 -18t57.5 -45t34.5 -59.5t11.5 -62.5q0 -21 -5.5 -42.5t-14 -40t-20 -33t-23.5 -20.5q-20 -11 -69.5 -15.5t-132.5 -4.5
h-177zM333 639q-56 -32 -102.5 -70.5t-84.5 -82.5l-11 3l-11 41q14 19 33.5 39.5t42 40t47.5 37t50 31.5z" />
    <glyph glyph-name="u06AF.fina.salt" horiz-adv-x="911" 
d="M748 120q-2 25 -11.5 48t-25 40t-38 27.5t-50.5 10.5h-317q-44 0 -77.5 4t-55.5 15.5t-33 31t-11 49.5q0 26 15 55.5t39 58t55 54.5t62 46t60.5 31.5t51.5 11.5q15 0 33.5 -11.5t50.5 -34.5l-41 -67q-11 6 -21 10q-8 4 -16 7t-12 3q-21 0 -53.5 -15t-65.5 -37.5t-61 -48
t-40 -47.5q15 -21 114 -21h330q47 0 81.5 -18t57.5 -45t34.5 -59.5t11.5 -62.5q0 -9 -1 -18.5t-3 -18.5q14 -8 33.5 -10.5t47.5 -2.5h14v-106h-14q-27 0 -57.5 8t-53.5 40q-14 -21 -29 -28q-20 -11 -69.5 -15.5t-132.5 -4.5h-177q-32 0 -70.5 0.5t-78 1.5t-76.5 3t-66 5
l-42 91l10 15q74 -6 157 -8t177 -2h168q78 0 125.5 3t70.5 11zM333 639q-56 -32 -102.5 -70.5t-84.5 -82.5l-11 3l-11 41q14 19 33.5 39.5t42 40t47.5 37t50 31.5z" />
    <glyph glyph-name="u06AF.medi.salt" horiz-adv-x="843" 
d="M0 0q-13 0 -19 15t-6 38t6 38t19 15h484q78 0 125.5 3t70.5 11q-2 25 -11.5 48t-25 40t-38 27.5t-50.5 10.5h-317q-44 0 -77.5 4t-55.5 15.5t-33 31t-11 49.5q0 26 15 55.5t39.5 58t55 54.5t62 46t60.5 31.5t51 11.5q15 0 33.5 -11.5t50.5 -34.5l-41 -67q-11 6 -21 10
q-8 4 -16 7t-12 3q-21 0 -53.5 -15t-65.5 -37.5t-61 -48t-40 -47.5q15 -21 115 -21h329q47 0 82 -18t58 -45t34 -59.5t11 -62.5q0 -9 -1 -18.5t-3 -18.5q14 -8 33.5 -10.5t47.5 -2.5h15v-106h-15q-27 0 -57.5 8t-53.5 40q-15 -21 -28 -28q-21 -11 -70.5 -15.5t-132.5 -4.5
h-482zM265 639q-56 -32 -102 -70.5t-84 -82.5l-12 3l-11 41q15 19 34 39.5t41.5 40t47.5 37t50 31.5z" />
    <glyph glyph-name="u06AF.init.salt" horiz-adv-x="799" 
d="M0 0q-13 0 -19 15t-6 38t6 38t19 15h484q78 0 125.5 3t70.5 11q-2 25 -11.5 48t-25 40t-38 27.5t-50.5 10.5h-317q-44 0 -77.5 4t-55.5 15.5t-33 31t-11 49.5q0 26 15 55.5t39.5 58t55 54.5t62 46t60.5 31.5t51 11.5q15 0 33.5 -11.5t50.5 -34.5l-41 -67q-11 6 -21 10
q-8 4 -16 7t-12 3q-21 0 -53.5 -15t-65.5 -37.5t-61 -48t-40 -47.5q15 -21 115 -21h329q47 0 82 -18t58 -45t34 -59.5t11 -62.5q0 -21 -5.5 -42.5t-14 -40t-19.5 -33t-23 -20.5q-21 -11 -70.5 -15.5t-132.5 -4.5h-482zM265 639q-56 -32 -102 -70.5t-84 -82.5l-12 3l-11 41
q15 19 34 39.5t41.5 40t47.5 37t50 31.5z" />
    <glyph glyph-name="u06A9.rlig" horiz-adv-x="690" 
d="M340 479q3 16 7 26.5t10.5 17.5t17.5 11t29 8l243 61l11 -12l-12 -77l-225 -56q68 -54 109 -99t62.5 -82.5t28.5 -67.5t7 -52t-5.5 -43t-14.5 -38.5t-20.5 -30t-22.5 -18.5q-28 -14 -94.5 -23t-152.5 -9q-55 0 -103.5 4t-84.5 18t-57 42t-21 75q0 23 2 52t4 54l6 58
l65 -4q-4 -54 -6.5 -90.5t-3.5 -66.5q24 -19 77 -27.5t122 -8.5q81 0 146.5 6t104.5 20q-4 29 -19 61t-44 68.5t-72.5 77.5t-104.5 89z" />
    <glyph glyph-name="u06A9.init.rlig" horiz-adv-x="395" 
d="M0 0q-13 0 -19 15t-6 38t6 38t19 15h60q66 0 122.5 4.5t91.5 16.5q-4 29 -19 61t-44 68.5t-72.5 77.5t-104.5 89l11 56q3 16 7 26.5t10.5 17.5t17.5 11t29 8l243 61l11 -12l-12 -77l-225 -56q68 -54 109 -99t62.5 -82.5t28.5 -67.5t7 -52t-5.5 -43t-14.5 -38.5t-20.5 -30
t-22.5 -18.5q-26 -13 -83.5 -20t-138.5 -7h-48z" />
    <glyph glyph-name="u06AF.rlig" horiz-adv-x="695" 
d="M318 101q81 0 146.5 6t104.5 20q-7 57 -58.5 122t-159.5 151l11 56q4 16 7.5 27t10.5 17.5t17.5 11t28.5 8.5l227 57l10 -13l-11 -77l-209 -51q60 -49 96.5 -90t56 -75.5t26 -63t6.5 -50.5t-5.5 -43t-14.5 -38.5t-20.5 -30t-22.5 -18.5q-28 -14 -94.5 -23t-152.5 -9
q-55 0 -103.5 4t-84.5 18t-57 42t-21 75q0 23 2 52t4 54l6 58l65 -4q-4 -54 -6.5 -90.5t-3.5 -66.5q24 -19 77 -27.5t122 -8.5zM410 626l228 57l-10 -61l-225 -56z" />
    <glyph glyph-name="u06AF.init.rlig" horiz-adv-x="400" 
d="M0 0q-13 0 -19 15t-6 38t6 38t19 15h60q66 0 122.5 4.5t91.5 16.5q-7 57 -58.5 122t-159.5 151l11 56q4 16 7.5 27t10.5 17.5t17.5 11t28.5 8.5l227 57l10 -13l-11 -77l-209 -51q60 -49 96.5 -90t56 -75.5t26 -63t6.5 -50.5t-5.5 -43t-14.5 -38.5t-20.5 -30t-22.5 -18.5
q-26 -13 -83.5 -20t-138.5 -7h-48zM115 626l228 57l-10 -61l-225 -56z" />
    <glyph glyph-name="uni067E0646.fina" horiz-adv-x="855" 
d="M855 0q-38 0 -63.5 8t-43 25.5t-27.5 45t-16 66.5l-8 45q-37 -11 -78 -20t-80 -14q15 -89 15 -167q0 -43 -7.5 -75.5t-15.5 -46.5q-5 -9 -25.5 -26t-55.5 -34t-83.5 -29.5t-108.5 -12.5q-63 0 -104 13.5t-65.5 36.5t-34 52.5t-9.5 62.5q0 23 2.5 61t6.5 75q4 43 10 91
l65 -3q-3 -48 -6 -92q-2 -38 -5 -77t-4 -62q19 -23 54.5 -37.5t89.5 -14.5q31 0 64 4.5t63 13t56 19.5t44 24q-2 34 -6.5 69.5t-10 68.5t-12 61.5t-11.5 49.5l35 60q30 3 63 8.5t66 12.5t64 15.5t58 17.5l20 -12l16 -98q8 -45 28.5 -62t59.5 -17v-106zM670 -85l88 -55
l-48 -73l-86 53zM293 230l-85 53l45 75l88 -55zM889 -138l-45 -75l-88 55l48 73zM796 -346l-85 53l46 75l87 -55z" />
    <glyph glyph-name="uni062806CC.fina" horiz-adv-x="820" 
d="M795 0q-64 0 -107.5 29.5t-76 70t-57.5 82t-53 65.5q-27 0 -56.5 -12.5t-55 -33.5t-45 -48t-26.5 -55q5 -4 15 -7.5t28.5 -7t47 -7.5t70.5 -9q32 -5 52 -11.5t30.5 -17t14 -24.5t3.5 -32q0 -19 -2.5 -38.5t-6 -36.5t-8 -30t-7.5 -19q-5 -9 -25.5 -26t-56.5 -34
t-87.5 -29.5t-116.5 -12.5t-107 13.5t-66.5 36.5t-34 52.5t-9.5 62.5q0 23 2.5 61t6.5 75q4 43 10 91l65 -3q-3 -48 -6 -92q-2 -38 -5 -77t-4 -62q19 -23 54.5 -37.5t93.5 -14.5q69 0 132 16t106 39q2 12 2.5 22.5t-0.5 23.5q-19 7 -55.5 9.5t-74.5 7.5q-35 5 -58.5 12
t-38 18t-20.5 27t-6 39q0 45 22 92.5t58 86t83 63t98 24.5q17 0 33 -17.5t33.5 -43.5t38 -57t46.5 -57t59.5 -43.5t77.5 -17.5h15v-106h-25zM813 -140l-48 -73l-85 53l45 75z" />
    <glyph glyph-name="pi" horiz-adv-x="820" 
d="M795 0q-64 0 -107.5 29.5t-76 70t-57.5 82t-53 65.5q-27 0 -56.5 -12.5t-55 -33.5t-45 -48t-26.5 -55q5 -4 15 -7.5t28.5 -7t47 -7.5t70.5 -9q32 -5 52 -11.5t30.5 -17t14 -24.5t3.5 -32q0 -19 -2.5 -38.5t-6 -36.5t-8 -30t-7.5 -19q-5 -9 -25.5 -26t-56.5 -34
t-87.5 -29.5t-116.5 -12.5t-107 13.5t-66.5 36.5t-34 52.5t-9.5 62.5q0 23 2.5 61t6.5 75q4 43 10 91l65 -3q-3 -48 -6 -92q-2 -38 -5 -77t-4 -62q19 -23 54.5 -37.5t93.5 -14.5q69 0 132 16t106 39q2 12 2.5 22.5t-0.5 23.5q-19 7 -55.5 9.5t-74.5 7.5q-35 5 -58.5 12
t-38 18t-20.5 27t-6 39q0 45 22 92.5t58 86t83 63t98 24.5q17 0 33 -17.5t33.5 -43.5t38 -57t46.5 -57t59.5 -43.5t77.5 -17.5h15v-106h-25zM661 -85l88 -55l-48 -73l-86 53zM880 -138l-45 -75l-88 55l48 73zM787 -346l-85 53l46 75l87 -55z" />
    <glyph glyph-name="uni06CC06CC.fina" horiz-adv-x="820" 
d="M795 0q-64 0 -107.5 29.5t-76 70t-57.5 82t-53 65.5q-27 0 -56.5 -12.5t-55 -33.5t-45 -48t-26.5 -55q5 -4 15 -7.5t28.5 -7t47 -7.5t70.5 -9q32 -5 52 -11.5t30.5 -17t14 -24.5t3.5 -32q0 -19 -2.5 -38.5t-6 -36.5t-8 -30t-7.5 -19q-5 -9 -25.5 -26t-56.5 -34
t-87.5 -29.5t-116.5 -12.5t-107 13.5t-66.5 36.5t-34 52.5t-9.5 62.5q0 23 2.5 61t6.5 75q4 43 10 91l65 -3q-3 -48 -6 -92q-2 -38 -5 -77t-4 -62q19 -23 54.5 -37.5t93.5 -14.5q69 0 132 16t106 39q2 12 2.5 22.5t-0.5 23.5q-19 7 -55.5 9.5t-74.5 7.5q-35 5 -58.5 12
t-38 18t-20.5 27t-6 39q0 45 22 92.5t58 86t83 63t98 24.5q17 0 33 -17.5t33.5 -43.5t38 -57t46.5 -57t59.5 -43.5t77.5 -17.5h15v-106h-25zM661 -85l88 -55l-48 -73l-86 53zM880 -138l-45 -75l-88 55l48 73z" />
    <glyph glyph-name="uni062806CC.fina.ss02" horiz-adv-x="513" 
d="M513 0q-53 0 -88.5 17t-61 43t-45 56.5t-40.5 56.5q-25 -6 -51 -22t-49.5 -38.5t-41.5 -50.5t-27 -58q7 -24 22 -45t40.5 -36.5t63.5 -24.5t91 -9q27 0 66.5 0.5t83.5 1t88.5 2t80.5 4.5l8 -16l-30 -82q-32 -2 -76.5 -3.5t-89 -2.5t-83 -1.5t-58.5 -0.5q-131 0 -197.5 49
t-66.5 146q0 55 24.5 106t61 90.5t79 63t78.5 23.5q14 0 26 -12t24.5 -30t27 -39.5t34 -39.5t45.5 -30t61 -12v-106zM383 -325l-48 -73l-85 53l45 75z" />
    <glyph glyph-name="pi.ss02" horiz-adv-x="513" 
d="M513 0q-53 0 -88.5 17t-61 43t-45 56.5t-40.5 56.5q-25 -6 -51 -22t-49.5 -38.5t-41.5 -50.5t-27 -58q7 -24 22 -45t40.5 -36.5t63.5 -24.5t91 -9q27 0 66.5 0.5t83.5 1t88.5 2t80.5 4.5l8 -16l-30 -82q-32 -2 -76.5 -3.5t-89 -2.5t-83 -1.5t-58.5 -0.5q-131 0 -197.5 49
t-66.5 146q0 55 24.5 106t61 90.5t79 63t78.5 23.5q14 0 26 -12t24.5 -30t27 -39.5t34 -39.5t45.5 -30t61 -12v-106zM231 -270l88 -55l-48 -73l-86 53zM450 -323l-45 -75l-88 55l48 73zM357 -531l-85 53l46 75l87 -55z" />
    <glyph glyph-name="tehalefmaksuraarab.fina.ss02" horiz-adv-x="513" 
d="M513 0q-53 0 -88.5 17t-61 43t-45 56.5t-40.5 56.5q-25 -6 -51 -22t-49.5 -38.5t-41.5 -50.5t-27 -58q7 -24 22 -45t40.5 -36.5t63.5 -24.5t91 -9q27 0 66.5 0.5t83.5 1t88.5 2t80.5 4.5l8 -16l-30 -82q-32 -2 -76.5 -3.5t-89 -2.5t-83 -1.5t-58.5 -0.5q-131 0 -197.5 49
t-66.5 146q0 55 24.5 106t61 90.5t79 63t78.5 23.5q14 0 26 -12t24.5 -30t27 -39.5t34 -39.5t45.5 -30t61 -12v-106zM185 464l88 -55l-48 -73l-86 53zM271 391l48 73l85 -53l-45 -75z" />
    <glyph glyph-name="thehalefmaksuraarab.fina.ss02" horiz-adv-x="513" 
d="M513 0q-53 0 -88.5 17t-61 43t-45 56.5t-40.5 56.5q-25 -6 -51 -22t-49.5 -38.5t-41.5 -50.5t-27 -58q7 -24 22 -45t40.5 -36.5t63.5 -24.5t91 -9q27 0 66.5 0.5t83.5 1t88.5 2t80.5 4.5l8 -16l-30 -82q-32 -2 -76.5 -3.5t-89 -2.5t-83 -1.5t-58.5 -0.5q-131 0 -197.5 49
t-66.5 146q0 55 24.5 106t61 90.5t79 63t78.5 23.5q14 0 26 -12t24.5 -30t27 -39.5t34 -39.5t45.5 -30t61 -12v-106zM232 597l86 -53l-46 -76l-88 56zM185 464l88 -55l-48 -73l-86 53zM271 391l48 73l85 -53l-45 -75z" />
    <glyph glyph-name="noonalefmaksuraarab.fina.ss02" horiz-adv-x="513" 
d="M513 0q-53 0 -88.5 17t-61 43t-45 56.5t-40.5 56.5q-25 -6 -51 -22t-49.5 -38.5t-41.5 -50.5t-27 -58q7 -24 22 -45t40.5 -36.5t63.5 -24.5t91 -9q27 0 66.5 0.5t83.5 1t88.5 2t80.5 4.5l8 -16l-30 -82q-32 -2 -76.5 -3.5t-89 -2.5t-83 -1.5t-58.5 -0.5q-131 0 -197.5 49
t-66.5 146q0 55 24.5 106t61 90.5t79 63t78.5 23.5q14 0 26 -12t24.5 -30t27 -39.5t34 -39.5t45.5 -30t61 -12v-106zM204 389l45 75l88 -55l-48 -73z" />
    <glyph glyph-name="uni06CC06CC.fina.ss02" horiz-adv-x="513" 
d="M513 0q-53 0 -88.5 17t-61 43t-45 56.5t-40.5 56.5q-25 -6 -51 -22t-49.5 -38.5t-41.5 -50.5t-27 -58q7 -24 22 -45t40.5 -36.5t63.5 -24.5t91 -9q27 0 66.5 0.5t83.5 1t88.5 2t80.5 4.5l8 -16l-30 -82q-32 -2 -76.5 -3.5t-89 -2.5t-83 -1.5t-58.5 -0.5q-131 0 -197.5 49
t-66.5 146q0 55 24.5 106t61 90.5t79 63t78.5 23.5q14 0 26 -12t24.5 -30t27 -39.5t34 -39.5t45.5 -30t61 -12v-106zM231 -270l88 -55l-48 -73l-86 53zM450 -323l-45 -75l-88 55l48 73z" />
    <glyph glyph-name="yehhamzaabovealefmaksuraarab.fina.ss02" horiz-adv-x="513" 
d="M513 0q-53 0 -88.5 17t-61 43t-45 56.5t-40.5 56.5q-25 -6 -51 -22t-49.5 -38.5t-41.5 -50.5t-27 -58q7 -24 22 -45t40.5 -36.5t63.5 -24.5t91 -9q27 0 66.5 0.5t83.5 1t88.5 2t80.5 4.5l8 -16l-30 -82q-32 -2 -76.5 -3.5t-89 -2.5t-83 -1.5t-58.5 -0.5q-131 0 -197.5 49
t-66.5 146q0 55 24.5 106t61 90.5t79 63t78.5 23.5q14 0 26 -12t24.5 -30t27 -39.5t34 -39.5t45.5 -30t61 -12v-106zM334 572l-15 -48h-91q-5 -15 -3 -30t10 -27t21 -19.5t30 -7.5q14 0 37 5.5t55 16.5l5 -57l-215 -79l-7 48l63 30q-24 15 -36.5 39.5t-12.5 49.5
q0 20 6.5 41.5t23.5 49.5h121z" />
    <glyph glyph-name="uni067E0631.fina" horiz-adv-x="499" 
d="M499 0q-38 0 -63.5 8t-42.5 25.5t-27 45t-16 66.5l-8 45q-35 -11 -73.5 -19.5t-76.5 -13.5q7 -29 11.5 -59t4.5 -56q0 -65 -19.5 -116t-46.5 -85.5t-55.5 -52.5t-46.5 -18q-8 0 -32.5 4t-85.5 17v39q41 10 77 30t64.5 45t48.5 54.5t29 59.5q-3 19 -9 41.5t-13 44.5
t-14.5 41.5t-13.5 32.5l33 62q62 6 130 21t122 33l20 -12l16 -98q8 -45 28.5 -62t58.5 -17v-106zM276 -85l88 -55l-48 -73l-86 53zM495 -138l-45 -75l-88 55l48 73zM402 -346l-85 53l46 75l87 -55z" />
    <glyph glyph-name="uni067E0632.fina" horiz-adv-x="499" 
d="M499 0q-38 0 -63.5 8t-42.5 25.5t-27 45t-16 66.5l-8 45q-35 -11 -73.5 -19.5t-76.5 -13.5q7 -29 11.5 -59t4.5 -56q0 -65 -19.5 -116t-46.5 -85.5t-55.5 -52.5t-46.5 -18q-8 0 -32.5 4t-85.5 17v39q41 10 77 30t64.5 45t48.5 54.5t29 59.5q-3 19 -9 41.5t-13 44.5
t-14.5 41.5t-13.5 32.5l33 62q62 6 130 21t122 33l20 -12l16 -98q8 -45 28.5 -62t58.5 -17v-106zM276 -85l88 -55l-48 -73l-86 53zM128 337l-85 53l45 75l88 -55zM495 -138l-45 -75l-88 55l48 73zM402 -346l-85 53l46 75l87 -55z" />
    <glyph glyph-name="uni062B0632.fina" horiz-adv-x="499" 
d="M499 0q-38 0 -63.5 8t-42.5 25.5t-27 45t-16 66.5l-8 45q-35 -11 -73.5 -19.5t-76.5 -13.5q7 -29 11.5 -59t4.5 -56q0 -65 -19.5 -116t-46.5 -85.5t-55.5 -52.5t-46.5 -18q-8 0 -32.5 4t-85.5 17v39q41 10 77 30t64.5 45t48.5 54.5t29 59.5q-3 19 -9 41.5t-13 44.5
t-14.5 41.5t-13.5 32.5l33 62q62 6 130 21t122 33l20 -12l16 -98q8 -45 28.5 -62t58.5 -17v-106zM314 642l86 -53l-46 -76l-88 56zM267 509l88 -55l-48 -73l-86 53zM353 436l48 73l85 -53l-45 -75zM128 337l-85 53l45 75l88 -55z" />
    <glyph glyph-name="uni06280698.fina" horiz-adv-x="499" 
d="M499 0q-38 0 -63.5 8t-42.5 25.5t-27 45t-16 66.5l-8 45q-35 -11 -73.5 -19.5t-76.5 -13.5q7 -29 11.5 -59t4.5 -56q0 -65 -19.5 -116t-46.5 -85.5t-55.5 -52.5t-46.5 -18q-8 0 -32.5 4t-85.5 17v39q41 10 77 30t64.5 45t48.5 54.5t29 59.5q-3 19 -9 41.5t-13 44.5
t-14.5 41.5t-13.5 32.5l33 62q62 6 130 21t122 33l20 -12l16 -98q8 -45 28.5 -62t58.5 -17v-106zM71 598l86 -53l-46 -76l-88 56zM24 465l88 -55l-48 -73l-86 53zM198 337l-88 55l48 73l85 -53zM428 -140l-48 -73l-85 53l45 75z" />
    <glyph glyph-name="uni067E0698.fina" horiz-adv-x="499" 
d="M499 0q-38 0 -63.5 8t-42.5 25.5t-27 45t-16 66.5l-8 45q-35 -11 -73.5 -19.5t-76.5 -13.5q7 -29 11.5 -59t4.5 -56q0 -65 -19.5 -116t-46.5 -85.5t-55.5 -52.5t-46.5 -18q-8 0 -32.5 4t-85.5 17v39q41 10 77 30t64.5 45t48.5 54.5t29 59.5q-3 19 -9 41.5t-13 44.5
t-14.5 41.5t-13.5 32.5l33 62q62 6 130 21t122 33l20 -12l16 -98q8 -45 28.5 -62t58.5 -17v-106zM71 598l86 -53l-46 -76l-88 56zM276 -85l88 -55l-48 -73l-86 53zM24 465l88 -55l-48 -73l-86 53zM198 337l-88 55l48 73l85 -53zM495 -138l-45 -75l-88 55l48 73zM402 -346
l-85 53l46 75l87 -55z" />
    <glyph glyph-name="uni062A0698.fina" horiz-adv-x="499" 
d="M499 0q-38 0 -63.5 8t-42.5 25.5t-27 45t-16 66.5l-8 45q-35 -11 -73.5 -19.5t-76.5 -13.5q7 -29 11.5 -59t4.5 -56q0 -65 -19.5 -116t-46.5 -85.5t-55.5 -52.5t-46.5 -18q-8 0 -32.5 4t-85.5 17v39q41 10 77 30t64.5 45t48.5 54.5t29 59.5q-3 19 -9 41.5t-13 44.5
t-14.5 41.5t-13.5 32.5l33 62q62 6 130 21t122 33l20 -12l16 -98q8 -45 28.5 -62t58.5 -17v-106zM71 598l86 -53l-46 -76l-88 56zM321 509l88 -55l-48 -73l-86 53zM24 465l88 -55l-48 -73l-86 53zM198 337l-88 55l48 73l85 -53zM407 436l48 73l85 -53l-45 -75z" />
    <glyph glyph-name="uni062B0698.fina" horiz-adv-x="499" 
d="M499 0q-38 0 -63.5 8t-42.5 25.5t-27 45t-16 66.5l-8 45q-35 -11 -73.5 -19.5t-76.5 -13.5q7 -29 11.5 -59t4.5 -56q0 -65 -19.5 -116t-46.5 -85.5t-55.5 -52.5t-46.5 -18q-8 0 -32.5 4t-85.5 17v39q41 10 77 30t64.5 45t48.5 54.5t29 59.5q-3 19 -9 41.5t-13 44.5
t-14.5 41.5t-13.5 32.5l33 62q62 6 130 21t122 33l20 -12l16 -98q8 -45 28.5 -62t58.5 -17v-106zM71 598l86 -53l-46 -76l-88 56zM368 642l86 -53l-46 -76l-88 56zM321 509l88 -55l-48 -73l-86 53zM24 465l88 -55l-48 -73l-86 53zM198 337l-88 55l48 73l85 -53zM407 436
l48 73l85 -53l-45 -75z" />
    <glyph glyph-name="uni06460698.fina" horiz-adv-x="499" 
d="M499 0q-38 0 -63.5 8t-42.5 25.5t-27 45t-16 66.5l-8 45q-35 -11 -73.5 -19.5t-76.5 -13.5q7 -29 11.5 -59t4.5 -56q0 -65 -19.5 -116t-46.5 -85.5t-55.5 -52.5t-46.5 -18q-8 0 -32.5 4t-85.5 17v39q41 10 77 30t64.5 45t48.5 54.5t29 59.5q-3 19 -9 41.5t-13 44.5
t-14.5 41.5t-13.5 32.5l33 62q62 6 130 21t122 33l20 -12l16 -98q8 -45 28.5 -62t58.5 -17v-106zM71 598l86 -53l-46 -76l-88 56zM24 465l88 -55l-48 -73l-86 53zM198 337l-88 55l48 73l85 -53zM340 434l45 75l88 -55l-48 -73z" />
    <glyph glyph-name="uni06CC0698.fina" horiz-adv-x="499" 
d="M499 0q-38 0 -63.5 8t-42.5 25.5t-27 45t-16 66.5l-8 45q-35 -11 -73.5 -19.5t-76.5 -13.5q7 -29 11.5 -59t4.5 -56q0 -65 -19.5 -116t-46.5 -85.5t-55.5 -52.5t-46.5 -18q-8 0 -32.5 4t-85.5 17v39q41 10 77 30t64.5 45t48.5 54.5t29 59.5q-3 19 -9 41.5t-13 44.5
t-14.5 41.5t-13.5 32.5l33 62q62 6 130 21t122 33l20 -12l16 -98q8 -45 28.5 -62t58.5 -17v-106zM71 598l86 -53l-46 -76l-88 56zM276 -85l88 -55l-48 -73l-86 53zM24 465l88 -55l-48 -73l-86 53zM198 337l-88 55l48 73l85 -53zM495 -138l-45 -75l-88 55l48 73z" />
    <glyph glyph-name="uni06260698.fina" horiz-adv-x="499" 
d="M499 0q-38 0 -63.5 8t-42.5 25.5t-27 45t-16 66.5l-8 45q-35 -11 -73.5 -19.5t-76.5 -13.5q7 -29 11.5 -59t4.5 -56q0 -65 -19.5 -116t-46.5 -85.5t-55.5 -52.5t-46.5 -18q-8 0 -32.5 4t-85.5 17v39q41 10 77 30t64.5 45t48.5 54.5t29 59.5q-3 19 -9 41.5t-13 44.5
t-14.5 41.5t-13.5 32.5l33 62q62 6 130 21t122 33l20 -12l16 -98q8 -45 28.5 -62t58.5 -17v-106zM470 617l-15 -48h-91q-5 -15 -3 -30t10 -27t21 -19.5t30 -7.5q14 0 37 5.5t55 16.5l5 -57l-215 -79l-7 48l63 30q-24 15 -36.5 39.5t-12.5 49.5q0 20 6.5 41.5t23.5 49.5h121z
M71 598l86 -53l-46 -76l-88 56zM24 465l88 -55l-48 -73l-86 53zM198 337l-88 55l48 73l85 -53z" />
    <glyph glyph-name="uni063406CC.fina" horiz-adv-x="1231" 
d="M1231 0q-38 0 -68 13.5t-48 57.5q-11 -23 -20.5 -34t-18.5 -17q-14 -9 -34 -14.5t-43 -5.5q-32 0 -60 13t-46 55q-11 -21 -18.5 -31.5t-18.5 -16.5q-14 -9 -36.5 -14.5t-49.5 -5.5q-53 0 -91.5 29.5t-68.5 70t-55.5 82t-53.5 65.5q-27 0 -56.5 -12.5t-55 -33.5t-45 -48
t-26.5 -55q5 -4 15 -7.5t28.5 -7t47 -7.5t70.5 -9q32 -5 52 -11.5t30.5 -17t14 -24.5t3.5 -32q0 -19 -2.5 -38.5t-6 -36.5t-8 -30t-7.5 -19q-5 -9 -25.5 -26t-56.5 -34t-87.5 -29.5t-116.5 -12.5t-107 13.5t-66.5 36.5t-34 52.5t-9.5 62.5q0 23 2.5 61t6.5 75q4 43 10 91
l65 -3q-3 -48 -6 -92q-2 -38 -5 -77t-4 -62q19 -23 54.5 -37.5t93.5 -14.5q69 0 132 16t106 39q2 12 2.5 22.5t-0.5 23.5q-19 7 -55.5 9.5t-74.5 7.5q-35 5 -58.5 12t-38 18t-20.5 27t-6 39q0 45 22 92.5t58 86t83 63t98 24.5q17 0 33 -17.5t33.5 -43.5t36.5 -57t42 -57
t51 -43.5t62 -17.5q44 0 76 13l27 146h62q-1 -26 -1.5 -42t-0.5 -25.5v-15v-8.5q0 -35 19.5 -51.5t46.5 -16.5q18 0 34.5 3.5t28.5 8.5q5 22 9.5 51.5t9.5 56.5l10 64h64q-1 -32 -1.5 -52.5t-1 -33.5t-0.5 -20v-10q0 -33 19.5 -50.5t54.5 -17.5v-106zM860 603l86 -53
l-46 -76l-88 56zM813 470l88 -55l-48 -73l-86 53zM899 397l48 73l85 -53l-45 -75z" />
    <glyph glyph-name="seenalefmaksuraarab.isol.ss02" horiz-adv-x="947" 
d="M729 0q-32 0 -60 13t-46 55q-11 -21 -18.5 -31.5t-18.5 -16.5q-14 -9 -36.5 -14.5t-49.5 -5.5q-47 0 -80 17.5t-58 43.5t-44.5 56t-39.5 56q-25 -6 -51 -22t-49.5 -38.5t-41.5 -50.5t-27 -58q7 -24 22 -45t40.5 -36.5t63.5 -24.5t91 -9q27 0 66.5 0.5t83.5 1t88.5 2
t80.5 4.5l8 -16l-30 -82q-32 -2 -76.5 -3.5t-89 -2.5t-83 -1.5t-58.5 -0.5q-131 0 -197.5 49t-66.5 146q0 55 24.5 106t61 90.5t79 63t78.5 23.5q14 0 26 -12t24.5 -30t26.5 -39.5t32.5 -39.5t43 -30t57.5 -12q44 0 76 13l27 146h62q-1 -26 -1.5 -42t-0.5 -25.5v-15v-8.5
q0 -35 19.5 -51.5t46.5 -16.5q23 0 49 5.5t45 13.5q-2 19 -6.5 42.5t-11.5 47.5t-15 47.5t-16 43.5l65 51l17 -6q17 -46 25.5 -91t8.5 -90q0 -26 -6.5 -49.5t-16.5 -43t-20.5 -32.5t-18.5 -18q-20 -15 -46.5 -21t-57.5 -6z" />
    <glyph glyph-name="seenalefmaksuraarab.fina.ss02" horiz-adv-x="961" 
d="M961 0q-38 0 -68 13.5t-48 57.5q-11 -23 -20.5 -34t-18.5 -17q-14 -9 -34 -14.5t-43 -5.5q-32 0 -60 13t-46 55q-11 -21 -18.5 -31.5t-18.5 -16.5q-14 -9 -36.5 -14.5t-49.5 -5.5q-47 0 -80 17.5t-58 43.5t-44.5 56t-39.5 56q-25 -6 -51 -22t-49.5 -38.5t-41.5 -50.5
t-27 -58q7 -24 22 -45t40.5 -36.5t63.5 -24.5t91 -9q27 0 66.5 0.5t83.5 1t88.5 2t80.5 4.5l8 -16l-30 -82q-32 -2 -76.5 -3.5t-89 -2.5t-83 -1.5t-58.5 -0.5q-131 0 -197.5 49t-66.5 146q0 55 24.5 106t61 90.5t79 63t78.5 23.5q14 0 26 -12t24.5 -30t26.5 -39.5
t32.5 -39.5t43 -30t57.5 -12q44 0 76 13l27 146h62q-1 -26 -1.5 -42t-0.5 -25.5v-15v-8.5q0 -35 19.5 -51.5t46.5 -16.5q18 0 34.5 3.5t28.5 8.5q5 22 9.5 51.5t9.5 56.5l10 64h64q-1 -32 -1.5 -52.5t-1 -33.5t-0.5 -20v-10q0 -33 19.5 -50.5t54.5 -17.5v-106v0z" />
    <glyph glyph-name="sheenalefmaksuraarab.isol.ss02" horiz-adv-x="947" 
d="M729 0q-32 0 -60 13t-46 55q-11 -21 -18.5 -31.5t-18.5 -16.5q-14 -9 -36.5 -14.5t-49.5 -5.5q-47 0 -80 17.5t-58 43.5t-44.5 56t-39.5 56q-25 -6 -51 -22t-49.5 -38.5t-41.5 -50.5t-27 -58q7 -24 22 -45t40.5 -36.5t63.5 -24.5t91 -9q27 0 66.5 0.5t83.5 1t88.5 2
t80.5 4.5l8 -16l-30 -82q-32 -2 -76.5 -3.5t-89 -2.5t-83 -1.5t-58.5 -0.5q-131 0 -197.5 49t-66.5 146q0 55 24.5 106t61 90.5t79 63t78.5 23.5q14 0 26 -12t24.5 -30t26.5 -39.5t32.5 -39.5t43 -30t57.5 -12q44 0 76 13l27 146h62q-1 -26 -1.5 -42t-0.5 -25.5v-15v-8.5
q0 -35 19.5 -51.5t46.5 -16.5q23 0 49 5.5t45 13.5q-2 19 -6.5 42.5t-11.5 47.5t-15 47.5t-16 43.5l65 51l17 -6q17 -46 25.5 -91t8.5 -90q0 -26 -6.5 -49.5t-16.5 -43t-20.5 -32.5t-18.5 -18q-20 -15 -46.5 -21t-57.5 -6zM580 603l86 -53l-46 -76l-88 56zM533 470l88 -55
l-48 -73l-86 53zM619 397l48 73l85 -53l-45 -75z" />
    <glyph glyph-name="uni063406CC.fina.ss02" horiz-adv-x="961" 
d="M961 0q-38 0 -68 13.5t-48 57.5q-11 -23 -20.5 -34t-18.5 -17q-14 -9 -34 -14.5t-43 -5.5q-32 0 -60 13t-46 55q-11 -21 -18.5 -31.5t-18.5 -16.5q-14 -9 -36.5 -14.5t-49.5 -5.5q-47 0 -80 17.5t-58 43.5t-44.5 56t-39.5 56q-25 -6 -51 -22t-49.5 -38.5t-41.5 -50.5
t-27 -58q7 -24 22 -45t40.5 -36.5t63.5 -24.5t91 -9q27 0 66.5 0.5t83.5 1t88.5 2t80.5 4.5l8 -16l-30 -82q-32 -2 -76.5 -3.5t-89 -2.5t-83 -1.5t-58.5 -0.5q-131 0 -197.5 49t-66.5 146q0 55 24.5 106t61 90.5t79 63t78.5 23.5q14 0 26 -12t24.5 -30t26.5 -39.5
t32.5 -39.5t43 -30t57.5 -12q44 0 76 13l27 146h62q-1 -26 -1.5 -42t-0.5 -25.5v-15v-8.5q0 -35 19.5 -51.5t46.5 -16.5q18 0 34.5 3.5t28.5 8.5q5 22 9.5 51.5t9.5 56.5l10 64h64q-1 -32 -1.5 -52.5t-1 -33.5t-0.5 -20v-10q0 -33 19.5 -50.5t54.5 -17.5v-106zM590 603
l86 -53l-46 -76l-88 56zM543 470l88 -55l-48 -73l-86 53zM629 397l48 73l85 -53l-45 -75z" />
    <glyph glyph-name="sadalefmaksuraarab.isol.ss02" horiz-adv-x="876" 
d="M523 0q-57 0 -94.5 17t-64 43t-46 56.5t-40.5 56.5q-25 -6 -51 -22t-49.5 -38.5t-41.5 -50.5t-27 -58q7 -24 22 -45t40.5 -36.5t63.5 -24.5t91 -9q27 0 66.5 0.5t83.5 1t88.5 2t80.5 4.5l8 -16l-30 -82q-32 -2 -76.5 -3.5t-89 -2.5t-83 -1.5t-58.5 -0.5q-131 0 -197.5 49
t-66.5 146q0 55 24.5 106t61 90.5t79 63t78.5 23.5q13 0 23.5 -10t21 -25t23 -33.5t28.5 -35.5q86 73 137.5 115.5t80 63.5t41 26.5t21.5 5.5q25 0 52.5 -15t49.5 -42.5t36.5 -65t14.5 -82.5q0 -17 -5 -38.5t-14 -42.5t-22 -38t-29 -24q-31 -14 -79 -21t-120 -7h-32z
M646 278q-8 0 -21.5 -7.5t-37.5 -24.5t-60.5 -46.5t-88.5 -72.5q17 -10 38.5 -15.5t47.5 -5.5h70q63 0 100 5t61 16q-1 30 -12.5 57t-28 48t-35 33.5t-33.5 12.5z" />
    <glyph glyph-name="sadalefmaksuraarab.fina.ss02" horiz-adv-x="907" 
d="M896 0q-28 0 -59.5 9t-53.5 43q-14 -17 -29 -24q-31 -14 -79 -21t-120 -7h-32q-57 0 -94.5 17t-64 43t-46 56.5t-40.5 56.5q-25 -6 -51 -22t-49.5 -38.5t-41.5 -50.5t-27 -58q7 -24 22 -45t40.5 -36.5t63.5 -24.5t91 -9q27 0 66.5 0.5t83.5 1t88.5 2t80.5 4.5l8 -16
l-30 -82q-32 -2 -76.5 -3.5t-89 -2.5t-83 -1.5t-58.5 -0.5q-131 0 -197.5 49t-66.5 146q0 55 24.5 106t61 90.5t79 63t78.5 23.5q13 0 23.5 -10t21 -25t23 -33.5t28.5 -35.5q86 73 137.5 115.5t80 63.5t41 26.5t21.5 5.5q25 0 52.5 -15t49.5 -42.5t36.5 -65t14.5 -82.5
q0 -23 -8 -53q14 -8 33 -10t47 -2h11v-106h-11zM646 278q-8 0 -21.5 -7.5t-37.5 -24.5t-60.5 -46.5t-88.5 -72.5q17 -10 38.5 -15.5t47.5 -5.5h70q63 0 100 5t61 16q-1 30 -12.5 57t-28 48t-35 33.5t-33.5 12.5z" />
    </font>
</defs>
</svg>
