<?xml version="1.0" standalone="no"?>
<!DOCTYPE svg PUBLIC "-//W3C//DTD SVG 1.1//EN" "http://www.w3.org/Graphics/SVG/1.1/DTD/svg11.dtd" >
<svg xmlns="http://www.w3.org/2000/svg" xmlns:xlink="http://www.w3.org/1999/xlink" version="1.1">
<metadata>
Created by FontForge 20170731 at Tue Apr 19 08:09:27 2022
 By Aleksey,,,
</metadata>
<defs>
<font id="RayFaNum-Light" horiz-adv-x="0" >
  <font-face 
    font-family="Ray Fa-Num Light"
    font-weight="300"
    font-stretch="normal"
    units-per-em="1000"
    panose-1="2 0 4 4 0 0 0 2 0 4"
    ascent="800"
    descent="-200"
    x-height="434"
    cap-height="607"
    bbox="-145 -470 1215 960"
    underline-thickness="50"
    underline-position="-150"
    unicode-range="U+0020-FFFC"
  />
<missing-glyph horiz-adv-x="605" 
d="M173 103h259v509h-259v-509zM80 715h445v-715h-445v715z" />
    <glyph glyph-name="u0671" unicode="&#x627;&#x64b;" horiz-adv-x="205" 
d="M89 5l-6 295q-1 37 -2 66t-3.5 52.5t-8 43t-14.5 38.5l40 35q22 -41 26 -93t4 -127v-308l-26 -7zM185 675l5 -30l-215 -85l-5 30zM185 785l5 -30l-215 -85l-5 30z" />
    <glyph glyph-name="uFB51" unicode="&#xfe8e;&#x64b;" horiz-adv-x="230" arabic-form="final" 
d="M220 0q-39 0 -65 9t-41.5 25.5t-22 39.5t-6.5 51v175q0 37 -1 66t-4.5 52.5t-9.5 43t-15 38.5l40 35q22 -41 26 -93t4 -127v-225q11 -20 36 -30t59 -10h10v-50h-10zM185 675l5 -30l-215 -85l-5 30zM185 785l5 -30l-215 -85l-5 30z" />
    <glyph glyph-name="uFDF2" unicode="&#x627;&#xfedf;&#xfee0;&#xfeea;" horiz-adv-x="1066" arabic-form="isolated" 
d="M190 45q-64 0 -92 23.5t-28 76.5q0 23 2 40t8 39q6 10 26.5 26t46.5 34t55.5 36t53.5 33l-12 72l30 15l15 -5l55 -350q11 -19 37.5 -27t52.5 -8t56.5 4.5t48.5 15.5l-7 360l42 10v-320q0 -42 25.5 -56t74.5 -14q38 0 70 4.5t50 15.5l-7 175q0 34 -1 60t-4.5 49t-10 45
t-17.5 46l40 35q26 -53 30.5 -106.5t4.5 -113.5v-145q0 -38 -15.5 -64t-34.5 -36q-16 -8 -41.5 -11.5t-63.5 -3.5q-51 0 -79.5 13.5t-41.5 36.5q-15 -30 -49 -40t-70 -10q-23 0 -44 3.5t-39 13t-31 27.5t-19 48q-5 -11 -8.5 -18.5t-3.5 -8.5q-4 -8 -33.5 -14t-71.5 -6z
M195 95q27 0 55.5 2.5t54.5 9.5l-35 201q-25 -14 -51 -30t-48 -30.5t-38.5 -27.5t-22.5 -21q-2 -28 -1 -47.5t9.5 -32t26.5 -18.5t50 -6zM951 5l-7 400q-1 36 -2 63t-3.5 50.5t-8 45.5t-14.5 46l40 30q22 -53 26 -106.5t4 -113.5v-413l-25 -7zM645 550q-38 0 -59.5 7
t-33.5 30q-12 -23 -31.5 -30t-45.5 -7q-30 0 -45 13t-15 32q0 23 3 48t7 65l30 -3l-10 -105q2 -4 6 -8q9 -7 29 -7q30 0 41.5 9.5t13.5 35.5l5 45h30v-45q0 -28 19.5 -36.5t62.5 -8.5q6 23 5 49t-12 71l27 15l8 -5q4 -19 6 -31.5t3 -21.5t1 -15v-12q0 -19 -5 -39t-20 -46
h-20zM535 960q13 -17 20 -32.5t10.5 -33.5t4 -39.5t0.5 -49.5v-55l-30 -10v60q0 24 -0.5 40.5t-3.5 30t-9 27t-17 32.5z" />
    <glyph glyph-name="uFEF5" unicode="&#xfedf;&#xfe82;" horiz-adv-x="485" arabic-form="isolated" 
d="M100 580q39 -90 62.5 -159.5t36.5 -125.5t17.5 -101t4.5 -85v-24q54 30 93.5 60t54.5 57l-6 203q-1 36 -2 63t-3.5 50.5t-7.5 45.5t-15 46l40 30q22 -53 26 -106.5t4 -113.5v-175q0 -41 -11 -65.5t-24 -39.5q-15 -18 -41.5 -40t-61 -44t-76 -43t-86.5 -38l-25 30l3 13
q28 12 54.5 24t52.5 26q-1 49 -7 98t-20.5 104.5t-39 122t-63.5 152.5zM-25 640l-20 20q11 22 17.5 37t11 23t9 11.5t12.5 3.5q11 0 30 -7.5t60 -7.5q26 0 55.5 4t59.5 13l5 -7l-10 -32q-30 -10 -59.5 -14t-55.5 -4t-46 4t-37 9l-22 -53h-10z" />
    <glyph glyph-name="uFEF6" unicode="&#xfee0;&#xfe82;" horiz-adv-x="500" arabic-form="final" 
d="M100 580q39 -90 62.5 -159.5t36.5 -125.5t17.5 -101t4.5 -85v-24q51 28 88.5 56t55.5 54v210q0 36 -1 63t-4.5 50.5t-9.5 45.5t-15 46l40 30q22 -53 26 -106.5t4 -113.5v-330q11 -20 36 -30t59 -10v-50q-39 0 -65 9t-41.5 25.5t-22 39.5t-6.5 51v13q-16 -20 -42.5 -42
t-60.5 -43.5t-74 -41.5t-83 -36l-25 30l3 13q28 12 54.5 24t52.5 26q-1 49 -7 98t-20.5 104.5t-39 122t-63.5 152.5zM-25 640l-20 20q11 22 17.5 37t11 23t9 11.5t12.5 3.5q11 0 30 -7.5t60 -7.5q26 0 55.5 4t59.5 13l5 -7l-10 -32q-30 -10 -59.5 -14t-55.5 -4t-46 4t-37 9
l-22 -53h-10z" />
    <glyph glyph-name="uFEF7" unicode="&#xfedf;&#xfe84;" horiz-adv-x="485" arabic-form="isolated" 
d="M120 535q31 -77 50.5 -138.5t31 -113.5t15.5 -95.5t4 -84.5v-18q54 30 93.5 60t54.5 57l-6 203q-1 36 -2 63t-3.5 50.5t-7.5 45.5t-15 46l40 30q22 -53 26 -106.5t4 -113.5v-175q0 -41 -11 -65.5t-24 -39.5q-15 -18 -41.5 -40t-61 -44t-76 -43t-86.5 -38l-25 30l3 13
q28 12 54.5 24t52.5 26q-1 50 -7.5 98t-19 99.5t-33 108.5t-50.5 126zM152 770l-7 -25h-96q-9 -18 -9 -37q0 -26 17 -44.5t48 -18.5q15 0 37.5 4.5t52.5 15.5l5 -35l-195 -70l-5 30l66 27q-26 10 -41 32.5t-15 50.5q0 15 5 34.5t20 45.5h110z" />
    <glyph glyph-name="uFEF8" unicode="&#xfee0;&#xfe84;" horiz-adv-x="500" arabic-form="final" 
d="M120 535q31 -77 50.5 -138.5t31 -113.5t15.5 -95.5t4 -84.5v-18q51 28 88.5 56t55.5 54v210q0 36 -1 63t-4.5 50.5t-9.5 45.5t-15 46l40 30q22 -53 26 -106.5t4 -113.5v-330q11 -20 36 -30t59 -10v-50q-39 0 -65 9t-41.5 25.5t-22 39.5t-6.5 51v13q-16 -20 -42.5 -42
t-60.5 -43.5t-74 -41.5t-83 -36l-25 30l3 13q28 12 54.5 24t52.5 26q-1 50 -7.5 98t-19 99.5t-33 108.5t-50.5 126zM152 770l-7 -25h-96q-9 -18 -9 -37q0 -26 17 -44.5t48 -18.5q15 0 37.5 4.5t52.5 15.5l5 -35l-195 -70l-5 30l66 27q-26 10 -41 32.5t-15 50.5q0 15 5 34.5
t20 45.5h110z" />
    <glyph glyph-name="uFEF9" unicode="&#xfedf;&#xfe88;" horiz-adv-x="485" arabic-form="isolated" 
d="M100 580q39 -90 62.5 -159.5t36.5 -125.5t17.5 -101t4.5 -85v-24q54 30 93.5 60t54.5 57l-6 203q-1 36 -2 63t-3.5 50.5t-7.5 45.5t-15 46l40 30q22 -53 26 -106.5t4 -113.5v-175q0 -41 -11 -65.5t-24 -39.5q-15 -18 -41.5 -40t-61 -44t-76 -43t-86.5 -38l-25 30l3 13
q28 12 54.5 24t52.5 26q-1 49 -7 98t-20.5 104.5t-39 122t-63.5 152.5zM202 -145l-7 -25h-96q-9 -18 -9 -35.5t7.5 -32t22 -23.5t35.5 -9q15 0 37.5 4.5t52.5 15.5l5 -35l-195 -70l-5 30l66 28q-26 9 -41 31.5t-15 50.5q0 15 5 34.5t20 45.5h110z" />
    <glyph glyph-name="uFEFA" unicode="&#xfee0;&#xfe88;" horiz-adv-x="500" arabic-form="final" 
d="M100 580q39 -90 62.5 -159.5t36.5 -125.5t17.5 -101t4.5 -85v-24q51 28 88.5 56t55.5 54v210q0 36 -1 63t-4.5 50.5t-9.5 45.5t-15 46l40 30q22 -53 26 -106.5t4 -113.5v-330q11 -20 36 -30t59 -10v-50q-39 0 -65 9t-41.5 25.5t-22 39.5t-6.5 51v13q-16 -20 -42.5 -42
t-60.5 -43.5t-74 -41.5t-83 -36l-25 30l3 13q28 12 54.5 24t52.5 26q-1 49 -7 98t-20.5 104.5t-39 122t-63.5 152.5zM202 -145l-7 -25h-96q-9 -18 -9 -35.5t7.5 -32t22 -23.5t35.5 -9q15 0 37.5 4.5t52.5 15.5l5 -35l-195 -70l-5 30l66 28q-26 9 -41 31.5t-15 50.5
q0 15 5 34.5t20 45.5h110z" />
    <glyph glyph-name="uFEFB" unicode="&#xfedf;&#xfe8e;" horiz-adv-x="485" arabic-form="isolated" 
d="M100 580q39 -90 62.5 -159.5t36.5 -125.5t17.5 -101t4.5 -85v-24q54 30 93.5 60t54.5 57l-6 203q-1 36 -2 63t-3.5 50.5t-7.5 45.5t-15 46l40 30q22 -53 26 -106.5t4 -113.5v-175q0 -41 -11 -65.5t-24 -39.5q-15 -18 -41.5 -40t-61 -44t-76 -43t-86.5 -38l-25 30l3 13
q28 12 54.5 24t52.5 26q-1 49 -7 98t-20.5 104.5t-39 122t-63.5 152.5z" />
    <glyph glyph-name="uFEFC" unicode="&#xfee0;&#xfe8e;" horiz-adv-x="500" arabic-form="final" 
d="M100 580q39 -90 62.5 -159.5t36.5 -125.5t17.5 -101t4.5 -85v-24q51 28 88.5 56t55.5 54v210q0 36 -1 63t-4.5 50.5t-9.5 45.5t-15 46l40 30q22 -53 26 -106.5t4 -113.5v-330q11 -20 36 -30t59 -10v-50q-39 0 -65 9t-41.5 25.5t-22 39.5t-6.5 51v13q-16 -20 -42.5 -42
t-60.5 -43.5t-74 -41.5t-83 -36l-25 30l3 13q28 12 54.5 24t52.5 26q-1 49 -7 98t-20.5 104.5t-39 122t-63.5 152.5z" />
    <glyph glyph-name="uni06440671.isol" unicode="&#xfedf;&#xfb51;" horiz-adv-x="485" 
d="M120 535q31 -77 50.5 -138.5t31 -113.5t15.5 -95.5t4 -84.5v-18q54 30 93.5 60t54.5 57l-6 203q-1 36 -2 63t-3.5 50.5t-7.5 45.5t-15 46l40 30q22 -53 26 -106.5t4 -113.5v-175q0 -41 -11 -65.5t-24 -39.5q-15 -18 -41.5 -40t-61 -44t-76 -43t-86.5 -38l-25 30l3 13
q28 12 54.5 24t52.5 26q-1 50 -7.5 98t-19 99.5t-33 108.5t-50.5 126zM205 675l5 -30l-215 -85l-5 30zM205 785l5 -30l-215 -80l-5 25z" />
    <glyph glyph-name="uni06440671.fina" unicode="&#xfee0;&#xfb51;" horiz-adv-x="500" 
d="M120 535q31 -77 50.5 -138.5t31 -113.5t15.5 -95.5t4 -84.5v-18q51 28 88.5 56t55.5 54v210q0 36 -1 63t-4.5 50.5t-9.5 45.5t-15 46l40 30q22 -53 26 -106.5t4 -113.5v-330q11 -20 36 -30t59 -10v-50q-39 0 -65 9t-41.5 25.5t-22 39.5t-6.5 51v13q-16 -20 -42.5 -42
t-60.5 -43.5t-74 -41.5t-83 -36l-25 30l3 13q28 12 54.5 24t52.5 26q-1 50 -7.5 98t-19 99.5t-33 108.5t-50.5 126zM205 675l5 -30l-215 -85l-5 30zM205 785l5 -30l-215 -80l-5 25z" />
    <glyph glyph-name="uni06440644064F0647.isol" unicode="&#xfedf;&#x650;&#xfee0;&#x654;&#xfeea;" horiz-adv-x="905" 
d="M190 45q-64 0 -92 23.5t-28 76.5q0 23 2 40t8 39q6 10 26.5 26t46.5 34t55.5 36t53.5 33l-12 72l30 15l15 -5l55 -350q11 -19 37.5 -27t52.5 -8t56.5 4.5t48.5 15.5l-7 360l42 10v-320q0 -42 25.5 -56t74.5 -14q38 0 70 4.5t50 15.5l-7 175q0 34 -1 60t-4.5 49t-10 45
t-17.5 46l40 35q26 -53 30.5 -106.5t4.5 -113.5v-145q0 -38 -15.5 -64t-34.5 -36q-16 -8 -41.5 -11.5t-63.5 -3.5q-51 0 -79.5 13.5t-41.5 36.5q-15 -30 -49 -40t-70 -10q-23 0 -44 3.5t-39 13t-31 27.5t-19 48q-5 -11 -8.5 -18.5t-3.5 -8.5q-4 -8 -33.5 -14t-71.5 -6z
M195 95q27 0 55.5 2.5t54.5 9.5l-35 201q-25 -14 -51 -30t-48 -30.5t-38.5 -27.5t-22.5 -21q-2 -28 -1 -47.5t9.5 -32t26.5 -18.5t50 -6zM645 550q-38 0 -59.5 7t-33.5 30q-12 -23 -31.5 -30t-45.5 -7q-30 0 -45 13t-15 32q0 23 3 48t7 65l30 -3l-10 -105q2 -4 6 -8
q9 -7 29 -7q30 0 41.5 9.5t13.5 35.5l5 45h30v-45q0 -28 19.5 -36.5t62.5 -8.5q6 23 5 49t-12 71l27 15l8 -5q4 -19 6 -31.5t3 -21.5t1 -15v-12q0 -19 -5 -39t-20 -46h-20zM535 960q13 -17 20 -32.5t10.5 -33.5t4 -39.5t0.5 -49.5v-55l-30 -10v60q0 24 -0.5 40.5t-3.5 30
t-9 27t-17 32.5z" />
    <glyph glyph-name="u0621" unicode="&#x621;" horiz-adv-x="454" arabic-form="isolated" 
d="M382 135q-80 -35 -151.5 -69.5t-150.5 -75.5l-8 5l-2 30l111 60q-27 9 -46.5 23.5t-31.5 30.5t-17.5 32.5t-5.5 28.5q0 34 16.5 64t40 52.5t49 35.5t44.5 13q7 0 13.5 -1.5t15 -5.5t20 -12t29.5 -21l-23 -35q-26 15 -39 20t-21 5q-9 0 -25.5 -7.5t-34 -21t-33 -33
t-22.5 -43.5q4 -19 16 -35.5t29 -28.5t37 -19t40 -7q19 0 51 12.5t94 42.5l7 -5z" />
    <glyph glyph-name="u0622" unicode="&#x622;" horiz-adv-x="205" arabic-form="isolated" 
d="M89 5l-6 340q-1 37 -2 66t-3.5 52.5t-8 43t-14.5 38.5l40 35q22 -41 26 -93t4 -127v-353l-26 -7zM90 680q-26 0 -46 4t-37 9l-22 -53h-10l-20 20q11 22 17.5 37t11 23t9 11.5t12.5 3.5q11 0 30 -7.5t60 -7.5q26 0 55.5 4t59.5 13l5 -7l-10 -32q-30 -10 -59.5 -14
t-55.5 -4z" />
    <glyph glyph-name="u0623" unicode="&#x623;" horiz-adv-x="205" arabic-form="isolated" 
d="M89 5l-6 285q-1 37 -2 66t-3.5 52.5t-8 43t-14.5 38.5l40 35q22 -41 26 -93t4 -127v-298l-26 -7zM142 770l-7 -25h-96q-9 -18 -9 -37q0 -26 17 -44.5t48 -18.5q15 0 37.5 4.5t52.5 15.5l5 -35l-195 -70l-5 30l66 27q-26 10 -41 32.5t-15 50.5q0 15 5 34.5t20 45.5h110z
" />
    <glyph glyph-name="u0624" unicode="&#x624;" horiz-adv-x="410" arabic-form="isolated" 
d="M60 -190q43 2 83.5 15.5t74 37.5t58.5 57.5t38 74.5q0 4 -0.5 8t-0.5 8q-32 -11 -63.5 -16t-69.5 -5q-57 0 -86 20.5t-29 54.5q0 15 6 42t14 57.5t17.5 60t17.5 50.5l20 15q58 -5 98.5 -27t65 -57t35.5 -82.5t11 -103.5q0 -51 -22.5 -96t-55.5 -79.5t-71.5 -54.5
t-70.5 -20q-8 0 -27.5 2.5t-42.5 7.5v30zM190 40q35 0 67 5.5t52 11.5q-11 83 -49 128t-113 55q-4 -9 -11 -33.5t-14.5 -52t-13.5 -53t-8 -36.5q11 -15 35.5 -20t54.5 -5zM242 570l-7 -25h-96q-9 -18 -9 -35.5t7.5 -32t22 -23.5t35.5 -9q15 0 37.5 4.5t52.5 15.5l5 -35
l-195 -70l-5 30l66 27q-26 10 -41 32.5t-15 50.5q0 15 5 34.5t20 45.5h110z" />
    <glyph glyph-name="u0625" unicode="&#x625;" horiz-adv-x="205" arabic-form="isolated" 
d="M83 405q-1 36 -2 63t-3.5 50.5t-8 45.5t-14.5 46l40 30q22 -53 26 -106.5t4 -113.5v-413l-25 -7l-10 5zM162 -135l-7 -25h-96q-9 -18 -9 -35.5t7.5 -32t22 -23.5t35.5 -9q15 0 37.5 4.5t52.5 15.5l5 -35l-195 -70l-5 30l66 28q-26 9 -41 31.5t-15 50.5q0 15 5 34.5
t20 45.5h110z" />
    <glyph glyph-name="u0626" unicode="&#x626;" horiz-adv-x="650" arabic-form="isolated" 
d="M540 300q-45 30 -60 30q-19 0 -45.5 -16.5t-52.5 -44.5t-46 -65.5t-26 -78.5q11 -11 53.5 -16t121.5 -9q32 -2 51 -6t28.5 -11.5t12.5 -18t3 -24.5q0 -21 -2 -41t-5 -36.5t-6.5 -29t-6.5 -18.5q-6 -9 -27 -26t-56.5 -33.5t-85 -28.5t-111.5 -12q-58 0 -98 11.5t-65 30.5
t-36 44.5t-11 53.5q0 26 3 65t7 76q4 43 10 89l38 -3q-4 -51 -8 -97q-3 -39 -6 -80t-4 -65q15 -30 56.5 -52.5t113.5 -22.5q79 0 144 19.5t103 49.5q5 24 7.5 53.5t0.5 52.5q-6 2 -20 3.5t-33 2.5t-42 2t-45 2q-34 2 -57 7t-37 14t-20 22t-6 32q0 47 21.5 93.5t53 83.5
t67 60t63.5 23q15 0 35 -12t50 -38zM252 526l-7 -25h-96q-9 -18 -9 -35.5t7.5 -32t22 -23.5t35.5 -9q15 0 37.5 4.5t52.5 15.5l5 -35l-195 -70l-5 30l66 27q-26 10 -41 32.5t-15 50.5q0 15 5 34.5t20 45.5h110z" />
    <glyph glyph-name="u0627" unicode="&#x627;" horiz-adv-x="205" arabic-form="isolated" 
d="M83 405q-1 36 -2 63t-3.5 50.5t-8 45.5t-14.5 46l40 30q22 -53 26 -106.5t4 -113.5v-413l-25 -7l-10 5z" />
    <glyph glyph-name="u0628" unicode="&#x628;" horiz-adv-x="725" arabic-form="isolated" 
d="M325 45q34 0 77 2.5t84.5 8t76.5 15t55 23.5q-2 32 -11.5 82t-26.5 99l30 25l15 -5q11 -34 20.5 -75.5t9.5 -79.5q0 -23 -5.5 -40t-14.5 -30t-19.5 -21.5t-20.5 -13.5q-30 -15 -99 -27.5t-171 -12.5q-51 0 -97 4t-81 16t-56 34.5t-21 60.5q0 23 2 48.5t4 48.5q3 26 6 53
l38 -3q-4 -47 -7 -83.5t-5 -78.5q12 -13 34 -22.5t51 -15.5t62.5 -9t69.5 -3zM395 -140l-30 -50l-65 40l30 50z" />
    <glyph glyph-name="u0629" unicode="&#x629;" horiz-adv-x="425" arabic-form="isolated" 
d="M195 0q-68 0 -96.5 21t-28.5 59t19 104.5t46 146.5l15 9q66 -21 106 -46t62 -53t29.5 -58.5t7.5 -62.5q0 -19 -3.5 -39.5t-13.5 -35.5q-17 -26 -55.5 -35.5t-87.5 -9.5zM158 285q-5 -13 -13 -39t-16.5 -56t-15 -59.5t-8.5 -50.5q4 -8 14.5 -13.5t24 -9t28.5 -5.5t28 -2
q31 0 61.5 4.5t53.5 15.5q2 39 -3 71.5t-22 58.5t-49 47t-83 38zM215 460l30 50l65 -40l-30 -50zM120 510l65 -40l-30 -50l-65 40z" />
    <glyph glyph-name="u062A" unicode="&#x62a;" horiz-adv-x="725" arabic-form="isolated" 
d="M325 45q34 0 77 2.5t84.5 8t76.5 15t55 23.5q-2 32 -11.5 82t-26.5 99l30 25l15 -5q11 -34 20.5 -75.5t9.5 -79.5q0 -23 -5.5 -40t-14.5 -30t-19.5 -21.5t-20.5 -13.5q-30 -15 -99 -27.5t-171 -12.5q-51 0 -97 4t-81 16t-56 34.5t-21 60.5q0 23 2 48.5t4 48.5q3 26 6 53
l38 -3q-4 -47 -7 -83.5t-5 -78.5q12 -13 34 -22.5t51 -15.5t62.5 -9t69.5 -3zM270 430l65 -40l-30 -50l-65 40zM365 380l30 50l65 -40l-30 -50z" />
    <glyph glyph-name="u062B" unicode="&#x62b;" horiz-adv-x="725" arabic-form="isolated" 
d="M325 45q34 0 77 2.5t84.5 8t76.5 15t55 23.5q-2 32 -11.5 82t-26.5 99l30 25l15 -5q11 -34 20.5 -75.5t9.5 -79.5q0 -23 -5.5 -40t-14.5 -30t-19.5 -21.5t-20.5 -13.5q-30 -15 -99 -27.5t-171 -12.5q-51 0 -97 4t-81 16t-56 34.5t-21 60.5q0 23 2 48.5t4 48.5q3 26 6 53
l38 -3q-4 -47 -7 -83.5t-5 -78.5q12 -13 34 -22.5t51 -15.5t62.5 -9t69.5 -3zM270 430l65 -40l-30 -50l-65 40zM315 540l65 -40l-30 -50l-65 40zM365 380l30 50l65 -40l-30 -50z" />
    <glyph glyph-name="u062C" unicode="&#x62c;" horiz-adv-x="590" arabic-form="isolated" 
d="M510 -240l-10 -35q-60 -8 -112 -9t-78 -1q-56 0 -100.5 11t-75.5 36.5t-47.5 66.5t-16.5 101v5q0 48 25 97.5t71 94t112 80t147 56.5q-44 16 -82.5 29.5t-70 23t-54 14.5t-33.5 5q-19 0 -41.5 -9.5t-33.5 -20.5v-52t1 -48l-11 -10l-23 10q-2 11 -2 23v27q0 42 2.5 58.5
t7.5 21.5q2 2 12 9.5t24 15.5t32 14t37 6t51.5 -8t75.5 -21.5t93.5 -31.5t104.5 -39l5 -15l-15 -35q-38 0 -75 -9.5t-75 -25.5q-104 -44 -165.5 -100.5t-84.5 -139.5v-5q0 -47 9.5 -82.5t33.5 -59.5t64 -36t102 -12h35.5t41 1t49 3t60.5 6zM385 -30l-30 -50l-65 40l30 50z
" />
    <glyph glyph-name="u062D" unicode="&#x62d;" horiz-adv-x="590" arabic-form="isolated" 
d="M510 -240l-10 -35q-60 -8 -112 -9t-78 -1q-56 0 -100.5 11t-75.5 36.5t-47.5 66.5t-16.5 101v5q0 48 25 97.5t71 94t112 80t147 56.5q-44 16 -82.5 29.5t-70 23t-54 14.5t-33.5 5q-19 0 -41.5 -9.5t-33.5 -20.5v-52t1 -48l-11 -10l-23 10q-2 11 -2 23v27q0 42 2.5 58.5
t7.5 21.5q2 2 12 9.5t24 15.5t32 14t37 6t51.5 -8t75.5 -21.5t93.5 -31.5t104.5 -39l5 -15l-15 -35q-38 0 -75 -9.5t-75 -25.5q-104 -44 -165.5 -100.5t-84.5 -139.5v-5q0 -47 9.5 -82.5t33.5 -59.5t64 -36t102 -12h35.5t41 1t49 3t60.5 6z" />
    <glyph glyph-name="u062E" unicode="&#x62e;" horiz-adv-x="590" arabic-form="isolated" 
d="M510 -240l-10 -35q-60 -8 -112 -9t-78 -1q-56 0 -100.5 11t-75.5 36.5t-47.5 66.5t-16.5 101v5q0 48 25 97.5t71 94t112 80t147 56.5q-44 16 -82.5 29.5t-70 23t-54 14.5t-33.5 5q-19 0 -41.5 -9.5t-33.5 -20.5v-52t1 -48l-11 -10l-23 10q-2 11 -2 23v27q0 42 2.5 58.5
t7.5 21.5q2 2 12 9.5t24 15.5t32 14t37 6t51.5 -8t75.5 -21.5t93.5 -31.5t104.5 -39l5 -15l-15 -35q-38 0 -75 -9.5t-75 -25.5q-104 -44 -165.5 -100.5t-84.5 -139.5v-5q0 -47 9.5 -82.5t33.5 -59.5t64 -36t102 -12h35.5t41 1t49 3t60.5 6zM155 525l30 50l65 -40l-30 -50z
" />
    <glyph glyph-name="u062F" unicode="&#x62f;" horiz-adv-x="460" arabic-form="isolated" 
d="M195 0q-39 0 -65 5t-41.5 14.5t-22 24.5t-6.5 36q0 11 1 28t3 33q2 18 4 39l35 -2q-2 -23 -3 -43q-1 -17 -2 -35.5t-1 -29.5q14 -12 46.5 -16t66.5 -4q25 0 62.5 3.5t77.5 16.5q-1 54 -8 96t-26 75t-53 60t-88 52l10 32l15 10q56 -23 93 -54t58.5 -67t30 -75.5t8.5 -78.5
q0 -32 -10 -54.5t-32.5 -37t-60 -21.5t-92.5 -7z" />
    <glyph glyph-name="u0630" unicode="&#x630;" horiz-adv-x="460" arabic-form="isolated" 
d="M195 0q-39 0 -65 5t-41.5 14.5t-22 24.5t-6.5 36q0 11 1 28t3 33q2 18 4 39l35 -2q-2 -23 -3 -43q-1 -17 -2 -35.5t-1 -29.5q14 -12 46.5 -16t66.5 -4q25 0 62.5 3.5t77.5 16.5q-1 54 -8 96t-26 75t-53 60t-88 52l10 32l15 10q56 -23 93 -54t58.5 -67t30 -75.5t8.5 -78.5
q0 -32 -10 -54.5t-32.5 -37t-60 -21.5t-92.5 -7zM170 520l30 50l65 -40l-30 -50z" />
    <glyph glyph-name="u0631" unicode="&#x631;" horiz-adv-x="255" arabic-form="isolated" 
d="M-60 -190q39 2 75 18.5t64.5 44t48 63t27.5 74.5q-2 19 -7.5 43t-13 50.5t-16.5 52.5t-18 49l30 25l15 -5q9 -21 17.5 -47t14.5 -53t9.5 -53t3.5 -47q0 -58 -20.5 -105t-49.5 -80.5t-61 -51.5t-54 -18q-8 0 -25 2.5t-40 7.5v30z" />
    <glyph glyph-name="u0632" unicode="&#x632;" horiz-adv-x="255" arabic-form="isolated" 
d="M-60 -190q39 2 75 18.5t64.5 44t48 63t27.5 74.5q-2 19 -7.5 43t-13 50.5t-16.5 52.5t-18 49l30 25l15 -5q9 -21 17.5 -47t14.5 -53t9.5 -53t3.5 -47q0 -58 -20.5 -105t-49.5 -80.5t-61 -51.5t-54 -18q-8 0 -25 2.5t-40 7.5v30zM70 350l30 50l65 -40l-30 -50z" />
    <glyph glyph-name="u0633" unicode="&#x633;" horiz-adv-x="1065" arabic-form="isolated" 
d="M850 0q-12 0 -25 2t-26.5 7.5t-25 16t-20.5 28.5q-9 -18 -23 -29q-13 -10 -39.5 -17.5t-60.5 -7.5q-19 0 -36.5 2.5t-31.5 12.5q1 -12 2 -27.5t1 -32.5q0 -26 -5 -50t-15 -40q-6 -9 -27 -26t-55 -33.5t-80.5 -28.5t-102.5 -12q-58 0 -98 11.5t-65 30.5t-36 44.5t-11 53.5
q0 19 1.5 46t4.5 58t6.5 63.5t7.5 62.5l38 -3q-3 -35 -6 -72t-5.5 -70.5t-4.5 -60t-2 -39.5q15 -30 56.5 -52.5t113.5 -22.5q36 0 72 6t69 17t60 25.5t44 31.5q0 37 -3.5 78t-9.5 81.5t-14.5 80t-17.5 75.5l30 20l15 -5q11 -53 19 -94.5t16 -60.5q11 -11 31.5 -15.5
t43.5 -4.5q54 0 90 16l25 154h35q-2 -28 -3 -46t-1.5 -28.5t-0.5 -16v-9.5q0 -21 7 -34.5t17.5 -21.5t24 -11t26.5 -3q30 0 58 7t45 18q0 17 -3 41t-7.5 51t-11.5 54.5t-16 53.5l30 25l15 -5q11 -34 20.5 -79.5t9.5 -90.5q0 -42 -15.5 -69t-34.5 -36t-40 -14.5t-55 -5.5z
" />
    <glyph glyph-name="u0634" unicode="&#x634;" horiz-adv-x="1065" arabic-form="isolated" 
d="M850 0q-12 0 -25 2t-26.5 7.5t-25 16t-20.5 28.5q-9 -18 -23 -29q-13 -10 -39.5 -17.5t-60.5 -7.5q-19 0 -36.5 2.5t-31.5 12.5q1 -12 2 -27.5t1 -32.5q0 -26 -5 -50t-15 -40q-6 -9 -27 -26t-55 -33.5t-80.5 -28.5t-102.5 -12q-58 0 -98 11.5t-65 30.5t-36 44.5t-11 53.5
q0 19 1.5 46t4.5 58t6.5 63.5t7.5 62.5l38 -3q-3 -35 -6 -72t-5.5 -70.5t-4.5 -60t-2 -39.5q15 -30 56.5 -52.5t113.5 -22.5q36 0 72 6t69 17t60 25.5t44 31.5q0 37 -3.5 78t-9.5 81.5t-14.5 80t-17.5 75.5l30 20l15 -5q11 -53 19 -94.5t16 -60.5q11 -11 31.5 -15.5
t43.5 -4.5q54 0 90 16l25 154h35q-2 -28 -3 -46t-1.5 -28.5t-0.5 -16v-9.5q0 -21 7 -34.5t17.5 -21.5t24 -11t26.5 -3q30 0 58 7t45 18q0 17 -3 41t-7.5 51t-11.5 54.5t-16 53.5l30 25l15 -5q11 -34 20.5 -79.5t9.5 -90.5q0 -42 -15.5 -69t-34.5 -36t-40 -14.5t-55 -5.5z
M670 410l65 -40l-30 -50l-65 40zM765 360l30 50l65 -40l-30 -50zM715 520l65 -40l-30 -50l-65 40z" />
    <glyph glyph-name="u0635" unicode="&#x635;" horiz-adv-x="1075" arabic-form="isolated" 
d="M680 0q-45 0 -73 5.5t-46 21.5q2 -15 3 -32.5t1 -39.5q0 -26 -5 -50t-15 -40q-6 -9 -27 -26t-55 -33.5t-80.5 -28.5t-102.5 -12q-58 0 -98 11.5t-65 30.5t-36 44.5t-11 53.5q0 26 3 65t7 76q4 43 10 89l38 -3q-4 -51 -8 -97q-3 -39 -6 -80t-4 -65q15 -30 56.5 -52.5
t113.5 -22.5q36 0 72 6t69 17t60 25.5t44 31.5q0 37 -3.5 78t-9.5 81.5t-14.5 80t-17.5 75.5l30 20l15 -5l15 -75q5 -21 10 -36.5t13 -26.5q62 53 106 90.5t75 63t50.5 40.5t32 22.5t20 9.5t13.5 2q22 0 47.5 -13t47.5 -37.5t36 -61t14 -83.5q0 -13 -3.5 -27.5t-10 -27
t-15.5 -22.5t-20 -15q-60 -28 -196 -28h-80zM850 260q-11 0 -30.5 -11.5t-50 -35.5t-73.5 -61.5t-103 -89.5q14 -7 32.5 -9.5t44.5 -2.5h105q137 0 190 30q4 36 -6.5 68.5t-28.5 57t-39.5 39.5t-40.5 15z" />
    <glyph glyph-name="u0636" unicode="&#x636;" horiz-adv-x="1075" arabic-form="isolated" 
d="M680 0q-45 0 -73 5.5t-46 21.5q2 -15 3 -32.5t1 -39.5q0 -26 -5 -50t-15 -40q-6 -9 -27 -26t-55 -33.5t-80.5 -28.5t-102.5 -12q-58 0 -98 11.5t-65 30.5t-36 44.5t-11 53.5q0 26 3 65t7 76q4 43 10 89l38 -3q-4 -51 -8 -97q-3 -39 -6 -80t-4 -65q15 -30 56.5 -52.5
t113.5 -22.5q36 0 72 6t69 17t60 25.5t44 31.5q0 37 -3.5 78t-9.5 81.5t-14.5 80t-17.5 75.5l30 20l15 -5l15 -75q5 -21 10 -36.5t13 -26.5q62 53 106 90.5t75 63t50.5 40.5t32 22.5t20 9.5t13.5 2q22 0 47.5 -13t47.5 -37.5t36 -61t14 -83.5q0 -13 -3.5 -27.5t-10 -27
t-15.5 -22.5t-20 -15q-60 -28 -196 -28h-80zM850 260q-11 0 -30.5 -11.5t-50 -35.5t-73.5 -61.5t-103 -89.5q14 -7 32.5 -9.5t44.5 -2.5h105q137 0 190 30q4 36 -6.5 68.5t-28.5 57t-39.5 39.5t-40.5 15zM800 445l30 50l65 -40l-30 -50z" />
    <glyph glyph-name="u0637" unicode="&#x637;" horiz-adv-x="655" arabic-form="isolated" 
d="M340 0q-64 0 -127 2t-138 13l-15 35l5 15q27 -5 49 -6l66 61q11 10 19 20.5t12.5 24.5t6.5 34.5t2 51.5v30.5t-0.5 41.5l-1 44t-0.5 38q-1 36 -2 63t-3.5 50.5t-8 45.5t-14.5 46l40 30q22 -53 26 -106.5t4 -113.5v-97.5t-1 -66.5t-3 -44t-5 -31q50 42 82.5 68t53 41
t32.5 20t21 5q22 0 47.5 -13t47.5 -37.5t36 -61t14 -83.5q0 -13 -3.5 -27.5t-10 -27t-15.5 -22.5t-20 -15q-60 -28 -196 -28zM430 260q-11 0 -30.5 -11.5t-51 -36.5t-76.5 -64t-107 -94q21 -2 42 -3t43.5 -1h48h56.5q137 0 190 30q4 36 -6.5 68.5t-28.5 57t-39.5 39.5
t-40.5 15z" />
    <glyph glyph-name="u0638" unicode="&#x638;" horiz-adv-x="655" arabic-form="isolated" 
d="M340 0q-64 0 -127 2t-138 13l-15 35l5 15q27 -5 49 -6l66 61q11 10 19 20.5t12.5 24.5t6.5 34.5t2 51.5v30.5t-0.5 41.5l-1 44t-0.5 38q-1 36 -2 63t-3.5 50.5t-8 45.5t-14.5 46l40 30q22 -53 26 -106.5t4 -113.5v-97.5t-1 -66.5t-3 -44t-5 -31q50 42 82.5 68t53 41
t32.5 20t21 5q22 0 47.5 -13t47.5 -37.5t36 -61t14 -83.5q0 -13 -3.5 -27.5t-10 -27t-15.5 -22.5t-20 -15q-60 -28 -196 -28zM430 260q-11 0 -30.5 -11.5t-51 -36.5t-76.5 -64t-107 -94q21 -2 42 -3t43.5 -1h48h56.5q137 0 190 30q4 36 -6.5 68.5t-28.5 57t-39.5 39.5
t-40.5 15zM400 445l30 50l65 -40l-30 -50z" />
    <glyph glyph-name="u0639" unicode="&#x639;" horiz-adv-x="505" arabic-form="isolated" 
d="M70 -70q0 53 35.5 106t104.5 97q-34 9 -58.5 25.5t-40.5 37t-23.5 42.5t-7.5 42q0 36 19 68.5t46 57t57 39.5t53 15q19 0 40 -14.5t55 -40.5l-20 -35q-34 23 -51.5 31.5t-28.5 8.5q-15 0 -35.5 -9.5t-40 -26t-36 -38.5t-23.5 -46q8 -45 45.5 -77.5t94.5 -32.5
q23 0 62 14.5t103 40.5l10 -10l-5 -40q-71 -30 -126 -56.5t-94.5 -54t-64 -57.5t-35.5 -67v-5q0 -45 10.5 -79.5t35 -58t65.5 -35.5t103 -12h33.5t35 1t42 3t55.5 6l10 -10l-10 -35q-57 -8 -100.5 -9t-69.5 -1q-54 0 -99.5 10.5t-77.5 34.5t-50 64.5t-18 100.5v5v0z" />
    <glyph glyph-name="u063A" unicode="&#x63a;" horiz-adv-x="505" arabic-form="isolated" 
d="M70 -70q0 53 35.5 106t104.5 97q-34 9 -58.5 25.5t-40.5 37t-23.5 42.5t-7.5 42q0 36 19 68.5t46 57t57 39.5t53 15q19 0 40 -14.5t55 -40.5l-20 -35q-34 23 -51.5 31.5t-28.5 8.5q-15 0 -35.5 -9.5t-40 -26t-36 -38.5t-23.5 -46q8 -45 45.5 -77.5t94.5 -32.5
q23 0 62 14.5t103 40.5l10 -10l-5 -40q-71 -30 -126 -56.5t-94.5 -54t-64 -57.5t-35.5 -67v-5q0 -45 10.5 -79.5t35 -58t65.5 -35.5t103 -12h33.5t35 1t42 3t55.5 6l10 -10l-10 -35q-57 -8 -100.5 -9t-69.5 -1q-54 0 -99.5 10.5t-77.5 34.5t-50 64.5t-18 100.5v5zM190 595
l30 50l65 -40l-30 -50z" />
    <glyph glyph-name="u0641" unicode="&#x641;" horiz-adv-x="735" arabic-form="isolated" 
d="M325 -5q-51 0 -97 4t-81 16t-56 34.5t-21 60.5q0 23 2 48.5t4 48.5q3 26 6 53l38 -3q-4 -47 -7 -83.5t-5 -78.5q12 -13 34 -22.5t51 -15.5t62.5 -9t69.5 -3q46 0 93.5 3.5t88.5 9.5t72.5 15t45.5 20q1 22 1 44t-2 45q-32 -11 -65.5 -16.5t-78.5 -5.5q-57 0 -83.5 20.5
t-26.5 54.5q0 15 6 41t14 55.5t17.5 58.5t17.5 50q5 3 9 7q4 3 7 5t4 3q69 -2 112 -29.5t67 -70.5t32.5 -97t8.5 -108q0 -26 -5.5 -45.5t-14.5 -33.5t-19.5 -22.5t-20.5 -13.5q-15 -8 -41.5 -15t-62.5 -12.5t-80.5 -9t-95.5 -3.5zM490 210q40 0 74 5.5t55 11.5
q-6 36 -17 67.5t-31 55.5t-49.5 38.5t-71.5 16.5q-4 -9 -10.5 -32.5t-13.5 -50.5t-13 -51.5t-8 -35.5q11 -15 33 -20t52 -5zM445 590l30 50l65 -40l-30 -50z" />
    <glyph glyph-name="u0642" unicode="&#x642;" horiz-adv-x="635" arabic-form="isolated" 
d="M350 335q67 -2 109.5 -26t65.5 -67t31.5 -102t8.5 -130q0 -30 -5 -54.5t-15 -40.5q-6 -9 -27 -26t-55 -33.5t-80.5 -28.5t-102.5 -12q-58 0 -98 11.5t-65 30.5t-36 44.5t-11 53.5q0 26 3 65t7 76q4 43 10 89l38 -3q-4 -51 -8 -97q-3 -39 -6 -80t-4 -65q15 -30 56.5 -52.5
t113.5 -22.5q34 0 70 6t69 16.5t60.5 25t45.5 32.5q1 31 1 60t-2 57q-32 -11 -64 -16.5t-70 -5.5q-57 0 -86 20.5t-29 54.5q0 15 6 41t14 55.5t17.5 58.5t17.5 50zM400 90q35 0 67.5 6t52.5 11q-5 38 -16 70t-30.5 55.5t-48.5 37t-70 15.5q-4 -9 -10.5 -32.5t-13.5 -50.5
t-13 -51.5t-8 -35.5q11 -15 35.5 -20t54.5 -5zM415 455l30 50l65 -40l-30 -50zM320 505l65 -40l-30 -50l-65 40z" />
    <glyph glyph-name="u0643" unicode="&#x643;" horiz-adv-x="735" arabic-form="isolated" 
d="M625 640q22 -53 26 -106.5t4 -113.5v-305q0 -34 -14.5 -56.5t-30.5 -30.5q-26 -14 -95 -23.5t-175 -9.5q-56 0 -105.5 4t-86 16t-57.5 34.5t-21 60.5q0 23 2 48.5t4 48.5q3 26 6 53l38 -3q-4 -47 -7 -83.5t-5 -78.5q24 -26 86.5 -38t145.5 -12q45 0 87.5 2t79.5 5.5
t66 9.5t47 15l-7 328q-1 36 -2 63t-3.5 50.5t-8 45.5t-14.5 46zM460 443l-135 -43q34 -15 55 -29t32.5 -26.5t15.5 -24t4 -20.5q0 -11 -7 -23.5t-23.5 -24.5t-45 -22.5t-71.5 -17.5l-20 25l5 10q15 2 34 6t38 10t36.5 13.5t28.5 15.5q-7 14 -29.5 33.5t-77.5 44.5l-5 10
q2 13 4 22.5t6.5 16.5t11.5 12t18 9l127 43z" />
    <glyph glyph-name="u0644" unicode="&#x644;" horiz-adv-x="610" arabic-form="isolated" 
d="M530 0q0 -26 -4.5 -50.5t-15.5 -39.5q-9 -13 -30.5 -29.5t-52 -31t-70.5 -24.5t-87 -10q-54 0 -92 11.5t-62 30.5t-35 44.5t-11 53.5q0 26 3 65t7 76q4 43 10 89l38 -3q-4 -51 -8 -97q-3 -39 -6 -80t-4 -65q15 -30 55.5 -52.5t104.5 -22.5q55 0 116 18.5t107 56.5l-5 465
q-1 36 -2 63t-3.5 50.5t-8 45.5t-14.5 46l40 30q22 -53 26 -106.5t4 -113.5v-420v0z" />
    <glyph glyph-name="u0645" unicode="&#x645;" horiz-adv-x="500" arabic-form="isolated" 
d="M375 0q-32 0 -69 10.5t-71.5 25t-61.5 30t-38 24.5q-9 -8 -14.5 -16t-7.5 -22.5t-2.5 -38.5t-0.5 -63q0 -42 1.5 -87.5t3.5 -87.5l-30 -10l-11 5q-3 93 -3.5 155t-0.5 100q0 42 17.5 71t55.5 37l42 67q15 24 31.5 43t38 32.5t50.5 22t70 12.5l20 -10q19 -75 27 -132
t8 -83q0 -17 -5 -32.5t-13 -27t-18 -18.5t-19 -7zM360 255q-32 -4 -54.5 -8t-42 -16.5t-40 -38.5t-49.5 -73q22 -15 50.5 -28t58 -23t57.5 -16t50 -7q0 15 -2 38.5t-5.5 51.5t-9.5 59t-13 61z" />
    <glyph glyph-name="u0646" unicode="&#x646;" horiz-adv-x="635" arabic-form="isolated" 
d="M565 5q0 -26 -5 -50t-15 -40q-6 -9 -27 -26t-55 -33.5t-80.5 -28.5t-102.5 -12q-58 0 -98 11.5t-65 30.5t-36 44.5t-11 53.5q0 26 3 65t7 76q4 43 10 89l38 -3q-4 -51 -8 -97q-3 -39 -6 -80t-4 -65q15 -30 56.5 -52.5t113.5 -22.5q36 0 72 6t69 17t60 25.5t44 31.5
q0 37 -3.5 78t-9.5 81.5t-14.5 80t-17.5 75.5l30 20l15 -5q11 -45 19 -86.5t12.5 -76.5t6.5 -62.5t2 -44.5zM235 320l30 50l65 -40l-30 -50z" />
    <glyph glyph-name="u0647" unicode="&#x647;" horiz-adv-x="425" arabic-form="isolated" 
d="M195 0q-68 0 -96.5 21t-28.5 59t19 104.5t46 146.5l15 9q66 -21 106 -46t62 -53t29.5 -58.5t7.5 -62.5q0 -19 -3.5 -39.5t-13.5 -35.5q-17 -26 -55.5 -35.5t-87.5 -9.5zM158 285q-5 -13 -13 -39t-16.5 -56t-15 -59.5t-8.5 -50.5q4 -8 14.5 -13.5t24 -9t28.5 -5.5t28 -2
q31 0 61.5 4.5t53.5 15.5q2 39 -3 71.5t-22 58.5t-49 47t-83 38z" />
    <glyph glyph-name="u0648" unicode="&#x648;" horiz-adv-x="410" arabic-form="isolated" 
d="M60 -190q43 2 83.5 15.5t74 37.5t58.5 57.5t38 74.5q0 4 -0.5 8t-0.5 8q-32 -11 -63.5 -16t-69.5 -5q-57 0 -86 20.5t-29 54.5q0 15 6 42t14 57.5t17.5 60t17.5 50.5l20 15q58 -5 98.5 -27t65 -57t35.5 -82.5t11 -103.5q0 -51 -22.5 -96t-55.5 -79.5t-71.5 -54.5
t-70.5 -20q-8 0 -27.5 2.5t-42.5 7.5v30zM190 40q35 0 67 5.5t52 11.5q-11 83 -49 128t-113 55q-4 -9 -11 -33.5t-14.5 -52t-13.5 -53t-8 -36.5q11 -15 35.5 -20t54.5 -5z" />
    <glyph glyph-name="u0649" unicode="&#x649;" horiz-adv-x="650" arabic-form="isolated" 
d="M540 300q-45 30 -60 30q-19 0 -45.5 -16.5t-52.5 -44.5t-46 -65.5t-26 -78.5q11 -11 53.5 -16t121.5 -9q32 -2 51 -6t28.5 -11.5t12.5 -18t3 -24.5q0 -21 -2 -41t-5 -36.5t-6.5 -29t-6.5 -18.5q-6 -9 -27 -26t-56.5 -33.5t-85 -28.5t-111.5 -12q-58 0 -98 11.5t-65 30.5
t-36 44.5t-11 53.5q0 26 3 65t7 76q4 43 10 89l38 -3q-4 -51 -8 -97q-3 -39 -6 -80t-4 -65q15 -30 56.5 -52.5t113.5 -22.5q79 0 144 19.5t103 49.5q5 24 7.5 53.5t0.5 52.5q-6 2 -20 3.5t-33 2.5t-42 2t-45 2q-34 2 -57 7t-37 14t-20 22t-6 32q0 47 21.5 93.5t53 83.5
t67 60t63.5 23q15 0 35 -12t50 -38z" />
    <glyph glyph-name="u064A" unicode="&#x64a;" horiz-adv-x="650" arabic-form="isolated" 
d="M540 300q-45 30 -60 30q-19 0 -45.5 -16.5t-52.5 -44.5t-46 -65.5t-26 -78.5q11 -11 53.5 -16t121.5 -9q32 -2 51 -6t28.5 -11.5t12.5 -18t3 -24.5q0 -21 -2 -41t-5 -36.5t-6.5 -29t-6.5 -18.5q-6 -9 -27 -26t-56.5 -33.5t-85 -28.5t-111.5 -12q-58 0 -98 11.5t-65 30.5
t-36 44.5t-11 53.5q0 26 3 65t7 76q4 43 10 89l38 -3q-4 -51 -8 -97q-3 -39 -6 -80t-4 -65q15 -30 56.5 -52.5t113.5 -22.5q79 0 144 19.5t103 49.5q5 24 7.5 53.5t0.5 52.5q-6 2 -20 3.5t-33 2.5t-42 2t-45 2q-34 2 -57 7t-37 14t-20 22t-6 32q0 47 21.5 93.5t53 83.5
t67 60t63.5 23q15 0 35 -12t50 -38zM229 -250l65 -40l-30 -50l-65 40zM419 -290l-30 -50l-65 40l30 50z" />
    <glyph glyph-name="u067E" unicode="&#x67e;" horiz-adv-x="725" arabic-form="isolated" 
d="M325 45q34 0 77 2.5t84.5 8t76.5 15t55 23.5q-2 32 -11.5 82t-26.5 99l30 25l15 -5q11 -34 20.5 -75.5t9.5 -79.5q0 -23 -5.5 -40t-14.5 -30t-19.5 -21.5t-20.5 -13.5q-30 -15 -99 -27.5t-171 -12.5q-51 0 -97 4t-81 16t-56 34.5t-21 60.5q0 23 2 48.5t4 48.5q3 26 6 53
l38 -3q-4 -47 -7 -83.5t-5 -78.5q12 -13 34 -22.5t51 -15.5t62.5 -9t69.5 -3zM270 -100l65 -40l-30 -50l-65 40zM385 -300l-65 40l30 50l65 -40zM460 -140l-30 -50l-65 40l30 50z" />
    <glyph glyph-name="u0686" unicode="&#x686;" horiz-adv-x="590" arabic-form="isolated" 
d="M510 -240l-10 -35q-60 -8 -112 -9t-78 -1q-56 0 -100.5 11t-75.5 36.5t-47.5 66.5t-16.5 101v5q0 48 25 97.5t71 94t112 80t147 56.5q-44 16 -82.5 29.5t-70 23t-54 14.5t-33.5 5q-19 0 -41.5 -9.5t-33.5 -20.5v-52t1 -48l-11 -10l-23 10q-2 11 -2 23v27q0 42 2.5 58.5
t7.5 21.5q2 2 12 9.5t24 15.5t32 14t37 6t51.5 -8t75.5 -21.5t93.5 -31.5t104.5 -39l5 -15l-15 -35q-38 0 -75 -9.5t-75 -25.5q-104 -44 -165.5 -100.5t-84.5 -139.5v-5q0 -47 9.5 -82.5t33.5 -59.5t64 -36t102 -12h35.5t41 1t49 3t60.5 6zM270 45l65 -40l-30 -50l-65 40z
M430 -45l-65 40l30 50l65 -40zM385 -155l-65 40l30 50l65 -40z" />
    <glyph glyph-name="u0698" unicode="&#x698;" horiz-adv-x="255" arabic-form="isolated" 
d="M-60 -190q39 2 75 18.5t64.5 44t48 63t27.5 74.5q-2 19 -7.5 43t-13 50.5t-16.5 52.5t-18 49l30 25l15 -5q9 -21 17.5 -47t14.5 -53t9.5 -53t3.5 -47q0 -58 -20.5 -105t-49.5 -80.5t-61 -51.5t-54 -18q-8 0 -25 2.5t-40 7.5v30zM135 350l30 50l65 -40l-30 -50zM85 510
l65 -40l-30 -50l-65 40zM40 400l65 -40l-30 -50l-65 40z" />
    <glyph glyph-name="u06A9" unicode="&#x6a9;" horiz-adv-x="690" arabic-form="isolated" 
d="M325 45q34 0 71 2t70.5 5.5t62 9.5t46.5 15q1 33 -8.5 69t-36 78t-73.5 91.5t-122 109.5l5 20q3 13 6.5 21t9.5 13t15 8.5t24 7.5l265 75l10 -10l-5 -35l-280 -80q77 -64 121.5 -115.5t67.5 -92.5t29.5 -71t6.5 -51q0 -34 -14.5 -56.5t-30.5 -30.5q-13 -7 -36.5 -13
t-55 -10.5t-69.5 -7t-79 -2.5q-51 0 -97 4t-81 16t-56 34.5t-21 60.5q0 23 2 48.5t4 48.5q3 26 6 53l38 -3q-4 -47 -7 -83.5t-5 -78.5q12 -13 34 -22.5t51 -15.5t62.5 -9t69.5 -3z" />
    <glyph glyph-name="u06AF" unicode="&#x6af;" horiz-adv-x="700" arabic-form="isolated" 
d="M325 45q34 0 71 2t70.5 5.5t62 9.5t46.5 15q1 33 -8 68t-33.5 74.5t-68 85t-110.5 100.5l5 20q3 13 6.5 21t9.5 13t15 8.5t24 7.5l255 70l10 -10l-5 -35l-270 -75q69 -58 110 -106t62 -86.5t27 -67.5t6 -50q0 -34 -14.5 -56.5t-30.5 -30.5q-13 -7 -36.5 -13t-55 -10.5
t-69.5 -7t-79 -2.5q-51 0 -97 4t-81 16t-56 34.5t-21 60.5q0 23 2 48.5t4 48.5q3 26 6 53l38 -3q-4 -47 -7 -83.5t-5 -78.5q12 -13 34 -22.5t51 -15.5t62.5 -9t69.5 -3zM395 570l235 65l-5 -40l-235 -65z" />
    <glyph glyph-name="u06C0" unicode="&#x6c0;" horiz-adv-x="425" arabic-form="isolated" 
d="M195 0q-68 0 -96.5 21t-28.5 59t19 104.5t46 146.5l15 9q66 -21 106 -46t62 -53t29.5 -58.5t7.5 -62.5q0 -19 -3.5 -39.5t-13.5 -35.5q-17 -26 -55.5 -35.5t-87.5 -9.5zM158 285q-5 -13 -13 -39t-16.5 -56t-15 -59.5t-8.5 -50.5q4 -8 14.5 -13.5t24 -9t28.5 -5.5t28 -2
q31 0 61.5 4.5t53.5 15.5q2 39 -3 71.5t-22 58.5t-49 47t-83 38zM187 420q-115 0 -115 70q0 22 11 45.5t27.5 42t35.5 30.5t36 12q8 0 20 -8t35 -25l-17 -29l-43 22q-8 0 -20 -7t-24 -18.5t-22 -27t-14 -32.5q14 -35 95 -35h135l-12 -40h-128z" />
    <glyph glyph-name="u06CC" unicode="&#x6cc;" horiz-adv-x="650" arabic-form="isolated" 
d="M80 0zM540 300q-45 30 -60 30q-19 0 -45.5 -16.5t-52.5 -44.5t-46 -65.5t-26 -78.5q11 -11 53.5 -16t121.5 -9q32 -2 51 -6t28.5 -11.5t12.5 -18t3 -24.5q0 -21 -2 -41t-5 -36.5t-6.5 -29t-6.5 -18.5q-6 -9 -27 -26t-56.5 -33.5t-85 -28.5t-111.5 -12q-58 0 -98 11.5
t-65 30.5t-36 44.5t-11 53.5q0 26 3 65t7 76q4 43 10 89l38 -3q-4 -51 -8 -97q-3 -39 -6 -80t-4 -65q15 -30 56.5 -52.5t113.5 -22.5q79 0 144 19.5t103 49.5q5 24 7.5 53.5t0.5 52.5q-6 2 -20 3.5t-33 2.5t-42 2t-45 2q-34 2 -57 7t-37 14t-20 22t-6 32q0 47 21.5 93.5
t53 83.5t67 60t63.5 23q15 0 35 -12t50 -38z" />
    <glyph glyph-name="uFB57" unicode="&#x67e;" horiz-adv-x="720" arabic-form="final" 
d="M720 0q-14 0 -29 2t-29 8.5t-26.5 18.5t-20.5 32q-7 -11 -13 -17t-12 -9q-29 -15 -96 -27.5t-169 -12.5q-51 0 -97 4t-81 16t-56 34.5t-21 60.5q0 23 2 48.5t4 48.5q3 26 6 53l38 -3q-4 -47 -7 -83.5t-5 -78.5q12 -13 34 -22.5t51 -15.5t62.5 -9t69.5 -3q38 0 76 2.5
t72.5 7t64 10.5t49.5 14l23 141h35q-2 -28 -3 -46t-1.5 -28.5t-0.5 -16v-9.5q0 -21 7 -34.5t18.5 -21.5t26 -11t28.5 -3v-50zM460 -140l-30 -50l-65 40l30 50zM385 -300l-65 40l30 50l65 -40zM270 -100l65 -40l-30 -50l-65 40z" />
    <glyph glyph-name="uFB58" unicode="&#x67e;" horiz-adv-x="280" arabic-form="initial" 
d="M0 0q-8 0 -14 7t-6 18q0 12 6 18.5t14 6.5q24 0 49.5 1t49 4t43 7.5t31.5 12.5q0 13 -3 37t-9 52t-14 57.5t-17 53.5l30 25l15 -5q6 -13 12 -35t11 -47t8.5 -49.5t3.5 -43.5q0 -38 -15.5 -63t-34.5 -35q-20 -11 -63.5 -16.5t-96.5 -5.5zM169 -130l-30 -50l-65 40l30 50z
M94 -290l-65 40l30 50l65 -40zM-21 -90l65 -40l-30 -50l-65 40z" />
    <glyph glyph-name="uFB59" unicode="&#x67e;" horiz-adv-x="280" arabic-form="medial" 
d="M280 0q-14 0 -28.5 2t-28.5 8t-26 17.5t-20 30.5q-5 -9 -12 -18.5t-15 -14.5q-15 -11 -52.5 -18t-97.5 -7q-8 0 -14 7t-6 18q0 12 6 18.5t14 6.5q60 0 95 4.5t50 10.5l25 155h35q-2 -28 -3 -46t-1.5 -28.5t-0.5 -16v-9.5q0 -21 7 -34.5t18.5 -21.5t26 -11t28.5 -3v-50z
M245 -130l-30 -50l-65 40l30 50zM170 -290l-65 40l30 50l65 -40zM55 -90l65 -40l-30 -50l-65 40z" />
    <glyph glyph-name="uFB7B" unicode="&#x686;" horiz-adv-x="590" arabic-form="final" 
d="M510 -240l-10 -35q-60 -8 -112 -9t-78 -1q-56 0 -100.5 11t-75.5 36.5t-47.5 66.5t-16.5 101v5q0 48 25 97.5t71 94t112 80t147 56.5q-44 16 -82.5 29.5t-70 23t-54 14.5t-33.5 5q-19 0 -41.5 -9.5t-33.5 -20.5v-52t1 -48l-11 -10l-23 10q-2 11 -2 23v27q0 42 2.5 58.5
t7.5 21.5q2 2 12 9.5t24 15.5t32 14t37 6t51.5 -8t75.5 -21.5t93.5 -31.5t104.5 -39l5 -15l-15 -35q-24 0 -47.5 -4t-47.5 -11q2 -46 10.5 -77.5t24.5 -51t40.5 -28t59.5 -8.5h45v-50h-50q-27 0 -55 5.5t-51.5 26.5t-39.5 61.5t-19 109.5l-10 -4l-10 -4
q-104 -44 -165.5 -100.5t-84.5 -139.5v-5q0 -47 9.5 -82.5t33.5 -59.5t64 -36t102 -12h35.5t41 1t49 3t60.5 6zM320 -180l-65 40l30 50l65 -40zM365 -70l-65 40l30 50l65 -40zM205 20l65 -40l-30 -50l-65 40z" />
    <glyph glyph-name="uFB7C" unicode="&#x686;" horiz-adv-x="580" arabic-form="initial" 
d="M0 0q-8 0 -14 7t-6 18q0 12 6 18.5t14 6.5h75q42 0 69.5 2.5t45.5 6.5t29.5 9.5t20.5 11.5q33 21 57.5 38.5t46 34t43.5 31.5t50 30q-96 37 -158.5 56.5t-83.5 19.5q-19 0 -41.5 -9.5t-33.5 -20.5v-53t1 -42l-26 -15l-8 10q-2 19 -2 29v21q0 42 2.5 58.5t7.5 21.5
q2 2 12 9.5t24 15.5t32 14t37 6t50 -8t72 -21.5t90 -31.5t103 -39l5 -15l-15 -35q-17 0 -30.5 -1t-29.5 -8t-38.5 -22.5t-56.5 -43.5q-49 -39 -80 -61.5t-59 -33t-61 -13t-85 -2.5h-65zM170 -90l65 -40l-30 -50l-65 40zM285 -290l-65 40l30 50l65 -40zM360 -130l-30 -50
l-65 40l30 50z" />
    <glyph glyph-name="uFB7D" unicode="&#x686;" horiz-adv-x="590" arabic-form="medial" 
d="M0 0q-8 0 -14 7t-6 18q0 12 6 18.5t14 6.5h75q42 0 69.5 2.5t45.5 6.5t29.5 9.5t20.5 11.5q33 21 57.5 38.5t46 34t43.5 31.5t50 30q-96 37 -158.5 56.5t-83.5 19.5q-19 0 -41.5 -9.5t-33.5 -20.5v-53t1 -42l-26 -15l-8 10q-2 19 -2 29v21q0 42 2.5 58.5t7.5 21.5
q2 2 12 9.5t24 15.5t32 14t37 6t50 -8t72 -21.5t90 -31.5t103 -39l5 -15l-15 -35q-14 0 -25 -0.5t-22.5 -4t-26 -11t-33.5 -21.5q11 -50 40 -74t87 -24h65v-50h-70q-23 0 -46.5 3.5t-44.5 16.5t-37.5 37t-26.5 65l-15 -12q-49 -39 -80 -61.5t-59 -33t-61 -13t-85 -2.5h-65z
M360 -130l-30 -50l-65 40l30 50zM285 -290l-65 40l30 50l65 -40zM170 -90l65 -40l-30 -50l-65 40z" />
    <glyph glyph-name="uFB8B" unicode="&#x698;" horiz-adv-x="260" arabic-form="final" 
d="M260 0q-48 0 -70 13q-2 -56 -23 -100.5t-50 -76.5t-59.5 -49t-52.5 -17q-8 0 -25 2.5t-40 7.5v30q39 2 75 18.5t64.5 44t48 63t27.5 74.5q-2 19 -7.5 43t-13 50.5t-16.5 52.5t-18 49l30 25l15 -5q8 -23 15.5 -48t14 -47.5t11.5 -40t9 -24.5q8 -8 21.5 -11.5t43.5 -3.5
v-50zM40 400l65 -40l-30 -50l-65 40zM85 510l65 -40l-30 -50l-65 40zM135 350l30 50l65 -40l-30 -50z" />
    <glyph glyph-name="uFB8F" unicode="&#x6a9;" horiz-adv-x="750" arabic-form="final" 
d="M740 0q-23 0 -41.5 2t-33 9t-26.5 18.5t-23 31.5q-6 -11 -12 -16.5t-14 -9.5q-34 -19 -102.5 -29.5t-162.5 -10.5q-51 0 -97 4t-81 16t-56 34.5t-21 60.5q0 23 2 48.5t4 48.5q3 26 6 53l38 -3q-4 -47 -7 -83.5t-5 -78.5q12 -13 34 -22.5t51 -15.5t62.5 -9t69.5 -3
q93 0 164 9.5t115 31.5q-23 52 -46 93.5t-53.5 80.5t-71 78.5t-98.5 86.5l5 20q3 13 6.5 21t9.5 13t15 8.5t24 7.5l265 75l10 -10l-5 -35l-280 -80q58 -49 97 -88.5t68.5 -81t54.5 -90t55 -115.5q11 -11 31.5 -15.5t58.5 -4.5v-50h-10z" />
    <glyph glyph-name="uFB90" unicode="&#x6a9;" horiz-adv-x="395" arabic-form="initial" 
d="M0 0q-8 0 -14 7t-6 18q0 12 6 18.5t14 6.5h30q36 0 73 1t70.5 4t61 8t45.5 14q1 33 -8.5 69t-36 78t-73.5 91.5t-122 109.5l5 20q3 13 6.5 21t9.5 13t15 8.5t24 7.5l265 75l10 -10l-5 -35l-280 -80q77 -64 121.5 -115.5t67.5 -92.5t29.5 -71t6.5 -51q0 -34 -14.5 -56.5
t-30.5 -30.5q-26 -14 -89.5 -21t-150.5 -7h-30z" />
    <glyph glyph-name="uFB91" unicode="&#x6a9;" horiz-adv-x="455" arabic-form="medial" 
d="M445 0q-23 0 -41.5 2t-33 9t-26.5 18.5t-23 31.5q-6 -11 -12 -16.5t-14 -9.5q-34 -19 -100.5 -27t-164.5 -8h-30q-8 0 -14 7t-6 18q0 12 6 18.5t14 6.5h30q96 0 166 7.5t113 28.5q-23 52 -46 93.5t-53.5 80.5t-71 78.5t-98.5 86.5l5 20q3 13 6.5 21t9.5 13t15 8.5t24 7.5
l265 75l10 -10l-5 -35l-280 -80q58 -49 97 -88.5t68.5 -81t54.5 -90t55 -115.5q11 -11 31.5 -15.5t58.5 -4.5v-50h-10z" />
    <glyph glyph-name="uFB93" unicode="&#x6af;" horiz-adv-x="750" arabic-form="final" 
d="M740 0q-23 0 -41.5 2t-33 9t-26.5 18.5t-23 31.5q-6 -11 -12 -16.5t-14 -9.5q-34 -19 -102.5 -29.5t-162.5 -10.5q-51 0 -97 4t-81 16t-56 34.5t-21 60.5q0 23 2 48.5t4 48.5q3 26 6 53l38 -3q-4 -47 -7 -83.5t-5 -78.5q12 -13 34 -22.5t51 -15.5t62.5 -9t69.5 -3
q96 0 166 10.5t112 33.5q-23 51 -45.5 91.5t-51 76.5t-65 71.5t-86.5 76.5l5 20q3 13 6.5 21t9.5 13t15 8.5t24 7.5l255 70l10 -10l-5 -35l-270 -75q51 -43 85.5 -79t62.5 -75t52.5 -86.5t54.5 -114.5q11 -11 31.5 -15.5t58.5 -4.5v-50h-10zM395 570l235 65l-5 -40l-235 -65
z" />
    <glyph glyph-name="uFB94" unicode="&#x6af;" horiz-adv-x="395" arabic-form="initial" 
d="M0 0q-8 0 -14 7t-6 18q0 12 6 18.5t14 6.5h20q36 0 73 1t70.5 4t61 8t45.5 14q1 33 -8 68t-33.5 74.5t-68 85t-110.5 100.5l5 20q3 13 6.5 21t9.5 13t15 8.5t24 7.5l255 70l10 -10l-5 -35l-270 -75q69 -58 110 -106t62 -86.5t27 -67.5t6 -50q0 -34 -14.5 -56.5
t-30.5 -30.5q-26 -14 -89.5 -21t-150.5 -7h-20zM90 570l235 65l-5 -40l-235 -65z" />
    <glyph glyph-name="uFB95" unicode="&#x6af;" horiz-adv-x="445" arabic-form="medial" 
d="M435 0q-23 0 -41.5 2t-33 9t-26.5 18.5t-23 31.5q-6 -11 -12 -16.5t-14 -9.5q-34 -19 -100.5 -27t-164.5 -8h-20q-8 0 -14 7t-6 18q0 12 6 18.5t14 6.5h20q99 0 167.5 8t110.5 31q-23 51 -45.5 91.5t-51 76.5t-65 71.5t-86.5 76.5l5 20q3 13 6.5 21t9.5 13t15 8.5t24 7.5
l255 70l10 -10l-5 -35l-270 -75q51 -43 85.5 -79t62.5 -75t52.5 -86.5t54.5 -114.5q11 -11 31.5 -15.5t58.5 -4.5v-50h-10zM90 570l235 65l-5 -40l-235 -65z" />
    <glyph glyph-name="uFBA5" unicode="&#x6c0;" horiz-adv-x="445" arabic-form="final" 
d="M190 25q-64 0 -92 23.5t-28 76.5q0 23 2 40t8 39q6 10 27 26.5t48 35t56.5 37t54.5 33.5l-12 69l30 15l15 -5l51 -330q11 -19 38 -27t57 -8v-50q-23 0 -44 3t-39 11t-31.5 23.5t-20.5 41.5q-6 -14 -10 -23.5t-5 -10.5q-4 -8 -33.5 -14t-71.5 -6zM273 290
q-25 -15 -51.5 -31t-49 -31t-39.5 -27.5t-23 -21.5q-2 -28 -1 -47.5t9.5 -32t26.5 -18.5t50 -6q28 0 57.5 3t55.5 10q-1 2 -1 7zM242 500q-115 0 -115 70q0 22 11 45.5t27.5 42t35.5 30.5t36 12q8 0 20 -8t35 -25l-17 -29l-43 22q-8 0 -20 -7t-24 -18.5t-22 -27t-14 -32.5
q14 -35 95 -35h135l-12 -40h-128z" />
    <glyph glyph-name="uFBAF" unicode="&#x6d2;" horiz-adv-x="365" arabic-form="final" 
d="M265 0q-19 0 -43 -6t-47 -20t-43.5 -36t-31.5 -55q4 -14 13 -26.5t28 -21.5t49 -14.5t75 -5.5q11 0 45.5 0.5t78.5 1t91 2t83 4.5l7 -12l-15 -38q-21 -1 -49 -2.5t-58.5 -2.5t-61 -1.5t-57 -1t-46.5 -0.5h-28q-53 0 -88 8t-57 22.5t-31 35t-9 44.5q0 34 17 65.5t45 56
t62.5 39t70.5 14.5h100v-50h-100z" />
    <glyph glyph-name="uFBE8" unicode="&#x649;" horiz-adv-x="280" arabic-form="initial" 
d="M0 0q-8 0 -14 7t-6 18q0 12 6 18.5t14 6.5q24 0 49.5 1t49 4t43 7.5t31.5 12.5q0 13 -3 37t-9 52t-14 57.5t-17 53.5l30 25l15 -5q6 -13 12 -35t11 -47t8.5 -49.5t3.5 -43.5q0 -38 -15.5 -63t-34.5 -35q-20 -11 -63.5 -16.5t-96.5 -5.5z" />
    <glyph glyph-name="uFBE9" unicode="&#x649;" horiz-adv-x="280" arabic-form="medial" 
d="M280 0q-14 0 -28.5 2t-28.5 8t-26 17.5t-20 30.5q-5 -9 -12 -18.5t-15 -14.5q-15 -11 -52.5 -18t-97.5 -7q-8 0 -14 7t-6 18q0 12 6 18.5t14 6.5q60 0 95 4.5t50 10.5l25 155h35q-2 -28 -3 -46t-1.5 -28.5t-0.5 -16v-9.5q0 -21 7 -34.5t18.5 -21.5t26 -11t28.5 -3v-50v0z
" />
    <glyph glyph-name="uFBFD" unicode="&#x6cc;" horiz-adv-x="610" arabic-form="final" 
d="M80 0zM562 0q3 -9 3 -25q0 -15 -2 -32t-5 -32.5t-6.5 -27.5t-6.5 -18q-6 -9 -27 -26t-55 -33.5t-80.5 -28.5t-102.5 -12q-58 0 -98 11.5t-65 30.5t-36 44.5t-11 53.5q0 26 3 65t7 76q4 43 10 89l38 -3q-4 -51 -8 -97q-3 -39 -6 -80t-4 -65q15 -30 56.5 -52.5t113.5 -22.5
q33 0 66 5t64 14.5t57 22t45 27.5q5 24 7.5 53.5t0.5 52.5q-9 4 -23 6t-40 3.5t-67 2.5t-105 3l-5 10q2 5 3.5 9.5t3.5 9.5q4 10 9.5 13t13.5 3h300v-50h-48z" />
    <glyph glyph-name="uFBFE" unicode="&#x6cc;" horiz-adv-x="280" arabic-form="initial" 
d="M0 0q-8 0 -14 7t-6 18q0 12 6 18.5t14 6.5q24 0 49.5 1t49 4t43 7.5t31.5 12.5q0 13 -3 37t-9 52t-14 57.5t-17 53.5l30 25l15 -5q6 -13 12 -35t11 -47t8.5 -49.5t3.5 -43.5q0 -38 -15.5 -63t-34.5 -35q-20 -11 -63.5 -16.5t-96.5 -5.5zM169 -130l-30 -50l-65 40l30 50z
M-21 -90l65 -40l-30 -50l-65 40z" />
    <glyph glyph-name="uFBFF" unicode="&#x6cc;" horiz-adv-x="280" arabic-form="medial" 
d="M280 0q-14 0 -28.5 2t-28.5 8t-26 17.5t-20 30.5q-5 -9 -12 -18.5t-15 -14.5q-15 -11 -52.5 -18t-97.5 -7q-8 0 -14 7t-6 18q0 12 6 18.5t14 6.5q60 0 95 4.5t50 10.5l25 155h35q-2 -28 -3 -46t-1.5 -28.5t-0.5 -16v-9.5q0 -21 7 -34.5t18.5 -21.5t26 -11t28.5 -3v-50z
M245 -130l-30 -50l-65 40l30 50zM55 -90l65 -40l-30 -50l-65 40z" />
    <glyph glyph-name="uFC5E" unicode="&#xfc5e;" arabic-form="isolated" 
d="M0 0zM-65 350q0 -9 -3.5 -29t-12.5 -52l111 56q4 2 7.5 4t7.5 4q-14 6 -27 16t-24 21t-17.5 24t-6.5 25q0 6 1.5 13t11 18.5t29.5 30.5t58 49q34 -23 52 -51.5t18 -58.5q0 -15 -4.5 -31t-16.5 -32.5t-33.5 -33.5t-55.5 -33l-115 -55l-25 20q4 13 7.5 27.5t6.5 27t4.5 22
t1.5 13.5q0 11 -10.5 28t-44.5 47l15 30q41 -34 53 -57.5t12 -42.5zM-5 430q4 -18 27 -40t54 -37q16 13 25 28t9 34q0 45 -45 75zM90 0q-38 0 -59.5 7t-33.5 30q-12 -23 -31.5 -30t-45.5 -7q-30 0 -45 13t-15 32q0 23 3 48t7 65l30 -3l-10 -105q2 -4 6 -8q9 -7 29 -7
q30 0 41.5 9.5t13.5 35.5l5 45h30v-45q0 -28 19.5 -36.5t62.5 -8.5q6 23 5 49t-12 71l27 15l8 -5q4 -19 6 -31.5t3 -21.5t1 -15v-12q0 -19 -5 -39t-20 -46h-20z" />
    <glyph glyph-name="uFC5F" unicode="&#xfc5f;" arabic-form="isolated" 
d="M0 0zM90 325q-38 0 -59.5 7t-33.5 30q-12 -23 -31.5 -30t-45.5 -7q-30 0 -45 13t-15 32q0 23 3 48t7 65l30 -3l-10 -105q2 -4 6 -8q9 -7 29 -7q30 0 41.5 9.5t13.5 35.5l5 45h30v-45q0 -28 19.5 -36.5t62.5 -8.5q6 23 5 49t-12 71l27 15l8 -5q4 -19 6 -31.5t3 -21.5
t1 -15v-12q0 -19 -5 -39t-20 -46h-20zM105 105l5 -30l-215 -85l-5 30zM105 215l5 -30l-215 -85l-5 30z" />
    <glyph glyph-name="uFC60" unicode="&#xfc60;" arabic-form="isolated" 
d="M0 0zM105 350l5 -30l-215 -85l-5 30zM90 0q-38 0 -59.5 7t-33.5 30q-12 -23 -31.5 -30t-45.5 -7q-30 0 -45 13t-15 32q0 23 3 48t7 65l30 -3l-10 -105q2 -4 6 -8q9 -7 29 -7q30 0 41.5 9.5t13.5 35.5l5 45h30v-45q0 -28 19.5 -36.5t62.5 -8.5q6 23 5 49t-12 71l27 15
l8 -5q4 -19 6 -31.5t3 -21.5t1 -15v-12q0 -19 -5 -39t-20 -46h-20z" />
    <glyph glyph-name="uFC61" unicode="&#xfc61;" arabic-form="isolated" 
d="M0 0zM0 320q4 2 7.5 4t7.5 4q-14 6 -27 16t-24 21t-17.5 24t-6.5 25q0 6 1.5 13t11 18.5t29.5 30.5t58 49q34 -23 52 -51.5t18 -58.5q0 -15 -4.5 -31t-16.5 -32.5t-33.5 -33.5t-55.5 -33l-105 -50l-5 30zM80 410q0 45 -45 75l-70 -60q4 -18 27 -40t54 -37q16 13 25 28
t9 34zM90 0q-38 0 -59.5 7t-33.5 30q-12 -23 -31.5 -30t-45.5 -7q-30 0 -45 13t-15 32q0 23 3 48t7 65l30 -3l-10 -105q2 -4 6 -8q9 -7 29 -7q30 0 41.5 9.5t13.5 35.5l5 45h30v-45q0 -28 19.5 -36.5t62.5 -8.5q6 23 5 49t-12 71l27 15l8 -5q4 -19 6 -31.5t3 -21.5t1 -15
v-12q0 -19 -5 -39t-20 -46h-20z" />
    <glyph glyph-name="uFC62" unicode="&#xfc62;" arabic-form="isolated" 
d="M0 0zM90 200q-38 0 -59.5 7t-33.5 30q-12 -23 -31.5 -30t-45.5 -7q-30 0 -45 13t-15 32q0 23 3 48t7 65l30 -3l-10 -105q2 -4 6 -8q9 -7 29 -7q30 0 41.5 9.5t13.5 35.5l5 45h30v-45q0 -28 19.5 -36.5t62.5 -8.5q6 23 5 49t-12 71l27 15l8 -5q4 -19 6 -31.5t3 -21.5
t1 -15v-12q0 -19 -5 -39t-20 -46h-20zM105 105l5 -30l-215 -85l-5 30z" />
    <glyph glyph-name="uFC63" unicode="&#xfc63;" arabic-form="isolated" 
d="M0 0zM90 0q-38 0 -59.5 7t-33.5 30q-12 -23 -31.5 -30t-45.5 -7q-30 0 -45 13t-15 32q0 23 3 48t7 65l30 -3l-10 -105q2 -4 6 -8q9 -7 29 -7q30 0 41.5 9.5t13.5 35.5l5 45h30v-45q0 -28 19.5 -36.5t62.5 -8.5q6 23 5 49t-12 71l27 15l8 -5q4 -19 6 -31.5t3 -21.5t1 -15
v-12q0 -19 -5 -39t-20 -46h-20zM-14 220v60q0 24 -0.5 40.5t-3.5 30t-9 27t-17 32.5l25 30q13 -17 20 -32.5t10.5 -33.5t4 -39.5t0.5 -49.5v-55z" />
    <glyph glyph-name="uFC64" unicode="&#xfc64;" horiz-adv-x="495" arabic-form="final" 
d="M495 0q-38 0 -63 7.5t-41.5 22.5t-26 37.5t-14.5 52.5l-14 80q-37 -11 -82.5 -21t-86.5 -15q9 -32 16 -70t7 -69q0 -58 -20.5 -105t-49.5 -80.5t-61 -51.5t-54 -18q-8 0 -25 2.5t-40 7.5v30q39 2 75 18.5t64.5 44t48 63t27.5 74.5q-2 19 -7 43t-11.5 47t-13.5 43.5
t-13 31.5l18 35q24 2 53 6.5t58.5 10.5t57.5 13t51 15l20 -10l17 -105q8 -53 34.5 -71.5t75.5 -18.5v-50zM372 550l-7 -25h-96q-9 -18 -9 -35.5t7.5 -32t22 -23.5t35.5 -9q15 0 37.5 4.5t52.5 15.5l5 -35l-195 -70l-5 30l66 27q-26 10 -41 32.5t-15 50.5q0 15 5 34.5
t20 45.5h110z" />
    <glyph glyph-name="uFC65" unicode="&#xfc65;" horiz-adv-x="495" arabic-form="final" 
d="M495 0q-38 0 -63 7.5t-41.5 22.5t-26 37.5t-14.5 52.5l-14 80q-37 -11 -82.5 -21t-86.5 -15q9 -32 16 -70t7 -69q0 -58 -20.5 -105t-49.5 -80.5t-61 -51.5t-54 -18q-8 0 -25 2.5t-40 7.5v30q39 2 75 18.5t64.5 44t48 63t27.5 74.5q-2 19 -7 43t-11.5 47t-13.5 43.5
t-13 31.5l18 35q24 2 53 6.5t58.5 10.5t57.5 13t51 15l20 -10l17 -105q8 -53 34.5 -71.5t75.5 -18.5v-50zM402 550l-7 -25h-96q-9 -18 -9 -35.5t7.5 -32t22 -23.5t35.5 -9q15 0 37.5 4.5t52.5 15.5l5 -35l-195 -70l-5 30l66 27q-26 10 -41 32.5t-15 50.5q0 15 5 34.5
t20 45.5h110zM135 310l-65 40l30 50l65 -40z" />
    <glyph glyph-name="uFC67" unicode="&#xfc67;" horiz-adv-x="875" arabic-form="final" 
d="M875 0q-38 0 -63 7.5t-41.5 22.5t-26 37.5t-14.5 52.5l-14 80q-38 -11 -86.5 -21.5t-90.5 -15.5q14 -72 20 -125.5t6 -82.5q0 -26 -5 -50t-15 -40q-6 -9 -27 -26t-55 -33.5t-80.5 -28.5t-102.5 -12q-58 0 -98 11.5t-65 30.5t-36 44.5t-11 53.5q0 26 3 65t7 76q4 43 10 89
l38 -3q-4 -51 -8 -97q-3 -39 -6 -80t-4 -65q15 -30 56.5 -52.5t113.5 -22.5q36 0 72 6t69 17t60 25.5t44 31.5q0 35 -3 72.5t-8.5 74.5t-12 71.5t-13.5 64.5l20 32q24 2 53 6.5t58.5 10.5t57.5 13t51 15l20 -10l17 -105q9 -53 35 -71.5t75 -18.5v-50zM752 550l-7 -25h-96
q-9 -18 -9 -35.5t7.5 -32t22 -23.5t35.5 -9q15 0 37.5 4.5t52.5 15.5l5 -35l-195 -70l-5 30l66 27q-26 10 -41 32.5t-15 50.5q0 15 5 34.5t20 45.5h110zM300 230l-65 40l30 50l65 -40z" />
    <glyph glyph-name="uFC68" unicode="&#xfc68;" horiz-adv-x="825" arabic-form="final" 
d="M795 0q-45 0 -80 15.5t-62.5 40t-49 54t-39 56.5t-32.5 48.5t-30 30.5q-30 0 -62 -15.5t-59 -41.5t-46.5 -59t-25.5 -69q6 -6 16.5 -10t31 -7.5t53.5 -7t84 -7.5q28 -2 45 -7.5t26 -13.5t11.5 -18.5t2.5 -23.5q0 -34 -6 -61.5t-13 -38.5q-6 -9 -27 -26t-56.5 -33.5
t-85 -28.5t-111.5 -12q-58 0 -98 11.5t-65 30.5t-36 44.5t-11 53.5q0 26 3 65t7 76q4 43 10 89l38 -3q-4 -51 -8 -97q-3 -39 -6 -80t-4 -65q15 -30 56.5 -52.5t113.5 -22.5q79 0 144.5 20t102.5 49q6 22 8.5 40t0.5 41q-6 4 -20.5 6t-34 3t-42.5 2.5t-45 3.5q-36 4 -59 10
t-36.5 15t-19 22.5t-5.5 32.5q0 39 20 81t53 76t75 56t85 22q17 0 33 -18t33 -45.5t38 -59t48 -59t62.5 -45.5t83.5 -18h20v-50h-30zM542 590l-7 -25h-96q-9 -18 -9 -35.5t7.5 -32t22 -23.5t35.5 -9q15 0 37.5 4.5t52.5 15.5l5 -35l-195 -70l-5 30l66 27q-26 10 -41 32.5
t-15 50.5q0 15 5 34.5t20 45.5h110z" />
    <glyph glyph-name="uFC6A" unicode="&#xfc6a;" horiz-adv-x="495" arabic-form="final" 
d="M495 0q-38 0 -63 7.5t-41.5 22.5t-26 37.5t-14.5 52.5l-14 80q-37 -11 -82.5 -21t-86.5 -15q9 -32 16 -70t7 -69q0 -58 -20.5 -105t-49.5 -80.5t-61 -51.5t-54 -18q-8 0 -25 2.5t-40 7.5v30q39 2 75 18.5t64.5 44t48 63t27.5 74.5q-2 19 -7 43t-11.5 47t-13.5 43.5
t-13 31.5l18 35q24 2 53 6.5t58.5 10.5t57.5 13t51 15l20 -10l17 -105q8 -53 34.5 -71.5t75.5 -18.5v-50zM395 -130l-30 -50l-65 40l30 50z" />
    <glyph glyph-name="uFC6B" unicode="&#xfc6b;" horiz-adv-x="495" arabic-form="final" 
d="M495 0q-38 0 -63 7.5t-41.5 22.5t-26 37.5t-14.5 52.5l-14 80q-37 -11 -82.5 -21t-86.5 -15q9 -32 16 -70t7 -69q0 -58 -20.5 -105t-49.5 -80.5t-61 -51.5t-54 -18q-8 0 -25 2.5t-40 7.5v30q39 2 75 18.5t64.5 44t48 63t27.5 74.5q-2 19 -7 43t-11.5 47t-13.5 43.5
t-13 31.5l18 35q24 2 53 6.5t58.5 10.5t57.5 13t51 15l20 -10l17 -105q8 -53 34.5 -71.5t75.5 -18.5v-50zM395 -130l-30 -50l-65 40l30 50zM135 310l-65 40l30 50l65 -40z" />
    <glyph glyph-name="uFC6D" unicode="&#xfc6d;" horiz-adv-x="875" arabic-form="final" 
d="M875 0q-38 0 -63 7.5t-41.5 22.5t-26 37.5t-14.5 52.5l-14 80q-38 -11 -86.5 -21.5t-90.5 -15.5q14 -72 20 -125.5t6 -82.5q0 -26 -5 -50t-15 -40q-6 -9 -27 -26t-55 -33.5t-80.5 -28.5t-102.5 -12q-58 0 -98 11.5t-65 30.5t-36 44.5t-11 53.5q0 26 3 65t7 76q4 43 10 89
l38 -3q-4 -51 -8 -97q-3 -39 -6 -80t-4 -65q15 -30 56.5 -52.5t113.5 -22.5q36 0 72 6t69 17t60 25.5t44 31.5q0 35 -3 72.5t-8.5 74.5t-12 71.5t-13.5 64.5l20 32q24 2 53 6.5t58.5 10.5t57.5 13t51 15l20 -10l17 -105q9 -53 35 -71.5t75 -18.5v-50zM805 -130l-30 -50
l-65 40l30 50zM300 230l-65 40l30 50l65 -40z" />
    <glyph glyph-name="uFC70" unicode="&#xfc70;" horiz-adv-x="495" arabic-form="final" 
d="M495 0q-38 0 -63 7.5t-41.5 22.5t-26 37.5t-14.5 52.5l-14 80q-37 -11 -82.5 -21t-86.5 -15q9 -32 16 -70t7 -69q0 -58 -20.5 -105t-49.5 -80.5t-61 -51.5t-54 -18q-8 0 -25 2.5t-40 7.5v30q39 2 75 18.5t64.5 44t48 63t27.5 74.5q-2 19 -7 43t-11.5 47t-13.5 43.5
t-13 31.5l18 35q24 2 53 6.5t58.5 10.5t57.5 13t51 15l20 -10l17 -105q8 -53 34.5 -71.5t75.5 -18.5v-50zM240 440l65 -40l-30 -50l-65 40zM335 390l30 50l65 -40l-30 -50z" />
    <glyph glyph-name="uFC71" unicode="&#xfc71;" horiz-adv-x="495" arabic-form="final" 
d="M495 0q-38 0 -63 7.5t-41.5 22.5t-26 37.5t-14.5 52.5l-14 80q-37 -11 -82.5 -21t-86.5 -15q9 -32 16 -70t7 -69q0 -58 -20.5 -105t-49.5 -80.5t-61 -51.5t-54 -18q-8 0 -25 2.5t-40 7.5v30q39 2 75 18.5t64.5 44t48 63t27.5 74.5q-2 19 -7 43t-11.5 47t-13.5 43.5
t-13 31.5l18 35q24 2 53 6.5t58.5 10.5t57.5 13t51 15l20 -10l17 -105q8 -53 34.5 -71.5t75.5 -18.5v-50zM135 310l-65 40l30 50l65 -40zM365 390l30 50l65 -40l-30 -50zM270 440l65 -40l-30 -50l-65 40z" />
    <glyph glyph-name="uFC73" unicode="&#xfc73;" horiz-adv-x="875" arabic-form="final" 
d="M875 0q-38 0 -63 7.5t-41.5 22.5t-26 37.5t-14.5 52.5l-14 80q-38 -11 -86.5 -21.5t-90.5 -15.5q14 -72 20 -125.5t6 -82.5q0 -26 -5 -50t-15 -40q-6 -9 -27 -26t-55 -33.5t-80.5 -28.5t-102.5 -12q-58 0 -98 11.5t-65 30.5t-36 44.5t-11 53.5q0 26 3 65t7 76q4 43 10 89
l38 -3q-4 -51 -8 -97q-3 -39 -6 -80t-4 -65q15 -30 56.5 -52.5t113.5 -22.5q36 0 72 6t69 17t60 25.5t44 31.5q0 35 -3 72.5t-8.5 74.5t-12 71.5t-13.5 64.5l20 32q24 2 53 6.5t58.5 10.5t57.5 13t51 15l20 -10l17 -105q9 -53 35 -71.5t75 -18.5v-50zM300 230l-65 40l30 50
l65 -40zM715 390l30 50l65 -40l-30 -50zM620 440l65 -40l-30 -50l-65 40z" />
    <glyph glyph-name="uFC74" unicode="&#xfc74;" horiz-adv-x="825" arabic-form="final" 
d="M795 0q-45 0 -80 15.5t-62.5 40t-49 54t-39 56.5t-32.5 48.5t-30 30.5q-30 0 -62 -15.5t-59 -41.5t-46.5 -59t-25.5 -69q6 -6 16.5 -10t31 -7.5t53.5 -7t84 -7.5q28 -2 45 -7.5t26 -13.5t11.5 -18.5t2.5 -23.5q0 -34 -6 -61.5t-13 -38.5q-6 -9 -27 -26t-56.5 -33.5
t-85 -28.5t-111.5 -12q-58 0 -98 11.5t-65 30.5t-36 44.5t-11 53.5q0 26 3 65t7 76q4 43 10 89l38 -3q-4 -51 -8 -97q-3 -39 -6 -80t-4 -65q15 -30 56.5 -52.5t113.5 -22.5q79 0 144.5 20t102.5 49q6 22 8.5 40t0.5 41q-6 4 -20.5 6t-34 3t-42.5 2.5t-45 3.5q-36 4 -59 10
t-36.5 15t-19 22.5t-5.5 32.5q0 39 20 81t53 76t75 56t85 22q17 0 33 -18t33 -45.5t38 -59t48 -59t62.5 -45.5t83.5 -18h20v-50h-30zM410 480l65 -40l-30 -50l-65 40zM505 430l30 50l65 -40l-30 -50z" />
    <glyph glyph-name="uFC76" unicode="&#xfc76;" horiz-adv-x="495" arabic-form="final" 
d="M495 0q-38 0 -63 7.5t-41.5 22.5t-26 37.5t-14.5 52.5l-14 80q-37 -11 -82.5 -21t-86.5 -15q9 -32 16 -70t7 -69q0 -58 -20.5 -105t-49.5 -80.5t-61 -51.5t-54 -18q-8 0 -25 2.5t-40 7.5v30q39 2 75 18.5t64.5 44t48 63t27.5 74.5q-2 19 -7 43t-11.5 47t-13.5 43.5
t-13 31.5l18 35q24 2 53 6.5t58.5 10.5t57.5 13t51 15l20 -10l17 -105q8 -53 34.5 -71.5t75.5 -18.5v-50zM335 390l30 50l65 -40l-30 -50zM285 550l65 -40l-30 -50l-65 40zM240 440l65 -40l-30 -50l-65 40z" />
    <glyph glyph-name="uFC77" unicode="&#xfc77;" horiz-adv-x="875" arabic-form="final" 
d="M875 0q-38 0 -63 7.5t-41.5 22.5t-26 37.5t-14.5 52.5l-14 80q-38 -11 -86.5 -21.5t-90.5 -15.5q14 -72 20 -125.5t6 -82.5q0 -26 -5 -50t-15 -40q-6 -9 -27 -26t-55 -33.5t-80.5 -28.5t-102.5 -12q-58 0 -98 11.5t-65 30.5t-36 44.5t-11 53.5q0 26 3 65t7 76q4 43 10 89
l38 -3q-4 -51 -8 -97q-3 -39 -6 -80t-4 -65q15 -30 56.5 -52.5t113.5 -22.5q36 0 72 6t69 17t60 25.5t44 31.5q0 35 -3 72.5t-8.5 74.5t-12 71.5t-13.5 64.5l20 32q24 2 53 6.5t58.5 10.5t57.5 13t51 15l20 -10l17 -105q9 -53 35 -71.5t75 -18.5v-50zM620 440l65 -40
l-30 -50l-65 40zM300 230l-65 40l30 50l65 -40zM715 390l30 50l65 -40l-30 -50zM665 550l65 -40l-30 -50l-65 40z" />
    <glyph glyph-name="uFC7A" unicode="&#xfc7a;" horiz-adv-x="825" arabic-form="final" 
d="M795 0q-45 0 -80 15.5t-62.5 40t-49 54t-39 56.5t-32.5 48.5t-30 30.5q-30 0 -62 -15.5t-59 -41.5t-46.5 -59t-25.5 -69q6 -6 16.5 -10t31 -7.5t53.5 -7t84 -7.5q28 -2 45 -7.5t26 -13.5t11.5 -18.5t2.5 -23.5q0 -34 -6 -61.5t-13 -38.5q-6 -9 -27 -26t-56.5 -33.5
t-85 -28.5t-111.5 -12q-58 0 -98 11.5t-65 30.5t-36 44.5t-11 53.5q0 26 3 65t7 76q4 43 10 89l38 -3q-4 -51 -8 -97q-3 -39 -6 -80t-4 -65q15 -30 56.5 -52.5t113.5 -22.5q79 0 144.5 20t102.5 49q6 22 8.5 40t0.5 41q-6 4 -20.5 6t-34 3t-42.5 2.5t-45 3.5q-36 4 -59 10
t-36.5 15t-19 22.5t-5.5 32.5q0 39 20 81t53 76t75 56t85 22q17 0 33 -18t33 -45.5t38 -59t48 -59t62.5 -45.5t83.5 -18h20v-50h-30zM410 480l65 -40l-30 -50l-65 40zM455 590l65 -40l-30 -50l-65 40zM505 430l30 50l65 -40l-30 -50z" />
    <glyph glyph-name="uFC8A" unicode="&#xfc8a;" horiz-adv-x="495" arabic-form="final" 
d="M495 0q-38 0 -63 7.5t-41.5 22.5t-26 37.5t-14.5 52.5l-14 80q-37 -11 -82.5 -21t-86.5 -15q9 -32 16 -70t7 -69q0 -58 -20.5 -105t-49.5 -80.5t-61 -51.5t-54 -18q-8 0 -25 2.5t-40 7.5v30q39 2 75 18.5t64.5 44t48 63t27.5 74.5q-2 19 -7 43t-11.5 47t-13.5 43.5
t-13 31.5l18 35q24 2 53 6.5t58.5 10.5t57.5 13t51 15l20 -10l17 -105q8 -53 34.5 -71.5t75.5 -18.5v-50zM270 390l30 50l65 -40l-30 -50z" />
    <glyph glyph-name="uFC8B" unicode="&#xfc8b;" horiz-adv-x="495" arabic-form="final" 
d="M495 0q-38 0 -63 7.5t-41.5 22.5t-26 37.5t-14.5 52.5l-14 80q-37 -11 -82.5 -21t-86.5 -15q9 -32 16 -70t7 -69q0 -58 -20.5 -105t-49.5 -80.5t-61 -51.5t-54 -18q-8 0 -25 2.5t-40 7.5v30q39 2 75 18.5t64.5 44t48 63t27.5 74.5q-2 19 -7 43t-11.5 47t-13.5 43.5
t-13 31.5l18 35q24 2 53 6.5t58.5 10.5t57.5 13t51 15l20 -10l17 -105q8 -53 34.5 -71.5t75.5 -18.5v-50zM300 390l30 50l65 -40l-30 -50zM135 310l-65 40l30 50l65 -40z" />
    <glyph glyph-name="uFC8D" unicode="&#xfc8d;" horiz-adv-x="875" arabic-form="final" 
d="M875 0q-38 0 -63 7.5t-41.5 22.5t-26 37.5t-14.5 52.5l-14 80q-38 -11 -86.5 -21.5t-90.5 -15.5q14 -72 20 -125.5t6 -82.5q0 -26 -5 -50t-15 -40q-6 -9 -27 -26t-55 -33.5t-80.5 -28.5t-102.5 -12q-58 0 -98 11.5t-65 30.5t-36 44.5t-11 53.5q0 26 3 65t7 76q4 43 10 89
l38 -3q-4 -51 -8 -97q-3 -39 -6 -80t-4 -65q15 -30 56.5 -52.5t113.5 -22.5q36 0 72 6t69 17t60 25.5t44 31.5q0 35 -3 72.5t-8.5 74.5t-12 71.5t-13.5 64.5l20 32q24 2 53 6.5t58.5 10.5t57.5 13t51 15l20 -10l17 -105q9 -53 35 -71.5t75 -18.5v-50zM650 390l30 50l65 -40
l-30 -50zM300 230l-65 40l30 50l65 -40z" />
    <glyph glyph-name="uFC8E" unicode="&#xfc8e;" horiz-adv-x="825" arabic-form="final" 
d="M795 0q-45 0 -80 15.5t-62.5 40t-49 54t-39 56.5t-32.5 48.5t-30 30.5q-30 0 -62 -15.5t-59 -41.5t-46.5 -59t-25.5 -69q6 -6 16.5 -10t31 -7.5t53.5 -7t84 -7.5q28 -2 45 -7.5t26 -13.5t11.5 -18.5t2.5 -23.5q0 -34 -6 -61.5t-13 -38.5q-6 -9 -27 -26t-56.5 -33.5
t-85 -28.5t-111.5 -12q-58 0 -98 11.5t-65 30.5t-36 44.5t-11 53.5q0 26 3 65t7 76q4 43 10 89l38 -3q-4 -51 -8 -97q-3 -39 -6 -80t-4 -65q15 -30 56.5 -52.5t113.5 -22.5q79 0 144.5 20t102.5 49q6 22 8.5 40t0.5 41q-6 4 -20.5 6t-34 3t-42.5 2.5t-45 3.5q-36 4 -59 10
t-36.5 15t-19 22.5t-5.5 32.5q0 39 20 81t53 76t75 56t85 22q17 0 33 -18t33 -45.5t38 -59t48 -59t62.5 -45.5t83.5 -18h20v-50h-30zM440 430l30 50l65 -40l-30 -50z" />
    <glyph glyph-name="uFC91" unicode="&#xfc91;" horiz-adv-x="495" arabic-form="final" 
d="M495 0q-38 0 -63 7.5t-41.5 22.5t-26 37.5t-14.5 52.5l-14 80q-37 -11 -82.5 -21t-86.5 -15q9 -32 16 -70t7 -69q0 -58 -20.5 -105t-49.5 -80.5t-61 -51.5t-54 -18q-8 0 -25 2.5t-40 7.5v30q39 2 75 18.5t64.5 44t48 63t27.5 74.5q-2 19 -7 43t-11.5 47t-13.5 43.5
t-13 31.5l18 35q24 2 53 6.5t58.5 10.5t57.5 13t51 15l20 -10l17 -105q8 -53 34.5 -71.5t75.5 -18.5v-50zM270 -90l65 -40l-30 -50l-65 40zM460 -130l-30 -50l-65 40l30 50z" />
    <glyph glyph-name="uFC92" unicode="&#xfc92;" horiz-adv-x="495" arabic-form="final" 
d="M495 0q-38 0 -63 7.5t-41.5 22.5t-26 37.5t-14.5 52.5l-14 80q-37 -11 -82.5 -21t-86.5 -15q9 -32 16 -70t7 -69q0 -58 -20.5 -105t-49.5 -80.5t-61 -51.5t-54 -18q-8 0 -25 2.5t-40 7.5v30q39 2 75 18.5t64.5 44t48 63t27.5 74.5q-2 19 -7 43t-11.5 47t-13.5 43.5
t-13 31.5l18 35q24 2 53 6.5t58.5 10.5t57.5 13t51 15l20 -10l17 -105q8 -53 34.5 -71.5t75.5 -18.5v-50zM135 310l-65 40l30 50l65 -40zM460 -130l-30 -50l-65 40l30 50zM270 -90l65 -40l-30 -50l-65 40z" />
    <glyph glyph-name="uFC94" unicode="&#xfc94;" horiz-adv-x="875" arabic-form="final" 
d="M875 0q-38 0 -63 7.5t-41.5 22.5t-26 37.5t-14.5 52.5l-14 80q-38 -11 -86.5 -21.5t-90.5 -15.5q14 -72 20 -125.5t6 -82.5q0 -26 -5 -50t-15 -40q-6 -9 -27 -26t-55 -33.5t-80.5 -28.5t-102.5 -12q-58 0 -98 11.5t-65 30.5t-36 44.5t-11 53.5q0 26 3 65t7 76q4 43 10 89
l38 -3q-4 -51 -8 -97q-3 -39 -6 -80t-4 -65q15 -30 56.5 -52.5t113.5 -22.5q36 0 72 6t69 17t60 25.5t44 31.5q0 35 -3 72.5t-8.5 74.5t-12 71.5t-13.5 64.5l20 32q24 2 53 6.5t58.5 10.5t57.5 13t51 15l20 -10l17 -105q9 -53 35 -71.5t75 -18.5v-50zM300 230l-65 40l30 50
l65 -40zM870 -130l-30 -50l-65 40l30 50zM680 -90l65 -40l-30 -50l-65 40z" />
    <glyph glyph-name="uFCFB" unicode="&#xfcfb;" horiz-adv-x="1210" arabic-form="isolated" 
d="M995 0q-12 0 -25 2t-26.5 7.5t-25 16t-20.5 28.5q-9 -18 -23 -29q-13 -10 -39.5 -17.5t-60.5 -7.5q-40 0 -71.5 15.5t-57 40t-45.5 54t-37 56.5t-32 48.5t-30 30.5q-30 0 -62 -15.5t-59 -41.5t-46.5 -59t-25.5 -69q6 -6 16.5 -10t31 -7.5t53.5 -7t84 -7.5q28 -2 45 -7.5
t26 -13.5t11.5 -18.5t2.5 -23.5q0 -34 -6 -61.5t-13 -38.5q-6 -9 -27 -26t-56.5 -33.5t-85 -28.5t-111.5 -12q-58 0 -98 11.5t-65 30.5t-36 44.5t-11 53.5q0 26 3 65t7 76q4 43 10 89l38 -3q-4 -51 -8 -97q-3 -39 -6 -80t-4 -65q15 -30 56.5 -52.5t113.5 -22.5
q79 0 144.5 20t102.5 49q6 22 8.5 40t0.5 41q-6 4 -20.5 6t-34 3t-42.5 2.5t-45 3.5q-36 4 -59 10t-36.5 15t-19 22.5t-5.5 32.5q0 39 20 81t53 76t75 56t85 22q17 0 33 -18t33 -45.5t36.5 -59t44 -59t55.5 -45.5t71 -18q54 0 90 16l25 154h35q-2 -28 -3 -46t-1.5 -28.5
t-0.5 -16v-9.5q0 -21 7 -34.5t17.5 -21.5t24 -11t26.5 -3q30 0 58 7t45 18q0 17 -3 41t-7.5 51t-11.5 54.5t-16 53.5l30 25l15 -5q11 -34 20.5 -79.5t9.5 -90.5q0 -42 -15.5 -69t-34.5 -36t-40 -14.5t-55 -5.5z" />
    <glyph glyph-name="uFCFD" unicode="&#xfcfd;" horiz-adv-x="1210" arabic-form="isolated" 
d="M995 0q-12 0 -25 2t-26.5 7.5t-25 16t-20.5 28.5q-9 -18 -23 -29q-13 -10 -39.5 -17.5t-60.5 -7.5q-40 0 -71.5 15.5t-57 40t-45.5 54t-37 56.5t-32 48.5t-30 30.5q-30 0 -62 -15.5t-59 -41.5t-46.5 -59t-25.5 -69q6 -6 16.5 -10t31 -7.5t53.5 -7t84 -7.5q28 -2 45 -7.5
t26 -13.5t11.5 -18.5t2.5 -23.5q0 -34 -6 -61.5t-13 -38.5q-6 -9 -27 -26t-56.5 -33.5t-85 -28.5t-111.5 -12q-58 0 -98 11.5t-65 30.5t-36 44.5t-11 53.5q0 26 3 65t7 76q4 43 10 89l38 -3q-4 -51 -8 -97q-3 -39 -6 -80t-4 -65q15 -30 56.5 -52.5t113.5 -22.5
q79 0 144.5 20t102.5 49q6 22 8.5 40t0.5 41q-6 4 -20.5 6t-34 3t-42.5 2.5t-45 3.5q-36 4 -59 10t-36.5 15t-19 22.5t-5.5 32.5q0 39 20 81t53 76t75 56t85 22q17 0 33 -18t33 -45.5t36.5 -59t44 -59t55.5 -45.5t71 -18q54 0 90 16l25 154h35q-2 -28 -3 -46t-1.5 -28.5
t-0.5 -16v-9.5q0 -21 7 -34.5t17.5 -21.5t24 -11t26.5 -3q30 0 58 7t45 18q0 17 -3 41t-7.5 51t-11.5 54.5t-16 53.5l30 25l15 -5q11 -34 20.5 -79.5t9.5 -90.5q0 -42 -15.5 -69t-34.5 -36t-40 -14.5t-55 -5.5zM815 410l65 -40l-30 -50l-65 40zM910 360l30 50l65 -40
l-30 -50zM860 520l65 -40l-30 -50l-65 40z" />
    <glyph glyph-name="uFD05" unicode="&#xfd05;" horiz-adv-x="1160" arabic-form="isolated" 
d="M800 0q-48 0 -84 15.5t-64 40t-49.5 54t-39 56.5t-32 48.5t-29.5 30.5q-30 0 -62 -15.5t-59 -41.5t-46.5 -59t-25.5 -69q6 -6 16.5 -10t31 -7.5t53.5 -7t84 -7.5q28 -2 45 -7.5t26 -13.5t11.5 -18.5t2.5 -23.5q0 -34 -6 -61.5t-13 -38.5q-6 -9 -27 -26t-56.5 -33.5
t-85 -28.5t-111.5 -12q-58 0 -98 11.5t-65 30.5t-36 44.5t-11 53.5q0 26 3 65t7 76q4 43 10 89l38 -3q-4 -51 -8 -97q-3 -39 -6 -80t-4 -65q15 -30 56.5 -52.5t113.5 -22.5q79 0 144.5 20t102.5 49q6 22 8.5 40t0.5 41q-6 4 -20.5 6t-34 3t-42.5 2.5t-45 3.5q-36 4 -59 10
t-36.5 15t-19 22.5t-5.5 32.5q0 39 20 81t53 76t75 56t85 22q18 0 34 -19.5t34 -49t40 -62.5t53 -60q85 74 136 116t79 63t40.5 26.5t21.5 5.5q22 0 47.5 -13t47.5 -37.5t36 -61t14 -83.5q0 -13 -3.5 -27.5t-10 -27t-15.5 -22.5t-20 -15q-60 -28 -196 -28h-45zM935 260
q-11 0 -28.5 -10.5t-46 -32t-68 -55.5t-93.5 -82q23 -14 50 -22t61 -8h50q137 0 190 30q4 36 -6.5 68.5t-28.5 57t-39.5 39.5t-40.5 15z" />
    <glyph glyph-name="uFD07" unicode="&#xfd07;" horiz-adv-x="1160" arabic-form="isolated" 
d="M800 0q-48 0 -84 15.5t-64 40t-49.5 54t-39 56.5t-32 48.5t-29.5 30.5q-30 0 -62 -15.5t-59 -41.5t-46.5 -59t-25.5 -69q6 -6 16.5 -10t31 -7.5t53.5 -7t84 -7.5q28 -2 45 -7.5t26 -13.5t11.5 -18.5t2.5 -23.5q0 -34 -6 -61.5t-13 -38.5q-6 -9 -27 -26t-56.5 -33.5
t-85 -28.5t-111.5 -12q-58 0 -98 11.5t-65 30.5t-36 44.5t-11 53.5q0 26 3 65t7 76q4 43 10 89l38 -3q-4 -51 -8 -97q-3 -39 -6 -80t-4 -65q15 -30 56.5 -52.5t113.5 -22.5q79 0 144.5 20t102.5 49q6 22 8.5 40t0.5 41q-6 4 -20.5 6t-34 3t-42.5 2.5t-45 3.5q-36 4 -59 10
t-36.5 15t-19 22.5t-5.5 32.5q0 39 20 81t53 76t75 56t85 22q18 0 34 -19.5t34 -49t40 -62.5t53 -60q85 74 136 116t79 63t40.5 26.5t21.5 5.5q22 0 47.5 -13t47.5 -37.5t36 -61t14 -83.5q0 -13 -3.5 -27.5t-10 -27t-15.5 -22.5t-20 -15q-60 -28 -196 -28h-45zM935 260
q-11 0 -28.5 -10.5t-46 -32t-68 -55.5t-93.5 -82q23 -14 50 -22t61 -8h50q137 0 190 30q4 36 -6.5 68.5t-28.5 57t-39.5 39.5t-40.5 15zM885 445l30 50l65 -40l-30 -50z" />
    <glyph glyph-name="uFD0D" unicode="&#xfd0d;" horiz-adv-x="920" arabic-form="isolated" 
d="M705 0q-12 0 -25 2t-26.5 8t-25 16.5t-20.5 28.5q-14 -26 -40 -40.5t-83 -14.5q-34 0 -57 7.5t-39 22.5t-25 37.5t-14 52.5l-15 83q-39 -4 -84.5 -13t-85.5 -20q9 -32 17 -72.5t8 -72.5q0 -58 -20.5 -105t-49.5 -80.5t-61 -51.5t-54 -18q-8 0 -25 2.5t-40 7.5v30
q39 2 75 18.5t64.5 44t48 63t27.5 74.5q-2 19 -7 43t-11.5 47t-13.5 43.5t-13 31.5l18 35q22 7 50.5 14.5t58 13.5t58.5 10.5t53 6.5l20 -10l17 -105q8 -53 34 -71.5t71 -18.5q54 0 90 16l25 154h35q-2 -28 -3 -46t-1.5 -28.5t-0.5 -16v-9.5q0 -21 7 -34.5t17.5 -21.5
t24 -11t26.5 -3q30 0 58 7t45 18q0 17 -3 41t-7.5 51t-11.5 54.5t-16 53.5l30 25l15 -5q11 -34 20.5 -79.5t9.5 -90.5q0 -39 -11.5 -63.5t-31 -38t-46 -18.5t-56.5 -5zM570 520l65 -40l-30 -50l-65 40zM525 410l65 -40l-30 -50l-65 40zM620 360l30 50l65 -40l-30 -50z
M135 310l-65 40l30 50l65 -40z" />
    <glyph glyph-name="uFD0E" unicode="&#xfd0e;" horiz-adv-x="920" arabic-form="isolated" 
d="M705 0q-12 0 -25 2t-26.5 8t-25 16.5t-20.5 28.5q-14 -26 -40 -40.5t-83 -14.5q-34 0 -57 7.5t-39 22.5t-25 37.5t-14 52.5l-15 83q-39 -4 -84.5 -13t-85.5 -20q9 -32 17 -72.5t8 -72.5q0 -58 -20.5 -105t-49.5 -80.5t-61 -51.5t-54 -18q-8 0 -25 2.5t-40 7.5v30
q39 2 75 18.5t64.5 44t48 63t27.5 74.5q-2 19 -7 43t-11.5 47t-13.5 43.5t-13 31.5l18 35q22 7 50.5 14.5t58 13.5t58.5 10.5t53 6.5l20 -10l17 -105q8 -53 34 -71.5t71 -18.5q54 0 90 16l25 154h35q-2 -28 -3 -46t-1.5 -28.5t-0.5 -16v-9.5q0 -21 7 -34.5t17.5 -21.5
t24 -11t26.5 -3q30 0 58 7t45 18q0 17 -3 41t-7.5 51t-11.5 54.5t-16 53.5l30 25l15 -5q11 -34 20.5 -79.5t9.5 -90.5q0 -39 -11.5 -63.5t-31 -38t-46 -18.5t-56.5 -5zM135 310l-65 40l30 50l65 -40z" />
    <glyph glyph-name="uFD0F" unicode="&#xfd0f;" horiz-adv-x="900" arabic-form="isolated" 
d="M485 0q-34 0 -57 7.5t-39 22.5t-25 37.5t-14 52.5l-15 83q-39 -4 -84.5 -13t-85.5 -20q9 -32 17 -72.5t8 -72.5q0 -58 -20.5 -105t-49.5 -80.5t-61 -51.5t-54 -18q-8 0 -25 2.5t-40 7.5v30q39 2 75 18.5t64.5 44t48 63t27.5 74.5q-2 19 -7 43t-11.5 47t-13.5 43.5
t-13 31.5l18 35q22 7 50.5 14.5t58 13.5t58.5 10.5t53 6.5l20 -10l17 -105q5 -29 13 -45q59 51 102 87.5t72.5 61t48.5 38.5t31 21.5t19.5 9.5t13.5 2q22 0 47.5 -13t47.5 -37.5t36 -61t14 -83.5q0 -37 -15.5 -60.5t-46.5 -36.5t-76.5 -18t-106.5 -5h-100zM675 260
q-11 0 -30 -11t-49 -35t-72.5 -60.5t-100.5 -87.5q13 -9 29.5 -12.5t37.5 -3.5h110q137 0 190 30q0 5 0.5 8.5t0.5 8.5q0 33 -11.5 62.5t-29 52t-37.5 35.5t-38 13zM135 310l-65 40l30 50l65 -40z" />
    <glyph glyph-name="uFD10" unicode="&#xfd10;" horiz-adv-x="900" arabic-form="isolated" 
d="M485 0q-34 0 -57 7.5t-39 22.5t-25 37.5t-14 52.5l-15 83q-39 -4 -84.5 -13t-85.5 -20q9 -32 17 -72.5t8 -72.5q0 -58 -20.5 -105t-49.5 -80.5t-61 -51.5t-54 -18q-8 0 -25 2.5t-40 7.5v30q39 2 75 18.5t64.5 44t48 63t27.5 74.5q-2 19 -7 43t-11.5 47t-13.5 43.5
t-13 31.5l18 35q22 7 50.5 14.5t58 13.5t58.5 10.5t53 6.5l20 -10l17 -105q5 -29 13 -45q59 51 102 87.5t72.5 61t48.5 38.5t31 21.5t19.5 9.5t13.5 2q22 0 47.5 -13t47.5 -37.5t36 -61t14 -83.5q0 -37 -15.5 -60.5t-46.5 -36.5t-76.5 -18t-106.5 -5h-100zM675 260
q-11 0 -30 -11t-49 -35t-72.5 -60.5t-100.5 -87.5q13 -9 29.5 -12.5t37.5 -3.5h110q137 0 190 30q0 5 0.5 8.5t0.5 8.5q0 33 -11.5 62.5t-29 52t-37.5 35.5t-38 13zM135 310l-65 40l30 50l65 -40zM625 445l30 50l65 -40l-30 -50z" />
    <glyph glyph-name="uFD17" unicode="&#xfd17;" horiz-adv-x="1215" arabic-form="final" 
d="M1215 0q-14 0 -29 2t-29 8.5t-26 18t-20 31.5q-11 -23 -26 -35q-11 -9 -35.5 -17t-54.5 -8q-12 0 -25 2t-26.5 7.5t-25 16t-20.5 28.5q-9 -18 -23 -29q-13 -10 -39.5 -17.5t-60.5 -7.5q-40 0 -71.5 15.5t-57 40t-45.5 54t-37 56.5t-32 48.5t-30 30.5q-30 0 -62 -15.5
t-59 -41.5t-46.5 -59t-25.5 -69q6 -6 16.5 -10t31 -7.5t53.5 -7t84 -7.5q28 -2 45 -7.5t26 -13.5t11.5 -18.5t2.5 -23.5q0 -34 -6 -61.5t-13 -38.5q-6 -9 -27 -26t-56.5 -33.5t-85 -28.5t-111.5 -12q-58 0 -98 11.5t-65 30.5t-36 44.5t-11 53.5q0 26 3 65t7 76q4 43 10 89
l38 -3q-4 -51 -8 -97q-3 -39 -6 -80t-4 -65q15 -30 56.5 -52.5t113.5 -22.5q79 0 144.5 20t102.5 49q6 22 8.5 40t0.5 41q-6 4 -20.5 6t-34 3t-42.5 2.5t-45 3.5q-36 4 -59 10t-36.5 15t-19 22.5t-5.5 32.5q0 39 20 81t53 76t75 56t85 22q17 0 33 -18t33 -45.5t36.5 -59
t44 -59t55.5 -45.5t71 -18q54 0 90 16l25 154h35q-2 -28 -3 -46t-1.5 -28.5t-0.5 -16v-9.5q0 -21 7 -34.5t17.5 -21.5t24 -11t26.5 -3q27 0 47 5.5t33 11.5q5 23 9 53.5t8 58.5l8 66h35q-2 -34 -2.5 -56t-1.5 -36.5t-1 -21.5v-11q0 -38 23 -54t57 -16v-50v0z" />
    <glyph glyph-name="uFD21" unicode="&#xfd21;" horiz-adv-x="1170" arabic-form="final" 
d="M1160 0q-26 0 -55 6t-52 29q-4 -3 -12 -7q-60 -28 -196 -28h-45q-48 0 -84 15.5t-64 40t-49.5 54t-39 56.5t-32 48.5t-29.5 30.5q-30 0 -62 -15.5t-59 -41.5t-46.5 -59t-25.5 -69q6 -6 16.5 -10t31 -7.5t53.5 -7t84 -7.5q28 -2 45 -7.5t26 -13.5t11.5 -18.5t2.5 -23.5
q0 -34 -6 -61.5t-13 -38.5q-6 -9 -27 -26t-56.5 -33.5t-85 -28.5t-111.5 -12q-58 0 -98 11.5t-65 30.5t-36 44.5t-11 53.5q0 26 3 65t7 76q4 43 10 89l38 -3q-4 -51 -8 -97q-3 -39 -6 -80t-4 -65q15 -30 56.5 -52.5t113.5 -22.5q79 0 144.5 20t102.5 49q6 22 8.5 40t0.5 41
q-6 4 -20.5 6t-34 3t-42.5 2.5t-45 3.5q-36 4 -59 10t-36.5 15t-19 22.5t-5.5 32.5q0 39 20 81t53 76t75 56t85 22q18 0 34 -19.5t34 -49t40 -62.5t53 -60q85 74 136 116t79 63t40.5 26.5t21.5 5.5q22 0 47.5 -13t47.5 -37.5t36 -61t14 -83.5q0 -26 -13 -54q16 -10 35 -13
t48 -3h10v-50h-10zM935 260q-11 0 -28.5 -10.5t-46 -32t-68 -55.5t-93.5 -82q23 -14 50 -22t61 -8h50q137 0 190 30q4 36 -6.5 68.5t-28.5 57t-39.5 39.5t-40.5 15z" />
    <glyph glyph-name="uFD23" unicode="&#xfd23;" horiz-adv-x="1170" arabic-form="final" 
d="M1160 0q-26 0 -55 6t-52 29q-4 -3 -12 -7q-60 -28 -196 -28h-45q-48 0 -84 15.5t-64 40t-49.5 54t-39 56.5t-32 48.5t-29.5 30.5q-30 0 -62 -15.5t-59 -41.5t-46.5 -59t-25.5 -69q6 -6 16.5 -10t31 -7.5t53.5 -7t84 -7.5q28 -2 45 -7.5t26 -13.5t11.5 -18.5t2.5 -23.5
q0 -34 -6 -61.5t-13 -38.5q-6 -9 -27 -26t-56.5 -33.5t-85 -28.5t-111.5 -12q-58 0 -98 11.5t-65 30.5t-36 44.5t-11 53.5q0 26 3 65t7 76q4 43 10 89l38 -3q-4 -51 -8 -97q-3 -39 -6 -80t-4 -65q15 -30 56.5 -52.5t113.5 -22.5q79 0 144.5 20t102.5 49q6 22 8.5 40t0.5 41
q-6 4 -20.5 6t-34 3t-42.5 2.5t-45 3.5q-36 4 -59 10t-36.5 15t-19 22.5t-5.5 32.5q0 39 20 81t53 76t75 56t85 22q18 0 34 -19.5t34 -49t40 -62.5t53 -60q85 74 136 116t79 63t40.5 26.5t21.5 5.5q22 0 47.5 -13t47.5 -37.5t36 -61t14 -83.5q0 -26 -13 -54q16 -10 35 -13
t48 -3h10v-50h-10zM935 260q-11 0 -28.5 -10.5t-46 -32t-68 -55.5t-93.5 -82q23 -14 50 -22t61 -8h50q137 0 190 30q4 36 -6.5 68.5t-28.5 57t-39.5 39.5t-40.5 15zM885 445l30 50l65 -40l-30 -50z" />
    <glyph glyph-name="uFD29" unicode="&#xfd29;" horiz-adv-x="925" arabic-form="final" 
d="M925 0q-14 0 -29 2t-29 8.5t-26 18t-20 30.5q-14 -27 -39 -43t-77 -16q-12 0 -25 2t-26.5 8t-25 16.5t-20.5 28.5q-14 -26 -40 -40.5t-83 -14.5q-34 0 -57 7.5t-39 22.5t-25 37.5t-14 52.5l-15 83q-39 -4 -84.5 -13t-85.5 -20q9 -32 17 -72.5t8 -72.5q0 -58 -20.5 -105
t-49.5 -80.5t-61 -51.5t-54 -18q-8 0 -25 2.5t-40 7.5v30q39 2 75 18.5t64.5 44t48 63t27.5 74.5q-2 19 -7 43t-11.5 47t-13.5 43.5t-13 31.5l18 35q22 7 50.5 14.5t58 13.5t58.5 10.5t53 6.5l20 -10l17 -105q8 -53 34 -71.5t71 -18.5q54 0 90 16l25 154h35q-2 -28 -3 -46
t-1.5 -28.5t-0.5 -16v-9.5q0 -21 7 -34.5t17.5 -21.5t24 -11t26.5 -3q27 0 47 5.5t33 11.5q5 23 9 53.5t8 58.5l8 66h35q-2 -34 -2.5 -56t-1.5 -36.5t-1 -21.5v-11q0 -38 23 -54t57 -16v-50zM630 360l30 50l65 -40l-30 -50zM580 520l65 -40l-30 -50l-65 40zM535 410l65 -40
l-30 -50l-65 40zM135 310l-65 40l30 50l65 -40z" />
    <glyph glyph-name="uFD2A" unicode="&#xfd2a;" horiz-adv-x="925" arabic-form="final" 
d="M925 0q-14 0 -29 2t-29 8.5t-26 18t-20 30.5q-14 -27 -39 -43t-77 -16q-12 0 -25 2t-26.5 8t-25 16.5t-20.5 28.5q-14 -26 -40 -40.5t-83 -14.5q-34 0 -57 7.5t-39 22.5t-25 37.5t-14 52.5l-15 83q-39 -4 -84.5 -13t-85.5 -20q9 -32 17 -72.5t8 -72.5q0 -58 -20.5 -105
t-49.5 -80.5t-61 -51.5t-54 -18q-8 0 -25 2.5t-40 7.5v30q39 2 75 18.5t64.5 44t48 63t27.5 74.5q-2 19 -7 43t-11.5 47t-13.5 43.5t-13 31.5l18 35q22 7 50.5 14.5t58 13.5t58.5 10.5t53 6.5l20 -10l17 -105q8 -53 34 -71.5t71 -18.5q54 0 90 16l25 154h35q-2 -28 -3 -46
t-1.5 -28.5t-0.5 -16v-9.5q0 -21 7 -34.5t17.5 -21.5t24 -11t26.5 -3q27 0 47 5.5t33 11.5q5 23 9 53.5t8 58.5l8 66h35q-2 -34 -2.5 -56t-1.5 -36.5t-1 -21.5v-11q0 -38 23 -54t57 -16v-50zM135 310l-65 40l30 50l65 -40z" />
    <glyph glyph-name="uFD2B" unicode="&#xfd2b;" horiz-adv-x="910" arabic-form="final" 
d="M900 0q-26 0 -55.5 6t-52.5 30q-29 -21 -81 -28.5t-126 -7.5h-100q-34 0 -57 7.5t-39 22.5t-25 37.5t-14 52.5l-15 83q-39 -4 -84.5 -13t-85.5 -20q9 -32 17 -72.5t8 -72.5q0 -58 -20.5 -105t-49.5 -80.5t-61 -51.5t-54 -18q-8 0 -25 2.5t-40 7.5v30q39 2 75 18.5
t64.5 44t48 63t27.5 74.5q-2 19 -7 43t-11.5 47t-13.5 43.5t-13 31.5l18 35q22 7 50.5 14.5t58 13.5t58.5 10.5t53 6.5l20 -10l17 -105q5 -29 13 -45q59 51 102 87.5t72.5 61t48.5 38.5t31 21.5t19.5 9.5t13.5 2q22 0 47.5 -13t47.5 -37.5t36 -61t14 -83.5q0 -33 -12 -55
q16 -9 35 -12t47 -3h10v-50h-10zM675 260q-11 0 -30 -11t-49 -35t-72.5 -60.5t-100.5 -87.5q13 -9 29.5 -12.5t37.5 -3.5h110q137 0 190 30q0 5 0.5 8.5t0.5 8.5q0 33 -11.5 62.5t-29 52t-37.5 35.5t-38 13zM135 310l-65 40l30 50l65 -40z" />
    <glyph glyph-name="uFD2C" unicode="&#xfd2c;" horiz-adv-x="910" arabic-form="final" 
d="M900 0q-26 0 -55.5 6t-52.5 30q-29 -21 -81 -28.5t-126 -7.5h-100q-34 0 -57 7.5t-39 22.5t-25 37.5t-14 52.5l-15 83q-39 -4 -84.5 -13t-85.5 -20q9 -32 17 -72.5t8 -72.5q0 -58 -20.5 -105t-49.5 -80.5t-61 -51.5t-54 -18q-8 0 -25 2.5t-40 7.5v30q39 2 75 18.5
t64.5 44t48 63t27.5 74.5q-2 19 -7 43t-11.5 47t-13.5 43.5t-13 31.5l18 35q22 7 50.5 14.5t58 13.5t58.5 10.5t53 6.5l20 -10l17 -105q5 -29 13 -45q59 51 102 87.5t72.5 61t48.5 38.5t31 21.5t19.5 9.5t13.5 2q22 0 47.5 -13t47.5 -37.5t36 -61t14 -83.5q0 -33 -12 -55
q16 -9 35 -12t47 -3h10v-50h-10zM675 260q-11 0 -30 -11t-49 -35t-72.5 -60.5t-100.5 -87.5q13 -9 29.5 -12.5t37.5 -3.5h110q137 0 190 30q0 5 0.5 8.5t0.5 8.5q0 33 -11.5 62.5t-29 52t-37.5 35.5t-38 13zM625 445l30 50l65 -40l-30 -50zM135 310l-65 40l30 50l65 -40z
" />
    <glyph glyph-name="uFDFC" unicode="&#xfdfc;" horiz-adv-x="1260" arabic-form="isolated" 
d="M128 242q-4 -51 -8 -97q-3 -39 -6 -80t-4 -65q15 -30 55.5 -52.5t104.5 -22.5q55 0 116 18.5t107 56.5l-5 465q-1 36 -2 63t-3.5 50.5t-8 45.5t-14.5 46l40 30q22 -53 26 -106.5t4 -113.5v-420q0 -26 -4.5 -50.5t-15.5 -39.5q-10 -13 -31 -29.5t-52 -31t-70.5 -24.5
t-86.5 -10q-54 0 -92 11.5t-62 30.5t-35 44.5t-11 53.5q0 26 3 65t7 76q4 43 10 89zM945 300l15 -5q6 -13 12 -35t11 -47t8.5 -49.5t3.5 -43.5q0 -39 -12 -62.5t-37.5 -36t-65.5 -17t-95 -4.5q-39 0 -65 9t-41.5 25.5t-22 39.5t-6.5 51v280q0 36 -1 63t-4.5 50.5t-9.5 45.5
t-15 46l40 30q22 -53 26 -106.5t4 -113.5v-330q11 -20 36 -30t59 -10q24 0 49.5 1t49 4t43 7.5t31.5 12.5q0 13 -3 37t-9 52t-14 57.5t-17 53.5zM940 -140q39 2 75 18.5t64.5 44t48 63t27.5 74.5q-2 19 -7.5 43t-13 50.5t-16.5 52.5t-18 49l30 25l15 -5q9 -21 17.5 -47
t14.5 -53t9.5 -53t3.5 -47q0 -58 -20.5 -105t-49.5 -80.5t-61 -51.5t-54 -18q-8 0 -25 2.5t-40 7.5v30zM830 -180l-65 40l30 50l65 -40zM670 -90l65 -40l-30 -50l-65 40z" />
    <glyph glyph-name="uFE82" unicode="&#x622;" horiz-adv-x="230" arabic-form="final" 
d="M220 0q-39 0 -65 9t-41.5 25.5t-22 39.5t-6.5 51v220q0 37 -1 66t-4.5 52.5t-9.5 43t-15 38.5l40 35q22 -41 26 -93t4 -127v-270q11 -20 36 -30t59 -10h10v-50h-10zM90 680q-26 0 -46 4t-37 9l-22 -53h-10l-20 20q11 22 17.5 37t11 23t9 11.5t12.5 3.5q11 0 30 -7.5
t60 -7.5q26 0 55.5 4t59.5 13l5 -7l-10 -32q-30 -10 -59.5 -14t-55.5 -4z" />
    <glyph glyph-name="uFE84" unicode="&#x623;" horiz-adv-x="230" arabic-form="final" 
d="M220 0q-39 0 -65 9t-41.5 25.5t-22 39.5t-6.5 51v165q0 37 -1 66t-4.5 52.5t-9.5 43t-15 38.5l40 35q22 -41 26 -93t4 -127v-215q11 -20 36 -30t59 -10h10v-50h-10zM142 770l-7 -25h-96q-9 -18 -9 -37q0 -26 17 -44.5t48 -18.5q15 0 37.5 4.5t52.5 15.5l5 -35l-195 -70
l-5 30l66 27q-26 10 -41 32.5t-15 50.5q0 15 5 34.5t20 45.5h110z" />
    <glyph glyph-name="uFE86" unicode="&#x624;" horiz-adv-x="435" arabic-form="final" 
d="M195 -10q-57 0 -86 20.5t-29 54.5q0 15 6 42t14 57.5t17.5 60t17.5 50.5l20 15q54 -5 92.5 -24t63.5 -50.5t37.5 -73.5t15.5 -92h71v-50h-71q-5 -47 -28.5 -89t-55.5 -73.5t-68.5 -49.5t-66.5 -18q-8 0 -27.5 2.5t-42.5 7.5v30q43 2 83.5 15.5t74 37.5t58.5 57.5t38 74.5
v5q-35 -5 -69 -7.5t-65 -2.5zM205 40q33 0 65 2t55 4q-9 88 -47 136t-116 58q-4 -9 -11 -33.5t-14.5 -52t-13.5 -53t-8 -36.5q11 -15 35.5 -20t54.5 -5zM262 570l-7 -25h-96q-9 -18 -9 -35.5t7.5 -32t22 -23.5t35.5 -9q15 0 37.5 4.5t52.5 15.5l5 -35l-195 -70l-5 30l66 27
q-26 10 -41 32.5t-15 50.5q0 15 5 34.5t20 45.5h110z" />
    <glyph glyph-name="uFE88" unicode="&#x625;" horiz-adv-x="220" arabic-form="final" 
d="M220 0q-39 0 -65 9t-41.5 25.5t-22 39.5t-6.5 51v280q0 36 -1 63t-4.5 50.5t-9.5 45.5t-15 46l40 30q22 -53 26 -106.5t4 -113.5v-330q11 -20 36 -30t59 -10v-50zM197 -135l-7 -25h-96q-9 -18 -9 -35.5t7.5 -32t22 -23.5t35.5 -9q15 0 37.5 4.5t52.5 15.5l5 -35l-195 -70
l-5 30l66 28q-26 9 -41 31.5t-15 50.5q0 15 5 34.5t20 45.5h110z" />
    <glyph glyph-name="uFE8A" unicode="&#x626;" horiz-adv-x="610" arabic-form="final" 
d="M562 0q3 -9 3 -25q0 -15 -2 -32t-5 -32.5t-6.5 -27.5t-6.5 -18q-6 -9 -27 -26t-55 -33.5t-80.5 -28.5t-102.5 -12q-58 0 -98 11.5t-65 30.5t-36 44.5t-11 53.5q0 26 3 65t7 76q4 43 10 89l38 -3q-4 -51 -8 -97q-3 -39 -6 -80t-4 -65q15 -30 56.5 -52.5t113.5 -22.5
q33 0 66 5t64 14.5t57 22t45 27.5q5 24 7.5 53.5t0.5 52.5q-9 4 -23 6t-40 3.5t-67 2.5t-105 3l-5 10q2 5 3.5 9.5t3.5 9.5q4 10 9.5 13t13.5 3h300v-50h-48zM402 370l-7 -25h-96q-9 -18 -9 -35.5t7.5 -32t22 -23.5t35.5 -9q15 0 37.5 4.5t52.5 15.5l5 -35l-195 -70l-5 30
l66 27q-26 10 -41 32.5t-15 50.5q0 15 5 34.5t20 45.5h110z" />
    <glyph glyph-name="uFE8B" unicode="&#x626;" horiz-adv-x="280" arabic-form="initial" 
d="M0 0q-8 0 -14 7t-6 18q0 12 6 18.5t14 6.5q24 0 49.5 1t49 4t43 7.5t31.5 12.5q0 13 -3 37t-9 52t-14 57.5t-17 53.5l30 25l15 -5q6 -13 12 -35t11 -47t8.5 -49.5t3.5 -43.5q0 -38 -15.5 -63t-34.5 -35q-20 -11 -63.5 -16.5t-96.5 -5.5zM182 590l-7 -25h-96
q-9 -18 -9 -35.5t7.5 -32t22 -23.5t35.5 -9q15 0 37.5 4.5t52.5 15.5l5 -35l-195 -70l-5 30l66 27q-26 10 -41 32.5t-15 50.5q0 15 5 34.5t20 45.5h110z" />
    <glyph glyph-name="uFE8C" unicode="&#x626;" horiz-adv-x="280" arabic-form="medial" 
d="M280 0q-14 0 -28.5 2t-28.5 8t-26 17.5t-20 30.5q-5 -9 -12 -18.5t-15 -14.5q-15 -11 -52.5 -18t-97.5 -7q-8 0 -14 7t-6 18q0 12 6 18.5t14 6.5q60 0 95 4.5t50 10.5l25 155h35q-2 -28 -3 -46t-1.5 -28.5t-0.5 -16v-9.5q0 -21 7 -34.5t18.5 -21.5t26 -11t28.5 -3v-50z
M192 520l-7 -25h-96q-9 -18 -9 -35.5t7.5 -32t22 -23.5t35.5 -9q15 0 37.5 4.5t52.5 15.5l5 -35l-195 -70l-5 30l66 27q-26 10 -41 32.5t-15 50.5q0 15 5 34.5t20 45.5h110z" />
    <glyph glyph-name="uFE8E" unicode="&#x627;" horiz-adv-x="220" arabic-form="final" 
d="M220 0q-39 0 -65 9t-41.5 25.5t-22 39.5t-6.5 51v280q0 36 -1 63t-4.5 50.5t-9.5 45.5t-15 46l40 30q22 -53 26 -106.5t4 -113.5v-330q11 -20 36 -30t59 -10v-50v0z" />
    <glyph glyph-name="uFE90" unicode="&#x628;" horiz-adv-x="720" arabic-form="final" 
d="M720 0q-14 0 -29 2t-29 8.5t-26.5 18.5t-20.5 32q-7 -11 -13 -17t-12 -9q-29 -15 -96 -27.5t-169 -12.5q-51 0 -97 4t-81 16t-56 34.5t-21 60.5q0 23 2 48.5t4 48.5q3 26 6 53l38 -3q-4 -47 -7 -83.5t-5 -78.5q12 -13 34 -22.5t51 -15.5t62.5 -9t69.5 -3q38 0 76 2.5
t72.5 7t64 10.5t49.5 14l23 141h35q-2 -28 -3 -46t-1.5 -28.5t-0.5 -16v-9.5q0 -21 7 -34.5t18.5 -21.5t26 -11t28.5 -3v-50zM395 -140l-30 -50l-65 40l30 50z" />
    <glyph glyph-name="uFE91" unicode="&#x628;" horiz-adv-x="280" arabic-form="initial" 
d="M0 0q-8 0 -14 7t-6 18q0 12 6 18.5t14 6.5q24 0 49.5 1t49 4t43 7.5t31.5 12.5q0 13 -3 37t-9 52t-14 57.5t-17 53.5l30 25l15 -5q6 -13 12 -35t11 -47t8.5 -49.5t3.5 -43.5q0 -38 -15.5 -63t-34.5 -35q-20 -11 -63.5 -16.5t-96.5 -5.5zM104 -130l-30 -50l-65 40l30 50z
" />
    <glyph glyph-name="uFE92" unicode="&#x628;" horiz-adv-x="280" arabic-form="medial" 
d="M280 0q-14 0 -28.5 2t-28.5 8t-26 17.5t-20 30.5q-5 -9 -12 -18.5t-15 -14.5q-15 -11 -52.5 -18t-97.5 -7q-8 0 -14 7t-6 18q0 12 6 18.5t14 6.5q60 0 95 4.5t50 10.5l25 155h35q-2 -28 -3 -46t-1.5 -28.5t-0.5 -16v-9.5q0 -21 7 -34.5t18.5 -21.5t26 -11t28.5 -3v-50z
M180 -130l-30 -50l-65 40l30 50z" />
    <glyph glyph-name="uFE94" unicode="&#x629;" horiz-adv-x="445" arabic-form="final" 
d="M190 25q-64 0 -92 23.5t-28 76.5q0 23 2 40t8 39q6 10 27 26.5t48 35t56.5 37t54.5 33.5l-12 69l30 15l15 -5l51 -330q11 -19 38 -27t57 -8v-50q-23 0 -44 3t-39 11t-31.5 23.5t-20.5 41.5q-6 -14 -10 -23.5t-5 -10.5q-4 -8 -33.5 -14t-71.5 -6zM273 290
q-25 -15 -51.5 -31t-49 -31t-39.5 -27.5t-23 -21.5q-2 -28 -1 -47.5t9.5 -32t26.5 -18.5t50 -6q28 0 57.5 3t55.5 10q-1 2 -1 7zM270 540l30 50l65 -40l-30 -50zM175 590l65 -40l-30 -50l-65 40z" />
    <glyph glyph-name="uFE96" unicode="&#x62a;" horiz-adv-x="720" arabic-form="final" 
d="M720 0q-14 0 -29 2t-29 8.5t-26.5 18.5t-20.5 32q-7 -11 -13 -17t-12 -9q-29 -15 -96 -27.5t-169 -12.5q-51 0 -97 4t-81 16t-56 34.5t-21 60.5q0 23 2 48.5t4 48.5q3 26 6 53l38 -3q-4 -47 -7 -83.5t-5 -78.5q12 -13 34 -22.5t51 -15.5t62.5 -9t69.5 -3q38 0 76 2.5
t72.5 7t64 10.5t49.5 14l23 141h35q-2 -28 -3 -46t-1.5 -28.5t-0.5 -16v-9.5q0 -21 7 -34.5t18.5 -21.5t26 -11t28.5 -3v-50zM280 430l65 -40l-30 -50l-65 40zM375 380l30 50l65 -40l-30 -50z" />
    <glyph glyph-name="uFE97" unicode="&#x62a;" horiz-adv-x="280" arabic-form="initial" 
d="M0 0q-8 0 -14 7t-6 18q0 12 6 18.5t14 6.5q24 0 49.5 1t49 4t43 7.5t31.5 12.5q0 13 -3 37t-9 52t-14 57.5t-17 53.5l30 25l15 -5q6 -13 12 -35t11 -47t8.5 -49.5t3.5 -43.5q0 -38 -15.5 -63t-34.5 -35q-20 -11 -63.5 -16.5t-96.5 -5.5zM145 430l30 50l65 -40l-30 -50z
M50 480l65 -40l-30 -50l-65 40z" />
    <glyph glyph-name="uFE98" unicode="&#x62a;" horiz-adv-x="280" arabic-form="medial" 
d="M280 0q-14 0 -28.5 2t-28.5 8t-26 17.5t-20 30.5q-5 -9 -12 -18.5t-15 -14.5q-15 -11 -52.5 -18t-97.5 -7q-8 0 -14 7t-6 18q0 12 6 18.5t14 6.5q60 0 95 4.5t50 10.5l25 155h35q-2 -28 -3 -46t-1.5 -28.5t-0.5 -16v-9.5q0 -21 7 -34.5t18.5 -21.5t26 -11t28.5 -3v-50z
M155 360l30 50l65 -40l-30 -50zM60 410l65 -40l-30 -50l-65 40z" />
    <glyph glyph-name="uFE9A" unicode="&#x62b;" horiz-adv-x="720" arabic-form="final" 
d="M720 0q-14 0 -29 2t-29 8.5t-26.5 18.5t-20.5 32q-7 -11 -13 -17t-12 -9q-29 -15 -96 -27.5t-169 -12.5q-51 0 -97 4t-81 16t-56 34.5t-21 60.5q0 23 2 48.5t4 48.5q3 26 6 53l38 -3q-4 -47 -7 -83.5t-5 -78.5q12 -13 34 -22.5t51 -15.5t62.5 -9t69.5 -3q38 0 76 2.5
t72.5 7t64 10.5t49.5 14l23 141h35q-2 -28 -3 -46t-1.5 -28.5t-0.5 -16v-9.5q0 -21 7 -34.5t18.5 -21.5t26 -11t28.5 -3v-50zM375 380l30 50l65 -40l-30 -50zM325 540l65 -40l-30 -50l-65 40zM280 430l65 -40l-30 -50l-65 40z" />
    <glyph glyph-name="uFE9B" unicode="&#x62b;" horiz-adv-x="280" arabic-form="initial" 
d="M0 0q-8 0 -14 7t-6 18q0 12 6 18.5t14 6.5q24 0 49.5 1t49 4t43 7.5t31.5 12.5q0 13 -3 37t-9 52t-14 57.5t-17 53.5l30 25l15 -5q6 -13 12 -35t11 -47t8.5 -49.5t3.5 -43.5q0 -38 -15.5 -63t-34.5 -35q-20 -11 -63.5 -16.5t-96.5 -5.5zM145 430l30 50l65 -40l-30 -50z
M95 590l65 -40l-30 -50l-65 40zM50 480l65 -40l-30 -50l-65 40z" />
    <glyph glyph-name="uFE9C" unicode="&#x62b;" horiz-adv-x="280" arabic-form="medial" 
d="M280 0q-14 0 -28.5 2t-28.5 8t-26 17.5t-20 30.5q-5 -9 -12 -18.5t-15 -14.5q-15 -11 -52.5 -18t-97.5 -7q-8 0 -14 7t-6 18q0 12 6 18.5t14 6.5q60 0 95 4.5t50 10.5l25 155h35q-2 -28 -3 -46t-1.5 -28.5t-0.5 -16v-9.5q0 -21 7 -34.5t18.5 -21.5t26 -11t28.5 -3v-50z
M155 360l30 50l65 -40l-30 -50zM105 520l65 -40l-30 -50l-65 40zM60 410l65 -40l-30 -50l-65 40z" />
    <glyph glyph-name="uFE9E" unicode="&#x62c;" horiz-adv-x="590" arabic-form="final" 
d="M510 -240l-10 -35q-60 -8 -112 -9t-78 -1q-56 0 -100.5 11t-75.5 36.5t-47.5 66.5t-16.5 101v5q0 48 25 97.5t71 94t112 80t147 56.5q-44 16 -82.5 29.5t-70 23t-54 14.5t-33.5 5q-19 0 -41.5 -9.5t-33.5 -20.5v-52t1 -48l-11 -10l-23 10q-2 11 -2 23v27q0 42 2.5 58.5
t7.5 21.5q2 2 12 9.5t24 15.5t32 14t37 6t51.5 -8t75.5 -21.5t93.5 -31.5t104.5 -39l5 -15l-15 -35q-24 0 -47.5 -4t-47.5 -11q2 -46 10.5 -77.5t24.5 -51t40.5 -28t59.5 -8.5h45v-50h-50q-27 0 -55 5.5t-51.5 26.5t-39.5 61.5t-19 109.5l-10 -4l-10 -4
q-104 -44 -165.5 -100.5t-84.5 -139.5v-5q0 -47 9.5 -82.5t33.5 -59.5t64 -36t102 -12h35.5t41 1t49 3t60.5 6zM340 -50l-30 -50l-65 40l30 50z" />
    <glyph glyph-name="uFE9F" unicode="&#x62c;" horiz-adv-x="580" arabic-form="initial" 
d="M0 0q-8 0 -14 7t-6 18q0 12 6 18.5t14 6.5h75q42 0 69.5 2.5t45.5 6.5t29.5 9.5t20.5 11.5q33 21 57.5 38.5t46 34t43.5 31.5t50 30q-96 37 -158.5 56.5t-83.5 19.5q-19 0 -41.5 -9.5t-33.5 -20.5v-53t1 -42l-26 -15l-8 10q-2 19 -2 29v21q0 42 2.5 58.5t7.5 21.5
q2 2 12 9.5t24 15.5t32 14t37 6t50 -8t72 -21.5t90 -31.5t103 -39l5 -15l-15 -35q-17 0 -30.5 -1t-29.5 -8t-38.5 -22.5t-56.5 -43.5q-49 -39 -80 -61.5t-59 -33t-61 -13t-85 -2.5h-65zM295 -130l-30 -50l-65 40l30 50z" />
    <glyph glyph-name="uFEA0" unicode="&#x62c;" horiz-adv-x="590" arabic-form="medial" 
d="M0 0q-8 0 -14 7t-6 18q0 12 6 18.5t14 6.5h75q42 0 69.5 2.5t45.5 6.5t29.5 9.5t20.5 11.5q33 21 57.5 38.5t46 34t43.5 31.5t50 30q-96 37 -158.5 56.5t-83.5 19.5q-19 0 -41.5 -9.5t-33.5 -20.5v-53t1 -42l-26 -15l-8 10q-2 19 -2 29v21q0 42 2.5 58.5t7.5 21.5
q2 2 12 9.5t24 15.5t32 14t37 6t50 -8t72 -21.5t90 -31.5t103 -39l5 -15l-15 -35q-14 0 -25 -0.5t-22.5 -4t-26 -11t-33.5 -21.5q11 -50 40 -74t87 -24h65v-50h-70q-23 0 -46.5 3.5t-44.5 16.5t-37.5 37t-26.5 65l-15 -12q-49 -39 -80 -61.5t-59 -33t-61 -13t-85 -2.5h-65z
M295 -130l-30 -50l-65 40l30 50z" />
    <glyph glyph-name="uFEA2" unicode="&#x62d;" horiz-adv-x="590" arabic-form="final" 
d="M510 -240l-10 -35q-60 -8 -112 -9t-78 -1q-56 0 -100.5 11t-75.5 36.5t-47.5 66.5t-16.5 101v5q0 48 25 97.5t71 94t112 80t147 56.5q-44 16 -82.5 29.5t-70 23t-54 14.5t-33.5 5q-19 0 -41.5 -9.5t-33.5 -20.5v-52t1 -48l-11 -10l-23 10q-2 11 -2 23v27q0 42 2.5 58.5
t7.5 21.5q2 2 12 9.5t24 15.5t32 14t37 6t51.5 -8t75.5 -21.5t93.5 -31.5t104.5 -39l5 -15l-15 -35q-24 0 -47.5 -4t-47.5 -11q2 -46 10.5 -77.5t24.5 -51t40.5 -28t59.5 -8.5h45v-50h-50q-27 0 -55 5.5t-51.5 26.5t-39.5 61.5t-19 109.5l-10 -4l-10 -4
q-104 -44 -165.5 -100.5t-84.5 -139.5v-5q0 -47 9.5 -82.5t33.5 -59.5t64 -36t102 -12h35.5t41 1t49 3t60.5 6z" />
    <glyph glyph-name="uFEA3" unicode="&#x62d;" horiz-adv-x="580" arabic-form="initial" 
d="M0 0q-8 0 -14 7t-6 18q0 12 6 18.5t14 6.5h75q42 0 69.5 2.5t45.5 6.5t29.5 9.5t20.5 11.5q33 21 57.5 38.5t46 34t43.5 31.5t50 30q-96 37 -158.5 56.5t-83.5 19.5q-19 0 -41.5 -9.5t-33.5 -20.5v-53t1 -42l-26 -15l-8 10q-2 19 -2 29v21q0 42 2.5 58.5t7.5 21.5
q2 2 12 9.5t24 15.5t32 14t37 6t50 -8t72 -21.5t90 -31.5t103 -39l5 -15l-15 -35q-17 0 -30.5 -1t-29.5 -8t-38.5 -22.5t-56.5 -43.5q-49 -39 -80 -61.5t-59 -33t-61 -13t-85 -2.5h-65z" />
    <glyph glyph-name="uFEA4" unicode="&#x62d;" horiz-adv-x="590" arabic-form="medial" 
d="M0 0q-8 0 -14 7t-6 18q0 12 6 18.5t14 6.5h75q42 0 69.5 2.5t45.5 6.5t29.5 9.5t20.5 11.5q33 21 57.5 38.5t46 34t43.5 31.5t50 30q-96 37 -158.5 56.5t-83.5 19.5q-19 0 -41.5 -9.5t-33.5 -20.5v-53t1 -42l-26 -15l-8 10q-2 19 -2 29v21q0 42 2.5 58.5t7.5 21.5
q2 2 12 9.5t24 15.5t32 14t37 6t50 -8t72 -21.5t90 -31.5t103 -39l5 -15l-15 -35q-14 0 -25 -0.5t-22.5 -4t-26 -11t-33.5 -21.5q11 -50 40 -74t87 -24h65v-50h-70q-23 0 -46.5 3.5t-44.5 16.5t-37.5 37t-26.5 65l-15 -12q-49 -39 -80 -61.5t-59 -33t-61 -13t-85 -2.5h-65v0
z" />
    <glyph glyph-name="uFEA6" unicode="&#x62e;" horiz-adv-x="590" arabic-form="final" 
d="M510 -240l-10 -35q-60 -8 -112 -9t-78 -1q-56 0 -100.5 11t-75.5 36.5t-47.5 66.5t-16.5 101v5q0 48 25 97.5t71 94t112 80t147 56.5q-44 16 -82.5 29.5t-70 23t-54 14.5t-33.5 5q-19 0 -41.5 -9.5t-33.5 -20.5v-52t1 -48l-11 -10l-23 10q-2 11 -2 23v27q0 42 2.5 58.5
t7.5 21.5q2 2 12 9.5t24 15.5t32 14t37 6t51.5 -8t75.5 -21.5t93.5 -31.5t104.5 -39l5 -15l-15 -35q-24 0 -47.5 -4t-47.5 -11q2 -46 10.5 -77.5t24.5 -51t40.5 -28t59.5 -8.5h45v-50h-50q-27 0 -55 5.5t-51.5 26.5t-39.5 61.5t-19 109.5l-10 -4l-10 -4
q-104 -44 -165.5 -100.5t-84.5 -139.5v-5q0 -47 9.5 -82.5t33.5 -59.5t64 -36t102 -12h35.5t41 1t49 3t60.5 6zM155 525l30 50l65 -40l-30 -50z" />
    <glyph glyph-name="uFEA7" unicode="&#x62e;" horiz-adv-x="580" arabic-form="initial" 
d="M0 0q-8 0 -14 7t-6 18q0 12 6 18.5t14 6.5h75q42 0 69.5 2.5t45.5 6.5t29.5 9.5t20.5 11.5q33 21 57.5 38.5t46 34t43.5 31.5t50 30q-96 37 -158.5 56.5t-83.5 19.5q-19 0 -41.5 -9.5t-33.5 -20.5v-53t1 -42l-26 -15l-8 10q-2 19 -2 29v21q0 42 2.5 58.5t7.5 21.5
q2 2 12 9.5t24 15.5t32 14t37 6t50 -8t72 -21.5t90 -31.5t103 -39l5 -15l-15 -35q-17 0 -30.5 -1t-29.5 -8t-38.5 -22.5t-56.5 -43.5q-49 -39 -80 -61.5t-59 -33t-61 -13t-85 -2.5h-65zM155 480l30 50l65 -40l-30 -50z" />
    <glyph glyph-name="uFEA8" unicode="&#x62e;" horiz-adv-x="590" arabic-form="medial" 
d="M0 0q-8 0 -14 7t-6 18q0 12 6 18.5t14 6.5h75q42 0 69.5 2.5t45.5 6.5t29.5 9.5t20.5 11.5q33 21 57.5 38.5t46 34t43.5 31.5t50 30q-96 37 -158.5 56.5t-83.5 19.5q-19 0 -41.5 -9.5t-33.5 -20.5v-53t1 -42l-26 -15l-8 10q-2 19 -2 29v21q0 42 2.5 58.5t7.5 21.5
q2 2 12 9.5t24 15.5t32 14t37 6t50 -8t72 -21.5t90 -31.5t103 -39l5 -15l-15 -35q-14 0 -25 -0.5t-22.5 -4t-26 -11t-33.5 -21.5q11 -50 40 -74t87 -24h65v-50h-70q-23 0 -46.5 3.5t-44.5 16.5t-37.5 37t-26.5 65l-15 -12q-49 -39 -80 -61.5t-59 -33t-61 -13t-85 -2.5h-65z
M155 480l30 50l65 -40l-30 -50z" />
    <glyph glyph-name="uFEAA" unicode="&#x62f;" horiz-adv-x="480" arabic-form="final" 
d="M480 0q-51 0 -79.5 11.5t-44.5 43.5q-14 -23 -59.5 -39t-106.5 -16q-75 0 -102.5 19.5t-27.5 60.5q0 7 1 21t2 29t2.5 28.5t2.5 21.5l35 -2q-1 -16 -2 -34.5t-2 -34t-1.5 -26.5t-0.5 -13q7 -6 19 -10t27 -6t31 -3t31 -1q35 0 71.5 7t68.5 27q-2 6 -3.5 13t-3.5 15
l-53 258l30 15l15 -5l55 -295q11 -19 38 -27t57 -8v-50v0z" />
    <glyph glyph-name="uFEAC" unicode="&#x630;" horiz-adv-x="480" arabic-form="final" 
d="M480 0q-51 0 -79.5 11.5t-44.5 43.5q-14 -23 -59.5 -39t-106.5 -16q-75 0 -102.5 19.5t-27.5 60.5q0 7 1 21t2 29t2.5 28.5t2.5 21.5l35 -2q-1 -16 -2 -34.5t-2 -34t-1.5 -26.5t-0.5 -13q7 -6 19 -10t27 -6t31 -3t31 -1q35 0 71.5 7t68.5 27q-2 6 -3.5 13t-3.5 15
l-53 258l30 15l15 -5l55 -295q11 -19 38 -27t57 -8v-50zM250 500l30 50l65 -40l-30 -50z" />
    <glyph glyph-name="uFEAE" unicode="&#x631;" horiz-adv-x="260" arabic-form="final" 
d="M260 0q-48 0 -70 13q-2 -56 -23 -100.5t-50 -76.5t-59.5 -49t-52.5 -17q-8 0 -25 2.5t-40 7.5v30q39 2 75 18.5t64.5 44t48 63t27.5 74.5q-2 19 -7.5 43t-13 50.5t-16.5 52.5t-18 49l30 25l15 -5q8 -23 15.5 -48t14 -47.5t11.5 -40t9 -24.5q8 -8 21.5 -11.5t43.5 -3.5
v-50v0z" />
    <glyph glyph-name="uFEB0" unicode="&#x632;" horiz-adv-x="260" arabic-form="final" 
d="M260 0q-48 0 -70 13q-2 -56 -23 -100.5t-50 -76.5t-59.5 -49t-52.5 -17q-8 0 -25 2.5t-40 7.5v30q39 2 75 18.5t64.5 44t48 63t27.5 74.5q-2 19 -7.5 43t-13 50.5t-16.5 52.5t-18 49l30 25l15 -5q8 -23 15.5 -48t14 -47.5t11.5 -40t9 -24.5q8 -8 21.5 -11.5t43.5 -3.5
v-50zM70 350l30 50l65 -40l-30 -50z" />
    <glyph glyph-name="uFEB2" unicode="&#x633;" horiz-adv-x="1070" arabic-form="final" 
d="M1070 0q-14 0 -29 2t-29 8.5t-26 18t-20 31.5q-11 -23 -26 -35q-11 -9 -35.5 -17t-54.5 -8q-12 0 -25 2t-26.5 7.5t-25 16t-20.5 28.5q-9 -18 -23 -29q-13 -10 -39.5 -17.5t-60.5 -7.5q-19 0 -36.5 2.5t-31.5 12.5q1 -12 2 -27.5t1 -32.5q0 -26 -5 -50t-15 -40
q-6 -9 -27 -26t-55 -33.5t-80.5 -28.5t-102.5 -12q-58 0 -98 11.5t-65 30.5t-36 44.5t-11 53.5q0 19 1.5 46t4.5 58t6.5 63.5t7.5 62.5l38 -3q-3 -35 -6 -72t-5.5 -70.5t-4.5 -60t-2 -39.5q15 -30 56.5 -52.5t113.5 -22.5q36 0 72 6t69 17t60 25.5t44 31.5q0 37 -3.5 78
t-9.5 81.5t-14.5 80t-17.5 75.5l30 20l15 -5q11 -53 19 -94.5t16 -60.5q11 -11 31.5 -15.5t43.5 -4.5q54 0 90 16l25 154h35q-2 -28 -3 -46t-1.5 -28.5t-0.5 -16v-9.5q0 -21 7 -34.5t17.5 -21.5t24 -11t26.5 -3q27 0 47 5.5t33 11.5q5 23 9 53.5t8 58.5l8 66h35
q-2 -34 -2.5 -56t-1.5 -36.5t-1 -21.5v-11q0 -38 23 -54t57 -16v-50v0z" />
    <glyph glyph-name="uFEB3" unicode="&#x633;" horiz-adv-x="705" arabic-form="initial" 
d="M490 0q-12 0 -25 2t-26.5 7.5t-25 16t-20.5 28.5q-9 -18 -23 -29q-13 -10 -39.5 -17.5t-60.5 -7.5q-12 0 -25 2t-26.5 7.5t-25 16t-20.5 28.5q-9 -18 -23 -29q-15 -11 -56 -18t-94 -7q-8 0 -14 7t-6 18q0 12 6 18.5t14 6.5q60 0 95 4.5t50 11.5l25 154h35q-2 -28 -3 -46
t-1.5 -28.5t-0.5 -16v-9.5q0 -21 7 -34.5t17.5 -21.5t24 -11t26.5 -3q54 0 90 16l25 154h35q-2 -28 -3 -46t-1.5 -28.5t-0.5 -16v-9.5q0 -21 7 -34.5t17.5 -21.5t24 -11t26.5 -3q30 0 58 7t45 18q0 17 -3 41t-7.5 51t-11.5 54.5t-16 53.5l30 25l15 -5q11 -34 20.5 -79.5
t9.5 -90.5q0 -42 -15.5 -69t-34.5 -36t-40 -14.5t-55 -5.5z" />
    <glyph glyph-name="uFEB4" unicode="&#x633;" horiz-adv-x="710" arabic-form="medial" 
d="M710 0q-14 0 -29 2t-29 8.5t-26 18t-20 31.5q-11 -23 -26 -35q-11 -9 -35.5 -17t-54.5 -8q-12 0 -25 2t-26.5 7.5t-25 16t-20.5 28.5q-9 -18 -23 -29q-13 -10 -39.5 -17.5t-60.5 -7.5q-12 0 -25 2t-26.5 7.5t-25 16t-20.5 28.5q-9 -18 -23 -29q-15 -11 -56 -18t-94 -7
q-8 0 -14 7t-6 18q0 12 6 18.5t14 6.5q60 0 95 4.5t50 11.5l25 154h35q-2 -28 -3 -46t-1.5 -28.5t-0.5 -16v-9.5q0 -21 7 -34.5t17.5 -21.5t24 -11t26.5 -3q54 0 90 16l25 154h35q-2 -28 -3 -46t-1.5 -28.5t-0.5 -16v-9.5q0 -21 7 -34.5t17.5 -21.5t24 -11t26.5 -3
q27 0 47 5.5t33 11.5q5 23 9 53.5t8 58.5l8 66h35q-2 -34 -2.5 -56t-1.5 -36.5t-1 -21.5v-11q0 -38 23 -54t57 -16v-50v0z" />
    <glyph glyph-name="uFEB6" unicode="&#x634;" horiz-adv-x="1070" arabic-form="final" 
d="M1070 0q-14 0 -29 2t-29 8.5t-26 18t-20 31.5q-11 -23 -26 -35q-11 -9 -35.5 -17t-54.5 -8q-12 0 -25 2t-26.5 7.5t-25 16t-20.5 28.5q-9 -18 -23 -29q-13 -10 -39.5 -17.5t-60.5 -7.5q-19 0 -36.5 2.5t-31.5 12.5q1 -12 2 -27.5t1 -32.5q0 -26 -5 -50t-15 -40
q-6 -9 -27 -26t-55 -33.5t-80.5 -28.5t-102.5 -12q-58 0 -98 11.5t-65 30.5t-36 44.5t-11 53.5q0 19 1.5 46t4.5 58t6.5 63.5t7.5 62.5l38 -3q-3 -35 -6 -72t-5.5 -70.5t-4.5 -60t-2 -39.5q15 -30 56.5 -52.5t113.5 -22.5q36 0 72 6t69 17t60 25.5t44 31.5q0 37 -3.5 78
t-9.5 81.5t-14.5 80t-17.5 75.5l30 20l15 -5q11 -53 19 -94.5t16 -60.5q11 -11 31.5 -15.5t43.5 -4.5q54 0 90 16l25 154h35q-2 -28 -3 -46t-1.5 -28.5t-0.5 -16v-9.5q0 -21 7 -34.5t17.5 -21.5t24 -11t26.5 -3q27 0 47 5.5t33 11.5q5 23 9 53.5t8 58.5l8 66h35
q-2 -34 -2.5 -56t-1.5 -36.5t-1 -21.5v-11q0 -38 23 -54t57 -16v-50zM680 410l65 -40l-30 -50l-65 40zM725 520l65 -40l-30 -50l-65 40zM775 360l30 50l65 -40l-30 -50z" />
    <glyph glyph-name="uFEB7" unicode="&#x634;" horiz-adv-x="705" arabic-form="initial" 
d="M490 0q-12 0 -25 2t-26.5 7.5t-25 16t-20.5 28.5q-9 -18 -23 -29q-13 -10 -39.5 -17.5t-60.5 -7.5q-12 0 -25 2t-26.5 7.5t-25 16t-20.5 28.5q-9 -18 -23 -29q-15 -11 -56 -18t-94 -7q-8 0 -14 7t-6 18q0 12 6 18.5t14 6.5q60 0 95 4.5t50 11.5l25 154h35q-2 -28 -3 -46
t-1.5 -28.5t-0.5 -16v-9.5q0 -21 7 -34.5t17.5 -21.5t24 -11t26.5 -3q54 0 90 16l25 154h35q-2 -28 -3 -46t-1.5 -28.5t-0.5 -16v-9.5q0 -21 7 -34.5t17.5 -21.5t24 -11t26.5 -3q30 0 58 7t45 18q0 17 -3 41t-7.5 51t-11.5 54.5t-16 53.5l30 25l15 -5q11 -34 20.5 -79.5
t9.5 -90.5q0 -42 -15.5 -69t-34.5 -36t-40 -14.5t-55 -5.5zM300 410l65 -40l-30 -50l-65 40zM395 360l30 50l65 -40l-30 -50zM345 520l65 -40l-30 -50l-65 40z" />
    <glyph glyph-name="uFEB8" unicode="&#x634;" horiz-adv-x="710" arabic-form="medial" 
d="M710 0q-14 0 -29 2t-29 8.5t-26 18t-20 31.5q-11 -23 -26 -35q-11 -9 -35.5 -17t-54.5 -8q-12 0 -25 2t-26.5 7.5t-25 16t-20.5 28.5q-9 -18 -23 -29q-13 -10 -39.5 -17.5t-60.5 -7.5q-12 0 -25 2t-26.5 7.5t-25 16t-20.5 28.5q-9 -18 -23 -29q-15 -11 -56 -18t-94 -7
q-8 0 -14 7t-6 18q0 12 6 18.5t14 6.5q60 0 95 4.5t50 11.5l25 154h35q-2 -28 -3 -46t-1.5 -28.5t-0.5 -16v-9.5q0 -21 7 -34.5t17.5 -21.5t24 -11t26.5 -3q54 0 90 16l25 154h35q-2 -28 -3 -46t-1.5 -28.5t-0.5 -16v-9.5q0 -21 7 -34.5t17.5 -21.5t24 -11t26.5 -3
q27 0 47 5.5t33 11.5q5 23 9 53.5t8 58.5l8 66h35q-2 -34 -2.5 -56t-1.5 -36.5t-1 -21.5v-11q0 -38 23 -54t57 -16v-50zM310 410l65 -40l-30 -50l-65 40zM355 520l65 -40l-30 -50l-65 40zM405 360l30 50l65 -40l-30 -50z" />
    <glyph glyph-name="uFEBA" unicode="&#x635;" horiz-adv-x="1085" arabic-form="final" 
d="M860 315q22 0 47.5 -13t47.5 -37.5t36 -61t14 -83.5q0 -26 -13 -54q16 -10 35 -13t48 -3h10v-50h-10q-26 0 -55 6t-52 29q-4 -3 -12 -7q-60 -28 -196 -28h-80q-45 0 -73 5.5t-46 21.5q2 -15 3 -32.5t1 -39.5q0 -26 -5 -50t-15 -40q-6 -9 -27 -26t-55 -33.5t-80.5 -28.5
t-102.5 -12q-58 0 -98 11.5t-65 30.5t-36 44.5t-11 53.5q0 26 3 65t7 76q4 43 10 89l38 -3q-4 -51 -8 -97q-3 -39 -6 -80t-4 -65q15 -30 56.5 -52.5t113.5 -22.5q36 0 72 6t69 17t60 25.5t44 31.5q0 37 -3.5 78t-9.5 81.5t-14.5 80t-17.5 75.5l30 20l15 -5l15 -75
q5 -21 10 -36.5t13 -26.5q62 53 106 90.5t75 63t50.5 40.5t32 22.5t20 9.5t13.5 2zM850 260q-11 0 -30.5 -11.5t-50 -35.5t-73.5 -61.5t-103 -89.5q14 -7 32.5 -9.5t44.5 -2.5h105q137 0 190 30q4 36 -6.5 68.5t-28.5 57t-39.5 39.5t-40.5 15z" />
    <glyph glyph-name="uFEBB" unicode="&#x635;" horiz-adv-x="700" arabic-form="initial" 
d="M265 0q-40 0 -72.5 9.5t-49.5 44.5q-9 -18 -23 -29q-15 -11 -48.5 -18t-71.5 -7q-8 0 -14 7t-6 18q0 12 6 18.5t14 6.5q42 0 69 4t46 12l25 154h35q-2 -28 -3 -46t-1.5 -28.5t-0.5 -16v-9.5q0 -27 10 -41q64 55 109.5 94t77.5 65.5t52 41.5t32.5 23t20 10t13.5 2
q22 0 47.5 -13t47.5 -37.5t36 -61t14 -83.5q0 -13 -3.5 -27.5t-10 -27t-15.5 -22.5t-20 -15q-60 -28 -196 -28h-120zM475 260q-11 0 -30.5 -11.5t-50.5 -36t-75.5 -63t-105.5 -92.5q11 -4 25.5 -5.5t31.5 -1.5h130q137 0 190 30q4 36 -6.5 68.5t-28.5 57t-39.5 39.5
t-40.5 15z" />
    <glyph glyph-name="uFEBC" unicode="&#x635;" horiz-adv-x="710" arabic-form="medial" 
d="M0 0q-8 0 -14 7t-6 18q0 12 6 18.5t14 6.5q42 0 69 4t46 12l25 154h35q-2 -28 -3 -46t-1.5 -28.5t-0.5 -16v-9.5q0 -27 10 -41q64 55 109.5 94t77.5 65.5t52 41.5t32.5 23t20 10t13.5 2q22 0 47.5 -13t47.5 -37.5t36 -61t14 -83.5q0 -26 -13 -54q16 -10 35 -13t48 -3h10
v-50h-10q-26 0 -55 6t-52 29q-4 -3 -12 -7q-60 -28 -196 -28h-120q-40 0 -72.5 9.5t-49.5 44.5q-9 -18 -23 -29q-15 -11 -48.5 -18t-71.5 -7zM475 260q-11 0 -30.5 -11.5t-50.5 -36t-75.5 -63t-105.5 -92.5q11 -4 25.5 -5.5t31.5 -1.5h130q137 0 190 30q4 36 -6.5 68.5
t-28.5 57t-39.5 39.5t-40.5 15z" />
    <glyph glyph-name="uFEBE" unicode="&#x636;" horiz-adv-x="1085" arabic-form="final" 
d="M860 315q22 0 47.5 -13t47.5 -37.5t36 -61t14 -83.5q0 -26 -13 -54q16 -10 35 -13t48 -3h10v-50h-10q-26 0 -55 6t-52 29q-4 -3 -12 -7q-60 -28 -196 -28h-80q-45 0 -73 5.5t-46 21.5q2 -15 3 -32.5t1 -39.5q0 -26 -5 -50t-15 -40q-6 -9 -27 -26t-55 -33.5t-80.5 -28.5
t-102.5 -12q-58 0 -98 11.5t-65 30.5t-36 44.5t-11 53.5q0 26 3 65t7 76q4 43 10 89l38 -3q-4 -51 -8 -97q-3 -39 -6 -80t-4 -65q15 -30 56.5 -52.5t113.5 -22.5q36 0 72 6t69 17t60 25.5t44 31.5q0 37 -3.5 78t-9.5 81.5t-14.5 80t-17.5 75.5l30 20l15 -5l15 -75
q5 -21 10 -36.5t13 -26.5q62 53 106 90.5t75 63t50.5 40.5t32 22.5t20 9.5t13.5 2zM850 260q-11 0 -30.5 -11.5t-50 -35.5t-73.5 -61.5t-103 -89.5q14 -7 32.5 -9.5t44.5 -2.5h105q137 0 190 30q4 36 -6.5 68.5t-28.5 57t-39.5 39.5t-40.5 15zM800 445l30 50l65 -40l-30 -50
z" />
    <glyph glyph-name="uFEBF" unicode="&#x636;" horiz-adv-x="700" arabic-form="initial" 
d="M265 0q-40 0 -72.5 9.5t-49.5 44.5q-9 -18 -23 -29q-15 -11 -48.5 -18t-71.5 -7q-8 0 -14 7t-6 18q0 12 6 18.5t14 6.5q42 0 69 4t46 12l25 154h35q-2 -28 -3 -46t-1.5 -28.5t-0.5 -16v-9.5q0 -27 10 -41q64 55 109.5 94t77.5 65.5t52 41.5t32.5 23t20 10t13.5 2
q22 0 47.5 -13t47.5 -37.5t36 -61t14 -83.5q0 -13 -3.5 -27.5t-10 -27t-15.5 -22.5t-20 -15q-60 -28 -196 -28h-120zM475 260q-11 0 -30.5 -11.5t-50.5 -36t-75.5 -63t-105.5 -92.5q11 -4 25.5 -5.5t31.5 -1.5h130q137 0 190 30q4 36 -6.5 68.5t-28.5 57t-39.5 39.5
t-40.5 15zM425 445l30 50l65 -40l-30 -50z" />
    <glyph glyph-name="uFEC0" unicode="&#x636;" horiz-adv-x="710" arabic-form="medial" 
d="M0 0q-8 0 -14 7t-6 18q0 12 6 18.5t14 6.5q42 0 69 4t46 12l25 154h35q-2 -28 -3 -46t-1.5 -28.5t-0.5 -16v-9.5q0 -27 10 -41q64 55 109.5 94t77.5 65.5t52 41.5t32.5 23t20 10t13.5 2q22 0 47.5 -13t47.5 -37.5t36 -61t14 -83.5q0 -26 -13 -54q16 -10 35 -13t48 -3h10
v-50h-10q-26 0 -55 6t-52 29q-4 -3 -12 -7q-60 -28 -196 -28h-120q-40 0 -72.5 9.5t-49.5 44.5q-9 -18 -23 -29q-15 -11 -48.5 -18t-71.5 -7zM475 260q-11 0 -30.5 -11.5t-50.5 -36t-75.5 -63t-105.5 -92.5q11 -4 25.5 -5.5t31.5 -1.5h130q137 0 190 30q4 36 -6.5 68.5
t-28.5 57t-39.5 39.5t-40.5 15zM425 445l30 50l65 -40l-30 -50z" />
    <glyph glyph-name="uFEC2" unicode="&#x637;" horiz-adv-x="665" arabic-form="final" 
d="M340 0q-64 0 -127 2t-138 13l-15 35l5 15q27 -5 49 -6l66 61q11 10 19 20.5t12.5 24.5t6.5 34.5t2 51.5v30.5t-0.5 41.5l-1 44t-0.5 38q-1 36 -2 63t-3.5 50.5t-8 45.5t-14.5 46l40 30q22 -53 26 -106.5t4 -113.5v-97.5t-1 -66.5t-3 -44t-5 -31q50 42 82.5 68t53 41
t32.5 20t21 5q22 0 47.5 -13t47.5 -37.5t36 -61t14 -83.5q0 -26 -13 -54q16 -10 35 -13t48 -3h10v-50h-10q-26 0 -55 6t-52 29q-4 -3 -12 -7q-60 -28 -196 -28zM430 260q-11 0 -30.5 -11.5t-51 -36.5t-76.5 -64t-107 -94q21 -2 42 -3t43.5 -1h48h56.5q137 0 190 30
q4 36 -6.5 68.5t-28.5 57t-39.5 39.5t-40.5 15z" />
    <glyph glyph-name="uFEC3" unicode="&#x637;" horiz-adv-x="600" arabic-form="initial" 
d="M0 0q-8 0 -14 7t-6 18q0 12 6 18.5t14 6.5h50l75 70q11 10 19 20.5t12.5 24.5t6.5 34.5t2 51.5v30.5t-0.5 41.5l-1 44t-0.5 38q-1 36 -2 63t-3.5 50.5t-8 45.5t-14.5 46l40 30q22 -53 26 -106.5t4 -113.5v-97.5t-1 -66.5t-3 -44t-5 -31q50 42 82.5 68t53 41t32.5 20t21 5
q22 0 47.5 -13t47.5 -37.5t36 -61t14 -83.5q0 -13 -3.5 -27.5t-10 -27t-15.5 -22.5t-20 -15q-60 -28 -196 -28h-285zM375 260q-11 0 -31 -11.5t-51.5 -37t-77.5 -65.5t-110 -96h195q137 0 190 30q4 36 -6.5 68.5t-28.5 57t-39.5 39.5t-40.5 15z" />
    <glyph glyph-name="uFEC4" unicode="&#x637;" horiz-adv-x="610" arabic-form="medial" 
d="M0 0q-8 0 -14 7t-6 18q0 12 6 18.5t14 6.5h50l75 70q11 10 19 20.5t12.5 24.5t6.5 34.5t2 51.5v30.5t-0.5 41.5l-1 44t-0.5 38q-1 36 -2 63t-3.5 50.5t-8 45.5t-14.5 46l40 30q22 -53 26 -106.5t4 -113.5v-97.5t-1 -66.5t-3 -44t-5 -31q50 42 82.5 68t53 41t32.5 20t21 5
q22 0 47.5 -13t47.5 -37.5t36 -61t14 -83.5q0 -26 -13 -54q16 -10 35 -13t48 -3h10v-50h-10q-26 0 -55 6t-52 29q-4 -3 -12 -7q-60 -28 -196 -28h-285zM375 260q-11 0 -31 -11.5t-51.5 -37t-77.5 -65.5t-110 -96h195q137 0 190 30q4 36 -6.5 68.5t-28.5 57t-39.5 39.5
t-40.5 15z" />
    <glyph glyph-name="uFEC6" unicode="&#x638;" horiz-adv-x="665" arabic-form="final" 
d="M340 0q-64 0 -127 2t-138 13l-15 35l5 15q27 -5 49 -6l66 61q11 10 19 20.5t12.5 24.5t6.5 34.5t2 51.5v30.5t-0.5 41.5l-1 44t-0.5 38q-1 36 -2 63t-3.5 50.5t-8 45.5t-14.5 46l40 30q22 -53 26 -106.5t4 -113.5v-97.5t-1 -66.5t-3 -44t-5 -31q50 42 82.5 68t53 41
t32.5 20t21 5q22 0 47.5 -13t47.5 -37.5t36 -61t14 -83.5q0 -26 -13 -54q16 -10 35 -13t48 -3h10v-50h-10q-26 0 -55 6t-52 29q-4 -3 -12 -7q-60 -28 -196 -28zM430 260q-11 0 -30.5 -11.5t-51 -36.5t-76.5 -64t-107 -94q21 -2 42 -3t43.5 -1h48h56.5q137 0 190 30
q4 36 -6.5 68.5t-28.5 57t-39.5 39.5t-40.5 15zM400 445l30 50l65 -40l-30 -50z" />
    <glyph glyph-name="uFEC7" unicode="&#x638;" horiz-adv-x="600" arabic-form="initial" 
d="M0 0q-8 0 -14 7t-6 18q0 12 6 18.5t14 6.5h50l75 70q11 10 19 20.5t12.5 24.5t6.5 34.5t2 51.5v30.5t-0.5 41.5l-1 44t-0.5 38q-1 36 -2 63t-3.5 50.5t-8 45.5t-14.5 46l40 30q22 -53 26 -106.5t4 -113.5v-97.5t-1 -66.5t-3 -44t-5 -31q50 42 82.5 68t53 41t32.5 20t21 5
q22 0 47.5 -13t47.5 -37.5t36 -61t14 -83.5q0 -13 -3.5 -27.5t-10 -27t-15.5 -22.5t-20 -15q-60 -28 -196 -28h-285zM375 260q-11 0 -31 -11.5t-51.5 -37t-77.5 -65.5t-110 -96h195q137 0 190 30q4 36 -6.5 68.5t-28.5 57t-39.5 39.5t-40.5 15zM345 445l30 50l65 -40
l-30 -50z" />
    <glyph glyph-name="uFEC8" unicode="&#x638;" horiz-adv-x="610" arabic-form="medial" 
d="M0 0q-8 0 -14 7t-6 18q0 12 6 18.5t14 6.5h50l75 70q11 10 19 20.5t12.5 24.5t6.5 34.5t2 51.5v30.5t-0.5 41.5l-1 44t-0.5 38q-1 36 -2 63t-3.5 50.5t-8 45.5t-14.5 46l40 30q22 -53 26 -106.5t4 -113.5v-97.5t-1 -66.5t-3 -44t-5 -31q50 42 82.5 68t53 41t32.5 20t21 5
q22 0 47.5 -13t47.5 -37.5t36 -61t14 -83.5q0 -26 -13 -54q16 -10 35 -13t48 -3h10v-50h-10q-26 0 -55 6t-52 29q-4 -3 -12 -7q-60 -28 -196 -28h-285zM375 260q-11 0 -31 -11.5t-51.5 -37t-77.5 -65.5t-110 -96h195q137 0 190 30q4 36 -6.5 68.5t-28.5 57t-39.5 39.5
t-40.5 15zM345 445l30 50l65 -40l-30 -50z" />
    <glyph glyph-name="uFECA" unicode="&#x639;" horiz-adv-x="525" arabic-form="final" 
d="M135 -65q0 -45 10.5 -78t35.5 -54.5t66 -32t102 -10.5h33.5t35 1t42 3t55.5 6l10 -10l-10 -35q-57 -8 -100.5 -9t-69.5 -1q-56 0 -101 9.5t-77 32.5t-49.5 61.5t-17.5 96.5v5q0 18 4 38.5t16.5 44.5t37 52.5t66.5 62.5q-31 48 -58.5 87.5t-50.5 69.5l-37 -5l-8 13l13 34
q51 7 88.5 12t66 8t50 4t42.5 1q64 0 94.5 -22.5t30.5 -64.5q0 -37 -33 -81t-115 -101q18 -16 43.5 -19.5t74.5 -3.5h100v-50h-105q-34 0 -58 2t-43 9.5t-35.5 23.5t-35.5 44q-45 -34 -75.5 -68.5t-37.5 -65.5v-10zM280 103q75 51 105 87t30 55q0 26 -23.5 38t-61.5 12
q-13 0 -33.5 -1t-44 -3t-47.5 -4.5t-45 -6.5q11 -14 25.5 -35t30.5 -44.5t32.5 -49t31.5 -48.5z" />
    <glyph glyph-name="uFECB" unicode="&#x639;" horiz-adv-x="485" arabic-form="initial" 
d="M0 0q-8 0 -14 7t-6 18q0 12 6 18.5t14 6.5q43 0 82.5 1.5t73.5 6.5q-51 24 -71 62t-20 75q0 36 19.5 67.5t47.5 55.5t57.5 38t50.5 14q19 0 40 -14.5t55 -40.5l-20 -35q-34 23 -51.5 31.5t-28.5 8.5q-13 0 -33 -9t-40 -24.5t-37.5 -36.5t-24.5 -45q8 -49 43 -82t92 -33
q26 0 66 13.5t104 36.5l10 -10l-5 -35q-43 -19 -88.5 -36t-96 -30t-106 -21t-119.5 -8z" />
    <glyph glyph-name="uFECC" unicode="&#x639;" horiz-adv-x="505" arabic-form="medial" 
d="M0 0q-8 0 -14 7t-6 18q0 12 6 18.5t14 6.5h60q43 0 84.5 3.5t76.5 17.5l-1 2q-35 57 -67 102.5t-58 79.5l-37 -5l-8 13l13 34q51 7 88 12t65.5 8t50.5 4t43 1q64 0 94.5 -22.5t30.5 -64.5q0 -35 -31 -78t-108 -98q15 -5 39.5 -7t64.5 -2h105v-50h-110q-53 0 -87 5.5
t-60 31.5q-41 -22 -87 -29.5t-106 -7.5h-55zM260 83q75 51 105 87t30 55q0 26 -23.5 38t-61.5 12q-14 0 -34 -1t-43.5 -3t-47 -4.5t-44.5 -6.5q11 -14 25.5 -35t30 -44.5t32 -49t31.5 -48.5z" />
    <glyph glyph-name="uFECE" unicode="&#x63a;" horiz-adv-x="525" arabic-form="final" 
d="M135 -65q0 -45 10.5 -78t35.5 -54.5t66 -32t102 -10.5h33.5t35 1t42 3t55.5 6l10 -10l-10 -35q-57 -8 -100.5 -9t-69.5 -1q-56 0 -101 9.5t-77 32.5t-49.5 61.5t-17.5 96.5v5q0 18 4 38.5t16.5 44.5t37 52.5t66.5 62.5q-31 48 -58.5 87.5t-50.5 69.5l-37 -5l-8 13l13 34
q51 7 88.5 12t66 8t50 4t42.5 1q64 0 94.5 -22.5t30.5 -64.5q0 -37 -33 -81t-115 -101q18 -16 43.5 -19.5t74.5 -3.5h100v-50h-105q-34 0 -58 2t-43 9.5t-35.5 23.5t-35.5 44q-45 -34 -75.5 -68.5t-37.5 -65.5v-10zM280 103q75 51 105 87t30 55q0 26 -23.5 38t-61.5 12
q-13 0 -33.5 -1t-44 -3t-47.5 -4.5t-45 -6.5q11 -14 25.5 -35t30.5 -44.5t32.5 -49t31.5 -48.5zM220 470l30 50l65 -40l-30 -50z" />
    <glyph glyph-name="uFECF" unicode="&#x63a;" horiz-adv-x="485" arabic-form="initial" 
d="M0 0q-8 0 -14 7t-6 18q0 12 6 18.5t14 6.5q43 0 82.5 1.5t73.5 6.5q-51 24 -71 62t-20 75q0 36 19.5 67.5t47.5 55.5t57.5 38t50.5 14q19 0 40 -14.5t55 -40.5l-20 -35q-34 23 -51.5 31.5t-28.5 8.5q-13 0 -33 -9t-40 -24.5t-37.5 -36.5t-24.5 -45q8 -49 43 -82t92 -33
q26 0 66 13.5t104 36.5l10 -10l-5 -35q-43 -19 -88.5 -36t-96 -30t-106 -21t-119.5 -8zM170 500l30 50l65 -40l-30 -50z" />
    <glyph glyph-name="uFED0" unicode="&#x63a;" horiz-adv-x="505" arabic-form="medial" 
d="M0 0q-8 0 -14 7t-6 18q0 12 6 18.5t14 6.5h60q43 0 84.5 3.5t76.5 17.5l-1 2q-35 57 -67 102.5t-58 79.5l-37 -5l-8 13l13 34q51 7 88 12t65.5 8t50.5 4t43 1q64 0 94.5 -22.5t30.5 -64.5q0 -35 -31 -78t-108 -98q15 -5 39.5 -7t64.5 -2h105v-50h-110q-53 0 -87 5.5
t-60 31.5q-41 -22 -87 -29.5t-106 -7.5h-55zM260 83q75 51 105 87t30 55q0 26 -23.5 38t-61.5 12q-14 0 -34 -1t-43.5 -3t-47 -4.5t-44.5 -6.5q11 -14 25.5 -35t30 -44.5t32 -49t31.5 -48.5zM195 455l30 50l65 -40l-30 -50z" />
    <glyph glyph-name="uFED2" unicode="&#x641;" horiz-adv-x="785" arabic-form="final" 
d="M690 0q-39 0 -75.5 5.5t-60.5 19.5q-14 -9 -38.5 -15t-55 -9.5t-65 -4.5t-70.5 -1q-51 0 -97 4t-81 16t-56 34.5t-21 60.5q0 23 2 48.5t4 48.5q3 26 6 53l38 -3q-4 -47 -7 -83.5t-5 -78.5q12 -13 34 -22.5t51 -15.5t62.5 -9t69.5 -3h38.5t46.5 1t46.5 3t40.5 5
q-32 23 -49.5 51t-17.5 60q0 42 27.5 86t87.5 104l15 5q51 -28 80 -52t43.5 -44t18 -37.5t3.5 -33.5q0 -29 -19 -66.5t-59 -71.5q17 -4 35 -4.5t33 -0.5h90v-50h-95zM470 170q0 -11 6 -25.5t18 -29t31.5 -28.5t46.5 -24q48 32 68 66t20 54q0 10 -3 23.5t-14 28.5t-32.5 32
t-57.5 35q-44 -39 -63.5 -74t-19.5 -58zM515 490l30 50l65 -40l-30 -50z" />
    <glyph glyph-name="uFED3" unicode="&#x641;" horiz-adv-x="430" arabic-form="initial" 
d="M0 0q-8 0 -14 7t-6 18q0 12 6 18.5t14 6.5h50q47 0 90.5 3t79.5 8.5t62 13.5t38 18q1 22 1 44t-2 45q-32 -11 -65.5 -16.5t-78.5 -5.5q-57 0 -83.5 20.5t-26.5 54.5q0 15 6 41t14 55.5t17.5 58.5t17.5 50q5 3 9 7q4 3 7 5t4 3q69 -2 112 -29.5t67 -70.5t32.5 -97
t8.5 -108q0 -26 -5.5 -45.5t-14.5 -33.5t-19.5 -22.5t-20.5 -13.5q-28 -14 -90 -24.5t-160 -10.5h-50zM185 210q40 0 74 5.5t55 11.5q-6 36 -17 67.5t-31 55.5t-49.5 38.5t-71.5 16.5q-4 -9 -10.5 -32.5t-13.5 -50.5t-13 -51.5t-8 -35.5q11 -15 33 -20t52 -5zM125 590l30 50
l65 -40l-30 -50z" />
    <glyph glyph-name="uFED4" unicode="&#x641;" horiz-adv-x="430" arabic-form="medial" 
d="M335 0q-39 0 -75.5 5.5t-60.5 19.5q-28 -17 -74.5 -21t-100.5 -4h-24q-8 0 -14 7t-6 18q0 12 6 18.5t14 6.5q34 0 72 0.5t68 4.5q-30 23 -47.5 50.5t-17.5 59.5q0 42 27.5 86t87.5 104l15 5q51 -28 80 -52t43.5 -44t18 -37.5t3.5 -33.5q0 -29 -19 -66.5t-59 -71.5
q17 -4 35 -4.5t33 -0.5h90v-50h-95zM115 170q0 -11 6 -25.5t18 -29t31.5 -28.5t46.5 -24q48 32 68 66t20 54q0 10 -3 23.5t-14 28.5t-32.5 32t-57.5 35q-44 -39 -63.5 -74t-19.5 -58zM160 490l30 50l65 -40l-30 -50z" />
    <glyph glyph-name="uFED6" unicode="&#x642;" horiz-adv-x="630" arabic-form="final" 
d="M350 285q56 -2 94.5 -19t63 -47.5t36.5 -73.5t17 -95h69v-50h-66q1 -10 1 -19.5v-20.5q0 -30 -5 -54.5t-15 -40.5q-6 -9 -27 -26t-55 -33.5t-80.5 -28.5t-102.5 -12q-58 0 -98 11.5t-65 30.5t-36 44.5t-11 53.5q0 26 3 65t7 76q4 43 10 89l38 -3q-4 -51 -8 -97
q-3 -39 -6 -80t-4 -65q15 -30 56.5 -52.5t113.5 -22.5q34 0 70 6t69 16.5t60.5 25t45.5 32.5q2 55 0 105q-35 -5 -69.5 -7.5t-65.5 -2.5q-57 0 -86 20.5t-29 54.5q0 15 6 41t14 55.5t17.5 58.5t17.5 50zM400 40q34 0 66 2t55 4q-5 40 -15 74t-29.5 59t-49 39.5t-72.5 16.5
q-4 -9 -10.5 -32.5t-13.5 -50.5t-13 -51.5t-8 -35.5q11 -15 35.5 -20t54.5 -5zM320 455l65 -40l-30 -50l-65 40zM415 405l30 50l65 -40l-30 -50z" />
    <glyph glyph-name="uFED7" unicode="&#x642;" horiz-adv-x="430" arabic-form="initial" 
d="M0 0q-8 0 -14 7t-6 18q0 12 6 18.5t14 6.5h50q47 0 90.5 3t79.5 8.5t62 13.5t38 18q1 22 1 44t-2 45q-32 -11 -65.5 -16.5t-78.5 -5.5q-57 0 -83.5 20.5t-26.5 54.5q0 15 6 41t14 55.5t17.5 58.5t17.5 50q5 3 9 7q4 3 7 5t4 3q69 -2 112 -29.5t67 -70.5t32.5 -97
t8.5 -108q0 -26 -5.5 -45.5t-14.5 -33.5t-19.5 -22.5t-20.5 -13.5q-28 -14 -90 -24.5t-160 -10.5h-50zM185 210q40 0 74 5.5t55 11.5q-6 36 -17 67.5t-31 55.5t-49.5 38.5t-71.5 16.5q-4 -9 -10.5 -32.5t-13.5 -50.5t-13 -51.5t-8 -35.5q11 -15 33 -20t52 -5zM190 590l30 50
l65 -40l-30 -50zM95 640l65 -40l-30 -50l-65 40z" />
    <glyph glyph-name="uFED8" unicode="&#x642;" horiz-adv-x="430" arabic-form="medial" 
d="M335 0q-39 0 -75.5 5.5t-60.5 19.5q-28 -17 -74.5 -21t-100.5 -4h-24q-8 0 -14 7t-6 18q0 12 6 18.5t14 6.5q34 0 72 0.5t68 4.5q-30 23 -47.5 50.5t-17.5 59.5q0 42 27.5 86t87.5 104l15 5q51 -28 80 -52t43.5 -44t18 -37.5t3.5 -33.5q0 -29 -19 -66.5t-59 -71.5
q17 -4 35 -4.5t33 -0.5h90v-50h-95zM115 170q0 -11 6 -25.5t18 -29t31.5 -28.5t46.5 -24q48 32 68 66t20 54q0 10 -3 23.5t-14 28.5t-32.5 32t-57.5 35q-44 -39 -63.5 -74t-19.5 -58zM225 490l30 50l65 -40l-30 -50zM130 540l65 -40l-30 -50l-65 40z" />
    <glyph glyph-name="uFEDA" unicode="&#x643;" horiz-adv-x="750" arabic-form="final" 
d="M750 0q-49 0 -76 13.5t-40 37.5q-9 -16 -24 -23q-26 -14 -95 -23.5t-175 -9.5q-56 0 -105.5 4t-86 16t-57.5 34.5t-21 60.5q0 23 2 48.5t4 48.5q3 26 6 53l38 -3q-4 -47 -7 -83.5t-5 -78.5q24 -26 86.5 -38t145.5 -12q45 0 87.5 2t79.5 5.5t66 9.5t47 15l-7 328
q-1 36 -2 63t-3.5 50.5t-8 45.5t-14.5 46l40 30q22 -53 26 -106.5t4 -113.5v-330q11 -20 36 -30t59 -10v-50zM460 443l-135 -43q34 -15 55 -29t32.5 -26.5t15.5 -24t4 -20.5q0 -11 -7 -23.5t-23.5 -24.5t-45 -22.5t-71.5 -17.5l-20 25l5 10q15 2 34 6t38 10t36.5 13.5
t28.5 15.5q-7 14 -29.5 33.5t-77.5 44.5l-5 10q2 13 4 22.5t6.5 16.5t11.5 12t18 9l127 43z" />
    <glyph glyph-name="uFEDE" unicode="&#x644;" horiz-adv-x="625" arabic-form="final" 
d="M625 0q-38 0 -61 9.5t-34 24.5q0 -30 -1.5 -50.5t-3.5 -34t-6 -23t-9 -16.5q-9 -13 -30.5 -29.5t-52 -31t-70.5 -24.5t-87 -10q-54 0 -92 11.5t-62 30.5t-35 44.5t-11 53.5q0 26 3 65t7 76q4 43 10 89l38 -3q-4 -51 -8 -97q-3 -39 -6 -80t-4 -65q15 -30 55.5 -52.5
t104.5 -22.5q55 0 116 18.5t107 56.5l-5 465q-1 36 -2 63t-3.5 50.5t-8 45.5t-14.5 46l40 30q22 -53 26 -106.5t4 -113.5v-330q11 -20 36 -30t59 -10v-50v0z" />
    <glyph glyph-name="uFEDF" unicode="&#x644;" horiz-adv-x="240" arabic-form="initial" 
d="M0 0q-8 0 -14 7t-6 18q0 12 6 18.5t14 6.5q42 0 74 4.5t51 15.5l-7 335q-1 36 -2 63t-3.5 50.5t-8 45.5t-14.5 46l40 30q22 -53 26 -106.5t4 -113.5v-305q0 -38 -16 -63.5t-39 -36.5q-15 -8 -39 -11.5t-66 -3.5z" />
    <glyph glyph-name="uFEE0" unicode="&#x644;" horiz-adv-x="255" arabic-form="medial" 
d="M255 0q-48 0 -75 13.5t-40 36.5q-5 -11 -13 -19.5t-22 -15.5q-15 -8 -39 -11.5t-66 -3.5q-8 0 -14 7t-6 18q0 12 6 18.5t14 6.5q42 0 74 4.5t51 15.5l-7 335q-1 36 -2 63t-3.5 50.5t-8 45.5t-14.5 46l40 30q22 -53 26 -106.5t4 -113.5v-330q11 -20 36 -30t59 -10v-50v0z
" />
    <glyph glyph-name="uFEE2" unicode="&#x645;" horiz-adv-x="535" arabic-form="final" 
d="M535 0q-36 0 -66.5 7.5t-49.5 30.5q-8 -17 -20.5 -27.5t-23.5 -10.5q-32 0 -69 10.5t-71.5 25t-61.5 30t-38 24.5q-9 -8 -14.5 -16t-7.5 -22.5t-2.5 -38.5t-0.5 -63q0 -42 1.5 -87.5t3.5 -87.5l-30 -10l-11 5q-3 93 -3.5 155t-0.5 100q0 42 17.5 71t55.5 37l42 67
q15 24 31.5 43t38 32.5t50.5 22t70 12.5l20 -10q15 -57 23.5 -117.5t16.5 -102.5q15 -19 42.5 -24.5t57.5 -5.5v-50zM360 255q-32 -4 -54.5 -8t-42 -16.5t-40 -38.5t-49.5 -73q22 -15 50.5 -28t58 -23t57.5 -16t50 -7q0 15 -2 38.5t-5.5 51.5t-9.5 59t-13 61z" />
    <glyph glyph-name="uFEE3" unicode="&#x645;" horiz-adv-x="490" arabic-form="initial" 
d="M365 0q-28 0 -60.5 8.5t-64 20.5t-58.5 26t-43 25q-20 -27 -37.5 -43t-33.5 -24.5t-32.5 -10.5t-35.5 -2q-8 0 -14 7t-6 18q0 12 6 18.5t14 6.5q26 0 45 4.5t37 20t39.5 45t53.5 80.5q15 24 31.5 43t38 32.5t50.5 22t70 12.5l20 -10q19 -75 27 -132t8 -83q0 -17 -5 -32.5
t-13 -27t-18 -18.5t-19 -7zM172 130q-2 -3 -3.5 -6t-3.5 -5q22 -15 49.5 -28t57 -22.5t57.5 -16t51 -7.5q0 15 -2 38.5t-5.5 51.5t-9.5 59t-13 61q-34 -4 -56.5 -8.5t-41 -16.5t-37 -35.5t-43.5 -64.5z" />
    <glyph glyph-name="uFEE4" unicode="&#x645;" horiz-adv-x="525" arabic-form="medial" 
d="M525 0q-36 0 -66.5 7.5t-49.5 30.5q-8 -17 -20.5 -27.5t-23.5 -10.5q-28 0 -60.5 8.5t-64 20.5t-58.5 26t-43 25q-20 -27 -37.5 -43t-33.5 -24.5t-32.5 -10.5t-35.5 -2q-8 0 -14 7t-6 18q0 12 6 18.5t14 6.5q26 0 45 4.5t37 20t39.5 45t53.5 80.5q15 24 31.5 43t38 32.5
t50.5 22t70 12.5l20 -10q15 -57 23.5 -117.5t16.5 -102.5q15 -19 42.5 -24.5t57.5 -5.5v-50zM172 130q-2 -3 -3.5 -6t-3.5 -5q22 -15 49.5 -28t57 -22.5t57.5 -16t51 -7.5q0 15 -2 38.5t-5.5 51.5t-9.5 59t-13 61q-34 -4 -56.5 -8.5t-41 -16.5t-37 -35.5t-43.5 -64.5z" />
    <glyph glyph-name="uFEE6" unicode="&#x646;" horiz-adv-x="640" arabic-form="final" 
d="M640 0q-24 0 -43.5 2.5t-34.5 12.5q1 -12 2 -27.5t1 -32.5q0 -26 -5 -50t-15 -40q-6 -9 -27 -26t-55 -33.5t-80.5 -28.5t-102.5 -12q-58 0 -98 11.5t-65 30.5t-36 44.5t-11 53.5q0 26 3 65t7 76q4 43 10 89l38 -3q-4 -51 -8 -97q-3 -39 -6 -80t-4 -65q15 -30 56.5 -52.5
t113.5 -22.5q36 0 72 6t69 17t60 25.5t44 31.5q0 37 -3.5 78t-9.5 81.5t-14.5 80t-17.5 75.5l30 20l15 -5q11 -53 19 -94.5t16 -60.5q11 -11 32.5 -15.5t47.5 -4.5v-50zM235 270l30 50l65 -40l-30 -50z" />
    <glyph glyph-name="uFEE7" unicode="&#x646;" horiz-adv-x="280" arabic-form="initial" 
d="M0 0q-8 0 -14 7t-6 18q0 12 6 18.5t14 6.5q24 0 49.5 1t49 4t43 7.5t31.5 12.5q0 13 -3 37t-9 52t-14 57.5t-17 53.5l30 25l15 -5q6 -13 12 -35t11 -47t8.5 -49.5t3.5 -43.5q0 -38 -15.5 -63t-34.5 -35q-20 -11 -63.5 -16.5t-96.5 -5.5zM80 430l30 50l65 -40l-30 -50z
" />
    <glyph glyph-name="uFEE8" unicode="&#x646;" horiz-adv-x="280" arabic-form="medial" 
d="M280 0q-14 0 -28.5 2t-28.5 8t-26 17.5t-20 30.5q-5 -9 -12 -18.5t-15 -14.5q-15 -11 -52.5 -18t-97.5 -7q-8 0 -14 7t-6 18q0 12 6 18.5t14 6.5q60 0 95 4.5t50 10.5l25 155h35q-2 -28 -3 -46t-1.5 -28.5t-0.5 -16v-9.5q0 -21 7 -34.5t18.5 -21.5t26 -11t28.5 -3v-50z
M90 360l30 50l65 -40l-30 -50z" />
    <glyph glyph-name="uFEEA" unicode="&#x647;" horiz-adv-x="445" arabic-form="final" 
d="M190 25q-64 0 -92 23.5t-28 76.5q0 23 2 40t8 39q6 10 27 26.5t48 35t56.5 37t54.5 33.5l-12 69l30 15l15 -5l51 -330q11 -19 38 -27t57 -8v-50q-23 0 -44 3t-39 11t-31.5 23.5t-20.5 41.5q-6 -14 -10 -23.5t-5 -10.5q-4 -8 -33.5 -14t-71.5 -6zM273 290
q-25 -15 -51.5 -31t-49 -31t-39.5 -27.5t-23 -21.5q-2 -28 -1 -47.5t9.5 -32t26.5 -18.5t50 -6q28 0 57.5 3t55.5 10q-1 2 -1 7z" />
    <glyph glyph-name="uFEEB" unicode="&#x647;" horiz-adv-x="560" arabic-form="initial" 
d="M0 0q-8 0 -14 7t-6 18q0 12 6 18.5t14 6.5h25q82 0 125 10q-38 17 -54 49t-16 66q0 21 8 42t21.5 40t31 34.5t37.5 25.5l-58 25l-7 12l12 36l195 -85q40 -18 72.5 -36t55.5 -39.5t35 -47t12 -57.5q0 -30 -11 -61.5t-34 -73.5l-240 49q-34 -18 -80.5 -28.5t-94.5 -10.5
h-35zM220 297q-23 -6 -41 -19t-31.5 -30t-21 -35t-8.5 -33q2 -30 22.5 -57t70.5 -40q22 10 37.5 22.5t26 25t16 24t7.5 20.5q0 9 -2.5 26t-10.5 35t-23.5 34.5t-41.5 26.5zM453 115q0 46 -33.5 79t-100.5 64q8 -16 12 -34t4 -39q0 -26 -15.5 -57.5t-50.5 -57.5l166 -30
q8 19 13 39.5t5 35.5z" />
    <glyph glyph-name="uFEEC" unicode="&#x647;" horiz-adv-x="410" arabic-form="medial" 
d="M317 0q14 -11 18.5 -29t4.5 -36q0 -15 -3 -31t-7.5 -30t-9.5 -24.5t-10 -14.5q-23 -19 -56.5 -27t-58.5 -8q-75 0 -105 46.5t-25 153.5h-65q-8 0 -14 7t-6 18q0 12 6 18.5t14 6.5h70l50 280l10 10q69 -21 107 -45.5t55 -53t20 -61.5t3 -70q0 -38 -13 -60h108v-50h-93z
M110 48q60 0 101 2t64 13q2 46 1 80t-13 59.5t-38 44t-75 33.5zM200 -150q23 0 47.5 4.5t47.5 15.5q4 34 3.5 59t-9 41.5t-26 24.5t-48.5 8h-110q-4 -52 2 -82.5t19 -46t32 -20t42 -4.5z" />
    <glyph glyph-name="uFEEE" unicode="&#x648;" horiz-adv-x="435" arabic-form="final" 
d="M195 -10q-57 0 -86 20.5t-29 54.5q0 15 6 42t14 57.5t17.5 60t17.5 50.5l20 15q54 -5 92.5 -24t63.5 -50.5t37.5 -73.5t15.5 -92h71v-50h-71q-5 -47 -28.5 -89t-55.5 -73.5t-68.5 -49.5t-66.5 -18q-8 0 -27.5 2.5t-42.5 7.5v30q43 2 83.5 15.5t74 37.5t58.5 57.5t38 74.5
v5q-35 -5 -69 -7.5t-65 -2.5zM205 40q33 0 65 2t55 4q-9 88 -47 136t-116 58q-4 -9 -11 -33.5t-14.5 -52t-13.5 -53t-8 -36.5q11 -15 35.5 -20t54.5 -5z" />
    <glyph glyph-name="uFEF0" unicode="&#x649;" horiz-adv-x="610" arabic-form="final" 
d="M562 0q3 -9 3 -25q0 -15 -2 -32t-5 -32.5t-6.5 -27.5t-6.5 -18q-6 -9 -27 -26t-55 -33.5t-80.5 -28.5t-102.5 -12q-58 0 -98 11.5t-65 30.5t-36 44.5t-11 53.5q0 26 3 65t7 76q4 43 10 89l38 -3q-4 -51 -8 -97q-3 -39 -6 -80t-4 -65q15 -30 56.5 -52.5t113.5 -22.5
q33 0 66 5t64 14.5t57 22t45 27.5q5 24 7.5 53.5t0.5 52.5q-9 4 -23 6t-40 3.5t-67 2.5t-105 3l-5 10q2 5 3.5 9.5t3.5 9.5q4 10 9.5 13t13.5 3h300v-50h-48z" />
    <glyph glyph-name="uFEF2" unicode="&#x64a;" horiz-adv-x="610" arabic-form="final" 
d="M562 0q3 -9 3 -25q0 -15 -2 -32t-5 -32.5t-6.5 -27.5t-6.5 -18q-6 -9 -27 -26t-55 -33.5t-80.5 -28.5t-102.5 -12q-58 0 -98 11.5t-65 30.5t-36 44.5t-11 53.5q0 26 3 65t7 76q4 43 10 89l38 -3q-4 -51 -8 -97q-3 -39 -6 -80t-4 -65q15 -30 56.5 -52.5t113.5 -22.5
q33 0 66 5t64 14.5t57 22t45 27.5q5 24 7.5 53.5t0.5 52.5q-9 4 -23 6t-40 3.5t-67 2.5t-105 3l-5 10q2 5 3.5 9.5t3.5 9.5q4 10 9.5 13t13.5 3h300v-50h-48zM230 -300l65 -40l-30 -50l-65 40zM420 -340l-30 -50l-65 40l30 50z" />
    <glyph glyph-name=".notdef" horiz-adv-x="605" 
d="M173 103h259v509h-259v-509zM80 715h445v-715h-445v715z" />
    <glyph glyph-name=".null" 
 />
    <glyph glyph-name="nonmarkingreturn" horiz-adv-x="333" 
 />
    <glyph glyph-name="space" unicode=" " horiz-adv-x="170" 
 />
    <glyph glyph-name="exclam" unicode="!" horiz-adv-x="220" 
d="M126 630v-450l-30 -10l-20 450l40 20zM70 40q0 17 11.5 29t28.5 12t28.5 -12t11.5 -29t-11.5 -28.5t-28.5 -11.5t-28.5 11.5t-11.5 28.5z" />
    <glyph glyph-name="quotedbl" unicode="&#x22;" horiz-adv-x="293" 
d="M113 568v-283l-22 -10l-21 3v279l33 18zM223 568v-283l-22 -10l-21 3v279l33 18z" />
    <glyph glyph-name="numbersign" unicode="#" horiz-adv-x="730" 
d="M288 400h196l31 175l38 -6l5 -14l-30 -155h132l-5 -40h-135l-36 -180h156l-5 -40h-159l-36 -185h-10l-20 20l29 165h-203l-36 -185h-10l-20 20l29 165h-129l5 40h131l31 180h-147l5 40h149l31 175l38 -6l5 -14zM244 180h202l31 180h-197z" />
    <glyph glyph-name="dollar" unicode="$" horiz-adv-x="435" 
d="M206 -121h-27l-4 6l8 111q-63 3 -117 33l5 43l7 3q51 -45 127 -45q18 0 37 6t35 17.5t26.5 28.5t10.5 38q0 29 -21 49.5t-59 37.5q-44 20 -72.5 34.5t-46 29.5t-26 33t-10.5 45q0 51 39 85.5t105 37.5l11 137h27l6 -6l-11 -132q41 -3 85 -21l-8 -40l-8 -1
q-22 14 -47.5 21.5t-50.5 7.5q-20 0 -39 -6.5t-34 -17.5t-24.5 -27.5t-9.5 -35.5q0 -28 22 -46.5t64 -38.5q22 -11 48.5 -22t49 -26.5t37.5 -37.5t15 -54q0 -49 -38 -86t-102 -43z" />
    <glyph glyph-name="percent" unicode="%" horiz-adv-x="799" 
d="M622 617l-454 -703l-22 12l-5 10l454 704l22 -12zM327 448q0 -81 -35.5 -125t-101.5 -44q-64 0 -98 42.5t-34 121.5q0 81 35.5 124t101.5 43q64 0 98 -42t34 -120zM94 446q0 -131 100 -131q48 0 72.5 32.5t24.5 95.5t-25.5 96.5t-73.5 33.5t-73 -33t-25 -94zM741 165
q0 -81 -35.5 -125t-102.5 -44q-64 0 -98 42.5t-34 121.5q0 81 35.5 124t102.5 43q63 0 97.5 -42t34.5 -120zM507 162q0 -63 25.5 -96.5t74.5 -33.5q48 0 73 32.5t25 95.5q0 130 -100 130q-48 0 -73 -32.5t-25 -95.5z" />
    <glyph glyph-name="ampersand" unicode="&#x26;" horiz-adv-x="682" 
d="M494 341q25 -65 25 -125q0 -59 -23 -107l126 -112v-4q-8 -8 -15 -13t-14 -9h-4l-115 102q-60 -78 -185 -78q-47 0 -85.5 11.5t-65.5 32.5t-42 51.5t-15 68.5q0 105 109 163v4q-69 63 -69 140q0 69 45 108t127 39q77 0 148 -36l-12 -38h-9q-57 36 -127 36q-63 0 -95.5 -29
t-32.5 -83q0 -35 15 -62.5t51 -56.5l235 -209q16 36 16 84q0 68 -32 127h-70l-4 5l5 33h270l4 -5l-5 -33h-155zM217 302q-94 -48 -94 -137q0 -30 12.5 -54.5t34.5 -42t53 -27t69 -9.5q104 0 153 67z" />
    <glyph glyph-name="quotesingle" unicode="'" horiz-adv-x="183" 
d="M113 568v-283l-22 -10l-8 3l-13 279l33 18z" />
    <glyph glyph-name="parenleft" unicode="(" horiz-adv-x="295" 
d="M115 215q0 -49 5 -89.5t18 -79t34 -77.5t53 -84l-20 -20h-10q-41 54 -66 101t-38 89t-17 81.5t-4 78.5t4 78.5t17 81.5t38 89t66 101h10l20 -20q-32 -45 -53 -84t-34 -77.5t-18 -79t-5 -89.5z" />
    <glyph glyph-name="parenright" unicode=")" horiz-adv-x="295" 
d="M180 215q0 49 -5 89.5t-18 79t-34 77.5t-53 84l20 20h10q41 -54 66 -101t38 -89t17 -81.5t4 -78.5t-4 -78.5t-17 -81.5t-38 -89t-66 -101h-10l-20 20q32 45 53 84t34 77.5t18 79t5 89.5z" />
    <glyph glyph-name="asterisk" unicode="*" horiz-adv-x="381" 
d="M201 574l-23 -3l-4 6l2 105q15 7 38 7l3 -5zM154 537l-6 -2l-97 34q0 22 6 40l5 2l95 -51zM332 555l-105 -19l-10 21l3 5l97 32q12 -17 18 -36zM281 427q-4 -7 -11 -14t-17 -15l-5 1l-49 100l16 15l8 -1zM176 495l-58 -85q-12 4 -37 18v5l76 80l19 -10v-8z" />
    <glyph glyph-name="plus" unicode="+" horiz-adv-x="520" 
d="M242 0v170h-172v40h172v170h36v-170h172v-40h-172v-170h-36z" />
    <glyph glyph-name="comma" unicode="," horiz-adv-x="220" 
d="M110 0q-15 0 -27.5 10.5t-12.5 29.5q0 17 11.5 28.5t28.5 11.5t28.5 -11.5t11.5 -28.5q0 -8 -1.5 -16.5t-8.5 -23.5t-20 -39t-35 -61h-7l-13 20l45 80v0z" />
    <glyph glyph-name="hyphen" unicode="-" horiz-adv-x="520" 
d="M70 170v45h380v-45h-380z" />
    <glyph glyph-name="period" unicode="." horiz-adv-x="220" 
d="M110 0q-17 0 -28.5 11.5t-11.5 28.5t11.5 29t28.5 12t28.5 -12t11.5 -29t-11.5 -28.5t-28.5 -11.5z" />
    <glyph glyph-name="slash" unicode="/" horiz-adv-x="473" 
d="M100 -45h-10l-20 20l290 600l38 -6l5 -14z" />
    <glyph glyph-name="zero" unicode="0" horiz-adv-x="420" 
d="M202 304q-15 -6 -30 -16.5t-28.5 -24t-24 -28.5t-16.5 -30q6 -15 16.5 -30t24 -28.5t28.5 -24t30 -16.5h16q15 6 30 16.5t28.5 24t24 28.5t16.5 30q-6 15 -16.5 30t-24 28.5t-28.5 24t-30 16.5h-16zM210 65q-15 0 -36 12t-41.5 30.5t-38 41.5t-24.5 46v20q7 22 24.5 45.5
t38 42t41.5 30.5t36 12t36 -12t41.5 -30.5t37.5 -42t25 -45.5v-20q-8 -23 -25 -46t-37.5 -41.5t-41.5 -30.5t-36 -12z" />
    <glyph glyph-name="one" unicode="1" horiz-adv-x="265" 
d="M180 -45h-10q-4 75 -7.5 134.5t-9 108.5t-13 91t-19 83t-28 82.5t-38.5 90.5l30 30q36 -69 57 -133.5t32.5 -135t16.5 -152t9 -184.5z" />
    <glyph glyph-name="two" unicode="2" horiz-adv-x="485" 
d="M190 -45h-10q-4 75 -8.5 134.5t-10.5 108.5t-15 91t-22 83t-30 82.5t-39 90.5l30 30l35 -80q19 -43 35.5 -69t33 -39.5t33.5 -17.5t38 -4q30 0 52.5 7.5t29.5 20.5q13 25 22.5 68t20.5 114l35 -5q-11 -75 -25 -130.5t-26 -77.5q-9 -17 -40 -29.5t-74 -12.5q-28 0 -51.5 8
t-40.5 27q12 -41 20.5 -83t13.5 -89t8 -99.5t5 -113.5z" />
    <glyph glyph-name="three" unicode="3" horiz-adv-x="670" 
d="M605 570q-11 -75 -25 -130.5t-26 -77.5q-9 -17 -40 -29.5t-74 -12.5q-28 0 -52.5 14.5t-38.5 53.5q-17 -39 -47 -53.5t-57 -14.5q-22 0 -43.5 7.5t-38.5 26.5q25 -80 34 -171.5t13 -212.5l-20 -15h-10q-4 75 -8.5 134.5t-10.5 108.5t-15 91t-22 83t-30 82.5t-39 90.5
l30 30l35 -80q19 -43 35 -69t31.5 -39.5t31 -17.5t32.5 -4q22 0 38.5 9.5t27.5 31.5t18 58.5t11 90.5h30v-95q0 -45 16 -70t54 -25q30 0 52.5 7.5t29.5 20.5q13 25 22.5 68t20.5 114l35 -5v0z" />
    <glyph glyph-name="four" unicode="4" horiz-adv-x="525" 
d="M178 -45h-10q-4 73 -7.5 131t-8.5 106.5t-12 90t-18 81t-26 79.5t-36 87l30 29q9 -20 26.5 -63.5t35.5 -100.5q8 36 29 68.5t47.5 57.5t54.5 39.5t50 14.5q19 0 40 -14.5t55 -40.5l-20 -35q-34 23 -51.5 31.5t-28.5 8.5q-17 0 -39.5 -12.5t-44.5 -34t-40.5 -50.5
t-25.5 -63q15 -45 52 -65t94 -20q34 0 64 5.5t60 14.5l7 -7l-2 -33q-38 -15 -71.5 -20t-63.5 -5q-57 0 -91.5 16.5t-52.5 39.5q11 -68 15.5 -145t8.5 -176z" />
    <glyph glyph-name="five" unicode="5" horiz-adv-x="580" 
d="M365 -35q-42 0 -64.5 17t-31.5 37q-8 -15 -17.5 -25.5t-22 -17t-30.5 -9t-44 -2.5q-28 0 -48 9.5t-32.5 25.5t-18.5 36.5t-6 43.5q0 33 7 68.5t25 80.5t48.5 102t77.5 131q-22 14 -46.5 30t-51.5 33l11 30l14 5q122 -75 194 -132t110 -105t49.5 -92.5t11.5 -95.5
q0 -19 -3.5 -38t-8.5 -36.5t-11 -32t-12 -23.5q-13 -22 -35.5 -31t-64.5 -9zM460 130q0 42 -9.5 78.5t-34.5 73t-68.5 75.5t-112.5 86q-51 -78 -81 -135t-45 -98t-19.5 -69.5t-4.5 -50.5q0 -45 22.5 -62.5t52.5 -17.5q19 0 39 2t31 8q4 9 8.5 22.5t9 28.5t9 30.5t8.5 28.5
h32q-1 -17 -1.5 -27t-0.5 -15.5v-8v-4.5q0 -35 23 -50t57 -15q15 0 28 1t32 9q14 26 19.5 55t5.5 55z" />
    <glyph glyph-name="six" unicode="6" horiz-adv-x="475" 
d="M240 525q-13 0 -34 -11.5t-42 -30t-39 -43t-25 -50.5q15 -100 130 -100q30 0 74 10t101 40l10 -5v-40q-41 -24 -82.5 -53.5t-82 -69.5t-81 -93t-79.5 -124h-10l-10 25q10 25 30 59t46 70t57.5 71.5t65.5 64.5q-12 -2 -22.5 -3t-21.5 -1q-39 0 -68 12t-48.5 32t-29 44.5
t-9.5 50.5q0 37 19.5 72.5t47.5 62.5t57.5 43.5t50.5 16.5q15 0 37 -13t48 -32l-20 -35q-26 15 -42.5 22.5t-27.5 7.5z" />
    <glyph glyph-name="seven" unicode="7" horiz-adv-x="585" 
d="M515 575l20 -30q-58 -69 -95.5 -139.5t-61 -142t-36.5 -143.5t-22 -145l-32 -20l-13 8q-14 77 -26.5 136t-26.5 106.5t-29.5 87.5t-36 78.5t-46.5 79t-60 89.5l30 35q39 -51 74 -107t63.5 -122t48.5 -144t29 -172q6 64 19 134t37.5 140.5t62 139.5t91.5 131h10z" />
    <glyph glyph-name="eight" unicode="8" horiz-adv-x="585" 
d="M70 -45l-20 30q58 69 95.5 139.5t61 141.5t36.5 143.5t22 145.5l32 20l13 -8q14 -77 26.5 -136t26.5 -106.5t29.5 -87.5t36 -78.5t46.5 -79t60 -89.5l-30 -35q-39 51 -74 107t-63.5 122t-48.5 144t-29 172q-6 -64 -19 -134t-37.5 -140.5t-62 -139.5t-91.5 -131h-10z" />
    <glyph glyph-name="nine" unicode="9" horiz-adv-x="515" 
d="M430 -45h-10q-26 34 -41.5 65.5t-24.5 66t-12.5 74t-6.5 89.5q-1 4 -1 8v8q-29 -10 -63 -15.5t-73 -5.5t-64.5 4t-40.5 12t-21.5 20t-6.5 29q0 15 5 47t12 69t14.5 73.5t13.5 60.5l15 15q61 0 104.5 -13t72 -41.5t43.5 -74t20 -111.5q5 -79 9.5 -129.5t13 -86.5t24 -64.5
t43.5 -64.5zM205 290q37 0 67.5 5t57.5 14q-6 63 -18.5 104.5t-35 66t-56 35t-80.5 10.5q-4 -13 -10 -42.5t-12 -63t-11 -64t-7 -45.5q15 -11 41 -15.5t64 -4.5z" />
    <glyph glyph-name="colon" unicode=":" horiz-adv-x="220" 
d="M110 0q-17 0 -28.5 11.5t-11.5 28.5t11.5 29t28.5 12t28.5 -12t11.5 -29t-11.5 -28.5t-28.5 -11.5zM70 190q0 17 11.5 29t28.5 12t28.5 -12t11.5 -29t-11.5 -28.5t-28.5 -11.5t-28.5 11.5t-11.5 28.5z" />
    <glyph glyph-name="semicolon" unicode=";" horiz-adv-x="247" 
d="M150 289q0 -33 -33 -33q-31 0 -31 32q0 15 8.5 24t23.5 9q32 0 32 -32zM161 7q0 -50 -77 -109l-18 17v5q52 39 52 79q0 22 -29 39v6q14 11 34 19q38 -23 38 -56z" />
    <glyph glyph-name="less" unicode="&#x3c;" horiz-adv-x="470" 
d="M70 155v35l312 155l10 -5l8 -30l-285 -138l285 -137l-8 -30l-10 -5z" />
    <glyph glyph-name="equal" unicode="=" horiz-adv-x="520" 
d="M70 93v40h380v-40h-380zM70 248v40h380v-40h-380z" />
    <glyph glyph-name="greater" unicode="&#x3e;" horiz-adv-x="470" 
d="M88 0l-10 5l-8 30l285 137l-285 138l8 30l10 5l312 -155v-35z" />
    <glyph glyph-name="question" unicode="?" horiz-adv-x="341" 
d="M323 477q0 -75 -77 -125l-85 -57l-1 -2l5 -97l-36 -4l-5 6l-5 106l4 9l93 59q62 39 62 98q0 52 -49.5 81.5t-146.5 35.5l-3 6l10 28l8 4q109 -8 167.5 -46t58.5 -102zM180 30q0 -33 -32 -33q-31 0 -31 32q0 15 8.5 24t23.5 9q31 0 31 -32z" />
    <glyph glyph-name="at" unicode="@" horiz-adv-x="805" 
d="M482 223h-8q-40 -72 -82.5 -129t-88.5 -100h-13q-31 21 -46 54.5t-15 88.5t14.5 107t43 93t69.5 68t94 33h4l61 -15l30 16l7 -4l-46 -332l-4 -69q106 12 161.5 73.5t55.5 167.5q0 58 -19.5 106.5t-55.5 83.5t-87 54t-114 19q-79 1 -144.5 -25t-112.5 -72.5t-72.5 -111.5
t-24.5 -143q0 -78 26 -140t74 -105.5t115.5 -66.5t150.5 -23l2 -6l-18 -27q-87 1 -158 27t-121.5 73t-78.5 113.5t-28 148.5q-1 86 27 158.5t80 125.5t124 82t159 28q71 0 128.5 -21.5t98.5 -60.5t63 -94t22 -121q0 -131 -78 -202t-226 -79zM501 385l-58 14
q-39 -1 -71 -21.5t-54.5 -54.5t-34.5 -79.5t-12 -95.5q0 -51 11 -75.5t23 -24.5q7 0 26.5 20t46.5 56.5t58.5 87.5t60.5 114z" />
    <glyph glyph-name="A" unicode="A" horiz-adv-x="569" 
d="M479 0l-14 51l-45 131l-145 2l-130 -2l-49 -129l-15 -53h-51l232 607h56l212 -607h-51zM291 550h-5l-124 -324l119 -1l123 1z" />
    <glyph glyph-name="B" unicode="B" horiz-adv-x="520" 
d="M114 184l-3 423l144 1q81 0 124.5 -37t43.5 -106q0 -110 -92 -148q134 -23 134 -149q0 -84 -59 -127.5t-174 -43.5q-67 0 -121 3zM161 566l-2 -232l114 -2q99 21 99 128q0 106 -121 106h-90zM416 171q0 54 -34.5 84t-98.5 37l-124 -1l-1 -104l2 -145q37 -3 75 -3
q88 0 134.5 34t46.5 98z" />
    <glyph glyph-name="C" unicode="C" horiz-adv-x="526" 
d="M473 517l-8 -1q-67 53 -150 53q-102 0 -155.5 -68t-53.5 -198t52 -197.5t151 -67.5q89 0 166 60l7 -3l-3 -47q-83 -54 -173 -54q-121 0 -185.5 79t-64.5 227q0 150 67.5 231t193.5 81q95 0 166 -51z" />
    <glyph glyph-name="D" unicode="D" horiz-adv-x="640" 
d="M114 184l-3 423l206 4q130 0 198.5 -73.5t68.5 -213.5q0 -160 -72.5 -244.5t-210.5 -84.5q-35 0 -82.5 1.5t-107.5 3.5zM534 315q0 127 -55.5 190.5t-164.5 63.5q-28 0 -66 -1.5t-87 -3.5l-3 -377l2 -144q88 -6 148 -6q109 0 167.5 71t58.5 207z" />
    <glyph glyph-name="E" unicode="E" horiz-adv-x="476" 
d="M111 0l3 184l-3 423h319l4 -6l-6 -39l-141 2l-126 -1l-2 -229l119 -1l102 1l4 -4l-5 -39l-220 1l-1 -105l2 -144l123 -1l149 3l4 -6l-5 -39h-320z" />
    <glyph glyph-name="F" unicode="F" horiz-adv-x="432" 
d="M111 0l3 184l-3 423h304l5 -6l-6 -40l-136 3l-117 -1l-2 -240l112 -1l96 2l5 -6l-6 -38l-207 1l-1 -94l2 -187h-49z" />
    <glyph glyph-name="G" unicode="G" horiz-adv-x="602" 
d="M508 519l-8 -1q-86 51 -161 51q-115 0 -174 -68.5t-59 -204.5q0 -258 211 -258q65 0 150 25l1 88l-1 81l48 4l-1 -79l2 -128q-58 -17 -108 -25.5t-92 -9.5q-129 0 -194.5 77.5t-65.5 222.5q0 154 74.5 236t214.5 82q88 0 174 -48z" />
    <glyph glyph-name="H" unicode="H" horiz-adv-x="673" 
d="M512 0l3 184l-1 102l-185 1l-170 -1l-1 -99l2 -187h-49l3 184l-3 423h50l-2 -277l175 -1l180 1l-2 277h50l-2 -420l1 -187h-49z" />
    <glyph glyph-name="I" unicode="I" horiz-adv-x="272" 
d="M111 0l3 184l-3 423h50l-3 -420l2 -187h-49z" />
    <glyph glyph-name="J" unicode="J" horiz-adv-x="305" 
d="M195 110q0 -35 -7.5 -63t-25 -52t-45 -46t-66.5 -44l-20 28v7q64 38 90.5 75.5t26.5 93.5v87l-2 369h-119l-5 5l3 37h170l-1 -406z" />
    <glyph glyph-name="K" unicode="K" horiz-adv-x="532" 
d="M110 0l3 184l-3 423h50l-2 -420l2 -187h-50zM512 4q-14 -6 -45 -12l-6 3q-166 175 -283 325v4l220 235l39 48h60l-263 -284q68 -85 137.5 -163t141.5 -150z" />
    <glyph glyph-name="L" unicode="L" horiz-adv-x="418" 
d="M109 0l3 184l-3 423h50l-2 -420l1 -144h236l5 -6l-6 -37h-284z" />
    <glyph glyph-name="M" unicode="M" horiz-adv-x="776" 
d="M651 0l-17 185l-37 337h-5l-186 -449h-44l-179 449h-6l-37 -334l-18 -188h-43l65 607h56l34 -93l150 -375h4l158 383l32 85h56l62 -607h-45z" />
    <glyph glyph-name="N" unicode="N" horiz-adv-x="673" 
d="M509 0l-347 524h-5l-1 -329l1 -195h-46l3 180l-2 427h51l347 -524h5l1 521l46 4l-3 -435v-173h-50z" />
    <glyph glyph-name="O" unicode="O" horiz-adv-x="629" 
d="M575 314q0 -154 -69 -237t-197 -83q-123 0 -188 79t-65 227q0 151 68.5 232t196.5 81q123 0 188.5 -77t65.5 -222zM105 305q0 -133 52 -201t154 -68q105 0 159 69t54 203q0 130 -52 196t-155 66q-105 0 -158.5 -67t-53.5 -198z" />
    <glyph glyph-name="P" unicode="P" horiz-adv-x="508" 
d="M111 0l3 184l-3 423l161 1q88 0 134 -44.5t46 -129.5q0 -100 -56.5 -155t-159.5 -55h-78l2 -224h-49zM402 430q0 131 -135 136l-106 -2l-2 -296l106 -2q66 9 101.5 51.5t35.5 112.5z" />
    <glyph glyph-name="Q" unicode="Q" horiz-adv-x="632" 
d="M682 -178q-194 38 -349 173l-24 -1q-123 0 -188 79t-65 227q0 151 68.5 232t196.5 81q123 0 188.5 -77t65.5 -223q0 -131 -49.5 -210t-143.5 -101q145 -112 326 -140l1 -7q-13 -24 -21 -32zM312 36q103 0 157.5 69.5t54.5 204.5q0 129 -52 194.5t-155 65.5
q-105 0 -158.5 -67t-53.5 -200q0 -132 52.5 -199.5t154.5 -67.5z" />
    <glyph glyph-name="R" unicode="R" horiz-adv-x="541" 
d="M111 0l3 184l-3 423l161 1q88 0 134 -43t46 -127q0 -67 -34 -115.5t-98 -73.5q35 -58 76 -117t88 -121v-6q-8 -4 -18 -7.5t-24 -5.5l-8 4q-46 66 -85 126.5t-71 115.5h-120l2 -238h-49zM283 279q119 33 119 156q0 126 -135 131l-106 -2l-2 -283z" />
    <glyph glyph-name="S" unicode="S" horiz-adv-x="466" 
d="M377 537l-10 -3q-56 35 -114 35q-30 0 -54 -10t-41 -26t-26.5 -36.5t-9.5 -41.5q2 -23 11 -40t24.5 -31t39 -26.5t53.5 -26.5q49 -26 81 -45q31 -19 52.5 -49.5t21.5 -75.5q0 -34 -14 -64t-39.5 -52.5t-60.5 -36t-77 -13.5q-87 0 -154 43l5 50l7 3q31 -27 70 -41t75 -14
q32 0 57.5 10t43.5 26.5t28 38.5t10 45q0 25 -11.5 44.5t-30.5 35t-42 27.5t-46 23q-25 12 -45 22.5t-35 20.5q-30 19 -51 49.5t-21 72.5q0 33 13.5 62t38 51t58.5 34.5t75 12.5q62 0 126 -29z" />
    <glyph glyph-name="T" unicode="T" horiz-adv-x="489" 
d="M220 0l3 184l-3 382h-74l-103 -3l-4 6l5 38h402l5 -6l-5 -38l-101 3h-74l-3 -379l2 -187h-50z" />
    <glyph glyph-name="U" unicode="U" horiz-adv-x="618" 
d="M528 224q2 -109 -55.5 -169t-165.5 -60q-106 0 -161 58t-54 167v387h48l-1 -382q-1 -91 42 -138.5t128 -47.5t129 46.5t43 134.5l-1 387h49l-1 -310v-73z" />
    <glyph glyph-name="V" unicode="V" horiz-adv-x="554" 
d="M243 0l-212 607h51l14 -52l175 -499h4l190 497l15 54h51l-232 -607h-56z" />
    <glyph glyph-name="W" unicode="W" horiz-adv-x="875" 
d="M572 0l-133 383h-5l-143 -383h-50l-205 607h50l12 -50l169 -497h4l146 391l-54 156h51l13 -54l169 -493h6l185 495l14 52h48l-227 -607h-50z" />
    <glyph glyph-name="X" unicode="X" horiz-adv-x="579" 
d="M468 0l-25 43l-160 233l-163 -236l-23 -40h-55l211 311l-201 296h61l24 -41l149 -217l147 215l24 43h56l-198 -292l214 -315h-61z" />
    <glyph glyph-name="Y" unicode="Y" horiz-adv-x="516" 
d="M225 0l3 181l-1 43l-193 383h55l11 -29l149 -295h5l162 294l12 30h54l-209 -384l-1 -42l2 -181h-49z" />
    <glyph glyph-name="Z" unicode="Z" horiz-adv-x="522" 
d="M90 0l-45 -2v38l360 529h-267l-75 -5l-3 6l4 42l85 -1h275l41 1v-38l-360 -528h281l79 4l4 -5l-5 -42l-91 1h-283z" />
    <glyph glyph-name="bracketleft" unicode="[" horiz-adv-x="306" 
d="M236 -93l-6 -32h-150l-10 15v685q0 11 4 25t15 40h141l6 -8l-6 -32h-125v-685h125z" />
    <glyph glyph-name="backslash" unicode="\" horiz-adv-x="473" 
d="M70 555l5 14l38 6l290 -600l-20 -20h-10z" />
    <glyph glyph-name="bracketright" unicode="]" horiz-adv-x="306" 
d="M70 608l6 32h150l10 -15v-685q0 -11 -4 -25t-15 -40h-141l-6 8l6 32h125v685h-125z" />
    <glyph glyph-name="underscore" unicode="_" horiz-adv-x="520" 
d="M70 0v35h380v-35h-380z" />
    <glyph glyph-name="a" unicode="a" horiz-adv-x="460" 
d="M228 439q57 0 89 -29.5t33 -80.5q0 -2 -1 -33t-3 -91q-6 -108 -6 -122q0 -25 7 -35t24 -10q16 0 36 9l7 -4l-6 -32q-23 -14 -48 -15q-57 1 -60 71h-5q-54 -61 -112 -73q-57 0 -89 29.5t-32 83.5q0 76 83 96l158 37l2 77q0 42 -22 63t-62 21q-60 0 -133 -62l-6 3l-7 35
q79 62 153 62zM106 113q0 -36 20 -56.5t55 -20.5q58 0 117 77l4 92l-147 -35q-49 -10 -49 -57z" />
    <glyph glyph-name="b" unicode="b" horiz-adv-x="512" 
d="M107 183l-3 479l49 5l-2 -297h5q58 58 130 67q79 0 121.5 -54.5t42.5 -154.5q0 -112 -54 -173.5t-151 -61.5q-48 0 -97 18l-35 -17l-10 6zM404 221q0 84 -32 129t-90 45q-70 0 -131 -73l-1 -134l2 -130q52 -27 97 -27q73 0 114 48.5t41 141.5z" />
    <glyph glyph-name="c" unicode="c" horiz-adv-x="397" 
d="M352 364l-7 -1q-49 34 -104 34q-63 0 -98 -48.5t-35 -133.5q0 -84 36 -132t99 -48q61 0 114 36l7 -4l-5 -41q-59 -32 -121 -32q-41 0 -73.5 15t-55 43.5t-35 69t-12.5 91.5t12.5 93t35.5 71.5t56.5 45.5t75.5 16q67 0 120 -32z" />
    <glyph glyph-name="d" unicode="d" horiz-adv-x="516" 
d="M405 83q0 -24 7.5 -34.5t23.5 -10.5q15 0 35 9l7 -4l-6 -32q-23 -14 -48 -15q-54 1 -59 68h-5q-56 -57 -119 -69q-85 0 -132.5 57t-47.5 160q0 109 53.5 168t152.5 59q40 0 93 -12l-1 235l48 5l-3 -479zM107 219q0 -87 35.5 -134t96.5 -47q65 0 121 69l1 77l-1 197
q-53 21 -98 21q-73 0 -114 -47.5t-41 -135.5z" />
    <glyph glyph-name="e" unicode="e" horiz-adv-x="451" 
d="M108 230q0 -96 36.5 -145.5t105.5 -49.5q68 0 121 43l8 -3l-6 -43q-59 -38 -127 -38q-88 0 -136 58t-48 160q0 52 13.5 94t38 71t60 45t79.5 16q69 0 107 -42.5t38 -115.5q-1 -11 -1 -20t-1 -16l-11 -9zM249 401q-54 0 -90.5 -35.5t-46.5 -99.5l239 7l2 12q0 57 -28 86.5
t-76 29.5z" />
    <glyph glyph-name="f" unicode="f" horiz-adv-x="305" 
d="M120 0l3 182l-1 214h-64l-4 5l4 30h64l-1 90q0 72 35.5 110t101.5 38q32 0 70 -9l-3 -40l-5 -3q-33 14 -65 14q-42 0 -64 -26.5t-22 -78.5l-1 -95h116l3 -4l-4 -31h-115l-2 -209l3 -187h-49z" />
    <glyph glyph-name="g" unicode="g" horiz-adv-x="486" 
d="M366 383q28 -35 28 -91q0 -69 -42.5 -109.5t-117.5 -40.5q-34 0 -67 11q-22 -16 -29.5 -26t-7.5 -20q0 -21 27 -30t85 -17q28 -5 51 -9.5t41 -9.5q36 -9 62 -30t26 -57q0 -28 -16 -52.5t-43 -43t-63 -29.5t-76 -11q-72 0 -113.5 32.5t-41.5 83.5q18 55 90 95v5
q-77 20 -77 71q13 28 57 57v3q-60 37 -60 122q0 70 42.5 110t117.5 40q50 0 88 -20q78 15 130 30l5 -4v-36q-45 -12 -95 -21zM349 292q0 52 -28.5 80.5t-82.5 28.5t-84.5 -29t-30.5 -83q0 -51 29 -80.5t83 -29.5t84 29.5t30 83.5zM235 21q-5 1 -12.5 2t-18.5 3
q-90 -51 -90 -98q0 -32 30.5 -53t84.5 -21q31 0 58 7.5t47 20.5t31.5 30t11.5 36q-2 19 -11.5 31t-27 19.5t-43.5 12.5t-60 10z" />
    <glyph glyph-name="h" unicode="h" horiz-adv-x="517" 
d="M376 0l4 299q0 46 -23.5 71t-66.5 25q-69 0 -139 -79l-1 -128l3 -188h-49l3 185l-3 477l50 5l-3 -302h6q69 66 133 73q66 0 101 -34t34 -95l-1 -122l1 -187h-49z" />
    <glyph glyph-name="i" unicode="i" horiz-adv-x="249" 
d="M100 0l2 185l-2 243l49 6l-4 -246l3 -188h-48zM157 584q0 -33 -33 -33q-31 0 -31 31q0 34 32 34t32 -32z" />
    <glyph glyph-name="j" unicode="j" horiz-adv-x="263" 
d="M157 584q0 -33 -33 -33q-31 0 -31 31q0 34 32 34t32 -32zM160 188l2 -173q0 -36 -5.5 -64.5t-18.5 -51.5t-34.5 -43t-52.5 -39l-20 22v7q24 16 40.5 32.5t26.5 36t14 43t4 53.5l1 174l-2 211h-84l-5 6l4 29h85l46 3l2 -2z" />
    <glyph glyph-name="k" unicode="k" horiz-adv-x="446" 
d="M104 0l3 185l-3 477l50 5l-4 -479l3 -188h-49zM424 3q-5 -2 -15.5 -4.5t-27.5 -6.5l-7 2q-60 64 -109 122t-91 111v6l151 164l26 35h59l-185 -199q45 -55 94 -110.5t105 -113.5v-6z" />
    <glyph glyph-name="l" unicode="l" horiz-adv-x="257" 
d="M104 0l3 185l-3 477l50 5l-4 -479l3 -188h-49z" />
    <glyph glyph-name="m" unicode="m" horiz-adv-x="783" 
d="M643 0l4 299q1 45 -22.5 70.5t-66.5 25.5q-68 0 -137 -75l-1 -133l1 -187h-50l4 299q0 46 -23 71t-65 25q-70 0 -140 -79v-128l2 -188h-49l2 185l-2 243l47 6v-69h6q69 66 133 73q100 0 127 -77h5q68 66 139 77q66 0 100.5 -34t34.5 -95l-1 -122l1 -187h-49z" />
    <glyph glyph-name="n" unicode="n" horiz-adv-x="514" 
d="M372 0l3 299q1 46 -22.5 71t-65.5 25q-73 0 -140 -79l-1 -128l3 -188h-49l2 185l-2 243l47 6v-69h5q69 66 134 73q66 0 101 -34t34 -95l-1 -122l2 -187h-50z" />
    <glyph glyph-name="o" unicode="o" horiz-adv-x="495" 
d="M432 221q0 -108 -50 -167.5t-140 -59.5q-85 0 -132.5 57t-47.5 160q0 108 49 168t140 60q85 0 133 -57.5t48 -160.5zM108 220q0 -91 35 -140t101 -49q67 0 104 46.5t37 134.5q0 91 -36 140.5t-100 49.5q-67 0 -104 -47t-37 -135z" />
    <glyph glyph-name="p" unicode="p" horiz-adv-x="507" 
d="M446 228q0 -112 -53.5 -173t-153.5 -61q-46 0 -92 9l1 -179h-48l2 361l-2 243l47 6v-63h5q58 57 129 66q81 0 123 -54.5t42 -154.5zM400 221q0 85 -31.5 129.5t-91.5 44.5q-69 0 -130 -72l-1 -135l1 -135q53 -22 97 -22q73 0 114.5 48.5t41.5 141.5z" />
    <glyph glyph-name="q" unicode="q" horiz-adv-x="507" 
d="M407 433l-3 -253l2 -356h-47l1 214v20h-5q-53 -53 -117 -63q-84 0 -130.5 56.5t-46.5 159.5q0 109 53.5 168.5t150.5 59.5q48 0 109 -16l28 14zM107 217q0 -85 35 -132t95 -47q67 0 123 69l1 67l-1 206q-54 21 -99 21q-72 0 -113 -47t-41 -137z" />
    <glyph glyph-name="r" unicode="r" horiz-adv-x="325" 
d="M100 0l2 185l-2 243l47 6v-97h5q54 96 125 96q6 0 12 -0.5t13 -1.5v-47l-7 -2q-17 3 -30 3q-64 0 -119 -115v-82l3 -188h-49z" />
    <glyph glyph-name="s" unicode="s" horiz-adv-x="376" 
d="M294 376l-8 -2q-46 26 -87 26q-39 0 -63.5 -22t-24.5 -53t23 -48.5t69 -38.5q19 -9 33.5 -16.5t25.5 -14.5q22 -13 37.5 -35t15.5 -53q0 -25 -10 -47.5t-29 -40t-46 -27.5t-60 -10q-63 0 -119 32l7 42l6 4q50 -41 109 -41q43 0 70 24t27 56q0 30 -22 47.5t-69 39.5
q-26 12 -46.5 23t-35 25t-23 31.5t-9.5 43.5q0 51 38 83.5t101 32.5q49 0 98 -20z" />
    <glyph glyph-name="t" unicode="t" horiz-adv-x="324" 
d="M294 55l-4 -34q-46 -24 -86 -26q-97 12 -97 118l2 86l-1 197h-59l-4 5l4 30h59v87l42 17l6 -5l-1 -99h137l4 -4l-4 -31h-137l-3 -278q0 -80 65 -80q35 0 72 22z" />
    <glyph glyph-name="u" unicode="u" horiz-adv-x="513" 
d="M432 38q15 0 35 9l7 -4l-6 -32q-23 -14 -48 -15q-54 1 -59 71h-6q-64 -64 -134 -72q-63 0 -96 34t-32 95l1 104l-2 200l49 6l-2 -300q-1 -46 20 -71t63 -25q68 0 134 71v319l48 6l-3 -349q0 -47 31 -47z" />
    <glyph glyph-name="v" unicode="v" horiz-adv-x="424" 
d="M178 0l-139 430l46 5l13 -51l107 -330h5l126 328l14 50h47l-165 -432h-54z" />
    <glyph glyph-name="w" unicode="w" horiz-adv-x="662" 
d="M440 0l-103 365h-6l-118 -365h-50l-124 430l45 5l12 -50l92 -328h5l105 326l14 49h50l10 -47l92 -328h5l106 326l14 49h45l-146 -432h-48z" />
    <glyph glyph-name="x" unicode="x" horiz-adv-x="432" 
d="M39 0l147 221l-142 208l55 6l18 -36l101 -148l97 146l21 35h49l-140 -212l148 -217l-53 -6l-21 39l-106 155l-106 -158l-19 -33h-49z" />
    <glyph glyph-name="y" unicode="y" horiz-adv-x="425" 
d="M28 430l49 5l13 -50l118 -324h6l120 320l14 51h48l-161 -423q-17 -45 -36 -77t-44 -53.5t-57 -35.5t-74 -24h-5q-15 15 -23 31l2 7q66 14 113 46t76 97z" />
    <glyph glyph-name="z" unicode="z" horiz-adv-x="416" 
d="M84 0l-35 -1l-1 31l260 366h-188l-58 -5l-4 6l5 37l65 -2h202l32 1l1 -31l-260 -365h198l62 4l3 -5l-5 -37l-72 1h-205z" />
    <glyph glyph-name="braceleft" unicode="{" horiz-adv-x="381" 
d="M145 135q0 20 -1.5 35t-6.5 26t-15 19t-27 15l-25 10l5 40l20 10q34 17 42 38.5t8 50.5v171q0 23 2.5 37.5t6.5 23.5q4 11 9 16q5 3 18 6q11 2 32 4.5t57 2.5h35l6 -8l-6 -32q-40 0 -64 -1t-38 -3q-16 -2 -23 -3v-218q0 -23 -3 -38.5t-11 -28.5t-21.5 -24t-34.5 -23
q22 -10 36 -20.5t21.5 -23.5t10 -30.5t2.5 -41.5v-223q7 -2 23 -4q14 -2 38 -2.5t64 -0.5l6 -8l-6 -32h-30q-34 0 -55.5 1.5t-33.5 3.5q-14 2 -21 5q-6 5 -10 16q-4 10 -7 28.5t-3 50.5v155z" />
    <glyph glyph-name="bar" unicode="|" horiz-adv-x="187" 
d="M80 -125l-10 5v750l39 10l-6 -8v-747z" />
    <glyph glyph-name="braceright" unicode="}" horiz-adv-x="381" 
d="M236 380q0 -20 1.5 -35t6.5 -26t15 -19t27 -15l25 -10l-5 -40l-20 -10q-34 -17 -42 -38.5t-8 -50.5v-171q0 -23 -3 -37.5t-6 -23.5q-4 -11 -9 -16q-5 -4 -18 -7q-11 -2 -32.5 -4t-56.5 -2h-35l-6 8l6 32q39 0 63.5 0.5t38.5 2.5q16 2 23 4v218q0 22 3 38t11 29t21.5 24
t34.5 23q-23 10 -36.5 20.5t-21 23.5t-10 30.5t-2.5 41.5v223q-7 1 -23 3q-14 2 -38.5 3t-63.5 1l-6 8l6 32h30q34 0 55.5 -1.5t33.5 -3.5q14 -3 21 -5q6 -5 10 -16q4 -10 7 -28.5t3 -50.5v-155z" />
    <glyph glyph-name="u00A0" unicode="&#xa0;" horiz-adv-x="150" 
 />
    <glyph glyph-name="brokenbar" unicode="&#xa6;" horiz-adv-x="187" 
d="M70 320v310l40 10v-315zM103 235v-350l-23 -10l-10 5v350z" />
    <glyph glyph-name="guillemotleft" unicode="&#xab;" horiz-adv-x="450" 
d="M110 245q0 -43 6 -79t19 -70t34 -68t51 -73l-20 -20h-10q-35 45 -58 85t-36.5 77.5t-19.5 73.5t-6 74q0 37 6 73.5t19.5 74t36.5 77.5t58 85h10l20 -20q-30 -39 -51 -73.5t-34 -68t-19 -69.5t-6 -79zM270 245q0 -43 6 -79t19 -70t34 -68t51 -73l-20 -20h-10
q-35 45 -58 85t-36.5 77.5t-19.5 73.5t-6 74q0 37 6 73.5t19.5 74t36.5 77.5t58 85h10l20 -20q-30 -39 -51 -73.5t-34 -68t-19 -69.5t-6 -79z" />
    <glyph glyph-name="logicalnot" unicode="&#xac;" horiz-adv-x="520" 
d="M415 248h-345v40h380v-213h-35v173z" />
    <glyph glyph-name="u00AD" unicode="&#xad;" horiz-adv-x="520" 
d="M70 170v45h380v-45h-380z" />
    <glyph glyph-name="degree" unicode="&#xb0;" horiz-adv-x="400" 
d="M70 445q0 27 10 50.5t28 41.5t41.5 28t50.5 10t50.5 -10t41.5 -28t28 -41.5t10 -50.5t-10 -50.5t-28 -41.5t-41.5 -28t-50.5 -10t-50.5 10t-41.5 28t-28 41.5t-10 50.5zM105 445q0 -40 27.5 -67.5t67.5 -27.5t67.5 27.5t27.5 67.5t-27.5 67.5t-67.5 27.5t-67.5 -27.5
t-27.5 -67.5z" />
    <glyph glyph-name="plusminus" unicode="&#xb1;" horiz-adv-x="520" 
d="M242 270h-172v40h172v170h36v-170h172v-40h-172v-170h-36v170zM70 0v40h380v-40h-380z" />
    <glyph glyph-name="paragraph" unicode="&#xb6;" horiz-adv-x="430" 
d="M325 0v570h-85v-570h-55v320q-39 0 -65 9t-41.5 27t-22 45t-6.5 64q0 39 8.5 71t31.5 55t65 36t110 13q40 0 68 -2.5t47 -7.5v-630h-55z" />
    <glyph glyph-name="periodcentered" unicode="&#xb7;" horiz-adv-x="208" 
d="M104 301q23 0 38.5 -16t15.5 -38q0 -23 -16 -39t-38 -16t-38 16t-16 39q0 22 16 38t38 16z" />
    <glyph glyph-name="guillemotright" unicode="&#xbb;" horiz-adv-x="450" 
d="M180 245q0 43 -6 79t-19 69.5t-34 68t-51 73.5l20 20h10q34 -45 57.5 -85t37 -77.5t19.5 -74t6 -73.5q0 -38 -6 -74t-19.5 -73.5t-37 -77.5t-57.5 -85h-10l-20 20q30 39 51 73t34 68t19 70t6 79zM340 245q0 43 -6 79t-19 69.5t-34 68t-51 73.5l20 20h10q34 -45 57.5 -85
t37 -77.5t19.5 -74t6 -73.5q0 -38 -6 -74t-19.5 -73.5t-37 -77.5t-57.5 -85h-10l-20 20q30 39 51 73t34 68t19 70t6 79z" />
    <glyph glyph-name="multiply" unicode="&#xd7;" horiz-adv-x="454" 
d="M202 190l-132 132l25 25l132 -132l132 132l25 -25l-132 -132l132 -132l-25 -25l-132 132l-132 -132l-25 25z" />
    <glyph glyph-name="divide" unicode="&#xf7;" horiz-adv-x="520" 
d="M260 0q-17 0 -28.5 11.5t-11.5 28.5t11.5 29t28.5 12t28.5 -12t11.5 -29t-11.5 -28.5t-28.5 -11.5zM220 340q0 17 11.5 29t28.5 12t28.5 -12t11.5 -29t-11.5 -28.5t-28.5 -11.5t-28.5 11.5t-11.5 28.5zM70 158v42h380v-42h-380z" />
    <glyph glyph-name="u0609" unicode="&#x609;" horiz-adv-x="600" 
d="M490 0q-17 0 -28.5 11.5t-11.5 28.5t11.5 29t28.5 12t28.5 -12t11.5 -29t-11.5 -28.5t-28.5 -11.5zM100 -45h-10l-20 20l290 600l38 -6l5 -14zM80 490q0 17 11.5 29t28.5 12t28.5 -12t11.5 -29t-11.5 -28.5t-28.5 -11.5t-28.5 11.5t-11.5 28.5zM300 40q0 17 11.5 29
t28.5 12t28.5 -12t11.5 -29t-11.5 -28.5t-28.5 -11.5t-28.5 11.5t-11.5 28.5z" />
    <glyph glyph-name="u060A" unicode="&#x60a;" horiz-adv-x="750" 
d="M640 0q-17 0 -28.5 11.5t-11.5 28.5t11.5 29t28.5 12t28.5 -12t11.5 -29t-11.5 -28.5t-28.5 -11.5zM100 -45h-10l-20 20l290 600l38 -6l5 -14zM80 490q0 17 11.5 29t28.5 12t28.5 -12t11.5 -29t-11.5 -28.5t-28.5 -11.5t-28.5 11.5t-11.5 28.5zM300 40q0 17 11.5 29
t28.5 12t28.5 -12t11.5 -29t-11.5 -28.5t-28.5 -11.5t-28.5 11.5t-11.5 28.5zM450 40q0 17 11.5 29t28.5 12t28.5 -12t11.5 -29t-11.5 -28.5t-28.5 -11.5t-28.5 11.5t-11.5 28.5z" />
    <glyph glyph-name="u060C" unicode="&#x60c;" horiz-adv-x="220" 
d="M110 0q-17 0 -28.5 11.5t-11.5 28.5q0 7 1.5 16t8.5 24t19.5 38.5t35.5 61.5h7l13 -20l-45 -80q15 0 27.5 -10.5t12.5 -29.5q0 -17 -11.5 -28.5t-28.5 -11.5z" />
    <glyph glyph-name="u060D" unicode="&#x60d;" horiz-adv-x="363" 
d="M285 250l8 -17l-193 -358h-10l-20 20l180 360z" />
    <glyph glyph-name="u061B" unicode="&#x61b;" horiz-adv-x="220" 
d="M110 0q-17 0 -28.5 11.5t-11.5 28.5t11.5 29t28.5 12t28.5 -12t11.5 -29t-11.5 -28.5t-28.5 -11.5zM142 330l13 -20l-45 -80q15 0 27.5 -10.5t12.5 -29.5q0 -17 -11.5 -28.5t-28.5 -11.5t-28.5 11.5t-11.5 28.5q0 7 1.5 16t8.5 24t19.5 38.5t35.5 61.5h7z" />
    <glyph glyph-name="u061F" unicode="&#x61f;" horiz-adv-x="412" 
d="M265 0q-17 0 -28.5 11.5t-11.5 28.5t11.5 29t28.5 12t28.5 -12t11.5 -29t-11.5 -28.5t-28.5 -11.5zM325 550q-34 19 -55.5 29.5t-29.5 10.5q-17 0 -39.5 -13.5t-43 -34t-35.5 -45.5t-17 -47q2 -11 8.5 -22t20.5 -23t37 -26.5t59 -33.5q20 -11 32 -18.5t18 -15t8 -15
t2 -16.5l-6 -100l-34 -10v110q-39 22 -72 41t-57 37t-37.5 38t-13.5 44q0 39 20.5 75.5t48.5 64t57.5 44t48.5 16.5q11 0 36 -13.5t59 -36.5l2 -12z" />
    <glyph glyph-name="u0640" unicode="&#x640;" horiz-adv-x="141" 
d="M0 0q-8 0 -14 7t-6 18q0 12 6 18.5t14 6.5h141v-50h-141z" />
    <glyph glyph-name="u064B" unicode="&#x64b;" 
d="M105 105l5 -30l-215 -85l-5 30zM105 215l5 -30l-215 -85l-5 30z" />
    <glyph glyph-name="u064C" unicode="&#x64c;" 
d="M-65 105q0 -9 -3.5 -29t-12.5 -52l111 56q4 2 7.5 4t7.5 4q-14 6 -27 16t-24 21t-17.5 24t-6.5 25q0 6 1.5 13t11 18.5t29.5 30.5t58 49q34 -23 52 -51.5t18 -58.5q0 -15 -4.5 -31t-16.5 -32.5t-33.5 -33.5t-55.5 -33l-115 -55l-25 20q4 13 7.5 27.5t6.5 27t4.5 22
t1.5 13.5q0 11 -10.5 28t-44.5 47l15 30q41 -34 53 -57.5t12 -42.5zM-5 185q4 -18 27 -40t54 -37q16 13 25 28t9 34q0 45 -45 75z" />
    <glyph glyph-name="u064D" unicode="&#x64d;" 
d="M105 -100l5 -30l-215 -85l-5 30zM105 10l5 -30l-215 -85l-5 30z" />
    <glyph glyph-name="u064E" unicode="&#x64e;" 
d="M105 105l5 -30l-215 -85l-5 30z" />
    <glyph glyph-name="u064F" unicode="&#x64f;" 
d="M0 75q4 2 7.5 4t7.5 4q-14 6 -27 16t-24 21t-17.5 24t-6.5 25q0 6 1.5 13t11 18.5t29.5 30.5t58 49q34 -23 52 -51.5t18 -58.5q0 -15 -4.5 -31t-16.5 -32.5t-33.5 -33.5t-55.5 -33l-105 -50l-5 30zM80 165q0 45 -45 75l-70 -60q4 -18 27 -40t54 -37q16 13 25 28t9 34z
" />
    <glyph glyph-name="u0650" unicode="&#x650;" 
d="M105 10l5 -30l-215 -85l-5 30z" />
    <glyph glyph-name="u0651" unicode="&#x651;" 
d="M90 0q-38 0 -59.5 7t-33.5 30q-12 -23 -31.5 -30t-45.5 -7q-30 0 -45 13t-15 32q0 23 3 48t7 65l30 -3l-10 -105q2 -4 6 -8q9 -7 29 -7q30 0 41.5 9.5t13.5 35.5l5 45h30v-45q0 -28 19.5 -36.5t62.5 -8.5q6 23 5 49t-12 71l27 15l8 -5q4 -19 6 -31.5t3 -21.5t1 -15v-12
q0 -19 -5 -39t-20 -46h-20z" />
    <glyph glyph-name="u0652" unicode="&#x652;" 
d="M-15 0q-41 0 -55.5 13t-14.5 32q0 9 4 26.5t10 38.5t13 42t13 38q64 -4 94.5 -34.5t30.5 -75.5q0 -15 -3.5 -31.5t-8.5 -27.5q-17 -12 -39.5 -16.5t-43.5 -4.5zM-10 35q23 0 36 3t24 7q4 53 -17 77t-63 28l-28 -100q8 -8 18.5 -11.5t29.5 -3.5z" />
    <glyph glyph-name="u0653" unicode="&#x653;" 
d="M-101 0l-14 14q11 22 17.5 36t11 21t9 9.5t12.5 2.5q23 -3 43.5 -4.5t43.5 -1.5t43.5 1.5t44.5 4.5l5 -7l-9 -25q-24 -3 -45.5 -4.5t-45.5 -1.5q-41 0 -83 6l-25 -51h-8z" />
    <glyph glyph-name="u0654" unicode="&#x654;" 
d="M52 200l-7 -25h-96q-9 -18 -9 -35.5t7.5 -32t22 -23.5t35.5 -9q15 0 37.5 4.5t52.5 15.5l5 -35l-195 -70l-5 30l67 27q-26 10 -41.5 32.5t-15.5 50.5q0 15 5 34.5t20 45.5h110z" />
    <glyph glyph-name="u0655" unicode="&#x655;" 
d="M52 -10l-7 -25h-96q-9 -18 -9 -35.5t7.5 -32t22 -23.5t35.5 -9q15 0 37.5 4.5t52.5 15.5l5 -35l-195 -70l-5 30l67 28q-26 9 -41.5 31.5t-15.5 50.5q0 15 5 34.5t20 45.5h110z" />
    <glyph glyph-name="u0656" unicode="&#x656;" 
d="M-15 30q13 -17 20 -32.5t10.5 -33.5t4 -39.5t0.5 -49.5v-55l-30 -10v60q0 24 -0.5 40.5t-3.5 30t-9 27t-17 32.5z" />
    <glyph glyph-name="u0660" unicode="&#x660;" horiz-adv-x="230" 
d="M70 250h90v-95h-90v95z" />
    <glyph glyph-name="u0661" unicode="&#x661;" horiz-adv-x="265" 
d="M180 -45h-10q-4 75 -7.5 134.5t-9 108.5t-13 91t-19 83t-28 82.5t-38.5 90.5l30 30q36 -69 57 -133.5t32.5 -135t16.5 -152t9 -184.5z" />
    <glyph glyph-name="u0662" unicode="&#x662;" horiz-adv-x="485" 
d="M190 -45h-10q-4 75 -8.5 134.5t-10.5 108.5t-15 91t-22 83t-30 82.5t-39 90.5l30 30l35 -80q19 -43 35.5 -69t33 -39.5t33.5 -17.5t38 -4q30 0 52.5 7.5t29.5 20.5q13 25 22.5 68t20.5 114l35 -5q-11 -75 -25 -130.5t-26 -77.5q-9 -17 -40 -29.5t-74 -12.5q-28 0 -51.5 8
t-40.5 27q12 -41 20.5 -83t13.5 -89t8 -99.5t5 -113.5z" />
    <glyph glyph-name="u0663" unicode="&#x663;" horiz-adv-x="670" 
d="M605 570q-11 -75 -25 -130.5t-26 -77.5q-9 -17 -40 -29.5t-74 -12.5q-28 0 -52.5 14.5t-38.5 53.5q-17 -39 -47 -53.5t-57 -14.5q-22 0 -43.5 7.5t-38.5 26.5q25 -80 34 -171.5t13 -212.5l-20 -15h-10q-4 75 -8.5 134.5t-10.5 108.5t-15 91t-22 83t-30 82.5t-39 90.5
l30 30l35 -80q19 -43 35 -69t31.5 -39.5t31 -17.5t32.5 -4q22 0 38.5 9.5t27.5 31.5t18 58.5t11 90.5h30v-95q0 -45 16 -70t54 -25q30 0 52.5 7.5t29.5 20.5q13 25 22.5 68t20.5 114l35 -5v0z" />
    <glyph glyph-name="u0664" unicode="&#x664;" horiz-adv-x="450" 
d="M370 -35h-110q-39 0 -72 5t-57 17t-37.5 31t-13.5 47q0 47 35 100.5t102 95.5q-41 4 -68 16t-43.5 27.5t-23.5 33.5t-7 33q0 41 19 78t47.5 65t62 44.5t61.5 16.5q7 0 13.5 -1.5t15 -5.5t20.5 -12t31 -21l-20 -35q-26 15 -41.5 20t-23.5 5q-21 0 -45 -10.5t-46 -30
t-39.5 -47t-24.5 -61.5q7 -23 26 -37.5t47 -23t63 -12t74 -3.5l-5 -40q-94 -36 -141 -89.5t-58 -111.5q12 -17 30 -26.5t38 -14.5t42 -6.5t42 -1.5h112l5 -10z" />
    <glyph glyph-name="u0665" unicode="&#x665;" horiz-adv-x="520" 
d="M160 435q97 -24 154.5 -57t87.5 -71t39 -79.5t9 -82.5q0 -42 -9.5 -76.5t-20.5 -53.5q-9 -16 -31.5 -26t-49.5 -15t-55 -7t-49 -2q-87 0 -126 21.5t-39 63.5q0 19 4 49t11 66t15 74.5t16.5 74t16 64.5t12.5 47zM170 380q-9 -39 -19 -86t-19 -93t-16 -87t-11 -69
q26 -19 64 -24.5t76 -5.5q16 0 37 1t41.5 3.5t39.5 6t32 9.5q8 26 11.5 51.5t3.5 48.5q0 43 -11.5 79.5t-39 67t-74 55t-115.5 43.5z" />
    <glyph glyph-name="u0666" unicode="&#x666;" horiz-adv-x="475" 
d="M330 345q0 -81 2.5 -133t11.5 -89.5t26 -67t45 -65.5l-25 -35h-10q-26 34 -43 67t-27 73.5t-13.5 91t-3.5 118.5v63.5t-0.5 63.5t-1.5 52.5t-3 30.5q-58 -4 -88.5 -4.5t-49.5 -0.5q-23 0 -37.5 1t-25 3.5t-18 6t-14.5 9.5l5 40l10 5q14 -7 31.5 -11t50.5 -4q29 0 50 1
t36.5 1.5t26.5 1.5t20 1q45 0 45 -45v-175z" />
    <glyph glyph-name="u0667" unicode="&#x667;" horiz-adv-x="585" 
d="M515 575l20 -30q-58 -69 -95.5 -139.5t-61 -142t-36.5 -143.5t-22 -145l-32 -20l-13 8q-14 77 -26.5 136t-26.5 106.5t-29.5 87.5t-36 78.5t-46.5 79t-60 89.5l30 35q39 -51 74 -107t63.5 -122t48.5 -144t29 -172q6 64 19 134t37.5 140.5t62 139.5t91.5 131h10z" />
    <glyph glyph-name="u0668" unicode="&#x668;" horiz-adv-x="585" 
d="M70 -45l-20 30q58 69 95.5 139.5t61 141.5t36.5 143.5t22 145.5l32 20l13 -8q14 -77 26.5 -136t26.5 -106.5t29.5 -87.5t36 -78.5t46.5 -79t60 -89.5l-30 -35q-39 51 -74 107t-63.5 122t-48.5 144t-29 172q-6 -64 -19 -134t-37.5 -140.5t-62 -139.5t-91.5 -131h-10z" />
    <glyph glyph-name="u0669" unicode="&#x669;" horiz-adv-x="515" 
d="M430 -45h-10q-26 34 -41.5 65.5t-24.5 66t-12.5 74t-6.5 89.5q-1 4 -1 8v8q-29 -10 -63 -15.5t-73 -5.5t-64.5 4t-40.5 12t-21.5 20t-6.5 29q0 15 5 47t12 69t14.5 73.5t13.5 60.5l15 15q61 0 104.5 -13t72 -41.5t43.5 -74t20 -111.5q5 -79 9.5 -129.5t13 -86.5t24 -64.5
t43.5 -64.5zM205 290q37 0 67.5 5t57.5 14q-6 63 -18.5 104.5t-35 66t-56 35t-80.5 10.5q-4 -13 -10 -42.5t-12 -63t-11 -64t-7 -45.5q15 -11 41 -15.5t64 -4.5z" />
    <glyph glyph-name="u066A" unicode="&#x66a;" horiz-adv-x="473" 
d="M350 0q-17 0 -28.5 11.5t-11.5 28.5t11.5 29t28.5 12t28.5 -12t11.5 -29t-11.5 -28.5t-28.5 -11.5zM100 -45h-10l-20 20l290 600l38 -6l5 -14zM80 490q0 17 11.5 29t28.5 12t28.5 -12t11.5 -29t-11.5 -28.5t-28.5 -11.5t-28.5 11.5t-11.5 28.5z" />
    <glyph glyph-name="u066B" unicode="&#x66b;" horiz-adv-x="363" 
d="M285 250l8 -17l-193 -358h-10l-20 20l180 360z" />
    <glyph glyph-name="u066C" unicode="&#x66c;" horiz-adv-x="220" 
d="M110 0q-15 0 -27.5 10.5t-12.5 29.5q0 17 11.5 28.5t28.5 11.5t28.5 -11.5t11.5 -28.5q0 -8 -1.5 -16.5t-8.5 -23.5t-20 -39t-35 -61h-7l-13 20l45 80v0z" />
    <glyph glyph-name="u066D" unicode="&#x66d;" horiz-adv-x="481" 
d="M218 0l3 55q0 8 1 20.5t2 27t2.5 28t2.5 24.5l-8 4q-17 -19 -42.5 -34.5t-39.5 -23.5l-46 -30l-23 39l49 25q7 4 19 9.5t25 11.5t25 12t21 11v10q-9 4 -22 10t-25.5 12t-24 12t-18.5 9l-49 25l23 40l46 -30q7 -5 17.5 -12t22 -15t22.5 -16.5t20 -14.5l8 4q-1 10 -2.5 24
t-2.5 28.5t-2 27t-1 20.5l-3 55h46l-3 -55q0 -8 -1 -20.5t-2.5 -27t-3 -28.5t-2.5 -24l8 -5q8 6 19 14t23 16l22.5 15t17.5 12l46 31l23 -40l-49 -25q-7 -4 -18.5 -9.5t-24.5 -11.5t-25.5 -12t-22.5 -10v-8q10 -4 23 -10t25.5 -12t24 -11.5t18.5 -8.5l49 -25l-23 -40l-46 30
q-14 8 -39.5 23.5t-42.5 33.5l-8 -5q1 -11 2.5 -24.5t3 -28t2.5 -27t1 -20.5l3 -55h-46z" />
    <glyph glyph-name="u0670" unicode="&#x670;" 
d="M-10 -10v60q0 24 -0.5 40.5t-3.5 30t-9 27t-17 32.5l25 30q13 -17 20 -32.5t10.5 -33.5t4 -39.5t0.5 -49.5v-55z" />
    <glyph glyph-name="u06AA" unicode="&#x6aa;" horiz-adv-x="885" 
d="M380 0h-61.5t-79.5 1t-85 3t-79 6l-15 40l10 10q79 -8 159.5 -9t165.5 -1h175q49 0 84.5 1t60 3t40.5 4.5t25 6.5q0 36 -9.5 66t-28.5 52t-48.5 34.5t-68.5 12.5h-310q-90 0 -132.5 15.5t-42.5 64.5q0 20 14.5 45t38 50.5t52.5 49.5t59 43t58 30.5t48 11.5q6 0 11 -1.5
t12.5 -5t18.5 -10.5t28 -18l-25 -40q-10 6 -20 10q-8 4 -16 7t-12 3q-23 0 -59 -17.5t-71.5 -44t-65.5 -57t-41 -56.5q8 -15 43 -22.5t92 -7.5h325q49 0 84 -16.5t57.5 -43t33 -58.5t10.5 -62q0 -23 -12.5 -47.5t-27.5 -32.5q-23 -11 -72.5 -15.5t-132.5 -4.5h-190z" />
    <glyph glyph-name="u06D2" unicode="&#x6d2;" horiz-adv-x="635" 
d="M260 0q-94 0 -142 35t-48 95q0 32 20 70.5t50 71.5t65 55.5t65 22.5q15 0 39.5 -15.5t50.5 -34.5l-25 -40q-26 19 -43.5 29.5t-26.5 10.5q-16 0 -39.5 -13t-47.5 -35.5t-45 -52.5t-31 -65q6 -19 17.5 -34.5t31 -26.5t49 -17t70.5 -6q11 0 45.5 0.5t78.5 1t91 2t83 4.5
l7 -12l-15 -38q-21 -1 -49 -2.5t-58.5 -2.5t-61 -1.5t-57 -1t-46.5 -0.5h-28z" />
    <glyph glyph-name="u06F0" unicode="&#x6f0;" horiz-adv-x="420" 
d="M202 304q-15 -6 -30 -16.5t-28.5 -24t-24 -28.5t-16.5 -30q6 -15 16.5 -30t24 -28.5t28.5 -24t30 -16.5h16q15 6 30 16.5t28.5 24t24 28.5t16.5 30q-6 15 -16.5 30t-24 28.5t-28.5 24t-30 16.5h-16zM210 65q-15 0 -36 12t-41.5 30.5t-38 41.5t-24.5 46v20q7 22 24.5 45.5
t38 42t41.5 30.5t36 12t36 -12t41.5 -30.5t37.5 -42t25 -45.5v-20q-8 -23 -25 -46t-37.5 -41.5t-41.5 -30.5t-36 -12z" />
    <glyph glyph-name="u06F1" unicode="&#x6f1;" horiz-adv-x="265" 
d="M180 -45h-10q-4 75 -7.5 134.5t-9 108.5t-13 91t-19 83t-28 82.5t-38.5 90.5l30 30q36 -69 57 -133.5t32.5 -135t16.5 -152t9 -184.5z" />
    <glyph glyph-name="u06F2" unicode="&#x6f2;" horiz-adv-x="485" 
d="M190 -45h-10q-4 75 -8.5 134.5t-10.5 108.5t-15 91t-22 83t-30 82.5t-39 90.5l30 30l35 -80q19 -43 35.5 -69t33 -39.5t33.5 -17.5t38 -4q30 0 52.5 7.5t29.5 20.5q13 25 22.5 68t20.5 114l35 -5q-11 -75 -25 -130.5t-26 -77.5q-9 -17 -40 -29.5t-74 -12.5q-28 0 -51.5 8
t-40.5 27q12 -41 20.5 -83t13.5 -89t8 -99.5t5 -113.5z" />
    <glyph glyph-name="u06F3" unicode="&#x6f3;" horiz-adv-x="670" 
d="M605 570q-11 -75 -25 -130.5t-26 -77.5q-9 -17 -40 -29.5t-74 -12.5q-28 0 -52.5 14.5t-38.5 53.5q-17 -39 -47 -53.5t-57 -14.5q-22 0 -43.5 7.5t-38.5 26.5q25 -80 34 -171.5t13 -212.5l-20 -15h-10q-4 75 -8.5 134.5t-10.5 108.5t-15 91t-22 83t-30 82.5t-39 90.5
l30 30l35 -80q19 -43 35 -69t31.5 -39.5t31 -17.5t32.5 -4q22 0 38.5 9.5t27.5 31.5t18 58.5t11 90.5h30v-95q0 -45 16 -70t54 -25q30 0 52.5 7.5t29.5 20.5q13 25 22.5 68t20.5 114l35 -5v0z" />
    <glyph glyph-name="u06F4" unicode="&#x6f4;" horiz-adv-x="525" 
d="M178 -45h-10q-4 73 -7.5 131t-8.5 106.5t-12 90t-18 81t-26 79.5t-36 87l30 29q9 -20 26.5 -63.5t35.5 -100.5q8 36 29 68.5t47.5 57.5t54.5 39.5t50 14.5q19 0 40 -14.5t55 -40.5l-20 -35q-34 23 -51.5 31.5t-28.5 8.5q-17 0 -39.5 -12.5t-44.5 -34t-40.5 -50.5
t-25.5 -63q15 -45 52 -65t94 -20q34 0 64 5.5t60 14.5l7 -7l-2 -33q-38 -15 -71.5 -20t-63.5 -5q-57 0 -91.5 16.5t-52.5 39.5q11 -68 15.5 -145t8.5 -176z" />
    <glyph glyph-name="u06F5" unicode="&#x6f5;" horiz-adv-x="580" 
d="M365 -35q-42 0 -64.5 17t-31.5 37q-8 -15 -17.5 -25.5t-22 -17t-30.5 -9t-44 -2.5q-28 0 -48 9.5t-32.5 25.5t-18.5 36.5t-6 43.5q0 33 7 68.5t25 80.5t48.5 102t77.5 131q-22 14 -46.5 30t-51.5 33l11 30l14 5q122 -75 194 -132t110 -105t49.5 -92.5t11.5 -95.5
q0 -19 -3.5 -38t-8.5 -36.5t-11 -32t-12 -23.5q-13 -22 -35.5 -31t-64.5 -9zM460 130q0 42 -9.5 78.5t-34.5 73t-68.5 75.5t-112.5 86q-51 -78 -81 -135t-45 -98t-19.5 -69.5t-4.5 -50.5q0 -45 22.5 -62.5t52.5 -17.5q19 0 39 2t31 8q4 9 8.5 22.5t9 28.5t9 30.5t8.5 28.5
h32q-1 -17 -1.5 -27t-0.5 -15.5v-8v-4.5q0 -35 23 -50t57 -15q15 0 28 1t32 9q14 26 19.5 55t5.5 55z" />
    <glyph glyph-name="u06F6" unicode="&#x6f6;" horiz-adv-x="475" 
d="M240 525q-13 0 -34 -11.5t-42 -30t-39 -43t-25 -50.5q15 -100 130 -100q30 0 74 10t101 40l10 -5v-40q-41 -24 -82.5 -53.5t-82 -69.5t-81 -93t-79.5 -124h-10l-10 25q10 25 30 59t46 70t57.5 71.5t65.5 64.5q-12 -2 -22.5 -3t-21.5 -1q-39 0 -68 12t-48.5 32t-29 44.5
t-9.5 50.5q0 37 19.5 72.5t47.5 62.5t57.5 43.5t50.5 16.5q15 0 37 -13t48 -32l-20 -35q-26 15 -42.5 22.5t-27.5 7.5z" />
    <glyph glyph-name="u06F7" unicode="&#x6f7;" horiz-adv-x="585" 
d="M515 575l20 -30q-58 -69 -95.5 -139.5t-61 -142t-36.5 -143.5t-22 -145l-32 -20l-13 8q-14 77 -26.5 136t-26.5 106.5t-29.5 87.5t-36 78.5t-46.5 79t-60 89.5l30 35q39 -51 74 -107t63.5 -122t48.5 -144t29 -172q6 64 19 134t37.5 140.5t62 139.5t91.5 131h10z" />
    <glyph glyph-name="u06F8" unicode="&#x6f8;" horiz-adv-x="585" 
d="M70 -45l-20 30q58 69 95.5 139.5t61 141.5t36.5 143.5t22 145.5l32 20l13 -8q14 -77 26.5 -136t26.5 -106.5t29.5 -87.5t36 -78.5t46.5 -79t60 -89.5l-30 -35q-39 51 -74 107t-63.5 122t-48.5 144t-29 172q-6 -64 -19 -134t-37.5 -140.5t-62 -139.5t-91.5 -131h-10z" />
    <glyph glyph-name="u06F9" unicode="&#x6f9;" horiz-adv-x="515" 
d="M430 -45h-10q-26 34 -41.5 65.5t-24.5 66t-12.5 74t-6.5 89.5q-1 4 -1 8v8q-29 -10 -63 -15.5t-73 -5.5t-64.5 4t-40.5 12t-21.5 20t-6.5 29q0 15 5 47t12 69t14.5 73.5t13.5 60.5l15 15q61 0 104.5 -13t72 -41.5t43.5 -74t20 -111.5q5 -79 9.5 -129.5t13 -86.5t24 -64.5
t43.5 -64.5zM205 290q37 0 67.5 5t57.5 14q-6 63 -18.5 104.5t-35 66t-56 35t-80.5 10.5q-4 -13 -10 -42.5t-12 -63t-11 -64t-7 -45.5q15 -11 41 -15.5t64 -4.5z" />
    <glyph glyph-name="u200C" unicode="&#x200c;" 
d="M-53 851l53 -54l52 53l16 -17l-52 -51l52 -53l-16 -16l-52 52l-53 -53l-16 17l52 53l-52 51z" />
    <glyph glyph-name="u200D" unicode="&#x200d;" 
d="M77 725v46h-153v-46h-23v68h199v-68h-23z" />
    <glyph glyph-name="u200E" unicode="&#x200e;" 
d="M10 833l16 18l69 -69l-69 -70l-16 17l41 42h-126v22h126z" />
    <glyph glyph-name="u200F" unicode="&#x200f;" 
d="M-10 729l-16 -16l-69 69l69 69l16 -17l-41 -41h127v-22h-126z" />
    <glyph glyph-name="u2010" unicode="&#x2010;" horiz-adv-x="680" 
d="M70 170v45h540v-45h-540z" />
    <glyph glyph-name="u2011" unicode="&#x2011;" horiz-adv-x="520" 
d="M70 170v45h380v-45h-380z" />
    <glyph glyph-name="figuredash" unicode="&#x2012;" horiz-adv-x="680" 
d="M70 170v45h540v-45h-540z" />
    <glyph glyph-name="emdash" unicode="&#x2014;" horiz-adv-x="1080" 
d="M70 170v45h940v-45h-940z" />
    <glyph glyph-name="u2015" unicode="&#x2015;" horiz-adv-x="1080" 
d="M70 170v45h940v-45h-940z" />
    <glyph glyph-name="quoteleft" unicode="&#x2018;" horiz-adv-x="220" 
d="M142 575l13 -20l-45 -80q15 0 27.5 -10.5t12.5 -29.5q0 -17 -11.5 -28.5t-28.5 -11.5t-28.5 11.5t-11.5 28.5q0 7 1.5 16t8.5 24t19.5 38.5t35.5 61.5h7z" />
    <glyph glyph-name="quoteright" unicode="&#x2019;" horiz-adv-x="220" 
d="M78 395l-13 20l45 80q-15 0 -27.5 10.5t-12.5 29.5q0 17 11.5 28.5t28.5 11.5t28.5 -11.5t11.5 -28.5q0 -8 -1.5 -16.5t-8.5 -23.5t-20 -39t-35 -61h-7z" />
    <glyph glyph-name="quotedblleft" unicode="&#x201c;" horiz-adv-x="330" 
d="M142 575l13 -20l-45 -80q15 0 27.5 -10.5t12.5 -29.5q0 -17 -11.5 -28.5t-28.5 -11.5t-28.5 11.5t-11.5 28.5q0 7 1.5 16t8.5 24t19.5 38.5t35.5 61.5h7zM252 575l13 -20l-45 -80q15 0 27.5 -10.5t12.5 -29.5q0 -17 -11.5 -28.5t-28.5 -11.5t-28.5 11.5t-11.5 28.5
q0 7 1.5 16t8.5 24t19.5 38.5t35.5 61.5h7z" />
    <glyph glyph-name="quotedblright" unicode="&#x201d;" horiz-adv-x="330" 
d="M78 395l-13 20l45 80q-15 0 -27.5 10.5t-12.5 29.5q0 17 11.5 28.5t28.5 11.5t28.5 -11.5t11.5 -28.5q0 -8 -1.5 -16.5t-8.5 -23.5t-20 -39t-35 -61h-7zM188 395l-13 20l45 80q-15 0 -27.5 10.5t-12.5 29.5q0 17 11.5 28.5t28.5 11.5t28.5 -11.5t11.5 -28.5
q0 -8 -1.5 -16.5t-8.5 -23.5t-20 -39t-35 -61h-7z" />
    <glyph glyph-name="bullet" unicode="&#x2022;" horiz-adv-x="429" 
d="M359 297v-290h-289v290h289z" />
    <glyph glyph-name="ellipsis" unicode="&#x2026;" horiz-adv-x="530" 
d="M420 0q-17 0 -28.5 11.5t-11.5 28.5t11.5 29t28.5 12t28.5 -12t11.5 -29t-11.5 -28.5t-28.5 -11.5zM70 40q0 17 11.5 29t28.5 12t28.5 -12t11.5 -29t-11.5 -28.5t-28.5 -11.5t-28.5 11.5t-11.5 28.5zM225 40q0 17 11.5 29t28.5 12t28.5 -12t11.5 -29t-11.5 -28.5
t-28.5 -11.5t-28.5 11.5t-11.5 28.5z" />
    <glyph glyph-name="u202A" unicode="&#x202a;" 
d="M-28 771h-57v22h57v-22zM1 793h50l-41 40l16 18l69 -69l-69 -70l-16 17l41 42h-50v22z" />
    <glyph glyph-name="u202B" unicode="&#x202b;" 
d="M28 793h57v-22h-57v22zM-1 771h-49l40 -42l-16 -16l-69 69l69 69l16 -17l-41 -41h50v-22z" />
    <glyph glyph-name="u202C" unicode="&#x202c;" 
d="M-52 772l-17 17l69 68l69 -68l-17 -17l-41 41v-102h-23v101z" />
    <glyph glyph-name="u202D" unicode="&#x202d;" 
d="M-37 833l16 18l69 -69l-69 -70l-16 17l41 42h-107v22h106zM28 833l16 18l69 -69l-69 -70l-16 17l53 53z" />
    <glyph glyph-name="u202E" unicode="&#x202e;" 
d="M38 754l-17 -17l-68 69l68 69l17 -17l-41 -41h107v-23h-107zM-28 754l-16 -17l-69 69l69 69l16 -17l-52 -52z" />
    <glyph glyph-name="u202F" unicode="&#x202f;" 
 />
    <glyph glyph-name="guilsinglleft" unicode="&#x2039;" horiz-adv-x="290" 
d="M110 245q0 -43 6 -79t19 -70t34 -68t51 -73l-20 -20h-10q-35 45 -58 85t-36.5 77.5t-19.5 73.5t-6 74q0 37 6 73.5t19.5 74t36.5 77.5t58 85h10l20 -20q-30 -39 -51 -73.5t-34 -68t-19 -69.5t-6 -79z" />
    <glyph glyph-name="guilsinglright" unicode="&#x203a;" horiz-adv-x="290" 
d="M180 245q0 43 -6 79t-19 69.5t-34 68t-51 73.5l20 20h10q34 -45 57.5 -85t37 -77.5t19.5 -74t6 -73.5q0 -38 -6 -74t-19.5 -73.5t-37 -77.5t-57.5 -85h-10l-20 20q30 39 51 73t34 68t19 70t6 79z" />
    <glyph glyph-name="u204B" unicode="&#x204b;" horiz-adv-x="430" 
d="M190 0v570h-85v-570h-55v630q19 5 47 7.5t68 2.5q67 0 109.5 -13t65.5 -36t31.5 -55t8.5 -71q0 -37 -6.5 -64t-22 -45t-41.5 -27t-65 -9v-320h-55z" />
    <glyph glyph-name="infinity" unicode="&#x221e;" horiz-adv-x="790" 
d="M685 175q0 45 -30.5 75t-79.5 30q-34 0 -63 -16.5t-51 -36.5q-26 -23 -46 -52q20 -30 46 -53q22 -20 51 -36t63 -16q49 0 79.5 30t30.5 75zM105 175q0 -45 30.5 -75t79.5 -30q34 0 63 16t51 36q26 23 46 53q-20 29 -46 52q-22 20 -51 36.5t-63 16.5q-49 0 -79.5 -30
t-30.5 -75zM720 175q0 -32 -12 -58.5t-31.5 -46t-45 -30t-51.5 -10.5q-49 0 -94.5 29t-90.5 86q-45 -57 -90.5 -86t-94.5 -29q-26 0 -51.5 10.5t-45 30t-31.5 46t-12 58.5t12 58.5t31.5 46t45 30t51.5 10.5q49 0 94.5 -29t90.5 -86q45 57 90.5 86t94.5 29q26 0 51.5 -10.5
t45 -30t31.5 -46t12 -58.5z" />
    <glyph glyph-name="approxequal" unicode="&#x2248;" horiz-adv-x="520" 
d="M165 270q-39 0 -88 -30l-7 5v30q26 19 50 27t50 8q24 0 47 -6.5t45.5 -14t45.5 -13.5t47 -6q38 0 88 30l7 -5v-30q-26 -19 -50 -27t-50 -8q-24 0 -47.5 6t-46.5 13.5t-46 14t-45 6.5zM165 115q-39 0 -88 -30l-7 5v30q26 19 50 27t50 8q24 0 47 -6.5t45.5 -14t45.5 -13.5
t47 -6q38 0 88 30l7 -5v-30q-26 -19 -50 -27t-50 -8q-24 0 -47.5 6t-46.5 13.5t-46 14t-45 6.5z" />
    <glyph glyph-name="notequal" unicode="&#x2260;" horiz-adv-x="520" 
d="M240 93l-50 -123h-10l-15 15l41 108h-136v40h152l44 115h-196v40h211l49 127l30 -5l5 -15l-44 -107h129v-40h-146l-47 -115h193v-40h-210z" />
    <glyph glyph-name="lessequal" unicode="&#x2264;" horiz-adv-x="520" 
d="M70 0v40h380v-40h-380zM402 455l10 -5l8 -30l-285 -138l285 -137l-8 -30l-10 -5l-312 155v35z" />
    <glyph glyph-name="greaterequal" unicode="&#x2265;" horiz-adv-x="520" 
d="M450 0v40h-380v-40h380zM430 300v-35l-312 -155l-10 5l-8 30l285 137l-285 138l8 30l10 5z" />
    <glyph glyph-name="H22073" unicode="&#x25a1;" horiz-adv-x="439" 
d="M105 152q0 -24 9 -44.5t24.5 -36t36 -24.5t44.5 -9t44.5 9t36 24.5t24.5 36t9 44.5t-9 44.5t-24.5 36t-36 24.5t-44.5 9t-44.5 -9t-36 -24.5t-24.5 -36t-9 -44.5zM220 0q-31 0 -58.5 12t-47.5 33t-32 48.5t-12 58.5t12 59t32 49t47.5 33t58.5 12t58 -12t47 -33t32 -49
t12 -59t-12 -58.5t-32 -48.5t-47 -33t-58 -12z" />
    <glyph glyph-name="H18543" unicode="&#x25aa;" horiz-adv-x="439" 
d="M220 0q-31 0 -58.5 12t-47.5 33t-32 48.5t-12 58.5t12 59t32 49t47.5 33t58.5 12t58 -12t47 -33t32 -49t12 -59t-12 -58.5t-32 -48.5t-47 -33t-58 -12z" />
    <glyph glyph-name="u25C2" unicode="&#x25c2;" horiz-adv-x="425" 
d="M70 257l266 151l19 -14v-301l-19 -14l-266 151v27z" />
    <glyph glyph-name="u25C3" unicode="&#x25c3;" horiz-adv-x="425" 
d="M115 243l205 -111v223zM70 257l266 151l19 -14v-301l-19 -14l-266 151v27z" />
    <glyph glyph-name="u25CC" unicode="&#x25cc;" horiz-adv-x="591" 
d="M279 0v52h33v-52h-33zM279 491h33v-52h-33v52zM444 370l-23 23l37 37l23 -23zM488 229v33h52v-33h-52zM480 84l-23 -24l-37 37l23 24zM147 120l24 -23l-37 -37l-24 23zM49 229v33h52v-33h-52zM110 408l23 23l37 -37l-23 -23z" />
    <glyph glyph-name="openbullet" unicode="&#x25e6;" horiz-adv-x="429" 
d="M359 297v-290h-289v290h289zM109 257v-210h210v210h-210z" />
    <glyph glyph-name="uFFFC" unicode="&#xfffc;" horiz-adv-x="1000" 
d="M266 548q36 0 58.5 -16.5t34.5 -42.5t16 -59t4 -67q0 -33 -4 -66t-16 -59.5t-34.5 -42.5t-58.5 -16q-37 0 -59.5 16t-35 42.5t-16.5 59.5t-4 66q0 34 4 67t16.5 59t35 42.5t59.5 16.5zM432 541h109q17 0 33.5 -4.5t29 -15t20.5 -28t8 -43.5q0 -25 -13.5 -46t-38.5 -29
q33 -8 48 -31.5t15 -56.5q0 -54 -29 -77.5t-86 -23.5h-96v355zM266 511q-23 0 -37 -11.5t-21.5 -31.5t-9.5 -47t-2 -58t2 -58t9.5 -47t21.5 -31.5t37 -11.5q22 0 35.5 11.5t21 31.5t9.5 47t2 58t-2 58t-9.5 47t-21 31.5t-35.5 11.5zM695 236q11 -12 21 -16t21 -4q30 0 38 18
t8 55v252h44v-254q0 -24 -3.5 -43.5t-13.5 -34t-27.5 -22.5t-44.5 -8q-25 0 -41.5 8t-26.5 21zM476 222h59q35 0 48.5 19.5t13.5 45.5q0 37 -20 52.5t-49 15.5h-52v-133zM476 388h50q7 0 17 1.5t19.5 7.5t16.5 17.5t7 32.5q0 28 -14.5 43t-46.5 15h-49v-117zM842 0v39h119
v119h39v-158h-158zM158 0h-158v158h39v-119h119v-39zM1000 562h-39v118h-119v39h158v-157zM158 680h-119v-118h-39v157h158v-39zM719 0h-157v39h157v-39zM39 281h-39v157h39v-157zM438 680h-157v39h157v-39zM719 680h-157v39h157v-39zM1000 281h-39v157h39v-157zM438 0h-157
v39h157v-39z" />
    <glyph glyph-name="kashidas.Narrow" horiz-adv-x="141" 
d="M0 0q-8 0 -14 7t-6 18q0 12 6 18.5t14 6.5h141v-50h-141z" />
    <glyph glyph-name="kashidas.Wide" horiz-adv-x="141" 
d="M0 0q-8 0 -14 7t-6 18q0 12 6 18.5t14 6.5h141v-50h-141z" />
    <glyph glyph-name="u06F0.tnum" horiz-adv-x="810" 
d="M220 7zM352 304q-15 -6 -30 -16.5t-28.5 -24t-24 -28.5t-16.5 -30q6 -15 16.5 -30t24 -28.5t28.5 -24t30 -16.5h16q15 6 30 16.5t28.5 24t24 28.5t16.5 30q-6 15 -16.5 30t-24 28.5t-28.5 24t-30 16.5h-16zM360 65q-15 0 -36 12t-41.5 30.5t-38 41.5t-24.5 46v20
q7 22 24.5 45.5t38 42t41.5 30.5t36 12t36 -12t41.5 -30.5t37.5 -42t25 -45.5v-20q-8 -23 -25 -46t-37.5 -41.5t-41.5 -30.5t-36 -12z" />
    <glyph glyph-name="u06F1.tnum" horiz-adv-x="810" 
d="M312 0zM442 -45h-10q-4 75 -7.5 134.5t-9 108.5t-13 91t-19 83t-28 82.5t-38.5 90.5l30 30q36 -69 57 -133.5t32.5 -135t16.5 -152t9 -184.5z" />
    <glyph glyph-name="u06F2.tnum" horiz-adv-x="810" 
d="M180 0zM320 -45h-10q-4 75 -8.5 134.5t-10.5 108.5t-15 91t-22 83t-30 82.5t-39 90.5l30 30l35 -80q19 -43 35.5 -69t33 -39.5t33.5 -17.5t38 -4q30 0 52.5 7.5t29.5 20.5q13 25 22.5 68t20.5 114l35 -5q-11 -75 -25 -130.5t-26 -77.5q-9 -17 -40 -29.5t-74 -12.5
q-28 0 -51.5 8t-40.5 27q12 -41 20.5 -83t13.5 -89t8 -99.5t5 -113.5z" />
    <glyph glyph-name="u06F3.tnum" horiz-adv-x="810" 
d="M103 0zM658 570q-11 -75 -25 -130.5t-26 -77.5q-9 -17 -40 -29.5t-74 -12.5q-28 0 -52.5 14.5t-38.5 53.5q-17 -39 -47 -53.5t-57 -14.5q-22 0 -43.5 7.5t-38.5 26.5q25 -80 34 -171.5t13 -212.5l-20 -15h-10q-4 75 -8.5 134.5t-10.5 108.5t-15 91t-22 83t-30 82.5
t-39 90.5l30 30l35 -80q19 -43 35 -69t31.5 -39.5t31 -17.5t32.5 -4q22 0 38.5 9.5t27.5 31.5t18 58.5t11 90.5h30v-95q0 -45 16 -70t54 -25q30 0 52.5 7.5t29.5 20.5q13 25 22.5 68t20.5 114l35 -5v0z" />
    <glyph glyph-name="u06F4.tnum" horiz-adv-x="810" 
d="M145 0zM273 -45h-10q-4 73 -7.5 131t-8.5 106.5t-12 90t-18 81t-26 79.5t-36 87l30 29q9 -20 26.5 -63.5t35.5 -100.5q8 36 29 68.5t47.5 57.5t54.5 39.5t50 14.5q19 0 40 -14.5t55 -40.5l-20 -35q-34 23 -51.5 31.5t-28.5 8.5q-17 0 -39.5 -12.5t-44.5 -34t-40.5 -50.5
t-25.5 -63q15 -45 52 -65t94 -20q34 0 64 5.5t60 14.5l7 -7l-2 -33q-38 -15 -71.5 -20t-63.5 -5q-57 0 -91.5 16.5t-52.5 39.5q11 -68 15.5 -145t8.5 -176z" />
    <glyph glyph-name="u06F5.tnum" horiz-adv-x="810" 
d="M100 0zM385 -35q-42 0 -64.5 17t-31.5 37q-8 -15 -17.5 -25.5t-22 -17t-30.5 -9t-44 -2.5q-28 0 -48 9.5t-32.5 25.5t-18.5 36.5t-6 43.5q0 33 7 68.5t25 80.5t48.5 102t77.5 131q-22 14 -46.5 30t-51.5 33l11 30l14 5q122 -75 194 -132t110 -105t49.5 -92.5t11.5 -95.5
q0 -19 -3.5 -38t-8.5 -36.5t-11 -32t-12 -23.5q-13 -22 -35.5 -31t-64.5 -9zM480 130q0 42 -9.5 78.5t-34.5 73t-68.5 75.5t-112.5 86q-51 -78 -81 -135t-45 -98t-19.5 -69.5t-4.5 -50.5q0 -45 22.5 -62.5t52.5 -17.5q19 0 39 2t31 8q4 9 8.5 22.5t9 28.5t9 30.5t8.5 28.5
h32q-1 -17 -1.5 -27t-0.5 -15.5v-8v-4.5q0 -35 23 -50t57 -15q15 0 28 1t32 9q14 26 19.5 55t5.5 55z" />
    <glyph glyph-name="u06F6.tnum" horiz-adv-x="810" 
d="M167 0zM350 525q-13 0 -34 -11.5t-42 -30t-39 -43t-25 -50.5q15 -100 130 -100q30 0 74 10t101 40l10 -5v-40q-41 -24 -82.5 -53.5t-82 -69.5t-81 -93t-79.5 -124h-10l-10 25q10 25 30 59t46 70t57.5 71.5t65.5 64.5q-12 -2 -22.5 -3t-21.5 -1q-39 0 -68 12t-48.5 32
t-29 44.5t-9.5 50.5q0 37 19.5 72.5t47.5 62.5t57.5 43.5t50.5 16.5q15 0 37 -13t48 -32l-20 -35q-26 15 -42.5 22.5t-27.5 7.5z" />
    <glyph glyph-name="u06F7.tnum" horiz-adv-x="810" 
d="M120 0zM595 575l20 -30q-58 -69 -95.5 -139.5t-61 -142t-36.5 -143.5t-22 -145l-32 -20l-13 8q-14 77 -26.5 136t-26.5 106.5t-29.5 87.5t-36 78.5t-46.5 79t-60 89.5l30 35q39 -51 74 -107t63.5 -122t48.5 -144t29 -172q6 64 19 134t37.5 140.5t62 139.5t91.5 131h10z
" />
    <glyph glyph-name="u06F8.tnum" horiz-adv-x="810" 
d="M120 0zM150 -45l-20 30q58 69 95.5 139.5t61 141.5t36.5 143.5t22 145.5l32 20l13 -8q14 -77 26.5 -136t26.5 -106.5t29.5 -87.5t36 -78.5t46.5 -79t60 -89.5l-30 -35q-39 51 -74 107t-63.5 122t-48.5 144t-29 172q-6 -64 -19 -134t-37.5 -140.5t-62 -139.5t-91.5 -131
h-10z" />
    <glyph glyph-name="u06F9.tnum" horiz-adv-x="810" 
d="M187 0zM547 -45h-10q-26 34 -41.5 65.5t-24.5 66t-12.5 74t-6.5 89.5q-1 4 -1 8v8q-29 -10 -63 -15.5t-73 -5.5t-64.5 4t-40.5 12t-21.5 20t-6.5 29q0 15 5 47t12 69t14.5 73.5t13.5 60.5l15 15q61 0 104.5 -13t72 -41.5t43.5 -74t20 -111.5q5 -79 9.5 -129.5t13 -86.5
t24 -64.5t43.5 -64.5zM322 290q37 0 67.5 5t57.5 14q-6 63 -18.5 104.5t-35 66t-56 35t-80.5 10.5q-4 -13 -10 -42.5t-12 -63t-11 -64t-7 -45.5q15 -11 41 -15.5t64 -4.5z" />
    <glyph glyph-name="u0660.tnum" horiz-adv-x="810" 
d="M220 7zM352 304q-15 -6 -30 -16.5t-28.5 -24t-24 -28.5t-16.5 -30q6 -15 16.5 -30t24 -28.5t28.5 -24t30 -16.5h16q15 6 30 16.5t28.5 24t24 28.5t16.5 30q-6 15 -16.5 30t-24 28.5t-28.5 24t-30 16.5h-16zM360 65q-15 0 -36 12t-41.5 30.5t-38 41.5t-24.5 46v20
q7 22 24.5 45.5t38 42t41.5 30.5t36 12t36 -12t41.5 -30.5t37.5 -42t25 -45.5v-20q-8 -23 -25 -46t-37.5 -41.5t-41.5 -30.5t-36 -12z" />
    <glyph glyph-name="u0661.tnum" horiz-adv-x="810" 
d="M312 0zM442 -45h-10q-4 75 -7.5 134.5t-9 108.5t-13 91t-19 83t-28 82.5t-38.5 90.5l30 30q36 -69 57 -133.5t32.5 -135t16.5 -152t9 -184.5z" />
    <glyph glyph-name="u0662.tnum" horiz-adv-x="810" 
d="M180 0zM320 -45h-10q-4 75 -8.5 134.5t-10.5 108.5t-15 91t-22 83t-30 82.5t-39 90.5l30 30l35 -80q19 -43 35.5 -69t33 -39.5t33.5 -17.5t38 -4q30 0 52.5 7.5t29.5 20.5q13 25 22.5 68t20.5 114l35 -5q-11 -75 -25 -130.5t-26 -77.5q-9 -17 -40 -29.5t-74 -12.5
q-28 0 -51.5 8t-40.5 27q12 -41 20.5 -83t13.5 -89t8 -99.5t5 -113.5z" />
    <glyph glyph-name="u0663.tnum" horiz-adv-x="810" 
d="M103 0zM658 570q-11 -75 -25 -130.5t-26 -77.5q-9 -17 -40 -29.5t-74 -12.5q-28 0 -52.5 14.5t-38.5 53.5q-17 -39 -47 -53.5t-57 -14.5q-22 0 -43.5 7.5t-38.5 26.5q25 -80 34 -171.5t13 -212.5l-20 -15h-10q-4 75 -8.5 134.5t-10.5 108.5t-15 91t-22 83t-30 82.5
t-39 90.5l30 30l35 -80q19 -43 35 -69t31.5 -39.5t31 -17.5t32.5 -4q22 0 38.5 9.5t27.5 31.5t18 58.5t11 90.5h30v-95q0 -45 16 -70t54 -25q30 0 52.5 7.5t29.5 20.5q13 25 22.5 68t20.5 114l35 -5v0z" />
    <glyph glyph-name="u0664.tnum" horiz-adv-x="810" 
d="M202 0zM492 -35h-110q-39 0 -72 5t-57 17t-37.5 31t-13.5 47q0 47 35 100.5t102 95.5q-41 4 -68 16t-43.5 27.5t-23.5 33.5t-7 33q0 41 19 78t47.5 65t62 44.5t61.5 16.5q7 0 13.5 -1.5t15 -5.5t20.5 -12t31 -21l-20 -35q-26 15 -41.5 20t-23.5 5q-21 0 -45 -10.5
t-46 -30t-39.5 -47t-24.5 -61.5q7 -23 26 -37.5t47 -23t63 -12t74 -3.5l-5 -40q-94 -36 -141 -89.5t-58 -111.5q12 -17 30 -26.5t38 -14.5t42 -6.5t42 -1.5h112l5 -10z" />
    <glyph glyph-name="u0665.tnum" horiz-adv-x="810" 
d="M162 0zM242 435q97 -24 154.5 -57t87.5 -71t39 -79.5t9 -82.5q0 -42 -9.5 -76.5t-20.5 -53.5q-9 -16 -31.5 -26t-49.5 -15t-55 -7t-49 -2q-87 0 -126 21.5t-39 63.5q0 19 4 49t11 66t15 74.5t16.5 74t16 64.5t12.5 47zM252 380q-9 -39 -19 -86t-19 -93t-16 -87t-11 -69
q26 -19 64 -24.5t76 -5.5q16 0 37 1t41.5 3.5t39.5 6t32 9.5q8 26 11.5 51.5t3.5 48.5q0 43 -11.5 79.5t-39 67t-74 55t-115.5 43.5z" />
    <glyph glyph-name="u0666.tnum" horiz-adv-x="810" 
d="M185 0zM465 345q0 -81 2.5 -133t11.5 -89.5t26 -67t45 -65.5l-25 -35h-10q-26 34 -43 67t-27 73.5t-13.5 91t-3.5 118.5v63.5t-0.5 63.5t-1.5 52.5t-3 30.5q-58 -4 -88.5 -4.5t-49.5 -0.5q-23 0 -37.5 1t-25 3.5t-18 6t-14.5 9.5l5 40l10 5q14 -7 31.5 -11t50.5 -4
q29 0 50 1t36.5 1.5t26.5 1.5t20 1q45 0 45 -45v-175z" />
    <glyph glyph-name="u0667.tnum" horiz-adv-x="810" 
d="M120 0zM595 575l20 -30q-58 -69 -95.5 -139.5t-61 -142t-36.5 -143.5t-22 -145l-32 -20l-13 8q-14 77 -26.5 136t-26.5 106.5t-29.5 87.5t-36 78.5t-46.5 79t-60 89.5l30 35q39 -51 74 -107t63.5 -122t48.5 -144t29 -172q6 64 19 134t37.5 140.5t62 139.5t91.5 131h10z
" />
    <glyph glyph-name="u0668.tnum" horiz-adv-x="810" 
d="M120 0zM150 -45l-20 30q58 69 95.5 139.5t61 141.5t36.5 143.5t22 145.5l32 20l13 -8q14 -77 26.5 -136t26.5 -106.5t29.5 -87.5t36 -78.5t46.5 -79t60 -89.5l-30 -35q-39 51 -74 107t-63.5 122t-48.5 144t-29 172q-6 -64 -19 -134t-37.5 -140.5t-62 -139.5t-91.5 -131
h-10z" />
    <glyph glyph-name="u0669.tnum" horiz-adv-x="810" 
d="M187 0zM547 -45h-10q-26 34 -41.5 65.5t-24.5 66t-12.5 74t-6.5 89.5q-1 4 -1 8v8q-29 -10 -63 -15.5t-73 -5.5t-64.5 4t-40.5 12t-21.5 20t-6.5 29q0 15 5 47t12 69t14.5 73.5t13.5 60.5l15 15q61 0 104.5 -13t72 -41.5t43.5 -74t20 -111.5q5 -79 9.5 -129.5t13 -86.5
t24 -64.5t43.5 -64.5zM322 290q37 0 67.5 5t57.5 14q-6 63 -18.5 104.5t-35 66t-56 35t-80.5 10.5q-4 -13 -10 -42.5t-12 -63t-11 -64t-7 -45.5q15 -11 41 -15.5t64 -4.5z" />
    <glyph glyph-name="uni064B0651" 
d="M0 0zM90 0q-38 0 -59.5 7t-33.5 30q-12 -23 -31.5 -30t-45.5 -7q-30 0 -45 13t-15 32q0 23 3 48t7 65l30 -3l-10 -105q2 -4 6 -8q9 -7 29 -7q30 0 41.5 9.5t13.5 35.5l5 45h30v-45q0 -28 19.5 -36.5t62.5 -8.5q6 23 5 49t-12 71l27 15l8 -5q4 -19 6 -31.5t3 -21.5t1 -15
v-12q0 -19 -5 -39t-20 -46h-20zM105 350l5 -30l-215 -85l-5 30zM105 460l5 -30l-215 -85l-5 30z" />
    <glyph glyph-name="u067E.medi.rlig" horiz-adv-x="345" 
d="M345 0q-20 0 -39 1t-35 6.5t-29.5 16t-23.5 28.5q-1 -3 -3 -7q-4 -8 -9.5 -12.5t-10.5 -7.5q-13 -8 -32 -12.5t-41.5 -7.5t-47.5 -4t-49 -1h-25q-8 0 -14 7t-6 18q0 12 6 18.5t14 6.5h25q55 0 99.5 3.5t73.5 16.5l-13 170l40 10l10 -120q4 -45 28.5 -62.5t81.5 -17.5v-50
zM265 -130l-30 -50l-65 40l30 50zM190 -290l-65 40l30 50l65 -40zM75 -90l65 -40l-30 -50l-65 40z" />
    <glyph glyph-name="u062A.medi.rlig" horiz-adv-x="345" 
d="M345 0q-20 0 -39 1t-35 6.5t-29.5 16t-23.5 28.5q-1 -3 -3 -7q-4 -8 -9.5 -12.5t-10.5 -7.5q-13 -8 -32 -12.5t-41.5 -7.5t-47.5 -4t-49 -1h-25q-8 0 -14 7t-6 18q0 12 6 18.5t14 6.5h25q55 0 99.5 3.5t73.5 16.5l-13 170l40 10l10 -120q4 -45 28.5 -62.5t81.5 -17.5v-50
zM100 440l65 -40l-30 -50l-65 40zM195 390l30 50l65 -40l-30 -50z" />
    <glyph glyph-name="u062B.medi.rlig" horiz-adv-x="345" 
d="M345 0q-20 0 -39 1t-35 6.5t-29.5 16t-23.5 28.5q-1 -3 -3 -7q-4 -8 -9.5 -12.5t-10.5 -7.5q-13 -8 -32 -12.5t-41.5 -7.5t-47.5 -4t-49 -1h-25q-8 0 -14 7t-6 18q0 12 6 18.5t14 6.5h25q55 0 99.5 3.5t73.5 16.5l-13 170l40 10l10 -120q4 -45 28.5 -62.5t81.5 -17.5v-50
zM195 390l30 50l65 -40l-30 -50zM145 550l65 -40l-30 -50l-65 40zM100 440l65 -40l-30 -50l-65 40z" />
    <glyph glyph-name="u06CC.medi.rlig" horiz-adv-x="345" 
d="M345 0q-20 0 -39 1t-35 6.5t-29.5 16t-23.5 28.5q-1 -3 -3 -7q-4 -8 -9.5 -12.5t-10.5 -7.5q-13 -8 -32 -12.5t-41.5 -7.5t-47.5 -4t-49 -1h-25q-8 0 -14 7t-6 18q0 12 6 18.5t14 6.5h25q55 0 99.5 3.5t73.5 16.5l-13 170l40 10l10 -120q4 -45 28.5 -62.5t81.5 -17.5v-50
zM75 -90l65 -40l-30 -50l-65 40zM265 -130l-30 -50l-65 40l30 50z" />
    <glyph glyph-name="u0626.medi.rlig" horiz-adv-x="345" 
d="M345 0q-20 0 -39 1t-35 6.5t-29.5 16t-23.5 28.5q-1 -3 -3 -7q-4 -8 -9.5 -12.5t-10.5 -7.5q-13 -8 -32 -12.5t-41.5 -7.5t-47.5 -4t-49 -1h-25q-8 0 -14 7t-6 18q0 12 6 18.5t14 6.5h25q55 0 99.5 3.5t73.5 16.5l-13 170l40 10l10 -120q4 -45 28.5 -62.5t81.5 -17.5v-50
zM232 550l-7 -25h-96q-9 -18 -9 -35.5t7.5 -32t22 -23.5t35.5 -9q15 0 37.5 4.5t52.5 15.5l5 -35l-195 -70l-5 30l66 27q-26 10 -41 32.5t-15 50.5q0 15 5 34.5t20 45.5h110z" />
    <glyph glyph-name="u0628.init.rlig" horiz-adv-x="385" 
d="M0 0q-8 0 -14 7t-6 18q0 12 6 18.5t14 6.5h125q24 0 49.5 1t49 4t43 7.5t31.5 12.5q0 13 -3 37t-9 52t-14 57.5t-17 53.5l30 25l15 -5q6 -13 12 -35t11 -47t8.5 -49.5t3.5 -43.5q0 -38 -15.5 -63t-34.5 -35q-20 -11 -63.5 -16.5t-96.5 -5.5h-125zM191 -130l-30 -50
l-65 40l30 50z" />
    <glyph glyph-name="u067E.init.rlig" horiz-adv-x="385" 
d="M0 0q-8 0 -14 7t-6 18q0 12 6 18.5t14 6.5h125q24 0 49.5 1t49 4t43 7.5t31.5 12.5q0 13 -3 37t-9 52t-14 57.5t-17 53.5l30 25l15 -5q6 -13 12 -35t11 -47t8.5 -49.5t3.5 -43.5q0 -38 -15.5 -63t-34.5 -35q-20 -11 -63.5 -16.5t-96.5 -5.5h-125zM256 -130l-30 -50
l-65 40l30 50zM181 -290l-65 40l30 50l65 -40zM66 -90l65 -40l-30 -50l-65 40z" />
    <glyph glyph-name="u062A.init.rlig" horiz-adv-x="385" 
d="M0 0q-8 0 -14 7t-6 18q0 12 6 18.5t14 6.5h125q24 0 49.5 1t49 4t43 7.5t31.5 12.5q0 13 -3 37t-9 52t-14 57.5t-17 53.5l30 25l15 -5q6 -13 12 -35t11 -47t8.5 -49.5t3.5 -43.5q0 -38 -15.5 -63t-34.5 -35q-20 -11 -63.5 -16.5t-96.5 -5.5h-125zM235 430l30 50l65 -40
l-30 -50zM140 480l65 -40l-30 -50l-65 40z" />
    <glyph glyph-name="u062B.init.rlig" horiz-adv-x="385" 
d="M0 0q-8 0 -14 7t-6 18q0 12 6 18.5t14 6.5h125q24 0 49.5 1t49 4t43 7.5t31.5 12.5q0 13 -3 37t-9 52t-14 57.5t-17 53.5l30 25l15 -5q6 -13 12 -35t11 -47t8.5 -49.5t3.5 -43.5q0 -38 -15.5 -63t-34.5 -35q-20 -11 -63.5 -16.5t-96.5 -5.5h-125zM235 430l30 50l65 -40
l-30 -50zM185 590l65 -40l-30 -50l-65 40zM140 480l65 -40l-30 -50l-65 40z" />
    <glyph glyph-name="u06CC.init.rlig" horiz-adv-x="385" 
d="M0 0q-8 0 -14 7t-6 18q0 12 6 18.5t14 6.5h125q24 0 49.5 1t49 4t43 7.5t31.5 12.5q0 13 -3 37t-9 52t-14 57.5t-17 53.5l30 25l15 -5q6 -13 12 -35t11 -47t8.5 -49.5t3.5 -43.5q0 -38 -15.5 -63t-34.5 -35q-20 -11 -63.5 -16.5t-96.5 -5.5h-125zM256 -130l-30 -50
l-65 40l30 50zM66 -90l65 -40l-30 -50l-65 40z" />
    <glyph glyph-name="u06A9.fina.salt" horiz-adv-x="900" 
d="M780 65q0 36 -9.5 66t-28.5 52t-48.5 34.5t-68.5 12.5h-310q-90 0 -132.5 15.5t-42.5 64.5q0 20 14.5 45t38 50.5t52.5 49.5t59 43t58 30.5t48 11.5q6 0 11 -1.5t12.5 -5t18.5 -10.5t28 -18l-25 -40q-10 6 -20 10q-8 4 -16 7t-12 3q-23 0 -59 -17.5t-71.5 -44t-65.5 -57
t-41 -56.5q8 -15 43 -22.5t92 -7.5h325q49 0 84 -16.5t57.5 -43t33 -58.5t10.5 -62q0 -8 -2 -16l-4 -16q17 -11 36.5 -14.5t49.5 -3.5h5v-50h-5q-26 0 -54 5.5t-51 27.5q-9 -11 -15 -13q-23 -11 -72.5 -15.5t-132.5 -4.5h-190h-61.5t-79.5 1t-85 3t-79 6l-15 40l10 10
q79 -8 159.5 -9t165.5 -1h175q49 0 84.5 1t60 3t40.5 4.5t25 6.5z" />
    <glyph glyph-name="u06A9.medi.salt" horiz-adv-x="830" 
d="M0 0q-8 0 -14 7t-6 18q0 12 6 18.5t14 6.5h500q49 0 84.5 1t60 3t40.5 4.5t25 6.5q0 36 -9.5 66t-28.5 52t-48.5 34.5t-68.5 12.5h-310q-90 0 -132.5 15.5t-42.5 64.5q0 20 14.5 45t38 50.5t52.5 49.5t59 43t58 30.5t48 11.5q6 0 11 -1.5t12.5 -5t18.5 -10.5t28 -18
l-25 -40q-10 6 -20 10q-8 4 -16 7t-12 3q-23 0 -59 -17.5t-71.5 -44t-65.5 -57t-41 -56.5q8 -15 43 -22.5t92 -7.5h325q49 0 84 -16.5t57.5 -43t33 -58.5t10.5 -62q0 -8 -2 -16l-4 -16q17 -11 36.5 -14.5t49.5 -3.5h5v-50h-5q-26 0 -54 5.5t-51 27.5q-9 -11 -15 -13
q-23 -11 -72.5 -15.5t-132.5 -4.5h-500z" />
    <glyph glyph-name="u06A9.init.salt" horiz-adv-x="815" 
d="M0 0q-8 0 -14 7t-6 18q0 12 6 18.5t14 6.5h500q49 0 84.5 1t60 3t40.5 4.5t25 6.5q0 36 -9.5 66t-28.5 52t-48.5 34.5t-68.5 12.5h-310q-90 0 -132.5 15.5t-42.5 64.5q0 20 14.5 45t38 50.5t52.5 49.5t59 43t58 30.5t48 11.5q6 0 11 -1.5t12.5 -5t18.5 -10.5t28 -18
l-25 -40q-10 6 -20 10q-8 4 -16 7t-12 3q-23 0 -59 -17.5t-71.5 -44t-65.5 -57t-41 -56.5q8 -15 43 -22.5t92 -7.5h325q49 0 84 -16.5t57.5 -43t33 -58.5t10.5 -62q0 -23 -12.5 -47.5t-27.5 -32.5q-23 -11 -72.5 -15.5t-132.5 -4.5h-500z" />
    <glyph glyph-name="u06AF.salt" horiz-adv-x="885" 
d="M380 0h-61.5t-79.5 1t-85 3t-79 6l-15 40l10 10q79 -8 159.5 -9t165.5 -1h175q49 0 84.5 1t60 3t40.5 4.5t25 6.5q0 36 -9.5 66t-28.5 52t-48.5 34.5t-68.5 12.5h-310q-90 0 -132.5 15.5t-42.5 64.5q0 20 14.5 45t38 50.5t52.5 49.5t59 43t58 30.5t48 11.5q6 0 11 -1.5
t12.5 -5t18.5 -10.5t28 -18l-25 -40q-10 6 -20 10q-8 4 -16 7t-12 3q-23 0 -59 -17.5t-71.5 -44t-65.5 -57t-41 -56.5q8 -15 43 -22.5t92 -7.5h325q49 0 84 -16.5t57.5 -43t33 -58.5t10.5 -62q0 -23 -12.5 -47.5t-27.5 -32.5q-23 -11 -72.5 -15.5t-132.5 -4.5h-190zM348 590
q-55 -34 -102.5 -71t-85.5 -79h-10l-7 29q32 38 80.5 79.5t101.5 71.5z" />
    <glyph glyph-name="u06AF.fina.salt" horiz-adv-x="900" 
d="M780 65q0 36 -9.5 66t-28.5 52t-48.5 34.5t-68.5 12.5h-310q-90 0 -132.5 15.5t-42.5 64.5q0 20 14.5 45t38 50.5t52.5 49.5t59 43t58 30.5t48 11.5q6 0 11 -1.5t12.5 -5t18.5 -10.5t28 -18l-25 -40q-10 6 -20 10q-8 4 -16 7t-12 3q-23 0 -59 -17.5t-71.5 -44t-65.5 -57
t-41 -56.5q8 -15 43 -22.5t92 -7.5h325q49 0 84 -16.5t57.5 -43t33 -58.5t10.5 -62q0 -8 -2 -16l-4 -16q17 -11 36.5 -14.5t49.5 -3.5h5v-50h-5q-26 0 -54 5.5t-51 27.5q-9 -11 -15 -13q-23 -11 -72.5 -15.5t-132.5 -4.5h-190h-61.5t-79.5 1t-85 3t-79 6l-15 40l10 10
q79 -8 159.5 -9t165.5 -1h175q49 0 84.5 1t60 3t40.5 4.5t25 6.5zM348 590q-55 -34 -102.5 -71t-85.5 -79h-10l-7 29q32 38 80.5 79.5t101.5 71.5z" />
    <glyph glyph-name="u06AF.medi.salt" horiz-adv-x="830" 
d="M0 0q-8 0 -14 7t-6 18q0 12 6 18.5t14 6.5h500q49 0 84.5 1t60 3t40.5 4.5t25 6.5q0 36 -9.5 66t-28.5 52t-48.5 34.5t-68.5 12.5h-310q-90 0 -132.5 15.5t-42.5 64.5q0 20 14.5 45t38 50.5t52.5 49.5t59 43t58 30.5t48 11.5q6 0 11 -1.5t12.5 -5t18.5 -10.5t28 -18
l-25 -40q-10 6 -20 10q-8 4 -16 7t-12 3q-23 0 -59 -17.5t-71.5 -44t-65.5 -57t-41 -56.5q8 -15 43 -22.5t92 -7.5h325q49 0 84 -16.5t57.5 -43t33 -58.5t10.5 -62q0 -8 -2 -16l-4 -16q17 -11 36.5 -14.5t49.5 -3.5h5v-50h-5q-26 0 -54 5.5t-51 27.5q-9 -11 -15 -13
q-23 -11 -72.5 -15.5t-132.5 -4.5h-500zM278 590q-55 -34 -102.5 -71t-85.5 -79h-10l-7 29q32 38 80.5 79.5t101.5 71.5z" />
    <glyph glyph-name="u06AF.init.salt" horiz-adv-x="815" 
d="M0 0q-8 0 -14 7t-6 18q0 12 6 18.5t14 6.5h500q49 0 84.5 1t60 3t40.5 4.5t25 6.5q0 36 -9.5 66t-28.5 52t-48.5 34.5t-68.5 12.5h-310q-90 0 -132.5 15.5t-42.5 64.5q0 20 14.5 45t38 50.5t52.5 49.5t59 43t58 30.5t48 11.5q6 0 11 -1.5t12.5 -5t18.5 -10.5t28 -18
l-25 -40q-10 6 -20 10q-8 4 -16 7t-12 3q-23 0 -59 -17.5t-71.5 -44t-65.5 -57t-41 -56.5q8 -15 43 -22.5t92 -7.5h325q49 0 84 -16.5t57.5 -43t33 -58.5t10.5 -62q0 -23 -12.5 -47.5t-27.5 -32.5q-23 -11 -72.5 -15.5t-132.5 -4.5h-500zM278 590q-55 -34 -102.5 -71
t-85.5 -79h-10l-7 29q32 38 80.5 79.5t101.5 71.5z" />
    <glyph glyph-name="u06A9.rlig" horiz-adv-x="690" 
d="M340 445q3 13 6.5 21t9.5 13t15 8.5t24 7.5l235 66l10 -10l-5 -35l-250 -71q77 -64 121.5 -115.5t67.5 -92.5t29.5 -71t6.5 -51q0 -34 -14.5 -56.5t-30.5 -30.5q-13 -7 -36.5 -13t-55 -10.5t-69.5 -7t-79 -2.5q-51 0 -97 4t-81 16t-56 34.5t-21 60.5q0 23 2 48.5t4 48.5
q3 26 6 53l38 -3q-4 -47 -7 -83.5t-5 -78.5q12 -13 34 -22.5t51 -15.5t62.5 -9t69.5 -3q34 0 71 2t70.5 5.5t62 9.5t46.5 15q1 33 -8.5 69t-36 78t-73.5 91.5t-122 109.5z" />
    <glyph glyph-name="u06A9.init.rlig" horiz-adv-x="395" 
d="M0 0q-8 0 -14 7t-6 18q0 12 6 18.5t14 6.5h30q36 0 73 1t70.5 4t61 8t45.5 14q1 33 -8.5 69t-36 78t-73.5 91.5t-122 109.5l5 20q3 13 6.5 21t9.5 13t15 8.5t24 7.5l235 66l10 -10l-5 -35l-250 -71q77 -64 121.5 -115.5t67.5 -92.5t29.5 -71t6.5 -51q0 -34 -14.5 -56.5
t-30.5 -30.5q-26 -14 -89.5 -21t-150.5 -7h-30z" />
    <glyph glyph-name="u06AF.rlig" horiz-adv-x="700" 
d="M325 45q34 0 71 2t70.5 5.5t62 9.5t46.5 15q1 33 -8 68t-33.5 74.5t-68 85t-110.5 100.5l5 20q3 13 6.5 21t9.5 13t15 8.5t24 7.5l225 62l10 -10l-5 -35l-240 -67q69 -58 110 -106t62 -86.5t27 -67.5t6 -50q0 -34 -14.5 -56.5t-30.5 -30.5q-13 -7 -36.5 -13t-55 -10.5
t-69.5 -7t-79 -2.5q-51 0 -97 4t-81 16t-56 34.5t-21 60.5q0 23 2 48.5t4 48.5q3 26 6 53l38 -3q-4 -47 -7 -83.5t-5 -78.5q12 -13 34 -22.5t51 -15.5t62.5 -9t69.5 -3zM395 570l235 65l-5 -40l-235 -65z" />
    <glyph glyph-name="u06AF.init.rlig" horiz-adv-x="405" 
d="M0 0q-8 0 -14 7t-6 18q0 12 6 18.5t14 6.5h30q36 0 73 1t70.5 4t61 8t45.5 14q1 33 -8 68t-33.5 74.5t-68 85t-110.5 100.5l5 20q3 13 6.5 21t9.5 13t15 8.5t24 7.5l225 62l10 -10l-5 -35l-240 -67q69 -58 110 -106t62 -86.5t27 -67.5t6 -50q0 -34 -14.5 -56.5
t-30.5 -30.5q-26 -14 -89.5 -21t-150.5 -7h-30zM100 570l235 65l-5 -40l-235 -65z" />
    <glyph glyph-name="uni067E0646.fina" horiz-adv-x="875" 
d="M875 0q-38 0 -63 7.5t-41.5 22.5t-26 37.5t-14.5 52.5l-14 80q-38 -11 -86.5 -21.5t-90.5 -15.5q14 -72 20 -125.5t6 -82.5q0 -26 -5 -50t-15 -40q-6 -9 -27 -26t-55 -33.5t-80.5 -28.5t-102.5 -12q-58 0 -98 11.5t-65 30.5t-36 44.5t-11 53.5q0 26 3 65t7 76q4 43 10 89
l38 -3q-4 -51 -8 -97q-3 -39 -6 -80t-4 -65q15 -30 56.5 -52.5t113.5 -22.5q36 0 72 6t69 17t60 25.5t44 31.5q0 35 -3 72.5t-8.5 74.5t-12 71.5t-13.5 64.5l20 32q24 2 53 6.5t58.5 10.5t57.5 13t51 15l20 -10l17 -105q9 -53 35 -71.5t75 -18.5v-50zM680 -90l65 -40
l-30 -50l-65 40zM300 230l-65 40l30 50l65 -40zM870 -130l-30 -50l-65 40l30 50zM795 -290l-65 40l30 50l65 -40z" />
    <glyph glyph-name="uni062806CC.fina" horiz-adv-x="825" 
d="M795 0q-45 0 -80 15.5t-62.5 40t-49 54t-39 56.5t-32.5 48.5t-30 30.5q-30 0 -62 -15.5t-59 -41.5t-46.5 -59t-25.5 -69q6 -6 16.5 -10t31 -7.5t53.5 -7t84 -7.5q28 -2 45 -7.5t26 -13.5t11.5 -18.5t2.5 -23.5q0 -34 -6 -61.5t-13 -38.5q-6 -9 -27 -26t-56.5 -33.5
t-85 -28.5t-111.5 -12q-58 0 -98 11.5t-65 30.5t-36 44.5t-11 53.5q0 26 3 65t7 76q4 43 10 89l38 -3q-4 -51 -8 -97q-3 -39 -6 -80t-4 -65q15 -30 56.5 -52.5t113.5 -22.5q79 0 144.5 20t102.5 49q6 22 8.5 40t0.5 41q-6 4 -20.5 6t-34 3t-42.5 2.5t-45 3.5q-36 4 -59 10
t-36.5 15t-19 22.5t-5.5 32.5q0 39 20 81t53 76t75 56t85 22q17 0 33 -18t33 -45.5t38 -59t48 -59t62.5 -45.5t83.5 -18h20v-50h-30zM780 -130l-30 -50l-65 40l30 50z" />
    <glyph glyph-name="pi" horiz-adv-x="825" 
d="M795 0q-45 0 -80 15.5t-62.5 40t-49 54t-39 56.5t-32.5 48.5t-30 30.5q-30 0 -62 -15.5t-59 -41.5t-46.5 -59t-25.5 -69q6 -6 16.5 -10t31 -7.5t53.5 -7t84 -7.5q28 -2 45 -7.5t26 -13.5t11.5 -18.5t2.5 -23.5q0 -34 -6 -61.5t-13 -38.5q-6 -9 -27 -26t-56.5 -33.5
t-85 -28.5t-111.5 -12q-58 0 -98 11.5t-65 30.5t-36 44.5t-11 53.5q0 26 3 65t7 76q4 43 10 89l38 -3q-4 -51 -8 -97q-3 -39 -6 -80t-4 -65q15 -30 56.5 -52.5t113.5 -22.5q79 0 144.5 20t102.5 49q6 22 8.5 40t0.5 41q-6 4 -20.5 6t-34 3t-42.5 2.5t-45 3.5q-36 4 -59 10
t-36.5 15t-19 22.5t-5.5 32.5q0 39 20 81t53 76t75 56t85 22q17 0 33 -18t33 -45.5t38 -59t48 -59t62.5 -45.5t83.5 -18h20v-50h-30zM655 -90l65 -40l-30 -50l-65 40zM770 -290l-65 40l30 50l65 -40zM845 -130l-30 -50l-65 40l30 50z" />
    <glyph glyph-name="uni06CC06CC.fina" horiz-adv-x="825" 
d="M795 0q-45 0 -80 15.5t-62.5 40t-49 54t-39 56.5t-32.5 48.5t-30 30.5q-30 0 -62 -15.5t-59 -41.5t-46.5 -59t-25.5 -69q6 -6 16.5 -10t31 -7.5t53.5 -7t84 -7.5q28 -2 45 -7.5t26 -13.5t11.5 -18.5t2.5 -23.5q0 -34 -6 -61.5t-13 -38.5q-6 -9 -27 -26t-56.5 -33.5
t-85 -28.5t-111.5 -12q-58 0 -98 11.5t-65 30.5t-36 44.5t-11 53.5q0 26 3 65t7 76q4 43 10 89l38 -3q-4 -51 -8 -97q-3 -39 -6 -80t-4 -65q15 -30 56.5 -52.5t113.5 -22.5q79 0 144.5 20t102.5 49q6 22 8.5 40t0.5 41q-6 4 -20.5 6t-34 3t-42.5 2.5t-45 3.5q-36 4 -59 10
t-36.5 15t-19 22.5t-5.5 32.5q0 39 20 81t53 76t75 56t85 22q17 0 33 -18t33 -45.5t38 -59t48 -59t62.5 -45.5t83.5 -18h20v-50h-30zM655 -90l65 -40l-30 -50l-65 40zM845 -130l-30 -50l-65 40l30 50z" />
    <glyph glyph-name="uni062806CC.fina.ss02" horiz-adv-x="520" 
d="M520 0q-53 0 -88.5 17.5t-61 43.5t-45 57t-40.5 57q-25 -6 -53.5 -23t-55 -42.5t-47 -58t-29.5 -67.5q6 -29 20.5 -52.5t41.5 -40.5t69 -26.5t104 -9.5q11 0 45.5 0.5t78.5 1t91 2t83 4.5l7 -12l-15 -38q-21 -1 -49 -2.5t-58.5 -2.5t-61 -1.5t-57 -1t-46.5 -0.5h-28
q-68 0 -116 12.5t-79 35t-45.5 53.5t-14.5 69q0 43 23 86.5t57.5 79t73.5 57.5t71 22q11 0 21.5 -12.5t23 -31.5t28.5 -41t37 -41t49 -31.5t66 -12.5v-50zM355 -310l-30 -50l-65 40l30 50z" />
    <glyph glyph-name="pi.ss02" horiz-adv-x="520" 
d="M520 0q-53 0 -88.5 17.5t-61 43.5t-45 57t-40.5 57q-25 -6 -53.5 -23t-55 -42.5t-47 -58t-29.5 -67.5q6 -29 20.5 -52.5t41.5 -40.5t69 -26.5t104 -9.5q11 0 45.5 0.5t78.5 1t91 2t83 4.5l7 -12l-15 -38q-21 -1 -49 -2.5t-58.5 -2.5t-61 -1.5t-57 -1t-46.5 -0.5h-28
q-68 0 -116 12.5t-79 35t-45.5 53.5t-14.5 69q0 43 23 86.5t57.5 79t73.5 57.5t71 22q11 0 21.5 -12.5t23 -31.5t28.5 -41t37 -41t49 -31.5t66 -12.5v-50zM230 -270l65 -40l-30 -50l-65 40zM345 -470l-65 40l30 50l65 -40zM420 -310l-30 -50l-65 40l30 50z" />
    <glyph glyph-name="tehalefmaksuraarab.fina.ss02" horiz-adv-x="520" 
d="M520 0q-53 0 -88.5 17.5t-61 43.5t-45 57t-40.5 57q-25 -6 -53.5 -23t-55 -42.5t-47 -58t-29.5 -67.5q6 -29 20.5 -52.5t41.5 -40.5t69 -26.5t104 -9.5q11 0 45.5 0.5t78.5 1t91 2t83 4.5l7 -12l-15 -38q-21 -1 -49 -2.5t-58.5 -2.5t-61 -1.5t-57 -1t-46.5 -0.5h-28
q-68 0 -116 12.5t-79 35t-45.5 53.5t-14.5 69q0 43 23 86.5t57.5 79t73.5 57.5t71 22q11 0 21.5 -12.5t23 -31.5t28.5 -41t37 -41t49 -31.5t66 -12.5v-50zM195 400l65 -40l-30 -50l-65 40zM290 350l30 50l65 -40l-30 -50z" />
    <glyph glyph-name="thehalefmaksuraarab.fina.ss02" horiz-adv-x="520" 
d="M520 0q-53 0 -88.5 17.5t-61 43.5t-45 57t-40.5 57q-25 -6 -53.5 -23t-55 -42.5t-47 -58t-29.5 -67.5q6 -29 20.5 -52.5t41.5 -40.5t69 -26.5t104 -9.5q11 0 45.5 0.5t78.5 1t91 2t83 4.5l7 -12l-15 -38q-21 -1 -49 -2.5t-58.5 -2.5t-61 -1.5t-57 -1t-46.5 -0.5h-28
q-68 0 -116 12.5t-79 35t-45.5 53.5t-14.5 69q0 43 23 86.5t57.5 79t73.5 57.5t71 22q11 0 21.5 -12.5t23 -31.5t28.5 -41t37 -41t49 -31.5t66 -12.5v-50zM195 400l65 -40l-30 -50l-65 40zM240 510l65 -40l-30 -50l-65 40zM290 350l30 50l65 -40l-30 -50z" />
    <glyph glyph-name="noonalefmaksuraarab.fina.ss02" horiz-adv-x="520" 
d="M520 0q-53 0 -88.5 17.5t-61 43.5t-45 57t-40.5 57q-25 -6 -53.5 -23t-55 -42.5t-47 -58t-29.5 -67.5q6 -29 20.5 -52.5t41.5 -40.5t69 -26.5t104 -9.5q11 0 45.5 0.5t78.5 1t91 2t83 4.5l7 -12l-15 -38q-21 -1 -49 -2.5t-58.5 -2.5t-61 -1.5t-57 -1t-46.5 -0.5h-28
q-68 0 -116 12.5t-79 35t-45.5 53.5t-14.5 69q0 43 23 86.5t57.5 79t73.5 57.5t71 22q11 0 21.5 -12.5t23 -31.5t28.5 -41t37 -41t49 -31.5t66 -12.5v-50zM225 350l30 50l65 -40l-30 -50z" />
    <glyph glyph-name="uni06CC06CC.fina.ss02" horiz-adv-x="520" 
d="M520 0q-53 0 -88.5 17.5t-61 43.5t-45 57t-40.5 57q-25 -6 -53.5 -23t-55 -42.5t-47 -58t-29.5 -67.5q6 -29 20.5 -52.5t41.5 -40.5t69 -26.5t104 -9.5q11 0 45.5 0.5t78.5 1t91 2t83 4.5l7 -12l-15 -38q-21 -1 -49 -2.5t-58.5 -2.5t-61 -1.5t-57 -1t-46.5 -0.5h-28
q-68 0 -116 12.5t-79 35t-45.5 53.5t-14.5 69q0 43 23 86.5t57.5 79t73.5 57.5t71 22q11 0 21.5 -12.5t23 -31.5t28.5 -41t37 -41t49 -31.5t66 -12.5v-50zM230 -270l65 -40l-30 -50l-65 40zM420 -310l-30 -50l-65 40l30 50z" />
    <glyph glyph-name="yehhamzaabovealefmaksuraarab.fina.ss02" horiz-adv-x="520" 
d="M520 0q-53 0 -88.5 17.5t-61 43.5t-45 57t-40.5 57q-25 -6 -53.5 -23t-55 -42.5t-47 -58t-29.5 -67.5q6 -29 20.5 -52.5t41.5 -40.5t69 -26.5t104 -9.5q11 0 45.5 0.5t78.5 1t91 2t83 4.5l7 -12l-15 -38q-21 -1 -49 -2.5t-58.5 -2.5t-61 -1.5t-57 -1t-46.5 -0.5h-28
q-68 0 -116 12.5t-79 35t-45.5 53.5t-14.5 69q0 43 23 86.5t57.5 79t73.5 57.5t71 22q11 0 21.5 -12.5t23 -31.5t28.5 -41t37 -41t49 -31.5t66 -12.5v-50zM327 510l-7 -25h-96q-9 -18 -9 -35.5t7.5 -32t22 -23.5t35.5 -9q15 0 37.5 4.5t52.5 15.5l5 -35l-195 -70l-5 30
l66 27q-26 10 -41 32.5t-15 50.5q0 15 5 34.5t20 45.5h110z" />
    <glyph glyph-name="uni067E0631.fina" horiz-adv-x="495" 
d="M495 0q-38 0 -63 7.5t-41.5 22.5t-26 37.5t-14.5 52.5l-14 80q-37 -11 -82.5 -21t-86.5 -15q9 -32 16 -70t7 -69q0 -58 -20.5 -105t-49.5 -80.5t-61 -51.5t-54 -18q-8 0 -25 2.5t-40 7.5v30q39 2 75 18.5t64.5 44t48 63t27.5 74.5q-2 19 -7 43t-11.5 47t-13.5 43.5
t-13 31.5l18 35q24 2 53 6.5t58.5 10.5t57.5 13t51 15l20 -10l17 -105q8 -53 34.5 -71.5t75.5 -18.5v-50zM460 -130l-30 -50l-65 40l30 50zM385 -290l-65 40l30 50l65 -40zM270 -90l65 -40l-30 -50l-65 40z" />
    <glyph glyph-name="uni067E0632.fina" horiz-adv-x="495" 
d="M495 0q-38 0 -63 7.5t-41.5 22.5t-26 37.5t-14.5 52.5l-14 80q-37 -11 -82.5 -21t-86.5 -15q9 -32 16 -70t7 -69q0 -58 -20.5 -105t-49.5 -80.5t-61 -51.5t-54 -18q-8 0 -25 2.5t-40 7.5v30q39 2 75 18.5t64.5 44t48 63t27.5 74.5q-2 19 -7 43t-11.5 47t-13.5 43.5
t-13 31.5l18 35q24 2 53 6.5t58.5 10.5t57.5 13t51 15l20 -10l17 -105q8 -53 34.5 -71.5t75.5 -18.5v-50zM270 -90l65 -40l-30 -50l-65 40zM135 310l-65 40l30 50l65 -40zM460 -130l-30 -50l-65 40l30 50zM385 -290l-65 40l30 50l65 -40z" />
    <glyph glyph-name="uni062B0632.fina" horiz-adv-x="495" 
d="M495 0q-38 0 -63 7.5t-41.5 22.5t-26 37.5t-14.5 52.5l-14 80q-37 -11 -82.5 -21t-86.5 -15q9 -32 16 -70t7 -69q0 -58 -20.5 -105t-49.5 -80.5t-61 -51.5t-54 -18q-8 0 -25 2.5t-40 7.5v30q39 2 75 18.5t64.5 44t48 63t27.5 74.5q-2 19 -7 43t-11.5 47t-13.5 43.5
t-13 31.5l18 35q24 2 53 6.5t58.5 10.5t57.5 13t51 15l20 -10l17 -105q8 -53 34.5 -71.5t75.5 -18.5v-50zM270 440l65 -40l-30 -50l-65 40zM135 310l-65 40l30 50l65 -40zM365 390l30 50l65 -40l-30 -50zM315 550l65 -40l-30 -50l-65 40z" />
    <glyph glyph-name="uni06280698.fina" horiz-adv-x="495" 
d="M495 0q-38 0 -63 7.5t-41.5 22.5t-26 37.5t-14.5 52.5l-14 80q-37 -11 -82.5 -21t-86.5 -15q9 -32 16 -70t7 -69q0 -58 -20.5 -105t-49.5 -80.5t-61 -51.5t-54 -18q-8 0 -25 2.5t-40 7.5v30q39 2 75 18.5t64.5 44t48 63t27.5 74.5q-2 19 -7 43t-11.5 47t-13.5 43.5
t-13 31.5l18 35q24 2 53 6.5t58.5 10.5t57.5 13t51 15l20 -10l17 -105q8 -53 34.5 -71.5t75.5 -18.5v-50zM395 -130l-30 -50l-65 40l30 50zM85 510l65 -40l-30 -50l-65 40zM200 310l-65 40l30 50l65 -40zM40 400l65 -40l-30 -50l-65 40z" />
    <glyph glyph-name="uni067E0698.fina" horiz-adv-x="495" 
d="M495 0q-38 0 -63 7.5t-41.5 22.5t-26 37.5t-14.5 52.5l-14 80q-37 -11 -82.5 -21t-86.5 -15q9 -32 16 -70t7 -69q0 -58 -20.5 -105t-49.5 -80.5t-61 -51.5t-54 -18q-8 0 -25 2.5t-40 7.5v30q39 2 75 18.5t64.5 44t48 63t27.5 74.5q-2 19 -7 43t-11.5 47t-13.5 43.5
t-13 31.5l18 35q24 2 53 6.5t58.5 10.5t57.5 13t51 15l20 -10l17 -105q8 -53 34.5 -71.5t75.5 -18.5v-50zM270 -90l65 -40l-30 -50l-65 40zM85 510l65 -40l-30 -50l-65 40zM460 -130l-30 -50l-65 40l30 50zM385 -290l-65 40l30 50l65 -40zM200 310l-65 40l30 50l65 -40z
M40 400l65 -40l-30 -50l-65 40z" />
    <glyph glyph-name="uni062A0698.fina" horiz-adv-x="495" 
d="M495 0q-38 0 -63 7.5t-41.5 22.5t-26 37.5t-14.5 52.5l-14 80q-37 -11 -82.5 -21t-86.5 -15q9 -32 16 -70t7 -69q0 -58 -20.5 -105t-49.5 -80.5t-61 -51.5t-54 -18q-8 0 -25 2.5t-40 7.5v30q39 2 75 18.5t64.5 44t48 63t27.5 74.5q-2 19 -7 43t-11.5 47t-13.5 43.5
t-13 31.5l18 35q24 2 53 6.5t58.5 10.5t57.5 13t51 15l20 -10l17 -105q8 -53 34.5 -71.5t75.5 -18.5v-50zM85 510l65 -40l-30 -50l-65 40zM415 390l30 50l65 -40l-30 -50zM320 440l65 -40l-30 -50l-65 40zM200 310l-65 40l30 50l65 -40zM40 400l65 -40l-30 -50l-65 40z" />
    <glyph glyph-name="uni062B0698.fina" horiz-adv-x="495" 
d="M495 0q-38 0 -63 7.5t-41.5 22.5t-26 37.5t-14.5 52.5l-14 80q-37 -11 -82.5 -21t-86.5 -15q9 -32 16 -70t7 -69q0 -58 -20.5 -105t-49.5 -80.5t-61 -51.5t-54 -18q-8 0 -25 2.5t-40 7.5v30q39 2 75 18.5t64.5 44t48 63t27.5 74.5q-2 19 -7 43t-11.5 47t-13.5 43.5
t-13 31.5l18 35q24 2 53 6.5t58.5 10.5t57.5 13t51 15l20 -10l17 -105q8 -53 34.5 -71.5t75.5 -18.5v-50zM320 440l65 -40l-30 -50l-65 40zM85 510l65 -40l-30 -50l-65 40zM415 390l30 50l65 -40l-30 -50zM365 550l65 -40l-30 -50l-65 40zM200 310l-65 40l30 50l65 -40z
M40 400l65 -40l-30 -50l-65 40z" />
    <glyph glyph-name="uni06460698.fina" horiz-adv-x="495" 
d="M495 0q-38 0 -63 7.5t-41.5 22.5t-26 37.5t-14.5 52.5l-14 80q-37 -11 -82.5 -21t-86.5 -15q9 -32 16 -70t7 -69q0 -58 -20.5 -105t-49.5 -80.5t-61 -51.5t-54 -18q-8 0 -25 2.5t-40 7.5v30q39 2 75 18.5t64.5 44t48 63t27.5 74.5q-2 19 -7 43t-11.5 47t-13.5 43.5
t-13 31.5l18 35q24 2 53 6.5t58.5 10.5t57.5 13t51 15l20 -10l17 -105q8 -53 34.5 -71.5t75.5 -18.5v-50zM350 390l30 50l65 -40l-30 -50zM85 510l65 -40l-30 -50l-65 40zM200 310l-65 40l30 50l65 -40zM40 400l65 -40l-30 -50l-65 40z" />
    <glyph glyph-name="uni06CC0698.fina" horiz-adv-x="495" 
d="M495 0q-38 0 -63 7.5t-41.5 22.5t-26 37.5t-14.5 52.5l-14 80q-37 -11 -82.5 -21t-86.5 -15q9 -32 16 -70t7 -69q0 -58 -20.5 -105t-49.5 -80.5t-61 -51.5t-54 -18q-8 0 -25 2.5t-40 7.5v30q39 2 75 18.5t64.5 44t48 63t27.5 74.5q-2 19 -7 43t-11.5 47t-13.5 43.5
t-13 31.5l18 35q24 2 53 6.5t58.5 10.5t57.5 13t51 15l20 -10l17 -105q8 -53 34.5 -71.5t75.5 -18.5v-50zM85 510l65 -40l-30 -50l-65 40zM460 -130l-30 -50l-65 40l30 50zM270 -90l65 -40l-30 -50l-65 40zM200 310l-65 40l30 50l65 -40zM40 400l65 -40l-30 -50l-65 40z" />
    <glyph glyph-name="uni06260698.fina" horiz-adv-x="495" 
d="M495 0q-38 0 -63 7.5t-41.5 22.5t-26 37.5t-14.5 52.5l-14 80q-37 -11 -82.5 -21t-86.5 -15q9 -32 16 -70t7 -69q0 -58 -20.5 -105t-49.5 -80.5t-61 -51.5t-54 -18q-8 0 -25 2.5t-40 7.5v30q39 2 75 18.5t64.5 44t48 63t27.5 74.5q-2 19 -7 43t-11.5 47t-13.5 43.5
t-13 31.5l18 35q24 2 53 6.5t58.5 10.5t57.5 13t51 15l20 -10l17 -105q8 -53 34.5 -71.5t75.5 -18.5v-50zM452 550l-7 -25h-96q-9 -18 -9 -35.5t7.5 -32t22 -23.5t35.5 -9q15 0 37.5 4.5t52.5 15.5l5 -35l-195 -70l-5 30l66 27q-26 10 -41 32.5t-15 50.5q0 15 5 34.5
t20 45.5h110zM85 510l65 -40l-30 -50l-65 40zM200 310l-65 40l30 50l65 -40zM40 400l65 -40l-30 -50l-65 40z" />
    <glyph glyph-name="uni063406CC.fina" horiz-adv-x="1215" 
d="M1215 0q-14 0 -29 2t-29 8.5t-26 18t-20 31.5q-11 -23 -26 -35q-11 -9 -35.5 -17t-54.5 -8q-12 0 -25 2t-26.5 7.5t-25 16t-20.5 28.5q-9 -18 -23 -29q-13 -10 -39.5 -17.5t-60.5 -7.5q-40 0 -71.5 15.5t-57 40t-45.5 54t-37 56.5t-32 48.5t-30 30.5q-30 0 -62 -15.5
t-59 -41.5t-46.5 -59t-25.5 -69q6 -6 16.5 -10t31 -7.5t53.5 -7t84 -7.5q28 -2 45 -7.5t26 -13.5t11.5 -18.5t2.5 -23.5q0 -34 -6 -61.5t-13 -38.5q-6 -9 -27 -26t-56.5 -33.5t-85 -28.5t-111.5 -12q-58 0 -98 11.5t-65 30.5t-36 44.5t-11 53.5q0 26 3 65t7 76q4 43 10 89
l38 -3q-4 -51 -8 -97q-3 -39 -6 -80t-4 -65q15 -30 56.5 -52.5t113.5 -22.5q79 0 144.5 20t102.5 49q6 22 8.5 40t0.5 41q-6 4 -20.5 6t-34 3t-42.5 2.5t-45 3.5q-36 4 -59 10t-36.5 15t-19 22.5t-5.5 32.5q0 39 20 81t53 76t75 56t85 22q17 0 33 -18t33 -45.5t36.5 -59
t44 -59t55.5 -45.5t71 -18q54 0 90 16l25 154h35q-2 -28 -3 -46t-1.5 -28.5t-0.5 -16v-9.5q0 -21 7 -34.5t17.5 -21.5t24 -11t26.5 -3q27 0 47 5.5t33 11.5q5 23 9 53.5t8 58.5l8 66h35q-2 -34 -2.5 -56t-1.5 -36.5t-1 -21.5v-11q0 -38 23 -54t57 -16v-50zM825 410l65 -40
l-30 -50l-65 40zM870 520l65 -40l-30 -50l-65 40zM920 360l30 50l65 -40l-30 -50z" />
    <glyph glyph-name="seenalefmaksuraarab.isol.ss02" horiz-adv-x="940" 
d="M725 0q-12 0 -25 2t-26.5 7.5t-25 16t-20.5 28.5q-9 -18 -23 -29q-13 -10 -39.5 -17.5t-60.5 -7.5q-47 0 -79.5 17.5t-57 43.5t-43.5 57t-40 57q-25 -6 -53.5 -23t-55 -42.5t-47 -58t-29.5 -67.5q6 -29 20.5 -52.5t41.5 -40.5t69 -26.5t104 -9.5q11 0 45.5 0.5t78.5 1
t91 2t83 4.5l7 -12l-15 -38q-21 -1 -49 -2.5t-58.5 -2.5t-61 -1.5t-57 -1t-46.5 -0.5h-28q-68 0 -116 12.5t-79 35t-45.5 53.5t-14.5 69q0 43 23 86.5t57.5 79t73.5 57.5t71 22q11 0 21.5 -12.5t23 -31.5t27.5 -41t35 -41t46.5 -31.5t61.5 -12.5q54 0 90 16l25 154h35
q-2 -28 -3 -46t-1.5 -28.5t-0.5 -16v-9.5q0 -21 7 -34.5t17.5 -21.5t24 -11t26.5 -3q30 0 58 7t45 18q0 17 -3 41t-7.5 51t-11.5 54.5t-16 53.5l30 25l15 -5q11 -34 20.5 -79.5t9.5 -90.5q0 -42 -15.5 -69t-34.5 -36t-40 -14.5t-55 -5.5z" />
    </font>
</defs>
</svg>
