<?xml version="1.0" standalone="no"?>
<!DOCTYPE svg PUBLIC "-//W3C//DTD SVG 1.1//EN" "http://www.w3.org/Graphics/SVG/1.1/DTD/svg11.dtd" >
<svg xmlns="http://www.w3.org/2000/svg" xmlns:xlink="http://www.w3.org/1999/xlink" version="1.1">
<metadata>
Created by FontForge 20170731 at Tue Apr 19 08:10:12 2022
 By Aleksey,,,
</metadata>
<defs>
<font id="RayFaNum-Medium" horiz-adv-x="0" >
  <font-face 
    font-family="Ray Fa-Num Medium"
    font-weight="500"
    font-stretch="normal"
    units-per-em="1000"
    panose-1="2 0 6 4 0 0 0 2 0 4"
    ascent="800"
    descent="-200"
    x-height="437"
    cap-height="608"
    bbox="-154 -504 1224 982"
    underline-thickness="50"
    underline-position="-150"
    unicode-range="U+0020-FFFC"
  />
<missing-glyph horiz-adv-x="605" 
d="M173 103h259v509h-259v-509zM80 715h445v-715h-445v715z" />
    <glyph glyph-name="u0671" unicode="&#x627;&#x64b;" horiz-adv-x="204" 
d="M72 301q-1 36 -2 63.5t-4.5 50.5t-9 42.5t-15.5 38.5l56 53q13 -23 20.5 -47t11 -51t4.5 -58.5t1 -68.5v-309l-41 -15l-13 6zM185 689l6 -40l-224 -89l-6 40zM185 800l6 -40l-224 -89l-6 40z" />
    <glyph glyph-name="uFB51" unicode="&#xfe8e;&#x64b;" horiz-adv-x="234" arabic-form="final" 
d="M221 0q-83 0 -114.5 37t-31.5 113v151q0 36 -1.5 63.5t-5.5 50.5t-10.5 42.5t-16.5 38.5l56 53q13 -23 20.5 -47t11 -51t4.5 -58.5t1 -68.5v-208q11 -18 35 -26.5t52 -8.5h13v-81h-13zM185 689l6 -40l-224 -89l-6 40zM185 800l6 -40l-224 -89l-6 40z" />
    <glyph glyph-name="uFDF2" unicode="&#x627;&#xfedf;&#xfee0;&#xfeea;" horiz-adv-x="1080" arabic-form="isolated" 
d="M181 40q-68 0 -94.5 28t-26.5 87q0 50 13 89q7 10 25.5 24.5t43.5 32t53 35t54 33.5l-12 72l46 23l15 -6l53 -346q11 -17 36 -24t48 -7q27 0 55 4.5t44 13.5l-8 347l61 17v-303q0 -48 25 -63.5t73 -15.5q32 0 61.5 4t45.5 13l-7 162q-1 33 -2 59t-4.5 48.5t-10 43.5
t-18.5 45l56 51q15 -29 23 -56t12 -54t4.5 -55t0.5 -59v-143q0 -23 -6 -43t-14.5 -36t-17.5 -26.5t-16 -13.5q-17 -12 -43.5 -16.5t-64.5 -4.5q-54 0 -83 15t-42 40q-17 -31 -51 -43t-73 -12q-22 0 -43.5 3t-40 13t-32.5 27.5t-22 46.5q-10 -26 -12 -28q-3 -5 -12.5 -9
t-24 -7t-32 -4.5t-35.5 -1.5zM957 6l-8 405q-1 35 -2.5 61.5t-4.5 49t-9 44t-15 45.5l57 48q12 -28 19 -55t10.5 -54t4.5 -55.5t1 -60.5v-419l-40 -15zM647 555q-42 0 -63.5 8.5t-32.5 31.5q-14 -24 -33 -32t-46 -8q-32 0 -47 15t-15 37q0 21 3.5 49t7.5 66l36 -3l-10 -106
q3 -3 7 -6q4 -2 10 -4t16 -2q28 0 39.5 9.5t13.5 35.5l5 44h35v-44q0 -26 18 -35.5t62 -9.5q4 23 2 49.5t-13 66.5l33 21l10 -4q7 -35 9 -52.5t2 -31.5q0 -22 -5.5 -44.5t-22.5 -50.5h-21zM184 117q23 0 51 2t55 8l-31 180q-23 -13 -47.5 -28t-45.5 -29t-36 -26t-21 -20
q-2 -24 -0.5 -40.5t9 -27t23.5 -15t43 -4.5zM534 982q14 -17 22 -32.5t12 -33t5 -39t1 -49.5v-64l-38 -15v68q0 22 -1.5 37.5t-5 29t-10.5 26.5t-18 30z" />
    <glyph glyph-name="uFEF5" unicode="&#xfedf;&#xfe82;" horiz-adv-x="480" arabic-form="isolated" 
d="M100 595q39 -87 62.5 -155t37 -122.5t18 -98t4.5 -81.5v-14.5t-1 -13.5q49 27 84.5 54t49.5 50l-6 197q-1 35 -2 61.5t-4 49t-8.5 44t-15.5 45.5l56 48q13 -28 20 -55t10.5 -54t4 -55.5t0.5 -60.5v-178q0 -48 -13 -76.5t-26 -43.5q-15 -18 -41 -39t-59.5 -43t-74.5 -42.5
t-86 -37.5l-41 49l3 14q26 11 52.5 23t52.5 26q-2 45 -9 91t-21.5 100t-39 119.5t-62.5 149.5zM-32 599l-31 27q13 27 21 44.5t13.5 27.5t11 13.5t13.5 3.5q12 0 34 -7.5t68 -7.5q27 0 59 4t64 14l5 -7l-14 -52q-32 -11 -64.5 -15t-59.5 -4q-26 0 -48 4t-39 9l-23 -54h-10z
" />
    <glyph glyph-name="uFEF6" unicode="&#xfee0;&#xfe82;" horiz-adv-x="497" arabic-form="final" 
d="M100 595q39 -87 62.5 -155t37 -122.5t18 -98t4.5 -81.5v-14.5t-1 -13.5q46 26 80.5 50.5t49.5 46.5v204q0 34 -1.5 60t-5 49t-9.5 45t-16 46l56 48q13 -28 20 -55t10.5 -54t4 -55.5t0.5 -60.5v-318q11 -18 35 -26.5t52 -8.5v-81q-77 0 -109 31t-37 95q-35 -42 -99 -82.5
t-142 -69.5l-41 49l3 14q26 11 52.5 23t52.5 26q-2 45 -9 91t-21.5 100t-39 119.5t-62.5 149.5zM-32 599l-31 27q13 27 21 44.5t13.5 27.5t11 13.5t13.5 3.5q12 0 34 -7.5t68 -7.5q27 0 59 4t64 14l5 -7l-14 -52q-32 -11 -64.5 -15t-59.5 -4q-26 0 -48 4t-39 9l-23 -54h-10z
" />
    <glyph glyph-name="uFEF7" unicode="&#xfedf;&#xfe84;" horiz-adv-x="480" arabic-form="isolated" 
d="M121 546q31 -74 50.5 -133t30.5 -108.5t15 -91t4 -79.5v-25q48 28 84 55t50 50l-6 197q-1 35 -2 61.5t-4 49t-8.5 44t-15.5 45.5l56 48q13 -28 20 -55t10.5 -54t4 -55.5t0.5 -60.5v-178q0 -48 -13 -76.5t-26 -43.5q-15 -18 -41 -39t-59.5 -43t-74.5 -42.5t-86 -37.5
l-41 49l3 14q26 11 52 23t52 26q-2 45 -8.5 89.5t-19 93.5t-33 104.5t-49.5 123.5zM154 790l-12 -38h-93q-6 -14 -6 -28q0 -25 17 -44t46 -19q14 0 37 5t54 16l5 -47l-206 -75l-6 40l63 29q-25 13 -38 36.5t-13 49.5q0 18 5.5 38.5t22.5 47.5h116z" />
    <glyph glyph-name="uFEF8" unicode="&#xfee0;&#xfe84;" horiz-adv-x="497" arabic-form="final" 
d="M121 546q31 -74 50.5 -133t30.5 -108.5t15 -91t4 -79.5v-25q45 26 80 51t50 47v204q0 34 -1.5 60t-5 49t-9.5 45t-16 46l56 48q13 -28 20 -55t10.5 -54t4 -55.5t0.5 -60.5v-318q11 -18 35 -26.5t52 -8.5v-81q-77 0 -109 31t-37 95q-35 -42 -99 -82.5t-142 -69.5l-41 49
l3 14q26 11 52 23t52 26q-2 45 -8.5 89.5t-19 93.5t-33 104.5t-49.5 123.5zM154 790l-12 -38h-93q-6 -14 -6 -28q0 -25 17 -44t46 -19q14 0 37 5t54 16l5 -47l-206 -75l-6 40l63 29q-25 13 -38 36.5t-13 49.5q0 18 5.5 38.5t22.5 47.5h116z" />
    <glyph glyph-name="uFEF9" unicode="&#xfedf;&#xfe88;" horiz-adv-x="480" arabic-form="isolated" 
d="M100 595q39 -87 62.5 -155t37 -122.5t18 -98t4.5 -81.5v-14.5t-1 -13.5q49 27 84.5 54t49.5 50l-6 197q-1 35 -2 61.5t-4 49t-8.5 44t-15.5 45.5l56 48q13 -28 20 -55t10.5 -54t4 -55.5t0.5 -60.5v-178q0 -48 -13 -76.5t-26 -43.5q-15 -18 -41 -39t-59.5 -43t-74.5 -42.5
t-86 -37.5l-41 49l3 14q26 11 52.5 23t52.5 26q-2 45 -9 91t-21.5 100t-39 119.5t-62.5 149.5zM202 -141l-12 -38h-93q-7 -16 -6 -32t9 -29t21.5 -21.5t32.5 -8.5q14 0 37 5t54 16l5 -47l-206 -75l-6 40l63 29q-25 14 -38 37t-13 49q0 18 5.5 38.5t22.5 47.5h116z" />
    <glyph glyph-name="uFEFA" unicode="&#xfee0;&#xfe88;" horiz-adv-x="497" arabic-form="final" 
d="M100 595q39 -87 62.5 -155t37 -122.5t18 -98t4.5 -81.5v-14.5t-1 -13.5q46 26 80.5 50.5t49.5 46.5v204q0 34 -1.5 60t-5 49t-9.5 45t-16 46l56 48q13 -28 20 -55t10.5 -54t4 -55.5t0.5 -60.5v-318q11 -18 35 -26.5t52 -8.5v-81q-77 0 -109 31t-37 95q-35 -42 -99 -82.5
t-142 -69.5l-41 49l3 14q26 11 52.5 23t52.5 26q-2 45 -9 91t-21.5 100t-39 119.5t-62.5 149.5zM202 -141l-12 -38h-93q-7 -16 -6 -32t9 -29t21.5 -21.5t32.5 -8.5q14 0 37 5t54 16l5 -47l-206 -75l-6 40l63 29q-25 14 -38 37t-13 49q0 18 5.5 38.5t22.5 47.5h116z" />
    <glyph glyph-name="uFEFB" unicode="&#xfedf;&#xfe8e;" horiz-adv-x="480" arabic-form="isolated" 
d="M100 595q39 -87 62.5 -155t37 -122.5t18 -98t4.5 -81.5v-14.5t-1 -13.5q49 27 84.5 54t49.5 50l-6 197q-1 35 -2 61.5t-4 49t-8.5 44t-15.5 45.5l56 48q13 -28 20 -55t10.5 -54t4 -55.5t0.5 -60.5v-178q0 -48 -13 -76.5t-26 -43.5q-15 -18 -41 -39t-59.5 -43t-74.5 -42.5
t-86 -37.5l-41 49l3 14q26 11 52.5 23t52.5 26q-2 45 -9 91t-21.5 100t-39 119.5t-62.5 149.5z" />
    <glyph glyph-name="uFEFC" unicode="&#xfee0;&#xfe8e;" horiz-adv-x="497" arabic-form="final" 
d="M100 595q39 -87 62.5 -155t37 -122.5t18 -98t4.5 -81.5v-14.5t-1 -13.5q46 26 80.5 50.5t49.5 46.5v204q0 34 -1.5 60t-5 49t-9.5 45t-16 46l56 48q13 -28 20 -55t10.5 -54t4 -55.5t0.5 -60.5v-318q11 -18 35 -26.5t52 -8.5v-81q-77 0 -109 31t-37 95q-35 -42 -99 -82.5
t-142 -69.5l-41 49l3 14q26 11 52.5 23t52.5 26q-2 45 -9 91t-21.5 100t-39 119.5t-62.5 149.5z" />
    <glyph glyph-name="uni06440671.isol" unicode="&#xfedf;&#xfb51;" horiz-adv-x="480" 
d="M121 546q33 -80 53.5 -143t31 -114.5t13.5 -95.5t2 -84q49 27 84.5 54.5t49.5 50.5l-6 197q-1 35 -2 61.5t-4 49t-9 44t-15 45.5l56 48q13 -28 20 -55t10.5 -54t4 -55.5t0.5 -60.5v-178q0 -48 -13 -76.5t-26 -43.5q-15 -18 -40.5 -39t-59.5 -43t-75 -42.5t-86 -37.5
l-41 49l3 14q26 11 52 23t52 26q-2 45 -8.5 89.5t-19 93.5t-33 104.5t-49.5 123.5zM204 800l6 -40l-224 -89l-6 40zM204 689l6 -40l-224 -89l-6 40z" />
    <glyph glyph-name="uni06440671.fina" unicode="&#xfee0;&#xfb51;" horiz-adv-x="497" 
d="M121 546q33 -80 53.5 -143t31 -114.5t13.5 -95.5t2 -84q46 26 80.5 51t49.5 47v204q0 34 -1.5 60t-5 49t-9.5 45t-16 46l56 48q13 -28 20 -55t10.5 -54t4 -55.5t0.5 -60.5v-318q11 -18 35 -26.5t52 -8.5v-81q-77 0 -109 31t-37 95q-35 -42 -99 -82.5t-142 -69.5l-41 49
l3 14q26 11 52 23t52 26q-2 45 -8.5 89.5t-19 93.5t-33 104.5t-49.5 123.5zM204 800l6 -40l-224 -89l-6 40zM204 689l6 -40l-224 -89l-6 40z" />
    <glyph glyph-name="uni06440644064F0647.isol" unicode="&#xfedf;&#x650;&#xfee0;&#x654;&#xfeea;" horiz-adv-x="906" 
d="M181 40q-68 0 -94.5 28t-26.5 87q0 50 13 89q7 10 25.5 24.5t43.5 32t53 35t54 33.5l-12 72l46 23l15 -6l53 -346q11 -17 36 -24t48 -7q27 0 55 4.5t44 13.5l-8 347l61 17v-303q0 -48 25 -63.5t73 -15.5q32 0 61.5 4t45.5 13l-7 162q-1 33 -2 59t-4.5 48.5t-10 43.5
t-18.5 45l56 51q15 -29 23 -56t12 -54t4.5 -55t0.5 -59v-143q0 -23 -6 -43t-14.5 -36t-17.5 -26.5t-16 -13.5q-17 -12 -43.5 -16.5t-64.5 -4.5q-54 0 -83 15t-42 40q-17 -31 -51 -43t-73 -12q-22 0 -43.5 3t-40 13t-32.5 27.5t-22 46.5q-10 -26 -12 -28q-3 -5 -12.5 -9
t-24 -7t-32 -4.5t-35.5 -1.5zM647 555q-42 0 -63.5 8.5t-32.5 31.5q-14 -24 -33 -32t-46 -8q-32 0 -47 15t-15 37q0 21 3.5 49t7.5 66l36 -3l-10 -106q3 -3 7 -6q4 -2 10 -4t16 -2q28 0 39.5 9.5t13.5 35.5l5 44h35v-44q0 -26 18 -35.5t62 -9.5q4 23 2 49.5t-13 66.5l33 21
l10 -4q7 -35 9 -52.5t2 -31.5q0 -22 -5.5 -44.5t-22.5 -50.5h-21zM184 117q23 0 51 2t55 8l-31 180q-23 -13 -47.5 -28t-45.5 -29t-36 -26t-21 -20q-2 -24 -0.5 -40.5t9 -27t23.5 -15t43 -4.5zM534 982q14 -17 22 -32.5t12 -33t5 -39t1 -49.5v-64l-38 -15v68q0 22 -1.5 37.5
t-5 29t-10.5 26.5t-18 30z" />
    <glyph glyph-name="u0621" unicode="&#x621;" horiz-adv-x="440" arabic-form="isolated" 
d="M378 137q-81 -35 -154.5 -70t-152.5 -77l-8 6l-3 48l97 51q-47 20 -67 54t-20 62q0 36 17 67.5t41 55.5t50.5 38t46.5 14q16 0 34 -11t52 -36l-32 -49q-24 14 -38 20t-21 6q-9 0 -24.5 -6.5t-31.5 -19t-30.5 -29.5t-21.5 -38q4 -17 15.5 -31.5t27 -25t34 -16.5t36.5 -6
q20 0 52.5 11.5t94.5 41.5l8 -5z" />
    <glyph glyph-name="u0622" unicode="&#x622;" horiz-adv-x="204" arabic-form="isolated" 
d="M80 6l-8 338q-1 36 -2 63.5t-4.5 50t-9 42t-15.5 39.5l56 52q13 -23 20.5 -47t11 -51t4.5 -58t1 -68v-352l-41 -15zM88 681q-26 0 -48 4t-39 9l-23 -54h-10l-31 27q13 27 21 44.5t13.5 27.5t11 13.5t13.5 3.5q12 0 34 -7.5t68 -7.5q27 0 59 4t64 14l5 -7l-14 -52
q-32 -11 -64.5 -15t-59.5 -4z" />
    <glyph glyph-name="u0623" unicode="&#x623;" horiz-adv-x="204" arabic-form="isolated" 
d="M80 6l-8 281q-1 36 -2.5 63.5t-4.5 50.5t-8.5 42.5t-15.5 38.5l56 53q13 -23 20.5 -47t11 -51t4.5 -58t1 -68v-296l-41 -15zM145 790l-12 -38h-93q-6 -14 -6 -28q0 -25 17 -44t46 -19q14 0 37 5t54 16l5 -47l-206 -75l-6 40l63 29q-25 13 -38 36.5t-13 49.5
q0 18 5.5 38.5t22.5 47.5h116z" />
    <glyph glyph-name="u0624" unicode="&#x624;" horiz-adv-x="410" arabic-form="isolated" 
d="M50 -179q43 5 83 20t73.5 38t59.5 53.5t41 66.5q0 5 -0.5 8.5t-0.5 8.5q-30 -11 -62 -17.5t-71 -6.5q-54 0 -85.5 21t-31.5 62q0 17 6.5 46.5t15.5 62.5t19 64.5t18 53.5l21 15q64 -4 106.5 -28.5t68 -63t36.5 -88.5t11 -105q0 -58 -22.5 -106.5t-55 -83t-68 -53.5
t-61.5 -19q-8 0 -32 3t-69 13v35zM189 70q31 0 60 4.5t49 9.5q-13 68 -48 110t-104 50q-3 -9 -9.5 -30t-13 -45t-12 -46t-7.5 -32q11 -13 33 -17t52 -4zM245 608l-12 -38h-93q-7 -16 -6 -32t9 -29t21.5 -21.5t32.5 -8.5q14 0 37 5t54 16l5 -47l-206 -75l-6 40l63 29
q-25 13 -38 36.5t-13 49.5q0 18 5.5 38.5t22.5 47.5h116z" />
    <glyph glyph-name="u0625" unicode="&#x625;" horiz-adv-x="204" arabic-form="isolated" 
d="M81 6l-8 405q-1 35 -2.5 61.5t-4.5 49t-9 44t-15 45.5l57 48q12 -28 19 -55t10.5 -54t4.5 -55.5t1 -60.5v-419l-40 -15zM166 -133l-12 -38h-93q-7 -16 -6 -32t9 -29t21.5 -21.5t32.5 -8.5q14 0 37 5t54 16l5 -47l-206 -75l-6 40l63 29q-25 14 -38 37t-13 49
q0 18 5.5 38.5t22.5 47.5h116z" />
    <glyph glyph-name="u0626" unicode="&#x626;" horiz-adv-x="642" arabic-form="isolated" 
d="M536 300q-23 14 -39.5 23.5t-24.5 9.5q-18 0 -42 -15t-47.5 -40.5t-42.5 -58.5t-25 -70q11 -11 52.5 -15.5t112.5 -8.5q33 -2 53 -7.5t30 -15t13 -23t3 -32.5q0 -21 -2 -42t-5.5 -39t-7.5 -31t-7 -19q-5 -9 -26 -26t-57 -33.5t-86 -29t-114 -12.5q-62 0 -103 12.5
t-66 33.5t-35 49t-10 59q0 24 2.5 62.5t6.5 75.5q4 43 10 90l53 -3q-3 -49 -7 -94q-3 -38 -5.5 -78.5t-3.5 -63.5q17 -26 55.5 -44t102.5 -18q75 0 139 18.5t103 45.5q3 20 3.5 41.5t-0.5 39.5q-6 2 -19.5 3.5t-31.5 2.5t-39 2l-42 2q-68 4 -95 23t-27 61q0 51 22 100t54 88
t68.5 63t66.5 24q17 0 41.5 -16.5t54.5 -42.5zM250 550l-12 -38h-93q-7 -16 -6 -32t9 -29t21.5 -21.5t32.5 -8.5q14 0 37 5t54 16l5 -47l-206 -75l-6 40l63 29q-25 13 -38 36.5t-13 49.5q0 18 5.5 38.5t22.5 47.5h116z" />
    <glyph glyph-name="u0627" unicode="&#x627;" horiz-adv-x="204" arabic-form="isolated" 
d="M81 6l-8 405q-1 35 -2.5 61.5t-4.5 49t-9 44t-15 45.5l57 48q12 -28 19 -55t10.5 -54t4.5 -55.5t1 -60.5v-419l-40 -15z" />
    <glyph glyph-name="u0628" unicode="&#x628;" horiz-adv-x="716" arabic-form="isolated" 
d="M321 76q38 0 79 2t79 6.5t70.5 12t52.5 18.5q-1 18 -5 39.5t-10 45.5t-14 48t-16 46l51 38l16 -6q13 -38 22.5 -81t9.5 -84q0 -25 -6.5 -46.5t-16 -38t-21.5 -28t-23 -17.5q-27 -14 -95 -25t-173 -11q-53 0 -100.5 4t-83 17.5t-56.5 38.5t-21 68q0 23 2 50.5t4 51.5l6 56
l53 -3q-4 -51 -6.5 -88t-4.5 -72q24 -22 80.5 -32t126.5 -10zM402 -144l-40 -62l-76 47l38 64z" />
    <glyph glyph-name="u0629" unicode="&#x629;" horiz-adv-x="421" arabic-form="isolated" 
d="M189 0q-129 0 -129 89q0 40 20 111.5t49 158.5l16 11q66 -21 108 -46t66 -54t33 -61.5t9 -68.5q0 -26 -6.5 -51.5t-17.5 -42.5q-18 -26 -59 -36t-89 -10zM155 288q-5 -13 -12 -35.5t-14 -49t-12.5 -52t-7.5 -44.5q8 -13 35.5 -19.5t53.5 -6.5q27 0 55.5 3.5t52.5 13.5
q0 34 -6 62t-22.5 51t-46 42t-76.5 35zM203 487l40 63l76 -47l-38 -64zM113 550l78 -48l-40 -63l-77 47z" />
    <glyph glyph-name="u062A" unicode="&#x62a;" horiz-adv-x="716" arabic-form="isolated" 
d="M321 76q38 0 79 2t79 6.5t70.5 12t52.5 18.5q-1 18 -5 39.5t-10 45.5t-14 48t-16 46l51 38l16 -6q13 -38 22.5 -81t9.5 -84q0 -25 -6.5 -46.5t-16 -38t-21.5 -28t-23 -17.5q-27 -14 -95 -25t-173 -11q-53 0 -100.5 4t-83 17.5t-56.5 38.5t-21 68q0 23 2 50.5t4 51.5l6 56
l53 -3q-4 -51 -6.5 -88t-4.5 -72q24 -22 80.5 -32t126.5 -10zM259 453l78 -48l-40 -63l-77 47zM349 390l40 63l76 -47l-38 -64z" />
    <glyph glyph-name="u062B" unicode="&#x62b;" horiz-adv-x="716" arabic-form="isolated" 
d="M321 76q38 0 79 2t79 6.5t70.5 12t52.5 18.5q-1 18 -5 39.5t-10 45.5t-14 48t-16 46l51 38l16 -6q13 -38 22.5 -81t9.5 -84q0 -25 -6.5 -46.5t-16 -38t-21.5 -28t-23 -17.5q-27 -14 -95 -25t-173 -11q-53 0 -100.5 4t-83 17.5t-56.5 38.5t-21 68q0 23 2 50.5t4 51.5l6 56
l53 -3q-4 -51 -6.5 -88t-4.5 -72q24 -22 80.5 -32t126.5 -10zM305 576l77 -48l-39 -64l-78 49zM259 453l78 -48l-40 -63l-77 47zM349 390l40 63l76 -47l-38 -64z" />
    <glyph glyph-name="u062C" unicode="&#x62c;" horiz-adv-x="584" arabic-form="isolated" 
d="M511 -216l-17 -59q-60 -8 -112 -9t-80 -1q-56 0 -100.5 11t-75.5 36.5t-48 67t-17 102.5v14q0 40 20 84.5t60.5 87.5t103 82.5t147.5 70.5q-80 29 -137.5 45.5t-77.5 16.5q-17 0 -35 -7t-28 -16v-52.5t1 -49.5l-12 -11l-36 18q-2 15 -2 28.5v30.5q0 44 3 61t8 22
q2 2 12 9.5t24.5 15.5t32.5 14.5t38 6.5q19 0 53 -8.5t78 -22.5t96.5 -32.5t108.5 -39.5l5 -16l-24 -53q-37 0 -71.5 -9.5t-72.5 -26.5q-97 -43 -160 -100t-85 -130v-9q0 -42 10 -74t33 -53t61 -31.5t95 -10.5h37.5t42.5 1t50 3t61 5zM397 -17l-40 -62l-76 47l38 64z" />
    <glyph glyph-name="u062D" unicode="&#x62d;" horiz-adv-x="584" arabic-form="isolated" 
d="M511 -216l-17 -59q-60 -8 -112 -9t-80 -1q-56 0 -100.5 11t-75.5 36.5t-48 67t-17 102.5v14q0 40 20 84.5t60.5 87.5t103 82.5t147.5 70.5q-80 29 -137.5 45.5t-77.5 16.5q-17 0 -35 -7t-28 -16v-52.5t1 -49.5l-12 -11l-36 18q-2 15 -2 28.5v30.5q0 44 3 61t8 22
q2 2 12 9.5t24.5 15.5t32.5 14.5t38 6.5q19 0 53 -8.5t78 -22.5t96.5 -32.5t108.5 -39.5l5 -16l-24 -53q-37 0 -71.5 -9.5t-72.5 -26.5q-97 -43 -160 -100t-85 -130v-9q0 -42 10 -74t33 -53t61 -31.5t95 -10.5h37.5t42.5 1t50 3t61 5z" />
    <glyph glyph-name="u062E" unicode="&#x62e;" horiz-adv-x="584" arabic-form="isolated" 
d="M511 -216l-17 -59q-60 -8 -112 -9t-80 -1q-56 0 -100.5 11t-75.5 36.5t-48 67t-17 102.5v14q0 40 20 84.5t60.5 87.5t103 82.5t147.5 70.5q-80 29 -137.5 45.5t-77.5 16.5q-17 0 -35 -7t-28 -16v-52.5t1 -49.5l-12 -11l-36 18q-2 15 -2 28.5v30.5q0 44 3 61t8 22
q2 2 12 9.5t24.5 15.5t32.5 14.5t38 6.5q19 0 53 -8.5t78 -22.5t96.5 -32.5t108.5 -39.5l5 -16l-24 -53q-37 0 -71.5 -9.5t-72.5 -26.5q-97 -43 -160 -100t-85 -130v-9q0 -42 10 -74t33 -53t61 -31.5t95 -10.5h37.5t42.5 1t50 3t61 5zM145 545l38 64l78 -48l-40 -63z" />
    <glyph glyph-name="u062F" unicode="&#x62f;" horiz-adv-x="457" arabic-form="isolated" 
d="M189 0q-39 0 -65.5 5.5t-42.5 16.5t-23 28.5t-7 41.5q0 14 1 32t3 35q2 19 5 39l48 -3q-1 -21 -2 -39l-2 -32t-1 -27q13 -10 43 -13t60 -3q25 0 62 3t76 15q-1 46 -9 83t-27.5 68t-53.5 56.5t-87 48.5l17 56l16 12q56 -20 93.5 -50.5t60.5 -68t33 -80t10 -85.5
q0 -39 -11 -65.5t-35.5 -43t-64 -23.5t-97.5 -7z" />
    <glyph glyph-name="u0630" unicode="&#x630;" horiz-adv-x="457" arabic-form="isolated" 
d="M189 0q-39 0 -65.5 5.5t-42.5 16.5t-23 28.5t-7 41.5q0 14 1 32t3 35q2 19 5 39l48 -3q-1 -21 -2 -39l-2 -32t-1 -27q13 -10 43 -13t60 -3q25 0 62 3t76 15q-1 46 -9 83t-27.5 68t-53.5 56.5t-87 48.5l17 56l16 12q56 -20 93.5 -50.5t60.5 -68t33 -80t10 -85.5
q0 -39 -11 -65.5t-35.5 -43t-64 -23.5t-97.5 -7zM161 549l38 64l78 -48l-40 -63z" />
    <glyph glyph-name="u0631" unicode="&#x631;" horiz-adv-x="256" arabic-form="isolated" 
d="M-70 -179q40 7 76 25t64.5 44.5t48.5 58.5t28 66q-3 19 -9 43.5t-14.5 51.5t-18.5 54t-20 51l52 37l16 -6q10 -24 18.5 -52t15 -56.5t10 -55.5t3.5 -48q0 -62 -20 -111t-48 -83t-58 -52t-50 -18q-8 0 -28.5 3t-65.5 13v35z" />
    <glyph glyph-name="u0632" unicode="&#x632;" horiz-adv-x="256" arabic-form="isolated" 
d="M-70 -179q40 7 76 25t64.5 44.5t48.5 58.5t28 66q-3 19 -9 43.5t-14.5 51.5t-18.5 54t-20 51l52 37l16 -6q10 -24 18.5 -52t15 -56.5t10 -55.5t3.5 -48q0 -62 -20 -111t-48 -83t-58 -52t-50 -18q-8 0 -28.5 3t-65.5 13v35zM55 371l38 64l78 -48l-40 -63z" />
    <glyph glyph-name="u0633" unicode="&#x633;" horiz-adv-x="1065" arabic-form="isolated" 
d="M848 0q-14 0 -28 2.5t-27.5 9t-25 19t-20.5 32.5q-8 -15 -15 -25t-17 -16q-13 -9 -37 -15.5t-54 -6.5q-17 0 -33.5 2.5t-30.5 11.5q1 -10 1.5 -20.5t0.5 -22.5q0 -35 -6 -62.5t-15 -42.5q-5 -9 -26 -26t-55.5 -33.5t-82.5 -29t-106 -12.5q-61 0 -101.5 12.5t-65 33.5
t-34.5 49t-10 59q0 19 2 48.5t5 62t6 63.5t6 54l53 -3q-3 -34 -5.5 -70t-5 -69t-4 -58.5t-1.5 -38.5q17 -26 55.5 -44t99.5 -18q33 0 67.5 5.5t66 14.5t58 22t43.5 28q-1 38 -5.5 78t-11 79t-15 76.5t-17.5 69.5l51 33l15 -5q12 -51 20 -90t16 -57q11 -11 29.5 -15t38.5 -4
q50 0 84 14l26 150h50q-2 -27 -2.5 -43.5t-1 -27t-0.5 -16v-8.5q0 -38 22 -53.5t49 -15.5q26 0 52.5 6.5t44.5 15.5q-1 19 -5 42.5t-9.5 48.5t-13 50t-16.5 48l50 40l16 -6q14 -41 23 -86t9 -90q0 -24 -5.5 -45t-14 -37.5t-18.5 -28t-18 -15.5q-37 -24 -101 -24z" />
    <glyph glyph-name="u0634" unicode="&#x634;" horiz-adv-x="1065" arabic-form="isolated" 
d="M848 0q-14 0 -28 2.5t-27.5 9t-25 19t-20.5 32.5q-8 -15 -15 -25t-17 -16q-13 -9 -37 -15.5t-54 -6.5q-17 0 -33.5 2.5t-30.5 11.5q1 -10 1.5 -20.5t0.5 -22.5q0 -35 -6 -62.5t-15 -42.5q-5 -9 -26 -26t-55.5 -33.5t-82.5 -29t-106 -12.5q-61 0 -101.5 12.5t-65 33.5
t-34.5 49t-10 59q0 19 2 48.5t5 62t6 63.5t6 54l53 -3q-3 -34 -5.5 -70t-5 -69t-4 -58.5t-1.5 -38.5q17 -26 55.5 -44t99.5 -18q33 0 67.5 5.5t66 14.5t58 22t43.5 28q-1 38 -5.5 78t-11 79t-15 76.5t-17.5 69.5l51 33l15 -5q12 -51 20 -90t16 -57q11 -11 29.5 -15t38.5 -4
q50 0 84 14l26 150h50q-2 -27 -2.5 -43.5t-1 -27t-0.5 -16v-8.5q0 -38 22 -53.5t49 -15.5q26 0 52.5 6.5t44.5 15.5q-1 19 -5 42.5t-9.5 48.5t-13 50t-16.5 48l50 40l16 -6q14 -41 23 -86t9 -90q0 -24 -5.5 -45t-14 -37.5t-18.5 -28t-18 -15.5q-37 -24 -101 -24zM705 566
l77 -48l-39 -64l-78 49zM659 443l78 -48l-40 -63l-77 47zM749 380l40 63l76 -47l-38 -64z" />
    <glyph glyph-name="u0635" unicode="&#x635;" horiz-adv-x="1071" arabic-form="isolated" 
d="M680 0q-45 0 -73.5 5.5t-47.5 19.5q3 -23 3 -54q0 -35 -6 -62.5t-15 -42.5q-5 -9 -26 -26t-55.5 -33.5t-82.5 -29t-106 -12.5q-61 0 -101.5 12.5t-65 33.5t-34.5 49t-10 59q0 24 2.5 62.5t6.5 75.5q4 43 10 90l53 -3q-3 -49 -7 -94q-3 -38 -5.5 -78.5t-3.5 -63.5
q17 -26 55.5 -44t99.5 -18q33 0 67.5 5.5t66 14.5t58 22t43.5 28q-1 38 -5.5 78t-11 79t-15 76.5t-17.5 69.5l51 33l15 -5l15 -71q7 -37 21 -58q63 53 108 91t76.5 64t51.5 41t33 23t20.5 10t13.5 2q24 0 50.5 -14t48.5 -40.5t36 -63.5t14 -83q0 -15 -4 -33t-12 -35.5
t-19 -31.5t-25 -20q-60 -28 -198 -28h-73zM844 270q-10 0 -27 -9.5t-45 -31.5t-70 -56.5t-101 -85.5q22 -6 60 -6h120q65 0 107 6t67 19q1 32 -10 62t-28 52.5t-37 36t-36 13.5z" />
    <glyph glyph-name="u0636" unicode="&#x636;" horiz-adv-x="1071" arabic-form="isolated" 
d="M680 0q-45 0 -73.5 5.5t-47.5 19.5q3 -23 3 -54q0 -35 -6 -62.5t-15 -42.5q-5 -9 -26 -26t-55.5 -33.5t-82.5 -29t-106 -12.5q-61 0 -101.5 12.5t-65 33.5t-34.5 49t-10 59q0 24 2.5 62.5t6.5 75.5q4 43 10 90l53 -3q-3 -49 -7 -94q-3 -38 -5.5 -78.5t-3.5 -63.5
q17 -26 55.5 -44t99.5 -18q33 0 67.5 5.5t66 14.5t58 22t43.5 28q-1 38 -5.5 78t-11 79t-15 76.5t-17.5 69.5l51 33l15 -5l15 -71q7 -37 21 -58q63 53 108 91t76.5 64t51.5 41t33 23t20.5 10t13.5 2q24 0 50.5 -14t48.5 -40.5t36 -63.5t14 -83q0 -15 -4 -33t-12 -35.5
t-19 -31.5t-25 -20q-60 -28 -198 -28h-73zM844 270q-10 0 -27 -9.5t-45 -31.5t-70 -56.5t-101 -85.5q22 -6 60 -6h120q65 0 107 6t67 19q1 32 -10 62t-28 52.5t-37 36t-36 13.5zM791 478l38 64l78 -48l-40 -63z" />
    <glyph glyph-name="u0637" unicode="&#x637;" horiz-adv-x="657" arabic-form="isolated" 
d="M339 0q-61 0 -124.5 1.5t-135.5 12.5l-30 65l6 16q17 -2 31 -3.5t28 -3.5l70 63q10 9 16.5 18t11 21t6.5 29t2 43v27.5t-0.5 40t-1 43.5t-1.5 38q-1 35 -2 61.5t-4 49t-9 44t-15 45.5l57 48q12 -28 19 -55t10.5 -54t4.5 -55.5t1 -60.5q0 -48 -0.5 -81.5t-1 -57.5
t-2.5 -40.5t-5 -29.5q47 39 77.5 63.5t50 38t30.5 18t20 4.5q24 0 50.5 -14t48 -40.5t36 -63.5t14.5 -83q0 -15 -4 -33t-12 -35.5t-19 -31.5t-25 -20q-60 -28 -198 -28zM429 270q-10 0 -27 -9.5t-45.5 -31.5t-71.5 -58t-104 -88q38 -2 80.5 -2h105.5q65 0 107 6t67 19
q1 32 -10 62t-28.5 52.5t-37.5 36t-36 13.5z" />
    <glyph glyph-name="u0638" unicode="&#x638;" horiz-adv-x="657" arabic-form="isolated" 
d="M339 0q-61 0 -124.5 1.5t-135.5 12.5l-30 65l6 16q17 -2 31 -3.5t28 -3.5l70 63q10 9 16.5 18t11 21t6.5 29t2 43v27.5t-0.5 40t-1 43.5t-1.5 38q-1 35 -2 61.5t-4 49t-9 44t-15 45.5l57 48q12 -28 19 -55t10.5 -54t4.5 -55.5t1 -60.5q0 -48 -0.5 -81.5t-1 -57.5
t-2.5 -40.5t-5 -29.5q47 39 77.5 63.5t50 38t30.5 18t20 4.5q24 0 50.5 -14t48 -40.5t36 -63.5t14.5 -83q0 -15 -4 -33t-12 -35.5t-19 -31.5t-25 -20q-60 -28 -198 -28zM429 270q-10 0 -27 -9.5t-45.5 -31.5t-71.5 -58t-104 -88q38 -2 80.5 -2h105.5q65 0 107 6t67 19
q1 32 -10 62t-28.5 52.5t-37.5 36t-36 13.5zM394 474l38 64l78 -48l-40 -63z" />
    <glyph glyph-name="u0639" unicode="&#x639;" horiz-adv-x="494" arabic-form="isolated" 
d="M59 -56q0 43 27.5 93.5t97.5 101.5q-30 11 -52.5 28t-36.5 37.5t-21 42.5t-7 42q0 40 20 75t49 61t61 41.5t55 15.5q20 0 45 -17.5t58 -44.5l-33 -53q-32 21 -49 30t-28 9q-14 0 -33 -8.5t-37 -23t-34 -34t-24 -41.5q4 -20 15.5 -38.5t29 -32t40 -21.5t48.5 -8
q24 0 63.5 14.5t105.5 42.5l11 -11l-5 -63q-72 -29 -126.5 -54.5t-92.5 -51.5t-61.5 -54t-35.5 -62v-8q0 -41 10.5 -72t33.5 -51.5t61 -31t94 -10.5h35.5t37.5 1t44.5 3t56.5 5l10 -12l-17 -59q-57 -8 -102 -9t-73 -1q-53 0 -97 10.5t-76 35t-50 65.5t-18 102v16v0z" />
    <glyph glyph-name="u063A" unicode="&#x63a;" horiz-adv-x="494" arabic-form="isolated" 
d="M59 -56q0 43 27.5 93.5t97.5 101.5q-30 11 -52.5 28t-36.5 37.5t-21 42.5t-7 42q0 40 20 75t49 61t61 41.5t55 15.5q20 0 45 -17.5t58 -44.5l-33 -53q-32 21 -49 30t-28 9q-14 0 -33 -8.5t-37 -23t-34 -34t-24 -41.5q4 -20 15.5 -38.5t29 -32t40 -21.5t48.5 -8
q24 0 63.5 14.5t105.5 42.5l11 -11l-5 -63q-72 -29 -126.5 -54.5t-92.5 -51.5t-61.5 -54t-35.5 -62v-8q0 -41 10.5 -72t33.5 -51.5t61 -31t94 -10.5h35.5t37.5 1t44.5 3t56.5 5l10 -12l-17 -59q-57 -8 -102 -9t-73 -1q-53 0 -97 10.5t-76 35t-50 65.5t-18 102v16zM179 609
l38 64l78 -48l-40 -63z" />
    <glyph glyph-name="u0641" unicode="&#x641;" horiz-adv-x="732" arabic-form="isolated" 
d="M321 -5q-53 0 -100.5 4t-83 17.5t-56.5 38.5t-21 68q0 23 2 50.5t4 51.5l6 56l53 -3q-4 -51 -6.5 -88t-4.5 -72q24 -22 80.5 -32t126.5 -10q49 0 95 2t85 6.5t69.5 11.5t49.5 16q1 22 0.5 43t-2.5 41q-31 -10 -63.5 -15t-77.5 -5q-56 0 -83 21.5t-27 57.5q0 17 6 44.5
t14.5 58t18.5 61t18 52.5q6 3 10 7q4 3 6.5 5t3.5 3q71 -1 115.5 -29t69.5 -72.5t34 -100t9 -111.5q0 -30 -6.5 -53.5t-16 -41t-21.5 -29t-23 -17.5q-29 -15 -102 -26t-182 -11zM495 247q34 0 64 4.5t50 9.5q-6 32 -17.5 59.5t-30.5 48t-45.5 32.5t-63.5 13q-4 -9 -9.5 -29
t-11.5 -42.5t-11 -43.5t-7 -31q11 -13 31.5 -17t50.5 -4zM436 615l38 64l78 -48l-40 -63z" />
    <glyph glyph-name="u0642" unicode="&#x642;" horiz-adv-x="627" arabic-form="isolated" 
d="M342 364q70 -2 114 -28.5t69 -70.5t33.5 -103.5t8.5 -127.5q0 -43 -6 -73t-15 -45q-5 -9 -26 -26t-56 -33.5t-83 -29t-107 -12.5q-62 0 -103 12.5t-66 33.5t-35 49t-10 59q0 24 2.5 62.5t6.5 75.5q4 43 10 90l53 -3q-3 -49 -7 -94q-3 -38 -5.5 -78.5t-3.5 -63.5
q17 -26 55.5 -44t102.5 -18q33 0 67.5 5.5t66.5 15t59.5 22.5t46.5 28q1 26 0.5 50.5t-2.5 48.5q-30 -11 -62 -17.5t-71 -6.5q-54 0 -85.5 21t-31.5 62q0 17 6.5 45.5t15.5 61t19 63.5t18 53zM395 120q31 0 60 4.5t49 9.5q-6 34 -17 62t-29 48.5t-44.5 32t-62.5 13.5
q-4 -9 -10 -29.5t-12.5 -43.5t-11.5 -44.5t-7 -31.5q11 -13 33 -17t52 -4zM312 548l78 -48l-40 -63l-77 47zM402 485l40 63l76 -47l-38 -64z" />
    <glyph glyph-name="u0643" unicode="&#x643;" horiz-adv-x="724" arabic-form="isolated" 
d="M619 659q12 -28 19 -55t10.5 -54t4.5 -55.5t1 -60.5v-292q0 -42 -19 -73.5t-39 -42.5q-24 -13 -91.5 -22t-172.5 -9q-57 0 -106.5 4t-86.5 17.5t-58 38.5t-21 68q0 23 2 50.5t4 51.5l6 56l53 -3q-4 -51 -7 -88t-4 -72q24 -22 82 -32t136 -10q89 0 159 6t108 21l-6 308
q-1 35 -2.5 61.5t-4.5 49t-9 44t-15 45.5zM452 446l-125 -38q32 -14 52 -27t31 -25t15 -23t4 -21q0 -14 -7 -27.5t-24 -26t-46 -23t-72 -19.5l-29 37l6 10q17 2 36 6t37.5 9.5t34 12t26.5 13.5q-8 13 -31 30t-71 38l-5 10q3 18 5.5 31t7.5 21.5t12.5 13.5t19.5 9l129 43z
" />
    <glyph glyph-name="u0644" unicode="&#x644;" horiz-adv-x="592" arabic-form="isolated" 
d="M132 194q-3 -49 -7 -94q-3 -38 -5.5 -78.5t-3.5 -63.5q14 -25 51 -43.5t93 -18.5q53 0 108.5 15.5t100.5 47.5l-8 452q-1 35 -2 61.5t-4 49t-9 44t-15 45.5l56 48q13 -28 20 -55t10.5 -54t4 -55.5t0.5 -60.5v-422q0 -32 -4.5 -60.5t-14.5 -42.5q-8 -11 -28 -27t-51 -31
t-72 -25.5t-92 -10.5q-57 0 -95 12.5t-61.5 33.5t-33.5 49t-10 59q0 24 2.5 62.5t6.5 75.5q4 43 10 90l53 -3v0z" />
    <glyph glyph-name="u0645" unicode="&#x645;" horiz-adv-x="501" arabic-form="isolated" 
d="M372 0q-29 0 -64 10t-68 23.5t-60.5 28t-40.5 24.5q-7 -6 -11 -13t-5.5 -18.5t-2 -30.5t-0.5 -49q0 -36 1 -88.5t4 -101.5l-49 -21l-12 6q-3 93 -3.5 164.5t-0.5 109.5q0 42 19 73t64 39l46 73q16 26 33 45t39.5 32t52 20.5t70.5 10.5l21 -12q19 -75 27.5 -132.5
t8.5 -86.5q0 -21 -6.5 -40t-16.5 -34t-22.5 -23.5t-23.5 -8.5zM357 259q-30 -3 -50.5 -7t-38 -15.5t-35.5 -34t-44 -64.5q45 -29 99.5 -45t96.5 -19q0 15 -2 36.5t-6 46t-9 51t-11 51.5z" />
    <glyph glyph-name="u0646" unicode="&#x646;" horiz-adv-x="622" arabic-form="isolated" 
d="M562 24q0 -36 -6 -64.5t-15 -43.5q-5 -9 -26 -26t-55.5 -33.5t-82.5 -29t-106 -12.5q-61 0 -101.5 12.5t-65 33.5t-34.5 49t-10 59q0 24 2.5 62.5t6.5 75.5q4 43 10 90l53 -3q-3 -49 -7 -94q-3 -38 -5.5 -78.5t-3.5 -63.5q17 -26 55.5 -44t99.5 -18q33 0 67.5 5.5
t66 14.5t58 22t43.5 28q-1 38 -5.5 78t-11 79t-15 76.5t-17.5 69.5l51 33l15 -5q21 -81 30 -152.5t9 -120.5zM220 327l38 64l78 -48l-40 -63z" />
    <glyph glyph-name="u0647" unicode="&#x647;" horiz-adv-x="421" arabic-form="isolated" 
d="M189 0q-129 0 -129 89q0 40 20 111.5t49 158.5l16 11q66 -21 108 -46t66 -54t33 -61.5t9 -68.5q0 -26 -6.5 -51.5t-17.5 -42.5q-18 -26 -59 -36t-89 -10zM155 288q-5 -13 -12 -35.5t-14 -49t-12.5 -52t-7.5 -44.5q8 -13 35.5 -19.5t53.5 -6.5q27 0 55.5 3.5t52.5 13.5
q0 34 -6 62t-22.5 51t-46 42t-76.5 35z" />
    <glyph glyph-name="u0648" unicode="&#x648;" horiz-adv-x="410" arabic-form="isolated" 
d="M50 -179q43 5 83 20t73.5 38t59.5 53.5t41 66.5q0 5 -0.5 8.5t-0.5 8.5q-30 -11 -62 -17.5t-71 -6.5q-54 0 -85.5 21t-31.5 62q0 17 6.5 46.5t15.5 62.5t19 64.5t18 53.5l21 15q64 -4 106.5 -28.5t68 -63t36.5 -88.5t11 -105q0 -58 -22.5 -106.5t-55 -83t-68 -53.5
t-61.5 -19q-8 0 -32 3t-69 13v35zM189 70q31 0 60 4.5t49 9.5q-13 68 -48 110t-104 50q-3 -9 -9.5 -30t-13 -45t-12 -46t-7.5 -32q11 -13 33 -17t52 -4z" />
    <glyph glyph-name="u0649" unicode="&#x649;" horiz-adv-x="642" arabic-form="isolated" 
d="M536 300q-23 14 -39.5 23.5t-24.5 9.5q-18 0 -42 -15t-47.5 -40.5t-42.5 -58.5t-25 -70q11 -11 52.5 -15.5t112.5 -8.5q33 -2 53 -7.5t30 -15t13 -23t3 -32.5q0 -21 -2 -42t-5.5 -39t-7.5 -31t-7 -19q-5 -9 -26 -26t-57 -33.5t-86 -29t-114 -12.5q-62 0 -103 12.5
t-66 33.5t-35 49t-10 59q0 24 2.5 62.5t6.5 75.5q4 43 10 90l53 -3q-3 -49 -7 -94q-3 -38 -5.5 -78.5t-3.5 -63.5q17 -26 55.5 -44t102.5 -18q75 0 139 18.5t103 45.5q3 20 3.5 41.5t-0.5 39.5q-6 2 -19.5 3.5t-31.5 2.5t-39 2l-42 2q-68 4 -95 23t-27 61q0 51 22 100t54 88
t68.5 63t66.5 24q17 0 41.5 -16.5t54.5 -42.5z" />
    <glyph glyph-name="u064A" unicode="&#x64a;" horiz-adv-x="642" arabic-form="isolated" 
d="M536 300q-23 14 -39.5 23.5t-24.5 9.5q-18 0 -42 -15t-47.5 -40.5t-42.5 -58.5t-25 -70q11 -11 52.5 -15.5t112.5 -8.5q33 -2 53 -7.5t30 -15t13 -23t3 -32.5q0 -21 -2 -42t-5.5 -39t-7.5 -31t-7 -19q-5 -9 -26 -26t-57 -33.5t-86 -29t-114 -12.5q-62 0 -103 12.5
t-66 33.5t-35 49t-10 59q0 24 2.5 62.5t6.5 75.5q4 43 10 90l53 -3q-3 -49 -7 -94q-3 -38 -5.5 -78.5t-3.5 -63.5q17 -26 55.5 -44t102.5 -18q75 0 139 18.5t103 45.5q3 20 3.5 41.5t-0.5 39.5q-6 2 -19.5 3.5t-31.5 2.5t-39 2l-42 2q-68 4 -95 23t-27 61q0 51 22 100t54 88
t68.5 63t66.5 24q17 0 41.5 -16.5t54.5 -42.5zM220 -250l78 -49l-40 -62l-77 47zM426 -297l-38 -64l-78 48l40 63z" />
    <glyph glyph-name="u067E" unicode="&#x67e;" horiz-adv-x="716" arabic-form="isolated" 
d="M321 76q38 0 79 2t79 6.5t70.5 12t52.5 18.5q-1 18 -5 39.5t-10 45.5t-14 48t-16 46l51 38l16 -6q13 -38 22.5 -81t9.5 -84q0 -25 -6.5 -46.5t-16 -38t-21.5 -28t-23 -17.5q-27 -14 -95 -25t-173 -11q-53 0 -100.5 4t-83 17.5t-56.5 38.5t-21 68q0 23 2 50.5t4 51.5l6 56
l53 -3q-4 -51 -6.5 -88t-4.5 -72q24 -22 80.5 -32t126.5 -10zM262 -95l78 -49l-40 -62l-77 47zM468 -142l-38 -64l-78 48l40 63zM383 -329l-76 47l39 64l77 -48z" />
    <glyph glyph-name="u0686" unicode="&#x686;" horiz-adv-x="584" arabic-form="isolated" 
d="M511 -216l-17 -59q-60 -8 -112 -9t-80 -1q-56 0 -100.5 11t-75.5 36.5t-48 67t-17 102.5v14q0 40 20 84.5t60.5 87.5t103 82.5t147.5 70.5q-80 29 -137.5 45.5t-77.5 16.5q-17 0 -35 -7t-28 -16v-52.5t1 -49.5l-12 -11l-36 18q-2 15 -2 28.5v30.5q0 44 3 61t8 22
q2 2 12 9.5t24.5 15.5t32.5 14.5t38 6.5q19 0 53 -8.5t78 -22.5t96.5 -32.5t108.5 -39.5l5 -16l-24 -53q-37 0 -71.5 -9.5t-72.5 -26.5q-97 -43 -160 -100t-85 -130v-9q0 -42 10 -74t33 -53t61 -31.5t95 -10.5h37.5t42.5 1t50 3t61 5zM384 -152l-70 43l36 59l70 -44zM273 62
l72 -45l-37 -56l-70 43zM427 -39l-72 44l37 57l69 -43z" />
    <glyph glyph-name="u0698" unicode="&#x698;" horiz-adv-x="256" arabic-form="isolated" 
d="M-70 -179q40 7 76 25t64.5 44.5t48.5 58.5t28 66q-3 19 -9 43.5t-14.5 51.5t-18.5 54t-20 51l52 37l16 -6q10 -24 18.5 -52t15 -56.5t10 -55.5t3.5 -48q0 -62 -20 -111t-48 -83t-58 -52t-50 -18q-8 0 -28.5 3t-65.5 13v35zM121 372l40 63l76 -47l-38 -64zM77 558l77 -48
l-39 -64l-78 49zM31 435l78 -48l-40 -63l-77 47z" />
    <glyph glyph-name="u06A9" unicode="&#x6a9;" horiz-adv-x="690" arabic-form="isolated" 
d="M321 76q38 0 74.5 1.5t69.5 5t60.5 8.5t46.5 13q-2 31 -14.5 65t-40.5 73t-73.5 84t-112.5 98l9 40q3 15 7 24t10 15t16 10t27 8l272 72l10 -11l-8 -58l-269 -72q72 -58 114.5 -106t65 -87t29 -69t6.5 -52q0 -20 -5 -37.5t-13 -32.5t-17.5 -25.5t-19.5 -15.5
q-14 -7 -38 -12.5t-55.5 -10t-70 -7t-80.5 -2.5q-53 0 -100.5 4t-83 17.5t-56.5 38.5t-21 68q0 23 2 50.5t4 51.5l6 56l53 -3q-4 -51 -7 -88t-4 -72q24 -22 80.5 -32t126.5 -10z" />
    <glyph glyph-name="u06AF" unicode="&#x6af;" horiz-adv-x="697" arabic-form="isolated" 
d="M321 76q38 0 74.5 1.5t69.5 5t60.5 8.5t46.5 13q-1 31 -13 63t-38 68t-67 77.5t-101 89.5l8 40q3 15 7 24.5t10 15.5t16 10t27 8l258 67l11 -11l-9 -59l-255 -66q64 -53 102.5 -97t58.5 -80.5t26.5 -65t6.5 -50.5q0 -20 -5 -37.5t-13 -32.5t-17.5 -25.5t-19.5 -15.5
q-14 -7 -38 -12.5t-55.5 -10t-70 -7t-80.5 -2.5q-53 0 -100.5 4t-83 17.5t-56.5 38.5t-21 68q0 23 2 50.5t4 51.5l6 56l53 -3q-4 -51 -7 -88t-4 -72q24 -22 80.5 -32t126.5 -10zM403 601l231 61l-7 -52l-230 -60z" />
    <glyph glyph-name="u06C0" unicode="&#x6c0;" horiz-adv-x="421" arabic-form="isolated" 
d="M189 0q-129 0 -129 89q0 40 20 111.5t49 158.5l16 11q66 -21 108 -46t66 -54t33 -61.5t9 -68.5q0 -26 -6.5 -51.5t-17.5 -42.5q-18 -26 -59 -36t-89 -10zM155 288q-5 -13 -12 -35.5t-14 -49t-12.5 -52t-7.5 -44.5q8 -13 35.5 -19.5t53.5 -6.5q27 0 55.5 3.5t52.5 13.5
q0 34 -6 62t-22.5 51t-46 42t-76.5 35zM185 439q-57 0 -86.5 18t-29.5 54q0 24 11 48.5t28 43.5t36.5 31t36.5 12q13 0 58 -34l-19 -32l-44 22q-8 0 -19.5 -7t-23.5 -19t-22.5 -27.5t-14.5 -32.5q8 -17 30 -25t64 -8h136l-12 -44h-129z" />
    <glyph glyph-name="u06CC" unicode="&#x6cc;" horiz-adv-x="642" arabic-form="isolated" 
d="M536 300q-23 14 -39.5 23.5t-24.5 9.5q-18 0 -42 -15t-47.5 -40.5t-42.5 -58.5t-25 -70q11 -11 52.5 -15.5t112.5 -8.5q33 -2 53 -7.5t30 -15t13 -23t3 -32.5q0 -21 -2 -42t-5.5 -39t-7.5 -31t-7 -19q-5 -9 -26 -26t-57 -33.5t-86 -29t-114 -12.5q-62 0 -103 12.5
t-66 33.5t-35 49t-10 59q0 24 2.5 62.5t6.5 75.5q4 43 10 90l53 -3q-3 -49 -7 -94q-3 -38 -5.5 -78.5t-3.5 -63.5q17 -26 55.5 -44t102.5 -18q75 0 139 18.5t103 45.5q3 20 3.5 41.5t-0.5 39.5q-6 2 -19.5 3.5t-31.5 2.5t-39 2l-42 2q-68 4 -95 23t-27 61q0 51 22 100t54 88
t68.5 63t66.5 24q17 0 41.5 -16.5t54.5 -42.5z" />
    <glyph glyph-name="uFB57" unicode="&#x67e;" horiz-adv-x="727" arabic-form="final" 
d="M727 0q-15 0 -31.5 2t-32 9t-29.5 20.5t-23 36.5q-8 -15 -15.5 -23t-15.5 -13q-27 -14 -92 -25.5t-167 -11.5q-53 0 -100.5 4t-83 17.5t-56.5 38.5t-21 68q0 23 2 50.5t4 51.5l6 56l53 -3q-4 -51 -6.5 -88t-4.5 -72q24 -22 80.5 -32t126.5 -10q37 0 74 2t70 5.5t60.5 9
t47.5 12.5l25 142h54q-2 -27 -2.5 -44.5t-1 -28t-0.5 -15.5v-9q0 -39 24.5 -54t54.5 -15v-81zM262 -95l78 -49l-40 -62l-77 47zM468 -142l-38 -64l-78 48l40 63zM383 -329l-76 47l39 64l77 -48z" />
    <glyph glyph-name="uFB58" unicode="&#x67e;" horiz-adv-x="289" arabic-form="initial" 
d="M0 0q-11 0 -17 11.5t-6 28.5q0 18 6 29.5t17 11.5q54 0 101 4t73 18q-1 15 -5.5 38.5t-11 50t-14.5 53.5t-17 49l50 38l16 -6q7 -16 13.5 -38.5t11.5 -47t8.5 -49.5t3.5 -45q0 -45 -18.5 -79t-41.5 -45q-20 -11 -64.5 -16.5t-104.5 -5.5zM185 -134l-38 -64l-78 48l40 63z
M100 -321l-76 47l39 64l77 -48zM-21 -87l78 -49l-40 -62l-77 47z" />
    <glyph glyph-name="uFB59" unicode="&#x67e;" horiz-adv-x="301" arabic-form="medial" 
d="M301 0q-16 0 -33 2t-32.5 9t-29 20.5t-22.5 36.5q-17 -34 -35 -45q-35 -23 -149 -23q-11 0 -17 11.5t-6 28.5q0 18 6 29.5t17 11.5q108 0 144 15l27 151h54q-2 -27 -2.5 -44.5t-1 -28t-0.5 -15.5v-9q0 -39 24.5 -54t55.5 -15v-81zM257 -134l-38 -64l-78 48l40 63z
M172 -321l-76 47l39 64l77 -48zM51 -87l78 -49l-40 -62l-77 47z" />
    <glyph glyph-name="uFB7B" unicode="&#x686;" horiz-adv-x="585" arabic-form="final" 
d="M511 -216l-17 -59q-60 -8 -112 -9t-80 -1q-56 0 -100.5 11t-75.5 36.5t-48 67t-17 102.5v14q0 40 20 84.5t60.5 87.5t103 82.5t147.5 70.5q-80 29 -137.5 45.5t-77.5 16.5q-17 0 -35 -7t-28 -16v-52.5t1 -49.5l-12 -11l-36 18q-2 15 -2 28.5v30.5q0 44 3 61t8 22
q2 2 12 9.5t24.5 15.5t32.5 14.5t38 6.5q19 0 53 -8.5t78 -22.5t96.5 -32.5t108.5 -39.5l5 -16l-24 -53q-23 0 -45 -4t-45 -11q2 -38 10 -64t23 -42t38 -22.5t55 -6.5h49v-81h-53q-26 0 -54 6t-52 26t-40.5 59.5t-19.5 107.5q-2 -1 -5 -2t-5 -2q-97 -43 -160 -100t-85 -130
v-9q0 -42 10 -74t33 -53t61 -31.5t95 -10.5h37.5t42.5 1t50 3t61 5zM208 34l71 -44l-36 -56l-70 42zM360 -66l-71 43l36 57l69 -42zM317 -177l-68 43l35 57l69 -43z" />
    <glyph glyph-name="uFB7C" unicode="&#x686;" horiz-adv-x="582" arabic-form="initial" 
d="M0 0q-11 0 -17 11.5t-6 28.5q0 18 6 29.5t17 11.5h72q41 0 69 2t47 5.5t31.5 8.5t22.5 11q27 17 48 32.5t40.5 30t39.5 28.5t46 29q-85 32 -145.5 50t-80.5 18q-16 0 -34.5 -7.5t-29.5 -16.5v-48t1 -40l-37 -22l-10 10q-2 23 -2.5 35.5t-0.5 26.5q0 46 3 63.5t8 22.5
q2 2 11.5 9.5t24 15.5t33 14t38.5 6q19 0 51.5 -8t75.5 -21.5t94.5 -32t109.5 -39.5l5 -17l-26 -52q-18 0 -31.5 -1.5t-29.5 -9.5t-38 -24.5t-56 -47.5q-45 -39 -75.5 -61t-59.5 -33.5t-62 -14.5t-84 -3h-69zM166 -87l78 -49l-40 -62l-77 47zM372 -134l-38 -64l-78 48l40 63
zM287 -321l-76 47l39 64l77 -48z" />
    <glyph glyph-name="uFB7D" unicode="&#x686;" horiz-adv-x="590" arabic-form="medial" 
d="M0 0q-11 0 -17 11.5t-6 28.5q0 18 6 29.5t17 11.5h72q41 0 69 2t47 5.5t31.5 8.5t22.5 11q27 17 48 32.5t40.5 30t39.5 28.5t46 29q-85 32 -145.5 50t-80.5 18q-16 0 -34.5 -7.5t-29.5 -16.5v-48t1 -40l-37 -22l-10 10q-2 23 -2.5 35.5t-0.5 26.5q0 46 3 63.5t8 22.5
q2 2 11.5 9.5t24 15.5t33 14t38.5 6q19 0 51.5 -8t75.5 -21.5t94.5 -32t109.5 -39.5l5 -17l-26 -52q-14 0 -25 -1t-22.5 -4.5t-24 -11t-30.5 -21.5q11 -38 37.5 -57t80.5 -19h69v-81h-73q-21 0 -44.5 4t-44.5 17t-38.5 37.5t-26.5 65.5l-6 -6t-7 -6q-45 -39 -75.5 -61
t-59.5 -33.5t-62 -14.5t-84 -3h-69zM166 -87l78 -49l-40 -62l-77 47zM372 -134l-38 -64l-78 48l40 63zM287 -321l-76 47l39 64l77 -48z" />
    <glyph glyph-name="uFB8B" unicode="&#x698;" horiz-adv-x="269" arabic-form="final" 
d="M269 0q-47 0 -70 13q-3 -57 -24 -102t-48 -76.5t-55.5 -48t-47.5 -16.5q-8 0 -28.5 3t-65.5 13v35q40 7 76 25t64.5 44.5t48.5 58.5t28 66q-3 19 -9 43.5t-14.5 51.5t-18.5 54t-20 51l52 37l16 -6q7 -23 14.5 -46.5t13.5 -44t11 -36.5t9 -23q8 -8 23.5 -11.5t44.5 -3.5
v-81zM77 558l77 -48l-39 -64l-78 49zM31 435l78 -48l-40 -63l-77 47zM121 372l40 63l76 -47l-38 -64z" />
    <glyph glyph-name="uFB8F" unicode="&#x6a9;" horiz-adv-x="757" arabic-form="final" 
d="M745 0q-45 0 -75 12.5t-54 54.5q-15 -26 -32 -35q-33 -17 -101.5 -27t-161.5 -10q-53 0 -100.5 4t-83 17.5t-56.5 38.5t-21 68q0 23 2 50.5t4 51.5l6 56l53 -3q-4 -51 -7 -88t-4 -72q24 -22 80.5 -32t126.5 -10q94 0 162.5 8.5t110.5 26.5q-20 44 -42.5 82t-52.5 74.5
t-71 74t-97 82.5l9 40q3 15 7 24t10 15t16 10t27 8l272 72l10 -11l-8 -58l-269 -72q55 -45 93 -83t67 -77.5t53.5 -85.5t52.5 -106q11 -11 31 -15t55 -4v-81h-12z" />
    <glyph glyph-name="uFB90" unicode="&#x6a9;" horiz-adv-x="395" arabic-form="initial" 
d="M0 0q-11 0 -17 11.5t-6 28.5q0 18 6 29.5t17 11.5h46q69 0 132 5t99 19q-2 31 -14.5 64.5t-40.5 72.5t-73.5 84t-112.5 98l9 40q3 15 7 24t10 15t16 10t27 8l272 72l10 -11l-8 -58l-269 -72q72 -58 114.5 -106t65 -87t29 -69t6.5 -52q0 -20 -5 -37.5t-13 -32.5
t-17.5 -25.5t-19.5 -15.5q-26 -13 -86 -20t-144 -7h-40z" />
    <glyph glyph-name="uFB91" unicode="&#x6a9;" horiz-adv-x="462" arabic-form="medial" 
d="M450 0q-45 0 -75 12.5t-54 54.5q-15 -26 -32 -35q-32 -17 -94.5 -24.5t-154.5 -7.5h-40q-11 0 -17 11.5t-6 28.5q0 18 6 29.5t17 11.5h46q87 0 150 6.5t103 23.5q-20 44 -42.5 82t-52.5 74.5t-71 74t-97 82.5l9 40q3 15 7 24t10 15t16 10t27 8l272 72l10 -11l-8 -58
l-269 -72q55 -45 93 -83t67 -77.5t53.5 -85.5t52.5 -106q11 -11 31 -15t55 -4v-81h-12z" />
    <glyph glyph-name="uFB93" unicode="&#x6af;" horiz-adv-x="759" arabic-form="final" 
d="M746 0q-23 0 -41 2.5t-34 10t-29.5 21t-25.5 34.5q-14 -27 -32 -36q-33 -17 -101.5 -27t-161.5 -10q-53 0 -100.5 4t-83 17.5t-56.5 38.5t-21 68q0 23 2 50.5t4 51.5l6 56l53 -3q-4 -51 -7 -88t-4 -72q24 -22 80.5 -32t126.5 -10q97 0 164.5 8.5t108.5 28.5
q-20 44 -42 80t-50.5 69.5t-64.5 67t-84 72.5l8 40q3 15 7 24.5t10 15.5t16 10t27 8l258 67l11 -11l-9 -59l-255 -66q48 -40 82 -74t61 -71t51 -81.5t52 -104.5q11 -11 31 -15t56 -4v-81h-13zM403 601l231 61l-7 -52l-230 -60z" />
    <glyph glyph-name="uFB94" unicode="&#x6af;" horiz-adv-x="395" arabic-form="initial" 
d="M0 0q-11 0 -17 11.5t-6 28.5q0 18 6 29.5t17 11.5h39q34 0 68 1t64.5 4t55.5 7.5t43 11.5q-2 31 -14 63t-38 68t-67 77t-101 89l9 40q3 15 7 24.5t10 15.5t16 10t27 8l258 67l10 -11l-8 -59l-255 -66q64 -53 102.5 -97t58.5 -80.5t26.5 -65t6.5 -50.5q0 -20 -5 -37.5
t-13 -32.5t-18 -25.5t-20 -15.5q-26 -13 -86 -20t-143 -7h-33zM101 601l231 61l-8 -52l-230 -60z" />
    <glyph glyph-name="uFB95" unicode="&#x6af;" horiz-adv-x="456" arabic-form="medial" 
d="M443 0q-22 0 -40.5 2.5t-34.5 10t-29.5 21t-25.5 34.5q-14 -27 -32 -36q-32 -17 -94.5 -24.5t-153.5 -7.5h-33q-11 0 -17 11.5t-6 28.5q0 18 6 29.5t17 11.5h39q89 0 151.5 7t100.5 25q-20 44 -42 80t-50.5 69.5t-64.5 67t-84 72.5l9 40q3 15 7 24.5t10 15.5t16 10t27 8
l258 67l10 -11l-8 -59l-255 -66q48 -40 82 -74t61 -71t51 -81.5t52 -104.5q11 -11 31 -15t55 -4v-81h-13zM101 601l231 61l-8 -52l-230 -60z" />
    <glyph glyph-name="uFBA5" unicode="&#x6c0;" horiz-adv-x="445" arabic-form="final" 
d="M181 25q-68 0 -94.5 28t-26.5 87q0 50 13 89q7 10 26.5 25t44.5 32t53.5 35.5t54.5 34.5l-12 70l46 23l15 -6l50 -331q10 -15 35 -23t59 -8v-81q-25 0 -48 3t-41.5 12t-33 25t-22.5 42q-6 -15 -10 -24t-5 -11q-3 -5 -12.5 -9t-24 -7t-32 -4.5t-35.5 -1.5zM184 102
q23 0 51.5 2t56.5 9l-30 181q-23 -14 -48 -29t-46.5 -29t-37 -26.5t-21.5 -20.5q-2 -24 -0.5 -40.5t9 -27t23.5 -15t43 -4.5zM240 513q-57 0 -86.5 18t-29.5 54q0 24 11 48.5t28 43.5t36.5 31t36.5 12q13 0 58 -34l-19 -32l-44 22q-8 0 -19.5 -7t-23.5 -19t-22.5 -27.5
t-14.5 -32.5q8 -17 30 -25t64 -8h136l-12 -44h-129z" />
    <glyph glyph-name="uFBAF" unicode="&#x6d2;" horiz-adv-x="362" arabic-form="final" 
d="M261 0q-18 0 -40.5 -5.5t-44.5 -17.5t-41 -32t-30 -50q5 -12 15 -23t28 -19t46.5 -12.5t70.5 -4.5q19 0 55.5 0.5t80 1t88.5 2t81 4.5l7 -14l-23 -62q-32 -2 -76.5 -3.5t-88.5 -2.5t-81 -1.5t-53 -0.5q-105 0 -150 30.5t-45 91.5q0 41 18 77t47.5 63t66 43t72.5 16h98
v-81h-101z" />
    <glyph glyph-name="uFBE8" unicode="&#x649;" horiz-adv-x="289" arabic-form="initial" 
d="M0 0q-11 0 -17 11.5t-6 28.5q0 18 6 29.5t17 11.5q54 0 101 4t73 18q-1 15 -5.5 38.5t-11 50t-14.5 53.5t-17 49l50 38l16 -6q7 -16 13.5 -38.5t11.5 -47t8.5 -49.5t3.5 -45q0 -45 -18.5 -79t-41.5 -45q-20 -11 -64.5 -16.5t-104.5 -5.5z" />
    <glyph glyph-name="uFBE9" unicode="&#x649;" horiz-adv-x="301" arabic-form="medial" 
d="M301 0q-16 0 -33 2t-32.5 9t-29 20.5t-22.5 36.5q-17 -34 -35 -45q-35 -23 -149 -23q-11 0 -17 11.5t-6 28.5q0 18 6 29.5t17 11.5q108 0 144 15l27 151h54q-2 -27 -2.5 -44.5t-1 -28t-0.5 -15.5v-9q0 -39 24.5 -54t55.5 -15v-81v0z" />
    <glyph glyph-name="uFBFD" unicode="&#x6cc;" horiz-adv-x="601" arabic-form="final" 
d="M559 0q1 -5 1.5 -11t0.5 -14q0 -15 -2 -32t-5 -32t-6.5 -27t-6.5 -18q-6 -9 -27 -26t-56 -33.5t-82 -29t-105 -12.5q-61 0 -101.5 12.5t-65 33.5t-34.5 49t-10 59q0 24 2.5 62.5t6.5 75.5q4 43 10 90l53 -3q-3 -49 -7 -94q-3 -38 -5.5 -78.5t-3.5 -63.5q17 -26 54 -44
t101 -18q31 0 63.5 4.5t62.5 13t56 19.5t45 25q4 19 5.5 42.5t-0.5 40.5q-10 4 -25.5 6.5t-41.5 4t-64.5 2.5t-93.5 3l-5 11l8 24t7 18q5 12 15 16.5t38 4.5h260v-81h-42z" />
    <glyph glyph-name="uFBFE" unicode="&#x6cc;" horiz-adv-x="289" arabic-form="initial" 
d="M0 0q-11 0 -17 11.5t-6 28.5q0 18 6 29.5t17 11.5q54 0 101 4t73 18q-1 15 -5.5 38.5t-11 50t-14.5 53.5t-17 49l50 38l16 -6q7 -16 13.5 -38.5t11.5 -47t8.5 -49.5t3.5 -45q0 -45 -18.5 -79t-41.5 -45q-20 -11 -64.5 -16.5t-104.5 -5.5zM185 -134l-38 -64l-78 48l40 63z
M-21 -87l78 -49l-40 -62l-77 47z" />
    <glyph glyph-name="uFBFF" unicode="&#x6cc;" horiz-adv-x="301" arabic-form="medial" 
d="M301 0q-16 0 -33 2t-32.5 9t-29 20.5t-22.5 36.5q-17 -34 -35 -45q-35 -23 -149 -23q-11 0 -17 11.5t-6 28.5q0 18 6 29.5t17 11.5q108 0 144 15l27 151h54q-2 -27 -2.5 -44.5t-1 -28t-0.5 -15.5v-9q0 -39 24.5 -54t55.5 -15v-81zM257 -134l-38 -64l-78 48l40 63zM51 -87
l78 -49l-40 -62l-77 47z" />
    <glyph glyph-name="uFC5E" unicode="&#xfc5e;" arabic-form="isolated" 
d="M92 0q-42 0 -63.5 8.5t-32.5 31.5q-14 -24 -33 -32t-46 -8q-32 0 -47 15t-15 37q0 21 3.5 49t7.5 66l36 -3l-10 -106q3 -3 7 -6q4 -2 10 -4t16 -2q28 0 39.5 9.5t13.5 35.5l5 44h35v-44q0 -26 18 -35.5t62 -9.5q4 23 2 49.5t-13 66.5l33 21l10 -4q7 -35 9 -52.5t2 -31.5
q0 -22 -5.5 -44.5t-22.5 -50.5h-21zM-66 336q0 -23 -16 -77l118 58q-26 14 -48.5 37.5t-22.5 47.5q0 7 2 15t12.5 21t32.5 33.5t61 52.5q36 -24 55 -54t19 -61q0 -16 -4.5 -33t-16.5 -34.5t-33.5 -34.5t-55.5 -33l-127 -62l-29 23q4 13 8 27t7 27t4.5 22.5t1.5 14.5
q0 11 -11.5 27.5t-44.5 45.5l20 40q43 -34 55.5 -59t12.5 -44zM-1 416q4 -17 25 -37.5t51 -37.5q34 28 34 60q0 43 -44 73z" />
    <glyph glyph-name="uFC5F" unicode="&#xfc5f;" arabic-form="isolated" 
d="M109 119l6 -40l-224 -89l-6 40zM109 230l6 -40l-224 -89l-6 40zM92 270q-42 0 -63.5 8.5t-32.5 31.5q-14 -24 -33 -32t-46 -8q-32 0 -47 15t-15 37q0 21 3.5 49t7.5 66l36 -3l-10 -106q3 -3 7 -6q4 -2 10 -4t16 -2q28 0 39.5 9.5t13.5 35.5l5 44h35v-44q0 -26 18 -35.5
t62 -9.5q4 23 2 49.5t-13 66.5l33 21l10 -4q7 -35 9 -52.5t2 -31.5q0 -22 -5.5 -44.5t-22.5 -50.5h-21z" />
    <glyph glyph-name="uFC60" unicode="&#xfc60;" arabic-form="isolated" 
d="M92 0q-42 0 -63.5 8.5t-32.5 31.5q-14 -24 -33 -32t-46 -8q-32 0 -47 15t-15 37q0 21 3.5 49t7.5 66l36 -3l-10 -106q3 -3 7 -6q4 -2 10 -4t16 -2q28 0 39.5 9.5t13.5 35.5l5 44h35v-44q0 -26 18 -35.5t62 -9.5q4 23 2 49.5t-13 66.5l33 21l10 -4q7 -35 9 -52.5t2 -31.5
q0 -22 -5.5 -44.5t-22.5 -50.5h-21zM109 349l6 -40l-224 -89l-6 40z" />
    <glyph glyph-name="uFC61" unicode="&#xfc61;" arabic-form="isolated" 
d="M92 0q-42 0 -63.5 8.5t-32.5 31.5q-14 -24 -33 -32t-46 -8q-32 0 -47 15t-15 37q0 21 3.5 49t7.5 66l36 -3l-10 -106q3 -3 7 -6q4 -2 10 -4t16 -2q28 0 39.5 9.5t13.5 35.5l5 44h35v-44q0 -26 18 -35.5t62 -9.5q4 23 2 49.5t-13 66.5l33 21l10 -4q7 -35 9 -52.5t2 -31.5
q0 -22 -5.5 -44.5t-22.5 -50.5h-21zM-118 240l122 59q-13 7 -25.5 16.5t-22.5 21t-16 24t-6 24.5q0 7 2 15t12.5 20.5t32.5 33t61 52.5q36 -23 55 -53.5t19 -61.5q0 -15 -4.5 -32t-16.5 -34.5t-33.5 -35t-55.5 -33.5l-117 -56zM77 384q0 41 -43 72l-67 -57q5 -17 26 -38
t51 -37q33 28 33 60z" />
    <glyph glyph-name="uFC62" unicode="&#xfc62;" arabic-form="isolated" 
d="M109 119l6 -40l-224 -89l-6 40zM92 160q-42 0 -63.5 8.5t-32.5 31.5q-14 -24 -33 -32t-46 -8q-32 0 -47 15t-15 37q0 21 3.5 49t7.5 66l36 -3l-10 -106q3 -3 7 -6q4 -2 10 -4t16 -2q28 0 39.5 9.5t13.5 35.5l5 44h35v-44q0 -26 18 -35.5t62 -9.5q4 23 2 49.5t-13 66.5
l33 21l10 -4q7 -35 9 -52.5t2 -31.5q0 -22 -5.5 -44.5t-22.5 -50.5h-21z" />
    <glyph glyph-name="uFC63" unicode="&#xfc63;" arabic-form="isolated" 
d="M92 0q-42 0 -63.5 8.5t-32.5 31.5q-14 -24 -33 -32t-46 -8q-32 0 -47 15t-15 37q0 21 3.5 49t7.5 66l36 -3l-10 -106q3 -3 7 -6q4 -2 10 -4t16 -2q28 0 39.5 9.5t13.5 35.5l5 44h35v-44q0 -26 18 -35.5t62 -9.5q4 23 2 49.5t-13 66.5l33 21l10 -4q7 -35 9 -52.5t2 -31.5
q0 -22 -5.5 -44.5t-22.5 -50.5h-21zM-14 424q14 -18 22 -33.5t12 -33t5 -38.5t1 -49v-65l-37 -15v69q0 22 -1.5 37.5t-5 28.5t-10.5 26t-18 30z" />
    <glyph glyph-name="uFC64" unicode="&#xfc64;" horiz-adv-x="497" arabic-form="final" 
d="M497 0q-38 0 -63.5 8t-42 24.5t-26 41.5t-15.5 60l-10 61q-36 -11 -78 -20.5t-81 -14.5q8 -31 13.5 -64.5t5.5 -61.5q0 -62 -20 -111t-48 -83t-58 -52t-50 -18q-8 0 -28.5 3t-65.5 13v35q40 7 76 25t64.5 44.5t48.5 58.5t28 66q-3 19 -8.5 42t-12 45.5t-14 42.5t-13.5 32
l27 50q28 3 59 8t62.5 11.5t61 14.5t54.5 16l20 -11l17 -101q8 -48 31 -66t66 -18v-81zM373 587l-12 -38h-93q-7 -16 -6 -32t9 -29t21.5 -21.5t32.5 -8.5q14 0 37 5t54 16l5 -47l-206 -75l-6 40l63 29q-25 13 -38 36.5t-13 49.5q0 18 5.5 38.5t22.5 47.5h116z" />
    <glyph glyph-name="uFC65" unicode="&#xfc65;" horiz-adv-x="497" arabic-form="final" 
d="M497 0q-38 0 -63.5 8t-42 24.5t-26 41.5t-15.5 60l-10 61q-36 -11 -78 -20.5t-81 -14.5q8 -31 13.5 -64.5t5.5 -61.5q0 -62 -20 -111t-48 -83t-58 -52t-50 -18q-8 0 -28.5 3t-65.5 13v35q40 7 76 25t64.5 44.5t48.5 58.5t28 66q-3 19 -8.5 42t-12 45.5t-14 42.5t-13.5 32
l27 50q28 3 59 8t62.5 11.5t61 14.5t54.5 16l20 -11l17 -101q8 -48 31 -66t66 -18v-81zM410 587l-12 -38h-93q-7 -16 -6 -32t9 -29t21.5 -21.5t32.5 -8.5q14 0 37 5t54 16l5 -47l-206 -75l-6 40l63 29q-25 13 -38 36.5t-13 49.5q0 18 5.5 38.5t22.5 47.5h116zM131 325
l-76 47l38 64l78 -48z" />
    <glyph glyph-name="uFC67" unicode="&#xfc67;" horiz-adv-x="864" arabic-form="final" 
d="M864 0q-38 0 -63.5 8t-42.5 24.5t-26.5 41.5t-15.5 60l-10 60q-38 -11 -82 -20.5t-85 -14.5q20 -115 20 -185q0 -36 -6.5 -64.5t-15.5 -43.5q-5 -9 -25.5 -26t-55 -33.5t-82.5 -29t-106 -12.5q-61 0 -102 12.5t-65.5 33.5t-34.5 49t-10 59q0 24 2.5 62.5t6.5 75.5
q4 43 10 90l53 -3q-3 -49 -7 -94q-3 -38 -5.5 -78.5t-3.5 -63.5q17 -26 55.5 -44t100.5 -18q33 0 67 5.5t65.5 14.5t58 22t44.5 28q-1 34 -5 70.5t-9.5 71t-12 66t-12.5 56.5l28 47q28 3 59 8t62.5 11.5t61.5 14.5t55 16l20 -11l16 -101q8 -48 31 -66t67 -18v-81zM741 587
l-12 -38h-93q-7 -16 -6 -32t9 -29t21.5 -21.5t32.5 -8.5q14 0 37 5t54 16l5 -47l-206 -75l-6 40l63 29q-25 13 -38 36.5t-13 49.5q0 18 5.5 38.5t22.5 47.5h116zM296 230l-76 47l38 64l78 -48z" />
    <glyph glyph-name="uFC68" unicode="&#xfc68;" horiz-adv-x="822" arabic-form="final" 
d="M795 0q-44 0 -78 14.5t-61 38t-48 51.5t-39.5 55.5t-34.5 50.5t-33 36q-29 0 -59 -14t-56.5 -37t-45.5 -53t-26 -61q5 -5 15.5 -8.5t30 -7t50 -7.5t75.5 -8q31 -4 49.5 -10t28.5 -15.5t13 -22t3 -28.5q0 -36 -7.5 -69t-14.5 -44q-5 -9 -26 -26t-57 -33.5t-86 -29
t-114 -12.5q-62 0 -103 12.5t-66 33.5t-35 49t-10 59q0 24 2.5 62.5t6.5 75.5q4 43 10 90l53 -3q-3 -49 -7 -94q-3 -38 -5.5 -78.5t-3.5 -63.5q17 -26 55.5 -44t102.5 -18q74 0 138 17.5t104 44.5q4 16 5 30t0 31q-8 3 -22.5 5.5t-33 4t-39 3t-41.5 3.5q-35 4 -58 10.5
t-37 17t-20 25.5t-6 36q0 43 21 87.5t56 81t79.5 60t92.5 23.5q17 0 32.5 -18t33 -44.5t38 -57.5t47.5 -57.5t61.5 -44.5t79.5 -18h17v-81h-27zM549 627l-12 -38h-93q-7 -16 -6 -32t9 -29t21.5 -21.5t32.5 -8.5q14 0 37 5t54 16l5 -47l-206 -75l-6 40l63 29q-25 13 -38 36.5
t-13 49.5q0 18 5.5 38.5t22.5 47.5h116z" />
    <glyph glyph-name="uFC6A" unicode="&#xfc6a;" horiz-adv-x="497" arabic-form="final" 
d="M497 0q-38 0 -63.5 8t-42 24.5t-26 41.5t-15.5 60l-10 61q-36 -11 -78 -20.5t-81 -14.5q8 -31 13.5 -64.5t5.5 -61.5q0 -62 -20 -111t-48 -83t-58 -52t-50 -18q-8 0 -28.5 3t-65.5 13v35q40 7 76 25t64.5 44.5t48.5 58.5t28 66q-3 19 -8.5 42t-12 45.5t-14 42.5t-13.5 32
l27 50q28 3 59 8t62.5 11.5t61 14.5t54.5 16l20 -11l17 -101q8 -48 31 -66t66 -18v-81zM413 -136l-40 -62l-76 47l38 64z" />
    <glyph glyph-name="uFC6B" unicode="&#xfc6b;" horiz-adv-x="497" arabic-form="final" 
d="M497 0q-38 0 -63.5 8t-42 24.5t-26 41.5t-15.5 60l-10 61q-36 -11 -78 -20.5t-81 -14.5q8 -31 13.5 -64.5t5.5 -61.5q0 -62 -20 -111t-48 -83t-58 -52t-50 -18q-8 0 -28.5 3t-65.5 13v35q40 7 76 25t64.5 44.5t48.5 58.5t28 66q-3 19 -8.5 42t-12 45.5t-14 42.5t-13.5 32
l27 50q28 3 59 8t62.5 11.5t61 14.5t54.5 16l20 -11l17 -101q8 -48 31 -66t66 -18v-81zM131 325l-76 47l38 64l78 -48zM413 -136l-40 -62l-76 47l38 64z" />
    <glyph glyph-name="uFC6D" unicode="&#xfc6d;" horiz-adv-x="864" arabic-form="final" 
d="M864 0q-38 0 -63.5 8t-42.5 24.5t-26.5 41.5t-15.5 60l-10 60q-38 -11 -82 -20.5t-85 -14.5q20 -115 20 -185q0 -36 -6.5 -64.5t-15.5 -43.5q-5 -9 -25.5 -26t-55 -33.5t-82.5 -29t-106 -12.5q-61 0 -102 12.5t-65.5 33.5t-34.5 49t-10 59q0 24 2.5 62.5t6.5 75.5
q4 43 10 90l53 -3q-3 -49 -7 -94q-3 -38 -5.5 -78.5t-3.5 -63.5q17 -26 55.5 -44t100.5 -18q33 0 67 5.5t65.5 14.5t58 22t44.5 28q-1 34 -5 70.5t-9.5 71t-12 66t-12.5 56.5l28 47q28 3 59 8t62.5 11.5t61.5 14.5t55 16l20 -11l16 -101q8 -48 31 -66t67 -18v-81zM296 230
l-76 47l38 64l78 -48zM814 -136l-40 -62l-76 47l38 64z" />
    <glyph glyph-name="uFC70" unicode="&#xfc70;" horiz-adv-x="497" arabic-form="final" 
d="M497 0q-38 0 -63.5 8t-42 24.5t-26 41.5t-15.5 60l-10 61q-36 -11 -78 -20.5t-81 -14.5q8 -31 13.5 -64.5t5.5 -61.5q0 -62 -20 -111t-48 -83t-58 -52t-50 -18q-8 0 -28.5 3t-65.5 13v35q40 7 76 25t64.5 44.5t48.5 58.5t28 66q-3 19 -8.5 42t-12 45.5t-14 42.5t-13.5 32
l27 50q28 3 59 8t62.5 11.5t61 14.5t54.5 16l20 -11l17 -101q8 -48 31 -66t66 -18v-81zM231 478l78 -48l-40 -63l-77 47zM321 415l40 63l76 -47l-38 -64z" />
    <glyph glyph-name="uFC71" unicode="&#xfc71;" horiz-adv-x="497" arabic-form="final" 
d="M497 0q-38 0 -63.5 8t-42 24.5t-26 41.5t-15.5 60l-10 61q-36 -11 -78 -20.5t-81 -14.5q8 -31 13.5 -64.5t5.5 -61.5q0 -62 -20 -111t-48 -83t-58 -52t-50 -18q-8 0 -28.5 3t-65.5 13v35q40 7 76 25t64.5 44.5t48.5 58.5t28 66q-3 19 -8.5 42t-12 45.5t-14 42.5t-13.5 32
l27 50q28 3 59 8t62.5 11.5t61 14.5t54.5 16l20 -11l17 -101q8 -48 31 -66t66 -18v-81zM268 478l78 -48l-40 -63l-77 47zM358 415l40 63l76 -47l-38 -64zM131 325l-76 47l38 64l78 -48z" />
    <glyph glyph-name="uFC73" unicode="&#xfc73;" horiz-adv-x="864" arabic-form="final" 
d="M864 0q-38 0 -63.5 8t-42.5 24.5t-26.5 41.5t-15.5 60l-10 60q-38 -11 -82 -20.5t-85 -14.5q20 -115 20 -185q0 -36 -6.5 -64.5t-15.5 -43.5q-5 -9 -25.5 -26t-55 -33.5t-82.5 -29t-106 -12.5q-61 0 -102 12.5t-65.5 33.5t-34.5 49t-10 59q0 24 2.5 62.5t6.5 75.5
q4 43 10 90l53 -3q-3 -49 -7 -94q-3 -38 -5.5 -78.5t-3.5 -63.5q17 -26 55.5 -44t100.5 -18q33 0 67 5.5t65.5 14.5t58 22t44.5 28q-1 34 -5 70.5t-9.5 71t-12 66t-12.5 56.5l28 47q28 3 59 8t62.5 11.5t61.5 14.5t55 16l20 -11l16 -101q8 -48 31 -66t67 -18v-81zM599 478
l78 -48l-40 -63l-77 47zM689 415l40 63l76 -47l-38 -64zM296 230l-76 47l38 64l78 -48z" />
    <glyph glyph-name="uFC74" unicode="&#xfc74;" horiz-adv-x="822" arabic-form="final" 
d="M795 0q-44 0 -78 14.5t-61 38t-48 51.5t-39.5 55.5t-34.5 50.5t-33 36q-29 0 -59 -14t-56.5 -37t-45.5 -53t-26 -61q5 -5 15.5 -8.5t30 -7t50 -7.5t75.5 -8q31 -4 49.5 -10t28.5 -15.5t13 -22t3 -28.5q0 -36 -7.5 -69t-14.5 -44q-5 -9 -26 -26t-57 -33.5t-86 -29
t-114 -12.5q-62 0 -103 12.5t-66 33.5t-35 49t-10 59q0 24 2.5 62.5t6.5 75.5q4 43 10 90l53 -3q-3 -49 -7 -94q-3 -38 -5.5 -78.5t-3.5 -63.5q17 -26 55.5 -44t102.5 -18q74 0 138 17.5t104 44.5q4 16 5 30t0 31q-8 3 -22.5 5.5t-33 4t-39 3t-41.5 3.5q-35 4 -58 10.5
t-37 17t-20 25.5t-6 36q0 43 21 87.5t56 81t79.5 60t92.5 23.5q17 0 32.5 -18t33 -44.5t38 -57.5t47.5 -57.5t61.5 -44.5t79.5 -18h17v-81h-27zM407 518l78 -48l-40 -63l-77 47zM497 455l40 63l76 -47l-38 -64z" />
    <glyph glyph-name="uFC76" unicode="&#xfc76;" horiz-adv-x="497" arabic-form="final" 
d="M497 0q-38 0 -63.5 8t-42 24.5t-26 41.5t-15.5 60l-10 61q-36 -11 -78 -20.5t-81 -14.5q8 -31 13.5 -64.5t5.5 -61.5q0 -62 -20 -111t-48 -83t-58 -52t-50 -18q-8 0 -28.5 3t-65.5 13v35q40 7 76 25t64.5 44.5t48.5 58.5t28 66q-3 19 -8.5 42t-12 45.5t-14 42.5t-13.5 32
l27 50q28 3 59 8t62.5 11.5t61 14.5t54.5 16l20 -11l17 -101q8 -48 31 -66t66 -18v-81zM277 601l77 -48l-39 -64l-78 49zM231 478l78 -48l-40 -63l-77 47zM321 415l40 63l76 -47l-38 -64z" />
    <glyph glyph-name="uFC77" unicode="&#xfc77;" horiz-adv-x="864" arabic-form="final" 
d="M864 0q-38 0 -63.5 8t-42.5 24.5t-26.5 41.5t-15.5 60l-10 60q-38 -11 -82 -20.5t-85 -14.5q20 -115 20 -185q0 -36 -6.5 -64.5t-15.5 -43.5q-5 -9 -25.5 -26t-55 -33.5t-82.5 -29t-106 -12.5q-61 0 -102 12.5t-65.5 33.5t-34.5 49t-10 59q0 24 2.5 62.5t6.5 75.5
q4 43 10 90l53 -3q-3 -49 -7 -94q-3 -38 -5.5 -78.5t-3.5 -63.5q17 -26 55.5 -44t100.5 -18q33 0 67 5.5t65.5 14.5t58 22t44.5 28q-1 34 -5 70.5t-9.5 71t-12 66t-12.5 56.5l28 47q28 3 59 8t62.5 11.5t61.5 14.5t55 16l20 -11l16 -101q8 -48 31 -66t67 -18v-81zM645 601
l77 -48l-39 -64l-78 49zM599 478l78 -48l-40 -63l-77 47zM689 415l40 63l76 -47l-38 -64zM296 230l-76 47l38 64l78 -48z" />
    <glyph glyph-name="uFC7A" unicode="&#xfc7a;" horiz-adv-x="822" arabic-form="final" 
d="M795 0q-44 0 -78 14.5t-61 38t-48 51.5t-39.5 55.5t-34.5 50.5t-33 36q-29 0 -59 -14t-56.5 -37t-45.5 -53t-26 -61q5 -5 15.5 -8.5t30 -7t50 -7.5t75.5 -8q31 -4 49.5 -10t28.5 -15.5t13 -22t3 -28.5q0 -36 -7.5 -69t-14.5 -44q-5 -9 -26 -26t-57 -33.5t-86 -29
t-114 -12.5q-62 0 -103 12.5t-66 33.5t-35 49t-10 59q0 24 2.5 62.5t6.5 75.5q4 43 10 90l53 -3q-3 -49 -7 -94q-3 -38 -5.5 -78.5t-3.5 -63.5q17 -26 55.5 -44t102.5 -18q74 0 138 17.5t104 44.5q4 16 5 30t0 31q-8 3 -22.5 5.5t-33 4t-39 3t-41.5 3.5q-35 4 -58 10.5
t-37 17t-20 25.5t-6 36q0 43 21 87.5t56 81t79.5 60t92.5 23.5q17 0 32.5 -18t33 -44.5t38 -57.5t47.5 -57.5t61.5 -44.5t79.5 -18h17v-81h-27zM453 641l77 -48l-39 -64l-78 49zM407 518l78 -48l-40 -63l-77 47zM497 455l40 63l76 -47l-38 -64z" />
    <glyph glyph-name="uFC8A" unicode="&#xfc8a;" horiz-adv-x="497" arabic-form="final" 
d="M497 0q-38 0 -63.5 8t-42 24.5t-26 41.5t-15.5 60l-10 61q-36 -11 -78 -20.5t-81 -14.5q8 -31 13.5 -64.5t5.5 -61.5q0 -62 -20 -111t-48 -83t-58 -52t-50 -18q-8 0 -28.5 3t-65.5 13v35q40 7 76 25t64.5 44.5t48.5 58.5t28 66q-3 19 -8.5 42t-12 45.5t-14 42.5t-13.5 32
l27 50q28 3 59 8t62.5 11.5t61 14.5t54.5 16l20 -11l17 -101q8 -48 31 -66t66 -18v-81zM255 414l38 64l78 -48l-40 -63z" />
    <glyph glyph-name="uFC8B" unicode="&#xfc8b;" horiz-adv-x="497" arabic-form="final" 
d="M497 0q-38 0 -63.5 8t-42 24.5t-26 41.5t-15.5 60l-10 61q-36 -11 -78 -20.5t-81 -14.5q8 -31 13.5 -64.5t5.5 -61.5q0 -62 -20 -111t-48 -83t-58 -52t-50 -18q-8 0 -28.5 3t-65.5 13v35q40 7 76 25t64.5 44.5t48.5 58.5t28 66q-3 19 -8.5 42t-12 45.5t-14 42.5t-13.5 32
l27 50q28 3 59 8t62.5 11.5t61 14.5t54.5 16l20 -11l17 -101q8 -48 31 -66t66 -18v-81zM292 414l38 64l78 -48l-40 -63zM131 325l-76 47l38 64l78 -48z" />
    <glyph glyph-name="uFC8D" unicode="&#xfc8d;" horiz-adv-x="864" arabic-form="final" 
d="M864 0q-38 0 -63.5 8t-42.5 24.5t-26.5 41.5t-15.5 60l-10 60q-38 -11 -82 -20.5t-85 -14.5q20 -115 20 -185q0 -36 -6.5 -64.5t-15.5 -43.5q-5 -9 -25.5 -26t-55 -33.5t-82.5 -29t-106 -12.5q-61 0 -102 12.5t-65.5 33.5t-34.5 49t-10 59q0 24 2.5 62.5t6.5 75.5
q4 43 10 90l53 -3q-3 -49 -7 -94q-3 -38 -5.5 -78.5t-3.5 -63.5q17 -26 55.5 -44t100.5 -18q33 0 67 5.5t65.5 14.5t58 22t44.5 28q-1 34 -5 70.5t-9.5 71t-12 66t-12.5 56.5l28 47q28 3 59 8t62.5 11.5t61.5 14.5t55 16l20 -11l16 -101q8 -48 31 -66t67 -18v-81zM623 414
l38 64l78 -48l-40 -63zM296 230l-76 47l38 64l78 -48z" />
    <glyph glyph-name="uFC8E" unicode="&#xfc8e;" horiz-adv-x="822" arabic-form="final" 
d="M795 0q-44 0 -78 14.5t-61 38t-48 51.5t-39.5 55.5t-34.5 50.5t-33 36q-29 0 -59 -14t-56.5 -37t-45.5 -53t-26 -61q5 -5 15.5 -8.5t30 -7t50 -7.5t75.5 -8q31 -4 49.5 -10t28.5 -15.5t13 -22t3 -28.5q0 -36 -7.5 -69t-14.5 -44q-5 -9 -26 -26t-57 -33.5t-86 -29
t-114 -12.5q-62 0 -103 12.5t-66 33.5t-35 49t-10 59q0 24 2.5 62.5t6.5 75.5q4 43 10 90l53 -3q-3 -49 -7 -94q-3 -38 -5.5 -78.5t-3.5 -63.5q17 -26 55.5 -44t102.5 -18q74 0 138 17.5t104 44.5q4 16 5 30t0 31q-8 3 -22.5 5.5t-33 4t-39 3t-41.5 3.5q-35 4 -58 10.5
t-37 17t-20 25.5t-6 36q0 43 21 87.5t56 81t79.5 60t92.5 23.5q17 0 32.5 -18t33 -44.5t38 -57.5t47.5 -57.5t61.5 -44.5t79.5 -18h17v-81h-27zM431 454l38 64l78 -48l-40 -63z" />
    <glyph glyph-name="uFC91" unicode="&#xfc91;" horiz-adv-x="497" arabic-form="final" 
d="M497 0q-38 0 -63.5 8t-42 24.5t-26 41.5t-15.5 60l-10 61q-36 -11 -78 -20.5t-81 -14.5q8 -31 13.5 -64.5t5.5 -61.5q0 -62 -20 -111t-48 -83t-58 -52t-50 -18q-8 0 -28.5 3t-65.5 13v35q40 7 76 25t64.5 44.5t48.5 58.5t28 66q-3 19 -8.5 42t-12 45.5t-14 42.5t-13.5 32
l27 50q28 3 59 8t62.5 11.5t61 14.5t54.5 16l20 -11l17 -101q8 -48 31 -66t66 -18v-81zM273 -87l78 -49l-40 -62l-77 47zM479 -134l-38 -64l-78 48l40 63z" />
    <glyph glyph-name="uFC92" unicode="&#xfc92;" horiz-adv-x="497" arabic-form="final" 
d="M497 0q-38 0 -63.5 8t-42 24.5t-26 41.5t-15.5 60l-10 61q-36 -11 -78 -20.5t-81 -14.5q8 -31 13.5 -64.5t5.5 -61.5q0 -62 -20 -111t-48 -83t-58 -52t-50 -18q-8 0 -28.5 3t-65.5 13v35q40 7 76 25t64.5 44.5t48.5 58.5t28 66q-3 19 -8.5 42t-12 45.5t-14 42.5t-13.5 32
l27 50q28 3 59 8t62.5 11.5t61 14.5t54.5 16l20 -11l17 -101q8 -48 31 -66t66 -18v-81zM273 -87l78 -49l-40 -62l-77 47zM479 -134l-38 -64l-78 48l40 63zM131 325l-76 47l38 64l78 -48z" />
    <glyph glyph-name="uFC94" unicode="&#xfc94;" horiz-adv-x="864" arabic-form="final" 
d="M864 0q-38 0 -63.5 8t-42.5 24.5t-26.5 41.5t-15.5 60l-10 60q-38 -11 -82 -20.5t-85 -14.5q20 -115 20 -185q0 -36 -6.5 -64.5t-15.5 -43.5q-5 -9 -25.5 -26t-55 -33.5t-82.5 -29t-106 -12.5q-61 0 -102 12.5t-65.5 33.5t-34.5 49t-10 59q0 24 2.5 62.5t6.5 75.5
q4 43 10 90l53 -3q-3 -49 -7 -94q-3 -38 -5.5 -78.5t-3.5 -63.5q17 -26 55.5 -44t100.5 -18q33 0 67 5.5t65.5 14.5t58 22t44.5 28q-1 34 -5 70.5t-9.5 71t-12 66t-12.5 56.5l28 47q28 3 59 8t62.5 11.5t61.5 14.5t55 16l20 -11l16 -101q8 -48 31 -66t67 -18v-81zM674 -87
l78 -49l-40 -62l-77 47zM880 -134l-38 -64l-78 48l40 63zM296 230l-76 47l38 64l78 -48z" />
    <glyph glyph-name="uFCFB" unicode="&#xfcfb;" horiz-adv-x="1214" arabic-form="isolated" 
d="M997 0q-14 0 -28 2.5t-27.5 9t-25.5 19t-21 32.5q-8 -15 -14.5 -25t-16.5 -16q-14 -9 -38 -15.5t-54 -6.5q-38 0 -67.5 14.5t-54 38t-44.5 51.5t-37.5 55.5t-34 50.5t-33.5 36q-29 0 -59 -14t-56.5 -37t-45.5 -53t-26 -61q5 -5 15.5 -8.5t30 -7t50 -7.5t75.5 -8
q31 -4 49.5 -10t28.5 -15.5t13 -22t3 -28.5q0 -36 -7.5 -69t-14.5 -44q-5 -9 -26 -26t-57 -33.5t-86 -29t-114 -12.5q-62 0 -103 12.5t-66 33.5t-35 49t-10 59q0 24 2.5 62.5t6.5 75.5q4 43 10 90l53 -3q-3 -49 -7 -94q-3 -38 -5.5 -78.5t-3.5 -63.5q17 -26 55.5 -44
t102.5 -18q74 0 138 17.5t104 44.5q4 16 5 30t0 31q-8 3 -22.5 5.5t-33 4t-39 3t-41.5 3.5q-35 4 -58 10.5t-37 17t-20 25.5t-6 36q0 43 21 87.5t56 81t79.5 60t92.5 23.5q17 0 33 -18t33 -44.5t36.5 -57.5t43 -57.5t52.5 -44.5t66 -18q50 0 82 14l27 150h50
q-2 -27 -2.5 -43.5t-1 -27t-0.5 -16v-8.5q0 -38 22 -53.5t48 -15.5t53.5 6.5t44.5 15.5q-1 19 -5 42.5t-9.5 48.5t-13 50t-16.5 48l49 40l16 -6q14 -41 23.5 -86t9.5 -90q0 -24 -5.5 -45t-14 -37.5t-18.5 -28t-19 -15.5q-37 -24 -100 -24z" />
    <glyph glyph-name="uFCFD" unicode="&#xfcfd;" horiz-adv-x="1214" arabic-form="isolated" 
d="M997 0q-14 0 -28 2.5t-27.5 9t-25.5 19t-21 32.5q-8 -15 -14.5 -25t-16.5 -16q-14 -9 -38 -15.5t-54 -6.5q-38 0 -67.5 14.5t-54 38t-44.5 51.5t-37.5 55.5t-34 50.5t-33.5 36q-29 0 -59 -14t-56.5 -37t-45.5 -53t-26 -61q5 -5 15.5 -8.5t30 -7t50 -7.5t75.5 -8
q31 -4 49.5 -10t28.5 -15.5t13 -22t3 -28.5q0 -36 -7.5 -69t-14.5 -44q-5 -9 -26 -26t-57 -33.5t-86 -29t-114 -12.5q-62 0 -103 12.5t-66 33.5t-35 49t-10 59q0 24 2.5 62.5t6.5 75.5q4 43 10 90l53 -3q-3 -49 -7 -94q-3 -38 -5.5 -78.5t-3.5 -63.5q17 -26 55.5 -44
t102.5 -18q74 0 138 17.5t104 44.5q4 16 5 30t0 31q-8 3 -22.5 5.5t-33 4t-39 3t-41.5 3.5q-35 4 -58 10.5t-37 17t-20 25.5t-6 36q0 43 21 87.5t56 81t79.5 60t92.5 23.5q17 0 33 -18t33 -44.5t36.5 -57.5t43 -57.5t52.5 -44.5t66 -18q50 0 82 14l27 150h50
q-2 -27 -2.5 -43.5t-1 -27t-0.5 -16v-8.5q0 -38 22 -53.5t48 -15.5t53.5 6.5t44.5 15.5q-1 19 -5 42.5t-9.5 48.5t-13 50t-16.5 48l49 40l16 -6q14 -41 23.5 -86t9.5 -90q0 -24 -5.5 -45t-14 -37.5t-18.5 -28t-19 -15.5q-37 -24 -100 -24zM854 566l77 -48l-39 -64l-78 49z
M808 443l78 -48l-40 -63l-77 47zM898 380l40 63l76 -47l-38 -64z" />
    <glyph glyph-name="uFD05" unicode="&#xfd05;" horiz-adv-x="1161" arabic-form="isolated" 
d="M799 0q-46 0 -81 14.5t-62.5 38t-48.5 51.5t-39 55.5t-34 50.5t-33 36q-29 0 -59 -14t-56.5 -37t-45.5 -53t-26 -61q5 -5 15.5 -8.5t30 -7t50 -7.5t75.5 -8q31 -4 49.5 -10t28.5 -15.5t13 -22t3 -28.5q0 -36 -7.5 -69t-14.5 -44q-5 -9 -26 -26t-57 -33.5t-86 -29
t-114 -12.5q-62 0 -103 12.5t-66 33.5t-35 49t-10 59q0 24 2.5 62.5t6.5 75.5q4 43 10 90l53 -3q-3 -49 -7 -94q-3 -38 -5.5 -78.5t-3.5 -63.5q17 -26 55.5 -44t102.5 -18q74 0 138 17.5t104 44.5q4 16 5 30t0 31q-8 3 -22.5 5.5t-33 4t-39 3t-41.5 3.5q-35 4 -58 10.5
t-37 17t-20 25.5t-6 36q0 43 21 87.5t56 81t79.5 60t92.5 23.5q18 0 33.5 -19t33.5 -47t39.5 -60t50.5 -59q87 74 138 116.5t80 64t42 27t22 5.5q24 0 50.5 -14t48 -40.5t36 -63.5t14.5 -83q0 -15 -4 -33t-12 -35.5t-19.5 -31.5t-25.5 -20q-60 -28 -197 -28h-44zM933 270
q-9 0 -24.5 -8.5t-41.5 -28t-63.5 -51t-91.5 -76.5q20 -11 44 -18t53 -7h62q65 0 106.5 6t67.5 19q1 32 -10 62t-28.5 52.5t-37.5 36t-36 13.5z" />
    <glyph glyph-name="uFD07" unicode="&#xfd07;" horiz-adv-x="1161" arabic-form="isolated" 
d="M799 0q-46 0 -81 14.5t-62.5 38t-48.5 51.5t-39 55.5t-34 50.5t-33 36q-29 0 -59 -14t-56.5 -37t-45.5 -53t-26 -61q5 -5 15.5 -8.5t30 -7t50 -7.5t75.5 -8q31 -4 49.5 -10t28.5 -15.5t13 -22t3 -28.5q0 -36 -7.5 -69t-14.5 -44q-5 -9 -26 -26t-57 -33.5t-86 -29
t-114 -12.5q-62 0 -103 12.5t-66 33.5t-35 49t-10 59q0 24 2.5 62.5t6.5 75.5q4 43 10 90l53 -3q-3 -49 -7 -94q-3 -38 -5.5 -78.5t-3.5 -63.5q17 -26 55.5 -44t102.5 -18q74 0 138 17.5t104 44.5q4 16 5 30t0 31q-8 3 -22.5 5.5t-33 4t-39 3t-41.5 3.5q-35 4 -58 10.5
t-37 17t-20 25.5t-6 36q0 43 21 87.5t56 81t79.5 60t92.5 23.5q18 0 33.5 -19t33.5 -47t39.5 -60t50.5 -59q87 74 138 116.5t80 64t42 27t22 5.5q24 0 50.5 -14t48 -40.5t36 -63.5t14.5 -83q0 -15 -4 -33t-12 -35.5t-19.5 -31.5t-25.5 -20q-60 -28 -197 -28h-44zM933 270
q-9 0 -24.5 -8.5t-41.5 -28t-63.5 -51t-91.5 -76.5q20 -11 44 -18t53 -7h62q65 0 106.5 6t67.5 19q1 32 -10 62t-28.5 52.5t-37.5 36t-36 13.5zM881 478l38 64l78 -48l-40 -63z" />
    <glyph glyph-name="uFD0D" unicode="&#xfd0d;" horiz-adv-x="931" arabic-form="isolated" 
d="M714 0q-28 0 -55.5 11.5t-45.5 51.5q-10 -19 -20.5 -31t-25 -19t-33 -10t-44.5 -3q-35 0 -59 8t-40 24.5t-25.5 41.5t-15.5 60l-11 67q-38 -5 -80 -13.5t-80 -19.5q8 -32 14.5 -68t6.5 -66q0 -62 -20 -111t-48 -83t-58 -52t-50 -18q-8 0 -28.5 3t-65.5 13v35q40 7 76 25
t64.5 44.5t48.5 58.5t28 66q-3 19 -8.5 42t-12 45.5t-14 42.5t-13.5 32l27 50q25 9 54.5 17t61 14.5t62.5 11.5t59 7l20 -11l17 -101q8 -48 30.5 -66t64.5 -18q23 0 44 3t38 11l26 150h50q-2 -27 -2.5 -43.5t-1 -27t-0.5 -16v-8.5q0 -38 22 -53.5t49 -15.5q26 0 52.5 6.5
t44.5 15.5q-1 19 -5 42.5t-9.5 48.5t-13 50t-16.5 48l50 40l16 -6q14 -41 23 -86t9 -90q0 -24 -5.5 -45t-14 -37.5t-18.5 -27.5t-18 -16q-20 -12 -44 -18t-57 -6zM571 566l77 -48l-39 -64l-78 49zM525 443l78 -48l-40 -63l-77 47zM615 380l40 63l76 -47l-38 -64zM131 325
l-76 47l38 64l78 -48z" />
    <glyph glyph-name="uFD0E" unicode="&#xfd0e;" horiz-adv-x="931" arabic-form="isolated" 
d="M714 0q-28 0 -55.5 11.5t-45.5 51.5q-10 -19 -20.5 -31t-25 -19t-33 -10t-44.5 -3q-35 0 -59 8t-40 24.5t-25.5 41.5t-15.5 60l-11 67q-38 -5 -80 -13.5t-80 -19.5q8 -32 14.5 -68t6.5 -66q0 -62 -20 -111t-48 -83t-58 -52t-50 -18q-8 0 -28.5 3t-65.5 13v35q40 7 76 25
t64.5 44.5t48.5 58.5t28 66q-3 19 -8.5 42t-12 45.5t-14 42.5t-13.5 32l27 50q25 9 54.5 17t61 14.5t62.5 11.5t59 7l20 -11l17 -101q8 -48 30.5 -66t64.5 -18q23 0 44 3t38 11l26 150h50q-2 -27 -2.5 -43.5t-1 -27t-0.5 -16v-8.5q0 -38 22 -53.5t49 -15.5q26 0 52.5 6.5
t44.5 15.5q-1 19 -5 42.5t-9.5 48.5t-13 50t-16.5 48l50 40l16 -6q14 -41 23 -86t9 -90q0 -24 -5.5 -45t-14 -37.5t-18.5 -27.5t-18 -16q-20 -12 -44 -18t-57 -6zM131 325l-76 47l38 64l78 -48z" />
    <glyph glyph-name="uFD0F" unicode="&#xfd0f;" horiz-adv-x="915" arabic-form="isolated" 
d="M490 0q-35 0 -59 8t-40 24.5t-25.5 41.5t-15.5 60l-11 67q-38 -5 -80 -13.5t-80 -19.5q8 -32 14.5 -68t6.5 -66q0 -62 -20 -111t-48 -83t-58 -52t-50 -18q-8 0 -28.5 3t-65.5 13v35q40 7 76 25t64.5 44.5t48.5 58.5t28 66q-3 19 -8.5 42t-12 45.5t-14 42.5t-13.5 32
l27 50q25 9 54.5 17t61 14.5t62.5 11.5t59 7l20 -11l17 -101q3 -22 11 -40q91 78 145 122.5t84 67t43 28.5t22 6q24 0 50.5 -14t48.5 -40.5t36.5 -63.5t14.5 -83q0 -15 -4.5 -33t-12.5 -35.5t-19 -31.5t-25 -20q-60 -28 -198 -28h-106zM687 270q-9 0 -26 -9.5t-45 -31
t-69.5 -56t-100.5 -84.5q17 -8 48 -8h130q30 0 60.5 1.5t56 5.5t41.5 10t16 15q0 31 -11.5 59.5t-28 50t-36 34.5t-35.5 13zM131 325l-76 47l38 64l78 -48z" />
    <glyph glyph-name="uFD10" unicode="&#xfd10;" horiz-adv-x="915" arabic-form="isolated" 
d="M490 0q-35 0 -59 8t-40 24.5t-25.5 41.5t-15.5 60l-11 67q-38 -5 -80 -13.5t-80 -19.5q8 -32 14.5 -68t6.5 -66q0 -62 -20 -111t-48 -83t-58 -52t-50 -18q-8 0 -28.5 3t-65.5 13v35q40 7 76 25t64.5 44.5t48.5 58.5t28 66q-3 19 -8.5 42t-12 45.5t-14 42.5t-13.5 32
l27 50q25 9 54.5 17t61 14.5t62.5 11.5t59 7l20 -11l17 -101q3 -22 11 -40q91 78 145 122.5t84 67t43 28.5t22 6q24 0 50.5 -14t48.5 -40.5t36.5 -63.5t14.5 -83q0 -15 -4.5 -33t-12.5 -35.5t-19 -31.5t-25 -20q-60 -28 -198 -28h-106zM687 270q-9 0 -26 -9.5t-45 -31
t-69.5 -56t-100.5 -84.5q17 -8 48 -8h130q30 0 60.5 1.5t56 5.5t41.5 10t16 15q0 31 -11.5 59.5t-28 50t-36 34.5t-35.5 13zM131 325l-76 47l38 64l78 -48zM634 478l38 64l78 -48l-40 -63z" />
    <glyph glyph-name="uFD17" unicode="&#xfd17;" horiz-adv-x="1224" arabic-form="final" 
d="M1224 0q-34 0 -64 12t-47 55q-9 -17 -16.5 -28.5t-16.5 -16.5q-13 -9 -35 -15.5t-48 -6.5q-14 0 -28 2.5t-27.5 9t-25.5 19t-21 32.5q-8 -15 -14.5 -25t-16.5 -16q-14 -9 -38 -15.5t-54 -6.5q-38 0 -67.5 14.5t-54 38t-44.5 51.5t-37.5 55.5t-34 50.5t-33.5 36
q-29 0 -59 -14t-56.5 -37t-45.5 -53t-26 -61q5 -5 15.5 -8.5t30 -7t50 -7.5t75.5 -8q31 -4 49.5 -10t28.5 -15.5t13 -22t3 -28.5q0 -36 -7.5 -69t-14.5 -44q-5 -9 -26 -26t-57 -33.5t-86 -29t-114 -12.5q-62 0 -103 12.5t-66 33.5t-35 49t-10 59q0 24 2.5 62.5t6.5 75.5
q4 43 10 90l53 -3q-3 -49 -7 -94q-3 -38 -5.5 -78.5t-3.5 -63.5q17 -26 55.5 -44t102.5 -18q74 0 138 17.5t104 44.5q4 16 5 30t0 31q-8 3 -22.5 5.5t-33 4t-39 3t-41.5 3.5q-35 4 -58 10.5t-37 17t-20 25.5t-6 36q0 43 21 87.5t56 81t79.5 60t92.5 23.5q17 0 33 -18
t33 -44.5t36.5 -57.5t43 -57.5t52.5 -44.5t66 -18q50 0 82 14l27 150h50q-2 -27 -2.5 -43.5t-1 -27t-0.5 -16v-8.5q0 -38 22 -53.5t48 -15.5q23 0 41 4.5t30 9.5q5 23 9.5 53t8.5 57q4 32 9 65h51q-1 -33 -2 -54.5t-1.5 -35t-0.5 -20.5v-10q0 -35 21 -52t56 -17v-81v0z" />
    <glyph glyph-name="uFD21" unicode="&#xfd21;" horiz-adv-x="1182" arabic-form="final" 
d="M1172 0q-27 0 -57 7.5t-52 37.5q-11 -12 -23 -17q-60 -28 -197 -28h-44q-46 0 -81 14.5t-62.5 38t-48.5 51.5t-39 55.5t-34 50.5t-33 36q-29 0 -59 -14t-56.5 -37t-45.5 -53t-26 -61q5 -5 15.5 -8.5t30 -7t50 -7.5t75.5 -8q31 -4 49.5 -10t28.5 -15.5t13 -22t3 -28.5
q0 -36 -7.5 -69t-14.5 -44q-5 -9 -26 -26t-57 -33.5t-86 -29t-114 -12.5q-62 0 -103 12.5t-66 33.5t-35 49t-10 59q0 24 2.5 62.5t6.5 75.5q4 43 10 90l53 -3q-3 -49 -7 -94q-3 -38 -5.5 -78.5t-3.5 -63.5q17 -26 55.5 -44t102.5 -18q74 0 138 17.5t104 44.5q4 16 5 30t0 31
q-8 3 -22.5 5.5t-33 4t-39 3t-41.5 3.5q-35 4 -58 10.5t-37 17t-20 25.5t-6 36q0 43 21 87.5t56 81t79.5 60t92.5 23.5q18 0 33.5 -19t33.5 -47t39.5 -60t50.5 -59q87 74 138 116.5t80 64t42 27t22 5.5q24 0 50.5 -14t48 -40.5t36 -63.5t14.5 -83q0 -12 -2.5 -25.5
t-7.5 -27.5q14 -8 33.5 -11t47.5 -3h10v-81h-10zM933 270q-9 0 -24.5 -8.5t-41.5 -28t-63.5 -51t-91.5 -76.5q20 -11 44 -18t53 -7h62q65 0 106.5 6t67.5 19q1 32 -10 62t-28.5 52.5t-37.5 36t-36 13.5z" />
    <glyph glyph-name="uFD23" unicode="&#xfd23;" horiz-adv-x="1182" arabic-form="final" 
d="M1172 0q-27 0 -57 7.5t-52 37.5q-11 -12 -23 -17q-60 -28 -197 -28h-44q-46 0 -81 14.5t-62.5 38t-48.5 51.5t-39 55.5t-34 50.5t-33 36q-29 0 -59 -14t-56.5 -37t-45.5 -53t-26 -61q5 -5 15.5 -8.5t30 -7t50 -7.5t75.5 -8q31 -4 49.5 -10t28.5 -15.5t13 -22t3 -28.5
q0 -36 -7.5 -69t-14.5 -44q-5 -9 -26 -26t-57 -33.5t-86 -29t-114 -12.5q-62 0 -103 12.5t-66 33.5t-35 49t-10 59q0 24 2.5 62.5t6.5 75.5q4 43 10 90l53 -3q-3 -49 -7 -94q-3 -38 -5.5 -78.5t-3.5 -63.5q17 -26 55.5 -44t102.5 -18q74 0 138 17.5t104 44.5q4 16 5 30t0 31
q-8 3 -22.5 5.5t-33 4t-39 3t-41.5 3.5q-35 4 -58 10.5t-37 17t-20 25.5t-6 36q0 43 21 87.5t56 81t79.5 60t92.5 23.5q18 0 33.5 -19t33.5 -47t39.5 -60t50.5 -59q87 74 138 116.5t80 64t42 27t22 5.5q24 0 50.5 -14t48 -40.5t36 -63.5t14.5 -83q0 -12 -2.5 -25.5
t-7.5 -27.5q14 -8 33.5 -11t47.5 -3h10v-81h-10zM933 270q-9 0 -24.5 -8.5t-41.5 -28t-63.5 -51t-91.5 -76.5q20 -11 44 -18t53 -7h62q65 0 106.5 6t67.5 19q1 32 -10 62t-28.5 52.5t-37.5 36t-36 13.5zM881 478l38 64l78 -48l-40 -63z" />
    <glyph glyph-name="uFD29" unicode="&#xfd29;" horiz-adv-x="941" arabic-form="final" 
d="M941 0q-17 0 -33 2.5t-30.5 9.5t-26.5 20.5t-21 34.5q-9 -20 -19.5 -32.5t-24 -20.5t-31 -11t-41.5 -3q-28 0 -55.5 11.5t-45.5 51.5q-10 -19 -20.5 -31t-25 -19t-33 -10t-44.5 -3q-35 0 -59 8t-40 24.5t-25.5 41.5t-15.5 60l-11 67q-38 -5 -80 -13.5t-80 -19.5
q8 -32 14.5 -68t6.5 -66q0 -62 -20 -111t-48 -83t-58 -52t-50 -18q-8 0 -28.5 3t-65.5 13v35q40 7 76 25t64.5 44.5t48.5 58.5t28 66q-3 19 -8.5 42t-12 45.5t-14 42.5t-13.5 32l27 50q25 9 54.5 17t61 14.5t62.5 11.5t59 7l20 -11l17 -101q8 -48 30.5 -66t64.5 -18
q23 0 44 3t38 11l26 150h50q-2 -27 -2.5 -43.5t-1 -27t-0.5 -16v-8.5q0 -38 22 -53.5t49 -15.5q23 0 41 4.5t30 9.5q5 23 9 53t8 57q4 32 9 65h52q-1 -33 -2 -54.5t-1.5 -35t-0.5 -20.5v-10q0 -35 21 -52t55 -17v-81zM581 566l77 -48l-39 -64l-78 49zM535 443l78 -48
l-40 -63l-77 47zM625 380l40 63l76 -47l-38 -64zM131 325l-76 47l38 64l78 -48z" />
    <glyph glyph-name="uFD2A" unicode="&#xfd2a;" horiz-adv-x="941" arabic-form="final" 
d="M941 0q-17 0 -33 2.5t-30.5 9.5t-26.5 20.5t-21 34.5q-9 -20 -19.5 -32.5t-24 -20.5t-31 -11t-41.5 -3q-28 0 -55.5 11.5t-45.5 51.5q-10 -19 -20.5 -31t-25 -19t-33 -10t-44.5 -3q-35 0 -59 8t-40 24.5t-25.5 41.5t-15.5 60l-11 67q-38 -5 -80 -13.5t-80 -19.5
q8 -32 14.5 -68t6.5 -66q0 -62 -20 -111t-48 -83t-58 -52t-50 -18q-8 0 -28.5 3t-65.5 13v35q40 7 76 25t64.5 44.5t48.5 58.5t28 66q-3 19 -8.5 42t-12 45.5t-14 42.5t-13.5 32l27 50q25 9 54.5 17t61 14.5t62.5 11.5t59 7l20 -11l17 -101q8 -48 30.5 -66t64.5 -18
q23 0 44 3t38 11l26 150h50q-2 -27 -2.5 -43.5t-1 -27t-0.5 -16v-8.5q0 -38 22 -53.5t49 -15.5q23 0 41 4.5t30 9.5q5 23 9 53t8 57q4 32 9 65h52q-1 -33 -2 -54.5t-1.5 -35t-0.5 -20.5v-10q0 -35 21 -52t55 -17v-81zM131 325l-76 47l38 64l78 -48z" />
    <glyph glyph-name="uFD2B" unicode="&#xfd2b;" horiz-adv-x="936" arabic-form="final" 
d="M926 0q-27 0 -57.5 7.5t-52.5 37.5q-11 -13 -22 -17q-60 -28 -198 -28h-106q-35 0 -59 8t-40 24.5t-25.5 41.5t-15.5 60l-11 67q-38 -5 -80 -13.5t-80 -19.5q8 -32 14.5 -68t6.5 -66q0 -62 -20 -111t-48 -83t-58 -52t-50 -18q-8 0 -28.5 3t-65.5 13v35q40 7 76 25
t64.5 44.5t48.5 58.5t28 66q-3 19 -8.5 42t-12 45.5t-14 42.5t-13.5 32l27 50q25 9 54.5 17t61 14.5t62.5 11.5t59 7l20 -11l17 -101q3 -22 11 -40q91 78 145 122.5t84 67t43 28.5t22 6q24 0 50.5 -14t48.5 -40.5t36.5 -63.5t14.5 -83q0 -12 -2.5 -25.5t-7.5 -27.5
q15 -8 34 -11t47 -3h10v-81h-10zM687 270q-9 0 -26 -9.5t-45 -31t-69.5 -56t-100.5 -84.5q17 -8 48 -8h130q30 0 60.5 1.5t56 5.5t41.5 10t16 15q0 31 -11.5 59.5t-28 50t-36 34.5t-35.5 13zM131 325l-76 47l38 64l78 -48z" />
    <glyph glyph-name="uFD2C" unicode="&#xfd2c;" horiz-adv-x="936" arabic-form="final" 
d="M926 0q-27 0 -57.5 7.5t-52.5 37.5q-11 -13 -22 -17q-60 -28 -198 -28h-106q-35 0 -59 8t-40 24.5t-25.5 41.5t-15.5 60l-11 67q-38 -5 -80 -13.5t-80 -19.5q8 -32 14.5 -68t6.5 -66q0 -62 -20 -111t-48 -83t-58 -52t-50 -18q-8 0 -28.5 3t-65.5 13v35q40 7 76 25
t64.5 44.5t48.5 58.5t28 66q-3 19 -8.5 42t-12 45.5t-14 42.5t-13.5 32l27 50q25 9 54.5 17t61 14.5t62.5 11.5t59 7l20 -11l17 -101q3 -22 11 -40q91 78 145 122.5t84 67t43 28.5t22 6q24 0 50.5 -14t48.5 -40.5t36.5 -63.5t14.5 -83q0 -12 -2.5 -25.5t-7.5 -27.5
q15 -8 34 -11t47 -3h10v-81h-10zM687 270q-9 0 -26 -9.5t-45 -31t-69.5 -56t-100.5 -84.5q17 -8 48 -8h130q30 0 60.5 1.5t56 5.5t41.5 10t16 15q0 31 -11.5 59.5t-28 50t-36 34.5t-35.5 13zM634 478l38 64l78 -48l-40 -63zM131 325l-76 47l38 64l78 -48z" />
    <glyph glyph-name="uFDFC" unicode="&#xfdfc;" horiz-adv-x="1279" arabic-form="isolated" 
d="M132 254q-3 -49 -7 -94q-3 -38 -5.5 -78.5t-3.5 -63.5q14 -25 51 -43.5t93 -18.5q53 0 108.5 15.5t100.5 47.5l-8 452q-1 35 -2 61.5t-4 49t-9 44t-15 45.5l56 48q13 -28 20 -55t10.5 -54t4 -55.5t0.5 -60.5v-422q0 -32 -4.5 -60.5t-14.5 -42.5q-8 -11 -28 -27t-51 -31
t-72 -25.5t-92 -10.5q-57 0 -95 12.5t-61.5 33.5t-33.5 49t-10 59q0 24 2.5 62.5t6.5 75.5q4 43 10 90zM640 411q0 34 -1.5 60t-5 49t-10 45t-16.5 46l57 48q12 -28 19 -55t10.5 -54t4.5 -55.5t1 -60.5v-318q11 -18 35 -26.5t52 -8.5v-1q1 1 4 1q54 0 101 4t73 18
q-1 15 -5.5 38.5t-11 50t-14.5 53.5t-17 49l50 38l16 -6q7 -16 13.5 -38.5t11.5 -47t8.5 -49.5t3.5 -45q0 -45 -18.5 -79t-41.5 -45q-20 -11 -64.5 -16.5t-104.5 -5.5h-4q-83 0 -114.5 37t-31.5 113v261zM949 -129q40 7 76 25t64.5 44.5t48.5 58.5t28 66q-3 19 -9 43.5
t-14.5 51.5t-18.5 54t-20 51l52 37l16 -6q10 -24 18.5 -52t15 -56.5t10 -55.5t3.5 -48q0 -62 -20 -111t-48 -83t-58 -52t-50 -18q-8 0 -28.5 3t-65.5 13v35zM668 -86l78 -49l-40 -62l-77 47zM836 -197l-78 48l40 63l76 -47z" />
    <glyph glyph-name="uFE82" unicode="&#x622;" horiz-adv-x="234" arabic-form="final" 
d="M221 0q-83 0 -114.5 37t-31.5 113v194q0 36 -1.5 63.5t-5.5 50t-10.5 42t-16.5 39.5l56 52q13 -23 20.5 -47t11 -51t4.5 -58t1 -68v-251q11 -18 35 -26.5t52 -8.5h13v-81h-13zM88 681q-26 0 -48 4t-39 9l-23 -54h-10l-31 27q13 27 21 44.5t13.5 27.5t11 13.5t13.5 3.5
q12 0 34 -7.5t68 -7.5q27 0 59 4t64 14l5 -7l-14 -52q-32 -11 -64.5 -15t-59.5 -4z" />
    <glyph glyph-name="uFE84" unicode="&#x623;" horiz-adv-x="234" arabic-form="final" 
d="M221 0q-83 0 -114.5 37t-31.5 113v137q0 36 -1.5 63.5t-5.5 50.5t-10.5 42.5t-16.5 38.5l56 53q13 -23 20.5 -47t11 -51t4.5 -58t1 -68v-195q11 -18 35 -26.5t52 -8.5h13v-81h-13zM145 790l-12 -38h-93q-6 -14 -6 -28q0 -25 17 -44t46 -19q14 0 37 5t54 16l5 -47
l-206 -75l-6 40l63 29q-25 13 -38 36.5t-13 49.5q0 18 5.5 38.5t22.5 47.5h116z" />
    <glyph glyph-name="uFE86" unicode="&#x624;" horiz-adv-x="435" arabic-form="final" 
d="M184 -8q-54 0 -85.5 21t-31.5 62q0 17 6.5 46.5t15.5 62.5t19 64.5t18 53.5l21 15q57 -4 96.5 -23.5t66 -51t40 -73t17.5 -88.5h68v-81h-68q-6 -51 -30 -93.5t-54.5 -73t-63.5 -47t-57 -16.5q-8 0 -32 3t-69 13v35q43 5 83 20t73.5 38t59.5 53.5t41 66.5q0 2 -0.5 3
t-0.5 3q-32 -6 -66 -9.5t-67 -3.5zM200 70q30 0 59 2t52 5q-12 70 -47.5 114.5t-106.5 52.5q-3 -9 -9.5 -30t-13 -45t-12 -46t-7.5 -32q11 -13 33 -17t52 -4zM260 608l-12 -38h-93q-7 -16 -6 -32t9 -29t21.5 -21.5t32.5 -8.5q14 0 37 5t54 16l5 -47l-206 -75l-6 40l63 29
q-25 13 -38 36.5t-13 49.5q0 18 5.5 38.5t22.5 47.5h116z" />
    <glyph glyph-name="uFE88" unicode="&#x625;" horiz-adv-x="221" arabic-form="final" 
d="M221 0q-83 0 -114.5 37t-31.5 113v261q0 34 -1.5 60t-5 49t-10 45t-16.5 46l57 48q12 -28 19 -55t10.5 -54t4.5 -55.5t1 -60.5v-318q11 -18 35 -26.5t52 -8.5v-81zM199 -133l-12 -38h-93q-7 -16 -6 -32t9 -29t21.5 -21.5t32.5 -8.5q14 0 37 5t54 16l5 -47l-206 -75l-6 40
l63 29q-25 14 -38 37t-13 49q0 18 5.5 38.5t22.5 47.5h116z" />
    <glyph glyph-name="uFE8A" unicode="&#x626;" horiz-adv-x="601" arabic-form="final" 
d="M559 0q1 -5 1.5 -11t0.5 -14q0 -15 -2 -32t-5 -32t-6.5 -27t-6.5 -18q-6 -9 -27 -26t-56 -33.5t-82 -29t-105 -12.5q-61 0 -101.5 12.5t-65 33.5t-34.5 49t-10 59q0 24 2.5 62.5t6.5 75.5q4 43 10 90l53 -3q-3 -49 -7 -94q-3 -38 -5.5 -78.5t-3.5 -63.5q17 -26 54 -44
t101 -18q31 0 63.5 4.5t62.5 13t56 19.5t45 25q4 19 5.5 42.5t-0.5 40.5q-10 4 -25.5 6.5t-41.5 4t-64.5 2.5t-93.5 3l-5 11l8 24t7 18q5 12 15 16.5t38 4.5h260v-81h-42zM403 399l-12 -38h-93q-7 -16 -6 -32t9 -29t21.5 -21.5t32.5 -8.5q14 0 37 5t54 16l5 -47l-206 -75
l-6 40l63 29q-25 13 -38 36.5t-13 49.5q0 18 5.5 38.5t22.5 47.5h116z" />
    <glyph glyph-name="uFE8B" unicode="&#x626;" horiz-adv-x="289" arabic-form="initial" 
d="M0 0q-11 0 -17 11.5t-6 28.5q0 18 6 29.5t17 11.5q54 0 101 4t73 18q-1 15 -5.5 38.5t-11 50t-14.5 53.5t-17 49l50 38l16 -6q7 -16 13.5 -38.5t11.5 -47t8.5 -49.5t3.5 -45q0 -45 -18.5 -79t-41.5 -45q-20 -11 -64.5 -16.5t-104.5 -5.5zM192 631l-12 -38h-93
q-7 -16 -6 -32t9 -29t21.5 -21.5t32.5 -8.5q14 0 37 5t54 16l5 -47l-206 -75l-6 40l63 29q-25 13 -38 36.5t-13 49.5q0 18 5.5 38.5t22.5 47.5h116z" />
    <glyph glyph-name="uFE8C" unicode="&#x626;" horiz-adv-x="301" arabic-form="medial" 
d="M301 0q-16 0 -33 2t-32.5 9t-29 20.5t-22.5 36.5q-17 -34 -35 -45q-35 -23 -149 -23q-11 0 -17 11.5t-6 28.5q0 18 6 29.5t17 11.5q108 0 144 15l27 151h54q-2 -27 -2.5 -44.5t-1 -28t-0.5 -15.5v-9q0 -39 24.5 -54t55.5 -15v-81zM212 554l-12 -38h-93q-7 -16 -6 -32
t9 -29t21.5 -21.5t32.5 -8.5q14 0 37 5t54 16l5 -47l-206 -75l-6 40l63 29q-25 13 -38 36.5t-13 49.5q0 18 5.5 38.5t22.5 47.5h116z" />
    <glyph glyph-name="uFE8E" unicode="&#x627;" horiz-adv-x="221" arabic-form="final" 
d="M221 0q-83 0 -114.5 37t-31.5 113v261q0 34 -1.5 60t-5 49t-10 45t-16.5 46l57 48q12 -28 19 -55t10.5 -54t4.5 -55.5t1 -60.5v-318q11 -18 35 -26.5t52 -8.5v-81v0z" />
    <glyph glyph-name="uFE90" unicode="&#x628;" horiz-adv-x="727" arabic-form="final" 
d="M727 0q-15 0 -31.5 2t-32 9t-29.5 20.5t-23 36.5q-8 -15 -15.5 -23t-15.5 -13q-27 -14 -92 -25.5t-167 -11.5q-53 0 -100.5 4t-83 17.5t-56.5 38.5t-21 68q0 23 2 50.5t4 51.5l6 56l53 -3q-4 -51 -6.5 -88t-4.5 -72q24 -22 80.5 -32t126.5 -10q37 0 74 2t70 5.5t60.5 9
t47.5 12.5l25 142h54q-2 -27 -2.5 -44.5t-1 -28t-0.5 -15.5v-9q0 -39 24.5 -54t54.5 -15v-81zM402 -144l-40 -62l-76 47l38 64z" />
    <glyph glyph-name="uFE91" unicode="&#x628;" horiz-adv-x="289" arabic-form="initial" 
d="M0 0q-11 0 -17 11.5t-6 28.5q0 18 6 29.5t17 11.5q54 0 101 4t73 18q-1 15 -5.5 38.5t-11 50t-14.5 53.5t-17 49l50 38l16 -6q7 -16 13.5 -38.5t11.5 -47t8.5 -49.5t3.5 -45q0 -45 -18.5 -79t-41.5 -45q-20 -11 -64.5 -16.5t-104.5 -5.5zM119 -136l-40 -62l-76 47l38 64z
" />
    <glyph glyph-name="uFE92" unicode="&#x628;" horiz-adv-x="301" arabic-form="medial" 
d="M301 0q-16 0 -33 2t-32.5 9t-29 20.5t-22.5 36.5q-17 -34 -35 -45q-35 -23 -149 -23q-11 0 -17 11.5t-6 28.5q0 18 6 29.5t17 11.5q108 0 144 15l27 151h54q-2 -27 -2.5 -44.5t-1 -28t-0.5 -15.5v-9q0 -39 24.5 -54t55.5 -15v-81zM191 -136l-40 -62l-76 47l38 64z" />
    <glyph glyph-name="uFE94" unicode="&#x629;" horiz-adv-x="445" arabic-form="final" 
d="M181 25q-68 0 -94.5 28t-26.5 87q0 50 13 89q7 10 26.5 25t44.5 32t53.5 35.5t54.5 34.5l-12 70l46 23l15 -6l50 -331q10 -15 35 -23t59 -8v-81q-25 0 -48 3t-41.5 12t-33 25t-22.5 42q-6 -15 -10 -24t-5 -11q-3 -5 -12.5 -9t-24 -7t-32 -4.5t-35.5 -1.5zM184 102
q23 0 51.5 2t56.5 9l-30 181q-23 -14 -48 -29t-46.5 -29t-37 -26.5t-21.5 -20.5q-2 -24 -0.5 -40.5t9 -27t23.5 -15t43 -4.5zM168 624l78 -48l-40 -63l-77 47zM258 561l40 63l76 -47l-38 -64z" />
    <glyph glyph-name="uFE96" unicode="&#x62a;" horiz-adv-x="727" arabic-form="final" 
d="M727 0q-15 0 -31.5 2t-32 9t-29.5 20.5t-23 36.5q-8 -15 -15.5 -23t-15.5 -13q-27 -14 -92 -25.5t-167 -11.5q-53 0 -100.5 4t-83 17.5t-56.5 38.5t-21 68q0 23 2 50.5t4 51.5l6 56l53 -3q-4 -51 -6.5 -88t-4.5 -72q24 -22 80.5 -32t126.5 -10q37 0 74 2t70 5.5t60.5 9
t47.5 12.5l25 142h54q-2 -27 -2.5 -44.5t-1 -28t-0.5 -15.5v-9q0 -39 24.5 -54t54.5 -15v-81zM270 453l78 -48l-40 -63l-77 47zM360 390l40 63l76 -47l-38 -64z" />
    <glyph glyph-name="uFE97" unicode="&#x62a;" horiz-adv-x="289" arabic-form="initial" 
d="M0 0q-11 0 -17 11.5t-6 28.5q0 18 6 29.5t17 11.5q54 0 101 4t73 18q-1 15 -5.5 38.5t-11 50t-14.5 53.5t-17 49l50 38l16 -6q7 -16 13.5 -38.5t11.5 -47t8.5 -49.5t3.5 -45q0 -45 -18.5 -79t-41.5 -45q-20 -11 -64.5 -16.5t-104.5 -5.5zM140 459l40 63l76 -47l-38 -64z
M50 522l78 -48l-40 -63l-77 47z" />
    <glyph glyph-name="uFE98" unicode="&#x62a;" horiz-adv-x="301" arabic-form="medial" 
d="M301 0q-16 0 -33 2t-32.5 9t-29 20.5t-22.5 36.5q-17 -34 -35 -45q-35 -23 -149 -23q-11 0 -17 11.5t-6 28.5q0 18 6 29.5t17 11.5q108 0 144 15l27 151h54q-2 -27 -2.5 -44.5t-1 -28t-0.5 -15.5v-9q0 -39 24.5 -54t55.5 -15v-81zM160 382l40 63l76 -47l-38 -64zM70 445
l78 -48l-40 -63l-77 47z" />
    <glyph glyph-name="uFE9A" unicode="&#x62b;" horiz-adv-x="727" arabic-form="final" 
d="M727 0q-15 0 -31.5 2t-32 9t-29.5 20.5t-23 36.5q-8 -15 -15.5 -23t-15.5 -13q-27 -14 -92 -25.5t-167 -11.5q-53 0 -100.5 4t-83 17.5t-56.5 38.5t-21 68q0 23 2 50.5t4 51.5l6 56l53 -3q-4 -51 -6.5 -88t-4.5 -72q24 -22 80.5 -32t126.5 -10q37 0 74 2t70 5.5t60.5 9
t47.5 12.5l25 142h54q-2 -27 -2.5 -44.5t-1 -28t-0.5 -15.5v-9q0 -39 24.5 -54t54.5 -15v-81zM316 576l77 -48l-39 -64l-78 49zM270 453l78 -48l-40 -63l-77 47zM360 390l40 63l76 -47l-38 -64z" />
    <glyph glyph-name="uFE9B" unicode="&#x62b;" horiz-adv-x="289" arabic-form="initial" 
d="M0 0q-11 0 -17 11.5t-6 28.5q0 18 6 29.5t17 11.5q54 0 101 4t73 18q-1 15 -5.5 38.5t-11 50t-14.5 53.5t-17 49l50 38l16 -6q7 -16 13.5 -38.5t11.5 -47t8.5 -49.5t3.5 -45q0 -45 -18.5 -79t-41.5 -45q-20 -11 -64.5 -16.5t-104.5 -5.5zM140 459l40 63l76 -47l-38 -64z
M96 645l77 -48l-39 -64l-78 49zM50 522l78 -48l-40 -63l-77 47z" />
    <glyph glyph-name="uFE9C" unicode="&#x62b;" horiz-adv-x="301" arabic-form="medial" 
d="M301 0q-16 0 -33 2t-32.5 9t-29 20.5t-22.5 36.5q-17 -34 -35 -45q-35 -23 -149 -23q-11 0 -17 11.5t-6 28.5q0 18 6 29.5t17 11.5q108 0 144 15l27 151h54q-2 -27 -2.5 -44.5t-1 -28t-0.5 -15.5v-9q0 -39 24.5 -54t55.5 -15v-81zM160 382l40 63l76 -47l-38 -64zM116 568
l77 -48l-39 -64l-78 49zM70 445l78 -48l-40 -63l-77 47z" />
    <glyph glyph-name="uFE9E" unicode="&#x62c;" horiz-adv-x="585" arabic-form="final" 
d="M511 -216l-17 -59q-60 -8 -112 -9t-80 -1q-56 0 -100.5 11t-75.5 36.5t-48 67t-17 102.5v14q0 40 20 84.5t60.5 87.5t103 82.5t147.5 70.5q-80 29 -137.5 45.5t-77.5 16.5q-17 0 -35 -7t-28 -16v-52.5t1 -49.5l-12 -11l-36 18q-2 15 -2 28.5v30.5q0 44 3 61t8 22
q2 2 12 9.5t24.5 15.5t32.5 14.5t38 6.5q19 0 53 -8.5t78 -22.5t96.5 -32.5t108.5 -39.5l5 -16l-24 -53q-23 0 -45 -4t-45 -11q2 -38 10 -64t23 -42t38 -22.5t55 -6.5h49v-81h-53q-26 0 -54 6t-52 26t-40.5 59.5t-19.5 107.5q-2 -1 -5 -2t-5 -2q-97 -43 -160 -100t-85 -130
v-9q0 -42 10 -74t33 -53t61 -31.5t95 -10.5h37.5t42.5 1t50 3t61 5zM347 -38l-40 -62l-76 47l38 64z" />
    <glyph glyph-name="uFE9F" unicode="&#x62c;" horiz-adv-x="582" arabic-form="initial" 
d="M0 0q-11 0 -17 11.5t-6 28.5q0 18 6 29.5t17 11.5h72q41 0 69 2t47 5.5t31.5 8.5t22.5 11q27 17 48 32.5t40.5 30t39.5 28.5t46 29q-85 32 -145.5 50t-80.5 18q-16 0 -34.5 -7.5t-29.5 -16.5v-48t1 -40l-37 -22l-10 10q-2 23 -2.5 35.5t-0.5 26.5q0 46 3 63.5t8 22.5
q2 2 11.5 9.5t24 15.5t33 14t38.5 6q19 0 51.5 -8t75.5 -21.5t94.5 -32t109.5 -39.5l5 -17l-26 -52q-18 0 -31.5 -1.5t-29.5 -9.5t-38 -24.5t-56 -47.5q-45 -39 -75.5 -61t-59.5 -33.5t-62 -14.5t-84 -3h-69zM306 -136l-40 -62l-76 47l38 64z" />
    <glyph glyph-name="uFEA0" unicode="&#x62c;" horiz-adv-x="590" arabic-form="medial" 
d="M0 0q-11 0 -17 11.5t-6 28.5q0 18 6 29.5t17 11.5h72q41 0 69 2t47 5.5t31.5 8.5t22.5 11q27 17 48 32.5t40.5 30t39.5 28.5t46 29q-85 32 -145.5 50t-80.5 18q-16 0 -34.5 -7.5t-29.5 -16.5v-48t1 -40l-37 -22l-10 10q-2 23 -2.5 35.5t-0.5 26.5q0 46 3 63.5t8 22.5
q2 2 11.5 9.5t24 15.5t33 14t38.5 6q19 0 51.5 -8t75.5 -21.5t94.5 -32t109.5 -39.5l5 -17l-26 -52q-14 0 -25 -1t-22.5 -4.5t-24 -11t-30.5 -21.5q11 -38 37.5 -57t80.5 -19h69v-81h-73q-21 0 -44.5 4t-44.5 17t-38.5 37.5t-26.5 65.5l-6 -6t-7 -6q-45 -39 -75.5 -61
t-59.5 -33.5t-62 -14.5t-84 -3h-69zM306 -136l-40 -62l-76 47l38 64z" />
    <glyph glyph-name="uFEA2" unicode="&#x62d;" horiz-adv-x="585" arabic-form="final" 
d="M511 -216l-17 -59q-60 -8 -112 -9t-80 -1q-56 0 -100.5 11t-75.5 36.5t-48 67t-17 102.5v14q0 40 20 84.5t60.5 87.5t103 82.5t147.5 70.5q-80 29 -137.5 45.5t-77.5 16.5q-17 0 -35 -7t-28 -16v-52.5t1 -49.5l-12 -11l-36 18q-2 15 -2 28.5v30.5q0 44 3 61t8 22
q2 2 12 9.5t24.5 15.5t32.5 14.5t38 6.5q19 0 53 -8.5t78 -22.5t96.5 -32.5t108.5 -39.5l5 -16l-24 -53q-23 0 -45 -4t-45 -11q2 -38 10 -64t23 -42t38 -22.5t55 -6.5h49v-81h-53q-26 0 -54 6t-52 26t-40.5 59.5t-19.5 107.5q-2 -1 -5 -2t-5 -2q-97 -43 -160 -100t-85 -130
v-9q0 -42 10 -74t33 -53t61 -31.5t95 -10.5h37.5t42.5 1t50 3t61 5z" />
    <glyph glyph-name="uFEA3" unicode="&#x62d;" horiz-adv-x="582" arabic-form="initial" 
d="M0 0q-11 0 -17 11.5t-6 28.5q0 18 6 29.5t17 11.5h72q41 0 69 2t47 5.5t31.5 8.5t22.5 11q27 17 48 32.5t40.5 30t39.5 28.5t46 29q-85 32 -145.5 50t-80.5 18q-16 0 -34.5 -7.5t-29.5 -16.5v-48t1 -40l-37 -22l-10 10q-2 23 -2.5 35.5t-0.5 26.5q0 46 3 63.5t8 22.5
q2 2 11.5 9.5t24 15.5t33 14t38.5 6q19 0 51.5 -8t75.5 -21.5t94.5 -32t109.5 -39.5l5 -17l-26 -52q-18 0 -31.5 -1.5t-29.5 -9.5t-38 -24.5t-56 -47.5q-45 -39 -75.5 -61t-59.5 -33.5t-62 -14.5t-84 -3h-69z" />
    <glyph glyph-name="uFEA4" unicode="&#x62d;" horiz-adv-x="590" arabic-form="medial" 
d="M0 0q-11 0 -17 11.5t-6 28.5q0 18 6 29.5t17 11.5h72q41 0 69 2t47 5.5t31.5 8.5t22.5 11q27 17 48 32.5t40.5 30t39.5 28.5t46 29q-85 32 -145.5 50t-80.5 18q-16 0 -34.5 -7.5t-29.5 -16.5v-48t1 -40l-37 -22l-10 10q-2 23 -2.5 35.5t-0.5 26.5q0 46 3 63.5t8 22.5
q2 2 11.5 9.5t24 15.5t33 14t38.5 6q19 0 51.5 -8t75.5 -21.5t94.5 -32t109.5 -39.5l5 -17l-26 -52q-14 0 -25 -1t-22.5 -4.5t-24 -11t-30.5 -21.5q11 -38 37.5 -57t80.5 -19h69v-81h-73q-21 0 -44.5 4t-44.5 17t-38.5 37.5t-26.5 65.5l-6 -6t-7 -6q-45 -39 -75.5 -61
t-59.5 -33.5t-62 -14.5t-84 -3h-69v0z" />
    <glyph glyph-name="uFEA6" unicode="&#x62e;" horiz-adv-x="585" arabic-form="final" 
d="M511 -216l-17 -59q-60 -8 -112 -9t-80 -1q-56 0 -100.5 11t-75.5 36.5t-48 67t-17 102.5v14q0 40 20 84.5t60.5 87.5t103 82.5t147.5 70.5q-80 29 -137.5 45.5t-77.5 16.5q-17 0 -35 -7t-28 -16v-52.5t1 -49.5l-12 -11l-36 18q-2 15 -2 28.5v30.5q0 44 3 61t8 22
q2 2 12 9.5t24.5 15.5t32.5 14.5t38 6.5q19 0 53 -8.5t78 -22.5t96.5 -32.5t108.5 -39.5l5 -16l-24 -53q-23 0 -45 -4t-45 -11q2 -38 10 -64t23 -42t38 -22.5t55 -6.5h49v-81h-53q-26 0 -54 6t-52 26t-40.5 59.5t-19.5 107.5q-2 -1 -5 -2t-5 -2q-97 -43 -160 -100t-85 -130
v-9q0 -42 10 -74t33 -53t61 -31.5t95 -10.5h37.5t42.5 1t50 3t61 5zM145 545l38 64l78 -48l-40 -63z" />
    <glyph glyph-name="uFEA7" unicode="&#x62e;" horiz-adv-x="582" arabic-form="initial" 
d="M0 0q-11 0 -17 11.5t-6 28.5q0 18 6 29.5t17 11.5h72q41 0 69 2t47 5.5t31.5 8.5t22.5 11q27 17 48 32.5t40.5 30t39.5 28.5t46 29q-85 32 -145.5 50t-80.5 18q-16 0 -34.5 -7.5t-29.5 -16.5v-48t1 -40l-37 -22l-10 10q-2 23 -2.5 35.5t-0.5 26.5q0 46 3 63.5t8 22.5
q2 2 11.5 9.5t24 15.5t33 14t38.5 6q19 0 51.5 -8t75.5 -21.5t94.5 -32t109.5 -39.5l5 -17l-26 -52q-18 0 -31.5 -1.5t-29.5 -9.5t-38 -24.5t-56 -47.5q-45 -39 -75.5 -61t-59.5 -33.5t-62 -14.5t-84 -3h-69zM149 510l38 64l78 -48l-40 -63z" />
    <glyph glyph-name="uFEA8" unicode="&#x62e;" horiz-adv-x="590" arabic-form="medial" 
d="M0 0q-11 0 -17 11.5t-6 28.5q0 18 6 29.5t17 11.5h72q41 0 69 2t47 5.5t31.5 8.5t22.5 11q27 17 48 32.5t40.5 30t39.5 28.5t46 29q-85 32 -145.5 50t-80.5 18q-16 0 -34.5 -7.5t-29.5 -16.5v-48t1 -40l-37 -22l-10 10q-2 23 -2.5 35.5t-0.5 26.5q0 46 3 63.5t8 22.5
q2 2 11.5 9.5t24 15.5t33 14t38.5 6q19 0 51.5 -8t75.5 -21.5t94.5 -32t109.5 -39.5l5 -17l-26 -52q-14 0 -25 -1t-22.5 -4.5t-24 -11t-30.5 -21.5q11 -38 37.5 -57t80.5 -19h69v-81h-73q-21 0 -44.5 4t-44.5 17t-38.5 37.5t-26.5 65.5l-6 -6t-7 -6q-45 -39 -75.5 -61
t-59.5 -33.5t-62 -14.5t-84 -3h-69zM149 510l38 64l78 -48l-40 -63z" />
    <glyph glyph-name="uFEAA" unicode="&#x62f;" horiz-adv-x="486" arabic-form="final" 
d="M486 0q-53 0 -85 12.5t-52 47.5q-9 -18 -25.5 -30t-38 -18.5t-47.5 -9t-53 -2.5q-76 0 -105 22t-29 70q0 11 1 26.5t2.5 31.5t3 29t2.5 19l48 -3q-1 -15 -2 -31.5t-1.5 -30.5t-1 -24t-0.5 -12q13 -10 42.5 -13t56.5 -3q30 0 64.5 4.5t66.5 18.5q-2 5 -3 10.5t-2 10.5
l-56 265l49 25l15 -6l56 -297q10 -15 35.5 -23t58.5 -8v-81v0z" />
    <glyph glyph-name="uFEAC" unicode="&#x630;" horiz-adv-x="486" arabic-form="final" 
d="M486 0q-53 0 -85 12.5t-52 47.5q-9 -18 -25.5 -30t-38 -18.5t-47.5 -9t-53 -2.5q-76 0 -105 22t-29 70q0 11 1 26.5t2.5 31.5t3 29t2.5 19l48 -3q-1 -15 -2 -31.5t-1.5 -30.5t-1 -24t-0.5 -12q13 -10 42.5 -13t56.5 -3q30 0 64.5 4.5t66.5 18.5q-2 5 -3 10.5t-2 10.5
l-56 265l49 25l15 -6l56 -297q10 -15 35.5 -23t58.5 -8v-81zM241 528l38 64l78 -48l-40 -63z" />
    <glyph glyph-name="uFEAE" unicode="&#x631;" horiz-adv-x="269" arabic-form="final" 
d="M269 0q-47 0 -70 13q-3 -57 -24 -102t-48 -76.5t-55.5 -48t-47.5 -16.5q-8 0 -28.5 3t-65.5 13v35q40 7 76 25t64.5 44.5t48.5 58.5t28 66q-3 19 -9 43.5t-14.5 51.5t-18.5 54t-20 51l52 37l16 -6q7 -23 14.5 -46.5t13.5 -44t11 -36.5t9 -23q8 -8 23.5 -11.5t44.5 -3.5
v-81v0z" />
    <glyph glyph-name="uFEB0" unicode="&#x632;" horiz-adv-x="269" arabic-form="final" 
d="M269 0q-47 0 -70 13q-3 -57 -24 -102t-48 -76.5t-55.5 -48t-47.5 -16.5q-8 0 -28.5 3t-65.5 13v35q40 7 76 25t64.5 44.5t48.5 58.5t28 66q-3 19 -9 43.5t-14.5 51.5t-18.5 54t-20 51l52 37l16 -6q7 -23 14.5 -46.5t13.5 -44t11 -36.5t9 -23q8 -8 23.5 -11.5t44.5 -3.5
v-81zM55 371l38 64l78 -48l-40 -63z" />
    <glyph glyph-name="uFEB2" unicode="&#x633;" horiz-adv-x="1075" arabic-form="final" 
d="M1075 0q-17 0 -33 2.5t-30.5 9.5t-26.5 20.5t-21 34.5q-17 -36 -33 -45q-12 -9 -34 -15.5t-49 -6.5q-14 0 -28 2.5t-27.5 9t-25 19t-20.5 32.5q-8 -15 -15 -25t-17 -16q-13 -9 -37 -15.5t-54 -6.5q-17 0 -33.5 2.5t-30.5 11.5q1 -10 1.5 -20.5t0.5 -22.5q0 -33 -6 -61
t-15 -44q-5 -9 -26 -26t-55.5 -33.5t-82.5 -29t-106 -12.5q-61 0 -101.5 12.5t-65 33.5t-34.5 49t-10 59q0 19 2 48.5t5 62t6 63.5t6 54l53 -3q-3 -34 -5.5 -70t-5 -69t-4 -58.5t-1.5 -38.5q17 -26 55.5 -44t99.5 -18q33 0 67.5 5.5t66 14.5t58 22t43.5 28q-1 38 -5.5 78
t-11 79t-15 76.5t-17.5 69.5l51 33l15 -5q12 -51 20 -90t16 -57q11 -11 29.5 -15t38.5 -4q50 0 84 14l26 150h50q-2 -27 -2.5 -43.5t-1 -27t-0.5 -16v-8.5q0 -38 22 -53.5t49 -15.5q23 0 40 4.5t30 9.5q5 23 9.5 53t8.5 57q4 32 9 65h51q-1 -33 -1.5 -54.5t-1 -35
t-0.5 -20.5v-10q0 -35 21 -52t55 -17v-81v0z" />
    <glyph glyph-name="uFEB3" unicode="&#x633;" horiz-adv-x="719" arabic-form="initial" 
d="M502 0q-14 0 -28 2.5t-27.5 9t-25.5 19t-21 32.5q-8 -15 -14.5 -25t-16.5 -16q-14 -9 -38 -15.5t-55 -6.5q-15 0 -29.5 2.5t-28.5 9t-25.5 19t-20.5 32.5q-8 -15 -15 -24.5t-18 -16.5q-17 -11 -55.5 -16.5t-83.5 -5.5q-11 0 -17 11.5t-6 28.5q0 18 6 29.5t17 11.5
q48 0 84 3.5t55 10.5l27 152h49q-2 -27 -2.5 -44.5t-1 -28t-0.5 -15.5v-9q0 -39 22 -54t49 -15q50 0 82 14l27 150h50q-2 -27 -2.5 -43.5t-1 -27t-0.5 -16v-8.5q0 -38 22 -53.5t48 -15.5t53.5 6.5t44.5 15.5q-1 19 -5 42.5t-9.5 48.5t-13 50t-16.5 48l49 40l16 -6
q14 -41 23.5 -86t9.5 -90q0 -24 -5.5 -45t-14 -37.5t-18.5 -28t-19 -15.5q-37 -24 -100 -24z" />
    <glyph glyph-name="uFEB4" unicode="&#x633;" horiz-adv-x="729" arabic-form="medial" 
d="M729 0q-34 0 -64 12t-47 55q-9 -17 -16.5 -28.5t-16.5 -16.5q-13 -9 -35 -15.5t-48 -6.5q-14 0 -28 2.5t-27.5 9t-25.5 19t-21 32.5q-8 -15 -14.5 -25t-16.5 -16q-14 -9 -38 -15.5t-55 -6.5q-15 0 -29.5 2.5t-28.5 9t-25.5 19t-20.5 32.5q-8 -15 -15 -24.5t-18 -16.5
q-17 -11 -55.5 -16.5t-83.5 -5.5q-11 0 -17 11.5t-6 28.5q0 18 6 29.5t17 11.5q48 0 84 3.5t55 10.5l27 152h49q-2 -27 -2.5 -44.5t-1 -28t-0.5 -15.5v-9q0 -39 22 -54t49 -15q50 0 82 14l27 150h50q-2 -27 -2.5 -43.5t-1 -27t-0.5 -16v-8.5q0 -38 22 -53.5t48 -15.5
q23 0 41 4.5t30 9.5q5 23 9.5 53t8.5 57q4 32 9 65h51q-1 -33 -2 -54.5t-1.5 -35t-0.5 -20.5v-10q0 -35 21 -52t56 -17v-81v0z" />
    <glyph glyph-name="uFEB6" unicode="&#x634;" horiz-adv-x="1075" arabic-form="final" 
d="M1075 0q-17 0 -33 2.5t-30.5 9.5t-26.5 20.5t-21 34.5q-17 -36 -33 -45q-12 -9 -34 -15.5t-49 -6.5q-14 0 -28 2.5t-27.5 9t-25 19t-20.5 32.5q-8 -15 -15 -25t-17 -16q-13 -9 -37 -15.5t-54 -6.5q-17 0 -33.5 2.5t-30.5 11.5q1 -10 1.5 -20.5t0.5 -22.5q0 -33 -6 -61
t-15 -44q-5 -9 -26 -26t-55.5 -33.5t-82.5 -29t-106 -12.5q-61 0 -101.5 12.5t-65 33.5t-34.5 49t-10 59q0 19 2 48.5t5 62t6 63.5t6 54l53 -3q-3 -34 -5.5 -70t-5 -69t-4 -58.5t-1.5 -38.5q17 -26 55.5 -44t99.5 -18q33 0 67.5 5.5t66 14.5t58 22t43.5 28q-1 38 -5.5 78
t-11 79t-15 76.5t-17.5 69.5l51 33l15 -5q12 -51 20 -90t16 -57q11 -11 29.5 -15t38.5 -4q50 0 84 14l26 150h50q-2 -27 -2.5 -43.5t-1 -27t-0.5 -16v-8.5q0 -38 22 -53.5t49 -15.5q23 0 40 4.5t30 9.5q5 23 9.5 53t8.5 57q4 32 9 65h51q-1 -33 -1.5 -54.5t-1 -35
t-0.5 -20.5v-10q0 -35 21 -52t55 -17v-81zM715 566l77 -48l-39 -64l-78 49zM669 443l78 -48l-40 -63l-77 47zM759 380l40 63l76 -47l-38 -64z" />
    <glyph glyph-name="uFEB7" unicode="&#x634;" horiz-adv-x="719" arabic-form="initial" 
d="M502 0q-14 0 -28 2.5t-27.5 9t-25.5 19t-21 32.5q-8 -15 -14.5 -25t-16.5 -16q-14 -9 -38 -15.5t-55 -6.5q-15 0 -29.5 2.5t-28.5 9t-25.5 19t-20.5 32.5q-8 -15 -15 -24.5t-18 -16.5q-17 -11 -55.5 -16.5t-83.5 -5.5q-11 0 -17 11.5t-6 28.5q0 18 6 29.5t17 11.5
q48 0 84 3.5t55 10.5l27 152h49q-2 -27 -2.5 -44.5t-1 -28t-0.5 -15.5v-9q0 -39 22 -54t49 -15q50 0 82 14l27 150h50q-2 -27 -2.5 -43.5t-1 -27t-0.5 -16v-8.5q0 -38 22 -53.5t48 -15.5t53.5 6.5t44.5 15.5q-1 19 -5 42.5t-9.5 48.5t-13 50t-16.5 48l49 40l16 -6
q14 -41 23.5 -86t9.5 -90q0 -24 -5.5 -45t-14 -37.5t-18.5 -28t-19 -15.5q-37 -24 -100 -24zM351 566l77 -48l-39 -64l-78 49zM305 443l78 -48l-40 -63l-77 47zM395 380l40 63l76 -47l-38 -64z" />
    <glyph glyph-name="uFEB8" unicode="&#x634;" horiz-adv-x="729" arabic-form="medial" 
d="M729 0q-34 0 -64 12t-47 55q-9 -17 -16.5 -28.5t-16.5 -16.5q-13 -9 -35 -15.5t-48 -6.5q-14 0 -28 2.5t-27.5 9t-25.5 19t-21 32.5q-8 -15 -14.5 -25t-16.5 -16q-14 -9 -38 -15.5t-55 -6.5q-15 0 -29.5 2.5t-28.5 9t-25.5 19t-20.5 32.5q-8 -15 -15 -24.5t-18 -16.5
q-17 -11 -55.5 -16.5t-83.5 -5.5q-11 0 -17 11.5t-6 28.5q0 18 6 29.5t17 11.5q48 0 84 3.5t55 10.5l27 152h49q-2 -27 -2.5 -44.5t-1 -28t-0.5 -15.5v-9q0 -39 22 -54t49 -15q50 0 82 14l27 150h50q-2 -27 -2.5 -43.5t-1 -27t-0.5 -16v-8.5q0 -38 22 -53.5t48 -15.5
q23 0 41 4.5t30 9.5q5 23 9.5 53t8.5 57q4 32 9 65h51q-1 -33 -2 -54.5t-1.5 -35t-0.5 -20.5v-10q0 -35 21 -52t56 -17v-81zM361 566l77 -48l-39 -64l-78 49zM315 443l78 -48l-40 -63l-77 47zM405 380l40 63l76 -47l-38 -64z" />
    <glyph glyph-name="uFEBA" unicode="&#x635;" horiz-adv-x="1092" arabic-form="final" 
d="M862 349q24 0 50.5 -14t48.5 -40.5t36 -63.5t14 -83q0 -26 -10 -53q15 -8 34 -11t47 -3h10v-81h-10q-27 0 -57 7.5t-52 36.5q-12 -12 -22 -16q-60 -28 -198 -28h-73q-45 0 -73.5 5.5t-47.5 19.5q3 -23 3 -54q0 -35 -6 -62.5t-15 -42.5q-5 -9 -26 -26t-55.5 -33.5
t-82.5 -29t-106 -12.5q-61 0 -101.5 12.5t-65 33.5t-34.5 49t-10 59q0 24 2.5 62.5t6.5 75.5q4 43 10 90l53 -3q-3 -49 -7 -94q-3 -38 -5.5 -78.5t-3.5 -63.5q17 -26 55.5 -44t99.5 -18q33 0 67.5 5.5t66 14.5t58 22t43.5 28q-1 38 -5.5 78t-11 79t-15 76.5t-17.5 69.5
l51 33l15 -5l15 -71q7 -37 21 -58q63 53 108 91t76.5 64t51.5 41t33 23t20.5 10t13.5 2zM844 270q-10 0 -27 -9.5t-45 -31.5t-70 -56.5t-101 -85.5q22 -6 60 -6h120q65 0 107 6t67 19q1 32 -10 62t-28 52.5t-37 36t-36 13.5z" />
    <glyph glyph-name="uFEBB" unicode="&#x635;" horiz-adv-x="715" arabic-form="initial" 
d="M289 0q-51 0 -86.5 11.5t-53.5 51.5q-14 -29 -32 -41q-17 -11 -50 -16.5t-67 -5.5q-11 0 -17 11.5t-6 28.5q0 18 6 29.5t17 11.5q34 0 64 3t52 11l27 152h50q-2 -27 -2.5 -44.5t-1 -28t-0.5 -15.5v-9q0 -24 9 -37q96 82 152.5 129t87.5 71t44 30t23 6q24 0 50.5 -14
t48.5 -40.5t36.5 -63.5t14.5 -83q0 -15 -4.5 -33t-12.5 -35.5t-19 -31.5t-25 -20q-60 -28 -198 -28h-107zM487 270q-9 0 -26 -9.5t-46 -31.5t-71.5 -57.5t-102.5 -87.5q16 -3 38 -3h145q66 0 107.5 6t66.5 19q1 32 -9.5 62t-28 52.5t-37.5 36t-36 13.5z" />
    <glyph glyph-name="uFEBC" unicode="&#x635;" horiz-adv-x="736" arabic-form="medial" 
d="M0 0q-11 0 -17 11.5t-6 28.5q0 18 6 29.5t17 11.5q34 0 64 3t52 11l27 152h50q-2 -27 -2.5 -44.5t-1 -28t-0.5 -15.5v-9q0 -24 9 -37q96 82 152.5 129t87.5 71t44 30t23 6q24 0 50.5 -14t48.5 -40.5t36.5 -63.5t14.5 -83q0 -12 -2.5 -25.5t-7.5 -27.5q15 -8 34 -11t47 -3
h10v-81h-10q-27 0 -57.5 7.5t-52.5 37.5q-11 -13 -22 -17q-60 -28 -198 -28h-107q-51 0 -86.5 11.5t-53.5 51.5q-14 -29 -32 -41q-17 -11 -50 -16.5t-67 -5.5zM487 270q-9 0 -26 -9.5t-46 -31.5t-71.5 -57.5t-102.5 -87.5q16 -3 38 -3h145q66 0 107.5 6t66.5 19
q1 32 -9.5 62t-28 52.5t-37.5 36t-36 13.5z" />
    <glyph glyph-name="uFEBE" unicode="&#x636;" horiz-adv-x="1092" arabic-form="final" 
d="M862 349q24 0 50.5 -14t48.5 -40.5t36 -63.5t14 -83q0 -26 -10 -53q15 -8 34 -11t47 -3h10v-81h-10q-27 0 -57 7.5t-52 36.5q-12 -12 -22 -16q-60 -28 -198 -28h-73q-45 0 -73.5 5.5t-47.5 19.5q3 -23 3 -54q0 -35 -6 -62.5t-15 -42.5q-5 -9 -26 -26t-55.5 -33.5
t-82.5 -29t-106 -12.5q-61 0 -101.5 12.5t-65 33.5t-34.5 49t-10 59q0 24 2.5 62.5t6.5 75.5q4 43 10 90l53 -3q-3 -49 -7 -94q-3 -38 -5.5 -78.5t-3.5 -63.5q17 -26 55.5 -44t99.5 -18q33 0 67.5 5.5t66 14.5t58 22t43.5 28q-1 38 -5.5 78t-11 79t-15 76.5t-17.5 69.5
l51 33l15 -5l15 -71q7 -37 21 -58q63 53 108 91t76.5 64t51.5 41t33 23t20.5 10t13.5 2zM844 270q-10 0 -27 -9.5t-45 -31.5t-70 -56.5t-101 -85.5q22 -6 60 -6h120q65 0 107 6t67 19q1 32 -10 62t-28 52.5t-37 36t-36 13.5zM791 478l38 64l78 -48l-40 -63z" />
    <glyph glyph-name="uFEBF" unicode="&#x636;" horiz-adv-x="715" arabic-form="initial" 
d="M289 0q-51 0 -86.5 11.5t-53.5 51.5q-14 -29 -32 -41q-17 -11 -50 -16.5t-67 -5.5q-11 0 -17 11.5t-6 28.5q0 18 6 29.5t17 11.5q34 0 64 3t52 11l27 152h50q-2 -27 -2.5 -44.5t-1 -28t-0.5 -15.5v-9q0 -24 9 -37q96 82 152.5 129t87.5 71t44 30t23 6q24 0 50.5 -14
t48.5 -40.5t36.5 -63.5t14.5 -83q0 -15 -4.5 -33t-12.5 -35.5t-19 -31.5t-25 -20q-60 -28 -198 -28h-107zM487 270q-9 0 -26 -9.5t-46 -31.5t-71.5 -57.5t-102.5 -87.5q16 -3 38 -3h145q66 0 107.5 6t66.5 19q1 32 -9.5 62t-28 52.5t-37.5 36t-36 13.5zM434 478l38 64
l78 -48l-40 -63z" />
    <glyph glyph-name="uFEC0" unicode="&#x636;" horiz-adv-x="736" arabic-form="medial" 
d="M0 0q-11 0 -17 11.5t-6 28.5q0 18 6 29.5t17 11.5q34 0 64 3t52 11l27 152h50q-2 -27 -2.5 -44.5t-1 -28t-0.5 -15.5v-9q0 -24 9 -37q96 82 152.5 129t87.5 71t44 30t23 6q24 0 50.5 -14t48.5 -40.5t36.5 -63.5t14.5 -83q0 -12 -2.5 -25.5t-7.5 -27.5q15 -8 34 -11t47 -3
h10v-81h-10q-27 0 -57.5 7.5t-52.5 37.5q-11 -13 -22 -17q-60 -28 -198 -28h-107q-51 0 -86.5 11.5t-53.5 51.5q-14 -29 -32 -41q-17 -11 -50 -16.5t-67 -5.5zM487 270q-9 0 -26 -9.5t-46 -31.5t-71.5 -57.5t-102.5 -87.5q16 -3 38 -3h145q66 0 107.5 6t66.5 19
q1 32 -9.5 62t-28 52.5t-37.5 36t-36 13.5zM434 478l38 64l78 -48l-40 -63z" />
    <glyph glyph-name="uFEC2" unicode="&#x637;" horiz-adv-x="679" arabic-form="final" 
d="M339 0q-61 0 -124.5 1.5t-135.5 12.5l-30 65l6 16q17 -2 31 -3.5t28 -3.5l70 63q10 9 16.5 18t11 21t6.5 29t2 43v27.5t-0.5 40t-1 43.5t-1.5 38q-1 35 -2 61.5t-4 49t-9 44t-15 45.5l57 48q12 -28 19 -55t10.5 -54t4.5 -55.5t1 -60.5q0 -48 -0.5 -81.5t-1 -57.5
t-2.5 -40.5t-5 -29.5q47 39 77.5 63.5t50 38t30.5 18t20 4.5q24 0 50.5 -14t48 -40.5t36 -63.5t14.5 -83q0 -26 -10 -53q15 -8 34 -11t47 -3h11v-81h-11q-27 0 -57 7.5t-52 37.5q-11 -13 -22 -17q-60 -28 -198 -28zM429 270q-10 0 -27 -9.5t-45.5 -31.5t-71.5 -58t-104 -88
q38 -2 80.5 -2h105.5q65 0 107 6t67 19q1 32 -10 62t-28.5 52.5t-37.5 36t-36 13.5z" />
    <glyph glyph-name="uFEC3" unicode="&#x637;" horiz-adv-x="595" arabic-form="initial" 
d="M0 0q-11 0 -17 11.5t-6 28.5q0 18 6 29.5t17 11.5h43l78 70q10 9 17 18t11.5 21t6.5 29t2 43q0 9 -0.5 27.5t-1 40t-1 43.5t-0.5 38q-1 35 -2.5 61.5t-4.5 49t-8.5 44t-14.5 45.5l56 48q13 -28 20 -55t10.5 -54t4 -55.5t0.5 -60.5q0 -48 -0.5 -81.5t-1 -57.5t-2 -40.5
t-4.5 -29.5q47 39 77.5 63.5t50 38t30.5 18t19 4.5q24 0 50.5 -14t48.5 -40.5t36.5 -63.5t14.5 -83q0 -15 -4.5 -33t-12.5 -35.5t-19 -31.5t-25 -20q-60 -28 -198 -28h-276zM367 270q-10 0 -27 -9.5t-46 -32t-72 -58.5t-105 -89h187q66 0 107.5 6t66.5 19q1 32 -9.5 62
t-28 52.5t-37.5 36t-36 13.5z" />
    <glyph glyph-name="uFEC4" unicode="&#x637;" horiz-adv-x="616" arabic-form="medial" 
d="M0 0q-11 0 -17 11.5t-6 28.5q0 18 6 29.5t17 11.5h43l78 70q10 9 17 18t11.5 21t6.5 29t2 43q0 9 -0.5 27.5t-1 40t-1 43.5t-0.5 38q-1 35 -2.5 61.5t-4.5 49t-8.5 44t-14.5 45.5l56 48q13 -28 20 -55t10.5 -54t4 -55.5t0.5 -60.5q0 -48 -0.5 -81.5t-1 -57.5t-2 -40.5
t-4.5 -29.5q47 39 77.5 63.5t50 38t30.5 18t19 4.5q24 0 50.5 -14t48.5 -40.5t36.5 -63.5t14.5 -83q0 -12 -2.5 -25.5t-7.5 -27.5q15 -8 34 -11t47 -3h10v-81h-10q-27 0 -57.5 7.5t-52.5 37.5q-11 -13 -22 -17q-60 -28 -198 -28h-276zM367 270q-10 0 -27 -9.5t-46 -32
t-72 -58.5t-105 -89h187q66 0 107.5 6t66.5 19q1 32 -9.5 62t-28 52.5t-37.5 36t-36 13.5z" />
    <glyph glyph-name="uFEC6" unicode="&#x638;" horiz-adv-x="679" arabic-form="final" 
d="M339 0q-61 0 -124.5 1.5t-135.5 12.5l-30 65l6 16q17 -2 31 -3.5t28 -3.5l70 63q10 9 16.5 18t11 21t6.5 29t2 43v27.5t-0.5 40t-1 43.5t-1.5 38q-1 35 -2 61.5t-4 49t-9 44t-15 45.5l57 48q12 -28 19 -55t10.5 -54t4.5 -55.5t1 -60.5q0 -48 -0.5 -81.5t-1 -57.5
t-2.5 -40.5t-5 -29.5q47 39 77.5 63.5t50 38t30.5 18t20 4.5q24 0 50.5 -14t48 -40.5t36 -63.5t14.5 -83q0 -26 -10 -53q15 -8 34 -11t47 -3h11v-81h-11q-27 0 -57 7.5t-52 37.5q-11 -13 -22 -17q-60 -28 -198 -28zM429 270q-10 0 -27 -9.5t-45.5 -31.5t-71.5 -58t-104 -88
q38 -2 80.5 -2h105.5q65 0 107 6t67 19q1 32 -10 62t-28.5 52.5t-37.5 36t-36 13.5zM394 474l38 64l78 -48l-40 -63z" />
    <glyph glyph-name="uFEC7" unicode="&#x638;" horiz-adv-x="595" arabic-form="initial" 
d="M0 0q-11 0 -17 11.5t-6 28.5q0 18 6 29.5t17 11.5h43l78 70q10 9 17 18t11.5 21t6.5 29t2 43q0 9 -0.5 27.5t-1 40t-1 43.5t-0.5 38q-1 35 -2.5 61.5t-4.5 49t-8.5 44t-14.5 45.5l56 48q13 -28 20 -55t10.5 -54t4 -55.5t0.5 -60.5q0 -48 -0.5 -81.5t-1 -57.5t-2 -40.5
t-4.5 -29.5q47 39 77.5 63.5t50 38t30.5 18t19 4.5q24 0 50.5 -14t48.5 -40.5t36.5 -63.5t14.5 -83q0 -15 -4.5 -33t-12.5 -35.5t-19 -31.5t-25 -20q-60 -28 -198 -28h-276zM367 270q-10 0 -27 -9.5t-46 -32t-72 -58.5t-105 -89h187q66 0 107.5 6t66.5 19q1 32 -9.5 62
t-28 52.5t-37.5 36t-36 13.5zM332 474l38 64l78 -48l-40 -63z" />
    <glyph glyph-name="uFEC8" unicode="&#x638;" horiz-adv-x="616" arabic-form="medial" 
d="M0 0q-11 0 -17 11.5t-6 28.5q0 18 6 29.5t17 11.5h43l78 70q10 9 17 18t11.5 21t6.5 29t2 43q0 9 -0.5 27.5t-1 40t-1 43.5t-0.5 38q-1 35 -2.5 61.5t-4.5 49t-8.5 44t-14.5 45.5l56 48q13 -28 20 -55t10.5 -54t4 -55.5t0.5 -60.5q0 -48 -0.5 -81.5t-1 -57.5t-2 -40.5
t-4.5 -29.5q47 39 77.5 63.5t50 38t30.5 18t19 4.5q24 0 50.5 -14t48.5 -40.5t36.5 -63.5t14.5 -83q0 -12 -2.5 -25.5t-7.5 -27.5q15 -8 34 -11t47 -3h10v-81h-10q-27 0 -57.5 7.5t-52.5 37.5q-11 -13 -22 -17q-60 -28 -198 -28h-276zM367 270q-10 0 -27 -9.5t-46 -32
t-72 -58.5t-105 -89h187q66 0 107.5 6t66.5 19q1 32 -9.5 62t-28 52.5t-37.5 36t-36 13.5zM332 474l38 64l78 -48l-40 -63z" />
    <glyph glyph-name="uFECA" unicode="&#x639;" horiz-adv-x="526" arabic-form="final" 
d="M137 -55q0 -41 10.5 -70.5t34 -49t61.5 -29t94 -9.5h35t37.5 1t45 3t56.5 5l10 -12l-17 -59q-58 -8 -103 -9t-72 -1q-54 0 -98.5 9.5t-76.5 33.5t-49.5 63.5t-17.5 99.5v13q0 17 3.5 37.5t15.5 45t36.5 53.5t66.5 64q-28 45 -54 83t-49 67l-38 -4l-8 14l18 54
q51 7 89.5 11.5t68 7t52 3.5t42.5 1q70 0 102 -25t32 -70q0 -38 -30 -83t-102 -98q17 -10 39 -12t63 -2h92v-81h-111q-32 0 -55.5 2t-43 10.5t-37 24.5t-36.5 44q-41 -32 -69.5 -63t-36.5 -61v-12zM284 123q66 45 93.5 79t27.5 52q0 24 -21 35.5t-57 11.5q-23 0 -67 -3
t-88 -10q10 -14 23.5 -33.5t28.5 -42t30.5 -45.5t29.5 -44z" />
    <glyph glyph-name="uFECB" unicode="&#x639;" horiz-adv-x="484" arabic-form="initial" 
d="M0 0q-11 0 -17 11.5t-6 28.5q0 18 6 29.5t17 11.5q33 0 65.5 1t61.5 3q-37 26 -52 60.5t-15 68.5q0 40 20.5 74.5t50 60t61 40.5t53.5 15q20 0 45 -18t57 -45l-32 -52q-32 20 -49.5 29t-28.5 9q-12 0 -30.5 -8t-37.5 -22t-35 -32.5t-24 -40.5q8 -44 42.5 -74.5
t87.5 -30.5q26 0 66.5 14t105.5 37l12 -11l-5 -62q-47 -20 -94 -37.5t-98 -30.5t-107 -21t-120 -8z" />
    <glyph glyph-name="uFECC" unicode="&#x639;" horiz-adv-x="511" arabic-form="medial" 
d="M0 0q-11 0 -17 11.5t-6 28.5q0 18 6 29.5t17 11.5h55q41 0 80.5 2.5t74.5 11.5q-33 53 -63 97.5t-56 76.5l-38 -4l-8 14l18 54q51 7 89 11.5t67.5 7t52 3.5t43.5 1q70 0 102 -25t32 -70q0 -37 -28 -80.5t-95 -94.5q14 -3 35.5 -4t53.5 -1h96v-81h-115q-51 0 -84.5 7
t-63.5 37q-41 -28 -85 -36t-104 -8h-59zM269 108q66 45 93.5 79t27.5 52q0 24 -21 35.5t-57 11.5q-23 0 -66.5 -3t-87.5 -10q10 -14 23.5 -33.5t28.5 -42t30 -45.5t29 -44z" />
    <glyph glyph-name="uFECE" unicode="&#x63a;" horiz-adv-x="526" arabic-form="final" 
d="M137 -55q0 -41 10.5 -70.5t34 -49t61.5 -29t94 -9.5h35t37.5 1t45 3t56.5 5l10 -12l-17 -59q-58 -8 -103 -9t-72 -1q-54 0 -98.5 9.5t-76.5 33.5t-49.5 63.5t-17.5 99.5v13q0 17 3.5 37.5t15.5 45t36.5 53.5t66.5 64q-28 45 -54 83t-49 67l-38 -4l-8 14l18 54
q51 7 89.5 11.5t68 7t52 3.5t42.5 1q70 0 102 -25t32 -70q0 -38 -30 -83t-102 -98q17 -10 39 -12t63 -2h92v-81h-111q-32 0 -55.5 2t-43 10.5t-37 24.5t-36.5 44q-41 -32 -69.5 -63t-36.5 -61v-12zM284 123q66 45 93.5 79t27.5 52q0 24 -21 35.5t-57 11.5q-23 0 -67 -3
t-88 -10q10 -14 23.5 -33.5t28.5 -42t30.5 -45.5t29.5 -44zM206 494l38 64l78 -48l-40 -63z" />
    <glyph glyph-name="uFECF" unicode="&#x63a;" horiz-adv-x="484" arabic-form="initial" 
d="M0 0q-11 0 -17 11.5t-6 28.5q0 18 6 29.5t17 11.5q33 0 65.5 1t61.5 3q-37 26 -52 60.5t-15 68.5q0 40 20.5 74.5t50 60t61 40.5t53.5 15q20 0 45 -18t57 -45l-32 -52q-32 20 -49.5 29t-28.5 9q-12 0 -30.5 -8t-37.5 -22t-35 -32.5t-24 -40.5q8 -44 42.5 -74.5
t87.5 -30.5q26 0 66.5 14t105.5 37l12 -11l-5 -62q-47 -20 -94 -37.5t-98 -30.5t-107 -21t-120 -8zM161 529l38 64l78 -48l-40 -63z" />
    <glyph glyph-name="uFED0" unicode="&#x63a;" horiz-adv-x="511" arabic-form="medial" 
d="M0 0q-11 0 -17 11.5t-6 28.5q0 18 6 29.5t17 11.5h55q41 0 80.5 2.5t74.5 11.5q-33 53 -63 97.5t-56 76.5l-38 -4l-8 14l18 54q51 7 89 11.5t67.5 7t52 3.5t43.5 1q70 0 102 -25t32 -70q0 -37 -28 -80.5t-95 -94.5q14 -3 35.5 -4t53.5 -1h96v-81h-115q-51 0 -84.5 7
t-63.5 37q-41 -28 -85 -36t-104 -8h-59zM269 108q66 45 93.5 79t27.5 52q0 24 -21 35.5t-57 11.5q-23 0 -66.5 -3t-87.5 -10q10 -14 23.5 -33.5t28.5 -42t30 -45.5t29 -44zM188 483l38 64l78 -48l-40 -63z" />
    <glyph glyph-name="uFED2" unicode="&#x641;" horiz-adv-x="782" arabic-form="final" 
d="M685 0q-42 0 -76 7t-58 24l-3 -3q-12 -9 -34.5 -15.5t-52.5 -10.5t-66 -5.5t-74 -1.5q-53 0 -100.5 4t-83 17.5t-56.5 38.5t-21 68q0 23 2 50.5t4 51.5l6 56l53 -3q-4 -51 -7 -88t-4 -72q24 -22 80.5 -32t126.5 -10h37t42 1t41.5 2.5t35.5 4.5q-24 20 -38 44t-14 50
q0 19 6 39.5t20 45t37 54.5t58 68l17 5q50 -27 79.5 -50t45 -43.5t20 -39t4.5 -37.5q0 -29 -16.5 -65t-51.5 -70q14 -3 29 -3.5t28 -0.5h81v-81h-97zM479 190q1 -23 25 -52.5t72 -46.5q41 29 58 58t17 48q0 10 -3 22t-13 26t-30 29t-53 32q-37 -35 -54.5 -65.5t-18.5 -50.5z
M503 511l38 64l78 -48l-40 -63z" />
    <glyph glyph-name="uFED3" unicode="&#x641;" horiz-adv-x="422" arabic-form="initial" 
d="M0 0q-11 0 -17 11.5t-6 28.5q0 18 6 29.5t17 11.5h64q89 0 152.5 8.5t93.5 24.5q1 21 0.5 41.5t-2.5 40.5q-31 -10 -63.5 -15t-77.5 -5q-56 0 -83 21.5t-27 57.5q0 17 6 44.5t14.5 58t18.5 61t18 52.5q6 3 10 7q4 3 6.5 5t3.5 3q71 -1 115.5 -29t69.5 -72.5t34 -100
t9 -111.5q0 -30 -6.5 -53.5t-16 -41t-21.5 -29t-23 -17.5q-26 -13 -84 -22.5t-152 -9.5h-59zM185 247q34 0 64 4.5t50 9.5q-6 32 -17.5 59.5t-30.5 48t-45.5 32.5t-63.5 13q-4 -9 -9.5 -29t-11.5 -42.5t-11 -43.5t-7 -31q11 -13 31.5 -17t50.5 -4zM115 615l38 64l78 -48
l-40 -63z" />
    <glyph glyph-name="uFED4" unicode="&#x641;" horiz-adv-x="425" arabic-form="medial" 
d="M327 0q-42 0 -75.5 7t-57.5 24q-1 -1 -2 -1.5t-2 -1.5q-24 -18 -67.5 -23t-94.5 -5h-28q-11 0 -17 11.5t-6 28.5q0 18 6 29.5t17 11.5q29 0 60.5 0.5t57.5 3.5q-23 20 -36.5 43.5t-13.5 49.5q0 19 6 39.5t19.5 45t36.5 54.5t58 68l17 5q50 -27 80 -50t45.5 -43.5t20 -39
t4.5 -37.5q0 -29 -16.5 -65t-52.5 -70q14 -3 29 -3.5t29 -0.5h81v-81h-98zM121 190q1 -23 25.5 -52.5t72.5 -46.5q40 29 57.5 58t17.5 48q0 10 -3 22t-13 26t-30 29t-53 32q-38 -35 -55.5 -65.5t-18.5 -50.5zM146 511l38 64l78 -48l-40 -63z" />
    <glyph glyph-name="uFED6" unicode="&#x642;" horiz-adv-x="627" arabic-form="final" 
d="M342 314q57 -2 97 -19.5t65.5 -48.5t39 -73t18.5 -92h65v-81h-60v-16q0 -43 -6 -73t-15 -45q-5 -9 -26 -26t-56 -33.5t-83 -29t-107 -12.5q-62 0 -103 12.5t-66 33.5t-35 49t-10 59q0 24 2.5 62.5t6.5 75.5q4 43 10 90l53 -3q-3 -49 -7 -94q-3 -38 -5.5 -78.5t-3.5 -63.5
q17 -26 55.5 -44t102.5 -18q33 0 67.5 5.5t66.5 15t59.5 22.5t46.5 28q1 23 0.5 46t-2.5 44q-32 -7 -66 -11t-67 -4q-54 0 -85.5 21t-31.5 62q0 17 6.5 45.5t15.5 61t19 63.5t18 53zM395 70q30 0 59 2.5t51 4.5q-6 36 -16.5 65t-29 50.5t-45 33.5t-63.5 14q-4 -9 -10 -29.5
t-12.5 -43.5t-11.5 -44.5t-7 -31.5q11 -13 33 -17t52 -4zM312 498l78 -48l-40 -63l-77 47zM402 435l40 63l76 -47l-38 -64z" />
    <glyph glyph-name="uFED7" unicode="&#x642;" horiz-adv-x="422" arabic-form="initial" 
d="M0 0q-11 0 -17 11.5t-6 28.5q0 18 6 29.5t17 11.5h64q89 0 152.5 8.5t93.5 24.5q1 21 0.5 41.5t-2.5 40.5q-31 -10 -63.5 -15t-77.5 -5q-56 0 -83 21.5t-27 57.5q0 17 6 44.5t14.5 58t18.5 61t18 52.5q6 3 10 7q4 3 6.5 5t3.5 3q71 -1 115.5 -29t69.5 -72.5t34 -100
t9 -111.5q0 -30 -6.5 -53.5t-16 -41t-21.5 -29t-23 -17.5q-26 -13 -84 -22.5t-152 -9.5h-59zM185 247q34 0 64 4.5t50 9.5q-6 32 -17.5 59.5t-30.5 48t-45.5 32.5t-63.5 13q-4 -9 -9.5 -29t-11.5 -42.5t-11 -43.5t-7 -31q11 -13 31.5 -17t50.5 -4zM91 679l78 -48l-40 -63
l-77 47zM181 616l40 63l76 -47l-38 -64z" />
    <glyph glyph-name="uFED8" unicode="&#x642;" horiz-adv-x="425" arabic-form="medial" 
d="M327 0q-42 0 -75.5 7t-57.5 24q-1 -1 -2 -1.5t-2 -1.5q-24 -18 -67.5 -23t-94.5 -5h-28q-11 0 -17 11.5t-6 28.5q0 18 6 29.5t17 11.5q29 0 60.5 0.5t57.5 3.5q-23 20 -36.5 43.5t-13.5 49.5q0 19 6 39.5t19.5 45t36.5 54.5t58 68l17 5q50 -27 80 -50t45.5 -43.5t20 -39
t4.5 -37.5q0 -29 -16.5 -65t-52.5 -70q14 -3 29 -3.5t29 -0.5h81v-81h-98zM121 190q1 -23 25.5 -52.5t72.5 -46.5q40 29 57.5 58t17.5 48q0 10 -3 22t-13 26t-30 29t-53 32q-38 -35 -55.5 -65.5t-18.5 -50.5zM122 575l78 -48l-40 -63l-77 47zM212 512l40 63l76 -47l-38 -64z
" />
    <glyph glyph-name="uFEDA" unicode="&#x643;" horiz-adv-x="741" arabic-form="final" 
d="M741 0q-50 0 -77 14.5t-40 39.5q-5 -8 -12.5 -15.5t-15.5 -12.5q-24 -13 -91.5 -22t-172.5 -9q-57 0 -106.5 4t-86.5 17.5t-58 38.5t-21 68q0 23 2 50.5t4 51.5l6 56l53 -3q-4 -51 -7 -88t-4 -72q24 -22 82 -32t136 -10q89 0 159.5 6t108.5 21l-7 308q-1 35 -2.5 61.5
t-4.5 49t-9 44t-15 45.5l57 48q12 -28 19 -55t10.5 -54t4.5 -55.5t1 -60.5v-317q10 -18 34 -27t53 -9v-81zM452 446l-125 -38q32 -14 52 -27t31 -25t15 -23t4 -21q0 -14 -7 -27.5t-24 -26t-46 -23t-72 -19.5l-29 37l6 10q17 2 36 6t37.5 9.5t34 12t26.5 13.5q-8 13 -31 30
t-71 38l-5 10q3 18 5.5 31t7.5 21.5t12.5 13.5t19.5 9l129 43z" />
    <glyph glyph-name="uFEDE" unicode="&#x644;" horiz-adv-x="610" arabic-form="final" 
d="M610 0q-33 0 -54.5 8t-33.5 22q-1 -54 -5.5 -80.5t-13.5 -40.5q-8 -11 -28 -27t-51 -31t-72 -25.5t-92 -10.5q-57 0 -95 12.5t-61.5 33.5t-33.5 49t-10 59q0 24 2.5 62.5t6.5 75.5q4 43 10 90l53 -3q-3 -49 -7 -94q-3 -38 -5.5 -78.5t-3.5 -63.5q14 -25 51 -43.5
t93 -18.5q53 0 108.5 15.5t100.5 47.5l-8 452q-1 35 -2 61.5t-4 49t-9 44t-15 45.5l56 48q13 -28 20 -55t10.5 -54t4 -55.5t0.5 -60.5v-317q11 -18 35 -27t53 -9v-81v0z" />
    <glyph glyph-name="uFEDF" unicode="&#x644;" horiz-adv-x="237" arabic-form="initial" 
d="M0 0q-11 0 -17 11.5t-6 28.5q0 18 6 29.5t17 11.5q34 0 64.5 3.5t49.5 14.5l-8 312q-1 35 -2 61.5t-4 49t-9 44t-15 45.5l56 48q13 -28 20 -55t10.5 -54t4 -55.5t0.5 -60.5v-297q0 -19 -5 -38t-13.5 -35.5t-20.5 -29.5t-25 -19q-20 -8 -44.5 -11.5t-58.5 -3.5z" />
    <glyph glyph-name="uFEE0" unicode="&#x644;" horiz-adv-x="255" arabic-form="medial" 
d="M255 0q-48 0 -75 14t-41 38q-13 -25 -36 -37q-20 -8 -44.5 -11.5t-58.5 -3.5q-11 0 -17 11.5t-6 28.5q0 18 6 29.5t17 11.5q34 0 64.5 3.5t49.5 14.5l-8 312q-1 35 -2 61.5t-4 49t-9 44t-15 45.5l56 48q13 -28 20 -55t10.5 -54t4 -55.5t0.5 -60.5v-317q11 -18 35 -27
t53 -9v-81v0z" />
    <glyph glyph-name="uFEE2" unicode="&#x645;" horiz-adv-x="544" arabic-form="final" 
d="M544 0q-38 0 -69.5 9t-50.5 37q-10 -20 -24 -33t-28 -13q-29 0 -64 10t-68 23.5t-60.5 28t-40.5 24.5q-7 -6 -11 -13t-5.5 -18.5t-2 -30.5t-0.5 -49q0 -36 1 -88.5t4 -101.5l-49 -21l-12 6q-3 93 -3.5 164.5t-0.5 109.5q0 42 19 73t64 39l46 73q16 26 33 45t39.5 32
t52 20.5t70.5 10.5l21 -12q7 -28 13 -58.5t11 -59.5t9 -54.5t8 -42.5q14 -17 39.5 -23t58.5 -6v-81zM357 259q-30 -3 -50.5 -7t-38 -15.5t-35.5 -34t-44 -64.5q45 -29 99.5 -45t96.5 -19q0 15 -2 36.5t-6 46t-9 51t-11 51.5z" />
    <glyph glyph-name="uFEE3" unicode="&#x645;" horiz-adv-x="489" arabic-form="initial" 
d="M359 0q-25 0 -56.5 8t-62.5 20t-58.5 25.5t-44.5 25.5q-19 -25 -35.5 -40.5t-32.5 -24t-33 -11.5t-36 -3q-11 0 -17 11.5t-6 28.5q0 18 6 29.5t17 11.5q30 0 50 5.5t38 21t38 44.5t50 77q16 26 33.5 45t40 32t52 20.5t70.5 10.5l20 -12q19 -75 28 -132.5t9 -86.5
q0 -21 -6.5 -40t-17 -34t-22.5 -23.5t-24 -8.5zM179 141q-2 -2 -2 -3q19 -13 44.5 -24t51.5 -19.5t52 -14t47 -6.5q0 15 -2 36.5t-5.5 46t-9 51t-11.5 51.5q-32 -3 -52.5 -7.5t-37.5 -16t-34 -33.5t-41 -61z" />
    <glyph glyph-name="uFEE4" unicode="&#x645;" horiz-adv-x="531" arabic-form="medial" 
d="M531 0q-37 0 -68.5 9t-51.5 36q-9 -20 -23.5 -32.5t-28.5 -12.5q-25 0 -56.5 8t-62.5 20t-58.5 25.5t-44.5 25.5q-19 -25 -35.5 -40.5t-32.5 -24t-33 -11.5t-36 -3q-11 0 -17 11.5t-6 28.5q0 18 6 29.5t17 11.5q30 0 50 5.5t38 21t38 44.5t50 77q16 26 33.5 45t40 32
t52 20.5t70.5 10.5l20 -12q7 -28 13 -58.5t11.5 -59.5t9.5 -54.5t8 -42.5q14 -17 39 -23t58 -6v-81zM179 141q-2 -2 -2 -3q19 -13 44.5 -24t51.5 -19.5t52 -14t47 -6.5q0 15 -2 36.5t-5.5 46t-9 51t-11.5 51.5q-32 -3 -52.5 -7.5t-37.5 -16t-34 -33.5t-41 -61z" />
    <glyph glyph-name="uFEE6" unicode="&#x646;" horiz-adv-x="637" arabic-form="final" 
d="M637 0q-24 0 -43 3t-34 11q1 -9 1.5 -20t0.5 -23q0 -35 -6 -62.5t-15 -42.5q-5 -9 -26 -26t-55.5 -33.5t-82.5 -29t-106 -12.5q-61 0 -101.5 12.5t-65 33.5t-34.5 49t-10 59q0 24 2.5 62.5t6.5 75.5q4 43 10 90l53 -3q-3 -49 -7 -94q-3 -38 -5.5 -78.5t-3.5 -63.5
q17 -26 55.5 -44t99.5 -18q33 0 67.5 5.5t66 14.5t58 22t43.5 28q-1 38 -5.5 78t-11 79t-15 76.5t-17.5 69.5l51 33l15 -5q12 -51 20 -90t16 -57q11 -11 31 -15t47 -4v-81zM220 277l38 64l78 -48l-40 -63z" />
    <glyph glyph-name="uFEE7" unicode="&#x646;" horiz-adv-x="289" arabic-form="initial" 
d="M0 0q-11 0 -17 11.5t-6 28.5q0 18 6 29.5t17 11.5q54 0 101 4t73 18q-1 15 -5.5 38.5t-11 50t-14.5 53.5t-17 49l50 38l16 -6q7 -16 13.5 -38.5t11.5 -47t8.5 -49.5t3.5 -45q0 -45 -18.5 -79t-41.5 -45q-20 -11 -64.5 -16.5t-104.5 -5.5zM74 458l38 64l78 -48l-40 -63z
" />
    <glyph glyph-name="uFEE8" unicode="&#x646;" horiz-adv-x="301" arabic-form="medial" 
d="M301 0q-16 0 -33 2t-32.5 9t-29 20.5t-22.5 36.5q-17 -34 -35 -45q-35 -23 -149 -23q-11 0 -17 11.5t-6 28.5q0 18 6 29.5t17 11.5q108 0 144 15l27 151h54q-2 -27 -2.5 -44.5t-1 -28t-0.5 -15.5v-9q0 -39 24.5 -54t55.5 -15v-81zM94 381l38 64l78 -48l-40 -63z" />
    <glyph glyph-name="uFEEA" unicode="&#x647;" horiz-adv-x="445" arabic-form="final" 
d="M181 25q-68 0 -94.5 28t-26.5 87q0 50 13 89q7 10 26.5 25t44.5 32t53.5 35.5t54.5 34.5l-12 70l46 23l15 -6l50 -331q10 -15 35 -23t59 -8v-81q-25 0 -48 3t-41.5 12t-33 25t-22.5 42q-6 -15 -10 -24t-5 -11q-3 -5 -12.5 -9t-24 -7t-32 -4.5t-35.5 -1.5zM184 102
q23 0 51.5 2t56.5 9l-30 181q-23 -14 -48 -29t-46.5 -29t-37 -26.5t-21.5 -20.5q-2 -24 -0.5 -40.5t9 -27t23.5 -15t43 -4.5z" />
    <glyph glyph-name="uFEEB" unicode="&#x647;" horiz-adv-x="554" arabic-form="initial" 
d="M0 0q-11 0 -17 11.5t-6 28.5q0 18 6 29.5t17 11.5h29q63 0 97 7q-29 16 -41.5 42t-12.5 54q0 21 7 42t19 39t28 33t34 25l-52 22l-7 14l19 56l191 -80q93 -38 139.5 -82t46.5 -108q0 -36 -13 -73t-38 -80l-242 48q-32 -19 -76 -29.5t-91 -10.5h-37zM216 298
q-20 -5 -37 -16.5t-29.5 -26.5t-20 -31.5t-8.5 -29.5q2 -28 21 -53t62 -36q38 15 57.5 39t24.5 43q0 9 -2.5 24.5t-10 32t-21.5 31.5t-36 23zM443 126q0 44 -31 74.5t-91 57.5q11 -28 11 -61q0 -24 -13.5 -52.5t-42.5 -53.5l153 -27q6 16 10 32.5t4 29.5z" />
    <glyph glyph-name="uFEEC" unicode="&#x647;" horiz-adv-x="407" arabic-form="medial" 
d="M325 0q12 -12 15.5 -29t3.5 -34t-3.5 -34.5t-9 -32t-11 -24.5t-8.5 -13q-12 -10 -27.5 -17t-31.5 -11t-32 -6t-29 -2q-77 0 -106.5 47.5t-25.5 155.5h-60q-11 0 -17 11.5t-6 28.5q0 18 6 29.5t17 11.5h68l51 279l12 10q70 -21 108 -45.5t56 -53.5t21 -64t3 -77
q0 -16 -2.5 -28t-6.5 -21h97v-81h-82zM119 77q49 0 88 2t62 13q1 41 -0.5 71t-12 52t-34.5 37.5t-67 29.5zM201 -129q20 0 43.5 3.5t46.5 14.5q2 28 1 50t-9 37t-24.5 23t-44.5 8h-103q-3 -45 2 -71.5t17 -41t30 -19t41 -4.5z" />
    <glyph glyph-name="uFEEE" unicode="&#x648;" horiz-adv-x="435" arabic-form="final" 
d="M184 -8q-54 0 -85.5 21t-31.5 62q0 17 6.5 46.5t15.5 62.5t19 64.5t18 53.5l21 15q57 -4 96.5 -23.5t66 -51t40 -73t17.5 -88.5h68v-81h-68q-6 -51 -30 -93.5t-54.5 -73t-63.5 -47t-57 -16.5q-8 0 -32 3t-69 13v35q43 5 83 20t73.5 38t59.5 53.5t41 66.5q0 2 -0.5 3
t-0.5 3q-32 -6 -66 -9.5t-67 -3.5zM200 70q30 0 59 2t52 5q-12 70 -47.5 114.5t-106.5 52.5q-3 -9 -9.5 -30t-13 -45t-12 -46t-7.5 -32q11 -13 33 -17t52 -4z" />
    <glyph glyph-name="uFEF0" unicode="&#x649;" horiz-adv-x="601" arabic-form="final" 
d="M559 0q1 -5 1.5 -11t0.5 -14q0 -15 -2 -32t-5 -32t-6.5 -27t-6.5 -18q-6 -9 -27 -26t-56 -33.5t-82 -29t-105 -12.5q-61 0 -101.5 12.5t-65 33.5t-34.5 49t-10 59q0 24 2.5 62.5t6.5 75.5q4 43 10 90l53 -3q-3 -49 -7 -94q-3 -38 -5.5 -78.5t-3.5 -63.5q17 -26 54 -44
t101 -18q31 0 63.5 4.5t62.5 13t56 19.5t45 25q4 19 5.5 42.5t-0.5 40.5q-10 4 -25.5 6.5t-41.5 4t-64.5 2.5t-93.5 3l-5 11l8 24t7 18q5 12 15 16.5t38 4.5h260v-81h-42z" />
    <glyph glyph-name="uFEF2" unicode="&#x64a;" horiz-adv-x="601" arabic-form="final" 
d="M559 0q1 -5 1.5 -11t0.5 -14q0 -15 -2 -32t-5 -32t-6.5 -27t-6.5 -18q-6 -9 -27 -26t-56 -33.5t-82 -29t-105 -12.5q-61 0 -101.5 12.5t-65 33.5t-34.5 49t-10 59q0 24 2.5 62.5t6.5 75.5q4 43 10 90l53 -3q-3 -49 -7 -94q-3 -38 -5.5 -78.5t-3.5 -63.5q17 -26 54 -44
t101 -18q31 0 63.5 4.5t62.5 13t56 19.5t45 25q4 19 5.5 42.5t-0.5 40.5q-10 4 -25.5 6.5t-41.5 4t-64.5 2.5t-93.5 3l-5 11l8 24t7 18q5 12 15 16.5t38 4.5h260v-81h-42zM221 -300l78 -49l-40 -62l-77 47zM427 -347l-38 -64l-78 48l40 63z" />
    <glyph glyph-name=".notdef" horiz-adv-x="605" 
d="M173 103h259v509h-259v-509zM80 715h445v-715h-445v715z" />
    <glyph glyph-name=".null" 
 />
    <glyph glyph-name="nonmarkingreturn" horiz-adv-x="333" 
 />
    <glyph glyph-name="space" unicode=" " horiz-adv-x="157" 
 />
    <glyph glyph-name="exclam" unicode="!" horiz-adv-x="223" 
d="M113 0q-21 0 -36 14.5t-15 36.5t15 37t36 15q22 0 37 -15t15 -37t-15 -36.5t-37 -14.5zM137 649v-455l-46 -15l-27 448l62 32z" />
    <glyph glyph-name="quotedbl" unicode="&#x22;" horiz-adv-x="296" 
d="M118 585v-274l-34 -19l-24 3v271l47 26zM235 585v-274l-34 -19l-24 3v271l47 26z" />
    <glyph glyph-name="numbersign" unicode="#" horiz-adv-x="714" 
d="M288 420h181l30 172l49 -8l8 -17l-29 -147h127l-7 -59h-132l-32 -167h152l-6 -59h-158l-35 -180h-12l-29 26l26 154h-189l-35 -180h-12l-29 26l26 154h-122l6 59h126l28 167h-141l6 59h145l30 172l50 -8l7 -17zM244 194h187l28 167h-183z" />
    <glyph glyph-name="dollar" unicode="$" horiz-adv-x="435" 
d="M216 -124h-42l-6 8l7 111q-32 2 -61 9.5t-57 21.5l9 65l9 5q26 -24 60.5 -37t70.5 -13q16 0 32.5 5t30 15t22 23.5t8.5 31.5q0 26 -20 44t-58 35q-40 18 -68 32.5t-46 29.5t-26.5 34t-10.5 48q0 52 38.5 88.5t104.5 42.5l10 135h42l8 -8l-10 -127q44 -3 89 -21l-11 -61
l-12 -2q-23 16 -50.5 25t-51.5 9q-18 0 -34 -5.5t-29 -15t-20.5 -23.5t-7.5 -30q0 -25 20.5 -41.5t61.5 -35.5q24 -11 50.5 -22t48 -27t35.5 -38t14 -54q0 -26 -9.5 -49t-28 -41t-44.5 -30t-59 -16z" />
    <glyph glyph-name="percent" unicode="%" horiz-adv-x="805" 
d="M629 612l-451 -699l-32 19l-5 11l451 701l31 -19zM328 449q0 -83 -37 -127.5t-106 -44.5q-66 0 -100.5 42.5t-34.5 122.5q0 83 37 126.5t106 43.5q66 0 100.5 -42t34.5 -121zM100 446q0 -120 90 -120q88 0 88 116q0 119 -90 119q-45 0 -66.5 -29.5t-21.5 -85.5zM755 168
q0 -84 -37 -128.5t-106 -44.5q-66 0 -101 43t-35 122q0 83 37.5 127t106.5 44q66 0 100.5 -42.5t34.5 -120.5zM526 164q0 -119 91 -119q89 0 89 116q0 118 -91 118q-89 0 -89 -115z" />
    <glyph glyph-name="ampersand" unicode="&#x26;" horiz-adv-x="682" 
d="M507 334q20 -56 20 -112q0 -59 -23 -108l126 -112v-5q-10 -11 -20.5 -19t-21.5 -14h-6l-113 101q-62 -71 -185 -71q-49 0 -88.5 11.5t-68 33t-44 52.5t-15.5 69q0 104 109 161v6q-66 63 -66 138q0 70 47 109.5t133 39.5q80 0 151 -33l-18 -56h-11q-58 35 -123 35
q-56 0 -85 -25.5t-29 -73.5q0 -32 13.5 -56.5t48.5 -52.5l223 -200q14 34 14 77q0 59 -26 111h-67l-4 6l6 49h272l5 -6l-6 -49h-147zM213 294q-81 -44 -81 -123q0 -57 43 -90.5t114 -33.5q91 0 138 56z" />
    <glyph glyph-name="quotesingle" unicode="'" horiz-adv-x="178" 
d="M118 585v-274l-34 -19l-9 3l-15 271l47 26z" />
    <glyph glyph-name="parenleft" unicode="(" horiz-adv-x="294" 
d="M127 222q0 -46 5 -85t17 -76.5t32.5 -77t52.5 -86.5l-32 -32h-12q-42 55 -68 102.5t-39.5 90.5t-18 83.5t-4.5 80.5t4.5 80.5t18 84t39.5 91t68 102.5h12l32 -33q-32 -47 -52.5 -86t-32.5 -76.5t-17 -77t-5 -85.5z" />
    <glyph glyph-name="parenright" unicode=")" horiz-adv-x="294" 
d="M167 222q0 46 -5 85.5t-17 77t-32.5 76.5t-52.5 86l32 33h12q42 -55 68 -102.5t39.5 -91t18 -84t4.5 -80.5t-4.5 -80.5t-18 -83.5t-39.5 -90.5t-68 -102.5h-12l-32 32q32 47 52.5 86.5t32.5 77t17 76.5t5 85z" />
    <glyph glyph-name="asterisk" unicode="*" horiz-adv-x="378" 
d="M202 576l-28 -4l-5 6v107q21 9 49 9l4 -6zM149 535l-7 -3l-99 33q0 25 8 51l6 2l96 -55zM337 549l-108 -16l-13 25l4 7l98 33q16 -22 23 -45zM285 425q-5 -9 -14.5 -17.5t-21.5 -18.5l-5 1l-48 104l20 18l9 -1zM175 490l-58 -86q-13 3 -47 22v6l80 79l24 -12z" />
    <glyph glyph-name="plus" unicode="+" horiz-adv-x="502" 
d="M223 0v161h-163v60h163v161h57v-161h162v-60h-162v-161h-57z" />
    <glyph glyph-name="comma" unicode="," horiz-adv-x="225" 
d="M80 -111l-19 29l49 83q-20 1 -35 14.5t-15 36.5q0 22 15 37t38 15q22 0 37 -15.5t15 -38.5q0 -9 -2 -19.5t-9.5 -28.5t-22.5 -45t-41 -68h-10z" />
    <glyph glyph-name="hyphen" unicode="-" horiz-adv-x="502" 
d="M60 160v66h382v-66h-382z" />
    <glyph glyph-name="period" unicode="." horiz-adv-x="225" 
d="M112 0q-22 0 -37 15t-15 37q0 23 15 38.5t37 15.5q23 0 38 -15.5t15 -38.5q0 -22 -15 -37t-38 -15z" />
    <glyph glyph-name="slash" unicode="/" horiz-adv-x="472" 
d="M102 -45h-12l-30 30l290 607l55 -9l7 -17z" />
    <glyph glyph-name="zero" unicode="0" horiz-adv-x="412" 
d="M199 292q-26 -11 -51 -36t-36 -51q11 -26 36 -51t51 -36h14q13 6 26.5 15.5t25 21t21 24.5t14.5 26q-5 13 -14.5 26t-21 24.5t-25 21t-26.5 15.5h-14zM206 57q-16 0 -37.5 12.5t-43 32.5t-39.5 44.5t-26 47.5v22q8 23 26 47t39.5 44t43 32.5t37.5 12.5t38 -12.5t43 -32.5
t39 -44t26 -47v-22q-8 -23 -26 -47.5t-39 -44.5t-43 -32.5t-38 -12.5z" />
    <glyph glyph-name="one" unicode="1" horiz-adv-x="274" 
d="M185 -45h-14q-5 77 -9.5 137t-10 109t-13.5 90.5t-20 81.5t-29 81.5t-40 90.5l47 47q37 -70 59 -135t34.5 -136t18 -153t9.5 -186z" />
    <glyph glyph-name="two" unicode="2" horiz-adv-x="490" 
d="M195 -45h-14q-5 77 -10.5 137t-12 109t-16 90.5t-22.5 81.5t-30.5 81.5t-40.5 90.5l47 47l37 -80q18 -38 33 -61t30 -35.5t30.5 -16.5t33.5 -4q39 0 60 10.5t32 34t16.5 61t13.5 91.5l52 -6q-11 -71 -20 -121.5t-26 -82.5t-46.5 -47t-79.5 -15q-23 0 -42 5t-34 16
q20 -74 28.5 -161t12.5 -198z" />
    <glyph glyph-name="three" unicode="3" horiz-adv-x="672" 
d="M617 586q-11 -72 -20 -123t-25.5 -82.5t-45 -46t-76.5 -14.5q-31 0 -56.5 15t-39.5 55q-19 -40 -47.5 -55t-56.5 -15q-17 0 -33 4.5t-30 15.5q20 -74 28 -161t12 -197l-32 -27h-14q-5 77 -10.5 137t-12 109t-16 90.5t-22.5 81.5t-30.5 81.5t-40.5 90.5l47 47l37 -80
q18 -38 32.5 -61t27.5 -35.5t26 -16.5t27 -4q22 0 38 7t27 26.5t18 54t12 89.5h46v-90q0 -41 16 -64t51 -23q33 0 51.5 9.5t29 32.5t16.5 61t15 94l51 -6v0z" />
    <glyph glyph-name="four" unicode="4" horiz-adv-x="527" 
d="M183 -45h-13q-5 75 -9.5 134t-10.5 107.5t-14 89t-19.5 79.5t-27 78.5t-37.5 85.5l48 48q14 -29 30.5 -70.5t33.5 -89.5q10 36 31 67.5t47 55.5t53.5 38t48.5 14q20 0 44.5 -17.5t57.5 -43.5l-32 -51q-32 20 -49.5 29.5t-28.5 9.5q-15 0 -35 -11t-40 -30.5t-37 -45.5
t-26 -57q17 -40 50.5 -57t84.5 -17q35 0 65 5t60 14l9 -9l-4 -54q-40 -15 -73.5 -20t-64.5 -5q-49 0 -80.5 14t-51.5 35q10 -67 15 -139t8 -160z" />
    <glyph glyph-name="five" unicode="5" horiz-adv-x="581" 
d="M372 -35q-24 0 -41 6.5t-28.5 16t-18.5 20.5t-11 20q-8 -17 -17 -29t-22.5 -19.5t-32 -11t-45.5 -3.5q-32 0 -53 11t-34 29t-18.5 40.5t-5.5 45.5q0 32 7 68t24 80.5t45.5 100t70.5 125.5q-21 13 -43.5 26.5l-47.5 28.5l20 55l16 6q124 -72 198 -127t114 -103.5t52.5 -95
t12.5 -101.5q0 -21 -3.5 -43t-9 -42t-12.5 -36.5t-13 -26.5q-14 -23 -40 -32t-64 -9zM459 140q0 43 -10 79t-36 71t-70.5 71t-112.5 80q-45 -74 -71.5 -127t-40.5 -91t-18 -64t-4 -47q0 -40 19.5 -56t47.5 -16q18 0 37 1.5t31 7.5q3 9 7 21.5t8 26.5l8 28t7 26h48
q-1 -16 -1.5 -25.5t-0.5 -14.5v-7.5v-3.5q0 -33 21 -46.5t51 -13.5q16 0 28 1t32 8q11 21 15.5 45t4.5 46z" />
    <glyph glyph-name="six" unicode="6" horiz-adv-x="467" 
d="M233 519q-12 0 -31 -10t-38 -26.5t-35.5 -38t-23.5 -44.5q15 -91 124 -91q32 0 75 10.5t100 39.5l11 -7l-1 -60q-41 -23 -81 -51t-80 -67t-80.5 -92t-81.5 -127h-12l-17 41q10 24 27 54.5t40.5 63t51.5 65t60 60.5h-18q-39 0 -69.5 12t-51 32t-31.5 47t-11 57q0 40 20 77
t48.5 65.5t59.5 45.5t53 17q17 0 42.5 -16.5t52.5 -36.5l-32 -52q-26 15 -43 23.5t-28 8.5z" />
    <glyph glyph-name="seven" unicode="7" horiz-adv-x="582" 
d="M507 592l30 -47q-57 -68 -94 -137.5t-60.5 -140.5t-36.5 -143t-22 -144l-41 -25l-14 8q-14 77 -26 135t-25.5 105t-29 86t-35.5 77.5t-46.5 80t-61.5 93.5l46 52q39 -51 72.5 -105t59.5 -115t44 -131.5t27 -155.5q6 60 18.5 125t36 130t59 129t87.5 123h12z" />
    <glyph glyph-name="eight" unicode="8" horiz-adv-x="582" 
d="M75 -45l-30 47q58 67 95 137t60.5 141t36.5 143t22 144l40 25l15 -8q14 -77 26 -135t25 -105t28.5 -86t35.5 -77.5t46.5 -80t61.5 -93.5l-46 -52q-39 51 -72.5 105t-59.5 115t-44 131.5t-27 155.5q-6 -60 -19 -125t-36 -130t-58.5 -129t-87.5 -123h-12z" />
    <glyph glyph-name="nine" unicode="9" horiz-adv-x="511" 
d="M420 -45h-13q-28 37 -44 70t-24.5 67.5t-11.5 73t-5 86.5q0 2 -0.5 3.5t-0.5 3.5q-29 -10 -62 -15t-71 -5t-63.5 5t-40.5 14.5t-21.5 24t-6.5 32.5q0 16 5 49t12.5 71t15.5 76t15 65l16 15q6 1 11.5 1h10.5q58 0 99 -16t68 -47t41.5 -77t18.5 -105q6 -77 9.5 -125.5
t12 -83.5t24 -64t44.5 -68zM200 309q35 0 63 4t53 12q-6 53 -18 89.5t-32.5 59t-51 32.5t-74.5 10q-3 -12 -8 -38t-10.5 -55.5t-10 -56.5t-6.5 -40q14 -10 38 -13.5t57 -3.5z" />
    <glyph glyph-name="colon" unicode=":" horiz-adv-x="225" 
d="M112 0q-22 0 -37 15t-15 37q0 23 15 38.5t37 15.5q23 0 38 -15.5t15 -38.5q0 -22 -15 -37t-38 -15zM60 227q0 23 15 38.5t37 15.5q23 0 38 -15.5t15 -38.5q0 -22 -15 -37t-38 -15q-22 0 -37 15t-15 37z" />
    <glyph glyph-name="semicolon" unicode=";" horiz-adv-x="239" 
d="M158 297q0 -46 -45 -46q-42 0 -42 43q0 21 12 33.5t32 12.5q43 0 43 -43zM166 19q0 -61 -89 -127l-26 23v7q52 39 52 83q0 25 -29 45v8q25 16 53 25q39 -26 39 -64z" />
    <glyph glyph-name="less" unicode="&#x3c;" horiz-adv-x="454" 
d="M60 152v60l310 153l11 -6l13 -50l-274 -126l274 -127l-13 -50l-11 -6z" />
    <glyph glyph-name="equal" unicode="=" horiz-adv-x="502" 
d="M60 81v60h382v-60h-382zM60 240v60h382v-60h-382z" />
    <glyph glyph-name="greater" unicode="&#x3e;" horiz-adv-x="474" 
d="M94 0l-11 6l-13 50l274 127l-274 126l13 50l11 6l310 -153v-60z" />
    <glyph glyph-name="question" unicode="?" horiz-adv-x="339" 
d="M330 478q0 -77 -81 -127l-79 -52l-1 -2l5 -92l-53 -6l-7 7l-6 108l4 9l91 54q59 36 59 90q0 95 -189 107l-4 7l14 42l9 5q115 -8 176.5 -46t61.5 -104zM192 41q0 -45 -44 -45q-42 0 -42 43q0 20 12 32.5t32 12.5t31 -11.5t11 -31.5z" />
    <glyph glyph-name="at" unicode="@" horiz-adv-x="806" 
d="M471 199h-9q-71 -127 -152 -205h-14q-38 20 -55.5 54t-17.5 91q0 53 14.5 103t42.5 90.5t69 68.5t95 36h4l65 -15l43 17l8 -5l-46 -330l-3 -53q96 12 147 71t51 158q0 57 -19 103.5t-54 79.5t-84.5 51.5t-110.5 18.5q-78 1 -142 -24.5t-110 -71.5t-71.5 -110t-24.5 -140
q0 -77 26 -138t73.5 -103.5t115 -65.5t150.5 -23l3 -7l-24 -38q-89 1 -162 27t-125 73.5t-80.5 115t-28.5 151.5q-1 87 28 162t82.5 129t127.5 84.5t163 29.5q72 0 131 -21.5t101 -61t64.5 -95t22.5 -123.5q0 -134 -83 -206.5t-239 -79.5zM492 369l-59 15q-34 -1 -61.5 -19
t-46.5 -48t-29.5 -70.5t-10.5 -86.5q0 -48 9.5 -71t21.5 -23q7 0 24.5 18t41.5 51t51.5 80t54.5 105z" />
    <glyph glyph-name="A" unicode="A" horiz-adv-x="572" 
d="M462 0l-15 60l-35 107l-137 2l-121 -2l-39 -103l-15 -64h-76l223 608h89l203 -608h-77zM292 530h-6l-110 -301l106 -1l110 1z" />
    <glyph glyph-name="B" unicode="B" horiz-adv-x="532" 
d="M104 183l-4 425l168 1q85 0 131.5 -37.5t46.5 -108.5q0 -108 -92 -146q130 -25 130 -147q0 -86 -62.5 -130t-185.5 -44q-37 0 -71 1t-65 3zM175 551l-2 -211l105 -3q91 21 91 117q0 51 -28.5 74t-90.5 23h-75zM408 173q0 95 -118 110l-118 -2l-1 -92l2 -131q20 -2 38 -3
t34 -1q79 0 121 31t42 88z" />
    <glyph glyph-name="C" unicode="C" horiz-adv-x="517" 
d="M469 504l-9 -3q-65 50 -144 50q-94 0 -142 -62t-48 -182q0 -123 47.5 -186t139.5 -63q84 0 157 53l9 -4l-5 -67q-80 -47 -166 -47q-127 0 -193.5 79t-66.5 228q0 151 70 232.5t201 81.5q94 0 164 -46z" />
    <glyph glyph-name="D" unicode="D" horiz-adv-x="636" 
d="M104 183l-4 425l219 4q131 0 200.5 -73.5t69.5 -212.5q0 -161 -74.5 -246.5t-216.5 -85.5q-77 0 -198 6zM511 310q0 122 -49 181t-148 59q-27 0 -61.5 -1t-76.5 -3l-4 -357l2 -128q81 -6 136 -6q98 0 149.5 65t51.5 190z" />
    <glyph glyph-name="E" unicode="E" horiz-adv-x="481" 
d="M100 0l4 183l-4 425h342l5 -7l-7 -58l-143 3l-121 -1l-2 -202l114 -1l102 1l5 -5l-6 -58l-216 1l-1 -92l2 -127l118 -1l150 4l5 -7l-6 -58h-341z" />
    <glyph glyph-name="F" unicode="F" horiz-adv-x="435" 
d="M100 0l4 183l-4 425h324l6 -7l-8 -59l-139 4l-107 -1l-2 -215l103 -1l99 2l5 -7l-6 -57l-202 1l-1 -79l3 -189h-75z" />
    <glyph glyph-name="G" unicode="G" horiz-adv-x="593" 
d="M506 502l-10 -1q-85 50 -161 50q-105 0 -157.5 -62t-52.5 -192q0 -125 47.5 -183t147.5 -58q26 0 58 5t69 16l1 76l-1 86l71 5l-1 -80l2 -135q-58 -18 -108.5 -26.5t-95.5 -9.5q-133 0 -200 77.5t-67 223.5q0 155 77 237.5t222 82.5q92 0 175 -44z" />
    <glyph glyph-name="H" unicode="H" horiz-adv-x="664" 
d="M495 0l4 183l-1 92l-170 1l-155 -1l-1 -86l3 -189h-75l4 183l-4 425h77l-3 -268l160 -2l163 2l-2 268h76l-3 -419l2 -189h-75z" />
    <glyph glyph-name="I" unicode="I" horiz-adv-x="277" 
d="M100 0l4 183l-4 425h77l-5 -419l3 -189h-75z" />
    <glyph glyph-name="J" unicode="J" horiz-adv-x="311" 
d="M210 111q0 -36 -8 -65t-27 -54t-49 -46.5t-73 -42.5l-26 41v8q31 18 52 35t34.5 36t19.5 40.5t6 48.5v82l-3 355h-112l-6 6l4 53h190l-3 -407z" />
    <glyph glyph-name="K" unicode="K" horiz-adv-x="542" 
d="M99 0l4 183l-4 425h77l-4 -419l3 -189h-76zM529 7q-26 -10 -72 -16l-8 5q-78 88 -143 167.5t-119 152.5v10l203 231l38 51h86l-247 -285q63 -82 128.5 -159t135.5 -149z" />
    <glyph glyph-name="L" unicode="L" horiz-adv-x="418" 
d="M97 0l5 183l-5 425h77l-4 -419l2 -125h226l6 -8l-7 -56h-300z" />
    <glyph glyph-name="M" unicode="M" horiz-adv-x="772" 
d="M634 0l-14 185l-32 303h-6l-170 -418h-63l-161 418h-7l-32 -297l-17 -191h-64l64 608h86l31 -92l132 -347h6l140 353l30 86h86l59 -608h-68z" />
    <glyph glyph-name="N" unicode="N" horiz-adv-x="671" 
d="M489 0l-315 488h-6l-1 -288l3 -200h-70l4 180l-3 428h80l314 -487h7l-1 484l70 5l-4 -432l1 -178h-79z" />
    <glyph glyph-name="O" unicode="O" horiz-adv-x="625" 
d="M579 316q0 -155 -71.5 -239t-202.5 -84q-125 0 -191 79t-66 227q0 152 70.5 234t201.5 82q125 0 192 -77t67 -222zM124 308q0 -130 46 -192.5t140 -62.5q191 0 191 250q0 128 -46.5 188.5t-140.5 60.5q-190 0 -190 -244z" />
    <glyph glyph-name="P" unicode="P" horiz-adv-x="516" 
d="M100 0l4 183l-4 425l185 1q91 0 139 -45.5t48 -132.5q0 -102 -60.5 -159.5t-166.5 -57.5h-73l3 -214h-75zM394 425q0 120 -125 125l-93 -2l-2 -272l99 -2q59 10 90 48.5t31 102.5z" />
    <glyph glyph-name="Q" unicode="Q" horiz-adv-x="629" 
d="M666 -183q-94 23 -178 67t-160 110l-22 -1q-125 0 -191.5 79t-66.5 227q0 152 70.5 234t201.5 82q125 0 192 -77t67 -223q0 -125 -46 -203t-134 -104q139 -101 306 -131l2 -9q-17 -33 -34 -48zM311 53q190 0 190 252q0 126 -46.5 186.5t-140.5 60.5q-96 0 -143 -60.5
t-47 -185.5q0 -253 187 -253z" />
    <glyph glyph-name="R" unicode="R" horiz-adv-x="550" 
d="M100 0l4 183l-4 425l185 1q91 0 139 -44t48 -130q0 -64 -32.5 -112.5t-93.5 -75.5q36 -59 75.5 -116t82.5 -114v-9q-15 -5 -32.5 -10t-37.5 -7l-10 6q-42 63 -77 120.5t-65 110.5h-110l3 -228h-75zM287 286q107 32 107 144q0 115 -125 120l-93 -2l-2 -259z" />
    <glyph glyph-name="S" unicode="S" horiz-adv-x="471" 
d="M387 518l-13 -5q-62 39 -119 39q-26 0 -47.5 -8.5t-36.5 -22t-23 -31.5t-8 -36q1 -21 9 -36t23 -27.5t37 -24.5t51 -25q25 -13 45.5 -24t36.5 -21q32 -20 54 -51.5t22 -77.5q0 -35 -15 -66.5t-42 -55t-64.5 -37.5t-82.5 -14t-85 10t-78 32l9 71l10 5q33 -29 74 -44
t76 -15q28 0 51 8.5t39 23t24.5 33.5t8.5 39q0 22 -10.5 39t-27.5 30.5t-39 25.5t-45 23q-25 12 -45.5 22.5t-35.5 20.5q-31 20 -52.5 51t-21.5 75q0 36 14.5 67t40.5 54t62.5 36t80.5 13q34 0 67.5 -8t68.5 -22z" />
    <glyph glyph-name="T" unicode="T" horiz-adv-x="488" 
d="M206 0l5 183l-4 365h-62l-108 -4l-5 8l6 56h413l6 -7l-6 -57l-106 4h-62l-4 -359l3 -189h-76z" />
    <glyph glyph-name="U" unicode="U" horiz-adv-x="616" 
d="M535 221q2 -109 -58 -168t-172 -59q-109 0 -166.5 57.5t-55.5 166.5l-1 390h75l-3 -381q-1 -84 38 -126.5t116 -42.5q78 0 117 41.5t38 122.5l-2 386h76l-2 -310v-77z" />
    <glyph glyph-name="V" unicode="V" horiz-adv-x="558" 
d="M229 0l-204 608h77l15 -61l155 -470h6l171 466l15 65h76l-223 -608h-88z" />
    <glyph glyph-name="W" unicode="W" horiz-adv-x="872" 
d="M555 0l-119 353h-6l-127 -353h-78l-194 608h75l12 -58l148 -466h6l132 371l-50 153h77l13 -65l150 -459h7l164 462l15 62h72l-219 -608h-78z" />
    <glyph glyph-name="X" unicode="X" horiz-adv-x="581" 
d="M451 0l-26 49l-141 208l-146 -212l-24 -45h-80l205 308l-198 300h92l25 -47l132 -195l131 195l25 47h82l-194 -291l209 -317h-92z" />
    <glyph glyph-name="Y" unicode="Y" horiz-adv-x="523" 
d="M216 0l4 177l-1 41l-194 390h82l12 -33l134 -275h6l147 273l14 35h80l-211 -390l-1 -41l3 -177h-75z" />
    <glyph glyph-name="Z" unicode="Z" horiz-adv-x="524" 
d="M95 0l-54 -3v56l342 495h-244l-83 -6l-4 6l6 62l96 -2h272l47 1v-56l-342 -493h257l86 5l4 -5l-6 -62l-106 2h-271z" />
    <glyph glyph-name="bracketleft" unicode="[" horiz-adv-x="301" 
d="M241 -77l-10 -48h-160l-11 16v691q0 14 4.5 29t17.5 48h152l7 -10l-10 -48h-116v-669h119z" />
    <glyph glyph-name="backslash" unicode="\" horiz-adv-x="472" 
d="M60 566l7 17l55 9l290 -607l-30 -30h-12z" />
    <glyph glyph-name="bracketright" unicode="]" horiz-adv-x="301" 
d="M60 611l10 48h160l11 -16v-691q0 -14 -4.5 -29t-17.5 -48h-152l-7 10l10 48h116v669h-119z" />
    <glyph glyph-name="underscore" unicode="_" horiz-adv-x="502" 
d="M60 0v49h382v-49h-382z" />
    <glyph glyph-name="a" unicode="a" horiz-adv-x="461" 
d="M230 443q63 0 97.5 -30.5t35.5 -84.5q0 -12 -1 -30q-2 -30 -3 -90q-6 -98 -6 -115q0 -21 6.5 -30t21.5 -9q16 0 33 7l8 -5l-8 -44q-27 -16 -56 -17q-58 2 -64 70h-5q-53 -59 -108 -72q-61 0 -95 31.5t-34 87.5q0 83 88 101l154 34l1 64q0 77 -76 77q-60 0 -134 -59l-7 4
l-10 51q82 59 162 59zM118 121q0 -33 18 -51.5t50 -18.5q51 0 104 66l3 86l-131 -30q-44 -9 -44 -52z" />
    <glyph glyph-name="b" unicode="b" horiz-adv-x="509" 
d="M457 230q0 -114 -55 -176t-154 -62q-51 0 -102 19l-44 -18l-12 8l5 181l-4 478l74 7l-2 -294h5q55 55 122 67q81 0 124 -55t43 -155zM387 218q0 78 -28.5 119.5t-81.5 41.5q-62 0 -114 -62l-2 -126l2 -123q46 -24 86 -24q66 0 102 44.5t36 129.5z" />
    <glyph glyph-name="c" unicode="c" horiz-adv-x="389" 
d="M347 351l-8 -2q-50 32 -98 32q-57 0 -88 -43t-31 -119q0 -78 32.5 -122t90.5 -44q53 0 108 32l8 -5l-8 -59q-57 -28 -120 -28q-85 0 -133 58.5t-48 162.5q0 52 13 94.5t37.5 72.5t59.5 46t80 16q34 0 63.5 -8t55.5 -22z" />
    <glyph glyph-name="d" unicode="d" horiz-adv-x="513" 
d="M414 94q0 -22 6.5 -31t20.5 -9q15 0 32 7l7 -5l-7 -44q-27 -16 -56 -17q-56 1 -65 67h-5q-53 -53 -112 -68q-88 0 -136 57.5t-48 161.5q0 110 55.5 169.5t155.5 59.5q39 0 83 -10l-2 228l74 7l-5 -477zM120 225q1 -82 32 -126t87 -44t106 60l1 68l-1 187q-47 19 -88 19
q-66 0 -101.5 -41.5t-35.5 -122.5z" />
    <glyph glyph-name="e" unicode="e" horiz-adv-x="452" 
d="M121 222q2 -85 35.5 -128t98.5 -43q67 0 123 40l9 -5l-10 -59q-62 -34 -129 -34q-94 0 -145 59t-51 162q0 106 53.5 167t145.5 61q74 0 114.5 -44t40.5 -119q-1 -13 -1 -23t-2 -18l-13 -12zM247 390q-49 0 -81.5 -32t-41.5 -90l214 6l2 12q0 51 -24.5 77.5t-68.5 26.5z
" />
    <glyph glyph-name="f" unicode="f" horiz-adv-x="310" 
d="M111 0l5 182l-2 203h-64l-4 5l4 43h64l-1 78q0 77 40.5 117.5t115.5 40.5q35 0 74 -9l-5 -58l-6 -4q-38 16 -69 16q-76 0 -78 -93l-1 -88h114l3 -5l-5 -43h-112l-2 -196l4 -189h-75z" />
    <glyph glyph-name="g" unicode="g" horiz-adv-x="485" 
d="M380 377q24 -31 24 -82q0 -70 -45.5 -111t-124.5 -41q-34 0 -64 9q-17 -14 -23.5 -22.5t-6.5 -16.5q0 -20 25.5 -28t81.5 -16q28 -5 51.5 -9t41.5 -9q37 -9 63 -31t26 -61q0 -30 -16 -55.5t-43.5 -45t-65 -30.5t-79.5 -11q-77 0 -120.5 32.5t-43.5 86.5q22 50 87 88v5
q-74 21 -74 76q18 29 59 57v4q-63 37 -63 122q0 72 45.5 112.5t124.5 40.5q51 0 91 -20q39 8 71.5 16t60.5 17l7 -5v-50q-20 -6 -42 -10.5t-46 -8.5zM338 294q0 47 -25.5 72t-73.5 25q-50 0 -77 -25.5t-27 -73.5t26.5 -74t74.5 -26q49 0 75.5 26.5t26.5 75.5zM231 14
q-5 1 -12.5 2t-17.5 3q-76 -45 -76 -86q0 -30 28 -49t79 -19q28 0 52.5 6.5t42 17.5t27.5 26t10 33q-1 17 -10 28t-25.5 18t-40.5 11t-57 9z" />
    <glyph glyph-name="h" unicode="h" horiz-adv-x="515" 
d="M361 0l5 290q0 43 -21 66t-60 23q-59 0 -122 -67l-1 -122l3 -190h-74l4 184l-3 476l74 7l-3 -298h6q65 62 128 72q68 0 103.5 -33.5t34.5 -94.5l-2 -124l2 -189h-74z" />
    <glyph glyph-name="i" unicode="i" horiz-adv-x="249" 
d="M87 0l3 184l-3 246l74 7l-4 -247l4 -190h-74zM168 587q0 -45 -44 -45q-42 0 -42 42q0 21 12 33.5t32 12.5q42 0 42 -43z" />
    <glyph glyph-name="j" unicode="j" horiz-adv-x="267" 
d="M172 587q0 -22 -12 -33.5t-33 -11.5q-42 0 -42 42q0 21 12 33.5t32 12.5q43 0 43 -43zM174 190l3 -172q0 -37 -6.5 -66t-21 -53t-38.5 -44t-58 -39l-28 33v9q47 29 64.5 64t17.5 92l1 170l-2 201h-81l-6 6l5 42h83l69 4l3 -2z" />
    <glyph glyph-name="k" unicode="k" horiz-adv-x="456" 
d="M91 0l4 184l-3 476l74 7l-4 -477l3 -190h-74zM438 4q-10 -3 -26.5 -5.5t-40.5 -7.5l-9 4q-54 63 -99 121t-83 112v7l137 161l25 39h84l-172 -199q78 -104 184 -223v-9z" />
    <glyph glyph-name="l" unicode="l" horiz-adv-x="257" 
d="M91 0l4 184l-3 476l74 7l-4 -477l3 -190h-74z" />
    <glyph glyph-name="m" unicode="m" horiz-adv-x="779" 
d="M625 0l5 291q1 42 -20 65t-60 23q-60 0 -120 -63l-2 -127l2 -189h-74l5 291q0 42 -21 65t-59 23q-60 0 -123 -66v-123l3 -190h-74l3 184l-3 246l71 7v-68h6q65 62 128 72q102 0 129 -76h5q66 63 135 76q68 0 103 -33.5t35 -94.5l-2 -124l2 -189h-74z" />
    <glyph glyph-name="n" unicode="n" horiz-adv-x="512" 
d="M356 0l5 290q0 43 -21 66t-59 23q-62 0 -123 -67l-1 -122l4 -190h-74l3 184l-3 246l71 7v-68h6q32 30 63.5 48.5t65.5 23.5q67 0 103 -33.5t34 -94.5l-1 -124l3 -189h-76z" />
    <glyph glyph-name="o" unicode="o" horiz-adv-x="489" 
d="M436 223q0 -110 -52 -170t-146 -60q-89 0 -137.5 57t-48.5 161q0 111 51 171.5t146 60.5q89 0 138 -57.5t49 -162.5zM121 225q0 -180 121 -180q60 0 91.5 41.5t31.5 122.5q0 90 -31 135t-89 45q-60 0 -92 -41.5t-32 -122.5z" />
    <glyph glyph-name="p" unicode="p" horiz-adv-x="504" 
d="M452 229q0 -114 -55 -175t-156 -61q-21 0 -41.5 1.5t-40.5 6.5l1 -177h-73l3 360l-3 246l71 7v-64h5q55 55 122 67q81 0 124 -55t43 -156zM383 218q0 78 -29 119.5t-83 41.5q-59 0 -113 -61l-1 -128l1 -127q47 -19 86 -19q66 0 102.5 44.5t36.5 129.5z" />
    <glyph glyph-name="q" unicode="q" horiz-adv-x="503" 
d="M417 436l-5 -252l4 -360h-73l2 209v22h-5q-47 -47 -108 -61q-86 0 -133.5 57.5t-47.5 160.5q0 111 55.5 170.5t152.5 59.5q47 0 110 -18l41 17zM120 222q1 -81 32 -124t85 -43q58 0 108 60l1 60l-1 194q-47 19 -90 19q-64 0 -99.5 -41.5t-35.5 -124.5z" />
    <glyph glyph-name="r" unicode="r" horiz-adv-x="329" 
d="M87 0l3 184l-3 246l71 7v-94h6q51 93 122 93q5 0 11 -0.5t13 -1.5v-70l-9 -2q-8 2 -15.5 3t-15.5 1q-61 0 -113 -100v-76l4 -190h-74z" />
    <glyph glyph-name="s" unicode="s" horiz-adv-x="375" 
d="M301 363l-11 -3q-50 29 -92 29q-34 0 -55 -19t-21 -45q0 -27 21.5 -43t64.5 -35q20 -9 34.5 -16.5t25.5 -14.5q23 -13 39.5 -36t16.5 -56q0 -26 -10.5 -50t-30.5 -42t-49 -28.5t-66 -10.5q-65 0 -126 30l9 60l8 6q26 -22 56.5 -33.5t59.5 -11.5q38 0 60.5 20t22.5 48
q0 27 -20 43t-65 36q-27 12 -48 23t-36 25t-23.5 32.5t-9.5 45.5q0 54 40.5 89t109.5 35q53 0 106 -21z" />
    <glyph glyph-name="t" unicode="t" horiz-adv-x="326" 
d="M300 69l-6 -47q-47 -25 -89 -28q-108 12 -108 121l2 86l-1 184h-59l-4 5l5 43h58v85l66 23l7 -7l-2 -101h129l4 -5l-4 -43h-129l-4 -257q0 -72 60 -72q35 0 69 20z" />
    <glyph glyph-name="u" unicode="u" horiz-adv-x="510" 
d="M438 54q15 0 32 7l7 -5l-8 -44q-25 -16 -55 -17q-56 1 -64 72h-7q-61 -63 -128 -72q-66 0 -100 33.5t-33 94.5l1 105l-2 202l72 7l-2 -293q0 -42 18.5 -64.5t56.5 -22.5q60 0 117 60v313l72 7l-5 -342q0 -41 28 -41z" />
    <glyph glyph-name="v" unicode="v" horiz-adv-x="426" 
d="M166 0l-135 433l70 5l13 -58l93 -305h6l111 301l14 59h68l-159 -435h-81z" />
    <glyph glyph-name="w" unicode="w" horiz-adv-x="665" 
d="M430 0l-91 338h-7l-105 -338h-74l-122 433l68 5l12 -56l80 -302h5l92 298l15 57h74l9 -53l81 -302h6l92 298l15 57h65l-144 -435h-71z" />
    <glyph glyph-name="x" unicode="x" horiz-adv-x="436" 
d="M31 0l141 221l-137 211l81 6l19 -42l87 -131l85 131l22 39h70l-136 -214l143 -218l-80 -7l-21 44l-92 138l-93 -142l-19 -36h-70z" />
    <glyph glyph-name="y" unicode="y" horiz-adv-x="427" 
d="M20 433l72 5l14 -57l105 -298h6l106 292l15 60h68l-155 -419q-16 -45 -35.5 -77.5t-45.5 -56t-59.5 -38.5t-77.5 -26l-7 1q-21 19 -34 46l3 8q63 13 108.5 41.5t75.5 85.5z" />
    <glyph glyph-name="z" unicode="z" horiz-adv-x="414" 
d="M86 0l-44 -2v46l245 340h-168l-65 -5l-5 7l6 51l75 -2h199l37 1l1 -46l-245 -339h178l68 5l4 -6l-6 -52l-85 2h-195z" />
    <glyph glyph-name="braceleft" unicode="{" horiz-adv-x="380" 
d="M139 137q0 21 -2 36t-7.5 25.5t-16 18.5t-27.5 14l-26 10l7 54l22 10q34 16 41.5 36.5t8.5 49.5v166q0 26 3 42t8 27q4 11 11 19q5 3 18 7q11 2 31 4.5t55 2.5h48l7 -10l-10 -48q-36 0 -58.5 -1t-35.5 -2q-15 -2 -22 -3v-211q0 -23 -3.5 -39t-12 -28.5t-23 -23.5
t-35.5 -24q23 -10 37.5 -20t22.5 -23t11 -30.5t3 -41.5v-215q7 -2 22 -4q13 -2 36 -2.5t61 -0.5l7 -9l-10 -48h-41q-33 0 -54 1.5t-33 3.5q-14 2 -21 5q-7 5 -11 18q-5 11 -8 31t-3 53v150z" />
    <glyph glyph-name="bar" unicode="|" horiz-adv-x="184" 
d="M72 -121l-12 6v762l55 12l-5 -10v-753z" />
    <glyph glyph-name="braceright" unicode="}" horiz-adv-x="400" 
d="M251 397q0 -21 2 -36t7.5 -25.5t16 -18.5t27.5 -14l26 -10l-7 -54l-22 -10q-17 -8 -27 -17t-15 -19.5t-6.5 -23t-1.5 -26.5v-166q0 -26 -3.5 -43t-7.5 -27q-5 -12 -11 -18q-5 -4 -18 -7q-11 -3 -31.5 -5t-54.5 -2h-48l-7 10l10 48q36 0 58.5 0.5t35.5 2.5q15 1 22 3v211
q0 22 3.5 38t12 29t23 24t35.5 24q-23 10 -37.5 20t-22.5 23t-11 30.5t-3 41.5v215q-7 1 -22 3q-13 2 -36.5 3t-60.5 1l-7 9l10 48h41q33 0 54 -1.5t33 -3.5q14 -3 21 -5q6 -6 11 -18q4 -11 7.5 -31t3.5 -53v-150z" />
    <glyph glyph-name="u00A0" unicode="&#xa0;" horiz-adv-x="150" 
 />
    <glyph glyph-name="brokenbar" unicode="&#xa6;" horiz-adv-x="184" 
d="M60 326v321l56 12v-325zM110 242v-346l-38 -17l-12 6v350z" />
    <glyph glyph-name="guillemotleft" unicode="&#xab;" horiz-adv-x="447" 
d="M120 245q0 -41 5 -75t17 -66t31 -65.5t48 -73.5l-29 -30h-12q-36 47 -59 87.5t-36.5 77.5t-19 72.5t-5.5 72.5q0 36 5.5 71.5t19 73t36.5 78t59 87.5h12l29 -30q-29 -40 -48 -73.5t-31 -65.5t-17 -66t-5 -75zM286 245q0 -41 5 -75t17 -66t31 -65.5t48 -73.5l-29 -30h-12
q-36 47 -59 87.5t-36.5 77.5t-19 72.5t-5.5 72.5q0 36 5.5 71.5t19 73t36.5 78t59 87.5h12l29 -30q-29 -40 -48 -73.5t-31 -65.5t-17 -66t-5 -75z" />
    <glyph glyph-name="logicalnot" unicode="&#xac;" horiz-adv-x="502" 
d="M386 238h-326v60h382v-223h-56v163z" />
    <glyph glyph-name="u00AD" unicode="&#xad;" horiz-adv-x="502" 
d="M60 160v66h382v-66h-382z" />
    <glyph glyph-name="degree" unicode="&#xb0;" horiz-adv-x="380" 
d="M60 461q0 27 10 51t27.5 42t41.5 28t51 10t51 -10t41.5 -28t27.5 -42t10 -51t-10 -51t-27.5 -42t-41.5 -28t-51 -10t-51 10t-41.5 28t-27.5 42t-10 51zM106 461q0 -35 24.5 -59.5t59.5 -24.5t59.5 24.5t24.5 59.5t-24.5 59.5t-59.5 24.5t-59.5 -24.5t-24.5 -59.5z" />
    <glyph glyph-name="plusminus" unicode="&#xb1;" horiz-adv-x="502" 
d="M223 268h-163v60h163v161h57v-161h162v-60h-162v-161h-57v161zM60 -6v60h382v-60h-382z" />
    <glyph glyph-name="paragraph" unicode="&#xb6;" horiz-adv-x="430" 
d="M325 0v570h-85v-570h-55v320q-39 0 -65 9t-41.5 27t-22 45t-6.5 64q0 39 8.5 71t31.5 55t65 36t110 13q40 0 68 -2.5t47 -7.5v-630h-55z" />
    <glyph glyph-name="periodcentered" unicode="&#xb7;" horiz-adv-x="208" 
d="M104 301q23 0 38.5 -16t15.5 -38q0 -23 -16 -39t-38 -16t-38 16t-16 39q0 22 16 38t38 16z" />
    <glyph glyph-name="guillemotright" unicode="&#xbb;" horiz-adv-x="447" 
d="M161 245q0 41 -5 75t-17 66t-31.5 65.5t-47.5 73.5l29 30h12q36 -47 59 -87.5t36.5 -78t19 -73t5.5 -71.5q0 -37 -5.5 -72.5t-19 -72.5t-36.5 -77.5t-59 -87.5h-12l-29 30q28 40 47.5 73.5t31.5 65.5t17 66t5 75zM327 245q0 41 -5 75t-17 66t-31.5 65.5t-47.5 73.5l29 30
h12q36 -47 59 -87.5t36.5 -78t19 -73t5.5 -71.5q0 -37 -5.5 -72.5t-19 -72.5t-36.5 -77.5t-59 -87.5h-12l-29 30q28 40 47.5 73.5t31.5 65.5t17 66t5 75z" />
    <glyph glyph-name="multiply" unicode="&#xd7;" horiz-adv-x="448" 
d="M184 191l-124 124l40 40l124 -124l124 124l40 -40l-124 -124l124 -124l-40 -40l-124 124l-124 -124l-40 40z" />
    <glyph glyph-name="divide" unicode="&#xf7;" horiz-adv-x="502" 
d="M204 348q0 22 14.5 37t34.5 15q22 0 36.5 -15t14.5 -37q0 -20 -14.5 -34.5t-36.5 -14.5q-20 0 -34.5 14.5t-14.5 34.5zM204 39q0 22 14.5 37t34.5 15q22 0 36.5 -15t14.5 -37q0 -20 -14.5 -34.5t-36.5 -14.5q-20 0 -34.5 14.5t-14.5 34.5zM60 149v61h382v-61h-382z" />
    <glyph glyph-name="u0609" unicode="&#x609;" horiz-adv-x="625" 
d="M512 0q-22 0 -37 15t-15 37q0 23 15 38.5t37 15.5q23 0 38 -15.5t15 -38.5q0 -22 -15 -37t-38 -15zM105 -45h-12l-30 30l290 607l55 -9l7 -17zM67 502q0 23 15 38.5t37 15.5q23 0 38 -15.5t15 -38.5q0 -22 -15 -37t-38 -15q-22 0 -37 15t-15 37zM294 52q0 23 15 38.5
t37 15.5q23 0 38 -15.5t15 -38.5q0 -22 -15 -37t-38 -15q-22 0 -37 15t-15 37z" />
    <glyph glyph-name="u060A" unicode="&#x60a;" horiz-adv-x="791" 
d="M678 0q-22 0 -37 15t-15 37q0 23 15 38.5t37 15.5q23 0 38 -15.5t15 -38.5q0 -22 -15 -37t-38 -15zM105 -45h-12l-30 30l290 607l55 -9l7 -17zM67 502q0 23 15 38.5t37 15.5q23 0 38 -15.5t15 -38.5q0 -22 -15 -37t-38 -15q-22 0 -37 15t-15 37zM294 52q0 23 15 38.5
t37 15.5q23 0 38 -15.5t15 -38.5q0 -22 -15 -37t-38 -15q-22 0 -37 15t-15 37zM460 52q0 23 15 38.5t37 15.5q23 0 38 -15.5t15 -38.5q0 -22 -15 -37t-38 -15q-22 0 -37 15t-15 37z" />
    <glyph glyph-name="u060C" unicode="&#x60c;" horiz-adv-x="225" 
d="M112 0q-22 0 -37 15.5t-15 38.5q0 9 2 19.5t9.5 28.5t22.5 45t41 68h10l19 -29l-49 -83q20 -1 35 -14.5t15 -36.5q0 -22 -15 -37t-38 -15z" />
    <glyph glyph-name="u060D" unicode="&#x60d;" horiz-adv-x="355" 
d="M285 247l10 -19l-194 -358h-12l-29 31l174 354z" />
    <glyph glyph-name="u061B" unicode="&#x61b;" horiz-adv-x="225" 
d="M112 0q-22 0 -37 15t-15 37q0 23 15 38.5t37 15.5q23 0 38 -15.5t15 -38.5q0 -22 -15 -37t-38 -15zM145 390l19 -29l-49 -83q20 -1 35 -14.5t15 -36.5q0 -22 -15 -37t-38 -15q-22 0 -37 15.5t-15 38.5q0 9 2 19.5t9.5 28.5t22.5 45t41 68h10z" />
    <glyph glyph-name="u061F" unicode="&#x61f;" horiz-adv-x="409" 
d="M260 0q-21 0 -36 14.5t-15 36.5t15 37t36 15q22 0 37 -15t15 -37t-15 -36.5t-37 -14.5zM322 545q-32 19 -55.5 30.5t-31.5 11.5q-15 0 -36 -12t-40.5 -31t-33.5 -41t-16 -41q2 -11 9.5 -21t21.5 -21t36 -24.5t54 -29.5q21 -11 34 -20t20 -17t9 -16.5t2 -18.5l-7 -100
l-51 -15v102q-41 22 -74 41t-56 37.5t-35 39t-12 47.5q0 45 21 84t50.5 67.5t61 45t52.5 16.5q14 0 40.5 -15.5t60.5 -38.5l3 -14z" />
    <glyph glyph-name="u0640" unicode="&#x640;" horiz-adv-x="141" 
d="M0 0q-11 0 -17 11.5t-6 28.5q0 18 6 29.5t17 11.5h141v-81h-141z" />
    <glyph glyph-name="u064B" unicode="&#x64b;" 
d="M109 119l6 -40l-224 -89l-6 40zM109 230l6 -40l-224 -89l-6 40z" />
    <glyph glyph-name="u064C" unicode="&#x64c;" 
d="M-66 116q0 -23 -16 -77l118 58q-26 14 -48.5 37.5t-22.5 47.5q0 7 2 15t12.5 21t32.5 33.5t61 52.5q36 -24 55 -54t19 -61q0 -16 -4.5 -33t-16.5 -34.5t-33.5 -34.5t-55.5 -33l-127 -62l-29 23q4 13 8 27t7 27t4.5 22.5t1.5 14.5q0 11 -11.5 27.5t-44.5 45.5l20 40
q43 -34 55.5 -59t12.5 -44zM-1 196q4 -17 25 -37.5t51 -37.5q34 28 34 60q0 43 -44 73z" />
    <glyph glyph-name="u064D" unicode="&#x64d;" 
d="M109 -101l6 -40l-224 -89l-6 40zM109 10l6 -40l-224 -89l-6 40z" />
    <glyph glyph-name="u064E" unicode="&#x64e;" 
d="M109 119l6 -40l-224 -89l-6 40z" />
    <glyph glyph-name="u064F" unicode="&#x64f;" 
d="M-118 30l122 59q-13 7 -25.5 16.5t-22.5 21t-16 24t-6 24.5q0 7 2 15t12.5 20.5t32.5 33t61 52.5q36 -23 55 -53.5t19 -61.5q0 -15 -4.5 -32t-16.5 -34.5t-33.5 -35t-55.5 -33.5l-117 -56zM77 174q0 41 -43 72l-67 -57q5 -17 26 -38t51 -37q33 28 33 60z" />
    <glyph glyph-name="u0650" unicode="&#x650;" 
d="M109 10l6 -40l-224 -89l-6 40z" />
    <glyph glyph-name="u0651" unicode="&#x651;" 
d="M92 0q-42 0 -63.5 8.5t-32.5 31.5q-14 -24 -33 -32t-46 -8q-32 0 -47 15t-15 37q0 21 3.5 49t7.5 66l36 -3l-10 -106q3 -3 7 -6q4 -2 10 -4t16 -2q28 0 39.5 9.5t13.5 35.5l5 44h35v-44q0 -26 18 -35.5t62 -9.5q4 23 2 49.5t-13 66.5l33 21l10 -4q7 -35 9 -52.5t2 -31.5
q0 -22 -5.5 -44.5t-22.5 -50.5h-21z" />
    <glyph glyph-name="u0652" unicode="&#x652;" 
d="M-18 0q-42 0 -57 15t-15 37q0 11 5 32t12 43.5t14 44t11 34.5q66 -3 100 -35.5t34 -82.5q0 -16 -3.5 -33.5t-11.5 -31.5q-19 -13 -42.5 -18t-46.5 -5zM-12 46q20 0 34 3t28 8q3 93 -81 99l-27 -96q14 -14 46 -14z" />
    <glyph glyph-name="u0653" unicode="&#x653;" 
d="M-104 0l-20 17q11 22 18 37t12 24.5t10 13.5t13 4q19 -2 42.5 -4.5t54.5 -2.5q45 0 93 6l5 -7l-12 -35q-48 -6 -96 -6q-44 0 -86 6l-26 -53h-8z" />
    <glyph glyph-name="u0654" unicode="&#x654;" 
d="M58 220l-12 -38h-93q-7 -16 -6 -32t9 -29t21.5 -21.5t32.5 -8.5q14 0 37 5t54 16l5 -47l-206 -75l-6 40l64 29q-25 13 -38.5 36.5t-13.5 49.5q0 18 5.5 38.5t22.5 47.5h116z" />
    <glyph glyph-name="u0655" unicode="&#x655;" 
d="M58 -11l-12 -38h-93q-7 -16 -6 -32t9 -29t21.5 -21.5t32.5 -8.5q14 0 37 5t54 16l5 -47l-206 -75l-6 40l64 29q-25 14 -38.5 37t-13.5 49q0 18 5.5 38.5t22.5 47.5h116z" />
    <glyph glyph-name="u0656" unicode="&#x656;" 
d="M-14 -46q14 -18 22 -33.5t12 -33t5 -38.5t1 -49v-65l-37 -15v69q0 22 -1.5 37.5t-5 28.5t-10.5 26t-18 30z" />
    <glyph glyph-name="u0660" unicode="&#x660;" horiz-adv-x="235" 
d="M60 262h115v-121h-115v121z" />
    <glyph glyph-name="u0661" unicode="&#x661;" horiz-adv-x="274" 
d="M185 -45h-14q-5 77 -9.5 137t-10 109t-13.5 90.5t-20 81.5t-29 81.5t-40 90.5l47 47q37 -70 59 -135t34.5 -136t18 -153t9.5 -186z" />
    <glyph glyph-name="u0662" unicode="&#x662;" horiz-adv-x="490" 
d="M195 -45h-14q-5 77 -10.5 137t-12 109t-16 90.5t-22.5 81.5t-30.5 81.5t-40.5 90.5l47 47l37 -80q18 -38 33 -61t30 -35.5t30.5 -16.5t33.5 -4q39 0 60 10.5t32 34t16.5 61t13.5 91.5l52 -6q-11 -71 -20 -121.5t-26 -82.5t-46.5 -47t-79.5 -15q-23 0 -42 5t-34 16
q20 -74 28.5 -161t12.5 -198z" />
    <glyph glyph-name="u0663" unicode="&#x663;" horiz-adv-x="672" 
d="M617 586q-11 -72 -20 -123t-25.5 -82.5t-45 -46t-76.5 -14.5q-31 0 -56.5 15t-39.5 55q-19 -40 -47.5 -55t-56.5 -15q-17 0 -33 4.5t-30 15.5q20 -74 28 -161t12 -197l-32 -27h-14q-5 77 -10.5 137t-12 109t-16 90.5t-22.5 81.5t-30.5 81.5t-40.5 90.5l47 47l37 -80
q18 -38 32.5 -61t27.5 -35.5t26 -16.5t27 -4q22 0 38 7t27 26.5t18 54t12 89.5h46v-90q0 -41 16 -64t51 -23q33 0 51.5 9.5t29 32.5t16.5 61t15 94l51 -6v0z" />
    <glyph glyph-name="u0664" unicode="&#x664;" horiz-adv-x="442" 
d="M301 262q-81 -34 -126.5 -82.5t-57.5 -100.5q12 -14 28.5 -22.5t35.5 -13t39.5 -5.5t41.5 -1h114l6 -12l-17 -60h-111q-39 0 -73 5t-59 17.5t-39 34t-14 53.5q0 47 31 98t89 92q-37 6 -61 18.5t-38.5 28t-20 32.5t-5.5 32q0 45 20 84.5t49.5 68.5t63.5 46t62 17
q8 0 15.5 -2t17 -7t23 -14t32.5 -23l-31 -54q-27 15 -42 20t-23 5q-18 0 -39.5 -9t-41.5 -25.5t-36.5 -40.5t-24.5 -54q8 -21 26.5 -34.5t44.5 -21.5t59 -11.5t70 -4.5z" />
    <glyph glyph-name="u0665" unicode="&#x665;" horiz-adv-x="510" 
d="M154 457q97 -23 155 -55.5t89.5 -71t41.5 -82t10 -89.5q0 -68 -15 -106.5t-44 -58t-71 -24.5t-95 -5q-85 0 -125 24t-40 74q0 20 4.5 51t11 68t15.5 76t17.5 75t16 65.5t12.5 47.5zM168 374q-8 -35 -17 -77t-17 -83t-14.5 -78.5t-10.5 -64.5q24 -17 59 -21.5t72 -4.5
q16 0 36 1t39.5 3t37 5.5t29.5 8.5q6 20 9 40.5t3 37.5q0 39 -10 73.5t-35.5 64t-69 53.5t-111.5 42z" />
    <glyph glyph-name="u0666" unicode="&#x666;" horiz-adv-x="482" 
d="M344 359q0 -77 2.5 -127t11.5 -87t26 -68t46 -70l-40 -52h-13q-28 36 -45.5 70t-27 74t-13 89t-3.5 116v58.5t-0.5 60t-1.5 50t-3 29.5q-53 -4 -83.5 -4.5t-50.5 -0.5q-22 0 -37 1t-26 3t-19.5 6t-17.5 10l7 69l13 6q14 -7 31.5 -10.5t52.5 -3.5q49 0 74.5 1.5t45.5 1.5
q38 0 54.5 -14.5t16.5 -53.5v-154z" />
    <glyph glyph-name="u0667" unicode="&#x667;" horiz-adv-x="582" 
d="M507 592l30 -47q-57 -68 -94 -137.5t-60.5 -140.5t-36.5 -143t-22 -144l-41 -25l-14 8q-14 77 -26 135t-25.5 105t-29 86t-35.5 77.5t-46.5 80t-61.5 93.5l46 52q39 -51 72.5 -105t59.5 -115t44 -131.5t27 -155.5q6 60 18.5 125t36 130t59 129t87.5 123h12z" />
    <glyph glyph-name="u0668" unicode="&#x668;" horiz-adv-x="582" 
d="M75 -45l-30 47q58 67 95 137t60.5 141t36.5 143t22 144l40 25l15 -8q14 -77 26 -135t25 -105t28.5 -86t35.5 -77.5t46.5 -80t61.5 -93.5l-46 -52q-39 51 -72.5 105t-59.5 115t-44 131.5t-27 155.5q-6 -60 -19 -125t-36 -130t-58.5 -129t-87.5 -123h-12z" />
    <glyph glyph-name="u0669" unicode="&#x669;" horiz-adv-x="511" 
d="M420 -45h-13q-28 37 -44 70t-24.5 67.5t-11.5 73t-5 86.5q0 2 -0.5 3.5t-0.5 3.5q-29 -10 -62 -15t-71 -5t-63.5 5t-40.5 14.5t-21.5 24t-6.5 32.5q0 16 5 49t12.5 71t15.5 76t15 65l16 15q6 1 11.5 1h10.5q58 0 99 -16t68 -47t41.5 -77t18.5 -105q6 -77 9.5 -125.5
t12 -83.5t24 -64t44.5 -68zM200 309q35 0 63 4t53 12q-6 53 -18 89.5t-32.5 59t-51 32.5t-74.5 10q-3 -12 -8 -38t-10.5 -55.5t-10 -56.5t-6.5 -40q14 -10 38 -13.5t57 -3.5z" />
    <glyph glyph-name="u066A" unicode="&#x66a;" horiz-adv-x="476" 
d="M353 0q-22 0 -37 15t-15 37q0 23 15 38.5t37 15.5q23 0 38 -15.5t15 -38.5q0 -22 -15 -37t-38 -15zM105 -45h-12l-30 30l290 607l55 -9l7 -17zM67 502q0 23 15 38.5t37 15.5q23 0 38 -15.5t15 -38.5q0 -22 -15 -37t-38 -15q-22 0 -37 15t-15 37z" />
    <glyph glyph-name="u066B" unicode="&#x66b;" horiz-adv-x="355" 
d="M285 247l10 -19l-194 -358h-12l-29 31l174 354z" />
    <glyph glyph-name="u066C" unicode="&#x66c;" horiz-adv-x="225" 
d="M80 -111l-19 29l49 83q-20 1 -35 14.5t-15 36.5q0 22 15 37t38 15q22 0 37 -15.5t15 -38.5q0 -9 -2 -19.5t-9.5 -28.5t-22.5 -45t-41 -68h-10z" />
    <glyph glyph-name="u066D" unicode="&#x66d;" horiz-adv-x="484" 
d="M210 0l5 64q1 8 2 19.5t2.5 24l3 25t3.5 22.5l-9 4q-15 -14 -37 -30.5t-36 -25.5l-52 -36l-32 55l57 28q7 4 18 8.5t23 9.5t23 10t20 9v10q-9 3 -20.5 8t-23.5 10t-22.5 10t-17.5 8l-57 28l32 55l52 -36q14 -9 36 -25.5t38 -29.5l8 4q-3 20 -6 47.5t-5 43.5l-5 64h64
l-5 -64q-2 -16 -5 -43.5t-6 -47.5l8 -5q15 13 37 29.5t36 25.5l53 36l32 -55l-58 -28q-14 -7 -39.5 -18t-44.5 -18v-9q9 -3 21 -8t23.5 -9.5t22 -9.5t17.5 -8l58 -28l-32 -55l-53 36q-14 9 -36 25.5t-37 29.5l-8 -5q2 -10 3.5 -22.5l3 -25t2.5 -24t2 -19.5l5 -64h-64z" />
    <glyph glyph-name="u0670" unicode="&#x670;" 
d="M-14 224q14 -18 22 -33.5t12 -33t5 -38.5t1 -49v-65l-37 -15v69q0 22 -1.5 37.5t-5 28.5t-10.5 26t-18 30z" />
    <glyph glyph-name="u06AA" unicode="&#x6aa;" horiz-adv-x="875" 
d="M376 0q-29 0 -67 0.5t-78.5 1.5t-80 3t-71.5 5l-30 68l10 13q76 -7 158 -8.5t172 -1.5h171q87 0 134 3t68 11q-1 30 -10.5 56t-26.5 45.5t-42.5 31t-58.5 11.5h-314q-45 0 -78 4t-54.5 14t-32.5 27.5t-11 45.5q0 24 14.5 51t38.5 54.5t54 52.5t61 44.5t59.5 31t49.5 11.5
q14 0 29.5 -9t48.5 -32l-34 -55q-11 6 -21 10q-8 4 -16 7t-12 3q-22 0 -56 -16t-68 -40t-62.5 -52t-40.5 -52q8 -13 39 -19t84 -6h328q48 0 82.5 -17.5t57.5 -44t34 -59t11 -62.5q0 -17 -4.5 -34t-12 -32.5t-17 -27.5t-19.5 -17q-21 -11 -70.5 -15.5t-132.5 -4.5h-183z" />
    <glyph glyph-name="u06D2" unicode="&#x6d2;" horiz-adv-x="630" 
d="M261 0q-99 0 -150 33.5t-51 101.5q0 39 21 81.5t52 78t67 58t67 22.5q9 0 20.5 -5.5t24.5 -14t27 -19t28 -20.5l-36 -55q-26 18 -44.5 29t-26.5 11q-16 0 -38 -12.5t-44.5 -33.5t-42.5 -50t-30 -62q7 -15 19 -27.5t31.5 -21t48 -13t67.5 -4.5q20 0 56 0.5t78.5 1t86.5 2
t80 4.5l8 -14l-24 -63q-32 -2 -75.5 -3.5t-86.5 -2.5t-79.5 -1.5t-53.5 -0.5z" />
    <glyph glyph-name="u06F0" unicode="&#x6f0;" horiz-adv-x="412" 
d="M199 292q-26 -11 -51 -36t-36 -51q11 -26 36 -51t51 -36h14q13 6 26.5 15.5t25 21t21 24.5t14.5 26q-5 13 -14.5 26t-21 24.5t-25 21t-26.5 15.5h-14zM206 57q-16 0 -37.5 12.5t-43 32.5t-39.5 44.5t-26 47.5v22q8 23 26 47t39.5 44t43 32.5t37.5 12.5t38 -12.5t43 -32.5
t39 -44t26 -47v-22q-8 -23 -26 -47.5t-39 -44.5t-43 -32.5t-38 -12.5z" />
    <glyph glyph-name="u06F1" unicode="&#x6f1;" horiz-adv-x="274" 
d="M185 -45h-14q-5 77 -9.5 137t-10 109t-13.5 90.5t-20 81.5t-29 81.5t-40 90.5l47 47q37 -70 59 -135t34.5 -136t18 -153t9.5 -186z" />
    <glyph glyph-name="u06F2" unicode="&#x6f2;" horiz-adv-x="490" 
d="M195 -45h-14q-5 77 -10.5 137t-12 109t-16 90.5t-22.5 81.5t-30.5 81.5t-40.5 90.5l47 47l37 -80q18 -38 33 -61t30 -35.5t30.5 -16.5t33.5 -4q39 0 60 10.5t32 34t16.5 61t13.5 91.5l52 -6q-11 -71 -20 -121.5t-26 -82.5t-46.5 -47t-79.5 -15q-23 0 -42 5t-34 16
q20 -74 28.5 -161t12.5 -198z" />
    <glyph glyph-name="u06F3" unicode="&#x6f3;" horiz-adv-x="672" 
d="M617 586q-11 -72 -20 -123t-25.5 -82.5t-45 -46t-76.5 -14.5q-31 0 -56.5 15t-39.5 55q-19 -40 -47.5 -55t-56.5 -15q-17 0 -33 4.5t-30 15.5q20 -74 28 -161t12 -197l-32 -27h-14q-5 77 -10.5 137t-12 109t-16 90.5t-22.5 81.5t-30.5 81.5t-40.5 90.5l47 47l37 -80
q18 -38 32.5 -61t27.5 -35.5t26 -16.5t27 -4q22 0 38 7t27 26.5t18 54t12 89.5h46v-90q0 -41 16 -64t51 -23q33 0 51.5 9.5t29 32.5t16.5 61t15 94l51 -6v0z" />
    <glyph glyph-name="u06F4" unicode="&#x6f4;" horiz-adv-x="527" 
d="M183 -45h-13q-5 75 -9.5 134t-10.5 107.5t-14 89t-19.5 79.5t-27 78.5t-37.5 85.5l48 48q14 -29 30.5 -70.5t33.5 -89.5q10 36 31 67.5t47 55.5t53.5 38t48.5 14q20 0 44.5 -17.5t57.5 -43.5l-32 -51q-32 20 -49.5 29.5t-28.5 9.5q-15 0 -35 -11t-40 -30.5t-37 -45.5
t-26 -57q17 -40 50.5 -57t84.5 -17q35 0 65 5t60 14l9 -9l-4 -54q-40 -15 -73.5 -20t-64.5 -5q-49 0 -80.5 14t-51.5 35q10 -67 15 -139t8 -160z" />
    <glyph glyph-name="u06F5" unicode="&#x6f5;" horiz-adv-x="581" 
d="M372 -35q-24 0 -41 6.5t-28.5 16t-18.5 20.5t-11 20q-8 -17 -17 -29t-22.5 -19.5t-32 -11t-45.5 -3.5q-32 0 -53 11t-34 29t-18.5 40.5t-5.5 45.5q0 32 7 68t24 80.5t45.5 100t70.5 125.5q-21 13 -43.5 26.5l-47.5 28.5l20 55l16 6q124 -72 198 -127t114 -103.5t52.5 -95
t12.5 -101.5q0 -21 -3.5 -43t-9 -42t-12.5 -36.5t-13 -26.5q-14 -23 -40 -32t-64 -9zM459 140q0 43 -10 79t-36 71t-70.5 71t-112.5 80q-45 -74 -71.5 -127t-40.5 -91t-18 -64t-4 -47q0 -40 19.5 -56t47.5 -16q18 0 37 1.5t31 7.5q3 9 7 21.5t8 26.5l8 28t7 26h48
q-1 -16 -1.5 -25.5t-0.5 -14.5v-7.5v-3.5q0 -33 21 -46.5t51 -13.5q16 0 28 1t32 8q11 21 15.5 45t4.5 46z" />
    <glyph glyph-name="u06F6" unicode="&#x6f6;" horiz-adv-x="467" 
d="M233 519q-12 0 -31 -10t-38 -26.5t-35.5 -38t-23.5 -44.5q15 -91 124 -91q32 0 75 10.5t100 39.5l11 -7l-1 -60q-41 -23 -81 -51t-80 -67t-80.5 -92t-81.5 -127h-12l-17 41q10 24 27 54.5t40.5 63t51.5 65t60 60.5h-18q-39 0 -69.5 12t-51 32t-31.5 47t-11 57q0 40 20 77
t48.5 65.5t59.5 45.5t53 17q17 0 42.5 -16.5t52.5 -36.5l-32 -52q-26 15 -43 23.5t-28 8.5z" />
    <glyph glyph-name="u06F7" unicode="&#x6f7;" horiz-adv-x="582" 
d="M507 592l30 -47q-57 -68 -94 -137.5t-60.5 -140.5t-36.5 -143t-22 -144l-41 -25l-14 8q-14 77 -26 135t-25.5 105t-29 86t-35.5 77.5t-46.5 80t-61.5 93.5l46 52q39 -51 72.5 -105t59.5 -115t44 -131.5t27 -155.5q6 60 18.5 125t36 130t59 129t87.5 123h12z" />
    <glyph glyph-name="u06F8" unicode="&#x6f8;" horiz-adv-x="582" 
d="M75 -45l-30 47q58 67 95 137t60.5 141t36.5 143t22 144l40 25l15 -8q14 -77 26 -135t25 -105t28.5 -86t35.5 -77.5t46.5 -80t61.5 -93.5l-46 -52q-39 51 -72.5 105t-59.5 115t-44 131.5t-27 155.5q-6 -60 -19 -125t-36 -130t-58.5 -129t-87.5 -123h-12z" />
    <glyph glyph-name="u06F9" unicode="&#x6f9;" horiz-adv-x="511" 
d="M420 -45h-13q-28 37 -44 70t-24.5 67.5t-11.5 73t-5 86.5q0 2 -0.5 3.5t-0.5 3.5q-29 -10 -62 -15t-71 -5t-63.5 5t-40.5 14.5t-21.5 24t-6.5 32.5q0 16 5 49t12.5 71t15.5 76t15 65l16 15q6 1 11.5 1h10.5q58 0 99 -16t68 -47t41.5 -77t18.5 -105q6 -77 9.5 -125.5
t12 -83.5t24 -64t44.5 -68zM200 309q35 0 63 4t53 12q-6 53 -18 89.5t-32.5 59t-51 32.5t-74.5 10q-3 -12 -8 -38t-10.5 -55.5t-10 -56.5t-6.5 -40q14 -10 38 -13.5t57 -3.5z" />
    <glyph glyph-name="u200C" unicode="&#x200c;" 
d="M-53 851l53 -54l52 53l16 -17l-52 -51l52 -53l-16 -16l-52 52l-53 -53l-16 17l52 53l-52 51z" />
    <glyph glyph-name="u200D" unicode="&#x200d;" 
d="M77 725v46h-153v-46h-23v68h199v-68h-23z" />
    <glyph glyph-name="u200E" unicode="&#x200e;" 
d="M10 833l16 18l69 -69l-69 -70l-16 17l41 42h-126v22h126z" />
    <glyph glyph-name="u200F" unicode="&#x200f;" 
d="M-10 729l-16 -16l-69 69l69 69l16 -17l-41 -41h127v-22h-126z" />
    <glyph glyph-name="u2010" unicode="&#x2010;" horiz-adv-x="660" 
d="M60 160v66h540v-66h-540z" />
    <glyph glyph-name="u2011" unicode="&#x2011;" horiz-adv-x="502" 
d="M60 160v66h382v-66h-382z" />
    <glyph glyph-name="figuredash" unicode="&#x2012;" horiz-adv-x="660" 
d="M60 160v66h540v-66h-540z" />
    <glyph glyph-name="emdash" unicode="&#x2014;" horiz-adv-x="1060" 
d="M60 160v66h940v-66h-940z" />
    <glyph glyph-name="u2015" unicode="&#x2015;" horiz-adv-x="1060" 
d="M60 160v66h940v-66h-940z" />
    <glyph glyph-name="quoteleft" unicode="&#x2018;" horiz-adv-x="225" 
d="M145 610l19 -29l-49 -83q20 -1 35 -14.5t15 -36.5q0 -22 -15 -37t-38 -15q-22 0 -37 15.5t-15 38.5q0 9 2 19.5t9.5 28.5t22.5 45t41 68h10z" />
    <glyph glyph-name="quoteright" unicode="&#x2019;" horiz-adv-x="244" 
d="M89 395l-19 29l49 83q-20 1 -35 14.5t-15 36.5q0 22 15 37t38 15q22 0 37 -15.5t15 -38.5q0 -9 -2 -19.5t-9.5 -28.5t-22.5 -45t-41 -68h-10z" />
    <glyph glyph-name="quotedblleft" unicode="&#x201c;" horiz-adv-x="360" 
d="M145 610l19 -29l-49 -83q20 -1 35 -14.5t15 -36.5q0 -22 -15 -37t-38 -15q-22 0 -37 15.5t-15 38.5q0 9 2 19.5t9.5 28.5t22.5 45t41 68h10zM280 610l19 -29l-49 -83q20 -1 35 -14.5t15 -36.5q0 -22 -15 -37t-38 -15q-22 0 -37 15.5t-15 38.5q0 9 2 19.5t9.5 28.5
t22.5 45t41 68h10z" />
    <glyph glyph-name="quotedblright" unicode="&#x201d;" horiz-adv-x="379" 
d="M89 395l-19 29l49 83q-20 1 -35 14.5t-15 36.5q0 22 15 37t38 15q22 0 37 -15.5t15 -38.5q0 -9 -2 -19.5t-9.5 -28.5t-22.5 -45t-41 -68h-10zM224 395l-19 29l49 83q-20 1 -35 14.5t-15 36.5q0 22 15 37t38 15q22 0 37 -15.5t15 -38.5q0 -9 -2 -19.5t-9.5 -28.5
t-22.5 -45t-41 -68h-10z" />
    <glyph glyph-name="bullet" unicode="&#x2022;" horiz-adv-x="409" 
d="M349 297v-290h-289v290h289z" />
    <glyph glyph-name="ellipsis" unicode="&#x2026;" horiz-adv-x="572" 
d="M459 0q-22 0 -37 15t-15 37q0 23 15 38.5t37 15.5q23 0 38 -15.5t15 -38.5q0 -22 -15 -37t-38 -15zM60 52q0 23 15 38.5t37 15.5q23 0 38 -15.5t15 -38.5q0 -22 -15 -37t-38 -15q-22 0 -37 15t-15 37zM234 52q0 23 15 38.5t37 15.5q23 0 38 -15.5t15 -38.5q0 -22 -15 -37
t-38 -15q-22 0 -37 15t-15 37z" />
    <glyph glyph-name="u202A" unicode="&#x202a;" 
d="M-28 771h-57v22h57v-22zM1 793h50l-41 40l16 18l69 -69l-69 -70l-16 17l41 42h-50v22z" />
    <glyph glyph-name="u202B" unicode="&#x202b;" 
d="M28 793h57v-22h-57v22zM-1 771h-49l40 -42l-16 -16l-69 69l69 69l16 -17l-41 -41h50v-22z" />
    <glyph glyph-name="u202C" unicode="&#x202c;" 
d="M-52 772l-17 17l69 68l69 -68l-17 -17l-41 41v-102h-23v101z" />
    <glyph glyph-name="u202D" unicode="&#x202d;" 
d="M-37 833l16 18l69 -69l-69 -70l-16 17l41 42h-107v22h106zM28 833l16 18l69 -69l-69 -70l-16 17l53 53z" />
    <glyph glyph-name="u202E" unicode="&#x202e;" 
d="M38 754l-17 -17l-68 69l68 69l17 -17l-41 -41h107v-23h-107zM-28 754l-16 -17l-69 69l69 69l16 -17l-52 -52z" />
    <glyph glyph-name="u202F" unicode="&#x202f;" 
 />
    <glyph glyph-name="guilsinglleft" unicode="&#x2039;" horiz-adv-x="281" 
d="M120 245q0 -41 5 -75t17 -66t31 -65.5t48 -73.5l-29 -30h-12q-36 47 -59 87.5t-36.5 77.5t-19 72.5t-5.5 72.5q0 36 5.5 71.5t19 73t36.5 78t59 87.5h12l29 -30q-29 -40 -48 -73.5t-31 -65.5t-17 -66t-5 -75z" />
    <glyph glyph-name="guilsinglright" unicode="&#x203a;" horiz-adv-x="281" 
d="M161 245q0 41 -5 75t-17 66t-31.5 65.5t-47.5 73.5l29 30h12q36 -47 59 -87.5t36.5 -78t19 -73t5.5 -71.5q0 -37 -5.5 -72.5t-19 -72.5t-36.5 -77.5t-59 -87.5h-12l-29 30q28 40 47.5 73.5t31.5 65.5t17 66t5 75z" />
    <glyph glyph-name="u204B" unicode="&#x204b;" horiz-adv-x="430" 
d="M190 0v570h-85v-570h-55v630q19 5 47 7.5t68 2.5q67 0 109.5 -13t65.5 -36t31.5 -55t8.5 -71q0 -37 -6.5 -64t-22 -45t-41.5 -27t-65 -9v-320h-55z" />
    <glyph glyph-name="infinity" unicode="&#x221e;" horiz-adv-x="782" 
d="M671 176q0 42 -28 69t-73 27q-31 0 -58.5 -15t-47.5 -33q-25 -21 -45 -48q20 -27 45 -48q20 -18 47.5 -33t58.5 -15q45 0 73 27t28 69zM111 176q0 -42 28.5 -69t72.5 -27q31 0 58.5 15t48.5 33q25 21 45 48q-20 27 -45 48q-21 18 -48.5 33t-58.5 15q-44 0 -72.5 -27
t-28.5 -69zM722 176q0 -34 -12 -62.5t-32 -49t-46.5 -32t-56.5 -11.5q-50 0 -95.5 29t-88.5 81q-43 -52 -88 -81t-96 -29q-29 0 -56 11.5t-47 32t-32 49t-12 62.5t12 62.5t32 49t47 32t56 11.5q51 0 96 -29t88 -81q43 52 88.5 81t95.5 29q30 0 56.5 -11.5t46.5 -32t32 -49
t12 -62.5z" />
    <glyph glyph-name="approxequal" unicode="&#x2248;" horiz-adv-x="502" 
d="M156 268q-19 0 -41 -7t-46 -22l-9 6v47q26 20 50.5 28t50.5 8q24 0 47 -6.5t45.5 -14t45.5 -13.5t47 -6q19 0 41 7t46 22l9 -6v-47q-26 -20 -50.5 -28t-50.5 -8q-24 0 -47.5 6t-46.5 13.5t-45.5 14t-45.5 6.5zM156 104q-19 0 -41 -7t-46 -22l-9 6v48q26 20 50.5 27.5
t50.5 7.5q25 0 48 -6.5t45.5 -14t45 -13.5t46.5 -6q39 0 87 30l9 -7v-47q-26 -20 -50.5 -28t-50.5 -8q-24 0 -47 6t-46 13.5t-46 14t-46 6.5z" />
    <glyph glyph-name="notequal" unicode="&#x2260;" horiz-adv-x="502" 
d="M233 81l-48 -117l-25 3l-15 18l37 96h-122v60h145l38 99h-183v60h206l48 124l42 -8l8 -17l-41 -99h119v-60h-144l-41 -99h185v-60h-209z" />
    <glyph glyph-name="lessequal" unicode="&#x2264;" horiz-adv-x="502" 
d="M389 480l11 -6l13 -50l-274 -126l274 -127l-13 -50l-11 -6l-310 152v60zM60 -6v60h382v-60h-382z" />
    <glyph glyph-name="greaterequal" unicode="&#x2265;" horiz-adv-x="502" 
d="M420 327v-60l-310 -152l-11 6l-13 50l274 127l-274 126l13 50l11 6zM442 -6v60h-382v-60h382z" />
    <glyph glyph-name="H22073" unicode="&#x25a1;" horiz-adv-x="419" 
d="M110 152q0 -42 28.5 -70.5t70.5 -28.5q20 0 38 7.5t31.5 21t21.5 31.5t8 39q0 20 -8 38t-21.5 31.5t-31.5 21.5t-38 8q-21 0 -39 -8t-31.5 -21.5t-21 -31.5t-7.5 -38zM210 0q-31 0 -58.5 12t-47.5 33t-32 48.5t-12 58.5t12 59t32 49t47.5 33t58.5 12t58 -12t47 -33
t32 -49t12 -59t-12 -58.5t-32 -48.5t-47 -33t-58 -12z" />
    <glyph glyph-name="H18543" unicode="&#x25aa;" horiz-adv-x="419" 
d="M210 0q-31 0 -58.5 12t-47.5 33t-32 48.5t-12 58.5t12 59t32 49t47.5 33t58.5 12t58 -12t47 -33t32 -49t12 -59t-12 -58.5t-32 -48.5t-47 -33t-58 -12z" />
    <glyph glyph-name="u25C2" unicode="&#x25c2;" horiz-adv-x="405" 
d="M60 174l266 151l19 -14v-301l-19 -14l-266 151v27z" />
    <glyph glyph-name="u25C3" unicode="&#x25c3;" horiz-adv-x="405" 
d="M127 160l172 -93v187zM60 174l266 151l19 -14v-301l-19 -14l-266 151v27z" />
    <glyph glyph-name="u25CC" unicode="&#x25cc;" horiz-adv-x="591" 
d="M279 0v52h33v-52h-33zM279 491h33v-52h-33v52zM444 370l-23 23l37 37l23 -23zM488 229v33h52v-33h-52zM480 84l-23 -24l-37 37l23 24zM147 120l24 -23l-37 -37l-24 23zM49 229v33h52v-33h-52zM110 408l23 23l37 -37l-23 -23z" />
    <glyph glyph-name="openbullet" unicode="&#x25e6;" horiz-adv-x="409" 
d="M349 297v-290h-289v290h289zM114 242v-180h180v180h-180z" />
    <glyph glyph-name="uFFFC" unicode="&#xfffc;" horiz-adv-x="1000" 
d="M266 548q36 0 58.5 -16.5t34.5 -42.5t16 -59t4 -67q0 -33 -4 -66t-16 -59.5t-34.5 -42.5t-58.5 -16q-37 0 -59.5 16t-35 42.5t-16.5 59.5t-4 66q0 34 4 67t16.5 59t35 42.5t59.5 16.5zM432 541h109q17 0 33.5 -4.5t29 -15t20.5 -28t8 -43.5q0 -25 -13.5 -46t-38.5 -29
q33 -8 48 -31.5t15 -56.5q0 -54 -29 -77.5t-86 -23.5h-96v355zM266 511q-23 0 -37 -11.5t-21.5 -31.5t-9.5 -47t-2 -58t2 -58t9.5 -47t21.5 -31.5t37 -11.5q22 0 35.5 11.5t21 31.5t9.5 47t2 58t-2 58t-9.5 47t-21 31.5t-35.5 11.5zM695 236q11 -12 21 -16t21 -4q30 0 38 18
t8 55v252h44v-254q0 -24 -3.5 -43.5t-13.5 -34t-27.5 -22.5t-44.5 -8q-25 0 -41.5 8t-26.5 21zM476 222h59q35 0 48.5 19.5t13.5 45.5q0 37 -20 52.5t-49 15.5h-52v-133zM476 388h50q7 0 17 1.5t19.5 7.5t16.5 17.5t7 32.5q0 28 -14.5 43t-46.5 15h-49v-117zM842 0v39h119
v119h39v-158h-158zM158 0h-158v158h39v-119h119v-39zM1000 562h-39v118h-119v39h158v-157zM158 680h-119v-118h-39v157h158v-39zM719 0h-157v39h157v-39zM39 281h-39v157h39v-157zM438 680h-157v39h157v-39zM719 680h-157v39h157v-39zM1000 281h-39v157h39v-157zM438 0h-157
v39h157v-39z" />
    <glyph glyph-name="kashidas.Narrow" horiz-adv-x="141" 
d="M0 0q-11 0 -17 11.5t-6 28.5q0 18 6 29.5t17 11.5h141v-81h-141z" />
    <glyph glyph-name="kashidas.Wide" horiz-adv-x="141" 
d="M0 0q-11 0 -17 11.5t-6 28.5q0 18 6 29.5t17 11.5h141v-81h-141z" />
    <glyph glyph-name="u06F0.tnum" horiz-adv-x="412" 
d="M199 292q-26 -11 -51 -36t-36 -51q11 -26 36 -51t51 -36h14q13 6 26.5 15.5t25 21t21 24.5t14.5 26q-5 13 -14.5 26t-21 24.5t-25 21t-26.5 15.5h-14zM206 57q-16 0 -37.5 12.5t-43 32.5t-39.5 44.5t-26 47.5v22q8 23 26 47t39.5 44t43 32.5t37.5 12.5t38 -12.5t43 -32.5
t39 -44t26 -47v-22q-8 -23 -26 -47.5t-39 -44.5t-43 -32.5t-38 -12.5z" />
    <glyph glyph-name="u06F1.tnum" horiz-adv-x="274" 
d="M185 -45h-14q-5 77 -9.5 137t-10 109t-13.5 90.5t-20 81.5t-29 81.5t-40 90.5l47 47q37 -70 59 -135t34.5 -136t18 -153t9.5 -186z" />
    <glyph glyph-name="u06F2.tnum" horiz-adv-x="490" 
d="M195 -45h-14q-5 77 -10.5 137t-12 109t-16 90.5t-22.5 81.5t-30.5 81.5t-40.5 90.5l47 47l37 -80q18 -38 33 -61t30 -35.5t30.5 -16.5t33.5 -4q39 0 60 10.5t32 34t16.5 61t13.5 91.5l52 -6q-11 -71 -20 -121.5t-26 -82.5t-46.5 -47t-79.5 -15q-23 0 -42 5t-34 16
q20 -74 28.5 -161t12.5 -198z" />
    <glyph glyph-name="u06F3.tnum" horiz-adv-x="672" 
d="M617 586q-11 -72 -20 -123t-25.5 -82.5t-45 -46t-76.5 -14.5q-31 0 -56.5 15t-39.5 55q-19 -40 -47.5 -55t-56.5 -15q-17 0 -33 4.5t-30 15.5q20 -74 28 -161t12 -197l-32 -27h-14q-5 77 -10.5 137t-12 109t-16 90.5t-22.5 81.5t-30.5 81.5t-40.5 90.5l47 47l37 -80
q18 -38 32.5 -61t27.5 -35.5t26 -16.5t27 -4q22 0 38 7t27 26.5t18 54t12 89.5h46v-90q0 -41 16 -64t51 -23q33 0 51.5 9.5t29 32.5t16.5 61t15 94l51 -6v0z" />
    <glyph glyph-name="u06F4.tnum" horiz-adv-x="527" 
d="M183 -45h-13q-5 75 -9.5 134t-10.5 107.5t-14 89t-19.5 79.5t-27 78.5t-37.5 85.5l48 48q14 -29 30.5 -70.5t33.5 -89.5q10 36 31 67.5t47 55.5t53.5 38t48.5 14q20 0 44.5 -17.5t57.5 -43.5l-32 -51q-32 20 -49.5 29.5t-28.5 9.5q-15 0 -35 -11t-40 -30.5t-37 -45.5
t-26 -57q17 -40 50.5 -57t84.5 -17q35 0 65 5t60 14l9 -9l-4 -54q-40 -15 -73.5 -20t-64.5 -5q-49 0 -80.5 14t-51.5 35q10 -67 15 -139t8 -160z" />
    <glyph glyph-name="u06F5.tnum" horiz-adv-x="581" 
d="M372 -35q-24 0 -41 6.5t-28.5 16t-18.5 20.5t-11 20q-8 -17 -17 -29t-22.5 -19.5t-32 -11t-45.5 -3.5q-32 0 -53 11t-34 29t-18.5 40.5t-5.5 45.5q0 32 7 68t24 80.5t45.5 100t70.5 125.5q-21 13 -43.5 26.5l-47.5 28.5l20 55l16 6q124 -72 198 -127t114 -103.5t52.5 -95
t12.5 -101.5q0 -21 -3.5 -43t-9 -42t-12.5 -36.5t-13 -26.5q-14 -23 -40 -32t-64 -9zM459 140q0 43 -10 79t-36 71t-70.5 71t-112.5 80q-45 -74 -71.5 -127t-40.5 -91t-18 -64t-4 -47q0 -40 19.5 -56t47.5 -16q18 0 37 1.5t31 7.5q3 9 7 21.5t8 26.5l8 28t7 26h48
q-1 -16 -1.5 -25.5t-0.5 -14.5v-7.5v-3.5q0 -33 21 -46.5t51 -13.5q16 0 28 1t32 8q11 21 15.5 45t4.5 46z" />
    <glyph glyph-name="u06F6.tnum" horiz-adv-x="467" 
d="M233 519q-12 0 -31 -10t-38 -26.5t-35.5 -38t-23.5 -44.5q15 -91 124 -91q32 0 75 10.5t100 39.5l11 -7l-1 -60q-41 -23 -81 -51t-80 -67t-80.5 -92t-81.5 -127h-12l-17 41q10 24 27 54.5t40.5 63t51.5 65t60 60.5h-18q-39 0 -69.5 12t-51 32t-31.5 47t-11 57q0 40 20 77
t48.5 65.5t59.5 45.5t53 17q17 0 42.5 -16.5t52.5 -36.5l-32 -52q-26 15 -43 23.5t-28 8.5z" />
    <glyph glyph-name="u06F7.tnum" horiz-adv-x="582" 
d="M507 592l30 -47q-57 -68 -94 -137.5t-60.5 -140.5t-36.5 -143t-22 -144l-41 -25l-14 8q-14 77 -26 135t-25.5 105t-29 86t-35.5 77.5t-46.5 80t-61.5 93.5l46 52q39 -51 72.5 -105t59.5 -115t44 -131.5t27 -155.5q6 60 18.5 125t36 130t59 129t87.5 123h12z" />
    <glyph glyph-name="u06F8.tnum" horiz-adv-x="582" 
d="M75 -45l-30 47q58 67 95 137t60.5 141t36.5 143t22 144l40 25l15 -8q14 -77 26 -135t25 -105t28.5 -86t35.5 -77.5t46.5 -80t61.5 -93.5l-46 -52q-39 51 -72.5 105t-59.5 115t-44 131.5t-27 155.5q-6 -60 -19 -125t-36 -130t-58.5 -129t-87.5 -123h-12z" />
    <glyph glyph-name="u06F9.tnum" horiz-adv-x="511" 
d="M420 -45h-13q-28 37 -44 70t-24.5 67.5t-11.5 73t-5 86.5q0 2 -0.5 3.5t-0.5 3.5q-29 -10 -62 -15t-71 -5t-63.5 5t-40.5 14.5t-21.5 24t-6.5 32.5q0 16 5 49t12.5 71t15.5 76t15 65l16 15q6 1 11.5 1h10.5q58 0 99 -16t68 -47t41.5 -77t18.5 -105q6 -77 9.5 -125.5
t12 -83.5t24 -64t44.5 -68zM200 309q35 0 63 4t53 12q-6 53 -18 89.5t-32.5 59t-51 32.5t-74.5 10q-3 -12 -8 -38t-10.5 -55.5t-10 -56.5t-6.5 -40q14 -10 38 -13.5t57 -3.5z" />
    <glyph glyph-name="u0660.tnum" horiz-adv-x="235" 
d="M60 262h115v-121h-115v121z" />
    <glyph glyph-name="u0661.tnum" horiz-adv-x="274" 
d="M185 -45h-14q-5 77 -9.5 137t-10 109t-13.5 90.5t-20 81.5t-29 81.5t-40 90.5l47 47q37 -70 59 -135t34.5 -136t18 -153t9.5 -186z" />
    <glyph glyph-name="u0662.tnum" horiz-adv-x="490" 
d="M195 -45h-14q-5 77 -10.5 137t-12 109t-16 90.5t-22.5 81.5t-30.5 81.5t-40.5 90.5l47 47l37 -80q18 -38 33 -61t30 -35.5t30.5 -16.5t33.5 -4q39 0 60 10.5t32 34t16.5 61t13.5 91.5l52 -6q-11 -71 -20 -121.5t-26 -82.5t-46.5 -47t-79.5 -15q-23 0 -42 5t-34 16
q20 -74 28.5 -161t12.5 -198z" />
    <glyph glyph-name="u0663.tnum" horiz-adv-x="672" 
d="M617 586q-11 -72 -20 -123t-25.5 -82.5t-45 -46t-76.5 -14.5q-31 0 -56.5 15t-39.5 55q-19 -40 -47.5 -55t-56.5 -15q-17 0 -33 4.5t-30 15.5q20 -74 28 -161t12 -197l-32 -27h-14q-5 77 -10.5 137t-12 109t-16 90.5t-22.5 81.5t-30.5 81.5t-40.5 90.5l47 47l37 -80
q18 -38 32.5 -61t27.5 -35.5t26 -16.5t27 -4q22 0 38 7t27 26.5t18 54t12 89.5h46v-90q0 -41 16 -64t51 -23q33 0 51.5 9.5t29 32.5t16.5 61t15 94l51 -6v0z" />
    <glyph glyph-name="u0664.tnum" horiz-adv-x="442" 
d="M301 262q-81 -34 -126.5 -82.5t-57.5 -100.5q12 -14 28.5 -22.5t35.5 -13t39.5 -5.5t41.5 -1h114l6 -12l-17 -60h-111q-39 0 -73 5t-59 17.5t-39 34t-14 53.5q0 47 31 98t89 92q-37 6 -61 18.5t-38.5 28t-20 32.5t-5.5 32q0 45 20 84.5t49.5 68.5t63.5 46t62 17
q8 0 15.5 -2t17 -7t23 -14t32.5 -23l-31 -54q-27 15 -42 20t-23 5q-18 0 -39.5 -9t-41.5 -25.5t-36.5 -40.5t-24.5 -54q8 -21 26.5 -34.5t44.5 -21.5t59 -11.5t70 -4.5z" />
    <glyph glyph-name="u0665.tnum" horiz-adv-x="510" 
d="M154 457q97 -23 155 -55.5t89.5 -71t41.5 -82t10 -89.5q0 -68 -15 -106.5t-44 -58t-71 -24.5t-95 -5q-85 0 -125 24t-40 74q0 20 4.5 51t11 68t15.5 76t17.5 75t16 65.5t12.5 47.5zM168 374q-8 -35 -17 -77t-17 -83t-14.5 -78.5t-10.5 -64.5q24 -17 59 -21.5t72 -4.5
q16 0 36 1t39.5 3t37 5.5t29.5 8.5q6 20 9 40.5t3 37.5q0 39 -10 73.5t-35.5 64t-69 53.5t-111.5 42z" />
    <glyph glyph-name="u0666.tnum" horiz-adv-x="482" 
d="M344 359q0 -77 2.5 -127t11.5 -87t26 -68t46 -70l-40 -52h-13q-28 36 -45.5 70t-27 74t-13 89t-3.5 116v58.5t-0.5 60t-1.5 50t-3 29.5q-53 -4 -83.5 -4.5t-50.5 -0.5q-22 0 -37 1t-26 3t-19.5 6t-17.5 10l7 69l13 6q14 -7 31.5 -10.5t52.5 -3.5q49 0 74.5 1.5t45.5 1.5
q38 0 54.5 -14.5t16.5 -53.5v-154z" />
    <glyph glyph-name="u0667.tnum" horiz-adv-x="582" 
d="M507 592l30 -47q-57 -68 -94 -137.5t-60.5 -140.5t-36.5 -143t-22 -144l-41 -25l-14 8q-14 77 -26 135t-25.5 105t-29 86t-35.5 77.5t-46.5 80t-61.5 93.5l46 52q39 -51 72.5 -105t59.5 -115t44 -131.5t27 -155.5q6 60 18.5 125t36 130t59 129t87.5 123h12z" />
    <glyph glyph-name="u0668.tnum" horiz-adv-x="582" 
d="M75 -45l-30 47q58 67 95 137t60.5 141t36.5 143t22 144l40 25l15 -8q14 -77 26 -135t25 -105t28.5 -86t35.5 -77.5t46.5 -80t61.5 -93.5l-46 -52q-39 51 -72.5 105t-59.5 115t-44 131.5t-27 155.5q-6 -60 -19 -125t-36 -130t-58.5 -129t-87.5 -123h-12z" />
    <glyph glyph-name="u0669.tnum" horiz-adv-x="511" 
d="M420 -45h-13q-28 37 -44 70t-24.5 67.5t-11.5 73t-5 86.5q0 2 -0.5 3.5t-0.5 3.5q-29 -10 -62 -15t-71 -5t-63.5 5t-40.5 14.5t-21.5 24t-6.5 32.5q0 16 5 49t12.5 71t15.5 76t15 65l16 15q6 1 11.5 1h10.5q58 0 99 -16t68 -47t41.5 -77t18.5 -105q6 -77 9.5 -125.5
t12 -83.5t24 -64t44.5 -68zM200 309q35 0 63 4t53 12q-6 53 -18 89.5t-32.5 59t-51 32.5t-74.5 10q-3 -12 -8 -38t-10.5 -55.5t-10 -56.5t-6.5 -40q14 -10 38 -13.5t57 -3.5z" />
    <glyph glyph-name="uni064B0651" 
d="M92 0q-42 0 -63.5 8.5t-32.5 31.5q-14 -24 -33 -32t-46 -8q-32 0 -47 15t-15 37q0 21 3.5 49t7.5 66l36 -3l-10 -106q3 -3 7 -6q4 -2 10 -4t16 -2q28 0 39.5 9.5t13.5 35.5l5 44h35v-44q0 -26 18 -35.5t62 -9.5q4 23 2 49.5t-13 66.5l33 21l10 -4q7 -35 9 -52.5t2 -31.5
q0 -22 -5.5 -44.5t-22.5 -50.5h-21zM109 349l6 -40l-224 -89l-6 40zM109 460l6 -40l-224 -89l-6 40z" />
    <glyph glyph-name="u067E.medi.rlig" horiz-adv-x="359" 
d="M359 0q-21 0 -40.5 1.5t-37 7.5t-32.5 18.5t-25 35.5q-2 -6 -4.5 -11t-4.5 -8q-10 -14 -23 -21q-26 -14 -70.5 -18.5t-93.5 -4.5h-28q-11 0 -17 11.5t-6 28.5q0 18 6 29.5t17 11.5h24q55 0 97.5 3.5t71.5 14.5l-13 161l64 17l9 -118q3 -44 27.5 -61t78.5 -17v-81zM71 -87
l78 -49l-40 -62l-77 47zM277 -134l-38 -64l-78 48l40 63zM192 -321l-76 47l39 64l77 -48z" />
    <glyph glyph-name="u062A.medi.rlig" horiz-adv-x="359" 
d="M359 0q-21 0 -40.5 1.5t-37 7.5t-32.5 18.5t-25 35.5q-2 -6 -4.5 -11t-4.5 -8q-10 -14 -23 -21q-26 -14 -70.5 -18.5t-93.5 -4.5h-28q-11 0 -17 11.5t-6 28.5q0 18 6 29.5t17 11.5h24q55 0 97.5 3.5t71.5 14.5l-13 161l64 17l9 -118q3 -44 27.5 -61t78.5 -17v-81zM98 473
l78 -48l-40 -63l-77 47zM188 410l40 63l76 -47l-38 -64z" />
    <glyph glyph-name="u062B.medi.rlig" horiz-adv-x="359" 
d="M359 0q-21 0 -40.5 1.5t-37 7.5t-32.5 18.5t-25 35.5q-2 -6 -4.5 -11t-4.5 -8q-10 -14 -23 -21q-26 -14 -70.5 -18.5t-93.5 -4.5h-28q-11 0 -17 11.5t-6 28.5q0 18 6 29.5t17 11.5h24q55 0 97.5 3.5t71.5 14.5l-13 161l64 17l9 -118q3 -44 27.5 -61t78.5 -17v-81z
M144 596l77 -48l-39 -64l-78 49zM98 473l78 -48l-40 -63l-77 47zM188 410l40 63l76 -47l-38 -64z" />
    <glyph glyph-name="u06CC.medi.rlig" horiz-adv-x="359" 
d="M359 0q-21 0 -40.5 1.5t-37 7.5t-32.5 18.5t-25 35.5q-2 -6 -4.5 -11t-4.5 -8q-10 -14 -23 -21q-26 -14 -70.5 -18.5t-93.5 -4.5h-28q-11 0 -17 11.5t-6 28.5q0 18 6 29.5t17 11.5h24q55 0 97.5 3.5t71.5 14.5l-13 161l64 17l9 -118q3 -44 27.5 -61t78.5 -17v-81zM71 -87
l78 -49l-40 -62l-77 47zM277 -134l-38 -64l-78 48l40 63z" />
    <glyph glyph-name="u0626.medi.rlig" horiz-adv-x="359" 
d="M359 0q-21 0 -40.5 1.5t-37 7.5t-32.5 18.5t-25 35.5q-2 -6 -4.5 -11t-4.5 -8q-10 -14 -23 -21q-26 -14 -70.5 -18.5t-93.5 -4.5h-28q-11 0 -17 11.5t-6 28.5q0 18 6 29.5t17 11.5h24q55 0 97.5 3.5t71.5 14.5l-13 161l64 17l9 -118q3 -44 27.5 -61t78.5 -17v-81z
M240 582l-12 -38h-93q-7 -16 -6 -32t9 -29t21.5 -21.5t32.5 -8.5q14 0 37 5t54 16l5 -47l-206 -75l-6 40l63 29q-25 13 -38 36.5t-13 49.5q0 18 5.5 38.5t22.5 47.5h116z" />
    <glyph glyph-name="u0628.init.rlig" horiz-adv-x="407" 
d="M0 0q-11 0 -17 11.5t-6 28.5q0 18 6 29.5t17 11.5h119q54 0 101 4t73 18q-1 15 -5.5 38.5t-11 50t-14.5 53.5t-17 49l50 38l16 -6q7 -16 13.5 -38.5t11.5 -47t8 -49.5t3 -45q0 -45 -18.5 -79t-40.5 -45q-20 -11 -65 -16.5t-104 -5.5h-119zM200 -136l-40 -62l-76 47l38 64
z" />
    <glyph glyph-name="u067E.init.rlig" horiz-adv-x="407" 
d="M0 0q-11 0 -17 11.5t-6 28.5q0 18 6 29.5t17 11.5h119q54 0 101 4t73 18q-1 15 -5.5 38.5t-11 50t-14.5 53.5t-17 49l50 38l16 -6q7 -16 13.5 -38.5t11.5 -47t8 -49.5t3 -45q0 -45 -18.5 -79t-40.5 -45q-20 -11 -65 -16.5t-104 -5.5h-119zM266 -134l-38 -64l-78 48l40 63
zM181 -321l-76 47l39 64l77 -48zM60 -87l78 -49l-40 -62l-77 47z" />
    <glyph glyph-name="u062A.init.rlig" horiz-adv-x="407" 
d="M0 0q-11 0 -17 11.5t-6 28.5q0 18 6 29.5t17 11.5h119q54 0 101 4t73 18q-1 15 -5.5 38.5t-11 50t-14.5 53.5t-17 49l50 38l16 -6q7 -16 13.5 -38.5t11.5 -47t8 -49.5t3 -45q0 -45 -18.5 -79t-40.5 -45q-20 -11 -65 -16.5t-104 -5.5h-119zM212 451l40 63l76 -47l-38 -64z
M122 514l78 -48l-40 -63l-77 47z" />
    <glyph glyph-name="u062B.init.rlig" horiz-adv-x="407" 
d="M0 0q-11 0 -17 11.5t-6 28.5q0 18 6 29.5t17 11.5h119q54 0 101 4t73 18q-1 15 -5.5 38.5t-11 50t-14.5 53.5t-17 49l50 38l16 -6q7 -16 13.5 -38.5t11.5 -47t8 -49.5t3 -45q0 -45 -18.5 -79t-40.5 -45q-20 -11 -65 -16.5t-104 -5.5h-119zM212 451l40 63l76 -47l-38 -64z
M168 637l77 -48l-39 -64l-78 49zM122 514l78 -48l-40 -63l-77 47z" />
    <glyph glyph-name="u06CC.init.rlig" horiz-adv-x="407" 
d="M0 0q-11 0 -17 11.5t-6 28.5q0 18 6 29.5t17 11.5h119q54 0 101 4t73 18q-1 15 -5.5 38.5t-11 50t-14.5 53.5t-17 49l50 38l16 -6q7 -16 13.5 -38.5t11.5 -47t8 -49.5t3 -45q0 -45 -18.5 -79t-40.5 -45q-20 -11 -65 -16.5t-104 -5.5h-119zM266 -134l-38 -64l-78 48l40 63
zM60 -87l78 -49l-40 -62l-77 47z" />
    <glyph glyph-name="u06A9.fina.salt" horiz-adv-x="903" 
d="M762 95q-1 30 -10.5 56t-26.5 45.5t-42.5 31t-58.5 11.5h-314q-45 0 -78 4t-54.5 14t-32.5 27.5t-11 45.5q0 24 14.5 51t38.5 54.5t54 52.5t61 44.5t59.5 31t49.5 11.5q14 0 29.5 -9t48.5 -32l-34 -55q-11 6 -21 10q-8 4 -16 7t-12 3q-22 0 -56 -16t-68 -40t-62.5 -52
t-40.5 -52q8 -13 39 -19t84 -6h328q48 0 82.5 -17.5t57.5 -44t34 -59t11 -62.5q0 -15 -5 -35q15 -9 34.5 -12t48.5 -3h10v-81h-10q-26 0 -55.5 7t-51.5 35q-13 -17 -24 -22q-21 -11 -70.5 -15.5t-132.5 -4.5h-183q-29 0 -67 0.5t-78.5 1.5t-80 3t-71.5 5l-30 68l10 13
q76 -7 158 -8.5t172 -1.5h171q87 0 134 3t68 11z" />
    <glyph glyph-name="u06A9.medi.salt" horiz-adv-x="835" 
d="M0 0q-11 0 -17 11.5t-6 28.5q0 18 6 29.5t17 11.5h491q87 0 134 3t68 11q-1 30 -10.5 56t-26.5 45.5t-42.5 31t-58.5 11.5h-314q-45 0 -78 4t-54.5 14t-32.5 27.5t-11 45.5q0 24 15 51t38.5 54.5t54 52.5t61 44.5t59 31t49.5 11.5q14 0 29.5 -9t48.5 -32l-34 -55
q-10 6 -20 10q-8 4 -16 7t-12 3q-22 0 -56 -16t-68.5 -40t-63 -52t-40.5 -52q8 -13 39.5 -19t84.5 -6h327q48 0 83 -17.5t57.5 -44t33.5 -59t11 -62.5q0 -15 -5 -35q16 -9 35 -12t48 -3h11v-81h-11q-26 0 -55.5 7t-51.5 35q-11 -16 -23 -22q-22 -11 -71.5 -15.5t-132.5 -4.5
h-490z" />
    <glyph glyph-name="u06A9.init.salt" horiz-adv-x="806" 
d="M0 0q-11 0 -17 11.5t-6 28.5q0 18 6 29.5t17 11.5h491q87 0 134 3t68 11q-1 30 -10.5 56t-26.5 45.5t-42.5 31t-58.5 11.5h-314q-45 0 -78 4t-54.5 14t-32.5 27.5t-11 45.5q0 24 15 51t38.5 54.5t54 52.5t61 44.5t59 31t49.5 11.5q14 0 29.5 -9t48.5 -32l-34 -55
q-10 6 -20 10q-8 4 -16 7t-12 3q-22 0 -56 -16t-68.5 -40t-63 -52t-40.5 -52q8 -13 39.5 -19t84.5 -6h327q48 0 83 -17.5t57.5 -44t33.5 -59t11 -62.5q0 -17 -4.5 -34t-12 -32.5t-16.5 -27.5t-19 -17q-22 -11 -71.5 -15.5t-132.5 -4.5h-490z" />
    <glyph glyph-name="u06AF.salt" horiz-adv-x="875" 
d="M376 0q-29 0 -67 0.5t-78.5 1.5t-80 3t-71.5 5l-30 68l10 13q76 -7 158 -8.5t172 -1.5h171q87 0 134 3t68 11q-1 30 -10.5 56t-26.5 45.5t-42.5 31t-58.5 11.5h-314q-45 0 -78 4t-54.5 14t-32.5 27.5t-11 45.5q0 24 14.5 51t38.5 54.5t54 52.5t61 44.5t59.5 31t49.5 11.5
q14 0 29.5 -9t48.5 -32l-34 -55q-11 6 -21 10q-8 4 -16 7t-12 3q-22 0 -56 -16t-68 -40t-62.5 -52t-40.5 -52q8 -13 39 -19t84 -6h328q48 0 82.5 -17.5t57.5 -44t34 -59t11 -62.5q0 -17 -4.5 -34t-12 -32.5t-17 -27.5t-19.5 -17q-21 -11 -70.5 -15.5t-132.5 -4.5h-183z
M340 617q-56 -32 -103 -70.5t-85 -80.5l-10 1l-10 36q15 19 35 39.5t43 40t48 37.5t51 32z" />
    <glyph glyph-name="u06AF.fina.salt" horiz-adv-x="906" 
d="M762 95q-1 30 -10.5 56t-26.5 45.5t-42.5 31t-58.5 11.5h-314q-45 0 -78 4t-54.5 14t-32.5 27.5t-11 45.5q0 24 14.5 51t38.5 54.5t54 52.5t61 44.5t59.5 31t49.5 11.5q14 0 29.5 -9t48.5 -32l-34 -55q-11 6 -21 10q-8 4 -16 7t-12 3q-22 0 -56 -16t-68 -40t-62.5 -52
t-40.5 -52q8 -13 39 -19t84 -6h328q48 0 82.5 -17.5t57.5 -44t34 -59t11 -62.5q0 -15 -5 -35q15 -9 34.5 -12t48.5 -3h10v-81h-10q-26 0 -55.5 7t-51.5 35q-13 -17 -24 -22q-21 -11 -70.5 -15.5t-132.5 -4.5h-183q-29 0 -67 0.5t-78.5 1.5t-80 3t-71.5 5l-30 68l10 13
q76 -7 158 -8.5t172 -1.5h171q87 0 134 3t68 11zM340 617q-56 -32 -103 -70.5t-85 -80.5l-10 1l-10 36q15 19 35 39.5t43 40t48 37.5t51 32z" />
    <glyph glyph-name="u06AF.medi.salt" horiz-adv-x="837" 
d="M0 0q-11 0 -17 11.5t-6 28.5q0 18 6 29.5t17 11.5h491q87 0 134 3t68 11q-1 30 -10.5 56t-26.5 45.5t-42.5 31t-58.5 11.5h-314q-45 0 -78 4t-54.5 14t-32.5 27.5t-11 45.5q0 24 15 51t38.5 54.5t54 52.5t61 44.5t59 31t49.5 11.5q14 0 29.5 -9t48.5 -32l-34 -55
q-10 6 -20 10q-8 4 -16 7t-12 3q-22 0 -56 -16t-68.5 -40t-63 -52t-40.5 -52q8 -13 39.5 -19t84.5 -6h327q48 0 83 -17.5t57.5 -44t33.5 -59t11 -62.5q0 -15 -5 -35q16 -9 35 -12t48 -3h11v-81h-11q-26 0 -55.5 7t-51.5 35q-11 -16 -23 -22q-22 -11 -71.5 -15.5t-132.5 -4.5
h-490zM271 617q-56 -32 -102.5 -70.5t-84.5 -80.5l-11 1l-9 36q15 19 35 39.5t42.5 40t47.5 37.5t51 32z" />
    <glyph glyph-name="u06AF.init.salt" horiz-adv-x="806" 
d="M0 0q-11 0 -17 11.5t-6 28.5q0 18 6 29.5t17 11.5h491q87 0 134 3t68 11q-1 30 -10.5 56t-26.5 45.5t-42.5 31t-58.5 11.5h-314q-45 0 -78 4t-54.5 14t-32.5 27.5t-11 45.5q0 24 15 51t38.5 54.5t54 52.5t61 44.5t59 31t49.5 11.5q14 0 29.5 -9t48.5 -32l-34 -55
q-10 6 -20 10q-8 4 -16 7t-12 3q-22 0 -56 -16t-68.5 -40t-63 -52t-40.5 -52q8 -13 39.5 -19t84.5 -6h327q48 0 83 -17.5t57.5 -44t33.5 -59t11 -62.5q0 -17 -4.5 -34t-12 -32.5t-16.5 -27.5t-19 -17q-22 -11 -71.5 -15.5t-132.5 -4.5h-490zM271 617q-56 -32 -102.5 -70.5
t-84.5 -80.5l-11 1l-9 36q15 19 35 39.5t42.5 40t47.5 37.5t51 32z" />
    <glyph glyph-name="u06A9.rlig" horiz-adv-x="690" 
d="M340 464q3 15 7 24t10 15t16 10t27 8l239 63l11 -11l-9 -58l-236 -63q72 -58 114.5 -106t65 -87t29 -69t6.5 -52q0 -20 -5 -37.5t-13 -32.5t-17.5 -25.5t-19.5 -15.5q-14 -7 -38 -12.5t-55.5 -10t-70 -7t-80.5 -2.5q-53 0 -100.5 4t-83 17.5t-56.5 38.5t-21 68
q0 23 2 50.5t4 51.5l6 56l53 -3q-4 -51 -7 -88t-4 -72q24 -22 80.5 -32t126.5 -10q38 0 74.5 1.5t69.5 5t60.5 8.5t46.5 13q-2 31 -14.5 65t-40.5 73t-73.5 84t-112.5 98z" />
    <glyph glyph-name="u06A9.init.rlig" horiz-adv-x="395" 
d="M0 0q-11 0 -17 11.5t-6 28.5q0 18 6 29.5t17 11.5h46q69 0 132 5t99 19q-2 31 -14.5 64.5t-40.5 72.5t-73.5 84t-112.5 98l9 40q3 15 7 24t10 15t16 10t27 8l239 63l11 -11l-9 -58l-236 -63q72 -58 114.5 -106t65 -87t29 -69t6.5 -52q0 -20 -5 -37.5t-13 -32.5
t-17.5 -25.5t-19.5 -15.5q-26 -13 -86 -20t-144 -7h-40z" />
    <glyph glyph-name="u06AF.rlig" horiz-adv-x="697" 
d="M321 76q38 0 74.5 1.5t69.5 5t60.5 8.5t46.5 13q-1 31 -13 63t-38 68t-67 77.5t-101 89.5l8 40q3 15 7 24.5t10 15.5t16 10t27 8l226 59l10 -11l-8 -59l-223 -58q64 -53 102.5 -97t58.5 -80.5t26.5 -65t6.5 -50.5q0 -20 -5 -37.5t-13 -32.5t-17.5 -25.5t-19.5 -15.5
q-14 -7 -38 -12.5t-55.5 -10t-70 -7t-80.5 -2.5q-53 0 -100.5 4t-83 17.5t-56.5 38.5t-21 68q0 23 2 50.5t4 51.5l6 56l53 -3q-4 -51 -7 -88t-4 -72q24 -22 80.5 -32t126.5 -10zM403 601l231 61l-7 -52l-230 -60z" />
    <glyph glyph-name="u06AF.init.rlig" horiz-adv-x="402" 
d="M0 0q-11 0 -17 11.5t-6 28.5q0 18 6 29.5t17 11.5h46q69 0 132 5t99 19q-2 30 -14 62.5t-37.5 68.5t-66.5 77t-101 89l8 40q3 15 7 24.5t10 15.5t16 10t27 8l226 59l10 -11l-8 -59l-223 -58q64 -53 102.5 -97t58.5 -80.5t26.5 -65t6.5 -50.5q0 -20 -5 -37.5t-13 -32.5
t-17.5 -25.5t-19.5 -15.5q-26 -13 -86 -20t-144 -7h-40zM108 601l231 61l-7 -52l-230 -60z" />
    <glyph glyph-name="uni067E0646.fina" horiz-adv-x="864" 
d="M864 0q-38 0 -63.5 8t-42.5 24.5t-26.5 41.5t-15.5 60l-10 60q-38 -11 -82 -20.5t-85 -14.5q20 -115 20 -185q0 -36 -6.5 -64.5t-15.5 -43.5q-5 -9 -25.5 -26t-55 -33.5t-82.5 -29t-106 -12.5q-61 0 -102 12.5t-65.5 33.5t-34.5 49t-10 59q0 24 2.5 62.5t6.5 75.5
q4 43 10 90l53 -3q-3 -49 -7 -94q-3 -38 -5.5 -78.5t-3.5 -63.5q17 -26 55.5 -44t100.5 -18q33 0 67 5.5t65.5 14.5t58 22t44.5 28q-1 34 -5 70.5t-9.5 71t-12 66t-12.5 56.5l28 47q28 3 59 8t62.5 11.5t61.5 14.5t55 16l20 -11l16 -101q8 -48 31 -66t67 -18v-81zM674 -87
l78 -49l-40 -62l-77 47zM296 230l-76 47l38 64l78 -48zM880 -134l-38 -64l-78 48l40 63zM795 -321l-76 47l39 64l77 -48z" />
    <glyph glyph-name="uni062806CC.fina" horiz-adv-x="822" 
d="M795 0q-44 0 -78 14.5t-61 38t-48 51.5t-39.5 55.5t-34.5 50.5t-33 36q-29 0 -59 -14t-56.5 -37t-45.5 -53t-26 -61q5 -5 15.5 -8.5t30 -7t50 -7.5t75.5 -8q31 -4 49.5 -10t28.5 -15.5t13 -22t3 -28.5q0 -36 -7.5 -69t-14.5 -44q-5 -9 -26 -26t-57 -33.5t-86 -29
t-114 -12.5q-62 0 -103 12.5t-66 33.5t-35 49t-10 59q0 24 2.5 62.5t6.5 75.5q4 43 10 90l53 -3q-3 -49 -7 -94q-3 -38 -5.5 -78.5t-3.5 -63.5q17 -26 55.5 -44t102.5 -18q74 0 138 17.5t104 44.5q4 16 5 30t0 31q-8 3 -22.5 5.5t-33 4t-39 3t-41.5 3.5q-35 4 -58 10.5
t-37 17t-20 25.5t-6 36q0 43 21 87.5t56 81t79.5 60t92.5 23.5q17 0 32.5 -18t33 -44.5t38 -57.5t47.5 -57.5t61.5 -44.5t79.5 -18h17v-81h-27zM798 -136l-40 -62l-76 47l38 64z" />
    <glyph glyph-name="pi" horiz-adv-x="822" 
d="M795 0q-44 0 -78 14.5t-61 38t-48 51.5t-39.5 55.5t-34.5 50.5t-33 36q-29 0 -59 -14t-56.5 -37t-45.5 -53t-26 -61q5 -5 15.5 -8.5t30 -7t50 -7.5t75.5 -8q31 -4 49.5 -10t28.5 -15.5t13 -22t3 -28.5q0 -36 -7.5 -69t-14.5 -44q-5 -9 -26 -26t-57 -33.5t-86 -29
t-114 -12.5q-62 0 -103 12.5t-66 33.5t-35 49t-10 59q0 24 2.5 62.5t6.5 75.5q4 43 10 90l53 -3q-3 -49 -7 -94q-3 -38 -5.5 -78.5t-3.5 -63.5q17 -26 55.5 -44t102.5 -18q74 0 138 17.5t104 44.5q4 16 5 30t0 31q-8 3 -22.5 5.5t-33 4t-39 3t-41.5 3.5q-35 4 -58 10.5
t-37 17t-20 25.5t-6 36q0 43 21 87.5t56 81t79.5 60t92.5 23.5q17 0 32.5 -18t33 -44.5t38 -57.5t47.5 -57.5t61.5 -44.5t79.5 -18h17v-81h-27zM658 -87l78 -49l-40 -62l-77 47zM864 -134l-38 -64l-78 48l40 63zM779 -321l-76 47l39 64l77 -48z" />
    <glyph glyph-name="uni06CC06CC.fina" horiz-adv-x="822" 
d="M795 0q-44 0 -78 14.5t-61 38t-48 51.5t-39.5 55.5t-34.5 50.5t-33 36q-29 0 -59 -14t-56.5 -37t-45.5 -53t-26 -61q5 -5 15.5 -8.5t30 -7t50 -7.5t75.5 -8q31 -4 49.5 -10t28.5 -15.5t13 -22t3 -28.5q0 -36 -7.5 -69t-14.5 -44q-5 -9 -26 -26t-57 -33.5t-86 -29
t-114 -12.5q-62 0 -103 12.5t-66 33.5t-35 49t-10 59q0 24 2.5 62.5t6.5 75.5q4 43 10 90l53 -3q-3 -49 -7 -94q-3 -38 -5.5 -78.5t-3.5 -63.5q17 -26 55.5 -44t102.5 -18q74 0 138 17.5t104 44.5q4 16 5 30t0 31q-8 3 -22.5 5.5t-33 4t-39 3t-41.5 3.5q-35 4 -58 10.5
t-37 17t-20 25.5t-6 36q0 43 21 87.5t56 81t79.5 60t92.5 23.5q17 0 32.5 -18t33 -44.5t38 -57.5t47.5 -57.5t61.5 -44.5t79.5 -18h17v-81h-27zM658 -87l78 -49l-40 -62l-77 47zM864 -134l-38 -64l-78 48l40 63z" />
    <glyph glyph-name="uni062806CC.fina.ss02" horiz-adv-x="516" 
d="M516 0q-53 0 -88.5 17.5t-61 43.5t-45 56.5t-40.5 56.5q-25 -6 -52 -22.5t-52 -40.5t-44.5 -53.5t-28.5 -61.5q7 -26 22 -48.5t41 -39t66 -25.5t97 -9q19 0 56.5 0.5t81.5 1t90 2t82 4.5l7 -15l-23 -62q-32 -2 -77 -3.5t-90 -2.5t-83 -1.5t-54 -0.5q-133 0 -196.5 48
t-63.5 136q0 50 24 97.5t59.5 85t76.5 60.5t75 23q13 0 24 -12.5t23.5 -30.5t27.5 -40t35.5 -40t47.5 -30.5t63 -12.5v-81zM370 -319l-40 -62l-76 47l38 64z" />
    <glyph glyph-name="pi.ss02" horiz-adv-x="516" 
d="M516 0q-53 0 -88.5 17.5t-61 43.5t-45 56.5t-40.5 56.5q-25 -6 -52 -22.5t-52 -40.5t-44.5 -53.5t-28.5 -61.5q7 -26 22 -48.5t41 -39t66 -25.5t97 -9q19 0 56.5 0.5t81.5 1t90 2t82 4.5l7 -15l-23 -62q-32 -2 -77 -3.5t-90 -2.5t-83 -1.5t-54 -0.5q-133 0 -196.5 48
t-63.5 136q0 50 24 97.5t59.5 85t76.5 60.5t75 23q13 0 24 -12.5t23.5 -30.5t27.5 -40t35.5 -40t47.5 -30.5t63 -12.5v-81zM230 -270l78 -49l-40 -62l-77 47zM436 -317l-38 -64l-78 48l40 63zM351 -504l-76 47l39 64l77 -48z" />
    <glyph glyph-name="tehalefmaksuraarab.fina.ss02" horiz-adv-x="516" 
d="M516 0q-53 0 -88.5 17.5t-61 43.5t-45 56.5t-40.5 56.5q-25 -6 -52 -22.5t-52 -40.5t-44.5 -53.5t-28.5 -61.5q7 -26 22 -48.5t41 -39t66 -25.5t97 -9q19 0 56.5 0.5t81.5 1t90 2t82 4.5l7 -15l-23 -62q-32 -2 -77 -3.5t-90 -2.5t-83 -1.5t-54 -0.5q-133 0 -196.5 48
t-63.5 136q0 50 24 97.5t59.5 85t76.5 60.5t75 23q13 0 24 -12.5t23.5 -30.5t27.5 -40t35.5 -40t47.5 -30.5t63 -12.5v-81zM189 435l78 -48l-40 -63l-77 47zM279 372l40 63l76 -47l-38 -64z" />
    <glyph glyph-name="thehalefmaksuraarab.fina.ss02" horiz-adv-x="516" 
d="M516 0q-53 0 -88.5 17.5t-61 43.5t-45 56.5t-40.5 56.5q-25 -6 -52 -22.5t-52 -40.5t-44.5 -53.5t-28.5 -61.5q7 -26 22 -48.5t41 -39t66 -25.5t97 -9q19 0 56.5 0.5t81.5 1t90 2t82 4.5l7 -15l-23 -62q-32 -2 -77 -3.5t-90 -2.5t-83 -1.5t-54 -0.5q-133 0 -196.5 48
t-63.5 136q0 50 24 97.5t59.5 85t76.5 60.5t75 23q13 0 24 -12.5t23.5 -30.5t27.5 -40t35.5 -40t47.5 -30.5t63 -12.5v-81zM235 558l77 -48l-39 -64l-78 49zM189 435l78 -48l-40 -63l-77 47zM279 372l40 63l76 -47l-38 -64z" />
    <glyph glyph-name="noonalefmaksuraarab.fina.ss02" horiz-adv-x="516" 
d="M516 0q-53 0 -88.5 17.5t-61 43.5t-45 56.5t-40.5 56.5q-25 -6 -52 -22.5t-52 -40.5t-44.5 -53.5t-28.5 -61.5q7 -26 22 -48.5t41 -39t66 -25.5t97 -9q19 0 56.5 0.5t81.5 1t90 2t82 4.5l7 -15l-23 -62q-32 -2 -77 -3.5t-90 -2.5t-83 -1.5t-54 -0.5q-133 0 -196.5 48
t-63.5 136q0 50 24 97.5t59.5 85t76.5 60.5t75 23q13 0 24 -12.5t23.5 -30.5t27.5 -40t35.5 -40t47.5 -30.5t63 -12.5v-81zM213 371l38 64l78 -48l-40 -63z" />
    <glyph glyph-name="uni06CC06CC.fina.ss02" horiz-adv-x="516" 
d="M516 0q-53 0 -88.5 17.5t-61 43.5t-45 56.5t-40.5 56.5q-25 -6 -52 -22.5t-52 -40.5t-44.5 -53.5t-28.5 -61.5q7 -26 22 -48.5t41 -39t66 -25.5t97 -9q19 0 56.5 0.5t81.5 1t90 2t82 4.5l7 -15l-23 -62q-32 -2 -77 -3.5t-90 -2.5t-83 -1.5t-54 -0.5q-133 0 -196.5 48
t-63.5 136q0 50 24 97.5t59.5 85t76.5 60.5t75 23q13 0 24 -12.5t23.5 -30.5t27.5 -40t35.5 -40t47.5 -30.5t63 -12.5v-81zM230 -270l78 -49l-40 -62l-77 47zM436 -317l-38 -64l-78 48l40 63z" />
    <glyph glyph-name="yehhamzaabovealefmaksuraarab.fina.ss02" horiz-adv-x="516" 
d="M516 0q-53 0 -88.5 17.5t-61 43.5t-45 56.5t-40.5 56.5q-25 -6 -52 -22.5t-52 -40.5t-44.5 -53.5t-28.5 -61.5q7 -26 22 -48.5t41 -39t66 -25.5t97 -9q19 0 56.5 0.5t81.5 1t90 2t82 4.5l7 -15l-23 -62q-32 -2 -77 -3.5t-90 -2.5t-83 -1.5t-54 -0.5q-133 0 -196.5 48
t-63.5 136q0 50 24 97.5t59.5 85t76.5 60.5t75 23q13 0 24 -12.5t23.5 -30.5t27.5 -40t35.5 -40t47.5 -30.5t63 -12.5v-81zM331 544l-12 -38h-93q-7 -16 -6 -32t9 -29t21.5 -21.5t32.5 -8.5q14 0 37 5t54 16l5 -47l-206 -75l-6 40l63 29q-25 13 -38 36.5t-13 49.5
q0 18 5.5 38.5t22.5 47.5h116z" />
    <glyph glyph-name="uni067E0631.fina" horiz-adv-x="497" 
d="M497 0q-38 0 -63.5 8t-42 24.5t-26 41.5t-15.5 60l-10 61q-36 -11 -78 -20.5t-81 -14.5q8 -31 13.5 -64.5t5.5 -61.5q0 -62 -20 -111t-48 -83t-58 -52t-50 -18q-8 0 -28.5 3t-65.5 13v35q40 7 76 25t64.5 44.5t48.5 58.5t28 66q-3 19 -8.5 42t-12 45.5t-14 42.5t-13.5 32
l27 50q28 3 59 8t62.5 11.5t61 14.5t54.5 16l20 -11l17 -101q8 -48 31 -66t66 -18v-81zM273 -87l78 -49l-40 -62l-77 47zM479 -134l-38 -64l-78 48l40 63zM394 -321l-76 47l39 64l77 -48z" />
    <glyph glyph-name="uni067E0632.fina" horiz-adv-x="497" 
d="M497 0q-38 0 -63.5 8t-42 24.5t-26 41.5t-15.5 60l-10 61q-36 -11 -78 -20.5t-81 -14.5q8 -31 13.5 -64.5t5.5 -61.5q0 -62 -20 -111t-48 -83t-58 -52t-50 -18q-8 0 -28.5 3t-65.5 13v35q40 7 76 25t64.5 44.5t48.5 58.5t28 66q-3 19 -8.5 42t-12 45.5t-14 42.5t-13.5 32
l27 50q28 3 59 8t62.5 11.5t61 14.5t54.5 16l20 -11l17 -101q8 -48 31 -66t66 -18v-81zM273 -87l78 -49l-40 -62l-77 47zM131 325l-76 47l38 64l78 -48zM479 -134l-38 -64l-78 48l40 63zM394 -321l-76 47l39 64l77 -48z" />
    <glyph glyph-name="uni062B0632.fina" horiz-adv-x="497" 
d="M497 0q-38 0 -63.5 8t-42 24.5t-26 41.5t-15.5 60l-10 61q-36 -11 -78 -20.5t-81 -14.5q8 -31 13.5 -64.5t5.5 -61.5q0 -62 -20 -111t-48 -83t-58 -52t-50 -18q-8 0 -28.5 3t-65.5 13v35q40 7 76 25t64.5 44.5t48.5 58.5t28 66q-3 19 -8.5 42t-12 45.5t-14 42.5t-13.5 32
l27 50q28 3 59 8t62.5 11.5t61 14.5t54.5 16l20 -11l17 -101q8 -48 31 -66t66 -18v-81zM314 601l77 -48l-39 -64l-78 49zM268 478l78 -48l-40 -63l-77 47zM358 415l40 63l76 -47l-38 -64zM131 325l-76 47l38 64l78 -48z" />
    <glyph glyph-name="uni06280698.fina" horiz-adv-x="497" 
d="M497 0q-38 0 -63.5 8t-42 24.5t-26 41.5t-15.5 60l-10 61q-36 -11 -78 -20.5t-81 -14.5q8 -31 13.5 -64.5t5.5 -61.5q0 -62 -20 -111t-48 -83t-58 -52t-50 -18q-8 0 -28.5 3t-65.5 13v35q40 7 76 25t64.5 44.5t48.5 58.5t28 66q-3 19 -8.5 42t-12 45.5t-14 42.5t-13.5 32
l27 50q28 3 59 8t62.5 11.5t61 14.5t54.5 16l20 -11l17 -101q8 -48 31 -66t66 -18v-81zM77 559l77 -48l-39 -64l-78 49zM31 436l78 -48l-40 -63l-77 47zM199 325l-78 48l40 63l76 -47zM413 -136l-40 -62l-76 47l38 64z" />
    <glyph glyph-name="uni067E0698.fina" horiz-adv-x="497" 
d="M497 0q-38 0 -63.5 8t-42 24.5t-26 41.5t-15.5 60l-10 61q-36 -11 -78 -20.5t-81 -14.5q8 -31 13.5 -64.5t5.5 -61.5q0 -62 -20 -111t-48 -83t-58 -52t-50 -18q-8 0 -28.5 3t-65.5 13v35q40 7 76 25t64.5 44.5t48.5 58.5t28 66q-3 19 -8.5 42t-12 45.5t-14 42.5t-13.5 32
l27 50q28 3 59 8t62.5 11.5t61 14.5t54.5 16l20 -11l17 -101q8 -48 31 -66t66 -18v-81zM77 559l77 -48l-39 -64l-78 49zM31 436l78 -48l-40 -63l-77 47zM273 -87l78 -49l-40 -62l-77 47zM199 325l-78 48l40 63l76 -47zM479 -134l-38 -64l-78 48l40 63zM394 -321l-76 47
l39 64l77 -48z" />
    <glyph glyph-name="uni062A0698.fina" horiz-adv-x="497" 
d="M497 0q-38 0 -63.5 8t-42 24.5t-26 41.5t-15.5 60l-10 61q-36 -11 -78 -20.5t-81 -14.5q8 -31 13.5 -64.5t5.5 -61.5q0 -62 -20 -111t-48 -83t-58 -52t-50 -18q-8 0 -28.5 3t-65.5 13v35q40 7 76 25t64.5 44.5t48.5 58.5t28 66q-3 19 -8.5 42t-12 45.5t-14 42.5t-13.5 32
l27 50q28 3 59 8t62.5 11.5t61 14.5t54.5 16l20 -11l17 -101q8 -48 31 -66t66 -18v-81zM77 559l77 -48l-39 -64l-78 49zM320 478l78 -48l-40 -63l-77 47zM31 436l78 -48l-40 -63l-77 47zM199 325l-78 48l40 63l76 -47zM410 415l40 63l76 -47l-38 -64z" />
    <glyph glyph-name="uni062B0698.fina" horiz-adv-x="497" 
d="M497 0q-38 0 -63.5 8t-42 24.5t-26 41.5t-15.5 60l-10 61q-36 -11 -78 -20.5t-81 -14.5q8 -31 13.5 -64.5t5.5 -61.5q0 -62 -20 -111t-48 -83t-58 -52t-50 -18q-8 0 -28.5 3t-65.5 13v35q40 7 76 25t64.5 44.5t48.5 58.5t28 66q-3 19 -8.5 42t-12 45.5t-14 42.5t-13.5 32
l27 50q28 3 59 8t62.5 11.5t61 14.5t54.5 16l20 -11l17 -101q8 -48 31 -66t66 -18v-81zM77 559l77 -48l-39 -64l-78 49zM366 601l77 -48l-39 -64l-78 49zM320 478l78 -48l-40 -63l-77 47zM31 436l78 -48l-40 -63l-77 47zM199 325l-78 48l40 63l76 -47zM410 415l40 63l76 -47
l-38 -64z" />
    <glyph glyph-name="uni06460698.fina" horiz-adv-x="497" 
d="M497 0q-38 0 -63.5 8t-42 24.5t-26 41.5t-15.5 60l-10 61q-36 -11 -78 -20.5t-81 -14.5q8 -31 13.5 -64.5t5.5 -61.5q0 -62 -20 -111t-48 -83t-58 -52t-50 -18q-8 0 -28.5 3t-65.5 13v35q40 7 76 25t64.5 44.5t48.5 58.5t28 66q-3 19 -8.5 42t-12 45.5t-14 42.5t-13.5 32
l27 50q28 3 59 8t62.5 11.5t61 14.5t54.5 16l20 -11l17 -101q8 -48 31 -66t66 -18v-81zM77 559l77 -48l-39 -64l-78 49zM31 436l78 -48l-40 -63l-77 47zM199 325l-78 48l40 63l76 -47zM344 414l38 64l78 -48l-40 -63z" />
    <glyph glyph-name="uni06CC0698.fina" horiz-adv-x="497" 
d="M497 0q-38 0 -63.5 8t-42 24.5t-26 41.5t-15.5 60l-10 61q-36 -11 -78 -20.5t-81 -14.5q8 -31 13.5 -64.5t5.5 -61.5q0 -62 -20 -111t-48 -83t-58 -52t-50 -18q-8 0 -28.5 3t-65.5 13v35q40 7 76 25t64.5 44.5t48.5 58.5t28 66q-3 19 -8.5 42t-12 45.5t-14 42.5t-13.5 32
l27 50q28 3 59 8t62.5 11.5t61 14.5t54.5 16l20 -11l17 -101q8 -48 31 -66t66 -18v-81zM77 559l77 -48l-39 -64l-78 49zM31 436l78 -48l-40 -63l-77 47zM273 -87l78 -49l-40 -62l-77 47zM199 325l-78 48l40 63l76 -47zM479 -134l-38 -64l-78 48l40 63z" />
    <glyph glyph-name="uni06260698.fina" horiz-adv-x="497" 
d="M497 0q-38 0 -63.5 8t-42 24.5t-26 41.5t-15.5 60l-10 61q-36 -11 -78 -20.5t-81 -14.5q8 -31 13.5 -64.5t5.5 -61.5q0 -62 -20 -111t-48 -83t-58 -52t-50 -18q-8 0 -28.5 3t-65.5 13v35q40 7 76 25t64.5 44.5t48.5 58.5t28 66q-3 19 -8.5 42t-12 45.5t-14 42.5t-13.5 32
l27 50q28 3 59 8t62.5 11.5t61 14.5t54.5 16l20 -11l17 -101q8 -48 31 -66t66 -18v-81zM462 587l-12 -38h-93q-7 -16 -6 -32t9 -29t21.5 -21.5t32.5 -8.5q14 0 37 5t54 16l5 -47l-206 -75l-6 40l63 29q-25 13 -38 36.5t-13 49.5q0 18 5.5 38.5t22.5 47.5h116zM77 559l77 -48
l-39 -64l-78 49zM31 436l78 -48l-40 -63l-77 47zM199 325l-78 48l40 63l76 -47z" />
    <glyph glyph-name="uni063406CC.fina" horiz-adv-x="1224" 
d="M1224 0q-34 0 -64 12t-47 55q-9 -17 -16.5 -28.5t-16.5 -16.5q-13 -9 -35 -15.5t-48 -6.5q-14 0 -28 2.5t-27.5 9t-25.5 19t-21 32.5q-8 -15 -14.5 -25t-16.5 -16q-14 -9 -38 -15.5t-54 -6.5q-38 0 -67.5 14.5t-54 38t-44.5 51.5t-37.5 55.5t-34 50.5t-33.5 36
q-29 0 -59 -14t-56.5 -37t-45.5 -53t-26 -61q5 -5 15.5 -8.5t30 -7t50 -7.5t75.5 -8q31 -4 49.5 -10t28.5 -15.5t13 -22t3 -28.5q0 -36 -7.5 -69t-14.5 -44q-5 -9 -26 -26t-57 -33.5t-86 -29t-114 -12.5q-62 0 -103 12.5t-66 33.5t-35 49t-10 59q0 24 2.5 62.5t6.5 75.5
q4 43 10 90l53 -3q-3 -49 -7 -94q-3 -38 -5.5 -78.5t-3.5 -63.5q17 -26 55.5 -44t102.5 -18q74 0 138 17.5t104 44.5q4 16 5 30t0 31q-8 3 -22.5 5.5t-33 4t-39 3t-41.5 3.5q-35 4 -58 10.5t-37 17t-20 25.5t-6 36q0 43 21 87.5t56 81t79.5 60t92.5 23.5q17 0 33 -18
t33 -44.5t36.5 -57.5t43 -57.5t52.5 -44.5t66 -18q50 0 82 14l27 150h50q-2 -27 -2.5 -43.5t-1 -27t-0.5 -16v-8.5q0 -38 22 -53.5t48 -15.5q23 0 41 4.5t30 9.5q5 23 9.5 53t8.5 57q4 32 9 65h51q-1 -33 -2 -54.5t-1.5 -35t-0.5 -20.5v-10q0 -35 21 -52t56 -17v-81z
M864 566l77 -48l-39 -64l-78 49zM818 443l78 -48l-40 -63l-77 47zM908 380l40 63l76 -47l-38 -64z" />
    <glyph glyph-name="seenalefmaksuraarab.isol.ss02" horiz-adv-x="944" 
d="M727 0q-14 0 -28 2.5t-27.5 9t-25.5 19t-21 32.5q-8 -15 -14.5 -25t-16.5 -16q-14 -9 -38 -15.5t-54 -6.5q-47 0 -79.5 17.5t-57.5 43.5t-44.5 56.5t-39.5 56.5q-25 -6 -52 -22.5t-52 -40.5t-44.5 -53.5t-28.5 -61.5q7 -26 22 -48.5t41 -39t66 -25.5t97 -9q19 0 56.5 0.5
t81.5 1t90 2t82 4.5l7 -15l-23 -62q-32 -2 -77 -3.5t-90 -2.5t-83 -1.5t-54 -0.5q-133 0 -196.5 48t-63.5 136q0 50 24 97.5t59.5 85t76.5 60.5t75 23q13 0 24 -12.5t23.5 -30.5t27 -40t34 -40t44.5 -30.5t59 -12.5q50 0 82 14l27 150h50q-2 -27 -2.5 -43.5t-1 -27t-0.5 -16
v-8.5q0 -38 22 -53.5t48 -15.5t53.5 6.5t44.5 15.5q-1 19 -5 42.5t-9.5 48.5t-13 50t-16.5 48l49 40l16 -6q14 -41 23.5 -86t9.5 -90q0 -24 -5.5 -45t-14 -37.5t-18.5 -28t-19 -15.5q-37 -24 -100 -24z" />
    <glyph glyph-name="seenalefmaksuraarab.fina.ss02" horiz-adv-x="954" 
d="M954 0q-34 0 -64 12t-47 55q-9 -17 -16.5 -28.5t-16.5 -16.5q-13 -9 -35 -15.5t-48 -6.5q-14 0 -28 2.5t-27.5 9t-25.5 19t-21 32.5q-8 -15 -14.5 -25t-16.5 -16q-14 -9 -38 -15.5t-54 -6.5q-47 0 -79.5 17.5t-57.5 43.5t-44.5 56.5t-39.5 56.5q-25 -6 -52 -22.5
t-52 -40.5t-44.5 -53.5t-28.5 -61.5q7 -26 22 -48.5t41 -39t66 -25.5t97 -9q19 0 56.5 0.5t81.5 1t90 2t82 4.5l7 -15l-23 -62q-32 -2 -77 -3.5t-90 -2.5t-83 -1.5t-54 -0.5q-133 0 -196.5 48t-63.5 136q0 50 24 97.5t59.5 85t76.5 60.5t75 23q13 0 24 -12.5t23.5 -30.5
t27 -40t34 -40t44.5 -30.5t59 -12.5q50 0 82 14l27 150h50q-2 -27 -2.5 -43.5t-1 -27t-0.5 -16v-8.5q0 -38 22 -53.5t48 -15.5q23 0 41 4.5t30 9.5q5 23 9.5 53t8.5 57q4 32 9 65h51q-1 -33 -2 -54.5t-1.5 -35t-0.5 -20.5v-10q0 -35 21 -52t56 -17v-81v0z" />
    <glyph glyph-name="sheenalefmaksuraarab.isol.ss02" horiz-adv-x="944" 
d="M727 0q-14 0 -28 2.5t-27.5 9t-25.5 19t-21 32.5q-8 -15 -14.5 -25t-16.5 -16q-14 -9 -38 -15.5t-54 -6.5q-47 0 -79.5 17.5t-57.5 43.5t-44.5 56.5t-39.5 56.5q-25 -6 -52 -22.5t-52 -40.5t-44.5 -53.5t-28.5 -61.5q7 -26 22 -48.5t41 -39t66 -25.5t97 -9q19 0 56.5 0.5
t81.5 1t90 2t82 4.5l7 -15l-23 -62q-32 -2 -77 -3.5t-90 -2.5t-83 -1.5t-54 -0.5q-133 0 -196.5 48t-63.5 136q0 50 24 97.5t59.5 85t76.5 60.5t75 23q13 0 24 -12.5t23.5 -30.5t27 -40t34 -40t44.5 -30.5t59 -12.5q50 0 82 14l27 150h50q-2 -27 -2.5 -43.5t-1 -27t-0.5 -16
v-8.5q0 -38 22 -53.5t48 -15.5t53.5 6.5t44.5 15.5q-1 19 -5 42.5t-9.5 48.5t-13 50t-16.5 48l49 40l16 -6q14 -41 23.5 -86t9.5 -90q0 -24 -5.5 -45t-14 -37.5t-18.5 -28t-19 -15.5q-37 -24 -100 -24zM584 566l77 -48l-39 -64l-78 49zM538 443l78 -48l-40 -63l-77 47z
M628 380l40 63l76 -47l-38 -64z" />
    </font>
</defs>
</svg>
